M48
;Layer_Color=9474304
;FILE_FORMAT=4:2
METRIC,LZ
;TYPE=PLATED
T1F00S00C0.25
T2F00S00C0.38
T3F00S00C1.50
;TYPE=NON_PLATED
T4F00S00C0.85
T5F00S00C2.00
%
T01
X0014Y00055
Y00065
Y00115
Y00125
Y00175
Y00185
Y00235
Y00245
X0001Y00205
Y00195
Y00155
Y00145
Y00105
Y00095
T02
X000509Y0004
X000636Y0026
T03
X0015Y0006
Y0012
Y0018
Y0024
X0Y002
Y0015
Y001
T04
X000509Y00073
X000636Y00227
T05
X00134Y00016
Y00284
X00016
Y00016
M30
