M48
;Layer_Color=9474304
;FILE_FORMAT=4:2
METRIC,LZ
;TYPE=PLATED
T01F00S00C0.38
T02F00S00C0.46
T03F00S00C0.90
T04F00S00C1.02
;TYPE=NON_PLATED
T05F00S00C2.50
%
T01
X001715Y000864
X002489Y000918
X001875Y001038
X002134Y001298
X001854Y001753
X001854Y001931
X001905Y002286
X001892Y002426
X002108Y0024
X001981Y002705
X001854Y003047
X002464Y003048
X002489Y003518
X002121Y003703
Y003897
X00188Y004001
X00171Y004135
X002591Y00221
X002476Y001753
T02
X001016Y0013
X001473Y001768
X001473Y001968
X001016Y002401
X001016Y0026
X001473Y003035
X001473Y003238
X001016Y0037
X001016Y003884
T03
X00285Y000775
Y000975
Y001425
Y001625
Y002075
Y002275
Y002725
Y002925
Y003375
Y003575
Y004025
Y004225
T04
X000627Y000976
Y00123
Y001484
Y001738
Y001992
Y002246
Y0025
Y002754
Y003008
X000627Y003262
X000627Y003516
Y00377
X000627Y004024
X000373
Y00377
Y003516
Y003262
Y003008
Y002754
X000373Y0025
X000373Y002246
Y001992
Y001738
Y001484
Y00123
Y000976
T05
X00025Y00025
X00325
Y00475
X00025
M30
