G04*
G04 #@! TF.GenerationSoftware,Altium Limited,Altium Designer,22.4.2 (48)*
G04*
G04 Layer_Color=128*
%FSLAX44Y44*%
%MOMM*%
G71*
G04*
G04 #@! TF.SameCoordinates,838EBF20-BE27-4DE5-A25A-4BBD7161CD63*
G04*
G04*
G04 #@! TF.FilePolarity,Positive*
G04*
G01*
G75*
%ADD11C,0.1270*%
D11*
X133500Y309600D02*
X136500D01*
X135000Y308100D02*
Y311100D01*
X133500Y294600D02*
X136500D01*
X135000Y293100D02*
Y296100D01*
X133500Y324670D02*
X136500D01*
X135000Y323170D02*
Y326170D01*
X148500Y309600D02*
X151500D01*
X150000Y308100D02*
Y311100D01*
X118500Y309600D02*
X121500D01*
X120000Y308100D02*
Y311100D01*
X118500Y294600D02*
X121500D01*
X120000Y293100D02*
Y296100D01*
X148500Y294600D02*
X151500D01*
X150000Y293100D02*
Y296100D01*
X148500Y324670D02*
X151500D01*
X150000Y323170D02*
Y326170D01*
X118500Y324670D02*
X121500D01*
X120000Y323170D02*
Y326170D01*
X109910Y49880D02*
X112450D01*
X111180Y48610D02*
Y51150D01*
X100910Y49880D02*
X103450D01*
X102180Y48610D02*
Y51150D01*
X109910Y61880D02*
X112450D01*
X111180Y60610D02*
Y63150D01*
X100910Y61880D02*
X103450D01*
X102180Y60610D02*
Y63150D01*
X59500Y22000D02*
X68500D01*
X64000Y17500D02*
Y26500D01*
X59500Y42000D02*
X68500D01*
X64000Y37500D02*
Y46500D01*
X144920Y165100D02*
X155080D01*
X150000Y160020D02*
Y170180D01*
X170320Y139700D02*
X180480D01*
X175400Y134620D02*
Y144780D01*
X119520Y165100D02*
X129680D01*
X124600Y160020D02*
Y170180D01*
X119520Y139700D02*
X129680D01*
X124600Y134620D02*
Y144780D01*
X94120Y165100D02*
X104280D01*
X99200Y160020D02*
Y170180D01*
X94120Y139700D02*
X104280D01*
X99200Y134620D02*
Y144780D01*
X144920Y139700D02*
X155080D01*
X150000Y134620D02*
Y144780D01*
X195720Y139700D02*
X205880D01*
X200800Y134620D02*
Y144780D01*
X195720Y165100D02*
X205880D01*
X200800Y160020D02*
Y170180D01*
X170320Y165100D02*
X180480D01*
X175400Y160020D02*
Y170180D01*
X230000Y46990D02*
X240000D01*
X235000Y41990D02*
Y51990D01*
X192500Y94990D02*
X202500D01*
X197500Y89990D02*
Y99990D01*
X161000Y46990D02*
X171000D01*
X166000Y41990D02*
Y51990D01*
X265510Y344170D02*
X275510D01*
X270510Y339170D02*
Y349170D01*
X265510Y293370D02*
X275510D01*
X270510Y288370D02*
Y298370D01*
X265510Y318770D02*
X275510D01*
X270510Y313770D02*
Y323770D01*
X24000Y224790D02*
X34000D01*
X29000Y219790D02*
Y229790D01*
X24000Y275590D02*
X34000D01*
X29000Y270590D02*
Y280590D01*
X24000Y250190D02*
X34000D01*
X29000Y245190D02*
Y255190D01*
X24000Y300990D02*
X34000D01*
X29000Y295990D02*
Y305990D01*
X262500Y130000D02*
X287500D01*
X275000Y117500D02*
Y142500D01*
X12500Y90000D02*
X37500D01*
X25000Y77500D02*
Y102500D01*
X7500Y380000D02*
X32500D01*
X20000Y367500D02*
Y392500D01*
X267500Y380000D02*
X292500D01*
X280000Y367500D02*
Y392500D01*
X214630Y386800D02*
X219710D01*
X217170Y384260D02*
Y389340D01*
X36830Y138430D02*
X41910D01*
X39370Y135890D02*
Y140970D01*
X96520Y87630D02*
X101600D01*
X99060Y85090D02*
Y90170D01*
X103505Y223520D02*
X107315D01*
X105410Y221615D02*
Y225425D01*
X61595Y209550D02*
X65405D01*
X63500Y207645D02*
Y211455D01*
X90805Y234400D02*
X94615D01*
X92710Y232495D02*
Y236305D01*
X192595Y290000D02*
X196405D01*
X194500Y288095D02*
Y291905D01*
X179895Y280000D02*
X183705D01*
X181800Y278095D02*
Y281905D01*
X116395Y230000D02*
X120205D01*
X118300Y228095D02*
Y231905D01*
X167195Y270000D02*
X171005D01*
X169100Y268095D02*
Y271905D01*
X154495Y260000D02*
X158305D01*
X156400Y258095D02*
Y261905D01*
X129095Y240000D02*
X132905D01*
X131000Y238095D02*
Y241905D01*
X141795Y250000D02*
X145605D01*
X143700Y248095D02*
Y251905D01*
X79375Y356870D02*
X83185D01*
X81280Y354965D02*
Y358775D01*
X75565Y374100D02*
X79375D01*
X77470Y372195D02*
Y376005D01*
X75565Y386800D02*
X79375D01*
X77470Y384895D02*
Y388705D01*
M02*
