G04*
G04 #@! TF.GenerationSoftware,Altium Limited,Altium Designer,22.4.2 (48)*
G04*
G04 Layer_Color=65535*
%FSLAX44Y44*%
%MOMM*%
G71*
G04*
G04 #@! TF.SameCoordinates,838EBF20-BE27-4DE5-A25A-4BBD7161CD63*
G04*
G04*
G04 #@! TF.FilePolarity,Positive*
G04*
G01*
G75*
%ADD10C,0.2540*%
%ADD11C,0.1270*%
%ADD12C,0.1000*%
%ADD13C,0.1200*%
G36*
X67810Y9451D02*
X63178D01*
X63187Y9442D01*
X63206Y9423D01*
X63233Y9386D01*
X63280Y9331D01*
X63335Y9266D01*
X63391Y9192D01*
X63455Y9100D01*
X63529Y8998D01*
X63603Y8887D01*
X63677Y8767D01*
X63760Y8637D01*
X63834Y8499D01*
X63973Y8203D01*
X64103Y7870D01*
X62993D01*
Y7879D01*
X62984Y7889D01*
X62975Y7916D01*
X62965Y7953D01*
X62919Y8046D01*
X62864Y8175D01*
X62790Y8332D01*
X62688Y8508D01*
X62558Y8702D01*
X62410Y8906D01*
X62401Y8915D01*
X62392Y8933D01*
X62364Y8961D01*
X62327Y8998D01*
X62235Y9100D01*
X62115Y9211D01*
X61967Y9340D01*
X61782Y9470D01*
X61588Y9590D01*
X61375Y9682D01*
Y10681D01*
X67810D01*
Y9451D01*
D02*
G37*
G36*
X81699Y166031D02*
X81866Y166012D01*
X82051Y165994D01*
X82255Y165957D01*
X82477Y165920D01*
X82958Y165790D01*
X83440Y165605D01*
X83699Y165494D01*
X83921Y165364D01*
X84162Y165198D01*
X84366Y165013D01*
X84384Y164994D01*
X84421Y164976D01*
X84458Y164902D01*
X84532Y164827D01*
X84625Y164735D01*
X84718Y164605D01*
X84810Y164476D01*
X84921Y164309D01*
X85106Y163939D01*
X85292Y163513D01*
X85366Y163272D01*
X85403Y163013D01*
X85440Y162735D01*
X85458Y162457D01*
Y162420D01*
Y162309D01*
X85440Y162143D01*
X85421Y161939D01*
X85384Y161680D01*
X85329Y161402D01*
X85254Y161106D01*
X85143Y160809D01*
X85125Y160772D01*
X85088Y160680D01*
X85014Y160513D01*
X84903Y160309D01*
X84773Y160069D01*
X84607Y159791D01*
X84403Y159495D01*
X84162Y159180D01*
X84143Y159161D01*
X84069Y159069D01*
X83958Y158939D01*
X83792Y158754D01*
X83569Y158532D01*
X83292Y158236D01*
X82958Y157921D01*
X82551Y157532D01*
X82533Y157513D01*
X82496Y157495D01*
X82440Y157439D01*
X82366Y157365D01*
X82162Y157180D01*
X81922Y156958D01*
X81681Y156717D01*
X81440Y156476D01*
X81218Y156273D01*
X81144Y156180D01*
X81070Y156106D01*
X81051Y156088D01*
X81014Y156051D01*
X80959Y155976D01*
X80885Y155884D01*
X80718Y155680D01*
X80570Y155440D01*
X85458D01*
Y153162D01*
X76848D01*
Y153181D01*
Y153217D01*
X76866Y153292D01*
X76885Y153384D01*
X76904Y153495D01*
X76922Y153625D01*
X76996Y153958D01*
X77107Y154328D01*
X77255Y154736D01*
X77441Y155180D01*
X77681Y155606D01*
Y155625D01*
X77718Y155662D01*
X77755Y155736D01*
X77829Y155810D01*
X77903Y155940D01*
X78015Y156069D01*
X78144Y156236D01*
X78292Y156421D01*
X78459Y156643D01*
X78663Y156865D01*
X78885Y157125D01*
X79144Y157402D01*
X79422Y157680D01*
X79737Y157995D01*
X80070Y158328D01*
X80440Y158680D01*
X80459Y158699D01*
X80514Y158754D01*
X80588Y158828D01*
X80700Y158939D01*
X80848Y159050D01*
X80996Y159198D01*
X81329Y159532D01*
X81662Y159883D01*
X81996Y160235D01*
X82144Y160383D01*
X82292Y160550D01*
X82403Y160680D01*
X82477Y160791D01*
X82496Y160828D01*
X82551Y160921D01*
X82644Y161069D01*
X82736Y161272D01*
X82829Y161495D01*
X82921Y161754D01*
X82977Y162013D01*
X82996Y162291D01*
Y162309D01*
Y162328D01*
Y162420D01*
X82977Y162587D01*
X82940Y162772D01*
X82884Y162976D01*
X82810Y163179D01*
X82699Y163383D01*
X82551Y163568D01*
X82533Y163587D01*
X82477Y163642D01*
X82366Y163717D01*
X82236Y163790D01*
X82051Y163865D01*
X81847Y163939D01*
X81607Y163994D01*
X81329Y164013D01*
X81199D01*
X81051Y163994D01*
X80885Y163957D01*
X80681Y163902D01*
X80477Y163809D01*
X80274Y163698D01*
X80088Y163550D01*
X80070Y163531D01*
X80014Y163457D01*
X79940Y163346D01*
X79866Y163179D01*
X79774Y162976D01*
X79700Y162698D01*
X79626Y162383D01*
X79588Y162013D01*
X77144Y162254D01*
Y162272D01*
X77163Y162346D01*
Y162439D01*
X77200Y162587D01*
X77218Y162754D01*
X77274Y162939D01*
X77329Y163142D01*
X77385Y163383D01*
X77570Y163846D01*
X77792Y164328D01*
X77941Y164568D01*
X78107Y164790D01*
X78292Y164976D01*
X78496Y165161D01*
X78514Y165179D01*
X78552Y165198D01*
X78607Y165235D01*
X78700Y165309D01*
X78811Y165364D01*
X78959Y165438D01*
X79107Y165531D01*
X79292Y165605D01*
X79496Y165698D01*
X79718Y165772D01*
X80199Y165920D01*
X80773Y166012D01*
X81070Y166031D01*
X81385Y166050D01*
X81570D01*
X81699Y166031D01*
D02*
G37*
G36*
X83493Y128270D02*
X81030D01*
Y137547D01*
X81012Y137528D01*
X80975Y137491D01*
X80901Y137436D01*
X80790Y137343D01*
X80660Y137232D01*
X80512Y137121D01*
X80327Y136991D01*
X80123Y136843D01*
X79901Y136695D01*
X79660Y136547D01*
X79401Y136380D01*
X79123Y136232D01*
X78531Y135954D01*
X77864Y135695D01*
Y137917D01*
X77882D01*
X77901Y137936D01*
X77957Y137954D01*
X78031Y137973D01*
X78216Y138065D01*
X78475Y138176D01*
X78790Y138324D01*
X79142Y138528D01*
X79531Y138787D01*
X79938Y139084D01*
X79956Y139102D01*
X79993Y139121D01*
X80049Y139176D01*
X80123Y139250D01*
X80327Y139436D01*
X80549Y139676D01*
X80808Y139972D01*
X81067Y140343D01*
X81308Y140732D01*
X81493Y141158D01*
X83493D01*
Y128270D01*
D02*
G37*
G36*
X228699Y139869D02*
X228847D01*
X229014Y139851D01*
X229199Y139813D01*
X229422Y139758D01*
X229644Y139702D01*
X229903Y139610D01*
X230162Y139517D01*
X230421Y139388D01*
X230699Y139239D01*
X230958Y139073D01*
X231218Y138869D01*
X231477Y138628D01*
X231717Y138369D01*
X231736Y138351D01*
X231773Y138295D01*
X231829Y138202D01*
X231921Y138073D01*
X232014Y137906D01*
X232125Y137703D01*
X232236Y137462D01*
X232347Y137184D01*
X232458Y136851D01*
X232588Y136481D01*
X232680Y136073D01*
X232773Y135629D01*
X232866Y135129D01*
X232921Y134592D01*
X232958Y134018D01*
X232977Y133388D01*
Y133370D01*
Y133351D01*
Y133296D01*
Y133240D01*
Y133055D01*
X232958Y132814D01*
X232940Y132518D01*
X232903Y132185D01*
X232866Y131833D01*
X232810Y131444D01*
X232736Y131018D01*
X232662Y130611D01*
X232551Y130185D01*
X232421Y129759D01*
X232273Y129370D01*
X232088Y128981D01*
X231903Y128629D01*
X231662Y128315D01*
X231644Y128296D01*
X231606Y128241D01*
X231532Y128167D01*
X231421Y128074D01*
X231292Y127963D01*
X231143Y127815D01*
X230958Y127685D01*
X230755Y127537D01*
X230532Y127389D01*
X230273Y127259D01*
X229995Y127130D01*
X229699Y127000D01*
X229366Y126907D01*
X229033Y126833D01*
X228681Y126778D01*
X228292Y126759D01*
X228144D01*
X228051Y126778D01*
X227922D01*
X227773Y126796D01*
X227422Y126852D01*
X227033Y126963D01*
X226644Y127093D01*
X226237Y127296D01*
X226051Y127407D01*
X225866Y127556D01*
X225848Y127574D01*
X225829Y127592D01*
X225774Y127648D01*
X225718Y127704D01*
X225644Y127796D01*
X225551Y127889D01*
X225477Y128018D01*
X225366Y128148D01*
X225274Y128315D01*
X225163Y128481D01*
X225070Y128685D01*
X224977Y128907D01*
X224885Y129129D01*
X224811Y129389D01*
X224737Y129648D01*
X224681Y129944D01*
X227051Y130222D01*
Y130185D01*
X227070Y130092D01*
X227088Y129963D01*
X227144Y129815D01*
X227199Y129629D01*
X227274Y129444D01*
X227366Y129277D01*
X227496Y129129D01*
X227514Y129111D01*
X227570Y129074D01*
X227644Y129018D01*
X227755Y128963D01*
X227903Y128907D01*
X228051Y128852D01*
X228255Y128815D01*
X228459Y128796D01*
X228496D01*
X228588Y128815D01*
X228718Y128833D01*
X228903Y128889D01*
X229107Y128963D01*
X229310Y129092D01*
X229533Y129259D01*
X229736Y129481D01*
X229755Y129518D01*
X229792Y129555D01*
X229829Y129629D01*
X229866Y129703D01*
X229921Y129815D01*
X229958Y129944D01*
X230033Y130111D01*
X230088Y130296D01*
X230144Y130500D01*
X230199Y130740D01*
X230255Y131000D01*
X230310Y131296D01*
X230347Y131629D01*
X230384Y132000D01*
X230421Y132388D01*
X230403Y132370D01*
X230384Y132351D01*
X230329Y132296D01*
X230255Y132222D01*
X230162Y132148D01*
X230051Y132055D01*
X229792Y131851D01*
X229459Y131648D01*
X229051Y131481D01*
X228829Y131407D01*
X228607Y131370D01*
X228366Y131333D01*
X228107Y131314D01*
X227959D01*
X227848Y131333D01*
X227718Y131351D01*
X227570Y131370D01*
X227218Y131462D01*
X226811Y131592D01*
X226607Y131703D01*
X226385Y131814D01*
X226162Y131944D01*
X225940Y132092D01*
X225718Y132277D01*
X225515Y132481D01*
X225496Y132499D01*
X225459Y132536D01*
X225422Y132611D01*
X225348Y132685D01*
X225255Y132814D01*
X225163Y132944D01*
X225070Y133111D01*
X224977Y133296D01*
X224866Y133499D01*
X224774Y133740D01*
X224681Y133981D01*
X224589Y134258D01*
X224515Y134536D01*
X224478Y134851D01*
X224440Y135184D01*
X224422Y135518D01*
Y135536D01*
Y135610D01*
Y135703D01*
X224440Y135851D01*
X224459Y136018D01*
X224478Y136203D01*
X224515Y136425D01*
X224570Y136647D01*
X224700Y137147D01*
X224792Y137425D01*
X224903Y137684D01*
X225033Y137943D01*
X225200Y138202D01*
X225366Y138443D01*
X225570Y138684D01*
X225588Y138702D01*
X225626Y138740D01*
X225681Y138795D01*
X225774Y138869D01*
X225903Y138962D01*
X226033Y139073D01*
X226200Y139165D01*
X226385Y139295D01*
X226570Y139406D01*
X226811Y139499D01*
X227051Y139610D01*
X227311Y139702D01*
X227588Y139776D01*
X227885Y139832D01*
X228181Y139869D01*
X228514Y139888D01*
X228607D01*
X228699Y139869D01*
D02*
G37*
G36*
X224463Y152654D02*
X222000D01*
Y161931D01*
X221982Y161912D01*
X221945Y161875D01*
X221871Y161820D01*
X221760Y161727D01*
X221630Y161616D01*
X221482Y161505D01*
X221297Y161375D01*
X221093Y161227D01*
X220871Y161079D01*
X220630Y160931D01*
X220371Y160764D01*
X220093Y160616D01*
X219501Y160338D01*
X218834Y160079D01*
Y162301D01*
X218853D01*
X218871Y162320D01*
X218927Y162338D01*
X219001Y162357D01*
X219186Y162449D01*
X219445Y162560D01*
X219760Y162708D01*
X220112Y162912D01*
X220501Y163171D01*
X220908Y163468D01*
X220926Y163486D01*
X220963Y163505D01*
X221019Y163560D01*
X221093Y163634D01*
X221297Y163820D01*
X221519Y164060D01*
X221778Y164356D01*
X222037Y164727D01*
X222278Y165116D01*
X222463Y165542D01*
X224463D01*
Y152654D01*
D02*
G37*
G36*
X232610Y165523D02*
X232759Y165504D01*
X232944Y165467D01*
X233129Y165431D01*
X233351Y165375D01*
X233592Y165301D01*
X233814Y165208D01*
X234055Y165116D01*
X234295Y164986D01*
X234536Y164819D01*
X234777Y164653D01*
X234999Y164449D01*
X235203Y164208D01*
X235221Y164190D01*
X235258Y164134D01*
X235314Y164042D01*
X235406Y163912D01*
X235499Y163727D01*
X235610Y163505D01*
X235721Y163264D01*
X235832Y162949D01*
X235943Y162616D01*
X236073Y162227D01*
X236166Y161801D01*
X236258Y161320D01*
X236351Y160801D01*
X236406Y160246D01*
X236443Y159635D01*
X236462Y158968D01*
Y158950D01*
Y158931D01*
Y158876D01*
Y158801D01*
Y158616D01*
X236443Y158376D01*
X236425Y158079D01*
X236388Y157727D01*
X236351Y157357D01*
X236314Y156950D01*
X236240Y156524D01*
X236147Y156080D01*
X236054Y155654D01*
X235925Y155228D01*
X235795Y154802D01*
X235610Y154413D01*
X235425Y154043D01*
X235203Y153728D01*
X235184Y153709D01*
X235147Y153672D01*
X235092Y153598D01*
X235018Y153524D01*
X234906Y153432D01*
X234777Y153321D01*
X234610Y153191D01*
X234443Y153080D01*
X234240Y152950D01*
X234036Y152821D01*
X233795Y152710D01*
X233536Y152617D01*
X233258Y152543D01*
X232944Y152469D01*
X232629Y152432D01*
X232295Y152413D01*
X232222D01*
X232110Y152432D01*
X231981D01*
X231833Y152450D01*
X231647Y152487D01*
X231444Y152524D01*
X231222Y152598D01*
X230981Y152673D01*
X230740Y152765D01*
X230481Y152876D01*
X230240Y153024D01*
X229981Y153173D01*
X229740Y153376D01*
X229499Y153580D01*
X229277Y153839D01*
X229259Y153858D01*
X229222Y153913D01*
X229166Y154006D01*
X229111Y154117D01*
X229018Y154284D01*
X228925Y154487D01*
X228814Y154746D01*
X228722Y155024D01*
X228611Y155357D01*
X228500Y155728D01*
X228407Y156154D01*
X228333Y156617D01*
X228259Y157135D01*
X228203Y157709D01*
X228166Y158320D01*
X228148Y158987D01*
Y159005D01*
Y159024D01*
Y159079D01*
Y159153D01*
Y159339D01*
X228166Y159579D01*
X228185Y159875D01*
X228222Y160227D01*
X228259Y160598D01*
X228296Y161005D01*
X228370Y161431D01*
X228444Y161857D01*
X228555Y162301D01*
X228666Y162727D01*
X228814Y163134D01*
X228981Y163523D01*
X229166Y163894D01*
X229388Y164208D01*
X229407Y164227D01*
X229444Y164264D01*
X229499Y164338D01*
X229592Y164412D01*
X229685Y164523D01*
X229814Y164634D01*
X229981Y164745D01*
X230148Y164875D01*
X230351Y165005D01*
X230555Y165116D01*
X230796Y165227D01*
X231055Y165338D01*
X231333Y165412D01*
X231647Y165486D01*
X231962Y165523D01*
X232295Y165542D01*
X232481D01*
X232610Y165523D01*
D02*
G37*
G36*
X16010Y192925D02*
X16163Y192911D01*
X16329Y192883D01*
X16523Y192855D01*
X16731Y192814D01*
X16953Y192759D01*
X17189Y192689D01*
X17425Y192606D01*
X17674Y192495D01*
X17910Y192384D01*
X18132Y192245D01*
X18368Y192079D01*
X18576Y191899D01*
X18590D01*
X18603Y191871D01*
X18645Y191829D01*
X18687Y191788D01*
X18742Y191718D01*
X18798Y191635D01*
X18950Y191441D01*
X19103Y191191D01*
X19269Y190886D01*
X19422Y190539D01*
X19560Y190137D01*
X17646Y189680D01*
Y189694D01*
X17633Y189707D01*
Y189749D01*
X17605Y189804D01*
X17563Y189929D01*
X17494Y190096D01*
X17397Y190290D01*
X17272Y190484D01*
X17106Y190678D01*
X16925Y190845D01*
X16898Y190858D01*
X16828Y190914D01*
X16717Y190983D01*
X16565Y191066D01*
X16371Y191150D01*
X16149Y191219D01*
X15899Y191275D01*
X15622Y191288D01*
X15525D01*
X15441Y191275D01*
X15358Y191261D01*
X15247Y191247D01*
X15012Y191191D01*
X14734Y191094D01*
X14443Y190956D01*
X14290Y190872D01*
X14152Y190775D01*
X14013Y190651D01*
X13888Y190512D01*
Y190498D01*
X13860Y190470D01*
X13833Y190429D01*
X13791Y190359D01*
X13736Y190276D01*
X13680Y190179D01*
X13625Y190054D01*
X13569Y189915D01*
X13500Y189749D01*
X13444Y189569D01*
X13389Y189361D01*
X13333Y189139D01*
X13292Y188889D01*
X13264Y188626D01*
X13250Y188334D01*
X13236Y188015D01*
Y188002D01*
Y187932D01*
Y187835D01*
X13250Y187724D01*
Y187572D01*
X13278Y187391D01*
X13292Y187211D01*
X13320Y187003D01*
X13403Y186573D01*
X13514Y186143D01*
X13583Y185935D01*
X13680Y185741D01*
X13777Y185561D01*
X13888Y185408D01*
X13902Y185394D01*
X13916Y185380D01*
X13958Y185339D01*
X14013Y185283D01*
X14152Y185173D01*
X14346Y185034D01*
X14582Y184881D01*
X14873Y184770D01*
X15206Y184673D01*
X15386Y184659D01*
X15580Y184646D01*
X15649D01*
X15705Y184659D01*
X15857Y184673D01*
X16038Y184701D01*
X16232Y184770D01*
X16454Y184853D01*
X16676Y184964D01*
X16898Y185131D01*
X16925Y185159D01*
X16995Y185228D01*
X17092Y185339D01*
X17203Y185505D01*
X17341Y185727D01*
X17466Y185991D01*
X17591Y186310D01*
X17702Y186684D01*
X19588Y186102D01*
Y186088D01*
X19574Y186032D01*
X19547Y185949D01*
X19505Y185838D01*
X19449Y185713D01*
X19394Y185561D01*
X19325Y185394D01*
X19241Y185214D01*
X19047Y184840D01*
X18798Y184451D01*
X18492Y184077D01*
X18326Y183910D01*
X18146Y183758D01*
X18132Y183744D01*
X18104Y183730D01*
X18049Y183689D01*
X17966Y183633D01*
X17868Y183578D01*
X17744Y183522D01*
X17605Y183453D01*
X17452Y183383D01*
X17272Y183300D01*
X17078Y183231D01*
X16870Y183175D01*
X16648Y183120D01*
X16412Y183064D01*
X16149Y183023D01*
X15885Y183009D01*
X15594Y182995D01*
X15511D01*
X15414Y183009D01*
X15275Y183023D01*
X15122Y183037D01*
X14928Y183064D01*
X14720Y183106D01*
X14484Y183162D01*
X14249Y183231D01*
X13999Y183314D01*
X13736Y183425D01*
X13472Y183550D01*
X13209Y183689D01*
X12945Y183869D01*
X12695Y184063D01*
X12460Y184299D01*
X12446Y184313D01*
X12404Y184354D01*
X12349Y184437D01*
X12266Y184534D01*
X12182Y184673D01*
X12071Y184826D01*
X11961Y185020D01*
X11849Y185242D01*
X11739Y185478D01*
X11628Y185741D01*
X11517Y186046D01*
X11434Y186365D01*
X11350Y186698D01*
X11295Y187072D01*
X11253Y187461D01*
X11239Y187877D01*
Y187891D01*
Y187904D01*
Y187988D01*
X11253Y188113D01*
Y188279D01*
X11281Y188473D01*
X11309Y188709D01*
X11336Y188958D01*
X11392Y189250D01*
X11461Y189541D01*
X11544Y189846D01*
X11641Y190151D01*
X11766Y190470D01*
X11905Y190775D01*
X12071Y191066D01*
X12252Y191344D01*
X12474Y191607D01*
X12487Y191621D01*
X12529Y191663D01*
X12598Y191732D01*
X12695Y191815D01*
X12820Y191912D01*
X12973Y192023D01*
X13139Y192148D01*
X13347Y192273D01*
X13569Y192398D01*
X13805Y192523D01*
X14082Y192634D01*
X14360Y192731D01*
X14679Y192814D01*
X14998Y192883D01*
X15358Y192925D01*
X15719Y192939D01*
X15885D01*
X16010Y192925D01*
D02*
G37*
G36*
X28894Y183162D02*
X26952D01*
X23055Y189485D01*
Y183162D01*
X21266D01*
Y192759D01*
X23138D01*
X27105Y186296D01*
Y192759D01*
X28894D01*
Y183162D01*
D02*
G37*
G36*
X36591Y190914D02*
X33110D01*
X32819Y189277D01*
X32832D01*
X32846Y189291D01*
X32929Y189333D01*
X33054Y189375D01*
X33207Y189444D01*
X33401Y189499D01*
X33609Y189541D01*
X33845Y189583D01*
X34081Y189597D01*
X34205D01*
X34289Y189583D01*
X34386Y189569D01*
X34511Y189555D01*
X34649Y189527D01*
X34802Y189485D01*
X35121Y189375D01*
X35301Y189305D01*
X35467Y189222D01*
X35648Y189111D01*
X35828Y188986D01*
X35994Y188848D01*
X36161Y188695D01*
X36175Y188681D01*
X36202Y188653D01*
X36244Y188598D01*
X36300Y188529D01*
X36355Y188445D01*
X36438Y188334D01*
X36507Y188210D01*
X36591Y188071D01*
X36674Y187918D01*
X36743Y187738D01*
X36827Y187544D01*
X36882Y187350D01*
X36937Y187128D01*
X36979Y186892D01*
X37007Y186642D01*
X37021Y186379D01*
Y186365D01*
Y186324D01*
Y186268D01*
X37007Y186185D01*
Y186074D01*
X36979Y185949D01*
X36965Y185810D01*
X36937Y185672D01*
X36854Y185339D01*
X36729Y184978D01*
X36646Y184784D01*
X36563Y184604D01*
X36452Y184424D01*
X36327Y184243D01*
X36313Y184229D01*
X36286Y184188D01*
X36230Y184132D01*
X36161Y184049D01*
X36064Y183952D01*
X35939Y183841D01*
X35800Y183730D01*
X35648Y183619D01*
X35467Y183494D01*
X35273Y183383D01*
X35065Y183272D01*
X34829Y183175D01*
X34580Y183092D01*
X34316Y183037D01*
X34025Y182995D01*
X33720Y182981D01*
X33595D01*
X33498Y182995D01*
X33387Y183009D01*
X33249Y183023D01*
X33110Y183037D01*
X32943Y183064D01*
X32610Y183148D01*
X32236Y183286D01*
X32056Y183356D01*
X31876Y183453D01*
X31709Y183564D01*
X31543Y183689D01*
X31529Y183702D01*
X31501Y183716D01*
X31459Y183758D01*
X31404Y183813D01*
X31349Y183897D01*
X31265Y183980D01*
X31196Y184077D01*
X31113Y184188D01*
X31016Y184326D01*
X30933Y184465D01*
X30780Y184798D01*
X30641Y185173D01*
X30600Y185380D01*
X30558Y185602D01*
X32389Y185797D01*
Y185769D01*
X32403Y185700D01*
X32430Y185575D01*
X32472Y185436D01*
X32527Y185283D01*
X32610Y185117D01*
X32722Y184964D01*
X32846Y184812D01*
X32860Y184798D01*
X32916Y184756D01*
X32999Y184701D01*
X33110Y184632D01*
X33235Y184562D01*
X33387Y184507D01*
X33567Y184465D01*
X33748Y184451D01*
X33775D01*
X33845Y184465D01*
X33956Y184479D01*
X34094Y184507D01*
X34247Y184562D01*
X34413Y184646D01*
X34580Y184770D01*
X34732Y184923D01*
X34746Y184951D01*
X34802Y185006D01*
X34857Y185117D01*
X34940Y185283D01*
X35010Y185478D01*
X35079Y185713D01*
X35121Y186005D01*
X35135Y186337D01*
Y186351D01*
Y186379D01*
Y186421D01*
Y186490D01*
X35121Y186642D01*
X35079Y186837D01*
X35038Y187059D01*
X34968Y187280D01*
X34871Y187488D01*
X34732Y187669D01*
X34718Y187683D01*
X34663Y187738D01*
X34566Y187807D01*
X34455Y187904D01*
X34302Y187988D01*
X34122Y188057D01*
X33914Y188113D01*
X33692Y188126D01*
X33609D01*
X33554Y188113D01*
X33415Y188085D01*
X33221Y188043D01*
X32999Y187960D01*
X32763Y187835D01*
X32638Y187752D01*
X32513Y187655D01*
X32389Y187544D01*
X32264Y187419D01*
X30780Y187627D01*
X31723Y192634D01*
X36591D01*
Y190914D01*
D02*
G37*
G36*
X21985Y331348D02*
X22137Y331334D01*
X22304Y331306D01*
X22498Y331279D01*
X22706Y331237D01*
X22928Y331181D01*
X23163Y331112D01*
X23399Y331029D01*
X23649Y330918D01*
X23884Y330807D01*
X24106Y330668D01*
X24342Y330502D01*
X24550Y330322D01*
X24564D01*
X24578Y330294D01*
X24620Y330252D01*
X24661Y330211D01*
X24717Y330141D01*
X24772Y330058D01*
X24925Y329864D01*
X25077Y329614D01*
X25244Y329309D01*
X25396Y328963D01*
X25535Y328560D01*
X23621Y328103D01*
Y328117D01*
X23607Y328130D01*
Y328172D01*
X23579Y328228D01*
X23538Y328352D01*
X23468Y328519D01*
X23371Y328713D01*
X23247Y328907D01*
X23080Y329101D01*
X22900Y329268D01*
X22872Y329282D01*
X22803Y329337D01*
X22692Y329406D01*
X22539Y329490D01*
X22345Y329573D01*
X22123Y329642D01*
X21874Y329698D01*
X21596Y329711D01*
X21499D01*
X21416Y329698D01*
X21333Y329684D01*
X21222Y329670D01*
X20986Y329614D01*
X20709Y329517D01*
X20417Y329379D01*
X20265Y329295D01*
X20126Y329198D01*
X19987Y329073D01*
X19863Y328935D01*
Y328921D01*
X19835Y328893D01*
X19807Y328852D01*
X19766Y328782D01*
X19710Y328699D01*
X19655Y328602D01*
X19599Y328477D01*
X19544Y328339D01*
X19474Y328172D01*
X19419Y327992D01*
X19363Y327784D01*
X19308Y327562D01*
X19266Y327312D01*
X19239Y327049D01*
X19225Y326758D01*
X19211Y326438D01*
Y326425D01*
Y326355D01*
Y326258D01*
X19225Y326147D01*
Y325995D01*
X19253Y325815D01*
X19266Y325634D01*
X19294Y325426D01*
X19377Y324996D01*
X19488Y324566D01*
X19558Y324358D01*
X19655Y324164D01*
X19752Y323984D01*
X19863Y323831D01*
X19877Y323817D01*
X19890Y323803D01*
X19932Y323762D01*
X19987Y323707D01*
X20126Y323596D01*
X20320Y323457D01*
X20556Y323304D01*
X20847Y323193D01*
X21180Y323096D01*
X21360Y323082D01*
X21555Y323069D01*
X21624D01*
X21679Y323082D01*
X21832Y323096D01*
X22012Y323124D01*
X22206Y323193D01*
X22428Y323276D01*
X22650Y323387D01*
X22872Y323554D01*
X22900Y323582D01*
X22969Y323651D01*
X23066Y323762D01*
X23177Y323928D01*
X23316Y324150D01*
X23441Y324414D01*
X23566Y324733D01*
X23677Y325107D01*
X25563Y324525D01*
Y324511D01*
X25549Y324455D01*
X25521Y324372D01*
X25479Y324261D01*
X25424Y324136D01*
X25368Y323984D01*
X25299Y323817D01*
X25216Y323637D01*
X25022Y323263D01*
X24772Y322874D01*
X24467Y322500D01*
X24301Y322333D01*
X24120Y322181D01*
X24106Y322167D01*
X24079Y322153D01*
X24023Y322112D01*
X23940Y322056D01*
X23843Y322001D01*
X23718Y321945D01*
X23579Y321876D01*
X23427Y321806D01*
X23247Y321723D01*
X23052Y321654D01*
X22844Y321599D01*
X22622Y321543D01*
X22387Y321488D01*
X22123Y321446D01*
X21860Y321432D01*
X21569Y321418D01*
X21485D01*
X21388Y321432D01*
X21249Y321446D01*
X21097Y321460D01*
X20903Y321488D01*
X20695Y321529D01*
X20459Y321585D01*
X20223Y321654D01*
X19974Y321737D01*
X19710Y321848D01*
X19447Y321973D01*
X19183Y322112D01*
X18920Y322292D01*
X18670Y322486D01*
X18434Y322722D01*
X18420Y322736D01*
X18379Y322777D01*
X18323Y322860D01*
X18240Y322958D01*
X18157Y323096D01*
X18046Y323249D01*
X17935Y323443D01*
X17824Y323665D01*
X17713Y323901D01*
X17602Y324164D01*
X17491Y324469D01*
X17408Y324788D01*
X17325Y325121D01*
X17269Y325495D01*
X17228Y325884D01*
X17214Y326300D01*
Y326314D01*
Y326328D01*
Y326411D01*
X17228Y326536D01*
Y326702D01*
X17255Y326896D01*
X17283Y327132D01*
X17311Y327382D01*
X17366Y327673D01*
X17436Y327964D01*
X17519Y328269D01*
X17616Y328574D01*
X17741Y328893D01*
X17880Y329198D01*
X18046Y329490D01*
X18226Y329767D01*
X18448Y330031D01*
X18462Y330044D01*
X18504Y330086D01*
X18573Y330155D01*
X18670Y330238D01*
X18795Y330336D01*
X18947Y330447D01*
X19114Y330571D01*
X19322Y330696D01*
X19544Y330821D01*
X19779Y330946D01*
X20057Y331057D01*
X20334Y331154D01*
X20653Y331237D01*
X20972Y331306D01*
X21333Y331348D01*
X21693Y331362D01*
X21860D01*
X21985Y331348D01*
D02*
G37*
G36*
X34868Y321585D02*
X32927D01*
X29030Y327909D01*
Y321585D01*
X27241D01*
Y331181D01*
X29113D01*
X33079Y324719D01*
Y331181D01*
X34868D01*
Y321585D01*
D02*
G37*
G36*
X41206D02*
X39362D01*
Y328533D01*
X39348Y328519D01*
X39320Y328491D01*
X39265Y328450D01*
X39181Y328380D01*
X39084Y328297D01*
X38973Y328214D01*
X38835Y328117D01*
X38682Y328006D01*
X38516Y327895D01*
X38335Y327784D01*
X38141Y327659D01*
X37933Y327548D01*
X37489Y327340D01*
X36990Y327146D01*
Y328810D01*
X37004D01*
X37018Y328824D01*
X37060Y328838D01*
X37115Y328852D01*
X37254Y328921D01*
X37448Y329004D01*
X37684Y329115D01*
X37947Y329268D01*
X38238Y329462D01*
X38543Y329684D01*
X38557Y329698D01*
X38585Y329711D01*
X38627Y329753D01*
X38682Y329809D01*
X38835Y329947D01*
X39001Y330127D01*
X39195Y330349D01*
X39389Y330627D01*
X39570Y330918D01*
X39708Y331237D01*
X41206D01*
Y321585D01*
D02*
G37*
G36*
X265189Y275085D02*
X265291Y275076D01*
X265402Y275058D01*
X265531Y275039D01*
X265670Y275011D01*
X265818Y274974D01*
X265975Y274928D01*
X266132Y274873D01*
X266299Y274799D01*
X266456Y274725D01*
X266604Y274632D01*
X266761Y274521D01*
X266900Y274401D01*
X266909D01*
X266918Y274383D01*
X266946Y274355D01*
X266974Y274327D01*
X267010Y274281D01*
X267048Y274226D01*
X267149Y274096D01*
X267251Y273930D01*
X267362Y273726D01*
X267464Y273495D01*
X267556Y273227D01*
X266280Y272922D01*
Y272931D01*
X266271Y272940D01*
Y272968D01*
X266252Y273005D01*
X266225Y273088D01*
X266178Y273199D01*
X266114Y273329D01*
X266031Y273458D01*
X265920Y273587D01*
X265799Y273699D01*
X265781Y273708D01*
X265735Y273745D01*
X265661Y273791D01*
X265559Y273846D01*
X265429Y273902D01*
X265282Y273948D01*
X265115Y273985D01*
X264930Y273994D01*
X264866D01*
X264810Y273985D01*
X264755Y273976D01*
X264681Y273967D01*
X264524Y273930D01*
X264339Y273865D01*
X264144Y273772D01*
X264043Y273717D01*
X263950Y273652D01*
X263858Y273569D01*
X263775Y273477D01*
Y273467D01*
X263756Y273449D01*
X263738Y273421D01*
X263710Y273375D01*
X263673Y273319D01*
X263636Y273255D01*
X263599Y273172D01*
X263562Y273079D01*
X263516Y272968D01*
X263479Y272848D01*
X263442Y272709D01*
X263405Y272561D01*
X263377Y272395D01*
X263358Y272219D01*
X263349Y272025D01*
X263340Y271812D01*
Y271803D01*
Y271757D01*
Y271692D01*
X263349Y271618D01*
Y271516D01*
X263368Y271396D01*
X263377Y271276D01*
X263396Y271137D01*
X263451Y270851D01*
X263525Y270564D01*
X263571Y270425D01*
X263636Y270296D01*
X263701Y270176D01*
X263775Y270074D01*
X263784Y270065D01*
X263793Y270056D01*
X263821Y270028D01*
X263858Y269991D01*
X263950Y269917D01*
X264080Y269825D01*
X264237Y269723D01*
X264431Y269649D01*
X264653Y269584D01*
X264773Y269575D01*
X264902Y269566D01*
X264949D01*
X264986Y269575D01*
X265088Y269584D01*
X265208Y269603D01*
X265337Y269649D01*
X265485Y269704D01*
X265633Y269778D01*
X265781Y269889D01*
X265799Y269908D01*
X265846Y269954D01*
X265910Y270028D01*
X265984Y270139D01*
X266077Y270287D01*
X266160Y270462D01*
X266243Y270675D01*
X266317Y270925D01*
X267575Y270536D01*
Y270527D01*
X267565Y270490D01*
X267547Y270435D01*
X267519Y270361D01*
X267482Y270278D01*
X267445Y270176D01*
X267399Y270065D01*
X267343Y269945D01*
X267214Y269695D01*
X267048Y269436D01*
X266844Y269187D01*
X266733Y269076D01*
X266613Y268974D01*
X266604Y268965D01*
X266585Y268955D01*
X266548Y268928D01*
X266493Y268891D01*
X266428Y268854D01*
X266345Y268817D01*
X266252Y268771D01*
X266151Y268724D01*
X266031Y268669D01*
X265901Y268623D01*
X265762Y268586D01*
X265614Y268549D01*
X265457Y268512D01*
X265282Y268484D01*
X265106Y268475D01*
X264912Y268465D01*
X264856D01*
X264792Y268475D01*
X264699Y268484D01*
X264597Y268493D01*
X264468Y268512D01*
X264329Y268539D01*
X264172Y268576D01*
X264015Y268623D01*
X263848Y268678D01*
X263673Y268752D01*
X263497Y268835D01*
X263321Y268928D01*
X263146Y269048D01*
X262980Y269177D01*
X262822Y269335D01*
X262813Y269344D01*
X262785Y269371D01*
X262748Y269427D01*
X262693Y269492D01*
X262637Y269584D01*
X262563Y269686D01*
X262489Y269815D01*
X262416Y269963D01*
X262341Y270120D01*
X262267Y270296D01*
X262194Y270499D01*
X262138Y270712D01*
X262083Y270934D01*
X262046Y271184D01*
X262018Y271443D01*
X262009Y271720D01*
Y271729D01*
Y271738D01*
Y271794D01*
X262018Y271877D01*
Y271988D01*
X262036Y272118D01*
X262055Y272275D01*
X262073Y272441D01*
X262110Y272635D01*
X262157Y272829D01*
X262212Y273033D01*
X262277Y273236D01*
X262360Y273449D01*
X262453Y273652D01*
X262563Y273846D01*
X262684Y274031D01*
X262831Y274207D01*
X262841Y274216D01*
X262868Y274244D01*
X262915Y274290D01*
X262980Y274346D01*
X263063Y274410D01*
X263164Y274484D01*
X263275Y274568D01*
X263414Y274651D01*
X263562Y274734D01*
X263719Y274817D01*
X263904Y274891D01*
X264089Y274956D01*
X264302Y275011D01*
X264514Y275058D01*
X264755Y275085D01*
X264995Y275095D01*
X265106D01*
X265189Y275085D01*
D02*
G37*
G36*
X273778Y268576D02*
X272484D01*
X269886Y272792D01*
Y268576D01*
X268693D01*
Y274974D01*
X269941D01*
X272586Y270666D01*
Y274974D01*
X273778D01*
Y268576D01*
D02*
G37*
G36*
X277134Y275002D02*
X277218Y274993D01*
X277310Y274984D01*
X277412Y274965D01*
X277523Y274947D01*
X277763Y274882D01*
X278004Y274789D01*
X278133Y274734D01*
X278244Y274669D01*
X278364Y274586D01*
X278466Y274494D01*
X278475Y274484D01*
X278494Y274475D01*
X278512Y274438D01*
X278549Y274401D01*
X278595Y274355D01*
X278641Y274290D01*
X278688Y274226D01*
X278743Y274142D01*
X278836Y273957D01*
X278928Y273745D01*
X278965Y273624D01*
X278984Y273495D01*
X279002Y273356D01*
X279011Y273218D01*
Y273199D01*
Y273144D01*
X279002Y273060D01*
X278993Y272959D01*
X278974Y272829D01*
X278947Y272691D01*
X278910Y272543D01*
X278854Y272395D01*
X278845Y272376D01*
X278826Y272330D01*
X278789Y272247D01*
X278734Y272145D01*
X278669Y272025D01*
X278586Y271886D01*
X278484Y271738D01*
X278364Y271581D01*
X278355Y271572D01*
X278318Y271526D01*
X278262Y271461D01*
X278179Y271369D01*
X278068Y271258D01*
X277930Y271110D01*
X277763Y270952D01*
X277560Y270758D01*
X277551Y270749D01*
X277532Y270740D01*
X277504Y270712D01*
X277467Y270675D01*
X277366Y270583D01*
X277245Y270472D01*
X277125Y270352D01*
X277005Y270231D01*
X276894Y270130D01*
X276857Y270083D01*
X276820Y270047D01*
X276811Y270037D01*
X276792Y270019D01*
X276765Y269982D01*
X276728Y269935D01*
X276644Y269834D01*
X276570Y269714D01*
X279011D01*
Y268576D01*
X274712D01*
Y268586D01*
Y268604D01*
X274721Y268641D01*
X274731Y268687D01*
X274740Y268743D01*
X274749Y268808D01*
X274786Y268974D01*
X274842Y269159D01*
X274916Y269362D01*
X275008Y269584D01*
X275128Y269797D01*
Y269806D01*
X275147Y269825D01*
X275165Y269862D01*
X275202Y269898D01*
X275239Y269963D01*
X275295Y270028D01*
X275359Y270111D01*
X275433Y270204D01*
X275516Y270315D01*
X275618Y270425D01*
X275729Y270555D01*
X275859Y270694D01*
X275997Y270832D01*
X276154Y270989D01*
X276321Y271156D01*
X276506Y271332D01*
X276515Y271341D01*
X276543Y271369D01*
X276580Y271406D01*
X276635Y271461D01*
X276709Y271516D01*
X276783Y271590D01*
X276950Y271757D01*
X277116Y271933D01*
X277282Y272108D01*
X277356Y272182D01*
X277430Y272265D01*
X277486Y272330D01*
X277523Y272386D01*
X277532Y272404D01*
X277560Y272450D01*
X277606Y272524D01*
X277652Y272626D01*
X277698Y272737D01*
X277745Y272866D01*
X277772Y272996D01*
X277782Y273134D01*
Y273144D01*
Y273153D01*
Y273199D01*
X277772Y273282D01*
X277754Y273375D01*
X277726Y273477D01*
X277689Y273578D01*
X277634Y273680D01*
X277560Y273772D01*
X277551Y273782D01*
X277523Y273809D01*
X277467Y273846D01*
X277403Y273883D01*
X277310Y273920D01*
X277208Y273957D01*
X277088Y273985D01*
X276950Y273994D01*
X276885D01*
X276811Y273985D01*
X276728Y273967D01*
X276626Y273939D01*
X276524Y273893D01*
X276423Y273837D01*
X276330Y273763D01*
X276321Y273754D01*
X276293Y273717D01*
X276256Y273661D01*
X276219Y273578D01*
X276173Y273477D01*
X276136Y273338D01*
X276099Y273181D01*
X276080Y272996D01*
X274860Y273116D01*
Y273125D01*
X274869Y273162D01*
Y273208D01*
X274888Y273282D01*
X274897Y273366D01*
X274925Y273458D01*
X274953Y273560D01*
X274980Y273680D01*
X275073Y273911D01*
X275184Y274151D01*
X275258Y274272D01*
X275341Y274383D01*
X275433Y274475D01*
X275535Y274568D01*
X275544Y274577D01*
X275563Y274586D01*
X275590Y274604D01*
X275637Y274641D01*
X275692Y274669D01*
X275766Y274706D01*
X275840Y274753D01*
X275933Y274789D01*
X276034Y274836D01*
X276145Y274873D01*
X276386Y274947D01*
X276672Y274993D01*
X276820Y275002D01*
X276977Y275011D01*
X277070D01*
X277134Y275002D01*
D02*
G37*
G36*
X112965Y83686D02*
Y83677D01*
Y83640D01*
Y83575D01*
Y83501D01*
Y83409D01*
X112956Y83298D01*
Y83177D01*
Y83057D01*
X112937Y82789D01*
X112919Y82512D01*
X112910Y82392D01*
X112891Y82271D01*
X112873Y82160D01*
X112854Y82059D01*
Y82050D01*
X112845Y82040D01*
Y82013D01*
X112836Y81985D01*
X112808Y81892D01*
X112771Y81781D01*
X112716Y81652D01*
X112651Y81523D01*
X112568Y81384D01*
X112466Y81254D01*
X112457Y81236D01*
X112420Y81199D01*
X112355Y81143D01*
X112272Y81069D01*
X112161Y80986D01*
X112031Y80903D01*
X111883Y80811D01*
X111717Y80737D01*
X111708D01*
X111699Y80727D01*
X111671Y80718D01*
X111634Y80709D01*
X111588Y80690D01*
X111532Y80672D01*
X111458Y80653D01*
X111384Y80644D01*
X111209Y80607D01*
X110996Y80570D01*
X110756Y80552D01*
X110487Y80542D01*
X110339D01*
X110256Y80552D01*
X110173D01*
X110071Y80561D01*
X109970Y80570D01*
X109748Y80589D01*
X109517Y80626D01*
X109285Y80681D01*
X109184Y80709D01*
X109091Y80746D01*
X109082D01*
X109073Y80755D01*
X109017Y80783D01*
X108925Y80829D01*
X108823Y80894D01*
X108703Y80977D01*
X108574Y81069D01*
X108453Y81180D01*
X108343Y81301D01*
X108333Y81319D01*
X108296Y81356D01*
X108250Y81430D01*
X108195Y81523D01*
X108139Y81624D01*
X108074Y81744D01*
X108028Y81874D01*
X107982Y82013D01*
Y82022D01*
X107973Y82040D01*
Y82068D01*
X107963Y82114D01*
X107954Y82170D01*
X107945Y82244D01*
X107936Y82327D01*
X107926Y82419D01*
X107908Y82530D01*
X107899Y82650D01*
X107889Y82780D01*
X107880Y82928D01*
X107871Y83085D01*
Y83261D01*
X107862Y83446D01*
Y83640D01*
Y87061D01*
X109156D01*
Y83584D01*
Y83575D01*
Y83547D01*
Y83510D01*
Y83455D01*
Y83381D01*
Y83307D01*
X109165Y83140D01*
Y82956D01*
X109175Y82780D01*
X109184Y82697D01*
Y82623D01*
X109193Y82567D01*
X109202Y82512D01*
Y82493D01*
X109221Y82447D01*
X109249Y82373D01*
X109285Y82281D01*
X109332Y82179D01*
X109406Y82077D01*
X109489Y81966D01*
X109591Y81874D01*
X109609Y81865D01*
X109646Y81837D01*
X109720Y81800D01*
X109812Y81763D01*
X109942Y81717D01*
X110090Y81680D01*
X110256Y81652D01*
X110450Y81643D01*
X110543D01*
X110635Y81652D01*
X110756Y81670D01*
X110894Y81698D01*
X111024Y81735D01*
X111162Y81791D01*
X111273Y81865D01*
X111283Y81874D01*
X111320Y81902D01*
X111366Y81948D01*
X111421Y82013D01*
X111477Y82096D01*
X111532Y82188D01*
X111578Y82290D01*
X111606Y82410D01*
Y82429D01*
X111615Y82475D01*
X111625Y82558D01*
X111643Y82669D01*
Y82743D01*
X111652Y82826D01*
Y82919D01*
X111662Y83011D01*
Y83122D01*
X111671Y83242D01*
Y83372D01*
Y83510D01*
Y87061D01*
X112965D01*
Y83686D01*
D02*
G37*
G36*
X116321Y87088D02*
X116405Y87079D01*
X116497Y87070D01*
X116599Y87051D01*
X116710Y87033D01*
X116950Y86968D01*
X117191Y86876D01*
X117320Y86820D01*
X117431Y86756D01*
X117551Y86672D01*
X117653Y86580D01*
X117662Y86571D01*
X117681Y86561D01*
X117699Y86524D01*
X117736Y86487D01*
X117782Y86441D01*
X117829Y86376D01*
X117875Y86312D01*
X117930Y86229D01*
X118023Y86044D01*
X118115Y85831D01*
X118152Y85711D01*
X118171Y85581D01*
X118189Y85443D01*
X118198Y85304D01*
Y85285D01*
Y85230D01*
X118189Y85147D01*
X118180Y85045D01*
X118161Y84916D01*
X118134Y84777D01*
X118097Y84629D01*
X118041Y84481D01*
X118032Y84463D01*
X118013Y84416D01*
X117976Y84333D01*
X117921Y84231D01*
X117856Y84111D01*
X117773Y83973D01*
X117671Y83825D01*
X117551Y83667D01*
X117542Y83658D01*
X117505Y83612D01*
X117449Y83547D01*
X117366Y83455D01*
X117255Y83344D01*
X117117Y83196D01*
X116950Y83039D01*
X116747Y82845D01*
X116737Y82835D01*
X116719Y82826D01*
X116691Y82798D01*
X116654Y82761D01*
X116553Y82669D01*
X116432Y82558D01*
X116312Y82438D01*
X116192Y82318D01*
X116081Y82216D01*
X116044Y82170D01*
X116007Y82133D01*
X115998Y82123D01*
X115979Y82105D01*
X115952Y82068D01*
X115915Y82022D01*
X115831Y81920D01*
X115758Y81800D01*
X118198D01*
Y80663D01*
X113899D01*
Y80672D01*
Y80690D01*
X113908Y80727D01*
X113918Y80774D01*
X113927Y80829D01*
X113936Y80894D01*
X113973Y81060D01*
X114029Y81245D01*
X114102Y81448D01*
X114195Y81670D01*
X114315Y81883D01*
Y81892D01*
X114334Y81911D01*
X114352Y81948D01*
X114389Y81985D01*
X114426Y82050D01*
X114482Y82114D01*
X114546Y82197D01*
X114620Y82290D01*
X114704Y82401D01*
X114805Y82512D01*
X114916Y82641D01*
X115045Y82780D01*
X115184Y82919D01*
X115341Y83076D01*
X115508Y83242D01*
X115693Y83418D01*
X115702Y83427D01*
X115730Y83455D01*
X115767Y83492D01*
X115822Y83547D01*
X115896Y83603D01*
X115970Y83677D01*
X116137Y83843D01*
X116303Y84019D01*
X116469Y84194D01*
X116543Y84268D01*
X116617Y84352D01*
X116673Y84416D01*
X116710Y84472D01*
X116719Y84490D01*
X116747Y84537D01*
X116793Y84611D01*
X116839Y84712D01*
X116885Y84823D01*
X116932Y84953D01*
X116959Y85082D01*
X116969Y85221D01*
Y85230D01*
Y85239D01*
Y85285D01*
X116959Y85369D01*
X116941Y85461D01*
X116913Y85563D01*
X116876Y85665D01*
X116821Y85766D01*
X116747Y85859D01*
X116737Y85868D01*
X116710Y85896D01*
X116654Y85933D01*
X116590Y85970D01*
X116497Y86007D01*
X116395Y86044D01*
X116275Y86071D01*
X116137Y86081D01*
X116072D01*
X115998Y86071D01*
X115915Y86053D01*
X115813Y86025D01*
X115711Y85979D01*
X115610Y85923D01*
X115517Y85849D01*
X115508Y85840D01*
X115480Y85803D01*
X115443Y85748D01*
X115406Y85665D01*
X115360Y85563D01*
X115323Y85424D01*
X115286Y85267D01*
X115267Y85082D01*
X114047Y85202D01*
Y85211D01*
X114056Y85248D01*
Y85295D01*
X114075Y85369D01*
X114084Y85452D01*
X114112Y85544D01*
X114139Y85646D01*
X114167Y85766D01*
X114260Y85997D01*
X114371Y86238D01*
X114445Y86358D01*
X114528Y86469D01*
X114620Y86561D01*
X114722Y86654D01*
X114731Y86663D01*
X114750Y86672D01*
X114777Y86691D01*
X114824Y86728D01*
X114879Y86756D01*
X114953Y86792D01*
X115027Y86839D01*
X115119Y86876D01*
X115221Y86922D01*
X115332Y86959D01*
X115573Y87033D01*
X115859Y87079D01*
X116007Y87088D01*
X116164Y87098D01*
X116257D01*
X116321Y87088D01*
D02*
G37*
G36*
X38980Y347711D02*
Y347693D01*
Y347619D01*
Y347489D01*
Y347341D01*
Y347156D01*
X38961Y346934D01*
Y346693D01*
Y346452D01*
X38924Y345915D01*
X38887Y345360D01*
X38869Y345119D01*
X38831Y344879D01*
X38794Y344656D01*
X38757Y344453D01*
Y344434D01*
X38739Y344416D01*
Y344360D01*
X38720Y344305D01*
X38665Y344119D01*
X38591Y343897D01*
X38480Y343638D01*
X38350Y343379D01*
X38183Y343101D01*
X37980Y342842D01*
X37961Y342805D01*
X37887Y342731D01*
X37757Y342620D01*
X37591Y342471D01*
X37369Y342305D01*
X37109Y342138D01*
X36813Y341953D01*
X36480Y341805D01*
X36461D01*
X36443Y341786D01*
X36387Y341768D01*
X36313Y341749D01*
X36221Y341712D01*
X36109Y341675D01*
X35961Y341638D01*
X35813Y341620D01*
X35461Y341545D01*
X35036Y341471D01*
X34554Y341434D01*
X34017Y341416D01*
X33721D01*
X33554Y341434D01*
X33387D01*
X33184Y341453D01*
X32980Y341471D01*
X32536Y341508D01*
X32073Y341582D01*
X31610Y341694D01*
X31406Y341749D01*
X31221Y341823D01*
X31203D01*
X31184Y341842D01*
X31073Y341897D01*
X30888Y341990D01*
X30684Y342119D01*
X30443Y342286D01*
X30184Y342471D01*
X29943Y342693D01*
X29721Y342934D01*
X29703Y342971D01*
X29629Y343045D01*
X29536Y343194D01*
X29425Y343379D01*
X29314Y343582D01*
X29184Y343823D01*
X29092Y344082D01*
X28999Y344360D01*
Y344379D01*
X28981Y344416D01*
Y344471D01*
X28962Y344564D01*
X28944Y344675D01*
X28925Y344823D01*
X28907Y344990D01*
X28888Y345175D01*
X28851Y345397D01*
X28832Y345638D01*
X28814Y345897D01*
X28795Y346193D01*
X28777Y346508D01*
Y346860D01*
X28758Y347230D01*
Y347619D01*
Y354470D01*
X31351D01*
Y347508D01*
Y347489D01*
Y347434D01*
Y347360D01*
Y347249D01*
Y347100D01*
Y346952D01*
X31369Y346619D01*
Y346249D01*
X31388Y345897D01*
X31406Y345730D01*
Y345582D01*
X31425Y345471D01*
X31443Y345360D01*
Y345323D01*
X31480Y345230D01*
X31536Y345082D01*
X31610Y344897D01*
X31702Y344693D01*
X31851Y344490D01*
X32017Y344267D01*
X32221Y344082D01*
X32258Y344064D01*
X32332Y344008D01*
X32480Y343934D01*
X32665Y343860D01*
X32925Y343768D01*
X33221Y343693D01*
X33554Y343638D01*
X33943Y343619D01*
X34128D01*
X34313Y343638D01*
X34554Y343675D01*
X34832Y343731D01*
X35091Y343805D01*
X35369Y343916D01*
X35591Y344064D01*
X35610Y344082D01*
X35684Y344138D01*
X35776Y344230D01*
X35887Y344360D01*
X35998Y344527D01*
X36109Y344712D01*
X36202Y344916D01*
X36258Y345156D01*
Y345193D01*
X36276Y345286D01*
X36295Y345452D01*
X36332Y345675D01*
Y345823D01*
X36350Y345989D01*
Y346175D01*
X36369Y346360D01*
Y346582D01*
X36387Y346823D01*
Y347082D01*
Y347360D01*
Y354470D01*
X38980D01*
Y347711D01*
D02*
G37*
G36*
X47442Y341657D02*
X44979D01*
Y350933D01*
X44960Y350915D01*
X44923Y350878D01*
X44849Y350822D01*
X44738Y350730D01*
X44609Y350619D01*
X44461Y350508D01*
X44275Y350378D01*
X44072Y350230D01*
X43849Y350082D01*
X43609Y349934D01*
X43349Y349767D01*
X43072Y349619D01*
X42479Y349341D01*
X41813Y349082D01*
Y351304D01*
X41831D01*
X41850Y351322D01*
X41905Y351341D01*
X41979Y351359D01*
X42164Y351452D01*
X42424Y351563D01*
X42738Y351711D01*
X43090Y351915D01*
X43479Y352174D01*
X43886Y352470D01*
X43905Y352489D01*
X43942Y352507D01*
X43998Y352563D01*
X44072Y352637D01*
X44275Y352822D01*
X44497Y353063D01*
X44757Y353359D01*
X45016Y353729D01*
X45257Y354118D01*
X45442Y354544D01*
X47442D01*
Y341657D01*
D02*
G37*
G36*
X264473Y198890D02*
X264574Y198881D01*
X264694Y198871D01*
X264815Y198853D01*
X264953Y198834D01*
X265249Y198770D01*
X265397Y198724D01*
X265545Y198677D01*
X265693Y198613D01*
X265832Y198539D01*
X265961Y198455D01*
X266081Y198363D01*
X266091Y198354D01*
X266109Y198335D01*
X266137Y198307D01*
X266174Y198270D01*
X266220Y198215D01*
X266276Y198150D01*
X266331Y198076D01*
X266396Y197993D01*
X266451Y197891D01*
X266507Y197790D01*
X266562Y197670D01*
X266608Y197540D01*
X266655Y197411D01*
X266692Y197263D01*
X266719Y197115D01*
X266728Y196948D01*
X265434Y196902D01*
Y196911D01*
Y196921D01*
X265416Y196985D01*
X265397Y197069D01*
X265360Y197170D01*
X265314Y197290D01*
X265249Y197401D01*
X265166Y197512D01*
X265074Y197605D01*
X265064Y197614D01*
X265027Y197642D01*
X264963Y197679D01*
X264870Y197716D01*
X264759Y197753D01*
X264621Y197790D01*
X264454Y197817D01*
X264260Y197827D01*
X264167D01*
X264066Y197817D01*
X263946Y197799D01*
X263807Y197771D01*
X263659Y197725D01*
X263520Y197670D01*
X263391Y197586D01*
X263382Y197577D01*
X263363Y197559D01*
X263326Y197531D01*
X263289Y197485D01*
X263252Y197429D01*
X263215Y197355D01*
X263197Y197281D01*
X263188Y197189D01*
Y197180D01*
Y197152D01*
X263197Y197106D01*
X263215Y197059D01*
X263234Y196995D01*
X263261Y196930D01*
X263308Y196865D01*
X263372Y196800D01*
X263382Y196791D01*
X263428Y196763D01*
X263456Y196745D01*
X263502Y196726D01*
X263548Y196699D01*
X263613Y196671D01*
X263687Y196643D01*
X263770Y196606D01*
X263872Y196569D01*
X263973Y196532D01*
X264103Y196495D01*
X264242Y196458D01*
X264389Y196421D01*
X264556Y196375D01*
X264565D01*
X264602Y196366D01*
X264648Y196357D01*
X264713Y196338D01*
X264787Y196320D01*
X264879Y196292D01*
X264981Y196264D01*
X265083Y196236D01*
X265305Y196162D01*
X265536Y196089D01*
X265758Y196005D01*
X265850Y195959D01*
X265943Y195913D01*
X265952D01*
X265961Y195904D01*
X266017Y195867D01*
X266100Y195811D01*
X266202Y195737D01*
X266313Y195645D01*
X266433Y195534D01*
X266553Y195404D01*
X266655Y195256D01*
X266664Y195238D01*
X266692Y195182D01*
X266738Y195099D01*
X266784Y194979D01*
X266830Y194831D01*
X266877Y194655D01*
X266904Y194461D01*
X266914Y194239D01*
Y194230D01*
Y194212D01*
Y194184D01*
Y194147D01*
X266904Y194101D01*
X266895Y194036D01*
X266877Y193906D01*
X266840Y193740D01*
X266784Y193564D01*
X266701Y193389D01*
X266599Y193204D01*
Y193195D01*
X266581Y193185D01*
X266544Y193130D01*
X266470Y193037D01*
X266377Y192936D01*
X266257Y192816D01*
X266100Y192705D01*
X265933Y192594D01*
X265730Y192492D01*
X265721D01*
X265702Y192483D01*
X265675Y192474D01*
X265628Y192455D01*
X265573Y192437D01*
X265508Y192418D01*
X265434Y192400D01*
X265351Y192381D01*
X265249Y192353D01*
X265148Y192335D01*
X264907Y192298D01*
X264639Y192270D01*
X264343Y192261D01*
X264223D01*
X264140Y192270D01*
X264038Y192279D01*
X263927Y192289D01*
X263798Y192307D01*
X263659Y192335D01*
X263354Y192400D01*
X263197Y192446D01*
X263049Y192492D01*
X262892Y192557D01*
X262744Y192631D01*
X262605Y192714D01*
X262476Y192816D01*
X262466Y192825D01*
X262448Y192843D01*
X262411Y192871D01*
X262374Y192917D01*
X262318Y192982D01*
X262263Y193056D01*
X262198Y193139D01*
X262134Y193232D01*
X262069Y193343D01*
X262004Y193463D01*
X261939Y193601D01*
X261875Y193749D01*
X261828Y193906D01*
X261773Y194082D01*
X261736Y194267D01*
X261708Y194461D01*
X262966Y194582D01*
Y194572D01*
X262975Y194554D01*
Y194517D01*
X262984Y194480D01*
X263021Y194369D01*
X263067Y194230D01*
X263123Y194073D01*
X263206Y193916D01*
X263298Y193777D01*
X263419Y193648D01*
X263437Y193638D01*
X263483Y193601D01*
X263557Y193555D01*
X263668Y193500D01*
X263807Y193444D01*
X263964Y193398D01*
X264149Y193361D01*
X264362Y193352D01*
X264463D01*
X264574Y193370D01*
X264713Y193389D01*
X264861Y193417D01*
X265018Y193463D01*
X265166Y193528D01*
X265296Y193611D01*
X265314Y193620D01*
X265351Y193657D01*
X265397Y193712D01*
X265462Y193786D01*
X265517Y193879D01*
X265573Y193990D01*
X265610Y194101D01*
X265619Y194230D01*
Y194239D01*
Y194267D01*
X265610Y194313D01*
X265601Y194369D01*
X265582Y194424D01*
X265564Y194489D01*
X265527Y194554D01*
X265480Y194618D01*
X265471Y194628D01*
X265453Y194646D01*
X265425Y194674D01*
X265379Y194711D01*
X265314Y194757D01*
X265231Y194803D01*
X265138Y194850D01*
X265018Y194896D01*
X265009D01*
X264972Y194914D01*
X264907Y194933D01*
X264861Y194951D01*
X264806Y194960D01*
X264741Y194979D01*
X264667Y195007D01*
X264584Y195025D01*
X264491Y195053D01*
X264380Y195081D01*
X264260Y195109D01*
X264130Y195145D01*
X263983Y195182D01*
X263973D01*
X263936Y195192D01*
X263881Y195210D01*
X263816Y195229D01*
X263733Y195256D01*
X263631Y195284D01*
X263530Y195321D01*
X263409Y195358D01*
X263169Y195451D01*
X262938Y195562D01*
X262818Y195617D01*
X262716Y195682D01*
X262614Y195746D01*
X262531Y195811D01*
X262522Y195820D01*
X262503Y195839D01*
X262476Y195867D01*
X262439Y195904D01*
X262392Y195959D01*
X262346Y196024D01*
X262291Y196089D01*
X262244Y196172D01*
X262134Y196366D01*
X262041Y196588D01*
X262004Y196708D01*
X261976Y196828D01*
X261958Y196967D01*
X261949Y197106D01*
Y197115D01*
Y197124D01*
Y197152D01*
Y197189D01*
X261967Y197281D01*
X261986Y197401D01*
X262013Y197540D01*
X262059Y197697D01*
X262124Y197864D01*
X262217Y198021D01*
Y198030D01*
X262226Y198039D01*
X262272Y198095D01*
X262328Y198169D01*
X262420Y198261D01*
X262531Y198363D01*
X262670Y198474D01*
X262827Y198576D01*
X263012Y198668D01*
X263021D01*
X263040Y198677D01*
X263067Y198687D01*
X263104Y198705D01*
X263160Y198724D01*
X263215Y198742D01*
X263289Y198761D01*
X263372Y198788D01*
X263557Y198825D01*
X263770Y198862D01*
X264010Y198890D01*
X264279Y198899D01*
X264389D01*
X264473Y198890D01*
D02*
G37*
G36*
X274236Y192381D02*
X272840D01*
X271583Y197161D01*
X270307Y192381D01*
X268901D01*
X267385Y198779D01*
X268707D01*
X269669Y194378D01*
X270834Y198779D01*
X272387D01*
X273496Y194304D01*
X274476Y198779D01*
X275780D01*
X274236Y192381D01*
D02*
G37*
G36*
X279312D02*
X278082D01*
Y197013D01*
X278073Y197004D01*
X278054Y196985D01*
X278017Y196958D01*
X277962Y196911D01*
X277897Y196856D01*
X277823Y196800D01*
X277731Y196736D01*
X277629Y196662D01*
X277518Y196588D01*
X277398Y196514D01*
X277269Y196431D01*
X277130Y196357D01*
X276834Y196218D01*
X276501Y196089D01*
Y197198D01*
X276510D01*
X276520Y197207D01*
X276547Y197216D01*
X276584Y197226D01*
X276677Y197272D01*
X276806Y197327D01*
X276963Y197401D01*
X277139Y197503D01*
X277333Y197633D01*
X277537Y197780D01*
X277546Y197790D01*
X277564Y197799D01*
X277592Y197827D01*
X277629Y197864D01*
X277731Y197956D01*
X277842Y198076D01*
X277971Y198224D01*
X278101Y198409D01*
X278221Y198603D01*
X278313Y198816D01*
X279312D01*
Y192381D01*
D02*
G37*
G36*
X144696Y51728D02*
X140063D01*
X140073Y51718D01*
X140091Y51700D01*
X140119Y51663D01*
X140165Y51607D01*
X140221Y51543D01*
X140276Y51469D01*
X140341Y51376D01*
X140415Y51274D01*
X140489Y51164D01*
X140563Y51043D01*
X140646Y50914D01*
X140720Y50775D01*
X140858Y50479D01*
X140988Y50147D01*
X139879D01*
Y50156D01*
X139869Y50165D01*
X139860Y50193D01*
X139851Y50230D01*
X139804Y50322D01*
X139749Y50452D01*
X139675Y50609D01*
X139573Y50785D01*
X139444Y50979D01*
X139296Y51182D01*
X139287Y51191D01*
X139277Y51210D01*
X139250Y51238D01*
X139213Y51274D01*
X139120Y51376D01*
X139000Y51487D01*
X138852Y51617D01*
X138667Y51746D01*
X138473Y51866D01*
X138260Y51959D01*
Y52957D01*
X144696D01*
Y51728D01*
D02*
G37*
G36*
Y47844D02*
X143309Y46920D01*
X143299Y46911D01*
X143272Y46901D01*
X143235Y46874D01*
X143188Y46837D01*
X143133Y46800D01*
X143059Y46753D01*
X142911Y46652D01*
X142745Y46532D01*
X142597Y46421D01*
X142458Y46319D01*
X142412Y46273D01*
X142366Y46236D01*
X142356Y46226D01*
X142338Y46208D01*
X142301Y46171D01*
X142255Y46125D01*
X142218Y46060D01*
X142171Y45995D01*
X142134Y45921D01*
X142098Y45847D01*
Y45838D01*
X142088Y45810D01*
X142070Y45764D01*
X142060Y45690D01*
X142042Y45598D01*
X142033Y45487D01*
X142023Y45357D01*
Y44941D01*
X144696D01*
Y43647D01*
X138298D01*
Y46532D01*
X138307Y46615D01*
Y46716D01*
X138316Y46818D01*
Y46938D01*
X138344Y47179D01*
X138371Y47428D01*
X138418Y47660D01*
X138445Y47761D01*
X138473Y47854D01*
Y47863D01*
X138482Y47872D01*
X138510Y47928D01*
X138556Y48011D01*
X138612Y48122D01*
X138704Y48242D01*
X138806Y48362D01*
X138935Y48482D01*
X139093Y48593D01*
X139102D01*
X139111Y48602D01*
X139139Y48621D01*
X139167Y48639D01*
X139259Y48686D01*
X139379Y48741D01*
X139527Y48787D01*
X139694Y48834D01*
X139888Y48871D01*
X140091Y48880D01*
X140100D01*
X140119D01*
X140165D01*
X140211Y48871D01*
X140276D01*
X140341Y48861D01*
X140507Y48824D01*
X140701Y48778D01*
X140896Y48704D01*
X141099Y48593D01*
X141191Y48529D01*
X141284Y48455D01*
X141293Y48445D01*
X141302Y48436D01*
X141330Y48408D01*
X141358Y48371D01*
X141395Y48334D01*
X141441Y48279D01*
X141487Y48214D01*
X141533Y48140D01*
X141589Y48057D01*
X141635Y47955D01*
X141681Y47854D01*
X141728Y47743D01*
X141774Y47613D01*
X141811Y47484D01*
X141848Y47345D01*
X141876Y47188D01*
Y47197D01*
X141885Y47207D01*
X141922Y47262D01*
X141968Y47336D01*
X142033Y47428D01*
X142116Y47539D01*
X142199Y47650D01*
X142301Y47770D01*
X142412Y47872D01*
X142421Y47881D01*
X142467Y47928D01*
X142541Y47983D01*
X142652Y48066D01*
X142791Y48177D01*
X142883Y48233D01*
X142976Y48297D01*
X143077Y48371D01*
X143188Y48445D01*
X143318Y48529D01*
X143447Y48612D01*
X144696Y49398D01*
Y47844D01*
D02*
G37*
G36*
X134092Y31148D02*
X134175Y31139D01*
X134268Y31130D01*
X134370Y31111D01*
X134480Y31093D01*
X134721Y31028D01*
X134961Y30936D01*
X135091Y30880D01*
X135202Y30815D01*
X135322Y30732D01*
X135424Y30640D01*
X135433Y30631D01*
X135451Y30621D01*
X135470Y30584D01*
X135507Y30547D01*
X135553Y30501D01*
X135599Y30436D01*
X135645Y30372D01*
X135701Y30288D01*
X135793Y30103D01*
X135886Y29891D01*
X135923Y29771D01*
X135941Y29641D01*
X135960Y29502D01*
X135969Y29364D01*
Y29345D01*
Y29290D01*
X135960Y29207D01*
X135951Y29105D01*
X135932Y28976D01*
X135904Y28837D01*
X135867Y28689D01*
X135812Y28541D01*
X135803Y28523D01*
X135784Y28476D01*
X135747Y28393D01*
X135692Y28291D01*
X135627Y28171D01*
X135544Y28033D01*
X135442Y27885D01*
X135322Y27727D01*
X135313Y27718D01*
X135276Y27672D01*
X135220Y27607D01*
X135137Y27515D01*
X135026Y27404D01*
X134887Y27256D01*
X134721Y27099D01*
X134517Y26904D01*
X134508Y26895D01*
X134490Y26886D01*
X134462Y26858D01*
X134425Y26821D01*
X134323Y26729D01*
X134203Y26618D01*
X134083Y26498D01*
X133963Y26377D01*
X133852Y26276D01*
X133815Y26230D01*
X133778Y26193D01*
X133769Y26183D01*
X133750Y26165D01*
X133722Y26128D01*
X133685Y26082D01*
X133602Y25980D01*
X133528Y25860D01*
X135969D01*
Y24722D01*
X131670D01*
Y24732D01*
Y24750D01*
X131679Y24787D01*
X131688Y24834D01*
X131698Y24889D01*
X131707Y24954D01*
X131744Y25120D01*
X131799Y25305D01*
X131873Y25508D01*
X131966Y25730D01*
X132086Y25943D01*
Y25952D01*
X132104Y25971D01*
X132123Y26008D01*
X132160Y26045D01*
X132197Y26109D01*
X132252Y26174D01*
X132317Y26257D01*
X132391Y26350D01*
X132474Y26461D01*
X132576Y26572D01*
X132687Y26701D01*
X132816Y26840D01*
X132955Y26978D01*
X133112Y27136D01*
X133279Y27302D01*
X133463Y27478D01*
X133473Y27487D01*
X133500Y27515D01*
X133538Y27552D01*
X133593Y27607D01*
X133667Y27663D01*
X133741Y27737D01*
X133907Y27903D01*
X134074Y28079D01*
X134240Y28254D01*
X134314Y28328D01*
X134388Y28412D01*
X134444Y28476D01*
X134480Y28532D01*
X134490Y28550D01*
X134517Y28596D01*
X134564Y28670D01*
X134610Y28772D01*
X134656Y28883D01*
X134702Y29012D01*
X134730Y29142D01*
X134739Y29281D01*
Y29290D01*
Y29299D01*
Y29345D01*
X134730Y29429D01*
X134712Y29521D01*
X134684Y29623D01*
X134647Y29724D01*
X134592Y29826D01*
X134517Y29919D01*
X134508Y29928D01*
X134480Y29955D01*
X134425Y29992D01*
X134360Y30029D01*
X134268Y30066D01*
X134166Y30103D01*
X134046Y30131D01*
X133907Y30141D01*
X133843D01*
X133769Y30131D01*
X133685Y30113D01*
X133584Y30085D01*
X133482Y30039D01*
X133380Y29983D01*
X133288Y29909D01*
X133279Y29900D01*
X133251Y29863D01*
X133214Y29808D01*
X133177Y29724D01*
X133131Y29623D01*
X133094Y29484D01*
X133057Y29327D01*
X133038Y29142D01*
X131818Y29262D01*
Y29271D01*
X131827Y29308D01*
Y29355D01*
X131846Y29429D01*
X131855Y29512D01*
X131882Y29604D01*
X131910Y29706D01*
X131938Y29826D01*
X132030Y30057D01*
X132141Y30298D01*
X132215Y30418D01*
X132298Y30529D01*
X132391Y30621D01*
X132493Y30714D01*
X132502Y30723D01*
X132520Y30732D01*
X132548Y30751D01*
X132594Y30788D01*
X132650Y30815D01*
X132724Y30852D01*
X132798Y30899D01*
X132890Y30936D01*
X132992Y30982D01*
X133103Y31019D01*
X133343Y31093D01*
X133630Y31139D01*
X133778Y31148D01*
X133935Y31158D01*
X134028D01*
X134092Y31148D01*
D02*
G37*
G36*
X128619Y31111D02*
X128721D01*
X128822Y31102D01*
X128942D01*
X129183Y31074D01*
X129432Y31047D01*
X129663Y31000D01*
X129765Y30973D01*
X129858Y30945D01*
X129867D01*
X129876Y30936D01*
X129932Y30908D01*
X130015Y30862D01*
X130126Y30806D01*
X130246Y30714D01*
X130366Y30612D01*
X130486Y30482D01*
X130597Y30325D01*
Y30316D01*
X130607Y30307D01*
X130625Y30279D01*
X130644Y30251D01*
X130690Y30159D01*
X130745Y30039D01*
X130792Y29891D01*
X130838Y29724D01*
X130875Y29530D01*
X130884Y29327D01*
Y29318D01*
Y29299D01*
Y29253D01*
X130875Y29207D01*
Y29142D01*
X130865Y29077D01*
X130829Y28911D01*
X130782Y28717D01*
X130708Y28523D01*
X130597Y28319D01*
X130533Y28227D01*
X130459Y28134D01*
X130449Y28125D01*
X130440Y28116D01*
X130412Y28088D01*
X130375Y28060D01*
X130338Y28023D01*
X130283Y27977D01*
X130218Y27931D01*
X130144Y27885D01*
X130061Y27829D01*
X129959Y27783D01*
X129858Y27737D01*
X129747Y27690D01*
X129617Y27644D01*
X129488Y27607D01*
X129349Y27570D01*
X129192Y27542D01*
X129201D01*
X129211Y27533D01*
X129266Y27496D01*
X129340Y27450D01*
X129432Y27385D01*
X129543Y27302D01*
X129654Y27219D01*
X129775Y27117D01*
X129876Y27006D01*
X129885Y26997D01*
X129932Y26951D01*
X129987Y26877D01*
X130070Y26766D01*
X130181Y26627D01*
X130237Y26535D01*
X130302Y26442D01*
X130375Y26340D01*
X130449Y26230D01*
X130533Y26100D01*
X130616Y25971D01*
X131402Y24722D01*
X129848D01*
X128924Y26109D01*
X128915Y26119D01*
X128905Y26146D01*
X128878Y26183D01*
X128841Y26230D01*
X128804Y26285D01*
X128757Y26359D01*
X128656Y26507D01*
X128536Y26673D01*
X128425Y26821D01*
X128323Y26960D01*
X128277Y27006D01*
X128240Y27052D01*
X128230Y27062D01*
X128212Y27080D01*
X128175Y27117D01*
X128129Y27163D01*
X128064Y27200D01*
X127999Y27247D01*
X127925Y27284D01*
X127851Y27320D01*
X127842D01*
X127814Y27330D01*
X127768Y27348D01*
X127694Y27357D01*
X127602Y27376D01*
X127491Y27385D01*
X127361Y27394D01*
X126945D01*
Y24722D01*
X125651D01*
Y31121D01*
X128536D01*
X128619Y31111D01*
D02*
G37*
G36*
X100083Y6942D02*
X98854D01*
Y11575D01*
X98844Y11565D01*
X98826Y11547D01*
X98789Y11519D01*
X98734Y11473D01*
X98669Y11417D01*
X98595Y11362D01*
X98502Y11297D01*
X98401Y11223D01*
X98290Y11149D01*
X98169Y11075D01*
X98040Y10992D01*
X97901Y10918D01*
X97605Y10780D01*
X97273Y10650D01*
Y11760D01*
X97282D01*
X97291Y11769D01*
X97319Y11778D01*
X97356Y11787D01*
X97448Y11833D01*
X97578Y11889D01*
X97735Y11963D01*
X97911Y12065D01*
X98105Y12194D01*
X98308Y12342D01*
X98317Y12351D01*
X98336Y12361D01*
X98364Y12388D01*
X98401Y12425D01*
X98502Y12518D01*
X98613Y12638D01*
X98743Y12786D01*
X98872Y12971D01*
X98992Y13165D01*
X99085Y13377D01*
X100083D01*
Y6942D01*
D02*
G37*
G36*
X93399Y13331D02*
X93574Y13322D01*
X93769Y13313D01*
X93972Y13285D01*
X94166Y13257D01*
X94342Y13211D01*
X94351D01*
X94370Y13202D01*
X94397Y13193D01*
X94434Y13183D01*
X94545Y13137D01*
X94675Y13072D01*
X94823Y12989D01*
X94989Y12888D01*
X95146Y12767D01*
X95303Y12619D01*
X95313D01*
X95322Y12601D01*
X95368Y12545D01*
X95442Y12453D01*
X95525Y12333D01*
X95627Y12185D01*
X95729Y12009D01*
X95830Y11806D01*
X95914Y11584D01*
Y11575D01*
X95923Y11556D01*
X95932Y11519D01*
X95951Y11473D01*
X95960Y11417D01*
X95978Y11343D01*
X95997Y11260D01*
X96025Y11168D01*
X96043Y11066D01*
X96061Y10946D01*
X96080Y10826D01*
X96089Y10687D01*
X96117Y10400D01*
X96126Y10077D01*
Y10067D01*
Y10040D01*
Y10003D01*
Y9947D01*
X96117Y9873D01*
Y9799D01*
X96108Y9707D01*
X96098Y9605D01*
X96080Y9393D01*
X96043Y9171D01*
X95988Y8940D01*
X95923Y8718D01*
Y8708D01*
X95914Y8690D01*
X95895Y8653D01*
X95877Y8597D01*
X95858Y8542D01*
X95821Y8477D01*
X95747Y8311D01*
X95655Y8135D01*
X95534Y7941D01*
X95396Y7756D01*
X95239Y7581D01*
X95220Y7562D01*
X95174Y7525D01*
X95100Y7469D01*
X94998Y7396D01*
X94869Y7312D01*
X94721Y7229D01*
X94536Y7146D01*
X94333Y7072D01*
X94323D01*
X94314Y7063D01*
X94286D01*
X94259Y7053D01*
X94157Y7035D01*
X94028Y7007D01*
X93870Y6980D01*
X93676Y6961D01*
X93445Y6952D01*
X93195Y6942D01*
X90773D01*
Y13341D01*
X93325D01*
X93399Y13331D01*
D02*
G37*
G36*
X86631Y8024D02*
X89848D01*
Y6942D01*
X85337D01*
Y13294D01*
X86631D01*
Y8024D01*
D02*
G37*
G36*
X58010Y83705D02*
X58163Y83691D01*
X58329Y83663D01*
X58523Y83636D01*
X58731Y83594D01*
X58953Y83539D01*
X59189Y83469D01*
X59425Y83386D01*
X59674Y83275D01*
X59910Y83164D01*
X60132Y83025D01*
X60368Y82859D01*
X60576Y82679D01*
X60590D01*
X60604Y82651D01*
X60645Y82609D01*
X60687Y82568D01*
X60742Y82498D01*
X60798Y82415D01*
X60950Y82221D01*
X61103Y81971D01*
X61269Y81666D01*
X61422Y81320D01*
X61561Y80917D01*
X59647Y80460D01*
Y80473D01*
X59633Y80487D01*
Y80529D01*
X59605Y80584D01*
X59563Y80709D01*
X59494Y80876D01*
X59397Y81070D01*
X59272Y81264D01*
X59106Y81458D01*
X58925Y81625D01*
X58898Y81638D01*
X58828Y81694D01*
X58717Y81763D01*
X58565Y81847D01*
X58371Y81930D01*
X58149Y81999D01*
X57899Y82055D01*
X57622Y82068D01*
X57525D01*
X57442Y82055D01*
X57358Y82041D01*
X57247Y82027D01*
X57012Y81971D01*
X56734Y81874D01*
X56443Y81736D01*
X56290Y81652D01*
X56152Y81555D01*
X56013Y81431D01*
X55888Y81292D01*
Y81278D01*
X55861Y81250D01*
X55833Y81209D01*
X55791Y81139D01*
X55736Y81056D01*
X55680Y80959D01*
X55625Y80834D01*
X55569Y80695D01*
X55500Y80529D01*
X55444Y80349D01*
X55389Y80141D01*
X55334Y79919D01*
X55292Y79669D01*
X55264Y79406D01*
X55250Y79114D01*
X55237Y78795D01*
Y78782D01*
Y78712D01*
Y78615D01*
X55250Y78504D01*
Y78352D01*
X55278Y78171D01*
X55292Y77991D01*
X55320Y77783D01*
X55403Y77353D01*
X55514Y76923D01*
X55583Y76715D01*
X55680Y76521D01*
X55777Y76341D01*
X55888Y76188D01*
X55902Y76174D01*
X55916Y76160D01*
X55958Y76119D01*
X56013Y76063D01*
X56152Y75953D01*
X56346Y75814D01*
X56582Y75661D01*
X56873Y75550D01*
X57206Y75453D01*
X57386Y75439D01*
X57580Y75426D01*
X57650D01*
X57705Y75439D01*
X57858Y75453D01*
X58038Y75481D01*
X58232Y75550D01*
X58454Y75634D01*
X58676Y75744D01*
X58898Y75911D01*
X58925Y75939D01*
X58995Y76008D01*
X59092Y76119D01*
X59203Y76285D01*
X59342Y76507D01*
X59466Y76771D01*
X59591Y77090D01*
X59702Y77464D01*
X61588Y76882D01*
Y76868D01*
X61574Y76812D01*
X61547Y76729D01*
X61505Y76618D01*
X61450Y76493D01*
X61394Y76341D01*
X61325Y76174D01*
X61241Y75994D01*
X61047Y75620D01*
X60798Y75231D01*
X60493Y74857D01*
X60326Y74690D01*
X60146Y74538D01*
X60132Y74524D01*
X60104Y74510D01*
X60049Y74468D01*
X59966Y74413D01*
X59869Y74358D01*
X59744Y74302D01*
X59605Y74233D01*
X59453Y74163D01*
X59272Y74080D01*
X59078Y74011D01*
X58870Y73955D01*
X58648Y73900D01*
X58412Y73844D01*
X58149Y73803D01*
X57885Y73789D01*
X57594Y73775D01*
X57511D01*
X57414Y73789D01*
X57275Y73803D01*
X57123Y73817D01*
X56929Y73844D01*
X56720Y73886D01*
X56485Y73941D01*
X56249Y74011D01*
X55999Y74094D01*
X55736Y74205D01*
X55472Y74330D01*
X55209Y74468D01*
X54945Y74649D01*
X54696Y74843D01*
X54460Y75079D01*
X54446Y75093D01*
X54404Y75134D01*
X54349Y75217D01*
X54266Y75314D01*
X54183Y75453D01*
X54072Y75606D01*
X53961Y75800D01*
X53850Y76022D01*
X53739Y76258D01*
X53628Y76521D01*
X53517Y76826D01*
X53434Y77145D01*
X53350Y77478D01*
X53295Y77852D01*
X53253Y78241D01*
X53239Y78657D01*
Y78671D01*
Y78685D01*
Y78768D01*
X53253Y78893D01*
Y79059D01*
X53281Y79253D01*
X53309Y79489D01*
X53337Y79738D01*
X53392Y80030D01*
X53461Y80321D01*
X53545Y80626D01*
X53642Y80931D01*
X53766Y81250D01*
X53905Y81555D01*
X54072Y81847D01*
X54252Y82124D01*
X54474Y82387D01*
X54488Y82401D01*
X54529Y82443D01*
X54599Y82512D01*
X54696Y82595D01*
X54820Y82692D01*
X54973Y82803D01*
X55139Y82928D01*
X55347Y83053D01*
X55569Y83178D01*
X55805Y83303D01*
X56083Y83414D01*
X56360Y83511D01*
X56679Y83594D01*
X56998Y83663D01*
X57358Y83705D01*
X57719Y83719D01*
X57885D01*
X58010Y83705D01*
D02*
G37*
G36*
X70894Y73941D02*
X68952D01*
X65055Y80266D01*
Y73941D01*
X63266D01*
Y83539D01*
X65139D01*
X69105Y77076D01*
Y83539D01*
X70894D01*
Y73941D01*
D02*
G37*
G36*
X75776Y83580D02*
X75900Y83566D01*
X76025Y83552D01*
X76178Y83525D01*
X76330Y83483D01*
X76677Y83386D01*
X76857Y83317D01*
X77052Y83219D01*
X77232Y83122D01*
X77398Y83012D01*
X77579Y82873D01*
X77731Y82720D01*
X77745Y82706D01*
X77759Y82692D01*
X77800Y82651D01*
X77842Y82595D01*
X77953Y82457D01*
X78078Y82263D01*
X78203Y82027D01*
X78300Y81749D01*
X78383Y81444D01*
X78397Y81292D01*
X78411Y81125D01*
Y81111D01*
Y81070D01*
X78397Y81000D01*
X78383Y80917D01*
X78369Y80806D01*
X78341Y80682D01*
X78300Y80543D01*
X78244Y80390D01*
X78161Y80238D01*
X78078Y80071D01*
X77967Y79905D01*
X77828Y79738D01*
X77662Y79572D01*
X77481Y79406D01*
X77273Y79253D01*
X77024Y79101D01*
X77038D01*
X77065Y79087D01*
X77107D01*
X77162Y79059D01*
X77315Y79017D01*
X77495Y78934D01*
X77703Y78823D01*
X77925Y78685D01*
X78147Y78504D01*
X78341Y78296D01*
X78369Y78268D01*
X78425Y78185D01*
X78494Y78060D01*
X78591Y77880D01*
X78688Y77672D01*
X78757Y77409D01*
X78813Y77131D01*
X78840Y76812D01*
Y76798D01*
Y76757D01*
Y76687D01*
X78827Y76604D01*
X78813Y76493D01*
X78785Y76368D01*
X78757Y76216D01*
X78730Y76063D01*
X78619Y75731D01*
X78535Y75550D01*
X78452Y75356D01*
X78341Y75176D01*
X78217Y74995D01*
X78078Y74815D01*
X77911Y74649D01*
X77898Y74635D01*
X77870Y74607D01*
X77814Y74566D01*
X77745Y74510D01*
X77648Y74441D01*
X77551Y74372D01*
X77412Y74288D01*
X77273Y74205D01*
X77121Y74122D01*
X76941Y74039D01*
X76746Y73969D01*
X76552Y73900D01*
X76330Y73844D01*
X76108Y73803D01*
X75859Y73775D01*
X75609Y73761D01*
X75484D01*
X75387Y73775D01*
X75276Y73789D01*
X75152Y73803D01*
X75013Y73831D01*
X74846Y73858D01*
X74514Y73941D01*
X74153Y74080D01*
X73959Y74163D01*
X73792Y74261D01*
X73612Y74385D01*
X73446Y74510D01*
X73432Y74524D01*
X73404Y74552D01*
X73362Y74593D01*
X73307Y74649D01*
X73238Y74718D01*
X73168Y74815D01*
X73085Y74912D01*
X73002Y75037D01*
X72919Y75176D01*
X72822Y75314D01*
X72669Y75647D01*
X72544Y76036D01*
X72489Y76244D01*
X72461Y76466D01*
X74236Y76687D01*
Y76674D01*
Y76660D01*
X74250Y76576D01*
X74278Y76452D01*
X74319Y76299D01*
X74389Y76133D01*
X74458Y75953D01*
X74569Y75786D01*
X74694Y75634D01*
X74708Y75620D01*
X74763Y75578D01*
X74846Y75522D01*
X74943Y75467D01*
X75082Y75398D01*
X75235Y75342D01*
X75401Y75301D01*
X75595Y75287D01*
X75623D01*
X75692Y75301D01*
X75789Y75314D01*
X75928Y75342D01*
X76081Y75398D01*
X76233Y75467D01*
X76400Y75578D01*
X76552Y75717D01*
X76566Y75731D01*
X76622Y75800D01*
X76677Y75897D01*
X76760Y76022D01*
X76830Y76188D01*
X76899Y76396D01*
X76941Y76632D01*
X76954Y76895D01*
Y76909D01*
Y76923D01*
Y77006D01*
X76941Y77131D01*
X76913Y77298D01*
X76857Y77478D01*
X76788Y77658D01*
X76691Y77839D01*
X76566Y78005D01*
X76552Y78019D01*
X76497Y78074D01*
X76414Y78144D01*
X76316Y78213D01*
X76178Y78296D01*
X76025Y78352D01*
X75859Y78407D01*
X75665Y78421D01*
X75526D01*
X75429Y78407D01*
X75304Y78393D01*
X75152Y78366D01*
X74999Y78324D01*
X74819Y78282D01*
X75013Y79766D01*
X75138D01*
X75276Y79780D01*
X75443Y79794D01*
X75623Y79836D01*
X75817Y79891D01*
X75998Y79974D01*
X76164Y80085D01*
X76178Y80099D01*
X76233Y80155D01*
X76289Y80224D01*
X76372Y80335D01*
X76441Y80460D01*
X76511Y80612D01*
X76552Y80793D01*
X76566Y81000D01*
Y81028D01*
Y81084D01*
X76552Y81167D01*
X76525Y81278D01*
X76497Y81403D01*
X76441Y81528D01*
X76372Y81666D01*
X76275Y81777D01*
X76261Y81791D01*
X76219Y81819D01*
X76164Y81874D01*
X76067Y81930D01*
X75956Y81971D01*
X75831Y82027D01*
X75665Y82055D01*
X75498Y82068D01*
X75415D01*
X75332Y82055D01*
X75221Y82027D01*
X75096Y81985D01*
X74957Y81930D01*
X74819Y81847D01*
X74694Y81736D01*
X74680Y81722D01*
X74638Y81680D01*
X74583Y81597D01*
X74514Y81486D01*
X74444Y81361D01*
X74389Y81195D01*
X74333Y81000D01*
X74292Y80779D01*
X72600Y81056D01*
Y81070D01*
X72614Y81098D01*
Y81139D01*
X72628Y81209D01*
X72669Y81361D01*
X72725Y81569D01*
X72808Y81791D01*
X72891Y82027D01*
X73002Y82249D01*
X73127Y82457D01*
X73141Y82485D01*
X73196Y82540D01*
X73279Y82637D01*
X73390Y82762D01*
X73529Y82887D01*
X73695Y83025D01*
X73903Y83164D01*
X74125Y83289D01*
X74139D01*
X74153Y83303D01*
X74236Y83330D01*
X74375Y83386D01*
X74541Y83441D01*
X74749Y83497D01*
X74999Y83552D01*
X75262Y83580D01*
X75554Y83594D01*
X75679D01*
X75776Y83580D01*
D02*
G37*
G36*
X145684Y106175D02*
X145786Y106166D01*
X145897Y106148D01*
X146026Y106129D01*
X146165Y106101D01*
X146313Y106064D01*
X146470Y106018D01*
X146627Y105963D01*
X146794Y105889D01*
X146951Y105815D01*
X147099Y105722D01*
X147256Y105611D01*
X147395Y105491D01*
X147404D01*
X147413Y105473D01*
X147441Y105445D01*
X147469Y105417D01*
X147506Y105371D01*
X147543Y105316D01*
X147644Y105186D01*
X147746Y105020D01*
X147857Y104816D01*
X147959Y104585D01*
X148051Y104317D01*
X146775Y104012D01*
Y104021D01*
X146766Y104030D01*
Y104058D01*
X146748Y104095D01*
X146720Y104178D01*
X146674Y104289D01*
X146609Y104419D01*
X146526Y104548D01*
X146415Y104677D01*
X146295Y104789D01*
X146276Y104798D01*
X146230Y104835D01*
X146156Y104881D01*
X146054Y104936D01*
X145925Y104992D01*
X145777Y105038D01*
X145610Y105075D01*
X145426Y105084D01*
X145361D01*
X145305Y105075D01*
X145250Y105066D01*
X145176Y105057D01*
X145019Y105020D01*
X144834Y104955D01*
X144640Y104862D01*
X144538Y104807D01*
X144445Y104742D01*
X144353Y104659D01*
X144270Y104567D01*
Y104557D01*
X144251Y104539D01*
X144233Y104511D01*
X144205Y104465D01*
X144168Y104409D01*
X144131Y104345D01*
X144094Y104262D01*
X144057Y104169D01*
X144011Y104058D01*
X143974Y103938D01*
X143937Y103799D01*
X143900Y103651D01*
X143872Y103485D01*
X143854Y103309D01*
X143844Y103115D01*
X143835Y102902D01*
Y102893D01*
Y102847D01*
Y102782D01*
X143844Y102708D01*
Y102606D01*
X143863Y102486D01*
X143872Y102366D01*
X143891Y102227D01*
X143946Y101941D01*
X144020Y101654D01*
X144066Y101516D01*
X144131Y101386D01*
X144196Y101266D01*
X144270Y101164D01*
X144279Y101155D01*
X144288Y101146D01*
X144316Y101118D01*
X144353Y101081D01*
X144445Y101007D01*
X144575Y100915D01*
X144732Y100813D01*
X144926Y100739D01*
X145148Y100674D01*
X145268Y100665D01*
X145398Y100656D01*
X145444D01*
X145481Y100665D01*
X145583Y100674D01*
X145703Y100693D01*
X145832Y100739D01*
X145980Y100794D01*
X146128Y100868D01*
X146276Y100979D01*
X146295Y100998D01*
X146341Y101044D01*
X146405Y101118D01*
X146480Y101229D01*
X146572Y101377D01*
X146655Y101552D01*
X146738Y101765D01*
X146812Y102015D01*
X148070Y101627D01*
Y101617D01*
X148061Y101580D01*
X148042Y101525D01*
X148014Y101451D01*
X147977Y101368D01*
X147940Y101266D01*
X147894Y101155D01*
X147839Y101035D01*
X147709Y100785D01*
X147543Y100526D01*
X147339Y100277D01*
X147228Y100166D01*
X147108Y100064D01*
X147099Y100055D01*
X147080Y100045D01*
X147043Y100018D01*
X146988Y99981D01*
X146923Y99944D01*
X146840Y99907D01*
X146748Y99861D01*
X146646Y99814D01*
X146526Y99759D01*
X146396Y99713D01*
X146258Y99676D01*
X146110Y99639D01*
X145953Y99602D01*
X145777Y99574D01*
X145601Y99565D01*
X145407Y99556D01*
X145351D01*
X145287Y99565D01*
X145194Y99574D01*
X145093Y99583D01*
X144963Y99602D01*
X144824Y99629D01*
X144667Y99666D01*
X144510Y99713D01*
X144344Y99768D01*
X144168Y99842D01*
X143992Y99925D01*
X143817Y100018D01*
X143641Y100138D01*
X143475Y100267D01*
X143317Y100424D01*
X143308Y100434D01*
X143280Y100462D01*
X143244Y100517D01*
X143188Y100582D01*
X143133Y100674D01*
X143059Y100776D01*
X142985Y100905D01*
X142911Y101053D01*
X142837Y101210D01*
X142763Y101386D01*
X142689Y101589D01*
X142633Y101802D01*
X142578Y102024D01*
X142541Y102274D01*
X142513Y102533D01*
X142504Y102810D01*
Y102819D01*
Y102828D01*
Y102884D01*
X142513Y102967D01*
Y103078D01*
X142532Y103208D01*
X142550Y103365D01*
X142569Y103531D01*
X142606Y103725D01*
X142652Y103919D01*
X142707Y104123D01*
X142772Y104326D01*
X142855Y104539D01*
X142948Y104742D01*
X143059Y104936D01*
X143179Y105121D01*
X143327Y105297D01*
X143336Y105306D01*
X143364Y105334D01*
X143410Y105380D01*
X143475Y105436D01*
X143558Y105500D01*
X143660Y105574D01*
X143771Y105658D01*
X143909Y105741D01*
X144057Y105824D01*
X144214Y105907D01*
X144399Y105981D01*
X144584Y106046D01*
X144797Y106101D01*
X145009Y106148D01*
X145250Y106175D01*
X145490Y106185D01*
X145601D01*
X145684Y106175D01*
D02*
G37*
G36*
X154274Y99666D02*
X152979D01*
X150381Y103882D01*
Y99666D01*
X149188D01*
Y106064D01*
X150437D01*
X153081Y101756D01*
Y106064D01*
X154274D01*
Y99666D01*
D02*
G37*
G36*
X158961Y102024D02*
X159756D01*
Y100951D01*
X158961D01*
Y99666D01*
X157778D01*
Y100951D01*
X155152D01*
Y102015D01*
X157926Y106092D01*
X158961D01*
Y102024D01*
D02*
G37*
G36*
X86040Y57915D02*
X86142Y57906D01*
X86252Y57888D01*
X86382Y57869D01*
X86521Y57841D01*
X86669Y57804D01*
X86826Y57758D01*
X86983Y57703D01*
X87149Y57629D01*
X87306Y57555D01*
X87454Y57462D01*
X87612Y57351D01*
X87750Y57231D01*
X87759D01*
X87769Y57213D01*
X87796Y57185D01*
X87824Y57157D01*
X87861Y57111D01*
X87898Y57056D01*
X88000Y56926D01*
X88102Y56760D01*
X88212Y56556D01*
X88314Y56325D01*
X88407Y56057D01*
X87131Y55752D01*
Y55761D01*
X87121Y55770D01*
Y55798D01*
X87103Y55835D01*
X87075Y55918D01*
X87029Y56029D01*
X86964Y56159D01*
X86881Y56288D01*
X86770Y56417D01*
X86650Y56529D01*
X86631Y56538D01*
X86585Y56575D01*
X86511Y56621D01*
X86410Y56676D01*
X86280Y56732D01*
X86132Y56778D01*
X85966Y56815D01*
X85781Y56824D01*
X85716D01*
X85661Y56815D01*
X85605Y56806D01*
X85531Y56797D01*
X85374Y56760D01*
X85189Y56695D01*
X84995Y56602D01*
X84893Y56547D01*
X84801Y56482D01*
X84708Y56399D01*
X84625Y56307D01*
Y56297D01*
X84607Y56279D01*
X84588Y56251D01*
X84560Y56205D01*
X84523Y56149D01*
X84487Y56085D01*
X84450Y56002D01*
X84412Y55909D01*
X84366Y55798D01*
X84329Y55678D01*
X84292Y55539D01*
X84255Y55391D01*
X84228Y55225D01*
X84209Y55049D01*
X84200Y54855D01*
X84191Y54642D01*
Y54633D01*
Y54587D01*
Y54522D01*
X84200Y54448D01*
Y54346D01*
X84218Y54226D01*
X84228Y54106D01*
X84246Y53967D01*
X84302Y53681D01*
X84375Y53394D01*
X84422Y53256D01*
X84487Y53126D01*
X84551Y53006D01*
X84625Y52904D01*
X84634Y52895D01*
X84644Y52886D01*
X84671Y52858D01*
X84708Y52821D01*
X84801Y52747D01*
X84930Y52655D01*
X85087Y52553D01*
X85282Y52479D01*
X85504Y52414D01*
X85624Y52405D01*
X85753Y52396D01*
X85799D01*
X85836Y52405D01*
X85938Y52414D01*
X86058Y52433D01*
X86188Y52479D01*
X86336Y52534D01*
X86483Y52608D01*
X86631Y52719D01*
X86650Y52738D01*
X86696Y52784D01*
X86761Y52858D01*
X86835Y52969D01*
X86927Y53117D01*
X87010Y53292D01*
X87094Y53505D01*
X87168Y53755D01*
X88425Y53366D01*
Y53357D01*
X88416Y53320D01*
X88397Y53265D01*
X88370Y53191D01*
X88333Y53108D01*
X88296Y53006D01*
X88250Y52895D01*
X88194Y52775D01*
X88064Y52525D01*
X87898Y52266D01*
X87695Y52017D01*
X87584Y51906D01*
X87464Y51804D01*
X87454Y51795D01*
X87436Y51785D01*
X87399Y51758D01*
X87343Y51721D01*
X87279Y51684D01*
X87196Y51647D01*
X87103Y51601D01*
X87001Y51554D01*
X86881Y51499D01*
X86752Y51453D01*
X86613Y51416D01*
X86465Y51379D01*
X86308Y51342D01*
X86132Y51314D01*
X85956Y51305D01*
X85762Y51295D01*
X85707D01*
X85642Y51305D01*
X85550Y51314D01*
X85448Y51323D01*
X85319Y51342D01*
X85180Y51369D01*
X85023Y51406D01*
X84866Y51453D01*
X84699Y51508D01*
X84523Y51582D01*
X84348Y51665D01*
X84172Y51758D01*
X83996Y51878D01*
X83830Y52007D01*
X83673Y52165D01*
X83664Y52174D01*
X83636Y52201D01*
X83599Y52257D01*
X83543Y52322D01*
X83488Y52414D01*
X83414Y52516D01*
X83340Y52645D01*
X83266Y52793D01*
X83192Y52950D01*
X83118Y53126D01*
X83044Y53330D01*
X82989Y53542D01*
X82933Y53764D01*
X82896Y54014D01*
X82868Y54272D01*
X82859Y54550D01*
Y54559D01*
Y54568D01*
Y54624D01*
X82868Y54707D01*
Y54818D01*
X82887Y54948D01*
X82906Y55105D01*
X82924Y55271D01*
X82961Y55465D01*
X83007Y55659D01*
X83063Y55863D01*
X83127Y56066D01*
X83211Y56279D01*
X83303Y56482D01*
X83414Y56676D01*
X83534Y56861D01*
X83682Y57037D01*
X83691Y57046D01*
X83719Y57074D01*
X83765Y57120D01*
X83830Y57176D01*
X83913Y57240D01*
X84015Y57314D01*
X84126Y57397D01*
X84265Y57481D01*
X84412Y57564D01*
X84570Y57647D01*
X84755Y57721D01*
X84939Y57786D01*
X85152Y57841D01*
X85365Y57888D01*
X85605Y57915D01*
X85846Y57924D01*
X85956D01*
X86040Y57915D01*
D02*
G37*
G36*
X92401Y51406D02*
X91171D01*
Y56038D01*
X91162Y56029D01*
X91143Y56011D01*
X91106Y55983D01*
X91051Y55937D01*
X90986Y55881D01*
X90912Y55826D01*
X90820Y55761D01*
X90718Y55687D01*
X90607Y55613D01*
X90487Y55539D01*
X90358Y55456D01*
X90219Y55382D01*
X89923Y55243D01*
X89590Y55114D01*
Y56223D01*
X89599D01*
X89609Y56233D01*
X89636Y56242D01*
X89673Y56251D01*
X89766Y56297D01*
X89895Y56353D01*
X90052Y56427D01*
X90228Y56529D01*
X90422Y56658D01*
X90626Y56806D01*
X90635Y56815D01*
X90653Y56824D01*
X90681Y56852D01*
X90718Y56889D01*
X90820Y56982D01*
X90931Y57102D01*
X91060Y57250D01*
X91190Y57435D01*
X91310Y57629D01*
X91402Y57841D01*
X92401D01*
Y51406D01*
D02*
G37*
G36*
X126176Y103635D02*
X126278Y103626D01*
X126389Y103608D01*
X126518Y103589D01*
X126657Y103561D01*
X126805Y103524D01*
X126962Y103478D01*
X127119Y103423D01*
X127285Y103349D01*
X127443Y103275D01*
X127590Y103182D01*
X127748Y103071D01*
X127886Y102951D01*
X127896D01*
X127905Y102933D01*
X127933Y102905D01*
X127960Y102877D01*
X127997Y102831D01*
X128034Y102775D01*
X128136Y102646D01*
X128238Y102480D01*
X128349Y102276D01*
X128450Y102045D01*
X128543Y101777D01*
X127267Y101472D01*
Y101481D01*
X127258Y101490D01*
Y101518D01*
X127239Y101555D01*
X127211Y101638D01*
X127165Y101749D01*
X127100Y101879D01*
X127017Y102008D01*
X126906Y102137D01*
X126786Y102248D01*
X126768Y102258D01*
X126721Y102295D01*
X126647Y102341D01*
X126546Y102396D01*
X126416Y102452D01*
X126268Y102498D01*
X126102Y102535D01*
X125917Y102544D01*
X125852D01*
X125797Y102535D01*
X125741Y102526D01*
X125667Y102517D01*
X125510Y102480D01*
X125325Y102415D01*
X125131Y102322D01*
X125029Y102267D01*
X124937Y102202D01*
X124845Y102119D01*
X124761Y102027D01*
Y102017D01*
X124743Y101999D01*
X124724Y101971D01*
X124697Y101925D01*
X124660Y101869D01*
X124623Y101805D01*
X124586Y101721D01*
X124549Y101629D01*
X124502Y101518D01*
X124465Y101398D01*
X124429Y101259D01*
X124391Y101111D01*
X124364Y100945D01*
X124345Y100769D01*
X124336Y100575D01*
X124327Y100362D01*
Y100353D01*
Y100307D01*
Y100242D01*
X124336Y100168D01*
Y100066D01*
X124354Y99946D01*
X124364Y99826D01*
X124382Y99687D01*
X124438Y99401D01*
X124512Y99114D01*
X124558Y98975D01*
X124623Y98846D01*
X124687Y98726D01*
X124761Y98624D01*
X124770Y98615D01*
X124780Y98606D01*
X124808Y98578D01*
X124845Y98541D01*
X124937Y98467D01*
X125066Y98375D01*
X125224Y98273D01*
X125418Y98199D01*
X125640Y98134D01*
X125760Y98125D01*
X125889Y98116D01*
X125935D01*
X125972Y98125D01*
X126074Y98134D01*
X126194Y98153D01*
X126324Y98199D01*
X126472Y98254D01*
X126620Y98328D01*
X126768Y98439D01*
X126786Y98458D01*
X126832Y98504D01*
X126897Y98578D01*
X126971Y98689D01*
X127063Y98837D01*
X127147Y99012D01*
X127230Y99225D01*
X127304Y99475D01*
X128561Y99087D01*
Y99077D01*
X128552Y99040D01*
X128533Y98985D01*
X128506Y98911D01*
X128469Y98828D01*
X128432Y98726D01*
X128386Y98615D01*
X128330Y98495D01*
X128201Y98245D01*
X128034Y97986D01*
X127831Y97737D01*
X127720Y97626D01*
X127600Y97524D01*
X127590Y97515D01*
X127572Y97506D01*
X127535Y97478D01*
X127479Y97441D01*
X127415Y97404D01*
X127332Y97367D01*
X127239Y97321D01*
X127137Y97274D01*
X127017Y97219D01*
X126888Y97173D01*
X126749Y97136D01*
X126601Y97099D01*
X126444Y97062D01*
X126268Y97034D01*
X126093Y97025D01*
X125899Y97015D01*
X125843D01*
X125778Y97025D01*
X125686Y97034D01*
X125584Y97043D01*
X125455Y97062D01*
X125316Y97089D01*
X125159Y97126D01*
X125002Y97173D01*
X124835Y97228D01*
X124660Y97302D01*
X124484Y97385D01*
X124308Y97478D01*
X124133Y97598D01*
X123966Y97727D01*
X123809Y97885D01*
X123800Y97894D01*
X123772Y97921D01*
X123735Y97977D01*
X123680Y98042D01*
X123624Y98134D01*
X123550Y98236D01*
X123476Y98365D01*
X123402Y98513D01*
X123328Y98670D01*
X123254Y98846D01*
X123180Y99050D01*
X123125Y99262D01*
X123069Y99484D01*
X123032Y99734D01*
X123005Y99993D01*
X122995Y100270D01*
Y100279D01*
Y100288D01*
Y100344D01*
X123005Y100427D01*
Y100538D01*
X123023Y100667D01*
X123042Y100825D01*
X123060Y100991D01*
X123097Y101185D01*
X123143Y101379D01*
X123199Y101583D01*
X123264Y101786D01*
X123347Y101999D01*
X123439Y102202D01*
X123550Y102396D01*
X123670Y102581D01*
X123818Y102757D01*
X123827Y102766D01*
X123855Y102794D01*
X123902Y102840D01*
X123966Y102896D01*
X124049Y102960D01*
X124151Y103034D01*
X124262Y103118D01*
X124401Y103201D01*
X124549Y103284D01*
X124706Y103367D01*
X124891Y103441D01*
X125076Y103506D01*
X125288Y103561D01*
X125501Y103608D01*
X125741Y103635D01*
X125982Y103645D01*
X126093D01*
X126176Y103635D01*
D02*
G37*
G36*
X131668Y103552D02*
X131751Y103543D01*
X131843Y103534D01*
X131945Y103515D01*
X132056Y103497D01*
X132296Y103432D01*
X132537Y103339D01*
X132666Y103284D01*
X132777Y103219D01*
X132897Y103136D01*
X132999Y103044D01*
X133008Y103034D01*
X133027Y103025D01*
X133045Y102988D01*
X133082Y102951D01*
X133129Y102905D01*
X133175Y102840D01*
X133221Y102775D01*
X133277Y102692D01*
X133369Y102507D01*
X133461Y102295D01*
X133498Y102175D01*
X133517Y102045D01*
X133535Y101906D01*
X133545Y101768D01*
Y101749D01*
Y101694D01*
X133535Y101610D01*
X133526Y101509D01*
X133508Y101379D01*
X133480Y101241D01*
X133443Y101093D01*
X133387Y100945D01*
X133378Y100926D01*
X133360Y100880D01*
X133323Y100797D01*
X133267Y100695D01*
X133202Y100575D01*
X133119Y100436D01*
X133018Y100288D01*
X132897Y100131D01*
X132888Y100122D01*
X132851Y100076D01*
X132796Y100011D01*
X132712Y99919D01*
X132602Y99808D01*
X132463Y99660D01*
X132296Y99502D01*
X132093Y99308D01*
X132084Y99299D01*
X132065Y99290D01*
X132038Y99262D01*
X132001Y99225D01*
X131899Y99133D01*
X131779Y99022D01*
X131658Y98902D01*
X131538Y98781D01*
X131427Y98680D01*
X131390Y98633D01*
X131353Y98596D01*
X131344Y98587D01*
X131326Y98569D01*
X131298Y98532D01*
X131261Y98485D01*
X131178Y98384D01*
X131104Y98264D01*
X133545D01*
Y97126D01*
X129245D01*
Y97136D01*
Y97154D01*
X129255Y97191D01*
X129264Y97237D01*
X129273Y97293D01*
X129282Y97358D01*
X129319Y97524D01*
X129375Y97709D01*
X129449Y97912D01*
X129541Y98134D01*
X129662Y98347D01*
Y98356D01*
X129680Y98375D01*
X129698Y98412D01*
X129735Y98448D01*
X129772Y98513D01*
X129828Y98578D01*
X129893Y98661D01*
X129967Y98754D01*
X130050Y98865D01*
X130152Y98975D01*
X130262Y99105D01*
X130392Y99244D01*
X130531Y99382D01*
X130688Y99539D01*
X130854Y99706D01*
X131039Y99882D01*
X131048Y99891D01*
X131076Y99919D01*
X131113Y99956D01*
X131168Y100011D01*
X131243Y100066D01*
X131316Y100140D01*
X131483Y100307D01*
X131649Y100483D01*
X131816Y100658D01*
X131890Y100732D01*
X131964Y100815D01*
X132019Y100880D01*
X132056Y100936D01*
X132065Y100954D01*
X132093Y101000D01*
X132139Y101074D01*
X132185Y101176D01*
X132232Y101287D01*
X132278Y101416D01*
X132306Y101546D01*
X132315Y101685D01*
Y101694D01*
Y101703D01*
Y101749D01*
X132306Y101832D01*
X132287Y101925D01*
X132260Y102027D01*
X132222Y102128D01*
X132167Y102230D01*
X132093Y102322D01*
X132084Y102332D01*
X132056Y102359D01*
X132001Y102396D01*
X131936Y102433D01*
X131843Y102470D01*
X131742Y102507D01*
X131622Y102535D01*
X131483Y102544D01*
X131418D01*
X131344Y102535D01*
X131261Y102517D01*
X131159Y102489D01*
X131058Y102443D01*
X130956Y102387D01*
X130863Y102313D01*
X130854Y102304D01*
X130826Y102267D01*
X130789Y102212D01*
X130752Y102128D01*
X130706Y102027D01*
X130669Y101888D01*
X130632Y101731D01*
X130614Y101546D01*
X129393Y101666D01*
Y101675D01*
X129403Y101712D01*
Y101758D01*
X129421Y101832D01*
X129430Y101916D01*
X129458Y102008D01*
X129486Y102110D01*
X129514Y102230D01*
X129606Y102461D01*
X129717Y102702D01*
X129791Y102822D01*
X129874Y102933D01*
X129967Y103025D01*
X130068Y103118D01*
X130077Y103127D01*
X130096Y103136D01*
X130124Y103154D01*
X130170Y103191D01*
X130225Y103219D01*
X130299Y103256D01*
X130373Y103302D01*
X130466Y103339D01*
X130568Y103386D01*
X130679Y103423D01*
X130919Y103497D01*
X131206Y103543D01*
X131353Y103552D01*
X131511Y103561D01*
X131603D01*
X131668Y103552D01*
D02*
G37*
%LPC*%
G36*
X228403Y137851D02*
X228292D01*
X228162Y137814D01*
X228014Y137777D01*
X227829Y137721D01*
X227644Y137610D01*
X227459Y137480D01*
X227274Y137295D01*
X227255Y137277D01*
X227199Y137184D01*
X227125Y137055D01*
X227051Y136869D01*
X226977Y136629D01*
X226903Y136314D01*
X226848Y135943D01*
X226829Y135518D01*
Y135499D01*
Y135462D01*
Y135407D01*
Y135314D01*
X226848Y135092D01*
X226885Y134832D01*
X226940Y134518D01*
X227033Y134221D01*
X227144Y133925D01*
X227311Y133685D01*
X227329Y133666D01*
X227403Y133592D01*
X227496Y133499D01*
X227644Y133407D01*
X227829Y133296D01*
X228033Y133203D01*
X228273Y133129D01*
X228533Y133111D01*
X228570D01*
X228644Y133129D01*
X228773Y133147D01*
X228940Y133184D01*
X229125Y133240D01*
X229329Y133351D01*
X229533Y133481D01*
X229718Y133666D01*
X229736Y133685D01*
X229792Y133777D01*
X229884Y133907D01*
X229977Y134073D01*
X230051Y134314D01*
X230144Y134592D01*
X230199Y134925D01*
X230218Y135314D01*
Y135332D01*
Y135370D01*
Y135425D01*
Y135518D01*
X230181Y135721D01*
X230144Y135999D01*
X230088Y136295D01*
X229977Y136610D01*
X229847Y136906D01*
X229662Y137184D01*
X229644Y137221D01*
X229570Y137295D01*
X229459Y137388D01*
X229310Y137517D01*
X229125Y137647D01*
X228903Y137740D01*
X228662Y137814D01*
X228403Y137851D01*
D02*
G37*
G36*
X232295Y163505D02*
X232222D01*
X232129Y163486D01*
X232036Y163468D01*
X231907Y163431D01*
X231777Y163375D01*
X231629Y163301D01*
X231499Y163209D01*
X231481Y163190D01*
X231444Y163153D01*
X231388Y163079D01*
X231314Y162986D01*
X231222Y162838D01*
X231147Y162672D01*
X231055Y162449D01*
X230981Y162190D01*
Y162171D01*
X230962Y162153D01*
Y162079D01*
X230944Y162005D01*
X230925Y161894D01*
X230907Y161764D01*
X230888Y161616D01*
X230870Y161431D01*
X230833Y161209D01*
X230814Y160986D01*
X230796Y160709D01*
X230777Y160431D01*
X230759Y160098D01*
Y159764D01*
X230740Y159375D01*
Y158968D01*
Y158950D01*
Y158876D01*
Y158746D01*
Y158598D01*
Y158413D01*
X230759Y158209D01*
Y157968D01*
X230777Y157727D01*
X230796Y157209D01*
X230833Y156691D01*
X230851Y156450D01*
X230888Y156228D01*
X230925Y156024D01*
X230962Y155839D01*
X230981Y155802D01*
X230999Y155709D01*
X231055Y155561D01*
X231110Y155394D01*
X231203Y155209D01*
X231296Y155024D01*
X231407Y154858D01*
X231518Y154728D01*
X231536Y154709D01*
X231573Y154691D01*
X231647Y154635D01*
X231740Y154598D01*
X231851Y154543D01*
X231981Y154487D01*
X232129Y154469D01*
X232295Y154450D01*
X232370D01*
X232462Y154469D01*
X232555Y154487D01*
X232684Y154524D01*
X232814Y154561D01*
X232944Y154635D01*
X233073Y154728D01*
X233092Y154746D01*
X233129Y154783D01*
X233203Y154858D01*
X233277Y154969D01*
X233351Y155098D01*
X233444Y155283D01*
X233536Y155487D01*
X233610Y155746D01*
Y155765D01*
X233629Y155783D01*
Y155857D01*
X233647Y155931D01*
X233666Y156042D01*
X233684Y156172D01*
X233721Y156320D01*
X233740Y156505D01*
X233758Y156709D01*
X233795Y156950D01*
X233814Y157209D01*
X233832Y157505D01*
X233851Y157820D01*
Y158172D01*
X233869Y158561D01*
Y158968D01*
Y158987D01*
Y159061D01*
Y159190D01*
Y159339D01*
Y159524D01*
X233851Y159727D01*
Y159968D01*
X233832Y160209D01*
X233814Y160727D01*
X233777Y161227D01*
X233740Y161468D01*
X233703Y161709D01*
X233666Y161912D01*
X233629Y162079D01*
Y162097D01*
X233610Y162116D01*
X233592Y162209D01*
X233536Y162357D01*
X233481Y162542D01*
X233388Y162727D01*
X233295Y162912D01*
X233184Y163079D01*
X233073Y163209D01*
X233055Y163227D01*
X233018Y163264D01*
X232944Y163301D01*
X232851Y163357D01*
X232740Y163412D01*
X232610Y163468D01*
X232462Y163486D01*
X232295Y163505D01*
D02*
G37*
G36*
X140184Y47548D02*
X140165D01*
X140128D01*
X140073Y47539D01*
X139999Y47530D01*
X139916Y47502D01*
X139832Y47475D01*
X139740Y47428D01*
X139666Y47373D01*
X139657Y47364D01*
X139629Y47345D01*
X139601Y47299D01*
X139555Y47243D01*
X139509Y47179D01*
X139472Y47095D01*
X139435Y46994D01*
X139407Y46883D01*
Y46874D01*
X139398Y46846D01*
Y46790D01*
X139389Y46707D01*
Y46504D01*
X139379Y46421D01*
Y44941D01*
X141006D01*
Y46199D01*
X140997Y46384D01*
X140988Y46578D01*
X140979Y46772D01*
X140969Y46855D01*
X140960Y46929D01*
X140942Y47003D01*
X140933Y47049D01*
Y47059D01*
X140914Y47086D01*
X140896Y47133D01*
X140868Y47179D01*
X140785Y47299D01*
X140729Y47354D01*
X140664Y47410D01*
X140655Y47419D01*
X140627Y47428D01*
X140590Y47456D01*
X140535Y47484D01*
X140461Y47502D01*
X140378Y47530D01*
X140285Y47539D01*
X140184Y47548D01*
D02*
G37*
G36*
X128425Y30039D02*
X126945D01*
Y28412D01*
X128203D01*
X128388Y28421D01*
X128582Y28430D01*
X128776Y28439D01*
X128859Y28449D01*
X128933Y28458D01*
X129007Y28476D01*
X129053Y28486D01*
X129063D01*
X129090Y28504D01*
X129136Y28523D01*
X129183Y28550D01*
X129303Y28633D01*
X129358Y28689D01*
X129414Y28754D01*
X129423Y28763D01*
X129432Y28791D01*
X129460Y28828D01*
X129488Y28883D01*
X129506Y28957D01*
X129534Y29040D01*
X129543Y29133D01*
X129553Y29234D01*
Y29253D01*
Y29290D01*
X129543Y29345D01*
X129534Y29419D01*
X129506Y29502D01*
X129479Y29586D01*
X129432Y29678D01*
X129377Y29752D01*
X129368Y29761D01*
X129349Y29789D01*
X129303Y29817D01*
X129248Y29863D01*
X129183Y29909D01*
X129100Y29946D01*
X128998Y29983D01*
X128887Y30011D01*
X128878D01*
X128850Y30020D01*
X128794D01*
X128711Y30029D01*
X128508D01*
X128425Y30039D01*
D02*
G37*
G36*
X92909Y12259D02*
X92067D01*
Y8024D01*
X93205D01*
X93325Y8033D01*
X93454D01*
X93584Y8052D01*
X93704Y8061D01*
X93806Y8080D01*
X93824D01*
X93861Y8098D01*
X93917Y8117D01*
X93990Y8145D01*
X94074Y8181D01*
X94157Y8228D01*
X94240Y8283D01*
X94323Y8348D01*
X94333Y8357D01*
X94360Y8385D01*
X94397Y8431D01*
X94444Y8496D01*
X94490Y8579D01*
X94555Y8681D01*
X94601Y8810D01*
X94656Y8958D01*
Y8967D01*
X94665Y8977D01*
Y9004D01*
X94675Y9041D01*
X94693Y9078D01*
X94702Y9134D01*
X94730Y9272D01*
X94749Y9439D01*
X94776Y9633D01*
X94786Y9873D01*
X94795Y10132D01*
Y10142D01*
Y10169D01*
Y10206D01*
Y10252D01*
Y10317D01*
X94786Y10391D01*
X94776Y10548D01*
X94758Y10733D01*
X94739Y10927D01*
X94702Y11103D01*
X94656Y11270D01*
Y11279D01*
X94647Y11288D01*
X94628Y11334D01*
X94601Y11408D01*
X94564Y11501D01*
X94508Y11593D01*
X94444Y11695D01*
X94370Y11796D01*
X94286Y11889D01*
X94277Y11898D01*
X94249Y11926D01*
X94194Y11963D01*
X94129Y12009D01*
X94037Y12065D01*
X93935Y12111D01*
X93824Y12157D01*
X93695Y12194D01*
X93685D01*
X93639Y12203D01*
X93565Y12213D01*
X93463Y12231D01*
X93399D01*
X93316Y12240D01*
X93232D01*
X93140Y12249D01*
X93029D01*
X92909Y12259D01*
D02*
G37*
G36*
X157778Y104225D02*
X156289Y102024D01*
X157778D01*
Y104225D01*
D02*
G37*
%LPD*%
D10*
X2164Y370952D02*
G03*
X28426Y398139I17836J9048D01*
G01*
X270952Y397836D02*
G03*
X298139Y371575I9048J-17836D01*
G01*
X45000Y90000D02*
G03*
X45000Y90000I-20000J0D01*
G01*
X295000Y130000D02*
G03*
X295000Y130000I-20000J0D01*
G01*
X1500Y2000D02*
X78500D01*
X1500Y62000D02*
X78500D01*
X1500Y2000D02*
Y62000D01*
X78500Y2000D02*
Y62000D01*
X58100Y184400D02*
X241900Y184400D01*
X128500Y120400D02*
X128500Y110900D01*
X171500Y120400D02*
X171500Y110900D01*
X49670Y195582D02*
X250584Y195583D01*
X49670Y109476D02*
X250584D01*
X58100Y120400D02*
X241900D01*
X58100D02*
Y184400D01*
X49670Y109476D02*
Y195582D01*
X250584Y109476D02*
Y195583D01*
X241900Y120400D02*
Y184400D01*
X298500Y1990D02*
Y95990D01*
X152000Y1990D02*
X152000Y95990D01*
X152000Y1990D02*
X298500Y1990D01*
X230000Y95990D02*
X298500D01*
X152000D02*
X165000D01*
X256540Y204470D02*
Y262890D01*
X284480D01*
Y204470D02*
Y262890D01*
X256540Y204470D02*
X284480D01*
D11*
X240000Y396700D02*
Y461700D01*
X60000Y396700D02*
Y461700D01*
X220000Y206700D02*
X240000D01*
Y211700D01*
X60000Y206700D02*
X80000D01*
X60000Y399700D02*
X240000Y399700D01*
X60000Y461700D02*
X240000Y461700D01*
X60000Y206700D02*
Y211700D01*
X107650Y22940D02*
X109650Y22940D01*
X107650Y32940D02*
X109650Y32940D01*
X119620Y2660D02*
X123920Y2660D01*
X120189Y17660D02*
X123920D01*
X123270Y49380D02*
X123270Y47380D01*
X133270D02*
X133270Y49380D01*
X257810Y280670D02*
X283210D01*
X257810Y356870D02*
X283210D01*
Y280670D02*
Y356870D01*
X257810Y280670D02*
Y356870D01*
X16300Y313690D02*
X41700D01*
X16300Y212090D02*
X41700D01*
X16300Y313690D02*
X16300Y212090D01*
X41700D02*
X41700Y313690D01*
D12*
X92360Y30950D02*
X92360Y32550D01*
X80360Y30950D02*
Y32550D01*
X80360Y31750D02*
X92360D01*
X112480Y76380D02*
X116680D01*
X96180Y47180D02*
Y64580D01*
X117180Y47180D02*
Y64580D01*
X108650Y27940D02*
Y32940D01*
Y22940D02*
Y27940D01*
X121375Y15930D02*
Y19390D01*
X119645Y17660D02*
X121375Y19390D01*
X119645Y17660D02*
X121375Y15930D01*
X128270Y48380D02*
X133270D01*
X123270D02*
X128270D01*
X122270Y79120D02*
X134270D01*
X122270Y79920D02*
X122270Y78320D01*
X134270D02*
Y79920D01*
D13*
X120189Y17660D02*
X120370D01*
M02*
