G04*
G04 #@! TF.GenerationSoftware,Altium Limited,Altium Designer,22.4.2 (48)*
G04*
G04 Layer_Color=255*
%FSLAX44Y44*%
%MOMM*%
G71*
G04*
G04 #@! TF.SameCoordinates,838EBF20-BE27-4DE5-A25A-4BBD7161CD63*
G04*
G04*
G04 #@! TF.FilePolarity,Positive*
G04*
G01*
G75*
%ADD14R,1.5000X0.9000*%
%ADD15R,0.9000X1.5000*%
%ADD16R,4.0000X4.0000*%
%ADD17R,1.0000X0.9500*%
%ADD18R,1.4500X1.7500*%
%ADD19R,0.3000X0.7500*%
%ADD20R,0.7500X1.0000*%
%ADD22R,1.0000X0.7500*%
%ADD23R,2.0000X2.0000*%
%ADD39R,1.2000X1.2000*%
%ADD42C,1.0000*%
%ADD43C,0.5080*%
%ADD44O,1.6000X1.2000*%
%ADD45O,1.2700X1.7780*%
G04:AMPARAMS|DCode=46|XSize=4.7mm|YSize=2mm|CornerRadius=0.5mm|HoleSize=0mm|Usage=FLASHONLY|Rotation=90.000|XOffset=0mm|YOffset=0mm|HoleType=Round|Shape=RoundedRectangle|*
%AMROUNDEDRECTD46*
21,1,4.7000,1.0000,0,0,90.0*
21,1,3.7000,2.0000,0,0,90.0*
1,1,1.0000,0.5000,1.8500*
1,1,1.0000,0.5000,-1.8500*
1,1,1.0000,-0.5000,-1.8500*
1,1,1.0000,-0.5000,1.8500*
%
%ADD46ROUNDEDRECTD46*%
G04:AMPARAMS|DCode=47|XSize=4.7mm|YSize=2mm|CornerRadius=0.5mm|HoleSize=0mm|Usage=FLASHONLY|Rotation=0.000|XOffset=0mm|YOffset=0mm|HoleType=Round|Shape=RoundedRectangle|*
%AMROUNDEDRECTD47*
21,1,4.7000,1.0000,0,0,0.0*
21,1,3.7000,2.0000,0,0,0.0*
1,1,1.0000,1.8500,-0.5000*
1,1,1.0000,-1.8500,-0.5000*
1,1,1.0000,-1.8500,0.5000*
1,1,1.0000,1.8500,0.5000*
%
%ADD47ROUNDEDRECTD47*%
%ADD48O,2.0000X1.5000*%
%ADD49O,1.5000X0.9000*%
D14*
X237500Y386800D02*
D03*
Y374100D02*
D03*
Y361400D02*
D03*
Y348700D02*
D03*
Y336000D02*
D03*
Y323300D02*
D03*
Y310600D02*
D03*
Y297900D02*
D03*
Y285200D02*
D03*
Y272500D02*
D03*
Y259800D02*
D03*
Y247100D02*
D03*
Y234400D02*
D03*
Y221700D02*
D03*
X62500D02*
D03*
Y234400D02*
D03*
Y247100D02*
D03*
Y259800D02*
D03*
Y272500D02*
D03*
Y285200D02*
D03*
Y297900D02*
D03*
Y310600D02*
D03*
Y323300D02*
D03*
Y336000D02*
D03*
Y348700D02*
D03*
Y361400D02*
D03*
Y374100D02*
D03*
Y386800D02*
D03*
D15*
X156400Y209200D02*
D03*
X207200D02*
D03*
X194500D02*
D03*
X181800D02*
D03*
X169100D02*
D03*
X143700D02*
D03*
X131000D02*
D03*
X118300D02*
D03*
X105600D02*
D03*
X92900D02*
D03*
D16*
X135000Y309600D02*
D03*
D17*
X86360Y39750D02*
D03*
Y23750D02*
D03*
X128270Y71120D02*
D03*
Y87120D02*
D03*
D18*
X106680Y55880D02*
D03*
D19*
X114180Y41380D02*
D03*
X109180D02*
D03*
X104180D02*
D03*
X99180D02*
D03*
Y70380D02*
D03*
X104180D02*
D03*
X109180D02*
D03*
X114180D02*
D03*
D20*
X116150Y27940D02*
D03*
X101150D02*
D03*
D22*
X128270Y40880D02*
D03*
Y55880D02*
D03*
D23*
X270510Y218680D02*
D03*
Y248680D02*
D03*
D39*
X132420Y10160D02*
D03*
X111420Y10160D02*
D03*
D42*
X135000Y309600D02*
D03*
Y294600D02*
D03*
Y324670D02*
D03*
X150000Y309600D02*
D03*
X120000D02*
D03*
Y294600D02*
D03*
X150000D02*
D03*
Y324670D02*
D03*
X120000D02*
D03*
D43*
X111180Y49880D02*
D03*
X102180D02*
D03*
X111180Y61880D02*
D03*
X102180D02*
D03*
D44*
X64000Y22000D02*
D03*
Y42000D02*
D03*
D45*
X150000Y165100D02*
D03*
X175400Y139700D02*
D03*
X124600Y165100D02*
D03*
Y139700D02*
D03*
X99200Y165100D02*
D03*
Y139700D02*
D03*
X150000D02*
D03*
X200800D02*
D03*
Y165100D02*
D03*
X175400Y165100D02*
D03*
D46*
X235000Y46990D02*
D03*
X166000D02*
D03*
D47*
X197500Y94990D02*
D03*
D48*
X270510Y344170D02*
D03*
Y293370D02*
D03*
Y318770D02*
D03*
X29000Y224790D02*
D03*
Y275590D02*
D03*
Y250190D02*
D03*
Y300990D02*
D03*
D49*
X275000Y130000D02*
D03*
X25000Y90000D02*
D03*
X20000Y380000D02*
D03*
X280000D02*
D03*
M02*
