G04*
G04 #@! TF.GenerationSoftware,Altium Limited,Altium Designer,22.4.2 (48)*
G04*
G04 Layer_Physical_Order=4*
G04 Layer_Color=16711680*
%FSLAX44Y44*%
%MOMM*%
G71*
G04*
G04 #@! TF.SameCoordinates,838EBF20-BE27-4DE5-A25A-4BBD7161CD63*
G04*
G04*
G04 #@! TF.FilePolarity,Positive*
G04*
G01*
G75*
%ADD10C,0.2540*%
%ADD16R,4.0000X4.0000*%
%ADD17R,1.0000X0.9500*%
%ADD18R,1.4500X1.7500*%
%ADD20R,0.7500X1.0000*%
%ADD40C,0.5080*%
%ADD41C,0.4572*%
%ADD42C,1.0000*%
%ADD43C,0.5080*%
%ADD44O,1.6000X1.2000*%
%ADD45O,1.2700X1.7780*%
G04:AMPARAMS|DCode=46|XSize=4.7mm|YSize=2mm|CornerRadius=0.5mm|HoleSize=0mm|Usage=FLASHONLY|Rotation=90.000|XOffset=0mm|YOffset=0mm|HoleType=Round|Shape=RoundedRectangle|*
%AMROUNDEDRECTD46*
21,1,4.7000,1.0000,0,0,90.0*
21,1,3.7000,2.0000,0,0,90.0*
1,1,1.0000,0.5000,1.8500*
1,1,1.0000,0.5000,-1.8500*
1,1,1.0000,-0.5000,-1.8500*
1,1,1.0000,-0.5000,1.8500*
%
%ADD46ROUNDEDRECTD46*%
G04:AMPARAMS|DCode=47|XSize=4.7mm|YSize=2mm|CornerRadius=0.5mm|HoleSize=0mm|Usage=FLASHONLY|Rotation=0.000|XOffset=0mm|YOffset=0mm|HoleType=Round|Shape=RoundedRectangle|*
%AMROUNDEDRECTD47*
21,1,4.7000,1.0000,0,0,0.0*
21,1,3.7000,2.0000,0,0,0.0*
1,1,1.0000,1.8500,-0.5000*
1,1,1.0000,-1.8500,-0.5000*
1,1,1.0000,-1.8500,0.5000*
1,1,1.0000,1.8500,0.5000*
%
%ADD47ROUNDEDRECTD47*%
%ADD48O,2.0000X1.5000*%
%ADD49O,1.5000X0.9000*%
%ADD50C,1.0160*%
%ADD51C,0.7620*%
%ADD72R,0.9500X1.0000*%
%ADD73R,1.1500X0.6000*%
%ADD74R,1.1500X1.4500*%
%ADD75R,1.4500X1.1500*%
G36*
X103301Y383650D02*
X103248Y384133D01*
X103094Y384564D01*
X102837Y384945D01*
X102479Y385276D01*
X102019Y385555D01*
X101457Y385784D01*
X100793Y385961D01*
X100480Y386013D01*
X100169Y385961D01*
X99508Y385784D01*
X98949Y385555D01*
X98492Y385276D01*
X98137Y384945D01*
X97883Y384564D01*
X97730Y384133D01*
X97680Y383650D01*
Y391520D01*
X97730Y391472D01*
X97883Y391430D01*
X98137Y391392D01*
X98492Y391360D01*
X99640Y391322D01*
X101442Y391470D01*
X102001Y391582D01*
X102458Y391720D01*
X102813Y391882D01*
X103067Y392070D01*
X103220Y392282D01*
X103271Y392519D01*
X103301Y383650D01*
D02*
G37*
G36*
X80237Y389443D02*
X80327Y389421D01*
X80460Y389402D01*
X80854Y389372D01*
X82161Y389341D01*
X82596Y389340D01*
Y384260D01*
X80191Y384133D01*
Y389467D01*
X80237Y389443D01*
D02*
G37*
G36*
X87740Y382080D02*
X87690Y382495D01*
X87537Y382865D01*
X87283Y383192D01*
X86928Y383475D01*
X86470Y383715D01*
X85912Y383911D01*
X85251Y384064D01*
X84489Y384173D01*
X83626Y384238D01*
X82661Y384260D01*
Y389340D01*
X83626Y389362D01*
X84489Y389427D01*
X85251Y389536D01*
X85912Y389689D01*
X86470Y389885D01*
X86928Y390125D01*
X87283Y390408D01*
X87537Y390735D01*
X87690Y391105D01*
X87740Y391520D01*
Y382080D01*
D02*
G37*
G36*
X97726Y374355D02*
X97866Y373992D01*
X98100Y373672D01*
X98427Y373394D01*
X98848Y373159D01*
X99362Y372967D01*
X99970Y372818D01*
X100671Y372711D01*
X101466Y372647D01*
X102354Y372626D01*
Y367546D01*
X101466Y367531D01*
X99970Y367414D01*
X99362Y367311D01*
X98848Y367179D01*
X98427Y367018D01*
X98100Y366828D01*
X97866Y366608D01*
X97726Y366359D01*
X97680Y366080D01*
Y374761D01*
X97726Y374355D01*
D02*
G37*
G36*
X87740Y366080D02*
X87690Y366534D01*
X87537Y366939D01*
X87283Y367297D01*
X86928Y367607D01*
X86470Y367870D01*
X85912Y368084D01*
X85251Y368251D01*
X84489Y368371D01*
X83626Y368442D01*
X82661Y368466D01*
Y373546D01*
X83626Y373566D01*
X85251Y373724D01*
X85912Y373862D01*
X86470Y374039D01*
X86928Y374257D01*
X87283Y374513D01*
X87537Y374809D01*
X87690Y375145D01*
X87740Y375519D01*
Y366080D01*
D02*
G37*
G36*
X114967Y361060D02*
X114536Y360906D01*
X114155Y360651D01*
X113824Y360293D01*
X113545Y359833D01*
X113316Y359271D01*
X113139Y358607D01*
X113012Y357840D01*
X112984Y357528D01*
X113099Y356048D01*
X113205Y355490D01*
X113335Y355032D01*
X113488Y354677D01*
X113665Y354423D01*
X113865Y354270D01*
X114089Y354220D01*
X106650D01*
X106875Y354270D01*
X107075Y354423D01*
X107252Y354677D01*
X107405Y355032D01*
X107535Y355490D01*
X107641Y356048D01*
X107724Y356709D01*
X107765Y357421D01*
X107728Y357840D01*
X107601Y358607D01*
X107424Y359271D01*
X107195Y359833D01*
X106916Y360293D01*
X106585Y360651D01*
X106204Y360906D01*
X105773Y361060D01*
X105290Y361111D01*
X115450D01*
X114967Y361060D01*
D02*
G37*
G36*
X85105Y356715D02*
X85151Y356576D01*
X85230Y356417D01*
X85340Y356237D01*
X85482Y356036D01*
X85861Y355570D01*
X86367Y355021D01*
X86668Y354715D01*
X83435Y351482D01*
X83129Y351783D01*
X82114Y352668D01*
X81913Y352810D01*
X81733Y352920D01*
X81573Y352999D01*
X81435Y353045D01*
X81318Y353060D01*
X85090Y356832D01*
X85105Y356715D01*
D02*
G37*
G36*
X91681Y346499D02*
X91638Y346857D01*
X91511Y347177D01*
X91300Y347459D01*
X91006Y347704D01*
X90628Y347911D01*
X90166Y348080D01*
X89621Y348212D01*
X88992Y348306D01*
X88279Y348363D01*
X87483Y348381D01*
Y352953D01*
X88275Y352966D01*
X89608Y353067D01*
X90150Y353156D01*
X90609Y353270D01*
X90984Y353409D01*
X91275Y353574D01*
X91484Y353764D01*
X91609Y353979D01*
X91650Y354220D01*
X91681Y346499D01*
D02*
G37*
G36*
X98817Y344235D02*
X98573Y344098D01*
X98358Y343869D01*
X98172Y343549D01*
X98014Y343138D01*
X97885Y342635D01*
X97785Y342040D01*
X97713Y341354D01*
X97659Y339787D01*
X97679Y339017D01*
X97747Y338235D01*
X97862Y337544D01*
X98022Y336946D01*
X98228Y336440D01*
X98479Y336025D01*
X98776Y335703D01*
X99119Y335473D01*
X99508Y335335D01*
X99942Y335289D01*
X90798D01*
X91232Y335335D01*
X91621Y335473D01*
X91964Y335703D01*
X92261Y336025D01*
X92513Y336440D01*
X92718Y336946D01*
X92878Y337544D01*
X92992Y338235D01*
X93061Y339017D01*
X93082Y339821D01*
X93070Y340577D01*
X92955Y342040D01*
X92855Y342635D01*
X92726Y343138D01*
X92568Y343549D01*
X92382Y343869D01*
X92167Y344098D01*
X91923Y344235D01*
X91650Y344281D01*
X99089D01*
X98817Y344235D01*
D02*
G37*
G36*
X130386Y307675D02*
X130259Y307910D01*
X130086Y308121D01*
X129868Y308307D01*
X129603Y308468D01*
X129292Y308605D01*
X128935Y308717D01*
X128532Y308803D01*
X128083Y308865D01*
X127588Y308903D01*
X127500Y308905D01*
X127412Y308903D01*
X126468Y308803D01*
X126065Y308717D01*
X125708Y308605D01*
X125397Y308468D01*
X125132Y308307D01*
X124914Y308121D01*
X124741Y307910D01*
X124614Y307675D01*
X122017Y314175D01*
X122125Y314141D01*
X122283Y314110D01*
X122492Y314083D01*
X123063Y314040D01*
X125384Y313995D01*
X127500Y309811D01*
X129616Y313995D01*
X132983Y314175D01*
X130386Y307675D01*
D02*
G37*
G36*
X115061Y312391D02*
X115380Y312486D01*
X115698Y312610D01*
X115979Y312754D01*
X116223Y312918D01*
X116429Y313100D01*
Y306100D01*
X116223Y306282D01*
X115979Y306446D01*
X115698Y306590D01*
X115380Y306714D01*
X115061Y306809D01*
Y304520D01*
X115010Y305003D01*
X114857Y305434D01*
X114601Y305815D01*
X114243Y306146D01*
X113783Y306425D01*
X113221Y306654D01*
X112557Y306831D01*
X111790Y306958D01*
X110921Y307035D01*
X109951Y307060D01*
Y312140D01*
X110921Y312165D01*
X111790Y312242D01*
X112557Y312369D01*
X113221Y312546D01*
X113783Y312775D01*
X114243Y313054D01*
X114601Y313385D01*
X114857Y313766D01*
X115010Y314197D01*
X115061Y314680D01*
Y312391D01*
D02*
G37*
G36*
X102610Y314197D02*
X102763Y313766D01*
X103019Y313385D01*
X103377Y313054D01*
X103837Y312775D01*
X104399Y312546D01*
X105063Y312369D01*
X105830Y312242D01*
X106699Y312165D01*
X107669Y312140D01*
Y307060D01*
X106699Y307035D01*
X105830Y306958D01*
X105063Y306831D01*
X104399Y306654D01*
X103837Y306425D01*
X103377Y306146D01*
X103019Y305815D01*
X102763Y305434D01*
X102610Y305003D01*
X102559Y304520D01*
Y314680D01*
X102610Y314197D01*
D02*
G37*
G36*
X38535Y303281D02*
X38623Y303067D01*
X38768Y302878D01*
X38972Y302714D01*
X39235Y302575D01*
X39555Y302462D01*
X39934Y302374D01*
X40371Y302310D01*
X40867Y302273D01*
X41421Y302260D01*
Y299720D01*
X40867Y299707D01*
X40371Y299670D01*
X39934Y299606D01*
X39555Y299518D01*
X39235Y299405D01*
X38972Y299266D01*
X38768Y299102D01*
X38623Y298913D01*
X38535Y298699D01*
X38506Y298459D01*
Y303521D01*
X38535Y303281D01*
D02*
G37*
G36*
X67215Y303289D02*
X67292Y303073D01*
X67420Y302882D01*
X67600Y302717D01*
X67832Y302577D01*
X68114Y302463D01*
X68449Y302374D01*
X68834Y302311D01*
X69271Y302273D01*
X69759Y302260D01*
Y299720D01*
X69271Y299707D01*
X68834Y299669D01*
X68449Y299606D01*
X68114Y299517D01*
X67832Y299403D01*
X67600Y299263D01*
X67420Y299098D01*
X67292Y298907D01*
X67215Y298691D01*
X67189Y298450D01*
Y303530D01*
X67215Y303289D01*
D02*
G37*
G36*
X44811Y298450D02*
X44785Y298691D01*
X44708Y298907D01*
X44580Y299098D01*
X44400Y299263D01*
X44168Y299403D01*
X43886Y299517D01*
X43551Y299606D01*
X43166Y299669D01*
X42729Y299707D01*
X42241Y299720D01*
Y302260D01*
X42729Y302273D01*
X43166Y302311D01*
X43551Y302374D01*
X43886Y302463D01*
X44168Y302577D01*
X44400Y302717D01*
X44580Y302882D01*
X44708Y303073D01*
X44785Y303289D01*
X44811Y303530D01*
Y298450D01*
D02*
G37*
G36*
X191779Y287333D02*
X191501Y287598D01*
X191215Y287836D01*
X190920Y288046D01*
X190617Y288227D01*
X190305Y288381D01*
X189985Y288507D01*
X189657Y288604D01*
X189320Y288674D01*
X188975Y288716D01*
X188622Y288730D01*
Y291270D01*
X188975Y291284D01*
X189320Y291326D01*
X189657Y291396D01*
X189985Y291493D01*
X190305Y291619D01*
X190617Y291773D01*
X190920Y291954D01*
X191215Y292164D01*
X191501Y292402D01*
X191779Y292667D01*
Y287333D01*
D02*
G37*
G36*
X184328Y277150D02*
X184053Y276887D01*
X183807Y276615D01*
X183589Y276332D01*
X183401Y276039D01*
X183242Y275735D01*
X183112Y275421D01*
X183010Y275096D01*
X182938Y274762D01*
X182894Y274416D01*
X182880Y274060D01*
X180340Y274195D01*
X180327Y274546D01*
X180286Y274890D01*
X180219Y275228D01*
X180126Y275560D01*
X180005Y275885D01*
X179858Y276204D01*
X179684Y276516D01*
X179483Y276822D01*
X179255Y277122D01*
X179001Y277416D01*
X184328Y277150D01*
D02*
G37*
G36*
X38535Y277882D02*
X38623Y277667D01*
X38768Y277478D01*
X38972Y277314D01*
X39235Y277175D01*
X39555Y277062D01*
X39934Y276973D01*
X40371Y276910D01*
X40867Y276873D01*
X41421Y276860D01*
Y274320D01*
X40867Y274307D01*
X40371Y274270D01*
X39934Y274207D01*
X39555Y274118D01*
X39235Y274005D01*
X38972Y273866D01*
X38768Y273702D01*
X38623Y273513D01*
X38535Y273298D01*
X38506Y273059D01*
Y278121D01*
X38535Y277882D01*
D02*
G37*
G36*
X44811Y273050D02*
X44785Y273291D01*
X44708Y273507D01*
X44580Y273698D01*
X44400Y273863D01*
X44168Y274002D01*
X43886Y274117D01*
X43551Y274206D01*
X43166Y274269D01*
X42729Y274307D01*
X42241Y274320D01*
Y276860D01*
X42729Y276873D01*
X43166Y276911D01*
X43551Y276974D01*
X43886Y277063D01*
X44168Y277178D01*
X44400Y277317D01*
X44580Y277482D01*
X44708Y277673D01*
X44785Y277889D01*
X44811Y278130D01*
Y273050D01*
D02*
G37*
G36*
X67070Y273880D02*
X66993Y273651D01*
X66989Y273385D01*
X67059Y273082D01*
X67202Y272741D01*
X67418Y272363D01*
X67708Y271948D01*
X68070Y271496D01*
X69016Y270479D01*
X67078Y268824D01*
X66563Y269321D01*
X65638Y270103D01*
X65227Y270388D01*
X64850Y270603D01*
X64508Y270747D01*
X64201Y270821D01*
X63928Y270825D01*
X63689Y270758D01*
X63485Y270620D01*
X67220Y274071D01*
X67070Y273880D01*
D02*
G37*
G36*
X171628Y267150D02*
X171353Y266887D01*
X171107Y266615D01*
X170889Y266332D01*
X170701Y266039D01*
X170542Y265735D01*
X170412Y265421D01*
X170310Y265096D01*
X170238Y264761D01*
X170194Y264416D01*
X170180Y264060D01*
X167640Y264195D01*
X167627Y264546D01*
X167586Y264890D01*
X167519Y265228D01*
X167426Y265560D01*
X167305Y265885D01*
X167158Y266204D01*
X166984Y266516D01*
X166783Y266822D01*
X166555Y267122D01*
X166301Y267416D01*
X171628Y267150D01*
D02*
G37*
G36*
X158928Y257150D02*
X158653Y256887D01*
X158407Y256615D01*
X158189Y256332D01*
X158001Y256039D01*
X157842Y255735D01*
X157712Y255421D01*
X157610Y255096D01*
X157538Y254761D01*
X157494Y254416D01*
X157480Y254060D01*
X154940Y254195D01*
X154927Y254546D01*
X154886Y254890D01*
X154819Y255228D01*
X154726Y255560D01*
X154605Y255885D01*
X154458Y256204D01*
X154284Y256516D01*
X154083Y256822D01*
X153855Y257122D01*
X153601Y257416D01*
X158928Y257150D01*
D02*
G37*
G36*
X38535Y252481D02*
X38623Y252267D01*
X38768Y252078D01*
X38972Y251914D01*
X39235Y251775D01*
X39555Y251662D01*
X39934Y251574D01*
X40371Y251510D01*
X40867Y251473D01*
X41421Y251460D01*
Y248920D01*
X40867Y248907D01*
X40371Y248870D01*
X39934Y248806D01*
X39555Y248718D01*
X39235Y248605D01*
X38972Y248466D01*
X38768Y248302D01*
X38623Y248113D01*
X38535Y247899D01*
X38506Y247659D01*
Y252721D01*
X38535Y252481D01*
D02*
G37*
G36*
X44811Y247650D02*
X44785Y247891D01*
X44708Y248107D01*
X44580Y248298D01*
X44400Y248463D01*
X44168Y248603D01*
X43886Y248717D01*
X43551Y248806D01*
X43166Y248869D01*
X42729Y248907D01*
X42241Y248920D01*
Y251460D01*
X42729Y251473D01*
X43166Y251511D01*
X43551Y251574D01*
X43886Y251663D01*
X44168Y251777D01*
X44400Y251917D01*
X44580Y252082D01*
X44708Y252273D01*
X44785Y252489D01*
X44811Y252730D01*
Y247650D01*
D02*
G37*
G36*
X146228Y247150D02*
X145953Y246887D01*
X145707Y246615D01*
X145490Y246332D01*
X145301Y246039D01*
X145142Y245735D01*
X145012Y245421D01*
X144910Y245096D01*
X144838Y244762D01*
X144795Y244416D01*
X144780Y244060D01*
X142240Y244195D01*
X142227Y244546D01*
X142186Y244890D01*
X142120Y245228D01*
X142026Y245560D01*
X141905Y245885D01*
X141758Y246204D01*
X141584Y246516D01*
X141383Y246822D01*
X141155Y247122D01*
X140901Y247416D01*
X146228Y247150D01*
D02*
G37*
G36*
X67076Y248615D02*
X67004Y248382D01*
Y248112D01*
X67076Y247807D01*
X67220Y247465D01*
X67435Y247088D01*
X67722Y246675D01*
X68082Y246226D01*
X69016Y245221D01*
X67220Y243424D01*
X66699Y243927D01*
X65765Y244718D01*
X65352Y245005D01*
X64974Y245221D01*
X64633Y245364D01*
X64328Y245436D01*
X64058D01*
X63825Y245364D01*
X63627Y245221D01*
X67220Y248813D01*
X67076Y248615D01*
D02*
G37*
G36*
X93994Y239925D02*
X94036Y239580D01*
X94106Y239243D01*
X94204Y238915D01*
X94329Y238595D01*
X94483Y238283D01*
X94664Y237980D01*
X94874Y237685D01*
X95112Y237399D01*
X95377Y237121D01*
X90043D01*
X90308Y237399D01*
X90546Y237685D01*
X90756Y237980D01*
X90937Y238283D01*
X91091Y238595D01*
X91216Y238915D01*
X91314Y239243D01*
X91384Y239580D01*
X91426Y239925D01*
X91440Y240278D01*
X93980D01*
X93994Y239925D01*
D02*
G37*
G36*
X133528Y237150D02*
X133253Y236887D01*
X133007Y236615D01*
X132789Y236332D01*
X132601Y236039D01*
X132442Y235735D01*
X132312Y235421D01*
X132210Y235096D01*
X132138Y234762D01*
X132094Y234416D01*
X132080Y234060D01*
X129540Y234195D01*
X129527Y234546D01*
X129486Y234890D01*
X129419Y235228D01*
X129326Y235560D01*
X129205Y235885D01*
X129058Y236204D01*
X128884Y236516D01*
X128683Y236822D01*
X128455Y237122D01*
X128201Y237416D01*
X133528Y237150D01*
D02*
G37*
G36*
X120828Y227150D02*
X120553Y226887D01*
X120307Y226615D01*
X120090Y226332D01*
X119901Y226039D01*
X119742Y225735D01*
X119612Y225421D01*
X119510Y225096D01*
X119438Y224762D01*
X119395Y224416D01*
X119380Y224060D01*
X116840Y224195D01*
X116827Y224546D01*
X116786Y224890D01*
X116720Y225228D01*
X116626Y225560D01*
X116505Y225885D01*
X116358Y226204D01*
X116184Y226516D01*
X115983Y226822D01*
X115755Y227122D01*
X115501Y227416D01*
X120828Y227150D01*
D02*
G37*
G36*
X38535Y227082D02*
X38623Y226867D01*
X38768Y226678D01*
X38972Y226514D01*
X39235Y226375D01*
X39555Y226262D01*
X39934Y226173D01*
X40371Y226110D01*
X40867Y226073D01*
X41421Y226060D01*
Y223520D01*
X40867Y223507D01*
X40371Y223470D01*
X39934Y223407D01*
X39555Y223318D01*
X39235Y223205D01*
X38972Y223066D01*
X38768Y222902D01*
X38623Y222713D01*
X38535Y222498D01*
X38506Y222259D01*
Y227321D01*
X38535Y227082D01*
D02*
G37*
G36*
X44811Y222250D02*
X44785Y222491D01*
X44708Y222707D01*
X44580Y222898D01*
X44400Y223063D01*
X44168Y223202D01*
X43886Y223317D01*
X43551Y223406D01*
X43166Y223469D01*
X42729Y223507D01*
X42241Y223520D01*
Y226060D01*
X42729Y226073D01*
X43166Y226111D01*
X43551Y226174D01*
X43886Y226263D01*
X44168Y226378D01*
X44400Y226517D01*
X44580Y226682D01*
X44708Y226873D01*
X44785Y227089D01*
X44811Y227330D01*
Y222250D01*
D02*
G37*
G36*
X102689Y220853D02*
X102411Y221118D01*
X102125Y221356D01*
X101830Y221565D01*
X101527Y221747D01*
X101215Y221901D01*
X100895Y222027D01*
X100567Y222124D01*
X100230Y222194D01*
X99885Y222236D01*
X99532Y222250D01*
Y224790D01*
X99885Y224804D01*
X100230Y224846D01*
X100567Y224916D01*
X100895Y225014D01*
X101215Y225139D01*
X101527Y225293D01*
X101830Y225474D01*
X102125Y225684D01*
X102411Y225922D01*
X102689Y226187D01*
Y220853D01*
D02*
G37*
G36*
X65799Y219795D02*
X65583Y219719D01*
X65392Y219592D01*
X65227Y219414D01*
X65087Y219186D01*
X64973Y218906D01*
X64884Y218576D01*
X64821Y218195D01*
X64783Y217763D01*
X64770Y217281D01*
X62230D01*
X62217Y217763D01*
X62179Y218195D01*
X62116Y218576D01*
X62027Y218906D01*
X61912Y219186D01*
X61773Y219414D01*
X61608Y219592D01*
X61417Y219719D01*
X61201Y219795D01*
X60960Y219820D01*
X66040D01*
X65799Y219795D01*
D02*
G37*
G36*
X64784Y215075D02*
X64826Y214730D01*
X64896Y214393D01*
X64994Y214065D01*
X65119Y213745D01*
X65273Y213433D01*
X65455Y213130D01*
X65664Y212835D01*
X65902Y212549D01*
X66167Y212271D01*
X60833D01*
X61098Y212549D01*
X61336Y212835D01*
X61546Y213130D01*
X61727Y213433D01*
X61881Y213745D01*
X62007Y214065D01*
X62104Y214393D01*
X62174Y214730D01*
X62216Y215075D01*
X62230Y215428D01*
X64770D01*
X64784Y215075D01*
D02*
G37*
G36*
X125883Y175833D02*
X125983Y174880D01*
X126071Y174493D01*
X126184Y174165D01*
X126322Y173897D01*
X126485Y173689D01*
X126674Y173540D01*
X126887Y173451D01*
X127126Y173421D01*
X122074D01*
X122313Y173451D01*
X122526Y173540D01*
X122715Y173689D01*
X122878Y173897D01*
X123016Y174165D01*
X123129Y174493D01*
X123217Y174880D01*
X123280Y175327D01*
X123317Y175833D01*
X123330Y176399D01*
X125870D01*
X125883Y175833D01*
D02*
G37*
G36*
X176682Y175833D02*
X176783Y174880D01*
X176871Y174493D01*
X176984Y174165D01*
X177122Y173897D01*
X177285Y173689D01*
X177474Y173540D01*
X177687Y173451D01*
X177926Y173421D01*
X172874D01*
X173113Y173451D01*
X173326Y173540D01*
X173515Y173689D01*
X173678Y173897D01*
X173816Y174165D01*
X173929Y174493D01*
X174017Y174880D01*
X174080Y175327D01*
X174117Y175833D01*
X174130Y176399D01*
X176670D01*
X176682Y175833D01*
D02*
G37*
G36*
X151283D02*
X151383Y174880D01*
X151471Y174493D01*
X151584Y174165D01*
X151722Y173897D01*
X151885Y173689D01*
X152074Y173540D01*
X152287Y173451D01*
X152526Y173421D01*
X147474D01*
X147713Y173451D01*
X147926Y173540D01*
X148115Y173689D01*
X148278Y173897D01*
X148416Y174165D01*
X148529Y174493D01*
X148617Y174880D01*
X148680Y175327D01*
X148717Y175833D01*
X148730Y176399D01*
X151270D01*
X151283Y175833D01*
D02*
G37*
G36*
X202013Y175847D02*
X202113Y174898D01*
X202201Y174513D01*
X202314Y174188D01*
X202452Y173922D01*
X202615Y173717D01*
X202804Y173571D01*
X203017Y173485D01*
X203256Y173458D01*
X198204Y173384D01*
X198443Y173417D01*
X198656Y173509D01*
X198845Y173661D01*
X199008Y173872D01*
X199146Y174141D01*
X199259Y174470D01*
X199347Y174858D01*
X199410Y175306D01*
X199447Y175812D01*
X199460Y176377D01*
X202000Y176412D01*
X202013Y175847D01*
D02*
G37*
G36*
X77970Y177317D02*
X78123Y176886D01*
X78379Y176505D01*
X78737Y176174D01*
X79197Y175895D01*
X79759Y175666D01*
X80423Y175489D01*
X81190Y175362D01*
X82058Y175285D01*
X83029Y175260D01*
Y170180D01*
X82058Y170155D01*
X81190Y170078D01*
X80423Y169951D01*
X79759Y169774D01*
X79197Y169545D01*
X78737Y169266D01*
X78379Y168935D01*
X78123Y168554D01*
X77970Y168123D01*
X77919Y167640D01*
Y177800D01*
X77970Y177317D01*
D02*
G37*
G36*
X93767Y174130D02*
X95162Y172923D01*
X95328Y172826D01*
X95457Y172777D01*
X95549Y172776D01*
X95603Y172824D01*
X92880Y167319D01*
X92880Y167416D01*
X92810Y167572D01*
X92672Y167786D01*
X92466Y168059D01*
X91847Y168780D01*
X89784Y170924D01*
X93376Y174516D01*
X93767Y174130D01*
D02*
G37*
G36*
X74327Y165450D02*
X73896Y165297D01*
X73515Y165043D01*
X73184Y164688D01*
X72905Y164230D01*
X72676Y163672D01*
X72499Y163011D01*
X72372Y162249D01*
X72367Y162200D01*
X72459Y161018D01*
X72565Y160459D01*
X72695Y160002D01*
X72848Y159647D01*
X73025Y159393D01*
X73225Y159240D01*
X73450Y159190D01*
X66010D01*
X66235Y159240D01*
X66435Y159393D01*
X66612Y159647D01*
X66765Y160002D01*
X66895Y160459D01*
X67001Y161018D01*
X67084Y161679D01*
X67119Y162280D01*
X66945Y164688D01*
X66857Y165043D01*
X66755Y165297D01*
X66640Y165450D01*
X66511Y165501D01*
X74810D01*
X74327Y165450D01*
D02*
G37*
G36*
X57820D02*
X57705Y165297D01*
X57603Y165043D01*
X57515Y164688D01*
X57440Y164230D01*
X57379Y163672D01*
X57333Y162644D01*
X57459Y161018D01*
X57565Y160459D01*
X57695Y160002D01*
X57848Y159647D01*
X58025Y159393D01*
X58225Y159240D01*
X58450Y159190D01*
X51010D01*
X51235Y159240D01*
X51435Y159393D01*
X51612Y159647D01*
X51765Y160002D01*
X51895Y160459D01*
X52001Y161018D01*
X52084Y161679D01*
X52106Y162054D01*
X52088Y162249D01*
X51961Y163011D01*
X51784Y163672D01*
X51555Y164230D01*
X51276Y164688D01*
X50945Y165043D01*
X50564Y165297D01*
X50133Y165450D01*
X49650Y165501D01*
X57950D01*
X57820Y165450D01*
D02*
G37*
G36*
X170514Y148940D02*
X171258Y148337D01*
X171594Y148126D01*
X171906Y147974D01*
X172193Y147882D01*
X172456Y147850D01*
X172694Y147878D01*
X172908Y147966D01*
X173098Y148114D01*
X169526Y144542D01*
X169674Y144732D01*
X169762Y144946D01*
X169790Y145184D01*
X169758Y145447D01*
X169666Y145734D01*
X169514Y146046D01*
X169303Y146382D01*
X169031Y146742D01*
X168700Y147126D01*
X168309Y147535D01*
X170105Y149331D01*
X170514Y148940D01*
D02*
G37*
G36*
X145114D02*
X145858Y148337D01*
X146194Y148126D01*
X146506Y147974D01*
X146793Y147882D01*
X147056Y147850D01*
X147294Y147878D01*
X147508Y147966D01*
X147698Y148114D01*
X144126Y144542D01*
X144274Y144732D01*
X144362Y144946D01*
X144390Y145184D01*
X144358Y145447D01*
X144266Y145734D01*
X144114Y146046D01*
X143903Y146382D01*
X143631Y146742D01*
X143300Y147126D01*
X142909Y147535D01*
X144705Y149331D01*
X145114Y148940D01*
D02*
G37*
G36*
X58225Y149200D02*
X58025Y149047D01*
X57848Y148793D01*
X57695Y148438D01*
X57565Y147980D01*
X57459Y147422D01*
X57376Y146761D01*
X57361Y146495D01*
X57459Y145228D01*
X57565Y144670D01*
X57695Y144212D01*
X57848Y143857D01*
X58025Y143603D01*
X58225Y143450D01*
X58450Y143399D01*
X51010D01*
X51235Y143450D01*
X51435Y143603D01*
X51612Y143857D01*
X51765Y144212D01*
X51895Y144670D01*
X52001Y145228D01*
X52084Y145889D01*
X52099Y146155D01*
X52001Y147422D01*
X51895Y147980D01*
X51765Y148438D01*
X51612Y148793D01*
X51435Y149047D01*
X51235Y149200D01*
X51010Y149250D01*
X58450D01*
X58225Y149200D01*
D02*
G37*
G36*
X51010Y133461D02*
X50960Y133922D01*
X50807Y134335D01*
X50553Y134699D01*
X50198Y135015D01*
X49741Y135283D01*
X49182Y135501D01*
X48521Y135671D01*
X47759Y135793D01*
X46896Y135866D01*
X46307Y135880D01*
X46271Y135880D01*
X45288Y135799D01*
X44851Y135727D01*
X44451Y135636D01*
X44087Y135524D01*
X43760Y135392D01*
X43469Y135240D01*
X43215Y135067D01*
X42998Y134874D01*
Y141986D01*
X43215Y141793D01*
X43469Y141620D01*
X43760Y141468D01*
X44087Y141336D01*
X44451Y141224D01*
X44851Y141133D01*
X45288Y141061D01*
X45761Y141011D01*
X46467Y140983D01*
X46896Y140994D01*
X47759Y141067D01*
X48521Y141189D01*
X49182Y141359D01*
X49741Y141577D01*
X50198Y141845D01*
X50553Y142160D01*
X50807Y142525D01*
X50960Y142938D01*
X51010Y143399D01*
Y133461D01*
D02*
G37*
G36*
X93758Y133999D02*
X93674Y134479D01*
X93477Y134909D01*
X93167Y135287D01*
X92744Y135616D01*
X92208Y135894D01*
X91559Y136121D01*
X90796Y136298D01*
X89922Y136424D01*
X88933Y136500D01*
X87832Y136525D01*
X87770Y141605D01*
X88827Y141630D01*
X89770Y141706D01*
X90599Y141833D01*
X91314Y142010D01*
X91914Y142238D01*
X92400Y142516D01*
X92772Y142845D01*
X93030Y143225D01*
X93174Y143655D01*
X93203Y144136D01*
X93758Y133999D01*
D02*
G37*
G36*
X73500Y143059D02*
X73653Y142753D01*
X73907Y142484D01*
X74262Y142251D01*
X74720Y142054D01*
X75278Y141892D01*
X75939Y141767D01*
X76701Y141677D01*
X77564Y141623D01*
X78530Y141605D01*
Y136525D01*
X77560Y136500D01*
X76692Y136423D01*
X75927Y136296D01*
X75263Y136119D01*
X74701Y135890D01*
X74241Y135611D01*
X73882Y135280D01*
X73626Y134899D01*
X73472Y134468D01*
X73419Y133985D01*
X73450Y143399D01*
X73500Y143059D01*
D02*
G37*
G36*
X101380Y131249D02*
X101171Y131270D01*
X100984Y131199D01*
X100820Y131037D01*
X100677Y130784D01*
X100556Y130440D01*
X100458Y130005D01*
X100381Y129479D01*
X100326Y128861D01*
X100282Y127352D01*
X95202D01*
X95191Y128449D01*
X94931Y131753D01*
X94812Y132307D01*
X94671Y132753D01*
X94509Y133090D01*
X94325Y133318D01*
X94119Y133438D01*
X101380Y131249D01*
D02*
G37*
G36*
X85512Y111530D02*
X84829Y110823D01*
X83680Y109486D01*
X83213Y108855D01*
X82817Y108249D01*
X82494Y107667D01*
X82243Y107111D01*
X82063Y106579D01*
X81955Y106072D01*
X81919Y105590D01*
X74735Y111499D01*
X75159Y111246D01*
X75648Y111130D01*
X76203Y111150D01*
X76823Y111307D01*
X77509Y111601D01*
X78260Y112032D01*
X79076Y112599D01*
X79959Y113303D01*
X81919Y115122D01*
X85512Y111530D01*
D02*
G37*
G36*
X62170Y111650D02*
X62323Y111535D01*
X62577Y111433D01*
X62932Y111345D01*
X63390Y111270D01*
X63948Y111209D01*
X66234Y111107D01*
X66386Y111106D01*
X70277Y111375D01*
X70430Y111448D01*
X70480Y111530D01*
Y105590D01*
X70430Y105672D01*
X70277Y105745D01*
X70023Y105809D01*
X69668Y105865D01*
X69211Y105913D01*
X67229Y106003D01*
X66725Y106007D01*
X66230Y105995D01*
X65363Y105918D01*
X64597Y105791D01*
X63933Y105614D01*
X63371Y105385D01*
X62911Y105106D01*
X62553Y104775D01*
X62296Y104394D01*
X62142Y103963D01*
X62089Y103480D01*
X62119Y111779D01*
X62170Y111650D01*
D02*
G37*
G36*
X103657Y96040D02*
X103226Y95887D01*
X102845Y95633D01*
X102514Y95278D01*
X102235Y94820D01*
X102006Y94262D01*
X101829Y93601D01*
X101755Y93159D01*
X101763Y93111D01*
X101854Y92711D01*
X101966Y92347D01*
X102098Y92020D01*
X102250Y91729D01*
X102423Y91475D01*
X102616Y91258D01*
X101607D01*
X101600Y91011D01*
X96520D01*
X96514Y91258D01*
X95504D01*
X95697Y91475D01*
X95870Y91729D01*
X96022Y92020D01*
X96154Y92347D01*
X96266Y92711D01*
X96357Y93111D01*
X96365Y93159D01*
X96291Y93601D01*
X96114Y94262D01*
X95885Y94820D01*
X95606Y95278D01*
X95275Y95633D01*
X94894Y95887D01*
X94463Y96040D01*
X93980Y96090D01*
X104140D01*
X103657Y96040D01*
D02*
G37*
G36*
X62142Y94157D02*
X62296Y93726D01*
X62553Y93345D01*
X62911Y93014D01*
X63371Y92735D01*
X63933Y92506D01*
X64597Y92329D01*
X65363Y92202D01*
X66230Y92125D01*
X66550Y92117D01*
X70277Y92375D01*
X70430Y92448D01*
X70480Y92529D01*
Y86590D01*
X70430Y86672D01*
X70277Y86745D01*
X70023Y86810D01*
X69668Y86865D01*
X69211Y86913D01*
X67229Y87003D01*
X66222Y87012D01*
X62932Y86775D01*
X62577Y86687D01*
X62323Y86585D01*
X62170Y86470D01*
X62119Y86340D01*
X61658Y86290D01*
X61245Y86137D01*
X60880Y85883D01*
X60565Y85528D01*
X60297Y85070D01*
X60079Y84512D01*
X59909Y83851D01*
X59787Y83089D01*
X59787Y83084D01*
X59886Y82389D01*
X60039Y81728D01*
X60235Y81170D01*
X60475Y80712D01*
X60758Y80357D01*
X61085Y80103D01*
X61455Y79950D01*
X61870Y79900D01*
X52431D01*
X52845Y79950D01*
X53215Y80103D01*
X53542Y80357D01*
X53825Y80712D01*
X54065Y81170D01*
X54261Y81728D01*
X54414Y82389D01*
X54513Y83084D01*
X54513Y83089D01*
X54391Y83851D01*
X54221Y84512D01*
X54003Y85070D01*
X53735Y85528D01*
X53420Y85883D01*
X53055Y86137D01*
X52642Y86290D01*
X52181Y86340D01*
X62119D01*
X62089Y94640D01*
X62142Y94157D01*
D02*
G37*
G36*
X99009Y82550D02*
X98719Y82533D01*
X98417Y82476D01*
X98104Y82378D01*
X97779Y82240D01*
X97443Y82062D01*
X97095Y81843D01*
X96736Y81585D01*
X96366Y81286D01*
X95590Y80568D01*
X91998Y84160D01*
X92377Y84553D01*
X93015Y85306D01*
X93273Y85665D01*
X93492Y86013D01*
X93670Y86349D01*
X93808Y86674D01*
X93905Y86987D01*
X93963Y87289D01*
X93980Y87579D01*
X99009Y82550D01*
D02*
G37*
G36*
X60505Y69991D02*
X60072Y70235D01*
X59577Y70345D01*
X59017Y70320D01*
X58394Y70160D01*
X57708Y69865D01*
X56957Y69435D01*
X56143Y68871D01*
X55266Y68171D01*
X53320Y66368D01*
X48838Y69070D01*
X49887Y70155D01*
X51527Y72080D01*
X52118Y72920D01*
X52557Y73679D01*
X52842Y74357D01*
X52976Y74953D01*
X52957Y75468D01*
X52785Y75902D01*
X52461Y76255D01*
X60505Y69991D01*
D02*
G37*
G36*
X77920Y79438D02*
X78073Y79025D01*
X78327Y78660D01*
X78682Y78345D01*
X79139Y78077D01*
X79698Y77859D01*
X80359Y77689D01*
X81121Y77567D01*
X81984Y77494D01*
X82949Y77470D01*
Y72390D01*
X81984Y72366D01*
X81121Y72293D01*
X80359Y72171D01*
X79698Y72001D01*
X79139Y71783D01*
X78682Y71515D01*
X78327Y71199D01*
X78073Y70835D01*
X77920Y70422D01*
X77870Y69960D01*
Y79900D01*
X77920Y79438D01*
D02*
G37*
G36*
X57210Y30237D02*
X58956Y28777D01*
X59730Y28252D01*
X60440Y27863D01*
X61084Y27611D01*
X61662Y27495D01*
X62175Y27516D01*
X62623Y27674D01*
X63006Y27968D01*
X56117Y20830D01*
X56019Y21551D01*
X55867Y22261D01*
X55663Y22957D01*
X55405Y23642D01*
X55094Y24313D01*
X54731Y24972D01*
X54314Y25619D01*
X53843Y26253D01*
X53320Y26875D01*
X52744Y27484D01*
X56240Y31172D01*
X57210Y30237D01*
D02*
G37*
D10*
X63500Y275590D02*
X65980Y273110D01*
Y271718D02*
X92710Y244988D01*
Y234400D02*
Y244988D01*
X65980Y271718D02*
Y273110D01*
X88920Y223520D02*
X105410D01*
X63500Y248940D02*
X88920Y223520D01*
X63500Y248940D02*
Y250190D01*
Y209550D02*
Y224790D01*
X72390Y300990D02*
X92710Y280670D01*
X63500Y300990D02*
X72390D01*
X92710Y280670D02*
X161290D01*
X170620Y290000D02*
X194500D01*
X161290Y280670D02*
X170620Y290000D01*
X118110Y190500D02*
X124600Y184010D01*
X118110Y190500D02*
Y229317D01*
X130810Y191770D02*
X137160Y185420D01*
X130810Y191770D02*
Y239875D01*
X143510Y195580D02*
Y250448D01*
Y195580D02*
X150000Y189090D01*
X156210Y198120D02*
X162560Y191770D01*
X156210Y198120D02*
Y259528D01*
X168910Y200660D02*
X175400Y194170D01*
X168910Y200660D02*
Y269828D01*
X181610Y205740D02*
Y280014D01*
Y205740D02*
X200730Y186620D01*
Y165170D02*
Y186620D01*
Y165170D02*
X200800Y165100D01*
X175400Y165100D02*
Y194170D01*
X162560Y155080D02*
X175400Y142240D01*
X162560Y155080D02*
Y191770D01*
X175400Y139700D02*
Y142240D01*
X137160Y155080D02*
Y185420D01*
Y155080D02*
X150000Y142240D01*
X124600Y165100D02*
Y184010D01*
X150000Y165100D02*
Y189090D01*
X150000Y139700D02*
Y142240D01*
X29000Y250190D02*
X48500D01*
X29000Y224790D02*
X48500D01*
X29000Y275590D02*
X48500D01*
X29000Y300990D02*
X48500D01*
D16*
X135000Y309600D02*
D03*
D17*
X57150Y107060D02*
D03*
Y91060D02*
D03*
X92710Y370800D02*
D03*
Y386800D02*
D03*
D18*
X106680Y55880D02*
D03*
D20*
X54730Y138430D02*
D03*
X69730D02*
D03*
X48500Y250190D02*
D03*
X63500D02*
D03*
X69730Y154220D02*
D03*
X54730D02*
D03*
X95370Y349250D02*
D03*
X110370D02*
D03*
X48500Y300990D02*
D03*
X63500D02*
D03*
Y224790D02*
D03*
X48500D02*
D03*
X63500Y275590D02*
D03*
X48500D02*
D03*
D40*
X120000Y311455D02*
X134855D01*
X92440Y388730D02*
X107680D01*
X90510Y386800D02*
X92440Y388730D01*
X57595Y75375D02*
X58040Y74930D01*
Y74680D02*
Y74930D01*
X49530Y66170D02*
X58040Y74680D01*
X39370Y138430D02*
X54730D01*
X54730Y138430D01*
X74040Y74930D02*
X86360D01*
X99060Y87630D01*
Y98920D01*
X57150Y74930D02*
Y91060D01*
X58650Y89560D01*
X76200D01*
X58650Y108560D02*
X73450D01*
X57150Y107060D02*
X58650Y108560D01*
X78950D02*
X97742Y127352D01*
Y138242D01*
X99200Y139700D01*
X98565Y139065D02*
X99200Y139700D01*
X49530Y34290D02*
X61820Y22000D01*
X49530Y34290D02*
Y66170D01*
X61820Y22000D02*
X64000D01*
X99060Y98920D02*
X99200Y99060D01*
X64000Y42000D02*
X67400D01*
X60128D02*
X64000D01*
X67400D02*
X68237Y42837D01*
Y44283D01*
X90440Y388730D02*
X92440D01*
X92710Y389000D01*
X96520Y309600D02*
X120000D01*
X93424Y370086D02*
X102354D01*
X102430Y370010D02*
X107280D01*
X102354Y370086D02*
X102430Y370010D01*
X107280D02*
X110490Y366800D01*
X92504Y371006D02*
X93424Y370086D01*
X81251Y371006D02*
X92504D01*
X110370Y349250D02*
Y368340D01*
X77470Y374787D02*
X81251Y371006D01*
X77470Y374787D02*
Y375273D01*
Y386800D02*
X90510D01*
X54730Y154220D02*
Y169922D01*
Y138430D02*
Y154220D01*
X69730Y138430D02*
X70365Y139065D01*
X98565D01*
X95680Y169098D02*
X99200Y165578D01*
X95202Y169098D02*
X95680D01*
X99200Y165100D02*
Y165578D01*
X91580Y172720D02*
X95202Y169098D01*
X72230Y172720D02*
X91580D01*
X52230Y172422D02*
X54730Y169922D01*
X69730Y154220D02*
Y170220D01*
X72230Y172720D01*
X107680Y388730D02*
X107950Y388460D01*
D41*
X95370Y332460D02*
Y349250D01*
X134855Y311455D02*
X135000Y311600D01*
X81280Y356870D02*
X87483Y350667D01*
X93953D01*
X95370Y349250D01*
Y332460D02*
X96520Y331310D01*
D42*
X135000Y309600D02*
D03*
Y294600D02*
D03*
Y324670D02*
D03*
X150000Y309600D02*
D03*
X120000D02*
D03*
Y294600D02*
D03*
X150000D02*
D03*
Y324670D02*
D03*
X120000D02*
D03*
D43*
X111180Y49880D02*
D03*
X102180D02*
D03*
X111180Y61880D02*
D03*
X102180D02*
D03*
D44*
X64000Y22000D02*
D03*
Y42000D02*
D03*
D45*
X150000Y165100D02*
D03*
X175400Y139700D02*
D03*
X124600Y165100D02*
D03*
Y139700D02*
D03*
X99200Y165100D02*
D03*
Y139700D02*
D03*
X150000D02*
D03*
X200800D02*
D03*
Y165100D02*
D03*
X175400Y165100D02*
D03*
D46*
X235000Y46990D02*
D03*
X166000D02*
D03*
D47*
X197500Y94990D02*
D03*
D48*
X270510Y344170D02*
D03*
Y293370D02*
D03*
Y318770D02*
D03*
X29000Y224790D02*
D03*
Y275590D02*
D03*
Y250190D02*
D03*
Y300990D02*
D03*
D49*
X275000Y130000D02*
D03*
X25000Y90000D02*
D03*
X20000Y380000D02*
D03*
X280000D02*
D03*
D50*
X217170Y386800D02*
D03*
X39370Y138430D02*
D03*
X99060Y87630D02*
D03*
D51*
X105410Y223520D02*
D03*
X63500Y209550D02*
D03*
X92710Y234400D02*
D03*
X194500Y290000D02*
D03*
X181800Y280000D02*
D03*
X118300Y230000D02*
D03*
X169100Y270000D02*
D03*
X156400Y260000D02*
D03*
X131000Y240000D02*
D03*
X143700Y250000D02*
D03*
X81280Y356870D02*
D03*
X77470Y374100D02*
D03*
Y386800D02*
D03*
D72*
X73150Y74930D02*
D03*
X57150D02*
D03*
D73*
X76200Y89560D02*
D03*
Y108560D02*
D03*
X99200Y99060D02*
D03*
D74*
X72230Y172720D02*
D03*
X52230D02*
D03*
D75*
X95370Y329600D02*
D03*
Y309600D02*
D03*
X110490Y366800D02*
D03*
Y386800D02*
D03*
M02*
