G04*
G04 #@! TF.GenerationSoftware,Altium Limited,Altium Designer,22.4.2 (48)*
G04*
G04 Layer_Color=16711935*
%FSLAX44Y44*%
%MOMM*%
G71*
G04*
G04 #@! TF.SameCoordinates,838EBF20-BE27-4DE5-A25A-4BBD7161CD63*
G04*
G04*
G04 #@! TF.FilePolarity,Negative*
G04*
G01*
G75*
%ADD27R,1.2032X1.1532*%
%ADD30R,0.9532X1.2032*%
%ADD36O,1.8032X1.4032*%
%ADD37O,1.4732X1.9812*%
%ADD38O,1.7032X1.1032*%
%ADD76R,1.1532X1.2032*%
%ADD77R,1.3532X0.8032*%
%ADD78R,1.3532X1.6532*%
%ADD79R,1.6532X1.3532*%
D27*
X57150Y107060D02*
D03*
Y91060D02*
D03*
X92710Y370800D02*
D03*
Y386800D02*
D03*
D30*
X54730Y138430D02*
D03*
X69730D02*
D03*
X48500Y250190D02*
D03*
X63500D02*
D03*
X69730Y154220D02*
D03*
X54730D02*
D03*
X95370Y349250D02*
D03*
X110370D02*
D03*
X48500Y300990D02*
D03*
X63500D02*
D03*
Y224790D02*
D03*
X48500D02*
D03*
X63500Y275590D02*
D03*
X48500D02*
D03*
D36*
X64000Y22000D02*
D03*
Y42000D02*
D03*
D37*
X150000Y165100D02*
D03*
X175400Y139700D02*
D03*
X124600Y165100D02*
D03*
Y139700D02*
D03*
X99200Y165100D02*
D03*
Y139700D02*
D03*
X150000D02*
D03*
X200800D02*
D03*
Y165100D02*
D03*
X175400Y165100D02*
D03*
D38*
X275000Y130000D02*
D03*
X25000Y90000D02*
D03*
X20000Y380000D02*
D03*
X280000D02*
D03*
D76*
X73150Y74930D02*
D03*
X57150D02*
D03*
D77*
X76200Y89560D02*
D03*
Y108560D02*
D03*
X99200Y99060D02*
D03*
D78*
X72230Y172720D02*
D03*
X52230D02*
D03*
D79*
X95370Y329600D02*
D03*
Y309600D02*
D03*
X110490Y366800D02*
D03*
Y386800D02*
D03*
M02*
