G04*
G04 #@! TF.GenerationSoftware,Altium Limited,Altium Designer,22.4.2 (48)*
G04*
G04 Layer_Color=8421504*
%FSLAX44Y44*%
%MOMM*%
G71*
G04*
G04 #@! TF.SameCoordinates,838EBF20-BE27-4DE5-A25A-4BBD7161CD63*
G04*
G04*
G04 #@! TF.FilePolarity,Positive*
G04*
G01*
G75*
%ADD14R,1.5000X0.9000*%
%ADD15R,0.9000X1.5000*%
%ADD16R,4.0000X4.0000*%
%ADD17R,1.0000X0.9500*%
%ADD18R,1.4500X1.7500*%
%ADD19R,0.3000X0.7500*%
%ADD20R,0.7500X1.0000*%
%ADD21R,1.0400X1.0400*%
%ADD22R,1.0000X0.7500*%
%ADD23R,2.0000X2.0000*%
D14*
X237500Y386800D02*
D03*
Y374100D02*
D03*
Y361400D02*
D03*
Y348700D02*
D03*
Y336000D02*
D03*
Y323300D02*
D03*
Y310600D02*
D03*
Y297900D02*
D03*
Y285200D02*
D03*
Y272500D02*
D03*
Y259800D02*
D03*
Y247100D02*
D03*
Y234400D02*
D03*
Y221700D02*
D03*
X62500D02*
D03*
Y234400D02*
D03*
Y247100D02*
D03*
Y259800D02*
D03*
Y272500D02*
D03*
Y285200D02*
D03*
Y297900D02*
D03*
Y310600D02*
D03*
Y323300D02*
D03*
Y336000D02*
D03*
Y348700D02*
D03*
Y361400D02*
D03*
Y374100D02*
D03*
Y386800D02*
D03*
D15*
X156400Y209200D02*
D03*
X207200D02*
D03*
X194500D02*
D03*
X181800D02*
D03*
X169100D02*
D03*
X143700D02*
D03*
X131000D02*
D03*
X118300D02*
D03*
X105600D02*
D03*
X92900D02*
D03*
D16*
X135000Y309600D02*
D03*
D17*
X86360Y39750D02*
D03*
Y23750D02*
D03*
X128270Y71120D02*
D03*
Y87120D02*
D03*
D18*
X106680Y55880D02*
D03*
D19*
X114180Y41380D02*
D03*
X109180D02*
D03*
X104180D02*
D03*
X99180D02*
D03*
Y70380D02*
D03*
X104180D02*
D03*
X109180D02*
D03*
X114180D02*
D03*
D20*
X116150Y27940D02*
D03*
X101150D02*
D03*
D21*
X132420Y10160D02*
D03*
X111420Y10160D02*
D03*
D22*
X128270Y40880D02*
D03*
Y55880D02*
D03*
D23*
X270510Y218680D02*
D03*
Y248680D02*
D03*
M02*
