G04*
G04 #@! TF.GenerationSoftware,Altium Limited,Altium Designer,22.4.2 (48)*
G04*
G04 Layer_Color=8388736*
%FSLAX44Y44*%
%MOMM*%
G71*
G04*
G04 #@! TF.SameCoordinates,838EBF20-BE27-4DE5-A25A-4BBD7161CD63*
G04*
G04*
G04 #@! TF.FilePolarity,Negative*
G04*
G01*
G75*
%ADD24R,1.7032X1.1032*%
%ADD25R,1.1032X1.7032*%
%ADD26R,4.2032X4.2032*%
%ADD27R,1.2032X1.1532*%
%ADD28R,1.6532X1.9532*%
%ADD29R,0.5032X0.9532*%
%ADD30R,0.9532X1.2032*%
%ADD31R,1.4032X1.4032*%
%ADD32R,1.2032X0.9532*%
%ADD33R,2.2032X2.2032*%
%ADD34C,1.2032*%
%ADD35C,0.7112*%
%ADD36O,1.8032X1.4032*%
%ADD37O,1.4732X1.9812*%
%ADD38O,1.7032X1.1032*%
D24*
X237500Y386800D02*
D03*
Y374100D02*
D03*
Y361400D02*
D03*
Y348700D02*
D03*
Y336000D02*
D03*
Y323300D02*
D03*
Y310600D02*
D03*
Y297900D02*
D03*
Y285200D02*
D03*
Y272500D02*
D03*
Y259800D02*
D03*
Y247100D02*
D03*
Y234400D02*
D03*
Y221700D02*
D03*
X62500D02*
D03*
Y234400D02*
D03*
Y247100D02*
D03*
Y259800D02*
D03*
Y272500D02*
D03*
Y285200D02*
D03*
Y297900D02*
D03*
Y310600D02*
D03*
Y323300D02*
D03*
Y336000D02*
D03*
Y348700D02*
D03*
Y361400D02*
D03*
Y374100D02*
D03*
Y386800D02*
D03*
D25*
X156400Y209200D02*
D03*
X207200D02*
D03*
X194500D02*
D03*
X181800D02*
D03*
X169100D02*
D03*
X143700D02*
D03*
X131000D02*
D03*
X118300D02*
D03*
X105600D02*
D03*
X92900D02*
D03*
D26*
X135000Y309600D02*
D03*
D27*
X86360Y39750D02*
D03*
Y23750D02*
D03*
X128270Y71120D02*
D03*
Y87120D02*
D03*
D28*
X106680Y55880D02*
D03*
D29*
X114180Y41380D02*
D03*
X109180D02*
D03*
X104180D02*
D03*
X99180D02*
D03*
Y70380D02*
D03*
X104180D02*
D03*
X109180D02*
D03*
X114180D02*
D03*
D30*
X116150Y27940D02*
D03*
X101150D02*
D03*
D31*
X132420Y10160D02*
D03*
X111420Y10160D02*
D03*
D32*
X128270Y40880D02*
D03*
Y55880D02*
D03*
D33*
X270510Y218680D02*
D03*
Y248680D02*
D03*
D34*
X135000Y309600D02*
D03*
Y294600D02*
D03*
Y324670D02*
D03*
X150000Y309600D02*
D03*
X120000D02*
D03*
Y294600D02*
D03*
X150000D02*
D03*
Y324670D02*
D03*
X120000D02*
D03*
D35*
X111180Y49880D02*
D03*
X102180D02*
D03*
X111180Y61880D02*
D03*
X102180D02*
D03*
D36*
X64000Y22000D02*
D03*
Y42000D02*
D03*
D37*
X150000Y165100D02*
D03*
X175400Y139700D02*
D03*
X124600Y165100D02*
D03*
Y139700D02*
D03*
X99200Y165100D02*
D03*
Y139700D02*
D03*
X150000D02*
D03*
X200800D02*
D03*
Y165100D02*
D03*
X175400Y165100D02*
D03*
D38*
X275000Y130000D02*
D03*
X25000Y90000D02*
D03*
X20000Y380000D02*
D03*
X280000D02*
D03*
M02*
