G04*
G04 #@! TF.GenerationSoftware,Altium Limited,Altium Designer,22.4.2 (48)*
G04*
G04 Layer_Physical_Order=2*
G04 Layer_Color=32768*
%FSLAX44Y44*%
%MOMM*%
G71*
G04*
G04 #@! TF.SameCoordinates,838EBF20-BE27-4DE5-A25A-4BBD7161CD63*
G04*
G04*
G04 #@! TF.FilePolarity,Negative*
G04*
G01*
G75*
%ADD52C,1.0160*%
G04:AMPARAMS|DCode=53|XSize=1.824mm|YSize=1.824mm|CornerRadius=0mm|HoleSize=0mm|Usage=FLASHONLY|Rotation=0.000|XOffset=0mm|YOffset=0mm|HoleType=Round|Shape=Relief|Width=0.254mm|Gap=0.254mm|Entries=4|*
%AMTHD53*
7,0,0,1.8240,1.3160,0.2540,45*
%
%ADD53THD53*%
G04:AMPARAMS|DCode=54|XSize=1.778mm|YSize=1.778mm|CornerRadius=0mm|HoleSize=0mm|Usage=FLASHONLY|Rotation=0.000|XOffset=0mm|YOffset=0mm|HoleType=Round|Shape=Relief|Width=0.254mm|Gap=0.254mm|Entries=4|*
%AMTHD54*
7,0,0,1.7780,1.2700,0.2540,45*
%
%ADD54THD54*%
G04:AMPARAMS|DCode=55|XSize=2.424mm|YSize=2.424mm|CornerRadius=0mm|HoleSize=0mm|Usage=FLASHONLY|Rotation=0.000|XOffset=0mm|YOffset=0mm|HoleType=Round|Shape=Relief|Width=0.254mm|Gap=0.254mm|Entries=4|*
%AMTHD55*
7,0,0,2.4240,1.9160,0.2540,45*
%
%ADD55THD55*%
%ADD56C,1.9160*%
%ADD57C,2.0320*%
G04:AMPARAMS|DCode=58|XSize=2.54mm|YSize=2.54mm|CornerRadius=0mm|HoleSize=0mm|Usage=FLASHONLY|Rotation=0.000|XOffset=0mm|YOffset=0mm|HoleType=Round|Shape=Relief|Width=0.254mm|Gap=0.254mm|Entries=4|*
%AMTHD58*
7,0,0,2.5400,2.0320,0.2540,45*
%
%ADD58THD58*%
%AMTHOVALD59*
21,1,2.0000,2.5240,0,0,90.0*
1,1,2.5240,0.0000,-1.0000*
1,1,2.5240,0.0000,1.0000*
21,0,2.0000,2.0160,0,0,90.0*
1,0,2.0160,0.0000,-1.0000*
1,0,2.0160,0.0000,1.0000*
4,0,4,0.0898,-0.9102,0.9822,-1.8026,0.8026,-1.9822,-0.0898,-1.0898,0.0898,-0.9102,0.0*
4,0,4,0.0898,1.0898,-0.8026,1.9822,-0.9822,1.8026,-0.0898,0.9102,0.0898,1.0898,0.0*
4,0,4,0.0898,-1.0898,-0.8026,-1.9822,-0.9822,-1.8026,-0.0898,-0.9102,0.0898,-1.0898,0.0*
4,0,4,0.0898,0.9102,0.9822,1.8026,0.8026,1.9822,-0.0898,1.0898,0.0898,0.9102,0.0*
%
%ADD59THOVALD59*%

%AMTHOVALD60*
21,1,2.0000,2.5240,0,0,0.0*
1,1,2.5240,-1.0000,0.0000*
1,1,2.5240,1.0000,0.0000*
21,0,2.0000,2.0160,0,0,0.0*
1,0,2.0160,-1.0000,0.0000*
1,0,2.0160,1.0000,0.0000*
4,0,4,-0.9102,-0.0898,-1.8026,-0.9822,-1.9822,-0.8026,-1.0898,0.0898,-0.9102,-0.0898,0.0*
4,0,4,1.0898,-0.0898,1.9822,0.8026,1.8026,0.9822,0.9102,0.0898,1.0898,-0.0898,0.0*
4,0,4,-1.0898,-0.0898,-1.9822,0.8026,-1.8026,0.9822,-0.9102,0.0898,-1.0898,-0.0898,0.0*
4,0,4,0.9102,-0.0898,1.8026,-0.9822,1.9822,-0.8026,1.0898,0.0898,0.9102,-0.0898,0.0*
%
%ADD60THOVALD60*%

%ADD61O,2.0160X4.0160*%
%ADD62C,2.0160*%
G04:AMPARAMS|DCode=63|XSize=2.524mm|YSize=2.524mm|CornerRadius=0mm|HoleSize=0mm|Usage=FLASHONLY|Rotation=0.000|XOffset=0mm|YOffset=0mm|HoleType=Round|Shape=Relief|Width=0.254mm|Gap=0.254mm|Entries=4|*
%AMTHD63*
7,0,0,2.5240,2.0160,0.2540,45*
%
%ADD63THD63*%
%ADD64C,3.5160*%
G04:AMPARAMS|DCode=65|XSize=2.032mm|YSize=2.032mm|CornerRadius=0mm|HoleSize=0mm|Usage=FLASHONLY|Rotation=0.000|XOffset=0mm|YOffset=0mm|HoleType=Round|Shape=Relief|Width=0.254mm|Gap=0.254mm|Entries=4|*
%AMTHD65*
7,0,0,2.0320,1.5240,0.2540,45*
%
%ADD65THD65*%
%ADD66C,1.5240*%
%ADD67C,1.3970*%
G04:AMPARAMS|DCode=68|XSize=1.905mm|YSize=1.905mm|CornerRadius=0mm|HoleSize=0mm|Usage=FLASHONLY|Rotation=0.000|XOffset=0mm|YOffset=0mm|HoleType=Round|Shape=Relief|Width=0.254mm|Gap=0.254mm|Entries=4|*
%AMTHD68*
7,0,0,1.9050,1.3970,0.2540,45*
%
%ADD68THD68*%
D52*
X0Y0D02*
X300000D01*
Y400000D01*
X0D02*
X300000D01*
X0Y0D02*
Y400000D01*
D53*
X135000Y309600D02*
D03*
Y294600D02*
D03*
Y324670D02*
D03*
X150000Y309600D02*
D03*
X120000D02*
D03*
Y294600D02*
D03*
X150000D02*
D03*
Y324670D02*
D03*
X120000D02*
D03*
D54*
X111180Y49880D02*
D03*
X102180D02*
D03*
X111180Y61880D02*
D03*
X102180D02*
D03*
D55*
X64000Y22000D02*
D03*
D56*
Y42000D02*
D03*
D57*
X150000Y165100D02*
D03*
X175400Y139700D02*
D03*
X124600Y165100D02*
D03*
Y139700D02*
D03*
X99200D02*
D03*
X150000D02*
D03*
X200800D02*
D03*
Y165100D02*
D03*
X175400Y165100D02*
D03*
D58*
X99200Y165100D02*
D03*
D59*
X235000Y46990D02*
D03*
D60*
X197500Y94990D02*
D03*
D61*
X166000Y46990D02*
D03*
D62*
X270510Y344170D02*
D03*
Y318770D02*
D03*
X29000Y224790D02*
D03*
Y275590D02*
D03*
Y250190D02*
D03*
Y300990D02*
D03*
D63*
X270510Y293370D02*
D03*
D64*
X275000Y130000D02*
D03*
X25000Y90000D02*
D03*
X20000Y380000D02*
D03*
X280000D02*
D03*
D65*
X217170Y386800D02*
D03*
D66*
X39370Y138430D02*
D03*
X99060Y87630D02*
D03*
D67*
X105410Y223520D02*
D03*
X63500Y209550D02*
D03*
X92710Y234400D02*
D03*
X194500Y290000D02*
D03*
X181800Y280000D02*
D03*
X118300Y230000D02*
D03*
X169100Y270000D02*
D03*
X156400Y260000D02*
D03*
X131000Y240000D02*
D03*
X143700Y250000D02*
D03*
X81280Y356870D02*
D03*
X77470Y374100D02*
D03*
D68*
Y386800D02*
D03*
M02*
