G04*
G04 #@! TF.GenerationSoftware,Altium Limited,Altium Designer,22.4.2 (48)*
G04*
G04 Layer_Physical_Order=3*
G04 Layer_Color=128*
%FSLAX44Y44*%
%MOMM*%
G71*
G04*
G04 #@! TF.SameCoordinates,838EBF20-BE27-4DE5-A25A-4BBD7161CD63*
G04*
G04*
G04 #@! TF.FilePolarity,Negative*
G04*
G01*
G75*
%ADD52C,1.0160*%
%ADD56C,1.9160*%
%ADD57C,2.0320*%
G04:AMPARAMS|DCode=58|XSize=2.54mm|YSize=2.54mm|CornerRadius=0mm|HoleSize=0mm|Usage=FLASHONLY|Rotation=0.000|XOffset=0mm|YOffset=0mm|HoleType=Round|Shape=Relief|Width=0.254mm|Gap=0.254mm|Entries=4|*
%AMTHD58*
7,0,0,2.5400,2.0320,0.2540,45*
%
%ADD58THD58*%
%ADD61O,2.0160X4.0160*%
%ADD62C,2.0160*%
%ADD64C,3.5160*%
%ADD66C,1.5240*%
%ADD67C,1.3970*%
G04:AMPARAMS|DCode=68|XSize=1.905mm|YSize=1.905mm|CornerRadius=0mm|HoleSize=0mm|Usage=FLASHONLY|Rotation=0.000|XOffset=0mm|YOffset=0mm|HoleType=Round|Shape=Relief|Width=0.254mm|Gap=0.254mm|Entries=4|*
%AMTHD68*
7,0,0,1.9050,1.3970,0.2540,45*
%
%ADD68THD68*%
%ADD69C,1.3160*%
%ADD70C,1.2700*%
%ADD71O,4.0160X2.0160*%
D52*
X0Y0D02*
X300000D01*
Y400000D01*
X0D02*
X300000D01*
X0Y0D02*
Y400000D01*
D56*
X64000Y22000D02*
D03*
Y42000D02*
D03*
D57*
X150000Y165100D02*
D03*
X175400Y139700D02*
D03*
X124600Y165100D02*
D03*
Y139700D02*
D03*
X99200Y165100D02*
D03*
X150000Y139700D02*
D03*
X200800D02*
D03*
Y165100D02*
D03*
X175400Y165100D02*
D03*
D58*
X99200Y139700D02*
D03*
D61*
X235000Y46990D02*
D03*
X166000D02*
D03*
D62*
X270510Y344170D02*
D03*
Y293370D02*
D03*
Y318770D02*
D03*
X29000Y224790D02*
D03*
Y275590D02*
D03*
Y250190D02*
D03*
Y300990D02*
D03*
D64*
X275000Y130000D02*
D03*
X25000Y90000D02*
D03*
X20000Y380000D02*
D03*
X280000D02*
D03*
D66*
X217170Y386800D02*
D03*
X39370Y138430D02*
D03*
X99060Y87630D02*
D03*
D67*
X105410Y223520D02*
D03*
X63500Y209550D02*
D03*
X92710Y234400D02*
D03*
X194500Y290000D02*
D03*
X181800Y280000D02*
D03*
X118300Y230000D02*
D03*
X169100Y270000D02*
D03*
X156400Y260000D02*
D03*
X131000Y240000D02*
D03*
X143700Y250000D02*
D03*
X81280Y356870D02*
D03*
X77470Y386800D02*
D03*
D68*
Y374100D02*
D03*
D69*
X135000Y309600D02*
D03*
Y294600D02*
D03*
Y324670D02*
D03*
X150000Y309600D02*
D03*
X120000D02*
D03*
Y294600D02*
D03*
X150000D02*
D03*
Y324670D02*
D03*
X120000D02*
D03*
D70*
X111180Y49880D02*
D03*
X102180D02*
D03*
X111180Y61880D02*
D03*
X102180D02*
D03*
D71*
X197500Y94990D02*
D03*
M02*
