G04*
G04 #@! TF.GenerationSoftware,Altium Limited,Altium Designer,22.4.2 (48)*
G04*
G04 Layer_Physical_Order=1*
G04 Layer_Color=255*
%FSLAX44Y44*%
%MOMM*%
G71*
G04*
G04 #@! TF.SameCoordinates,838EBF20-BE27-4DE5-A25A-4BBD7161CD63*
G04*
G04*
G04 #@! TF.FilePolarity,Positive*
G04*
G01*
G75*
%ADD10C,0.2540*%
%ADD14R,1.5000X0.9000*%
%ADD15R,0.9000X1.5000*%
%ADD16R,4.0000X4.0000*%
%ADD17R,1.0000X0.9500*%
%ADD18R,1.4500X1.7500*%
%ADD19R,0.3000X0.7500*%
%ADD20R,0.7500X1.0000*%
%ADD22R,1.0000X0.7500*%
%ADD23R,2.0000X2.0000*%
%ADD39R,1.2000X1.2000*%
%ADD40C,0.5080*%
%ADD41C,0.4572*%
%ADD42C,1.0000*%
%ADD43C,0.5080*%
%ADD44O,1.6000X1.2000*%
%ADD45O,1.2700X1.7780*%
G04:AMPARAMS|DCode=46|XSize=4.7mm|YSize=2mm|CornerRadius=0.5mm|HoleSize=0mm|Usage=FLASHONLY|Rotation=90.000|XOffset=0mm|YOffset=0mm|HoleType=Round|Shape=RoundedRectangle|*
%AMROUNDEDRECTD46*
21,1,4.7000,1.0000,0,0,90.0*
21,1,3.7000,2.0000,0,0,90.0*
1,1,1.0000,0.5000,1.8500*
1,1,1.0000,0.5000,-1.8500*
1,1,1.0000,-0.5000,-1.8500*
1,1,1.0000,-0.5000,1.8500*
%
%ADD46ROUNDEDRECTD46*%
G04:AMPARAMS|DCode=47|XSize=4.7mm|YSize=2mm|CornerRadius=0.5mm|HoleSize=0mm|Usage=FLASHONLY|Rotation=0.000|XOffset=0mm|YOffset=0mm|HoleType=Round|Shape=RoundedRectangle|*
%AMROUNDEDRECTD47*
21,1,4.7000,1.0000,0,0,0.0*
21,1,3.7000,2.0000,0,0,0.0*
1,1,1.0000,1.8500,-0.5000*
1,1,1.0000,-1.8500,-0.5000*
1,1,1.0000,-1.8500,0.5000*
1,1,1.0000,1.8500,0.5000*
%
%ADD47ROUNDEDRECTD47*%
%ADD48O,2.0000X1.5000*%
%ADD49O,1.5000X0.9000*%
%ADD50C,1.0160*%
%ADD51C,0.7620*%
G36*
X70020Y390903D02*
X70173Y390575D01*
X70427Y390285D01*
X70782Y390035D01*
X71240Y389822D01*
X71798Y389649D01*
X72459Y389514D01*
X73221Y389417D01*
X73479Y389400D01*
X74749Y389467D01*
Y389346D01*
X75050Y389340D01*
Y384260D01*
X74749Y384254D01*
Y384133D01*
X74703Y384157D01*
X74613Y384179D01*
X74480Y384198D01*
X74086Y384228D01*
X73979Y384231D01*
X72459Y384086D01*
X71798Y383951D01*
X71240Y383778D01*
X70782Y383565D01*
X70427Y383315D01*
X70173Y383025D01*
X70020Y382697D01*
X69970Y382331D01*
Y391269D01*
X70020Y390903D01*
D02*
G37*
G36*
X221015Y390163D02*
X221269Y389990D01*
X221560Y389838D01*
X221887Y389706D01*
X222251Y389594D01*
X222651Y389502D01*
X223088Y389431D01*
X223561Y389381D01*
X224617Y389340D01*
Y384260D01*
X224071Y384250D01*
X223088Y384169D01*
X222651Y384097D01*
X222251Y384006D01*
X221887Y383894D01*
X221560Y383762D01*
X221269Y383610D01*
X221015Y383437D01*
X220798Y383244D01*
Y390356D01*
X221015Y390163D01*
D02*
G37*
G36*
X230030Y382331D02*
X229980Y382697D01*
X229827Y383025D01*
X229573Y383315D01*
X229218Y383565D01*
X228761Y383778D01*
X228202Y383951D01*
X227541Y384086D01*
X226779Y384183D01*
X225916Y384241D01*
X224951Y384260D01*
Y389340D01*
X225916Y389359D01*
X227541Y389514D01*
X228202Y389649D01*
X228761Y389822D01*
X229218Y390035D01*
X229573Y390285D01*
X229827Y390575D01*
X229980Y390903D01*
X230030Y391269D01*
Y382331D01*
D02*
G37*
G36*
X70020Y378203D02*
X70173Y377875D01*
X70427Y377585D01*
X70782Y377335D01*
X71240Y377122D01*
X71798Y376949D01*
X72459Y376814D01*
X73221Y376717D01*
X73479Y376700D01*
X74749Y376767D01*
Y376646D01*
X75050Y376640D01*
Y371560D01*
X74749Y371554D01*
Y371433D01*
X74703Y371457D01*
X74613Y371479D01*
X74480Y371498D01*
X74086Y371528D01*
X73979Y371531D01*
X72459Y371386D01*
X71798Y371251D01*
X71240Y371078D01*
X70782Y370865D01*
X70427Y370615D01*
X70173Y370325D01*
X70020Y369997D01*
X69970Y369631D01*
Y378569D01*
X70020Y378203D01*
D02*
G37*
G36*
X70015Y365455D02*
X70152Y365083D01*
X70381Y364756D01*
X70701Y364472D01*
X71112Y364232D01*
X71616Y364035D01*
X72210Y363882D01*
X72896Y363773D01*
X73673Y363708D01*
X74542Y363686D01*
Y359114D01*
X73673Y359092D01*
X72896Y359027D01*
X72210Y358918D01*
X71616Y358765D01*
X71112Y358568D01*
X70701Y358328D01*
X70381Y358044D01*
X70152Y357716D01*
X70015Y357345D01*
X69970Y356931D01*
Y365869D01*
X70015Y365455D01*
D02*
G37*
G36*
X79431Y361957D02*
X80446Y361072D01*
X80647Y360930D01*
X80827Y360820D01*
X80986Y360741D01*
X81125Y360695D01*
X81242Y360680D01*
X77470Y356908D01*
X77455Y357025D01*
X77409Y357164D01*
X77330Y357323D01*
X77220Y357503D01*
X77078Y357704D01*
X76699Y358170D01*
X76193Y358719D01*
X75892Y359025D01*
X79125Y362258D01*
X79431Y361957D01*
D02*
G37*
G36*
X244965Y350999D02*
X245042Y350783D01*
X245170Y350592D01*
X245350Y350427D01*
X245582Y350288D01*
X245864Y350173D01*
X246199Y350084D01*
X246584Y350021D01*
X247021Y349983D01*
X247509Y349970D01*
Y347430D01*
X247021Y347417D01*
X246584Y347379D01*
X246199Y347316D01*
X245864Y347227D01*
X245582Y347113D01*
X245350Y346973D01*
X245170Y346808D01*
X245042Y346617D01*
X244965Y346401D01*
X244939Y346160D01*
Y351240D01*
X244965Y350999D01*
D02*
G37*
G36*
Y338299D02*
X245042Y338083D01*
X245170Y337892D01*
X245350Y337727D01*
X245582Y337588D01*
X245864Y337473D01*
X246199Y337384D01*
X246584Y337321D01*
X247021Y337283D01*
X247509Y337270D01*
Y334730D01*
X247021Y334717D01*
X246584Y334679D01*
X246199Y334616D01*
X245864Y334527D01*
X245582Y334412D01*
X245350Y334273D01*
X245170Y334108D01*
X245042Y333917D01*
X244965Y333701D01*
X244939Y333460D01*
Y338540D01*
X244965Y338299D01*
D02*
G37*
G36*
X262271Y326283D02*
X262648Y325959D01*
X263002Y325695D01*
X263332Y325490D01*
X263638Y325344D01*
X263921Y325257D01*
X264181Y325229D01*
X264417Y325260D01*
X264630Y325350D01*
X264820Y325500D01*
X261252Y321908D01*
X261401Y322099D01*
X261490Y322313D01*
X261520Y322550D01*
X261491Y322811D01*
X261403Y323095D01*
X261257Y323402D01*
X261051Y323733D01*
X260786Y324087D01*
X260462Y324464D01*
X260079Y324865D01*
X261871Y326665D01*
X262271Y326283D01*
D02*
G37*
G36*
X69963Y324795D02*
X70034Y324611D01*
X70153Y324448D01*
X70320Y324308D01*
X70535Y324188D01*
X70797Y324091D01*
X71107Y324015D01*
X71464Y323961D01*
X71869Y323929D01*
X72322Y323918D01*
Y321378D01*
X71869Y321367D01*
X71464Y321335D01*
X71107Y321281D01*
X70797Y321205D01*
X70535Y321107D01*
X70320Y320988D01*
X70153Y320847D01*
X70034Y320685D01*
X69963Y320501D01*
X69939Y320295D01*
Y325000D01*
X69963Y324795D01*
D02*
G37*
G36*
X69965Y312247D02*
X70042Y312031D01*
X70170Y311840D01*
X70350Y311675D01*
X70582Y311535D01*
X70864Y311421D01*
X71199Y311332D01*
X71584Y311269D01*
X72021Y311231D01*
X72509Y311218D01*
Y308678D01*
X72021Y308665D01*
X71584Y308627D01*
X71199Y308564D01*
X70864Y308475D01*
X70582Y308360D01*
X70350Y308221D01*
X70170Y308056D01*
X70042Y307865D01*
X69965Y307649D01*
X69939Y307408D01*
Y312488D01*
X69965Y312247D01*
D02*
G37*
G36*
Y299547D02*
X70042Y299331D01*
X70170Y299140D01*
X70350Y298975D01*
X70582Y298835D01*
X70864Y298721D01*
X71199Y298632D01*
X71584Y298569D01*
X72021Y298531D01*
X72509Y298518D01*
Y295978D01*
X72021Y295965D01*
X71584Y295927D01*
X71199Y295864D01*
X70864Y295775D01*
X70582Y295660D01*
X70350Y295521D01*
X70170Y295356D01*
X70042Y295165D01*
X69965Y294949D01*
X69939Y294708D01*
Y299788D01*
X69965Y299547D01*
D02*
G37*
G36*
X196902Y287001D02*
X196664Y286715D01*
X196455Y286420D01*
X196273Y286117D01*
X196119Y285805D01*
X195994Y285485D01*
X195896Y285157D01*
X195826Y284820D01*
X195784Y284475D01*
X195770Y284122D01*
X193230D01*
X193216Y284475D01*
X193174Y284820D01*
X193104Y285157D01*
X193006Y285485D01*
X192881Y285805D01*
X192727Y286117D01*
X192546Y286420D01*
X192336Y286715D01*
X192099Y287001D01*
X191833Y287279D01*
X197167D01*
X196902Y287001D01*
D02*
G37*
G36*
X69965Y286847D02*
X70042Y286631D01*
X70170Y286440D01*
X70350Y286275D01*
X70582Y286135D01*
X70864Y286021D01*
X71199Y285932D01*
X71584Y285869D01*
X72021Y285831D01*
X72509Y285818D01*
Y283278D01*
X72021Y283265D01*
X71584Y283227D01*
X71199Y283164D01*
X70864Y283075D01*
X70582Y282960D01*
X70350Y282821D01*
X70170Y282656D01*
X70042Y282465D01*
X69965Y282249D01*
X69939Y282008D01*
Y287088D01*
X69965Y286847D01*
D02*
G37*
G36*
X275100Y286320D02*
X274670Y286153D01*
X274290Y285873D01*
X273961Y285482D01*
X273683Y284979D01*
X273455Y284364D01*
X273278Y283638D01*
X273151Y282800D01*
X273075Y281850D01*
X273050Y280788D01*
X267970D01*
X267945Y281850D01*
X267869Y282800D01*
X267742Y283638D01*
X267565Y284364D01*
X267337Y284979D01*
X267059Y285482D01*
X266730Y285873D01*
X266350Y286153D01*
X265920Y286320D01*
X265439Y286376D01*
X275581D01*
X275100Y286320D01*
D02*
G37*
G36*
X179079Y277333D02*
X178801Y277598D01*
X178515Y277836D01*
X178220Y278046D01*
X177917Y278227D01*
X177605Y278381D01*
X177285Y278507D01*
X176957Y278604D01*
X176620Y278674D01*
X176275Y278716D01*
X175922Y278730D01*
Y281270D01*
X176275Y281284D01*
X176620Y281326D01*
X176957Y281396D01*
X177285Y281493D01*
X177605Y281619D01*
X177917Y281773D01*
X178220Y281954D01*
X178515Y282164D01*
X178801Y282402D01*
X179079Y282667D01*
Y277333D01*
D02*
G37*
G36*
X166379Y267333D02*
X166101Y267598D01*
X165815Y267836D01*
X165520Y268046D01*
X165217Y268227D01*
X164905Y268381D01*
X164585Y268507D01*
X164257Y268604D01*
X163920Y268674D01*
X163575Y268716D01*
X163222Y268730D01*
Y271270D01*
X163575Y271284D01*
X163920Y271326D01*
X164257Y271396D01*
X164585Y271493D01*
X164905Y271619D01*
X165217Y271773D01*
X165520Y271954D01*
X165815Y272164D01*
X166101Y272402D01*
X166379Y272667D01*
Y267333D01*
D02*
G37*
G36*
X273075Y262759D02*
X273152Y261890D01*
X273279Y261123D01*
X273456Y260459D01*
X273685Y259897D01*
X273964Y259437D01*
X274295Y259079D01*
X274676Y258824D01*
X275107Y258670D01*
X275590Y258619D01*
X265430D01*
X265913Y258670D01*
X266344Y258824D01*
X266725Y259079D01*
X267056Y259437D01*
X267335Y259897D01*
X267564Y260459D01*
X267741Y261123D01*
X267868Y261890D01*
X267945Y262759D01*
X267970Y263729D01*
X273050D01*
X273075Y262759D01*
D02*
G37*
G36*
X153679Y257333D02*
X153401Y257598D01*
X153115Y257836D01*
X152820Y258046D01*
X152517Y258227D01*
X152205Y258381D01*
X151885Y258507D01*
X151557Y258604D01*
X151220Y258674D01*
X150875Y258716D01*
X150522Y258730D01*
Y261270D01*
X150875Y261284D01*
X151220Y261326D01*
X151557Y261396D01*
X151885Y261493D01*
X152205Y261619D01*
X152517Y261773D01*
X152820Y261954D01*
X153115Y262164D01*
X153401Y262402D01*
X153679Y262667D01*
Y257333D01*
D02*
G37*
G36*
X69965Y262099D02*
X70042Y261883D01*
X70170Y261692D01*
X70350Y261527D01*
X70582Y261388D01*
X70864Y261273D01*
X71199Y261184D01*
X71584Y261121D01*
X72021Y261083D01*
X72509Y261070D01*
Y258530D01*
X72021Y258517D01*
X71584Y258479D01*
X71199Y258416D01*
X70864Y258327D01*
X70582Y258213D01*
X70350Y258073D01*
X70170Y257908D01*
X70042Y257717D01*
X69965Y257501D01*
X69939Y257260D01*
Y262340D01*
X69965Y262099D01*
D02*
G37*
G36*
X140979Y247333D02*
X140701Y247598D01*
X140415Y247836D01*
X140120Y248046D01*
X139817Y248227D01*
X139505Y248381D01*
X139185Y248507D01*
X138857Y248604D01*
X138520Y248674D01*
X138175Y248716D01*
X137822Y248730D01*
Y251270D01*
X138175Y251284D01*
X138520Y251326D01*
X138857Y251396D01*
X139185Y251493D01*
X139505Y251619D01*
X139817Y251773D01*
X140120Y251954D01*
X140415Y252164D01*
X140701Y252402D01*
X140979Y252667D01*
Y247333D01*
D02*
G37*
G36*
X69965Y249399D02*
X70042Y249183D01*
X70170Y248992D01*
X70350Y248827D01*
X70582Y248687D01*
X70864Y248573D01*
X71199Y248484D01*
X71584Y248421D01*
X72021Y248383D01*
X72509Y248370D01*
Y245830D01*
X72021Y245817D01*
X71584Y245779D01*
X71199Y245716D01*
X70864Y245627D01*
X70582Y245513D01*
X70350Y245373D01*
X70170Y245208D01*
X70042Y245017D01*
X69965Y244801D01*
X69939Y244560D01*
Y249640D01*
X69965Y249399D01*
D02*
G37*
G36*
X128279Y237333D02*
X128001Y237598D01*
X127715Y237836D01*
X127420Y238046D01*
X127117Y238227D01*
X126805Y238381D01*
X126485Y238507D01*
X126157Y238604D01*
X125820Y238674D01*
X125475Y238716D01*
X125122Y238730D01*
Y241270D01*
X125475Y241284D01*
X125820Y241326D01*
X126157Y241396D01*
X126485Y241493D01*
X126805Y241619D01*
X127117Y241773D01*
X127420Y241954D01*
X127715Y242164D01*
X128001Y242402D01*
X128279Y242667D01*
Y237333D01*
D02*
G37*
G36*
X230061Y231860D02*
X230035Y232101D01*
X229958Y232317D01*
X229830Y232508D01*
X229650Y232673D01*
X229418Y232812D01*
X229136Y232927D01*
X228801Y233016D01*
X228416Y233079D01*
X227979Y233117D01*
X227491Y233130D01*
Y235670D01*
X227979Y235683D01*
X228416Y235721D01*
X228801Y235784D01*
X229136Y235873D01*
X229418Y235987D01*
X229650Y236127D01*
X229830Y236292D01*
X229958Y236483D01*
X230035Y236699D01*
X230061Y236940D01*
Y231860D01*
D02*
G37*
G36*
X69965Y236699D02*
X70042Y236483D01*
X70170Y236292D01*
X70350Y236127D01*
X70582Y235987D01*
X70864Y235873D01*
X71199Y235784D01*
X71584Y235721D01*
X72021Y235683D01*
X72509Y235670D01*
Y233130D01*
X72021Y233117D01*
X71584Y233079D01*
X71199Y233016D01*
X70864Y232927D01*
X70582Y232812D01*
X70350Y232673D01*
X70170Y232508D01*
X70042Y232317D01*
X69965Y232101D01*
X69939Y231860D01*
Y236940D01*
X69965Y236699D01*
D02*
G37*
G36*
X89989Y231733D02*
X89711Y231998D01*
X89425Y232236D01*
X89130Y232446D01*
X88827Y232627D01*
X88515Y232781D01*
X88195Y232906D01*
X87867Y233004D01*
X87530Y233074D01*
X87185Y233116D01*
X86832Y233130D01*
Y235670D01*
X87185Y235684D01*
X87530Y235726D01*
X87867Y235796D01*
X88195Y235893D01*
X88515Y236019D01*
X88827Y236173D01*
X89130Y236355D01*
X89425Y236564D01*
X89711Y236802D01*
X89989Y237067D01*
Y231733D01*
D02*
G37*
G36*
X115000Y228096D02*
X114896Y228244D01*
X114766Y228377D01*
X114608Y228495D01*
X114424Y228596D01*
X114212Y228682D01*
X113974Y228753D01*
X113709Y228808D01*
X113417Y228847D01*
X113098Y228870D01*
X112752Y228878D01*
Y231418D01*
X113118Y231425D01*
X113767Y231484D01*
X114049Y231536D01*
X114304Y231602D01*
X114530Y231683D01*
X114729Y231779D01*
X114900Y231890D01*
X115043Y232015D01*
X115158Y232155D01*
X115000Y228096D01*
D02*
G37*
G36*
X260571Y219160D02*
X260545Y219401D01*
X260468Y219617D01*
X260340Y219808D01*
X260160Y219973D01*
X259928Y220112D01*
X259646Y220227D01*
X259311Y220316D01*
X258926Y220379D01*
X258489Y220417D01*
X258001Y220430D01*
Y222970D01*
X258489Y222983D01*
X258926Y223021D01*
X259311Y223084D01*
X259646Y223173D01*
X259928Y223288D01*
X260160Y223427D01*
X260340Y223592D01*
X260468Y223783D01*
X260545Y223999D01*
X260571Y224240D01*
Y219160D01*
D02*
G37*
G36*
X244965Y223999D02*
X245042Y223783D01*
X245170Y223592D01*
X245350Y223427D01*
X245582Y223288D01*
X245864Y223173D01*
X246199Y223084D01*
X246584Y223021D01*
X247021Y222983D01*
X247509Y222970D01*
Y220430D01*
X247021Y220417D01*
X246584Y220379D01*
X246199Y220316D01*
X245864Y220227D01*
X245582Y220112D01*
X245350Y219973D01*
X245170Y219808D01*
X245042Y219617D01*
X244965Y219401D01*
X244939Y219160D01*
Y224240D01*
X244965Y223999D01*
D02*
G37*
G36*
X195783Y218721D02*
X195821Y218284D01*
X195884Y217899D01*
X195973Y217564D01*
X196087Y217282D01*
X196227Y217050D01*
X196392Y216870D01*
X196583Y216742D01*
X196799Y216665D01*
X197040Y216639D01*
X191960D01*
X192201Y216665D01*
X192417Y216742D01*
X192608Y216870D01*
X192773Y217050D01*
X192913Y217282D01*
X193027Y217564D01*
X193116Y217899D01*
X193179Y218284D01*
X193217Y218721D01*
X193230Y219209D01*
X195770D01*
X195783Y218721D01*
D02*
G37*
G36*
X107812Y220521D02*
X107574Y220235D01*
X107365Y219940D01*
X107183Y219637D01*
X107029Y219325D01*
X106903Y219005D01*
X106806Y218677D01*
X106736Y218340D01*
X106730Y218293D01*
X106731Y218284D01*
X106794Y217899D01*
X106883Y217564D01*
X106997Y217282D01*
X107137Y217050D01*
X107302Y216870D01*
X107493Y216742D01*
X107709Y216665D01*
X107950Y216639D01*
X102870D01*
X103111Y216665D01*
X103327Y216742D01*
X103518Y216870D01*
X103683Y217050D01*
X103822Y217282D01*
X103937Y217564D01*
X104026Y217899D01*
X104089Y218284D01*
X104090Y218293D01*
X104084Y218340D01*
X104014Y218677D01*
X103917Y219005D01*
X103791Y219325D01*
X103637Y219637D01*
X103455Y219940D01*
X103246Y220235D01*
X103008Y220521D01*
X102743Y220799D01*
X108077D01*
X107812Y220521D01*
D02*
G37*
G36*
X65799Y217205D02*
X65583Y217129D01*
X65392Y217002D01*
X65227Y216824D01*
X65087Y216595D01*
X64973Y216316D01*
X64884Y215986D01*
X64821Y215605D01*
X64783Y215173D01*
X64782Y215133D01*
X64784Y215075D01*
X64826Y214730D01*
X64896Y214393D01*
X64994Y214065D01*
X65119Y213745D01*
X65273Y213433D01*
X65455Y213130D01*
X65664Y212835D01*
X65902Y212549D01*
X66167Y212271D01*
X60833D01*
X61098Y212549D01*
X61336Y212835D01*
X61546Y213130D01*
X61727Y213433D01*
X61881Y213745D01*
X62007Y214065D01*
X62104Y214393D01*
X62174Y214730D01*
X62216Y215075D01*
X62218Y215133D01*
X62217Y215173D01*
X62179Y215605D01*
X62116Y215986D01*
X62027Y216316D01*
X61912Y216595D01*
X61773Y216824D01*
X61608Y217002D01*
X61417Y217129D01*
X61201Y217205D01*
X60960Y217230D01*
X66040D01*
X65799Y217205D01*
D02*
G37*
G36*
X97003Y201680D02*
X96675Y201527D01*
X96385Y201273D01*
X96135Y200918D01*
X95922Y200460D01*
X95749Y199902D01*
X95614Y199241D01*
X95517Y198479D01*
X95459Y197616D01*
X95440Y196651D01*
X90360D01*
X90341Y197616D01*
X90186Y199241D01*
X90051Y199902D01*
X89878Y200460D01*
X89665Y200918D01*
X89415Y201273D01*
X89125Y201527D01*
X88797Y201680D01*
X88431Y201730D01*
X97370D01*
X97003Y201680D01*
D02*
G37*
G36*
X101765Y177172D02*
X101966Y174889D01*
X102143Y173961D01*
X102369Y173176D01*
X102646Y172534D01*
X102973Y172034D01*
X103350Y171678D01*
X103778Y171464D01*
X104256Y171392D01*
X94144D01*
X94622Y171464D01*
X95049Y171678D01*
X95427Y172034D01*
X95754Y172534D01*
X96031Y173176D01*
X96257Y173961D01*
X96433Y174889D01*
X96559Y175959D01*
X96635Y177172D01*
X96660Y178528D01*
X101740D01*
X101765Y177172D01*
D02*
G37*
G36*
X208672Y145776D02*
X208266Y145353D01*
X207620Y144565D01*
X207380Y144201D01*
X207196Y143857D01*
X207066Y143533D01*
X206992Y143229D01*
X206973Y142945D01*
X207009Y142680D01*
X207100Y142436D01*
X204693Y147181D01*
X204829Y146976D01*
X204995Y146838D01*
X205192Y146766D01*
X205419Y146760D01*
X205677Y146821D01*
X205965Y146947D01*
X206283Y147141D01*
X206632Y147400D01*
X207012Y147726D01*
X207422Y148118D01*
X208672Y145776D01*
D02*
G37*
G36*
X42733Y134585D02*
X42560Y134331D01*
X42408Y134040D01*
X42276Y133713D01*
X42164Y133349D01*
X42073Y132949D01*
X42001Y132512D01*
X41951Y132039D01*
X41910Y130983D01*
X36830D01*
X36820Y131529D01*
X36739Y132512D01*
X36667Y132949D01*
X36576Y133349D01*
X36464Y133713D01*
X36332Y134040D01*
X36180Y134331D01*
X36007Y134585D01*
X35814Y134802D01*
X42926D01*
X42733Y134585D01*
D02*
G37*
G36*
X125839Y130932D02*
X125228Y130843D01*
X124614Y130695D01*
X123995Y130488D01*
X123373Y130223D01*
X122748Y129900D01*
X122119Y129517D01*
X121485Y129076D01*
X120849Y128577D01*
X119564Y127402D01*
X115481Y130503D01*
X116376Y131433D01*
X117758Y133101D01*
X118244Y133837D01*
X118595Y134508D01*
X118810Y135115D01*
X118888Y135657D01*
X118830Y136134D01*
X118637Y136546D01*
X118307Y136894D01*
X125839Y130932D01*
D02*
G37*
G36*
X133262Y90599D02*
X133416Y90168D01*
X133673Y89787D01*
X134031Y89456D01*
X134491Y89177D01*
X135053Y88948D01*
X135717Y88771D01*
X136483Y88644D01*
X137350Y88567D01*
X138320Y88542D01*
Y83462D01*
X137354Y83451D01*
X135068Y83292D01*
X134509Y83196D01*
X134052Y83080D01*
X133697Y82942D01*
X133443Y82783D01*
X133290Y82602D01*
X133239Y82401D01*
X133209Y91082D01*
X133262Y90599D01*
D02*
G37*
G36*
X123301Y82401D02*
X123250Y82815D01*
X123097Y83185D01*
X122843Y83512D01*
X122488Y83795D01*
X122030Y84035D01*
X121472Y84231D01*
X120811Y84384D01*
X120049Y84493D01*
X119186Y84558D01*
X118221Y84580D01*
Y89660D01*
X119186Y89682D01*
X120049Y89747D01*
X120811Y89856D01*
X121472Y90009D01*
X122030Y90205D01*
X122488Y90445D01*
X122843Y90728D01*
X123097Y91055D01*
X123250Y91425D01*
X123301Y91840D01*
Y82401D01*
D02*
G37*
G36*
X102514Y83867D02*
X102348Y83611D01*
X102200Y83319D01*
X102073Y82990D01*
X101965Y82625D01*
X101877Y82224D01*
X101808Y81786D01*
X101759Y81312D01*
X101720Y80254D01*
X96640Y80115D01*
X96629Y80662D01*
X96546Y81643D01*
X96472Y82079D01*
X96378Y82478D01*
X96262Y82840D01*
X96126Y83165D01*
X95968Y83453D01*
X95790Y83705D01*
X95591Y83919D01*
X102701Y84087D01*
X102514Y83867D01*
D02*
G37*
G36*
X102711Y67590D02*
X102675Y67778D01*
X102569Y67946D01*
X102393Y68095D01*
X102146Y68223D01*
X101828Y68332D01*
X101440Y68422D01*
X100981Y68491D01*
X100451Y68540D01*
X99180Y68580D01*
Y73660D01*
X99851Y73664D01*
X102146Y73818D01*
X102393Y73875D01*
X102569Y73941D01*
X102675Y74016D01*
X102711Y74099D01*
Y67590D01*
D02*
G37*
G36*
X110655Y73722D02*
X110761Y73554D01*
X110940Y73405D01*
X111189Y73277D01*
X111509Y73168D01*
X111901Y73078D01*
X112364Y73009D01*
X112898Y72960D01*
X114180Y72920D01*
Y67840D01*
X113503Y67830D01*
X112364Y67751D01*
X111901Y67681D01*
X111509Y67592D01*
X111189Y67483D01*
X110940Y67355D01*
X110761Y67206D01*
X110655Y67038D01*
X110619Y66849D01*
Y73910D01*
X110655Y73722D01*
D02*
G37*
G36*
X97711Y66660D02*
X97660Y66885D01*
X97507Y67085D01*
X97253Y67262D01*
X96898Y67415D01*
X96440Y67545D01*
X95882Y67651D01*
X95221Y67734D01*
X93596Y67828D01*
X92631Y67840D01*
Y72920D01*
X93596Y72932D01*
X95882Y73109D01*
X96440Y73215D01*
X96898Y73345D01*
X97253Y73498D01*
X97507Y73675D01*
X97660Y73875D01*
X97711Y74099D01*
Y66660D01*
D02*
G37*
G36*
X155939Y72479D02*
X157702Y71000D01*
X158469Y70482D01*
X159161Y70112D01*
X159775Y69889D01*
X160314Y69813D01*
X160776Y69885D01*
X161162Y70105D01*
X161472Y70472D01*
X156018Y61618D01*
X156226Y62087D01*
X156308Y62611D01*
X156262Y63190D01*
X156090Y63826D01*
X155791Y64516D01*
X155366Y65262D01*
X154813Y66064D01*
X154134Y66921D01*
X153328Y67834D01*
X152395Y68802D01*
X154942Y73440D01*
X155939Y72479D01*
D02*
G37*
G36*
X132778Y66350D02*
X132365Y66197D01*
X132000Y65943D01*
X131685Y65588D01*
X131417Y65131D01*
X131199Y64572D01*
X131029Y63911D01*
X130907Y63149D01*
X130895Y63000D01*
X130907Y62851D01*
X131029Y62089D01*
X131199Y61428D01*
X131417Y60869D01*
X131685Y60412D01*
X132000Y60057D01*
X132365Y59803D01*
X132778Y59650D01*
X133239Y59599D01*
X123301D01*
X123762Y59650D01*
X124175Y59803D01*
X124540Y60057D01*
X124855Y60412D01*
X125123Y60869D01*
X125341Y61428D01*
X125511Y62089D01*
X125633Y62851D01*
X125645Y63000D01*
X125633Y63149D01*
X125511Y63911D01*
X125341Y64572D01*
X125123Y65131D01*
X124855Y65588D01*
X124540Y65943D01*
X124175Y66197D01*
X123762Y66350D01*
X123301Y66400D01*
X133239D01*
X132778Y66350D01*
D02*
G37*
G36*
X113920Y60477D02*
X114073Y60046D01*
X114329Y59665D01*
X114687Y59334D01*
X115147Y59055D01*
X115709Y58826D01*
X116373Y58649D01*
X117140Y58522D01*
X118008Y58445D01*
X118738Y58426D01*
X119186Y58432D01*
X121472Y58609D01*
X122030Y58715D01*
X122488Y58845D01*
X122843Y58998D01*
X123097Y59175D01*
X123250Y59375D01*
X123301Y59599D01*
Y52161D01*
X123250Y52385D01*
X123097Y52585D01*
X122843Y52762D01*
X122488Y52915D01*
X122030Y53045D01*
X121472Y53151D01*
X120811Y53234D01*
X119186Y53328D01*
X118738Y53334D01*
X118008Y53315D01*
X117140Y53238D01*
X116373Y53111D01*
X115709Y52934D01*
X115147Y52705D01*
X114687Y52426D01*
X114329Y52095D01*
X114073Y51714D01*
X113920Y51283D01*
X113869Y50800D01*
Y60960D01*
X113920Y60477D01*
D02*
G37*
G36*
X105234Y47639D02*
X105450D01*
X105452Y47191D01*
X106720D01*
X106479Y47165D01*
X106263Y47088D01*
X106072Y46960D01*
X105907Y46780D01*
X105767Y46548D01*
X105653Y46266D01*
X105564Y45931D01*
X105540Y45785D01*
X105578Y45201D01*
X105612Y45125D01*
X105649Y45100D01*
X105463D01*
X105450Y44620D01*
X102910D01*
X102898Y45100D01*
X102711D01*
X102748Y45125D01*
X102782Y45201D01*
X102812Y45328D01*
X102838Y45506D01*
X102847Y45619D01*
X102796Y45931D01*
X102707Y46266D01*
X102592Y46548D01*
X102453Y46780D01*
X102288Y46960D01*
X102097Y47088D01*
X101881Y47165D01*
X101640Y47191D01*
X102749D01*
X102715Y47254D01*
X102655Y47321D01*
X102588Y47357D01*
X102512Y47362D01*
X104713Y49686D01*
X105234Y47639D01*
D02*
G37*
G36*
X88924Y48584D02*
X88997Y47721D01*
X89119Y46959D01*
X89289Y46298D01*
X89507Y45739D01*
X89775Y45282D01*
X90090Y44927D01*
X90455Y44673D01*
X90868Y44520D01*
X91329Y44469D01*
X81390D01*
X81852Y44520D01*
X82265Y44673D01*
X82630Y44927D01*
X82945Y45282D01*
X83213Y45739D01*
X83431Y46298D01*
X83601Y46959D01*
X83723Y47721D01*
X83796Y48584D01*
X83820Y49549D01*
X88900D01*
X88924Y48584D01*
D02*
G37*
G36*
X123301Y42512D02*
X125510Y42658D01*
X125837Y42737D01*
X126075Y42827D01*
X126225Y42927D01*
Y39333D01*
X126075Y39433D01*
X125837Y39523D01*
X125510Y39602D01*
X125094Y39670D01*
X123997Y39776D01*
X123301Y39799D01*
Y38590D01*
X123275Y38831D01*
X123199Y39047D01*
X123072Y39238D01*
X122894Y39403D01*
X122666Y39543D01*
X122386Y39657D01*
X122056Y39746D01*
X121675Y39809D01*
X121243Y39847D01*
X120766Y39860D01*
X120740Y39860D01*
Y42400D01*
X120766Y42400D01*
X121243Y42413D01*
X121675Y42451D01*
X122056Y42514D01*
X122386Y42603D01*
X122666Y42717D01*
X122894Y42857D01*
X123072Y43022D01*
X123199Y43213D01*
X123275Y43429D01*
X123301Y43670D01*
Y42512D01*
D02*
G37*
G36*
X115645Y43429D02*
X115722Y43213D01*
X115850Y43022D01*
X116030Y42857D01*
X116262Y42717D01*
X116544Y42603D01*
X116879Y42514D01*
X117264Y42451D01*
X117701Y42413D01*
X118189Y42400D01*
Y39860D01*
X117701Y39847D01*
X117264Y39809D01*
X116879Y39746D01*
X116544Y39657D01*
X116262Y39543D01*
X116030Y39403D01*
X115850Y39238D01*
X115722Y39047D01*
X115645Y38831D01*
X115619Y38590D01*
Y43670D01*
X115645Y43429D01*
D02*
G37*
G36*
X69941Y46522D02*
X70573Y46106D01*
X71229Y45739D01*
X71909Y45421D01*
X72613Y45152D01*
X73341Y44932D01*
X74093Y44760D01*
X74868Y44638D01*
X75668Y44564D01*
X76491Y44540D01*
Y44538D01*
X81390Y44469D01*
Y36920D01*
X81340Y37403D01*
X81187Y37834D01*
X80933Y38215D01*
X80578Y38546D01*
X80120Y38825D01*
X79562Y39054D01*
X78901Y39231D01*
X78139Y39358D01*
X77276Y39435D01*
X76406Y39457D01*
X75668Y39436D01*
X74868Y39362D01*
X74093Y39240D01*
X73341Y39068D01*
X72613Y38848D01*
X71909Y38579D01*
X71229Y38261D01*
X70573Y37894D01*
X69941Y37478D01*
X69332Y37013D01*
Y46988D01*
X69941Y46522D01*
D02*
G37*
G36*
X100612Y37635D02*
X100578Y37559D01*
X100548Y37432D01*
X100522Y37254D01*
X100482Y36746D01*
X100454Y35308D01*
X100463Y34963D01*
X100501Y34527D01*
X100564Y34142D01*
X100653Y33809D01*
X100767Y33526D01*
X100907Y33295D01*
X101072Y33114D01*
X101263Y32985D01*
X101479Y32906D01*
X101720Y32879D01*
X97430Y32910D01*
X97522Y32935D01*
X97603Y33011D01*
X97675Y33138D01*
X97737Y33316D01*
X97790Y33544D01*
X97833Y33824D01*
X97891Y34535D01*
X97909Y35395D01*
X97908Y35603D01*
X97782Y37559D01*
X97748Y37635D01*
X97711Y37661D01*
X100649D01*
X100612Y37635D01*
D02*
G37*
G36*
X161840Y23508D02*
X161513Y23858D01*
X161111Y24061D01*
X160634Y24118D01*
X160083Y24030D01*
X159456Y23795D01*
X158755Y23415D01*
X157979Y22888D01*
X157129Y22215D01*
X156203Y21397D01*
X155203Y20432D01*
X152406Y24819D01*
X153353Y25802D01*
X154857Y27591D01*
X155413Y28397D01*
X155840Y29144D01*
X156136Y29832D01*
X156302Y30460D01*
X156337Y31030D01*
X156243Y31541D01*
X156018Y31993D01*
X161840Y23508D01*
D02*
G37*
G36*
X81390Y19030D02*
X81340Y19278D01*
X81187Y19500D01*
X80933Y19696D01*
X80578Y19865D01*
X80120Y20009D01*
X79562Y20126D01*
X78901Y20218D01*
X77276Y20322D01*
X76607Y20331D01*
X75520Y20310D01*
X73359Y20108D01*
X72491Y19932D01*
X71763Y19705D01*
X71178Y19428D01*
X70733Y19100D01*
X70430Y18722D01*
X70268Y18293D01*
X70248Y17814D01*
X69332Y26988D01*
X69744Y26689D01*
X70212Y26421D01*
X70737Y26186D01*
X71319Y25981D01*
X71957Y25808D01*
X72652Y25667D01*
X73404Y25556D01*
X75078Y25431D01*
X76000Y25415D01*
X76311Y23474D01*
Y25415D01*
X77276Y25440D01*
X78139Y25517D01*
X78901Y25644D01*
X79562Y25821D01*
X80120Y26050D01*
X80578Y26329D01*
X80933Y26660D01*
X81187Y27041D01*
X81340Y27472D01*
X81390Y27955D01*
Y19030D01*
D02*
G37*
G36*
X117107Y22945D02*
X116891Y22869D01*
X116700Y22742D01*
X116535Y22564D01*
X116396Y22336D01*
X116281Y22056D01*
X116192Y21726D01*
X116129Y21345D01*
X116091Y20913D01*
X116078Y20431D01*
X113538D01*
X113527Y20913D01*
X113494Y21345D01*
X113438Y21726D01*
X113361Y22056D01*
X113261Y22336D01*
X113139Y22564D01*
X112995Y22742D01*
X112829Y22869D01*
X112641Y22945D01*
X112430Y22970D01*
X117348D01*
X117107Y22945D01*
D02*
G37*
G36*
X116091Y18187D02*
X116129Y17755D01*
X116192Y17374D01*
X116281Y17044D01*
X116396Y16765D01*
X116535Y16536D01*
X116700Y16358D01*
X116891Y16231D01*
X117107Y16155D01*
X117348Y16129D01*
X112268D01*
X112509Y16155D01*
X112725Y16231D01*
X112916Y16358D01*
X113081Y16536D01*
X113221Y16765D01*
X113335Y17044D01*
X113424Y17374D01*
X113487Y17755D01*
X113525Y18187D01*
X113538Y18670D01*
X116078D01*
X116091Y18187D01*
D02*
G37*
G36*
X143469Y11080D02*
X142500Y11055D01*
X141633Y10978D01*
X140868Y10851D01*
X140204Y10674D01*
X139642Y10445D01*
X139182Y10166D01*
X138823Y9835D01*
X138567Y9454D01*
X138412Y9023D01*
X138359Y8540D01*
X138390Y16129D01*
X143469Y16160D01*
Y11080D01*
D02*
G37*
D10*
X73592Y309948D02*
X113540Y270000D01*
X63152Y309948D02*
X73592D01*
X113540Y270000D02*
X169100D01*
X63152Y322648D02*
X72322D01*
X114970Y280000D02*
X181800D01*
X62500Y323300D02*
X63152Y322648D01*
X72322D02*
X114970Y280000D01*
X62500Y310600D02*
X63152Y309948D01*
Y297248D02*
X74862D01*
X112110Y260000D02*
X156400D01*
X74862Y297248D02*
X112110Y260000D01*
X111950Y250000D02*
X143700D01*
X63152Y284548D02*
X77402D01*
X111950Y250000D01*
X91990Y259800D02*
X111790Y240000D01*
X62500Y259800D02*
X91990D01*
X111790Y240000D02*
X131000D01*
X118152Y230148D02*
X118300Y230000D01*
X95800Y247100D02*
X112752Y230148D01*
X118152D01*
X62500Y247100D02*
X95800D01*
X222250Y161150D02*
Y229870D01*
X200800Y139700D02*
X222250Y161150D01*
X267970Y318770D02*
X270510D01*
X250740Y336000D02*
X267970Y318770D01*
X237500Y336000D02*
X250740D01*
X237500Y348700D02*
X253280D01*
X257810Y344170D01*
X114808Y26598D02*
X116150Y27940D01*
X111420Y8890D02*
X114808Y12278D01*
Y26598D01*
X99180Y26670D02*
Y41380D01*
X99180Y41380D02*
X99180Y41380D01*
X114430Y41130D02*
X128020D01*
X104180Y41380D02*
Y48400D01*
X237500Y221700D02*
X267490D01*
X270510Y218680D01*
X105410Y209390D02*
Y223520D01*
Y209390D02*
X105600Y209200D01*
X63500Y209550D02*
Y220700D01*
X62500Y221700D02*
X63500Y220700D01*
X62500Y234400D02*
X92710D01*
X194500Y290000D02*
Y290267D01*
Y209200D02*
Y290000D01*
X62500Y297900D02*
X63152Y297248D01*
X62500Y285200D02*
X63152Y284548D01*
X222250Y229870D02*
X226780Y234400D01*
X237500D01*
D14*
Y386800D02*
D03*
Y374100D02*
D03*
Y361400D02*
D03*
Y348700D02*
D03*
Y336000D02*
D03*
Y323300D02*
D03*
Y310600D02*
D03*
Y297900D02*
D03*
Y285200D02*
D03*
Y272500D02*
D03*
Y259800D02*
D03*
Y247100D02*
D03*
Y234400D02*
D03*
Y221700D02*
D03*
X62500D02*
D03*
Y234400D02*
D03*
Y247100D02*
D03*
Y259800D02*
D03*
Y272500D02*
D03*
Y285200D02*
D03*
Y297900D02*
D03*
Y310600D02*
D03*
Y323300D02*
D03*
Y336000D02*
D03*
Y348700D02*
D03*
Y361400D02*
D03*
Y374100D02*
D03*
Y386800D02*
D03*
D15*
X156400Y209200D02*
D03*
X207200D02*
D03*
X194500D02*
D03*
X181800D02*
D03*
X169100D02*
D03*
X143700D02*
D03*
X131000D02*
D03*
X118300D02*
D03*
X105600D02*
D03*
X92900D02*
D03*
D16*
X135000Y309600D02*
D03*
D17*
X86360Y39750D02*
D03*
Y23750D02*
D03*
X128270Y71120D02*
D03*
Y87120D02*
D03*
D18*
X106680Y55880D02*
D03*
D19*
X114180Y41380D02*
D03*
X109180D02*
D03*
X104180D02*
D03*
X99180D02*
D03*
Y70380D02*
D03*
X104180D02*
D03*
X109180D02*
D03*
X114180D02*
D03*
D20*
X116150Y27940D02*
D03*
X101150D02*
D03*
D22*
X128270Y40880D02*
D03*
Y55880D02*
D03*
D23*
X270510Y218680D02*
D03*
Y248680D02*
D03*
D39*
X132420Y10160D02*
D03*
X111420Y10160D02*
D03*
D40*
X86360Y66040D02*
X90700Y70380D01*
X99180D01*
X86360Y39750D02*
Y42000D01*
Y41960D02*
Y66040D01*
X101970Y49750D02*
X102180Y49960D01*
X217170Y386800D02*
X237500D01*
X138788Y86002D02*
X158359Y66431D01*
X158727D01*
X163410Y61749D01*
Y32231D02*
Y61749D01*
X129388Y86002D02*
X138788D01*
X135880Y13620D02*
X144799D01*
X158727Y27549D01*
X158727D01*
X163410Y32231D01*
X124600Y136030D02*
Y139700D01*
X111760Y123190D02*
X124600Y136030D01*
X42346Y123190D02*
X111760D01*
X39370Y126166D02*
X42346Y123190D01*
X39370Y126166D02*
Y138430D01*
X128270Y87120D02*
X129388Y86002D01*
X99180Y71120D02*
X102835D01*
X99180D02*
Y87510D01*
X99060Y87630D02*
X99180Y87510D01*
X64875Y22875D02*
X85485D01*
X64000Y22000D02*
X64875Y22875D01*
X85485D02*
X86360Y23750D01*
X64000Y42000D02*
X83860D01*
X128270Y55880D02*
Y71120D01*
X133021Y10761D02*
X135880Y13620D01*
X133021Y9831D02*
Y10761D01*
X117600Y87120D02*
X128270D01*
X106680Y55880D02*
X128270D01*
X128020Y41130D02*
X128270Y40880D01*
X102180Y49960D02*
Y50080D01*
X102835Y71120D02*
X102929Y71214D01*
X114180Y83700D02*
X117600Y87120D01*
X114180Y70380D02*
Y83700D01*
X110381Y70380D02*
X114180D01*
X62500Y374100D02*
X77470D01*
X62500Y386800D02*
X77470D01*
X92900Y192850D02*
Y209200D01*
X99200Y165100D02*
Y186550D01*
X92900Y192850D02*
X99200Y186550D01*
X270510Y254790D02*
Y293370D01*
D41*
X76750Y361400D02*
X81280Y356870D01*
X62500Y361400D02*
X76750D01*
D42*
X135000Y309600D02*
D03*
Y294600D02*
D03*
Y324670D02*
D03*
X150000Y309600D02*
D03*
X120000D02*
D03*
Y294600D02*
D03*
X150000D02*
D03*
Y324670D02*
D03*
X120000D02*
D03*
D43*
X111180Y49880D02*
D03*
X102180D02*
D03*
X111180Y61880D02*
D03*
X102180D02*
D03*
D44*
X64000Y22000D02*
D03*
Y42000D02*
D03*
D45*
X150000Y165100D02*
D03*
X175400Y139700D02*
D03*
X124600Y165100D02*
D03*
Y139700D02*
D03*
X99200Y165100D02*
D03*
Y139700D02*
D03*
X150000D02*
D03*
X200800D02*
D03*
Y165100D02*
D03*
X175400Y165100D02*
D03*
D46*
X235000Y46990D02*
D03*
X166000D02*
D03*
D47*
X197500Y94990D02*
D03*
D48*
X270510Y344170D02*
D03*
Y293370D02*
D03*
Y318770D02*
D03*
X29000Y224790D02*
D03*
Y275590D02*
D03*
Y250190D02*
D03*
Y300990D02*
D03*
D49*
X275000Y130000D02*
D03*
X25000Y90000D02*
D03*
X20000Y380000D02*
D03*
X280000D02*
D03*
D50*
X217170Y386800D02*
D03*
X39370Y138430D02*
D03*
X99060Y87630D02*
D03*
D51*
X105410Y223520D02*
D03*
X63500Y209550D02*
D03*
X92710Y234400D02*
D03*
X194500Y290000D02*
D03*
X181800Y280000D02*
D03*
X118300Y230000D02*
D03*
X169100Y270000D02*
D03*
X156400Y260000D02*
D03*
X131000Y240000D02*
D03*
X143700Y250000D02*
D03*
X81280Y356870D02*
D03*
X77470Y374100D02*
D03*
Y386800D02*
D03*
M02*
