M48
;Layer_Color=9474304
;FILE_FORMAT=4:2
METRIC,LZ
;TYPE=PLATED
T01F00S00C0.15
T02F00S00C0.20
T03F00S00C0.25
T04F00S00C1.00
;TYPE=NON_PLATED
T05F00S00C2.50
%
T01
X-000461Y003772
X-000479Y00379
X-000461Y003808
X-000443Y00379
Y003825
X-000461Y003843
X-000479Y003825
X-000497Y003808
X-000424Y003808
X-000381Y00406
X-000399Y004078
X-000381Y004096
X-000363Y004078
Y004114
X-000381Y004132
X-000399Y004114
X-000417Y004096
X-000344Y004097
X-000071Y003811
X-000054Y003829
X-000036Y003811
X-000018Y003793
X-000036Y003775
X-000054Y003793
X-000036Y003847
X-000018Y003829
X000002Y003812
X000894Y00392
X000876Y003938
X000894Y003956
X000912Y003938
Y003974
X000894Y003992
X000876Y003974
X000858Y003956
X000931Y003957
X000924Y00411
X000904Y004127
X000887Y004145
X000887Y004109
X000887Y004073
X000869Y004091
X000851Y004109
X000869Y004127
X000904Y004091
T02
X0008Y001886
X000737Y002013
X0008Y002508
X000737Y002635
X000508Y002546
X000368Y002508
X000241Y002496
X000279Y002839
X000909Y003834
T03
X00017Y003166
Y003316
X00032
X00047
Y003166
X00032
Y003467
X00047
X00017
T04
X-000546Y0006
X-000346
X-000146
X000346
X000546Y0006
X00057Y001
Y0012
Y0014
Y0016
Y0018
Y002
X-00057
Y0018
Y0016
Y0014
Y0012
Y001
X-000991Y002559
X-000991Y002813
X-000991Y003067
X-00104Y0038
Y004
T05
X000975Y0002
X-000975
X0Y00175
M30
