G04*
G04 #@! TF.GenerationSoftware,Altium Limited,Altium Designer,24.10.1 (45)*
G04*
G04 Layer_Color=8421504*
%FSLAX44Y44*%
%MOMM*%
G71*
G04*
G04 #@! TF.SameCoordinates,13406729-6A9E-4D45-95CC-4102649AE279*
G04*
G04*
G04 #@! TF.FilePolarity,Positive*
G04*
G01*
G75*
%ADD14R,1.3781X0.3281*%
%ADD15R,0.7500X1.0000*%
%ADD16R,1.4500X1.1500*%
%ADD17R,0.9500X1.0000*%
%ADD18R,1.0000X0.9500*%
%ADD19R,1.0000X0.7500*%
D14*
X171000Y110250D02*
D03*
Y116750D02*
D03*
Y103750D02*
D03*
Y129750D02*
D03*
Y123250D02*
D03*
Y142750D02*
D03*
Y136250D02*
D03*
Y97250D02*
D03*
X229000Y110250D02*
D03*
Y116750D02*
D03*
Y103750D02*
D03*
Y129750D02*
D03*
Y123250D02*
D03*
Y142750D02*
D03*
Y136250D02*
D03*
Y97250D02*
D03*
X171000Y396250D02*
D03*
X171000Y402750D02*
D03*
X171000Y370250D02*
D03*
X171000Y376750D02*
D03*
Y363750D02*
D03*
Y389750D02*
D03*
X171000Y383250D02*
D03*
Y357250D02*
D03*
X229000Y370250D02*
D03*
X229000Y376750D02*
D03*
Y363750D02*
D03*
Y389750D02*
D03*
X229000Y383250D02*
D03*
X229000Y402750D02*
D03*
X229000Y396250D02*
D03*
X229000Y357250D02*
D03*
X171000Y240250D02*
D03*
Y246750D02*
D03*
Y233750D02*
D03*
Y259750D02*
D03*
Y253250D02*
D03*
Y272750D02*
D03*
Y266250D02*
D03*
Y227250D02*
D03*
X229000Y240250D02*
D03*
Y246750D02*
D03*
X229000Y233750D02*
D03*
X229000Y259750D02*
D03*
Y253250D02*
D03*
Y272750D02*
D03*
Y266250D02*
D03*
Y227250D02*
D03*
D15*
X125000Y53340D02*
D03*
X140000D02*
D03*
X216020Y160140D02*
D03*
X231020D02*
D03*
Y289680D02*
D03*
X216020Y289680D02*
D03*
D16*
X127000Y176850D02*
D03*
Y196850D02*
D03*
X120000Y390000D02*
D03*
X120000Y370000D02*
D03*
X140000D02*
D03*
Y350000D02*
D03*
X120000Y260000D02*
D03*
Y240000D02*
D03*
X140000D02*
D03*
Y220000D02*
D03*
X120000Y130000D02*
D03*
Y110000D02*
D03*
X140000Y90000D02*
D03*
X140000Y110000D02*
D03*
X127000Y303500D02*
D03*
Y323500D02*
D03*
D17*
X124000Y69850D02*
D03*
X140000D02*
D03*
X231520Y175260D02*
D03*
X215520D02*
D03*
Y304680D02*
D03*
X231520D02*
D03*
D18*
X140000Y406000D02*
D03*
Y390000D02*
D03*
X139700Y258700D02*
D03*
Y274700D02*
D03*
X140000Y130000D02*
D03*
Y146000D02*
D03*
D19*
X200660Y160140D02*
D03*
Y175140D02*
D03*
X200660Y304680D02*
D03*
X200660Y289680D02*
D03*
M02*
