G04*
G04 #@! TF.GenerationSoftware,Altium Limited,Altium Designer,24.10.1 (45)*
G04*
G04 Layer_Color=255*
%FSLAX44Y44*%
%MOMM*%
G71*
G04*
G04 #@! TF.SameCoordinates,13406729-6A9E-4D45-95CC-4102649AE279*
G04*
G04*
G04 #@! TF.FilePolarity,Positive*
G04*
G01*
G75*
%ADD15R,0.7500X1.0000*%
%ADD17R,0.9500X1.0000*%
%ADD18R,1.0000X0.9500*%
%ADD19R,1.0000X0.7500*%
%ADD34O,1.6000X1.2000*%
%ADD35O,1.7780X1.2700*%
%ADD36C,1.5000*%
%ADD48R,0.5800X1.1800*%
D15*
X157360Y374500D02*
D03*
X142360D02*
D03*
X228720Y198100D02*
D03*
X243720Y198100D02*
D03*
X213480Y340100D02*
D03*
X228480D02*
D03*
X135770Y254500D02*
D03*
X120770D02*
D03*
D17*
X157860Y359500D02*
D03*
X141860D02*
D03*
X228220Y213100D02*
D03*
X244220Y213100D02*
D03*
X120270Y269500D02*
D03*
X136270D02*
D03*
D18*
X213480Y309500D02*
D03*
Y325500D02*
D03*
D19*
X37300Y427500D02*
D03*
Y442500D02*
D03*
X172700Y359500D02*
D03*
X172700Y374500D02*
D03*
X213360Y198100D02*
D03*
Y213100D02*
D03*
X228480Y310000D02*
D03*
Y325000D02*
D03*
X151130Y269500D02*
D03*
X151130Y254500D02*
D03*
D34*
X285000Y162500D02*
D03*
Y142500D02*
D03*
Y337500D02*
D03*
Y357500D02*
D03*
Y402500D02*
D03*
Y422500D02*
D03*
Y207500D02*
D03*
Y227500D02*
D03*
Y292500D02*
D03*
Y272500D02*
D03*
Y77500D02*
D03*
Y97500D02*
D03*
D35*
X62700Y377000D02*
D03*
X62700Y402400D02*
D03*
X62700Y199200D02*
D03*
X37300Y199200D02*
D03*
Y173800D02*
D03*
X62700D02*
D03*
Y224600D02*
D03*
X37300D02*
D03*
X62700Y351600D02*
D03*
X37300Y326200D02*
D03*
Y377000D02*
D03*
Y402400D02*
D03*
Y275400D02*
D03*
X37300Y250000D02*
D03*
X37300Y351600D02*
D03*
Y300800D02*
D03*
X62700Y300800D02*
D03*
Y250000D02*
D03*
Y275400D02*
D03*
X62700Y326200D02*
D03*
X37300Y148400D02*
D03*
X62700Y148400D02*
D03*
Y97600D02*
D03*
X37300D02*
D03*
Y123000D02*
D03*
X62700Y123000D02*
D03*
D36*
X25000Y475000D02*
D03*
X325000D02*
D03*
Y25000D02*
D03*
X25000D02*
D03*
D48*
X121900Y213100D02*
D03*
X134600D02*
D03*
X147300D02*
D03*
X160000D02*
D03*
X172700D02*
D03*
X185400D02*
D03*
X198100D02*
D03*
X147300Y159900D02*
D03*
X121900D02*
D03*
X134600D02*
D03*
X185400D02*
D03*
X172700D02*
D03*
X160000D02*
D03*
X198100D02*
D03*
Y286900D02*
D03*
X160000Y286900D02*
D03*
X172700Y286900D02*
D03*
X185400D02*
D03*
X134600D02*
D03*
X121900D02*
D03*
X147300D02*
D03*
X198100Y340100D02*
D03*
X185400D02*
D03*
X172700D02*
D03*
X160000D02*
D03*
X147300D02*
D03*
X134600D02*
D03*
X121900D02*
D03*
M02*
