G04*
G04 #@! TF.GenerationSoftware,Altium Limited,Altium Designer,24.10.1 (45)*
G04*
G04 Layer_Color=32768*
%FSLAX44Y44*%
%MOMM*%
G71*
G04*
G04 #@! TF.SameCoordinates,13406729-6A9E-4D45-95CC-4102649AE279*
G04*
G04*
G04 #@! TF.FilePolarity,Positive*
G04*
G01*
G75*
%ADD11C,0.1000*%
%ADD12C,0.1270*%
%ADD13C,0.2540*%
D11*
X119500Y46340D02*
Y60340D01*
Y46340D02*
X145500D01*
Y60340D01*
X119500D02*
X145500D01*
X30300Y422000D02*
Y448000D01*
Y422000D02*
X44300D01*
Y448000D01*
X30300D02*
X44300D01*
X165700Y354000D02*
Y380000D01*
Y354000D02*
X179700D01*
X179700Y380000D01*
X165700D02*
X179700D01*
X206360Y192600D02*
X220360D01*
X206360D02*
Y218600D01*
X220360D01*
Y192600D02*
Y218600D01*
X136860Y367500D02*
X162860D01*
X162860Y381500D02*
X162860Y367500D01*
X136860Y381500D02*
X162860D01*
X136860D02*
X136860Y367500D01*
X223220Y205100D02*
X249220D01*
X223220Y191100D02*
Y205100D01*
Y191100D02*
X249220D01*
Y205100D01*
X207980Y347100D02*
X233980D01*
X207980Y333100D02*
X207980Y347100D01*
X207980Y333100D02*
X233980D01*
X233980Y347100D01*
X193660Y154640D02*
X207660D01*
Y180640D01*
X193660D02*
X207660D01*
X193660Y154640D02*
Y180640D01*
X221480Y304500D02*
X235480D01*
X221480D02*
Y330500D01*
X235480D01*
Y304500D02*
Y330500D01*
X210520Y153140D02*
X236520D01*
X210520D02*
Y167140D01*
X236520D01*
X236520Y153140D01*
X193660Y284180D02*
Y310180D01*
X207660D01*
Y284180D02*
Y310180D01*
X193660Y284180D02*
X207660D01*
X236520Y282680D02*
Y296680D01*
X210520D02*
X236520D01*
X210520Y282680D02*
Y296680D01*
Y282680D02*
X236520D01*
X158130Y249000D02*
Y275000D01*
X144130D02*
X158130D01*
X144130Y249000D02*
Y275000D01*
Y249000D02*
X158130D01*
X115270Y247500D02*
X141270Y247500D01*
Y261500D01*
X115270D02*
X141270D01*
X115270Y247500D02*
X115270Y261500D01*
D12*
X161690Y90790D02*
X240640D01*
X161690D02*
Y149210D01*
X240640D01*
Y90790D02*
Y149210D01*
X115550Y152210D02*
X115550Y222060D01*
X115550Y152210D02*
X204450D01*
X204450Y222060D02*
X204450Y152210D01*
X115550Y222060D02*
X204450D01*
X136144Y169070D02*
Y204630D01*
X117856Y169070D02*
X136144D01*
X117856D02*
Y204630D01*
X136144D01*
X146732Y62992D02*
Y76708D01*
X117268Y76708D02*
X146732Y76708D01*
X117268Y76708D02*
X117268Y62992D01*
X146732D01*
X110856Y397780D02*
X129144D01*
X110856Y362220D02*
Y397780D01*
Y362220D02*
X129144D01*
X129144Y397780D02*
X129144Y362220D01*
X133142Y383268D02*
X146858D01*
X146858Y412732D02*
X146858Y383268D01*
X133142Y412732D02*
X146858D01*
X133142Y383268D02*
Y412732D01*
X130856Y342220D02*
Y377780D01*
X149144D01*
Y342220D02*
Y377780D01*
X130856Y342220D02*
X149144D01*
X132842Y251968D02*
Y281432D01*
X146558D01*
X146558Y251968D01*
X132842D02*
X146558D01*
X110856Y267780D02*
X129144D01*
X110856D02*
X110856Y232220D01*
X129144D01*
Y267780D01*
X130856Y247780D02*
X130856Y212220D01*
X130856Y247780D02*
X149144D01*
Y212220D02*
Y247780D01*
X130856Y212220D02*
X149144Y212220D01*
X133142Y123268D02*
Y152732D01*
X146858D01*
Y123268D02*
Y152732D01*
X133142Y123268D02*
X146858Y123268D01*
X110856Y137780D02*
X129144D01*
X110856Y102220D02*
X110856Y137780D01*
X110856Y102220D02*
X129144D01*
X129144Y137780D02*
X129144Y102220D01*
X130856Y82220D02*
X149144D01*
Y117780D01*
X130856D02*
X149144D01*
X130856D02*
X130856Y82220D01*
X136144Y331280D02*
X136144Y295720D01*
X117856D02*
X136144D01*
X117856D02*
Y331280D01*
X136144Y331280D01*
X135128Y366358D02*
X164592Y366358D01*
X135128Y366358D02*
X135128Y352642D01*
X164592Y352642D01*
X164592Y366358D02*
X164592Y352642D01*
X221488Y206242D02*
X250952Y206242D01*
Y219958D01*
X221488D02*
X250952D01*
X221488Y206242D02*
Y219958D01*
X206622Y332232D02*
X220338D01*
X220338Y302768D02*
X220338Y332232D01*
X206622Y302768D02*
X220338D01*
X206622Y332232D02*
X206622Y302768D01*
X208788Y168402D02*
Y182118D01*
Y168402D02*
X238252Y168402D01*
X238252Y182118D02*
X238252Y168402D01*
X208788Y182118D02*
X238252Y182118D01*
X208788Y311538D02*
X238252D01*
Y297822D02*
Y311538D01*
X208788Y297822D02*
X238252D01*
X208788D02*
Y311538D01*
X143002Y262642D02*
Y276358D01*
X113538Y262642D02*
X143002Y262642D01*
X113538Y262642D02*
Y276358D01*
X143002Y276358D01*
X115550Y349060D02*
X204450D01*
X204450Y279210D01*
X115550D02*
X204450D01*
X115550D02*
X115550Y349060D01*
X161690Y350790D02*
X240640D01*
X161690D02*
Y409210D01*
X240640D01*
Y350790D02*
Y409210D01*
X161690Y220790D02*
X240640Y220790D01*
X161690Y220790D02*
Y279210D01*
X240640Y279210D01*
Y220790D02*
Y279210D01*
D13*
X268490Y184250D02*
X365010D01*
Y120750D02*
Y184250D01*
X268490Y120750D02*
X365010D01*
X268500D02*
Y184250D01*
X6820Y455740D02*
X93180D01*
Y44260D02*
Y455740D01*
X6820Y44260D02*
X93180D01*
X6820D02*
Y455740D01*
X268500Y315750D02*
Y379250D01*
X268490Y315750D02*
X365010D01*
Y379250D01*
X268490D02*
X365010D01*
X268500Y380750D02*
Y444250D01*
X268490Y380750D02*
X365010D01*
Y444250D01*
X268490D02*
X365010D01*
X268500Y185750D02*
Y249250D01*
X268490Y185750D02*
X365010D01*
Y249250D01*
X268490D02*
X365010D01*
X268490Y314250D02*
X365010D01*
Y250750D02*
Y314250D01*
X268490Y250750D02*
X365010D01*
X268500D02*
Y314250D01*
Y55750D02*
Y119250D01*
X268490Y55750D02*
X365010D01*
Y119250D01*
X268490D02*
X365010D01*
M02*
