G04*
G04 #@! TF.GenerationSoftware,Altium Limited,Altium Designer,24.10.1 (45)*
G04*
G04 Layer_Color=2752767*
%FSLAX44Y44*%
%MOMM*%
G71*
G04*
G04 #@! TF.SameCoordinates,13406729-6A9E-4D45-95CC-4102649AE279*
G04*
G04*
G04 #@! TF.FilePolarity,Positive*
G04*
G01*
G75*
%ADD12C,0.1270*%
%ADD50C,0.1693*%
D12*
X279920Y157420D02*
Y167580D01*
X290080D01*
Y157420D01*
X279920D01*
Y137420D02*
Y147580D01*
X290080D01*
Y137420D01*
X279920D01*
Y332420D02*
Y342580D01*
X290080D01*
Y332420D01*
X279920D01*
Y352420D02*
Y362580D01*
X290080D01*
Y352420D01*
X279920D01*
Y397420D02*
Y407580D01*
X290080D01*
Y397420D01*
X279920D01*
Y417420D02*
Y427580D01*
X290080D01*
Y417420D01*
X279920D01*
Y202420D02*
Y212580D01*
X290080D01*
Y202420D01*
X279920D01*
Y222420D02*
Y232580D01*
X290080D01*
Y222420D01*
X279920D01*
Y287420D02*
Y297580D01*
X290080D01*
Y287420D01*
X279920D01*
Y267420D02*
Y277580D01*
X290080D01*
Y267420D01*
X279920D01*
Y72420D02*
Y82580D01*
X290080D01*
Y72420D01*
X279920D01*
Y92420D02*
Y102580D01*
X290080D01*
Y92420D01*
X279920D01*
X25000Y469920D02*
X27540Y472460D01*
X30080D01*
X27540Y475000D01*
X30080Y477540D01*
X27540D01*
X25000Y480080D01*
X22460Y477540D01*
X19920D01*
X22460Y475000D01*
X19920Y472460D01*
X22460D01*
X25000Y469920D01*
X325000D02*
X327540Y472460D01*
X330080D01*
X327540Y475000D01*
X330080Y477540D01*
X327540D01*
X325000Y480080D01*
X322460Y477540D01*
X319920D01*
X322460Y475000D01*
X319920Y472460D01*
X322460D01*
X325000Y469920D01*
Y19920D02*
X327540Y22460D01*
X330080D01*
X327540Y25000D01*
X330080Y27540D01*
X327540D01*
X325000Y30080D01*
X322460Y27540D01*
X319920D01*
X322460Y25000D01*
X319920Y22460D01*
X322460D01*
X325000Y19920D01*
X25000D02*
X27540Y22460D01*
X30080D01*
X27540Y25000D01*
X30080Y27540D01*
X27540D01*
X25000Y30080D01*
X22460Y27540D01*
X19920D01*
X22460Y25000D01*
X19920Y22460D01*
X22460D01*
X25000Y19920D01*
X246380Y89250D02*
Y86710D01*
X251460D01*
Y89250D01*
X254000D01*
Y94330D01*
X251460D01*
Y96870D01*
X246380D01*
Y94330D01*
X243840D01*
Y89250D01*
X246380D01*
X168910Y83820D02*
Y81280D01*
X173990D01*
Y83820D01*
X176530D01*
Y88900D01*
X173990D01*
Y91440D01*
X168910D01*
Y88900D01*
X166370D01*
Y83820D01*
X168910D01*
X184960Y101210D02*
Y98670D01*
X190040D01*
Y101210D01*
X192580D01*
Y106290D01*
X190040D01*
Y108830D01*
X184960D01*
Y106290D01*
X182420D01*
Y101210D01*
X184960D01*
X187960Y226060D02*
Y223520D01*
X193040D01*
Y226060D01*
X195580D01*
Y231140D01*
X193040D01*
Y233680D01*
X187960D01*
Y231140D01*
X185420D01*
Y226060D01*
X187960D01*
X186690Y240030D02*
Y237490D01*
X191770D01*
Y240030D01*
X194310D01*
Y245110D01*
X191770D01*
Y247650D01*
X186690D01*
Y245110D01*
X184150D01*
Y240030D01*
X186690D01*
X208280Y237490D02*
Y234950D01*
X213360D01*
Y237490D01*
X215900D01*
Y242570D01*
X213360D01*
Y245110D01*
X208280D01*
Y242570D01*
X205740D01*
Y237490D01*
X208280D01*
X195560Y267970D02*
Y265430D01*
X200640D01*
Y267970D01*
X203180D01*
Y273050D01*
X200640D01*
Y275590D01*
X195560D01*
Y273050D01*
X193020D01*
Y267970D01*
X195560D01*
X209550Y367710D02*
Y365170D01*
X214630D01*
Y367710D01*
X217170D01*
Y372790D01*
X214630D01*
Y375330D01*
X209550D01*
Y372790D01*
X207010D01*
Y367710D01*
X209550D01*
Y387210D02*
Y384670D01*
X214630D01*
Y387210D01*
X217170D01*
Y392290D01*
X214630D01*
Y394830D01*
X209550D01*
Y392290D01*
X207010D01*
Y387210D01*
X209550D01*
X185420Y397510D02*
Y394970D01*
X190500D01*
Y397510D01*
X193040D01*
Y402590D01*
X190500D01*
Y405130D01*
X185420D01*
Y402590D01*
X182880D01*
Y397510D01*
X185420D01*
X210820Y127210D02*
Y124670D01*
X215900D01*
Y127210D01*
X218440D01*
Y132290D01*
X215900D01*
Y134830D01*
X210820D01*
Y132290D01*
X208280D01*
Y127210D01*
X210820D01*
X96510Y235060D02*
X99050Y240140D01*
X96510Y245220D01*
X101590Y242680D01*
X106670Y245220D01*
X104130Y240140D01*
X106670Y235060D01*
X101590Y237600D01*
X96510Y235060D01*
X245110Y172720D02*
Y170180D01*
X250190D01*
Y172720D01*
X252730D01*
Y177800D01*
X250190D01*
Y180340D01*
X245110D01*
Y177800D01*
X242570D01*
Y172720D01*
X245110D01*
X182860D02*
Y170180D01*
X187940D01*
Y172720D01*
X190480D01*
Y177800D01*
X187940D01*
Y180340D01*
X182860D01*
Y177800D01*
X180320D01*
Y172720D01*
X182860D01*
X243840Y302260D02*
Y299720D01*
X248920D01*
Y302260D01*
X251460D01*
Y307340D01*
X248920D01*
Y309880D01*
X243840D01*
Y307340D01*
X241300D01*
Y302260D01*
X243840D01*
X182860Y190520D02*
Y187980D01*
X187940D01*
Y190520D01*
X190480D01*
Y195600D01*
X187940D01*
Y198140D01*
X182860D01*
Y195600D01*
X180320D01*
Y190520D01*
X182860D01*
X182880Y302140D02*
Y299600D01*
X187960D01*
Y302140D01*
X190500D01*
Y307220D01*
X187960D01*
Y309760D01*
X182880D01*
Y307220D01*
X180340D01*
Y302140D01*
X182880D01*
X256540Y218440D02*
Y215900D01*
X261620D01*
Y218440D01*
X264160D01*
Y223520D01*
X261620D01*
Y226060D01*
X256540D01*
Y223520D01*
X254000D01*
Y218440D01*
X256540D01*
X246380Y349250D02*
Y346710D01*
X251460D01*
Y349250D01*
X254000D01*
Y354330D01*
X251460D01*
Y356870D01*
X246380D01*
Y354330D01*
X243840D01*
Y349250D01*
X246380D01*
X96530Y383286D02*
X99070Y388366D01*
X96530Y393446D01*
X101610Y390906D01*
X106690Y393446D01*
X104150Y388366D01*
X106690Y383286D01*
X101610Y385826D01*
X96530Y383286D01*
X96510Y364920D02*
X99050Y370000D01*
X96510Y375080D01*
X101590Y372540D01*
X106670Y375080D01*
X104130Y370000D01*
X106670Y364920D01*
X101590Y367460D01*
X96510Y364920D01*
X168460Y410960D02*
Y408420D01*
X173540D01*
Y410960D01*
X176080D01*
Y416040D01*
X173540D01*
Y418580D01*
X168460D01*
Y416040D01*
X165920D01*
Y410960D01*
X168460D01*
X96530Y124920D02*
X99070Y130000D01*
X96530Y135080D01*
X101610Y132540D01*
X106690Y135080D01*
X104150Y130000D01*
X106690Y124920D01*
X101610Y127460D01*
X96530Y124920D01*
X142220Y171770D02*
X144760Y176850D01*
X142220Y181930D01*
X147300Y179390D01*
X152380Y181930D01*
X149840Y176850D01*
X152380Y171770D01*
X147300Y174310D01*
X142220Y171770D01*
X142240Y191770D02*
X144780Y196850D01*
X142240Y201930D01*
X147320Y199390D01*
X152400Y201930D01*
X149860Y196850D01*
X152400Y191770D01*
X147320Y194310D01*
X142240Y191770D01*
X96530Y254920D02*
X99070Y260000D01*
X96530Y265080D01*
X101610Y262540D01*
X106690Y265080D01*
X104150Y260000D01*
X106690Y254920D01*
X101610Y257460D01*
X96530Y254920D01*
X142210Y298410D02*
X144750Y303490D01*
X142210Y308570D01*
X147290Y306030D01*
X152370Y308570D01*
X149830Y303490D01*
X152370Y298410D01*
X147290Y300950D01*
X142210Y298410D01*
X142230Y318760D02*
X144770Y323840D01*
X142230Y328920D01*
X147310Y326380D01*
X152390Y328920D01*
X149850Y323840D01*
X152390Y318760D01*
X147310Y321300D01*
X142230Y318760D01*
D50*
X67780Y377000D02*
G03*
X67780Y377000I-5080J0D01*
G01*
X67780Y402400D02*
G03*
X67780Y402400I-5080J0D01*
G01*
X67780Y199200D02*
G03*
X67780Y199200I-5080J0D01*
G01*
X42380Y199200D02*
G03*
X42380Y199200I-5080J0D01*
G01*
Y173800D02*
G03*
X42380Y173800I-5080J0D01*
G01*
X67780D02*
G03*
X67780Y173800I-5080J0D01*
G01*
Y224600D02*
G03*
X67780Y224600I-5080J0D01*
G01*
X42380D02*
G03*
X42380Y224600I-5080J0D01*
G01*
X67780Y351600D02*
G03*
X67780Y351600I-5080J0D01*
G01*
X42380Y326200D02*
G03*
X42380Y326200I-5080J0D01*
G01*
Y377000D02*
G03*
X42380Y377000I-5080J0D01*
G01*
Y402400D02*
G03*
X42380Y402400I-5080J0D01*
G01*
Y275400D02*
G03*
X42380Y275400I-5080J0D01*
G01*
X42380Y250000D02*
G03*
X42380Y250000I-5080J0D01*
G01*
X42380Y351600D02*
G03*
X42380Y351600I-5080J0D01*
G01*
Y300800D02*
G03*
X42380Y300800I-5080J0D01*
G01*
X67780Y300800D02*
G03*
X67780Y300800I-5080J0D01*
G01*
Y250000D02*
G03*
X67780Y250000I-5080J0D01*
G01*
Y275400D02*
G03*
X67780Y275400I-5080J0D01*
G01*
X67780Y326200D02*
G03*
X67780Y326200I-5080J0D01*
G01*
X42380Y148400D02*
G03*
X42380Y148400I-5080J0D01*
G01*
X67780Y148400D02*
G03*
X67780Y148400I-5080J0D01*
G01*
Y97600D02*
G03*
X67780Y97600I-5080J0D01*
G01*
X42380D02*
G03*
X42380Y97600I-5080J0D01*
G01*
Y123000D02*
G03*
X42380Y123000I-5080J0D01*
G01*
X67780Y123000D02*
G03*
X67780Y123000I-5080J0D01*
G01*
M02*
