G04*
G04 #@! TF.GenerationSoftware,Altium Limited,Altium Designer,24.10.1 (45)*
G04*
G04 Layer_Physical_Order=1*
G04 Layer_Color=255*
%FSLAX44Y44*%
%MOMM*%
G71*
G04*
G04 #@! TF.SameCoordinates,13406729-6A9E-4D45-95CC-4102649AE279*
G04*
G04*
G04 #@! TF.FilePolarity,Positive*
G04*
G01*
G75*
%ADD15R,0.7500X1.0000*%
%ADD16R,1.4500X1.1500*%
%ADD17R,0.9500X1.0000*%
%ADD18R,1.0000X0.9500*%
%ADD19R,1.0000X0.7500*%
%ADD30R,1.5000X0.4500*%
%ADD31C,0.3048*%
%ADD32C,0.4064*%
%ADD33C,0.4572*%
%ADD34O,1.6000X1.2000*%
%ADD35O,1.7780X1.2700*%
%ADD36C,1.5000*%
%ADD37C,0.7620*%
%ADD38C,0.9144*%
G36*
X284749Y416532D02*
X284363Y416686D01*
X283937Y416743D01*
X283471Y416704D01*
X282966Y416568D01*
X282421Y416336D01*
X281836Y416008D01*
X281212Y415583D01*
X280549Y415061D01*
X279845Y414443D01*
X279102Y413729D01*
X275491Y415865D01*
X276179Y416581D01*
X277222Y417853D01*
X277577Y418407D01*
X277821Y418908D01*
X277953Y419354D01*
X277974Y419746D01*
X277884Y420084D01*
X277683Y420368D01*
X277371Y420598D01*
X284749Y416532D01*
D02*
G37*
G36*
X173599Y410714D02*
X173377Y410488D01*
X173178Y410244D01*
X173003Y409983D01*
X172851Y409706D01*
X172722Y409411D01*
X172617Y409099D01*
X172535Y408771D01*
X172477Y408425D01*
X172442Y408062D01*
X172435Y407836D01*
X172445Y407433D01*
X172491Y406909D01*
X172567Y406447D01*
X172674Y406047D01*
X172811Y405709D01*
X172979Y405432D01*
X173177Y405216D01*
X173405Y405062D01*
X173664Y404970D01*
X173954Y404939D01*
X167858D01*
X168148Y404970D01*
X168407Y405062D01*
X168635Y405216D01*
X168833Y405432D01*
X169001Y405709D01*
X169138Y406047D01*
X169245Y406447D01*
X169321Y406909D01*
X169367Y407433D01*
X169379Y407883D01*
X169371Y408143D01*
X169337Y408506D01*
X169282Y408854D01*
X169203Y409185D01*
X169103Y409501D01*
X168981Y409801D01*
X168836Y410086D01*
X168668Y410355D01*
X168479Y410608D01*
X168267Y410846D01*
X173599Y410714D01*
D02*
G37*
G36*
X144740Y406712D02*
X144625Y406338D01*
Y405907D01*
X144740Y405419D01*
X144970Y404873D01*
X145314Y404269D01*
X145774Y403608D01*
X146349Y402890D01*
X147843Y401281D01*
X144970Y398407D01*
X144136Y399212D01*
X142642Y400476D01*
X141981Y400936D01*
X141377Y401281D01*
X140831Y401510D01*
X140343Y401625D01*
X139912D01*
X139538Y401510D01*
X139222Y401281D01*
X144970Y407028D01*
X144740Y406712D01*
D02*
G37*
G36*
X284749Y396532D02*
X284363Y396686D01*
X283937Y396743D01*
X283471Y396704D01*
X282966Y396568D01*
X282421Y396336D01*
X281836Y396008D01*
X281212Y395583D01*
X280549Y395061D01*
X279845Y394443D01*
X279102Y393729D01*
X275491Y395865D01*
X276179Y396581D01*
X277222Y397853D01*
X277577Y398407D01*
X277821Y398908D01*
X277953Y399354D01*
X277974Y399746D01*
X277884Y400084D01*
X277683Y400368D01*
X277371Y400598D01*
X284749Y396532D01*
D02*
G37*
G36*
X187048Y396351D02*
X186749Y396407D01*
X186452Y396428D01*
X186157Y396413D01*
X185864Y396363D01*
X185573Y396278D01*
X185284Y396157D01*
X184997Y396001D01*
X184712Y395809D01*
X184429Y395582D01*
X184148Y395320D01*
X182554Y398037D01*
X182814Y398308D01*
X183274Y398861D01*
X183473Y399141D01*
X183652Y399425D01*
X183811Y399711D01*
X183949Y400001D01*
X184067Y400294D01*
X184165Y400589D01*
X184243Y400888D01*
X187048Y396351D01*
D02*
G37*
G36*
X236510Y398434D02*
X236632Y398402D01*
X236835Y398374D01*
X237486Y398329D01*
X240534Y398282D01*
Y394218D01*
X236469Y394030D01*
Y398470D01*
X236510Y398434D01*
D02*
G37*
G36*
X178500Y398335D02*
X178591Y398215D01*
X178744Y398110D01*
X178957Y398018D01*
X179231Y397940D01*
X179567Y397877D01*
X179963Y397827D01*
X180938Y397771D01*
X181518Y397764D01*
Y394716D01*
X180938Y394709D01*
X179567Y394606D01*
X179231Y394545D01*
X178957Y394469D01*
X178744Y394380D01*
X178591Y394277D01*
X178500Y394161D01*
X178470Y394030D01*
Y398470D01*
X178500Y398335D01*
D02*
G37*
G36*
X135061Y385936D02*
X135020Y386322D01*
X134897Y386668D01*
X134692Y386972D01*
X134406Y387237D01*
X134037Y387460D01*
X133587Y387643D01*
X133055Y387785D01*
X132441Y387887D01*
X131744Y387948D01*
X131125Y387964D01*
X130506Y387948D01*
X129810Y387887D01*
X129195Y387785D01*
X128663Y387643D01*
X128213Y387460D01*
X127844Y387237D01*
X127558Y386972D01*
X127353Y386668D01*
X127230Y386322D01*
X127189Y385936D01*
Y394064D01*
X127230Y393678D01*
X127353Y393332D01*
X127558Y393028D01*
X127844Y392764D01*
X128213Y392540D01*
X128663Y392357D01*
X129195Y392215D01*
X129810Y392113D01*
X130506Y392052D01*
X131125Y392036D01*
X131744Y392052D01*
X132441Y392113D01*
X133055Y392215D01*
X133587Y392357D01*
X134037Y392540D01*
X134406Y392764D01*
X134692Y393028D01*
X134897Y393332D01*
X135020Y393678D01*
X135061Y394064D01*
Y385936D01*
D02*
G37*
G36*
X221530Y387531D02*
X221500Y387663D01*
X221409Y387781D01*
X221256Y387885D01*
X221043Y387976D01*
X220769Y388052D01*
X220433Y388115D01*
X220037Y388163D01*
X219062Y388219D01*
X218482Y388226D01*
Y391274D01*
X219062Y391281D01*
X220433Y391385D01*
X220769Y391448D01*
X221043Y391524D01*
X221256Y391615D01*
X221409Y391719D01*
X221500Y391837D01*
X221530Y391969D01*
Y387531D01*
D02*
G37*
G36*
X163531D02*
X163490Y387566D01*
X163368Y387598D01*
X163165Y387626D01*
X162514Y387671D01*
X159466Y387718D01*
Y391782D01*
X163531Y391969D01*
Y387531D01*
D02*
G37*
G36*
X112781Y385119D02*
X112740Y385505D01*
X112618Y385850D01*
X112415Y386155D01*
X112130Y386419D01*
X111764Y386643D01*
X111318Y386826D01*
X110789Y386968D01*
X110180Y387070D01*
X109489Y387131D01*
X108740Y387150D01*
X108286Y387137D01*
X107842Y387097D01*
X107428Y387029D01*
X107046Y386935D01*
X106694Y386813D01*
X106372Y386665D01*
X106082Y386489D01*
X105822Y386287D01*
X105593Y386057D01*
X105394Y385801D01*
X104251Y392098D01*
X104512Y391931D01*
X104797Y391780D01*
X105106Y391648D01*
X105438Y391533D01*
X105794Y391436D01*
X106174Y391356D01*
X106577Y391295D01*
X107455Y391224D01*
X107929Y391215D01*
X108716Y387368D01*
Y391215D01*
X109489Y391235D01*
X110180Y391296D01*
X110789Y391398D01*
X111318Y391540D01*
X111764Y391723D01*
X112130Y391946D01*
X112415Y392211D01*
X112618Y392515D01*
X112740Y392861D01*
X112781Y393247D01*
Y385119D01*
D02*
G37*
G36*
X215043Y392200D02*
X215292Y392006D01*
X215557Y391834D01*
X215838Y391685D01*
X216135Y391560D01*
X216449Y391457D01*
X216779Y391377D01*
X217126Y391320D01*
X217489Y391285D01*
X217868Y391274D01*
Y388226D01*
X217489Y388215D01*
X217126Y388180D01*
X216779Y388123D01*
X216449Y388043D01*
X216135Y387940D01*
X215838Y387814D01*
X215557Y387666D01*
X215292Y387495D01*
X215043Y387300D01*
X214811Y387083D01*
Y392417D01*
X215043Y392200D01*
D02*
G37*
G36*
X145003Y391180D02*
X145104Y390955D01*
X145271Y390757D01*
X145506Y390586D01*
X145808Y390440D01*
X146176Y390322D01*
X146612Y390229D01*
X147115Y390163D01*
X147685Y390124D01*
X148322Y390111D01*
Y386046D01*
X147685Y386039D01*
X146176Y385924D01*
X145808Y385855D01*
X145506Y385771D01*
X145271Y385671D01*
X145104Y385556D01*
X145003Y385426D01*
X144970Y385280D01*
Y391431D01*
X145003Y391180D01*
D02*
G37*
G36*
X236510Y385434D02*
X236632Y385402D01*
X236835Y385374D01*
X237486Y385329D01*
X240534Y385282D01*
Y381218D01*
X236469Y381031D01*
Y385470D01*
X236510Y385434D01*
D02*
G37*
G36*
X163531Y381031D02*
X163490Y381066D01*
X163368Y381098D01*
X163165Y381126D01*
X162514Y381171D01*
X159466Y381218D01*
Y385282D01*
X163531Y385470D01*
Y381031D01*
D02*
G37*
G36*
X236510Y378934D02*
X236632Y378902D01*
X236835Y378874D01*
X237486Y378829D01*
X240534Y378782D01*
Y374718D01*
X236469Y374530D01*
Y378969D01*
X236510Y378934D01*
D02*
G37*
G36*
X163531Y374530D02*
X163490Y374566D01*
X163368Y374598D01*
X163165Y374626D01*
X162514Y374671D01*
X159466Y374718D01*
Y378782D01*
X163531Y378969D01*
Y374530D01*
D02*
G37*
G36*
X132811Y365936D02*
X132770Y366322D01*
X132647Y366668D01*
X132442Y366972D01*
X132156Y367237D01*
X131787Y367460D01*
X131337Y367643D01*
X130805Y367785D01*
X130190Y367887D01*
X130000Y367903D01*
X129810Y367887D01*
X129195Y367785D01*
X128663Y367643D01*
X128213Y367460D01*
X127844Y367237D01*
X127557Y366972D01*
X127353Y366668D01*
X127230Y366322D01*
X127189Y365936D01*
Y374064D01*
X127230Y373678D01*
X127353Y373332D01*
X127557Y373028D01*
X127844Y372763D01*
X128213Y372540D01*
X128663Y372357D01*
X129195Y372215D01*
X129810Y372113D01*
X130000Y372097D01*
X130190Y372113D01*
X130805Y372215D01*
X131337Y372357D01*
X131787Y372540D01*
X132156Y372763D01*
X132442Y373028D01*
X132647Y373332D01*
X132770Y373678D01*
X132811Y374064D01*
Y365936D01*
D02*
G37*
G36*
X147257Y375476D02*
X147369Y375258D01*
X147557Y375066D01*
X147819Y374899D01*
X148156Y374758D01*
X148568Y374642D01*
X149055Y374553D01*
X149617Y374489D01*
X150254Y374450D01*
X150965Y374437D01*
Y370373D01*
X150254Y370356D01*
X149617Y370305D01*
X149055Y370219D01*
X148568Y370099D01*
X148156Y369945D01*
X147819Y369756D01*
X147557Y369534D01*
X147369Y369277D01*
X147257Y368985D01*
X147219Y368660D01*
Y375719D01*
X147257Y375476D01*
D02*
G37*
G36*
X221530Y368031D02*
X221500Y368163D01*
X221409Y368281D01*
X221256Y368385D01*
X221043Y368476D01*
X220769Y368552D01*
X220433Y368615D01*
X220037Y368663D01*
X219062Y368719D01*
X218482Y368726D01*
Y371774D01*
X219062Y371781D01*
X220433Y371885D01*
X220769Y371948D01*
X221043Y372024D01*
X221256Y372115D01*
X221409Y372219D01*
X221500Y372337D01*
X221530Y372469D01*
Y368031D01*
D02*
G37*
G36*
X215043Y372700D02*
X215292Y372505D01*
X215557Y372334D01*
X215838Y372186D01*
X216135Y372060D01*
X216449Y371957D01*
X216779Y371877D01*
X217126Y371820D01*
X217489Y371785D01*
X217868Y371774D01*
Y368726D01*
X217489Y368715D01*
X217126Y368680D01*
X216779Y368623D01*
X216449Y368543D01*
X216135Y368440D01*
X215838Y368315D01*
X215557Y368166D01*
X215292Y367994D01*
X215043Y367800D01*
X214811Y367583D01*
Y372917D01*
X215043Y372700D01*
D02*
G37*
G36*
X105097Y372978D02*
X105365Y372780D01*
X105658Y372604D01*
X105977Y372453D01*
X106321Y372324D01*
X106691Y372219D01*
X107087Y372137D01*
X107509Y372079D01*
X107956Y372044D01*
X108429Y372032D01*
Y367968D01*
X107956Y367956D01*
X107509Y367921D01*
X107087Y367863D01*
X106691Y367781D01*
X106321Y367676D01*
X105977Y367547D01*
X105658Y367396D01*
X105365Y367220D01*
X105097Y367022D01*
X104855Y366800D01*
Y373200D01*
X105097Y372978D01*
D02*
G37*
G36*
X112781Y365936D02*
X112740Y366322D01*
X112618Y366668D01*
X112415Y366972D01*
X112130Y367237D01*
X111764Y367460D01*
X111317Y367643D01*
X110789Y367785D01*
X110180Y367887D01*
X109489Y367948D01*
X108716Y367968D01*
Y372032D01*
X109489Y372052D01*
X110180Y372113D01*
X110789Y372215D01*
X111317Y372357D01*
X111764Y372540D01*
X112130Y372763D01*
X112415Y373028D01*
X112618Y373332D01*
X112740Y373678D01*
X112781Y374064D01*
Y365936D01*
D02*
G37*
G36*
X236510Y365934D02*
X236632Y365902D01*
X236835Y365874D01*
X237486Y365829D01*
X240534Y365782D01*
Y361718D01*
X236469Y361530D01*
Y365970D01*
X236510Y365934D01*
D02*
G37*
G36*
X178500Y365837D02*
X178591Y365719D01*
X178744Y365615D01*
X178957Y365524D01*
X179231Y365448D01*
X179567Y365385D01*
X179963Y365337D01*
X180938Y365281D01*
X181518Y365274D01*
Y362226D01*
X180938Y362219D01*
X179567Y362115D01*
X179231Y362052D01*
X178957Y361976D01*
X178744Y361885D01*
X178591Y361781D01*
X178500Y361663D01*
X178470Y361530D01*
Y365970D01*
X178500Y365837D01*
D02*
G37*
G36*
X278591Y364696D02*
X279860Y363612D01*
X280202Y363381D01*
X280505Y363214D01*
X280767Y363112D01*
X280989Y363074D01*
X281171Y363102D01*
X281312Y363194D01*
X277260Y359036D01*
X277349Y359182D01*
X277372Y359367D01*
X277331Y359593D01*
X277224Y359860D01*
X277052Y360167D01*
X276815Y360515D01*
X276513Y360904D01*
X275713Y361803D01*
X275215Y362313D01*
X278088Y365187D01*
X278591Y364696D01*
D02*
G37*
G36*
X150093Y355719D02*
X149289Y354886D01*
X148024Y353392D01*
X147564Y352731D01*
X147219Y352127D01*
X146990Y351581D01*
X146875Y351093D01*
Y350662D01*
X146990Y350288D01*
X147219Y349972D01*
X141472Y355719D01*
X141788Y355490D01*
X142162Y355375D01*
X142593D01*
X143081Y355490D01*
X143627Y355719D01*
X144231Y356064D01*
X144892Y356524D01*
X145610Y357099D01*
X147219Y358593D01*
X150093Y355719D01*
D02*
G37*
G36*
X236500Y359337D02*
X236591Y359219D01*
X236744Y359115D01*
X236957Y359024D01*
X237232Y358948D01*
X237567Y358885D01*
X237963Y358837D01*
X238938Y358781D01*
X239517Y358774D01*
Y355726D01*
X238938Y355719D01*
X237567Y355615D01*
X237232Y355552D01*
X236957Y355476D01*
X236744Y355385D01*
X236591Y355281D01*
X236500Y355163D01*
X236469Y355031D01*
Y359469D01*
X236500Y359337D01*
D02*
G37*
G36*
X245570Y356379D02*
X245853Y356151D01*
X246139Y355957D01*
X246428Y355796D01*
X246719Y355668D01*
X247014Y355575D01*
X247312Y355515D01*
X247612Y355488D01*
X247916Y355495D01*
X248222Y355536D01*
X245161Y351167D01*
X245099Y351475D01*
X245015Y351779D01*
X244909Y352079D01*
X244781Y352375D01*
X244631Y352667D01*
X244459Y352955D01*
X244265Y353240D01*
X244049Y353520D01*
X243811Y353797D01*
X243552Y354069D01*
X245290Y356641D01*
X245570Y356379D01*
D02*
G37*
G36*
X291417Y341162D02*
X291576Y340820D01*
X291843Y340518D01*
X292215Y340257D01*
X292694Y340035D01*
X293280Y339854D01*
X293971Y339713D01*
X294770Y339613D01*
X295674Y339552D01*
X296686Y339532D01*
Y335468D01*
X295674Y335448D01*
X293971Y335287D01*
X293280Y335146D01*
X292694Y334965D01*
X292215Y334743D01*
X291843Y334482D01*
X291576Y334180D01*
X291417Y333838D01*
X291364Y333455D01*
Y341545D01*
X291417Y341162D01*
D02*
G37*
G36*
X47416Y331620D02*
X46932Y331115D01*
X46185Y330197D01*
X45921Y329784D01*
X45731Y329402D01*
X45614Y329050D01*
X45571Y328729D01*
X45601Y328439D01*
X45704Y328180D01*
X45881Y327951D01*
X41591Y332241D01*
X41820Y332064D01*
X42079Y331961D01*
X42369Y331931D01*
X42690Y331974D01*
X43042Y332091D01*
X43424Y332281D01*
X43837Y332545D01*
X44281Y332882D01*
X44755Y333292D01*
X45260Y333776D01*
X47416Y331620D01*
D02*
G37*
G36*
X144170Y320517D02*
X143921Y320729D01*
X143648Y320919D01*
X143349Y321086D01*
X143026Y321231D01*
X142678Y321354D01*
X142304Y321454D01*
X141906Y321533D01*
X141483Y321588D01*
X141035Y321622D01*
X140563Y321633D01*
X140389Y325697D01*
X140862Y325709D01*
X141309Y325746D01*
X141729Y325806D01*
X142122Y325892D01*
X142489Y326001D01*
X142829Y326135D01*
X143143Y326293D01*
X143430Y326475D01*
X143691Y326682D01*
X143925Y326913D01*
X144170Y320517D01*
D02*
G37*
G36*
X134230Y327343D02*
X134353Y326997D01*
X134558Y326693D01*
X134844Y326428D01*
X135213Y326205D01*
X135663Y326022D01*
X136195Y325880D01*
X136810Y325778D01*
X137506Y325717D01*
X138284Y325697D01*
Y321633D01*
X137506Y321613D01*
X136810Y321552D01*
X136195Y321450D01*
X135663Y321308D01*
X135213Y321125D01*
X134844Y320901D01*
X134558Y320637D01*
X134353Y320332D01*
X134230Y319987D01*
X134189Y319601D01*
Y327729D01*
X134230Y327343D01*
D02*
G37*
G36*
X47416Y306220D02*
X46932Y305715D01*
X46185Y304797D01*
X45921Y304384D01*
X45731Y304002D01*
X45614Y303650D01*
X45571Y303329D01*
X45601Y303039D01*
X45704Y302780D01*
X45881Y302551D01*
X41591Y306841D01*
X41820Y306664D01*
X42079Y306561D01*
X42369Y306531D01*
X42690Y306574D01*
X43042Y306691D01*
X43424Y306881D01*
X43837Y307145D01*
X44281Y307482D01*
X44755Y307892D01*
X45260Y308376D01*
X47416Y306220D01*
D02*
G37*
G36*
X210831Y301632D02*
X210800Y301922D01*
X210708Y302181D01*
X210554Y302409D01*
X210338Y302607D01*
X210061Y302775D01*
X209723Y302912D01*
X209322Y303019D01*
X208861Y303095D01*
X208337Y303141D01*
X208217Y303144D01*
X208098Y303141D01*
X207580Y303095D01*
X207123Y303019D01*
X206727Y302912D01*
X206392Y302775D01*
X206117Y302607D01*
X205904Y302409D01*
X205751Y302181D01*
X205660Y301922D01*
X205630Y301632D01*
Y307728D01*
X205660Y307439D01*
X205751Y307179D01*
X205904Y306951D01*
X206117Y306753D01*
X206392Y306585D01*
X206727Y306448D01*
X207123Y306341D01*
X207580Y306265D01*
X208098Y306219D01*
X208217Y306216D01*
X208337Y306219D01*
X208861Y306265D01*
X209322Y306341D01*
X209723Y306448D01*
X210061Y306585D01*
X210338Y306753D01*
X210554Y306951D01*
X210708Y307179D01*
X210800Y307439D01*
X210831Y307728D01*
Y301632D01*
D02*
G37*
G36*
X243659Y302133D02*
X243427Y302350D01*
X243178Y302544D01*
X242913Y302716D01*
X242632Y302864D01*
X242335Y302990D01*
X242021Y303093D01*
X241691Y303173D01*
X241344Y303230D01*
X240981Y303265D01*
X240602Y303276D01*
Y306324D01*
X240981Y306335D01*
X241344Y306370D01*
X241691Y306427D01*
X242021Y306507D01*
X242335Y306610D01*
X242632Y306735D01*
X242913Y306884D01*
X243178Y307055D01*
X243427Y307250D01*
X243659Y307467D01*
Y302133D01*
D02*
G37*
G36*
X188373Y307130D02*
X188622Y306936D01*
X188887Y306764D01*
X189168Y306616D01*
X189465Y306490D01*
X189779Y306387D01*
X190109Y306307D01*
X190456Y306250D01*
X190819Y306215D01*
X191198Y306204D01*
Y303156D01*
X190819Y303145D01*
X190456Y303110D01*
X190109Y303053D01*
X189779Y302973D01*
X189465Y302870D01*
X189168Y302745D01*
X188887Y302596D01*
X188622Y302425D01*
X188373Y302230D01*
X188141Y302013D01*
Y307347D01*
X188373Y307130D01*
D02*
G37*
G36*
X236240Y307558D02*
X236332Y307299D01*
X236486Y307071D01*
X236702Y306873D01*
X236979Y306705D01*
X237317Y306568D01*
X237717Y306461D01*
X238179Y306385D01*
X238703Y306339D01*
X239288Y306324D01*
Y303276D01*
X238703Y303261D01*
X238179Y303215D01*
X237717Y303139D01*
X237317Y303032D01*
X236979Y302895D01*
X236702Y302727D01*
X236486Y302529D01*
X236332Y302301D01*
X236240Y302042D01*
X236209Y301752D01*
Y307848D01*
X236240Y307558D01*
D02*
G37*
G36*
X195721Y301632D02*
X195690Y301922D01*
X195598Y302181D01*
X195444Y302409D01*
X195228Y302607D01*
X194951Y302775D01*
X194613Y302912D01*
X194212Y303019D01*
X193751Y303095D01*
X193227Y303141D01*
X192642Y303156D01*
Y306204D01*
X193227Y306219D01*
X193751Y306265D01*
X194212Y306341D01*
X194613Y306448D01*
X194951Y306585D01*
X195228Y306753D01*
X195444Y306951D01*
X195598Y307179D01*
X195690Y307439D01*
X195721Y307728D01*
Y301632D01*
D02*
G37*
G36*
X144015Y300300D02*
X143773Y300523D01*
X143506Y300723D01*
X143214Y300898D01*
X142895Y301051D01*
X142551Y301180D01*
X142181Y301285D01*
X141785Y301367D01*
X141364Y301426D01*
X140917Y301461D01*
X140444Y301473D01*
X140459Y305537D01*
X140932Y305549D01*
X141379Y305583D01*
X141800Y305642D01*
X142197Y305723D01*
X142567Y305828D01*
X142912Y305956D01*
X143231Y306107D01*
X143525Y306282D01*
X143793Y306480D01*
X144036Y306701D01*
X144015Y300300D01*
D02*
G37*
G36*
X134230Y307183D02*
X134353Y306838D01*
X134558Y306533D01*
X134844Y306269D01*
X135213Y306045D01*
X135663Y305862D01*
X136195Y305720D01*
X136810Y305618D01*
X137506Y305557D01*
X138284Y305537D01*
Y301473D01*
X137506Y301453D01*
X136810Y301392D01*
X136195Y301290D01*
X135663Y301148D01*
X135213Y300965D01*
X134844Y300742D01*
X134558Y300477D01*
X134353Y300173D01*
X134230Y299827D01*
X134189Y299441D01*
Y307569D01*
X134230Y307183D01*
D02*
G37*
G36*
X234948Y299670D02*
X234603Y299548D01*
X234298Y299345D01*
X234034Y299060D01*
X233810Y298694D01*
X233627Y298248D01*
X233485Y297719D01*
X233388Y297136D01*
X233431Y296641D01*
X233532Y296113D01*
X233661Y295665D01*
X233820Y295300D01*
X234006Y295015D01*
X234222Y294812D01*
X234466Y294690D01*
X234740Y294650D01*
X227300D01*
X227669Y294690D01*
X227998Y294812D01*
X228289Y295015D01*
X228540Y295300D01*
X228754Y295665D01*
X228928Y296113D01*
X229064Y296641D01*
X229147Y297167D01*
X229055Y297719D01*
X228913Y298248D01*
X228730Y298694D01*
X228507Y299060D01*
X228242Y299345D01*
X227938Y299548D01*
X227592Y299670D01*
X227206Y299711D01*
X235334D01*
X234948Y299670D01*
D02*
G37*
G36*
X212331Y286632D02*
X212300Y286922D01*
X212208Y287181D01*
X212054Y287409D01*
X211838Y287607D01*
X211561Y287775D01*
X211223Y287912D01*
X210823Y288019D01*
X210361Y288095D01*
X209837Y288141D01*
X209252Y288156D01*
Y291204D01*
X209837Y291219D01*
X210361Y291265D01*
X210823Y291341D01*
X211223Y291448D01*
X211561Y291585D01*
X211838Y291753D01*
X212054Y291951D01*
X212208Y292179D01*
X212300Y292438D01*
X212331Y292728D01*
Y286632D01*
D02*
G37*
G36*
X205660Y292438D02*
X205751Y292179D01*
X205904Y291951D01*
X206117Y291753D01*
X206392Y291585D01*
X206727Y291448D01*
X207123Y291341D01*
X207580Y291265D01*
X208098Y291219D01*
X208678Y291204D01*
Y288156D01*
X208098Y288141D01*
X207580Y288095D01*
X207123Y288019D01*
X206727Y287912D01*
X206392Y287775D01*
X206117Y287607D01*
X205904Y287409D01*
X205751Y287181D01*
X205660Y286922D01*
X205630Y286632D01*
Y292728D01*
X205660Y292438D01*
D02*
G37*
G36*
X282174Y286614D02*
X281895Y286876D01*
X281567Y287032D01*
X281189Y287081D01*
X280762Y287024D01*
X280285Y286860D01*
X279759Y286590D01*
X279183Y286213D01*
X278557Y285730D01*
X277882Y285140D01*
X277158Y284444D01*
X274518Y287551D01*
X275232Y288294D01*
X276355Y289644D01*
X276763Y290251D01*
X277070Y290814D01*
X277275Y291331D01*
X277378Y291804D01*
X277379Y292231D01*
X277279Y292613D01*
X277077Y292951D01*
X282174Y286614D01*
D02*
G37*
G36*
X218778Y284710D02*
X218519Y284618D01*
X218291Y284464D01*
X218093Y284248D01*
X217925Y283971D01*
X217788Y283633D01*
X217681Y283232D01*
X217605Y282771D01*
X217559Y282247D01*
X217544Y281663D01*
X214496D01*
X214481Y282247D01*
X214435Y282771D01*
X214359Y283232D01*
X214252Y283633D01*
X214115Y283971D01*
X213947Y284248D01*
X213749Y284464D01*
X213521Y284618D01*
X213262Y284710D01*
X212972Y284741D01*
X219068D01*
X218778Y284710D01*
D02*
G37*
G36*
X47416Y280820D02*
X46932Y280315D01*
X46185Y279397D01*
X45921Y278984D01*
X45731Y278602D01*
X45614Y278250D01*
X45571Y277929D01*
X45601Y277639D01*
X45704Y277380D01*
X45881Y277151D01*
X41591Y281441D01*
X41820Y281264D01*
X42079Y281161D01*
X42369Y281131D01*
X42690Y281174D01*
X43042Y281291D01*
X43424Y281481D01*
X43837Y281745D01*
X44281Y282082D01*
X44755Y282492D01*
X45260Y282976D01*
X47416Y280820D01*
D02*
G37*
G36*
X172989Y277433D02*
X173035Y276909D01*
X173111Y276448D01*
X173218Y276047D01*
X173355Y275709D01*
X173523Y275432D01*
X173721Y275216D01*
X173949Y275062D01*
X174208Y274970D01*
X174498Y274939D01*
X168402D01*
X168692Y274970D01*
X168951Y275062D01*
X169179Y275216D01*
X169377Y275432D01*
X169545Y275709D01*
X169682Y276047D01*
X169789Y276448D01*
X169865Y276909D01*
X169911Y277433D01*
X169926Y278018D01*
X172974D01*
X172989Y277433D01*
D02*
G37*
G36*
X284749Y266532D02*
X284363Y266686D01*
X283937Y266743D01*
X283471Y266704D01*
X282966Y266568D01*
X282421Y266336D01*
X281836Y266008D01*
X281212Y265583D01*
X280549Y265061D01*
X279845Y264443D01*
X279102Y263729D01*
X275491Y265865D01*
X276179Y266581D01*
X277222Y267853D01*
X277577Y268407D01*
X277821Y268908D01*
X277953Y269354D01*
X277974Y269746D01*
X277884Y270084D01*
X277683Y270368D01*
X277371Y270598D01*
X284749Y266532D01*
D02*
G37*
G36*
X200565Y267570D02*
X200372Y267320D01*
X200201Y267054D01*
X200053Y266772D01*
X199928Y266474D01*
X199826Y266160D01*
X199746Y265830D01*
X199690Y265483D01*
X199655Y265120D01*
X199644Y264741D01*
X196596Y264723D01*
X196584Y265103D01*
X196550Y265466D01*
X196493Y265812D01*
X196412Y266142D01*
X196309Y266455D01*
X196182Y266752D01*
X196033Y267033D01*
X195861Y267297D01*
X195666Y267544D01*
X195447Y267775D01*
X200781Y267803D01*
X200565Y267570D01*
D02*
G37*
G36*
X178500Y268337D02*
X178591Y268219D01*
X178744Y268115D01*
X178957Y268024D01*
X179231Y267948D01*
X179567Y267885D01*
X179963Y267837D01*
X180938Y267781D01*
X181518Y267774D01*
Y264726D01*
X180938Y264719D01*
X179567Y264615D01*
X179231Y264552D01*
X178957Y264476D01*
X178744Y264385D01*
X178591Y264281D01*
X178500Y264163D01*
X178470Y264030D01*
Y268470D01*
X178500Y268337D01*
D02*
G37*
G36*
X236510Y268434D02*
X236632Y268402D01*
X236835Y268374D01*
X237486Y268329D01*
X240534Y268282D01*
Y264218D01*
X236469Y264030D01*
Y268470D01*
X236510Y268434D01*
D02*
G37*
G36*
X134761Y254636D02*
X134720Y255022D01*
X134597Y255368D01*
X134392Y255672D01*
X134106Y255937D01*
X133737Y256160D01*
X133287Y256343D01*
X132755Y256485D01*
X132141Y256587D01*
X131444Y256648D01*
X130975Y256660D01*
X130506Y256648D01*
X129810Y256587D01*
X129195Y256485D01*
X128663Y256343D01*
X128213Y256160D01*
X127844Y255937D01*
X127557Y255672D01*
X127353Y255368D01*
X127230Y255022D01*
X127189Y254636D01*
Y262764D01*
X127230Y262378D01*
X127353Y262033D01*
X127557Y261728D01*
X127844Y261464D01*
X128213Y261240D01*
X128663Y261057D01*
X129195Y260915D01*
X129810Y260813D01*
X130506Y260752D01*
X130975Y260740D01*
X131444Y260752D01*
X132141Y260813D01*
X132755Y260915D01*
X133287Y261057D01*
X133737Y261240D01*
X134106Y261464D01*
X134392Y261728D01*
X134597Y262033D01*
X134720Y262378D01*
X134761Y262764D01*
Y254636D01*
D02*
G37*
G36*
X221530Y257530D02*
X221505Y257678D01*
X221428Y257810D01*
X221299Y257926D01*
X221119Y258027D01*
X220888Y258112D01*
X220605Y258182D01*
X220271Y258236D01*
X219885Y258275D01*
X218960Y258306D01*
Y261354D01*
X219449Y261360D01*
X220605Y261452D01*
X220888Y261508D01*
X221119Y261576D01*
X221299Y261656D01*
X221428Y261748D01*
X221505Y261853D01*
X221530Y261970D01*
Y257530D01*
D02*
G37*
G36*
X163531Y257530D02*
X163490Y257566D01*
X163368Y257598D01*
X163165Y257626D01*
X162514Y257671D01*
X159466Y257718D01*
Y261782D01*
X163531Y261970D01*
Y257530D01*
D02*
G37*
G36*
X104922Y263192D02*
X105198Y263009D01*
X105500Y262847D01*
X105825Y262706D01*
X106176Y262587D01*
X106551Y262490D01*
X106950Y262414D01*
X107374Y262360D01*
X107822Y262328D01*
X108295Y262317D01*
X108578Y258253D01*
X108105Y258241D01*
X107659Y258203D01*
X107240Y258141D01*
X106848Y258054D01*
X106483Y257942D01*
X106146Y257805D01*
X105836Y257644D01*
X105553Y257457D01*
X105297Y257246D01*
X105068Y257009D01*
X104669Y263398D01*
X104922Y263192D01*
D02*
G37*
G36*
X112781Y256221D02*
X112740Y256607D01*
X112618Y256952D01*
X112415Y257257D01*
X112130Y257521D01*
X111764Y257745D01*
X111317Y257928D01*
X110789Y258070D01*
X110180Y258172D01*
X109489Y258233D01*
X108716Y258253D01*
Y262317D01*
X109489Y262337D01*
X110180Y262398D01*
X110789Y262500D01*
X111317Y262642D01*
X111764Y262825D01*
X112130Y263048D01*
X112415Y263313D01*
X112618Y263617D01*
X112740Y263963D01*
X112781Y264349D01*
Y256221D01*
D02*
G37*
G36*
X47416Y255420D02*
X46932Y254915D01*
X46185Y253997D01*
X45921Y253584D01*
X45731Y253202D01*
X45614Y252850D01*
X45571Y252529D01*
X45601Y252239D01*
X45704Y251980D01*
X45881Y251751D01*
X41591Y256041D01*
X41820Y255864D01*
X42079Y255761D01*
X42369Y255731D01*
X42690Y255774D01*
X43042Y255891D01*
X43424Y256081D01*
X43837Y256345D01*
X44281Y256682D01*
X44755Y257092D01*
X45260Y257576D01*
X47416Y255420D01*
D02*
G37*
G36*
X144710Y261756D02*
X144832Y261411D01*
X145035Y261106D01*
X145320Y260842D01*
X145686Y260618D01*
X146132Y260436D01*
X146661Y260293D01*
X147270Y260192D01*
X147961Y260131D01*
X148734Y260110D01*
Y256047D01*
X147961Y256026D01*
X147270Y255965D01*
X146661Y255864D01*
X146132Y255721D01*
X145686Y255539D01*
X145320Y255315D01*
X145035Y255051D01*
X144832Y254746D01*
X144710Y254401D01*
X144670Y254014D01*
Y262143D01*
X144710Y261756D01*
D02*
G37*
G36*
X163531Y251031D02*
X163490Y251066D01*
X163368Y251098D01*
X163165Y251126D01*
X162514Y251171D01*
X159466Y251218D01*
Y255282D01*
X163531Y255469D01*
Y251031D01*
D02*
G37*
G36*
X236510Y255434D02*
X236632Y255402D01*
X236835Y255374D01*
X237486Y255329D01*
X240534Y255282D01*
Y251218D01*
X236469Y251031D01*
Y255469D01*
X236510Y255434D01*
D02*
G37*
G36*
Y248934D02*
X236632Y248902D01*
X236835Y248874D01*
X237486Y248829D01*
X240534Y248782D01*
Y244718D01*
X236469Y244531D01*
Y248969D01*
X236510Y248934D01*
D02*
G37*
G36*
X163531Y244531D02*
X163490Y244566D01*
X163368Y244598D01*
X163165Y244626D01*
X162514Y244671D01*
X159466Y244718D01*
Y248782D01*
X163531Y248969D01*
Y244531D01*
D02*
G37*
G36*
X132811Y235936D02*
X132770Y236322D01*
X132647Y236667D01*
X132443Y236972D01*
X132156Y237236D01*
X131787Y237460D01*
X131337Y237643D01*
X130805Y237785D01*
X130190Y237887D01*
X130000Y237903D01*
X129810Y237887D01*
X129195Y237785D01*
X128663Y237643D01*
X128213Y237460D01*
X127844Y237236D01*
X127557Y236972D01*
X127353Y236667D01*
X127230Y236322D01*
X127189Y235936D01*
Y244064D01*
X127230Y243678D01*
X127353Y243333D01*
X127557Y243028D01*
X127844Y242764D01*
X128213Y242540D01*
X128663Y242357D01*
X129195Y242215D01*
X129810Y242113D01*
X130000Y242097D01*
X130190Y242113D01*
X130805Y242215D01*
X131337Y242357D01*
X131787Y242540D01*
X132156Y242764D01*
X132443Y243028D01*
X132647Y243333D01*
X132770Y243678D01*
X132811Y244064D01*
Y235936D01*
D02*
G37*
G36*
X147257Y245476D02*
X147369Y245258D01*
X147557Y245066D01*
X147819Y244899D01*
X148156Y244758D01*
X148568Y244643D01*
X149055Y244553D01*
X149617Y244489D01*
X150254Y244450D01*
X150965Y244437D01*
Y240373D01*
X150254Y240356D01*
X149617Y240305D01*
X149055Y240219D01*
X148568Y240099D01*
X148156Y239945D01*
X147819Y239756D01*
X147557Y239534D01*
X147369Y239277D01*
X147257Y238985D01*
X147219Y238659D01*
Y245720D01*
X147257Y245476D01*
D02*
G37*
G36*
X221530Y238030D02*
X221500Y238142D01*
X221409Y238241D01*
X221256Y238329D01*
X221043Y238405D01*
X220769Y238470D01*
X220433Y238522D01*
X220037Y238563D01*
X219062Y238610D01*
X218482Y238616D01*
Y241664D01*
X219062Y241672D01*
X220433Y241793D01*
X220769Y241865D01*
X221043Y241954D01*
X221256Y242059D01*
X221409Y242180D01*
X221500Y242316D01*
X221530Y242470D01*
Y238030D01*
D02*
G37*
G36*
X213701Y242563D02*
X213955Y242375D01*
X214225Y242208D01*
X214510Y242064D01*
X214811Y241942D01*
X215127Y241842D01*
X215459Y241764D01*
X215806Y241708D01*
X216169Y241675D01*
X216548Y241664D01*
X216644Y238616D01*
X216264Y238604D01*
X215902Y238569D01*
X215556Y238510D01*
X215228Y238428D01*
X214916Y238323D01*
X214622Y238194D01*
X214345Y238041D01*
X214085Y237865D01*
X213842Y237666D01*
X213617Y237443D01*
X213463Y242774D01*
X213701Y242563D01*
D02*
G37*
G36*
X189192Y238760D02*
X188874Y238750D01*
X188561Y238711D01*
X188252Y238645D01*
X187948Y238551D01*
X187649Y238430D01*
X187355Y238281D01*
X187064Y238104D01*
X186779Y237899D01*
X186498Y237667D01*
X186222Y237407D01*
X184067Y239562D01*
X184327Y239838D01*
X184559Y240119D01*
X184764Y240404D01*
X184941Y240695D01*
X185090Y240989D01*
X185211Y241289D01*
X185305Y241592D01*
X185371Y241901D01*
X185410Y242214D01*
X185420Y242532D01*
X189192Y238760D01*
D02*
G37*
G36*
X105142Y243064D02*
X105407Y242862D01*
X105698Y242684D01*
X106015Y242530D01*
X106358Y242399D01*
X106727Y242292D01*
X107122Y242209D01*
X107543Y242150D01*
X107990Y242114D01*
X108463Y242102D01*
X108393Y238038D01*
X107921Y238027D01*
X107473Y237992D01*
X107051Y237935D01*
X106654Y237854D01*
X106283Y237751D01*
X105937Y237625D01*
X105616Y237475D01*
X105321Y237303D01*
X105050Y237108D01*
X104806Y236890D01*
X104904Y243290D01*
X105142Y243064D01*
D02*
G37*
G36*
X112781Y236006D02*
X112740Y236392D01*
X112618Y236737D01*
X112415Y237042D01*
X112130Y237306D01*
X111764Y237530D01*
X111317Y237713D01*
X110789Y237855D01*
X110180Y237957D01*
X109489Y238018D01*
X108716Y238038D01*
Y242102D01*
X109489Y242122D01*
X110180Y242183D01*
X110789Y242285D01*
X111317Y242427D01*
X111764Y242610D01*
X112130Y242833D01*
X112415Y243098D01*
X112618Y243403D01*
X112740Y243748D01*
X112781Y244134D01*
Y236006D01*
D02*
G37*
G36*
X181136Y232952D02*
X180625Y232941D01*
X180168Y232906D01*
X179764Y232849D01*
X179414Y232769D01*
X179117Y232666D01*
X178874Y232541D01*
X178685Y232392D01*
X178550Y232221D01*
X178468Y232027D01*
X178439Y231810D01*
X178470Y235970D01*
X181136Y236000D01*
Y232952D01*
D02*
G37*
G36*
X236510Y235934D02*
X236632Y235902D01*
X236835Y235874D01*
X237486Y235829D01*
X240534Y235782D01*
Y231718D01*
X236469Y231530D01*
Y235970D01*
X236510Y235934D01*
D02*
G37*
G36*
X278591Y234696D02*
X279860Y233612D01*
X280202Y233381D01*
X280505Y233214D01*
X280767Y233112D01*
X280989Y233074D01*
X281171Y233102D01*
X281312Y233194D01*
X277260Y229036D01*
X277349Y229181D01*
X277372Y229367D01*
X277331Y229593D01*
X277224Y229860D01*
X277052Y230167D01*
X276815Y230515D01*
X276513Y230904D01*
X275713Y231803D01*
X275215Y232313D01*
X278088Y235187D01*
X278591Y234696D01*
D02*
G37*
G36*
X150093Y225720D02*
X149289Y224886D01*
X148024Y223392D01*
X147564Y222731D01*
X147219Y222127D01*
X146990Y221581D01*
X146875Y221093D01*
Y220662D01*
X146990Y220288D01*
X147219Y219972D01*
X141472Y225720D01*
X141788Y225490D01*
X142162Y225375D01*
X142593D01*
X143081Y225490D01*
X143627Y225720D01*
X144231Y226064D01*
X144892Y226524D01*
X145610Y227099D01*
X147219Y228593D01*
X150093Y225720D01*
D02*
G37*
G36*
X188824Y225179D02*
X188561Y225298D01*
X188286Y225404D01*
X187998Y225499D01*
X187383Y225649D01*
X187057Y225706D01*
X186366Y225781D01*
X186001Y225800D01*
X185624Y225806D01*
X184412Y228854D01*
X184799Y228867D01*
X185159Y228908D01*
X185491Y228976D01*
X185795Y229071D01*
X186073Y229192D01*
X186322Y229341D01*
X186544Y229517D01*
X186739Y229720D01*
X186906Y229950D01*
X187046Y230208D01*
X188824Y225179D01*
D02*
G37*
G36*
X178500Y229353D02*
X178591Y229248D01*
X178744Y229156D01*
X178957Y229076D01*
X179231Y229008D01*
X179567Y228953D01*
X179963Y228909D01*
X180938Y228860D01*
X181518Y228854D01*
Y225806D01*
X180938Y225798D01*
X179567Y225682D01*
X179231Y225612D01*
X178957Y225527D01*
X178744Y225426D01*
X178591Y225310D01*
X178500Y225178D01*
X178470Y225030D01*
Y229470D01*
X178500Y229353D01*
D02*
G37*
G36*
X236500Y229337D02*
X236591Y229219D01*
X236744Y229115D01*
X236957Y229024D01*
X237232Y228948D01*
X237567Y228885D01*
X237963Y228837D01*
X238938Y228781D01*
X239517Y228774D01*
Y225726D01*
X238938Y225719D01*
X237567Y225615D01*
X237232Y225552D01*
X236957Y225476D01*
X236744Y225385D01*
X236591Y225281D01*
X236500Y225163D01*
X236469Y225030D01*
Y229470D01*
X236500Y229337D01*
D02*
G37*
G36*
X256348Y225883D02*
X256629Y225651D01*
X256915Y225446D01*
X257204Y225269D01*
X257499Y225120D01*
X257799Y224999D01*
X258102Y224905D01*
X258411Y224839D01*
X258724Y224800D01*
X259042Y224790D01*
X255270Y221018D01*
X255259Y221336D01*
X255221Y221649D01*
X255155Y221958D01*
X255061Y222262D01*
X254940Y222561D01*
X254791Y222855D01*
X254614Y223146D01*
X254409Y223431D01*
X254177Y223712D01*
X253917Y223988D01*
X256072Y226143D01*
X256348Y225883D01*
D02*
G37*
G36*
X291417Y211162D02*
X291576Y210820D01*
X291843Y210518D01*
X292215Y210257D01*
X292694Y210035D01*
X293280Y209854D01*
X293971Y209713D01*
X294770Y209613D01*
X295674Y209552D01*
X296686Y209532D01*
Y205468D01*
X295674Y205448D01*
X293971Y205287D01*
X293280Y205146D01*
X292694Y204965D01*
X292215Y204743D01*
X291843Y204482D01*
X291576Y204180D01*
X291417Y203838D01*
X291364Y203455D01*
Y211545D01*
X291417Y211162D01*
D02*
G37*
G36*
X186936Y198459D02*
X186970Y198096D01*
X187027Y197749D01*
X187107Y197419D01*
X187210Y197105D01*
X187335Y196808D01*
X187484Y196527D01*
X187656Y196262D01*
X187850Y196013D01*
X188067Y195781D01*
X182733D01*
X182950Y196013D01*
X183144Y196262D01*
X183316Y196527D01*
X183465Y196808D01*
X183590Y197105D01*
X183693Y197419D01*
X183773Y197749D01*
X183830Y198096D01*
X183865Y198459D01*
X183876Y198838D01*
X186924D01*
X186936Y198459D01*
D02*
G37*
G36*
X144180Y193527D02*
X143931Y193739D01*
X143658Y193929D01*
X143359Y194096D01*
X143036Y194241D01*
X142688Y194364D01*
X142314Y194464D01*
X141916Y194543D01*
X141493Y194598D01*
X141046Y194632D01*
X140573Y194643D01*
X140399Y198707D01*
X140872Y198719D01*
X141319Y198756D01*
X141739Y198817D01*
X142132Y198902D01*
X142499Y199011D01*
X142839Y199145D01*
X143153Y199303D01*
X143440Y199485D01*
X143701Y199692D01*
X143935Y199923D01*
X144180Y193527D01*
D02*
G37*
G36*
X134230Y200353D02*
X134353Y200007D01*
X134558Y199703D01*
X134844Y199438D01*
X135213Y199215D01*
X135663Y199032D01*
X136195Y198890D01*
X136810Y198788D01*
X137506Y198727D01*
X138284Y198707D01*
Y194643D01*
X137506Y194623D01*
X136810Y194562D01*
X136195Y194460D01*
X135663Y194318D01*
X135213Y194135D01*
X134844Y193911D01*
X134558Y193647D01*
X134353Y193342D01*
X134230Y192997D01*
X134189Y192611D01*
Y200739D01*
X134230Y200353D01*
D02*
G37*
G36*
X45704Y197220D02*
X45601Y196961D01*
X45571Y196671D01*
X45614Y196350D01*
X45731Y195998D01*
X45921Y195616D01*
X46185Y195203D01*
X46522Y194759D01*
X46932Y194285D01*
X47416Y193780D01*
X45260Y191624D01*
X44755Y192108D01*
X43837Y192855D01*
X43424Y193119D01*
X43042Y193309D01*
X42690Y193426D01*
X42369Y193469D01*
X42079Y193439D01*
X41820Y193336D01*
X41591Y193159D01*
X45881Y197449D01*
X45704Y197220D01*
D02*
G37*
G36*
X185362Y189250D02*
X185044Y189240D01*
X184731Y189201D01*
X184422Y189135D01*
X184119Y189041D01*
X183819Y188920D01*
X183525Y188771D01*
X183235Y188594D01*
X182949Y188389D01*
X182668Y188157D01*
X182392Y187897D01*
X180237Y190052D01*
X180497Y190328D01*
X180729Y190609D01*
X180934Y190895D01*
X181111Y191185D01*
X181260Y191479D01*
X181381Y191779D01*
X181475Y192082D01*
X181541Y192391D01*
X181580Y192704D01*
X181590Y193022D01*
X185362Y189250D01*
D02*
G37*
G36*
X210831Y170628D02*
X210785Y171062D01*
X210647Y171451D01*
X210417Y171794D01*
X210095Y172091D01*
X209680Y172342D01*
X209174Y172548D01*
X208576Y172708D01*
X208054Y172795D01*
X207870Y172780D01*
X207275Y172675D01*
X206772Y172541D01*
X206361Y172376D01*
X206041Y172182D01*
X205812Y171958D01*
X205675Y171704D01*
X205630Y171420D01*
Y178860D01*
X205675Y178599D01*
X205812Y178365D01*
X206041Y178159D01*
X206361Y177980D01*
X206772Y177829D01*
X207275Y177706D01*
X207870Y177610D01*
X208001Y177596D01*
X208576Y177692D01*
X209174Y177852D01*
X209680Y178057D01*
X210095Y178309D01*
X210417Y178606D01*
X210647Y178949D01*
X210785Y179338D01*
X210831Y179772D01*
Y170628D01*
D02*
G37*
G36*
X144278Y173419D02*
X144024Y173621D01*
X143746Y173802D01*
X143444Y173962D01*
X143117Y174100D01*
X142766Y174217D01*
X142390Y174313D01*
X141991Y174387D01*
X141566Y174440D01*
X141118Y174472D01*
X140645Y174483D01*
X140311Y178547D01*
X140785Y178560D01*
X141231Y178597D01*
X141649Y178660D01*
X142040Y178748D01*
X142404Y178861D01*
X142740Y178999D01*
X143048Y179162D01*
X143329Y179351D01*
X143583Y179564D01*
X143809Y179803D01*
X144278Y173419D01*
D02*
G37*
G36*
X244929Y172593D02*
X244697Y172810D01*
X244448Y173004D01*
X244183Y173176D01*
X243902Y173325D01*
X243605Y173450D01*
X243291Y173553D01*
X242961Y173633D01*
X242614Y173690D01*
X242251Y173725D01*
X241872Y173736D01*
Y176784D01*
X242251Y176795D01*
X242614Y176830D01*
X242961Y176887D01*
X243291Y176967D01*
X243605Y177070D01*
X243902Y177195D01*
X244183Y177344D01*
X244448Y177516D01*
X244697Y177710D01*
X244929Y177927D01*
Y172593D01*
D02*
G37*
G36*
X188353Y177710D02*
X188602Y177516D01*
X188867Y177344D01*
X189148Y177195D01*
X189445Y177070D01*
X189759Y176967D01*
X190089Y176887D01*
X190436Y176830D01*
X190799Y176795D01*
X191178Y176784D01*
Y173736D01*
X190799Y173725D01*
X190436Y173690D01*
X190089Y173633D01*
X189759Y173553D01*
X189445Y173450D01*
X189148Y173325D01*
X188867Y173176D01*
X188602Y173004D01*
X188353Y172810D01*
X188121Y172593D01*
Y177927D01*
X188353Y177710D01*
D02*
G37*
G36*
X134230Y180193D02*
X134353Y179848D01*
X134558Y179543D01*
X134844Y179279D01*
X135213Y179055D01*
X135663Y178872D01*
X136195Y178730D01*
X136810Y178628D01*
X137506Y178567D01*
X138284Y178547D01*
Y174483D01*
X137506Y174463D01*
X136810Y174402D01*
X136195Y174300D01*
X135663Y174158D01*
X135213Y173975D01*
X134844Y173752D01*
X134558Y173487D01*
X134353Y173183D01*
X134230Y172837D01*
X134189Y172451D01*
Y180579D01*
X134230Y180193D01*
D02*
G37*
G36*
X236240Y178018D02*
X236332Y177759D01*
X236486Y177531D01*
X236702Y177333D01*
X236979Y177165D01*
X237317Y177028D01*
X237717Y176921D01*
X238179Y176845D01*
X238703Y176799D01*
X239288Y176784D01*
Y173736D01*
X238703Y173721D01*
X238179Y173675D01*
X237717Y173599D01*
X237317Y173492D01*
X236979Y173355D01*
X236702Y173187D01*
X236486Y172989D01*
X236332Y172761D01*
X236240Y172502D01*
X236209Y172212D01*
Y178308D01*
X236240Y178018D01*
D02*
G37*
G36*
X195721Y172212D02*
X195690Y172502D01*
X195598Y172761D01*
X195444Y172989D01*
X195228Y173187D01*
X194951Y173355D01*
X194613Y173492D01*
X194212Y173599D01*
X193751Y173675D01*
X193227Y173721D01*
X192642Y173736D01*
Y176784D01*
X193227Y176799D01*
X193751Y176845D01*
X194212Y176921D01*
X194613Y177028D01*
X194951Y177165D01*
X195228Y177333D01*
X195444Y177531D01*
X195598Y177759D01*
X195690Y178018D01*
X195721Y178308D01*
Y172212D01*
D02*
G37*
G36*
X70786Y176547D02*
X70897Y176290D01*
X71081Y176064D01*
X71338Y175868D01*
X71670Y175701D01*
X72074Y175565D01*
X72553Y175460D01*
X73105Y175384D01*
X73730Y175339D01*
X74430Y175324D01*
Y172276D01*
X73730Y172261D01*
X72553Y172140D01*
X72074Y172034D01*
X71670Y171899D01*
X71338Y171733D01*
X71081Y171536D01*
X70897Y171310D01*
X70786Y171053D01*
X70750Y170766D01*
Y176834D01*
X70786Y176547D01*
D02*
G37*
G36*
X233778Y170260D02*
X233519Y170169D01*
X233291Y170016D01*
X233093Y169803D01*
X232925Y169529D01*
X232788Y169193D01*
X232681Y168797D01*
X232605Y168340D01*
X232559Y167822D01*
X232556Y167700D01*
X232559Y167578D01*
X232605Y167060D01*
X232681Y166603D01*
X232788Y166207D01*
X232925Y165872D01*
X233093Y165597D01*
X233291Y165384D01*
X233519Y165231D01*
X233778Y165140D01*
X234068Y165110D01*
X227972D01*
X228262Y165140D01*
X228521Y165231D01*
X228749Y165384D01*
X228947Y165597D01*
X229115Y165872D01*
X229252Y166207D01*
X229359Y166603D01*
X229435Y167060D01*
X229481Y167578D01*
X229484Y167700D01*
X229481Y167822D01*
X229435Y168340D01*
X229359Y168797D01*
X229252Y169193D01*
X229115Y169529D01*
X228947Y169803D01*
X228749Y170016D01*
X228521Y170169D01*
X228262Y170260D01*
X227972Y170291D01*
X234068D01*
X233778Y170260D01*
D02*
G37*
G36*
X212331Y156076D02*
X212290Y156462D01*
X212167Y156807D01*
X211963Y157112D01*
X211676Y157376D01*
X211307Y157600D01*
X210857Y157783D01*
X210325Y157925D01*
X209711Y158027D01*
X209014Y158088D01*
X208913Y158090D01*
X207621Y157956D01*
X207092Y157838D01*
X206646Y157686D01*
X206280Y157500D01*
X205995Y157281D01*
X205792Y157028D01*
X205670Y156741D01*
X205630Y156420D01*
Y163860D01*
X205670Y163539D01*
X205792Y163252D01*
X205995Y162999D01*
X206280Y162780D01*
X206646Y162594D01*
X207092Y162442D01*
X207621Y162324D01*
X208230Y162239D01*
X208911Y162190D01*
X209014Y162192D01*
X209711Y162253D01*
X210325Y162355D01*
X210857Y162497D01*
X211307Y162680D01*
X211676Y162903D01*
X211963Y163168D01*
X212167Y163472D01*
X212290Y163818D01*
X212331Y164204D01*
Y156076D01*
D02*
G37*
G36*
X281773Y156666D02*
X281515Y156950D01*
X281206Y157126D01*
X280844Y157192D01*
X280430Y157149D01*
X279965Y156998D01*
X279447Y156737D01*
X278878Y156368D01*
X278257Y155889D01*
X277583Y155301D01*
X276858Y154604D01*
X274411Y157904D01*
X275134Y158656D01*
X276280Y160030D01*
X276703Y160651D01*
X277024Y161228D01*
X277246Y161762D01*
X277367Y162252D01*
X277387Y162699D01*
X277307Y163102D01*
X277127Y163461D01*
X281773Y156666D01*
D02*
G37*
G36*
X203418Y156420D02*
X203159Y156328D01*
X202931Y156174D01*
X202733Y155958D01*
X202565Y155681D01*
X202428Y155343D01*
X202321Y154943D01*
X202245Y154481D01*
X202199Y153957D01*
X202184Y153372D01*
X199136D01*
X199121Y153957D01*
X199075Y154481D01*
X198999Y154943D01*
X198892Y155343D01*
X198755Y155681D01*
X198587Y155958D01*
X198389Y156174D01*
X198161Y156328D01*
X197902Y156420D01*
X197612Y156451D01*
X203708D01*
X203418Y156420D01*
D02*
G37*
G36*
X164263Y146523D02*
X165381Y145575D01*
X165876Y145229D01*
X166329Y144968D01*
X166738Y144792D01*
X167105Y144701D01*
X167430Y144695D01*
X167712Y144775D01*
X167951Y144939D01*
X163561Y140769D01*
X163735Y140998D01*
X163822Y141273D01*
X163822Y141592D01*
X163734Y141955D01*
X163559Y142364D01*
X163297Y142818D01*
X162948Y143316D01*
X162511Y143859D01*
X161375Y145079D01*
X163640Y147125D01*
X164263Y146523D01*
D02*
G37*
G36*
X144740Y146712D02*
X144625Y146338D01*
Y145907D01*
X144740Y145419D01*
X144970Y144873D01*
X145314Y144269D01*
X145774Y143608D01*
X146349Y142890D01*
X147843Y141280D01*
X144970Y138407D01*
X144136Y139211D01*
X142642Y140476D01*
X141981Y140936D01*
X141377Y141280D01*
X140831Y141510D01*
X140343Y141625D01*
X139912D01*
X139538Y141510D01*
X139222Y141280D01*
X144970Y147028D01*
X144740Y146712D01*
D02*
G37*
G36*
X282046Y136626D02*
X281774Y136895D01*
X281452Y137057D01*
X281080Y137112D01*
X280658Y137059D01*
X280185Y136899D01*
X279662Y136632D01*
X279088Y136258D01*
X278465Y135777D01*
X277791Y135189D01*
X277067Y134493D01*
X274485Y137659D01*
X275202Y138404D01*
X276332Y139761D01*
X276744Y140372D01*
X277056Y140939D01*
X277266Y141462D01*
X277374Y141940D01*
X277381Y142373D01*
X277287Y142762D01*
X277092Y143106D01*
X282046Y136626D01*
D02*
G37*
G36*
X236510Y138434D02*
X236632Y138402D01*
X236835Y138374D01*
X237486Y138329D01*
X240534Y138282D01*
Y134218D01*
X236469Y134031D01*
Y138469D01*
X236510Y138434D01*
D02*
G37*
G36*
X178500Y138337D02*
X178591Y138219D01*
X178744Y138115D01*
X178957Y138024D01*
X179231Y137948D01*
X179567Y137885D01*
X179963Y137837D01*
X180938Y137781D01*
X181518Y137774D01*
Y134726D01*
X180938Y134719D01*
X179567Y134615D01*
X179231Y134552D01*
X178957Y134476D01*
X178744Y134385D01*
X178591Y134281D01*
X178500Y134163D01*
X178470Y134031D01*
Y138469D01*
X178500Y138337D01*
D02*
G37*
G36*
X135061Y125936D02*
X135020Y126322D01*
X134897Y126667D01*
X134692Y126972D01*
X134406Y127236D01*
X134037Y127460D01*
X133587Y127643D01*
X133055Y127785D01*
X132441Y127887D01*
X131744Y127948D01*
X131125Y127964D01*
X130506Y127948D01*
X129810Y127887D01*
X129195Y127785D01*
X128663Y127643D01*
X128213Y127460D01*
X127844Y127236D01*
X127557Y126972D01*
X127353Y126667D01*
X127230Y126322D01*
X127189Y125936D01*
Y134064D01*
X127230Y133678D01*
X127353Y133333D01*
X127557Y133028D01*
X127844Y132764D01*
X128213Y132540D01*
X128663Y132357D01*
X129195Y132215D01*
X129810Y132113D01*
X130506Y132052D01*
X131125Y132036D01*
X131744Y132052D01*
X132441Y132113D01*
X133055Y132215D01*
X133587Y132357D01*
X134037Y132540D01*
X134406Y132764D01*
X134692Y133028D01*
X134897Y133333D01*
X135020Y133678D01*
X135061Y134064D01*
Y125936D01*
D02*
G37*
G36*
X216313Y132200D02*
X216562Y132006D01*
X216827Y131834D01*
X217108Y131685D01*
X217405Y131560D01*
X217719Y131457D01*
X218049Y131377D01*
X218396Y131320D01*
X218759Y131285D01*
X218951Y131280D01*
X219062Y131281D01*
X220433Y131385D01*
X220769Y131448D01*
X221043Y131524D01*
X221256Y131615D01*
X221409Y131719D01*
X221500Y131837D01*
X221530Y131969D01*
Y127530D01*
X221500Y127663D01*
X221409Y127781D01*
X221256Y127885D01*
X221043Y127976D01*
X220769Y128052D01*
X220433Y128115D01*
X220037Y128163D01*
X219062Y128219D01*
X218951Y128220D01*
X218759Y128215D01*
X218396Y128180D01*
X218049Y128123D01*
X217719Y128043D01*
X217405Y127940D01*
X217108Y127815D01*
X216827Y127666D01*
X216562Y127494D01*
X216313Y127300D01*
X216081Y127083D01*
Y132417D01*
X216313Y132200D01*
D02*
G37*
G36*
X163531Y127530D02*
X163490Y127566D01*
X163368Y127598D01*
X163165Y127626D01*
X162514Y127671D01*
X159466Y127718D01*
Y131782D01*
X163531Y131969D01*
Y127530D01*
D02*
G37*
G36*
X104922Y133192D02*
X105198Y133009D01*
X105500Y132846D01*
X105825Y132706D01*
X106176Y132587D01*
X106551Y132490D01*
X106950Y132414D01*
X107374Y132360D01*
X107822Y132328D01*
X108295Y132317D01*
X108578Y128253D01*
X108105Y128241D01*
X107659Y128203D01*
X107240Y128141D01*
X106848Y128054D01*
X106483Y127942D01*
X106146Y127805D01*
X105836Y127644D01*
X105553Y127457D01*
X105297Y127246D01*
X105068Y127009D01*
X104669Y133398D01*
X104922Y133192D01*
D02*
G37*
G36*
X112781Y126221D02*
X112740Y126607D01*
X112618Y126952D01*
X112415Y127257D01*
X112130Y127521D01*
X111764Y127745D01*
X111317Y127928D01*
X110789Y128070D01*
X110180Y128172D01*
X109489Y128233D01*
X108716Y128253D01*
Y132317D01*
X109489Y132337D01*
X110180Y132398D01*
X110789Y132500D01*
X111317Y132642D01*
X111764Y132825D01*
X112130Y133048D01*
X112415Y133313D01*
X112618Y133617D01*
X112740Y133963D01*
X112781Y134349D01*
Y126221D01*
D02*
G37*
G36*
X145003Y131180D02*
X145104Y130955D01*
X145271Y130757D01*
X145506Y130586D01*
X145808Y130441D01*
X146176Y130322D01*
X146612Y130229D01*
X147115Y130163D01*
X147685Y130124D01*
X148322Y130111D01*
Y126046D01*
X147685Y126039D01*
X146176Y125924D01*
X145808Y125855D01*
X145506Y125771D01*
X145271Y125671D01*
X145104Y125556D01*
X145003Y125426D01*
X144970Y125281D01*
Y131431D01*
X145003Y131180D01*
D02*
G37*
G36*
X38570Y121414D02*
X38543Y121426D01*
X38494Y121436D01*
X38423Y121446D01*
X38214Y121461D01*
X37300Y121476D01*
Y124524D01*
X38570Y124586D01*
Y121414D01*
D02*
G37*
G36*
X236510Y125434D02*
X236632Y125402D01*
X236835Y125374D01*
X237486Y125329D01*
X240534Y125282D01*
Y121218D01*
X236469Y121031D01*
Y125470D01*
X236510Y125434D01*
D02*
G37*
G36*
X163531Y121031D02*
X163490Y121066D01*
X163368Y121098D01*
X163165Y121126D01*
X162514Y121171D01*
X159466Y121218D01*
Y125282D01*
X163531Y125470D01*
Y121031D01*
D02*
G37*
G36*
X236510Y118934D02*
X236632Y118902D01*
X236835Y118874D01*
X237486Y118829D01*
X240534Y118782D01*
Y114718D01*
X236469Y114530D01*
Y118969D01*
X236510Y118934D01*
D02*
G37*
G36*
X163531Y114530D02*
X163490Y114566D01*
X163368Y114598D01*
X163165Y114626D01*
X162514Y114671D01*
X159466Y114718D01*
Y118782D01*
X163531Y118969D01*
Y114530D01*
D02*
G37*
G36*
X45872Y122147D02*
X45742Y121794D01*
X45713Y121395D01*
X45787Y120951D01*
X45964Y120462D01*
X46243Y119926D01*
X46624Y119345D01*
X47109Y118719D01*
X47695Y118047D01*
X48384Y117329D01*
X45511Y114456D01*
X44793Y115145D01*
X43495Y116215D01*
X42914Y116597D01*
X42379Y116876D01*
X41889Y117053D01*
X41445Y117127D01*
X41046Y117099D01*
X40693Y116968D01*
X40386Y116734D01*
X46106Y122454D01*
X45872Y122147D01*
D02*
G37*
G36*
X132811Y105936D02*
X132770Y106322D01*
X132647Y106667D01*
X132443Y106972D01*
X132156Y107236D01*
X131787Y107460D01*
X131337Y107643D01*
X130805Y107785D01*
X130190Y107887D01*
X130000Y107903D01*
X129810Y107887D01*
X129195Y107785D01*
X128663Y107643D01*
X128213Y107460D01*
X127844Y107236D01*
X127557Y106972D01*
X127353Y106667D01*
X127230Y106322D01*
X127189Y105936D01*
Y114064D01*
X127230Y113678D01*
X127353Y113333D01*
X127557Y113028D01*
X127844Y112764D01*
X128213Y112540D01*
X128663Y112357D01*
X129195Y112215D01*
X129810Y112113D01*
X130000Y112097D01*
X130190Y112113D01*
X130805Y112215D01*
X131337Y112357D01*
X131787Y112540D01*
X132156Y112764D01*
X132443Y113028D01*
X132647Y113333D01*
X132770Y113678D01*
X132811Y114064D01*
Y105936D01*
D02*
G37*
G36*
X147257Y115476D02*
X147369Y115258D01*
X147557Y115066D01*
X147819Y114899D01*
X148156Y114758D01*
X148568Y114642D01*
X149055Y114553D01*
X149617Y114489D01*
X150254Y114450D01*
X150965Y114437D01*
Y110373D01*
X150254Y110356D01*
X149617Y110305D01*
X149055Y110219D01*
X148568Y110099D01*
X148156Y109945D01*
X147819Y109756D01*
X147557Y109534D01*
X147369Y109277D01*
X147257Y108985D01*
X147219Y108659D01*
Y115719D01*
X147257Y115476D01*
D02*
G37*
G36*
X221530Y108031D02*
X221500Y108163D01*
X221409Y108281D01*
X221256Y108385D01*
X221043Y108476D01*
X220769Y108552D01*
X220433Y108615D01*
X220037Y108663D01*
X219062Y108719D01*
X218482Y108726D01*
Y111774D01*
X219062Y111781D01*
X220433Y111885D01*
X220769Y111948D01*
X221043Y112024D01*
X221256Y112115D01*
X221409Y112219D01*
X221500Y112337D01*
X221530Y112470D01*
Y108031D01*
D02*
G37*
G36*
X112781Y106426D02*
X112740Y106812D01*
X112618Y107157D01*
X112415Y107462D01*
X112130Y107726D01*
X111764Y107950D01*
X111317Y108133D01*
X110789Y108275D01*
X110180Y108377D01*
X109489Y108438D01*
X108716Y108458D01*
Y112522D01*
X109489Y112542D01*
X110180Y112603D01*
X110789Y112705D01*
X111317Y112847D01*
X111764Y113030D01*
X112130Y113253D01*
X112415Y113518D01*
X112618Y113822D01*
X112740Y114168D01*
X112781Y114554D01*
Y106426D01*
D02*
G37*
G36*
X236510Y105934D02*
X236632Y105902D01*
X236835Y105874D01*
X237486Y105829D01*
X240534Y105782D01*
Y101718D01*
X236469Y101531D01*
Y105969D01*
X236510Y105934D01*
D02*
G37*
G36*
X178500Y105837D02*
X178591Y105719D01*
X178744Y105615D01*
X178957Y105524D01*
X179231Y105448D01*
X179567Y105385D01*
X179963Y105337D01*
X180938Y105281D01*
X181518Y105274D01*
Y102226D01*
X180938Y102219D01*
X179567Y102115D01*
X179231Y102052D01*
X178957Y101976D01*
X178744Y101885D01*
X178591Y101781D01*
X178500Y101663D01*
X178470Y101531D01*
Y105969D01*
X178500Y105837D01*
D02*
G37*
G36*
X184779Y101083D02*
X184547Y101300D01*
X184298Y101495D01*
X184033Y101666D01*
X183752Y101814D01*
X183455Y101940D01*
X183141Y102043D01*
X182811Y102123D01*
X182464Y102180D01*
X182101Y102215D01*
X181722Y102226D01*
Y105274D01*
X182101Y105285D01*
X182464Y105320D01*
X182811Y105377D01*
X183141Y105457D01*
X183455Y105560D01*
X183752Y105686D01*
X184033Y105834D01*
X184298Y106005D01*
X184547Y106200D01*
X184779Y106417D01*
Y101083D01*
D02*
G37*
G36*
X123678Y104270D02*
X123333Y104147D01*
X123028Y103942D01*
X122764Y103656D01*
X122540Y103287D01*
X122357Y102837D01*
X122215Y102305D01*
X122113Y101691D01*
X122052Y100994D01*
X122032Y100217D01*
X117968D01*
X117948Y100994D01*
X117887Y101691D01*
X117785Y102305D01*
X117643Y102837D01*
X117460Y103287D01*
X117236Y103656D01*
X116972Y103942D01*
X116667Y104147D01*
X116322Y104270D01*
X115936Y104311D01*
X124064D01*
X123678Y104270D01*
D02*
G37*
G36*
X278009Y104614D02*
X279062Y103719D01*
X279523Y103396D01*
X279939Y103157D01*
X280312Y103001D01*
X280641Y102928D01*
X280925Y102938D01*
X281166Y103032D01*
X281363Y103210D01*
X277065Y97830D01*
X277196Y98071D01*
X277243Y98358D01*
X277204Y98691D01*
X277080Y99071D01*
X276870Y99496D01*
X276575Y99967D01*
X276195Y100485D01*
X275730Y101048D01*
X274543Y102313D01*
X277417Y105187D01*
X278009Y104614D01*
D02*
G37*
G36*
X150093Y95719D02*
X149289Y94886D01*
X148024Y93392D01*
X147564Y92731D01*
X147219Y92127D01*
X146990Y91581D01*
X146875Y91093D01*
Y90662D01*
X146990Y90288D01*
X147219Y89972D01*
X141472Y95719D01*
X141788Y95490D01*
X142162Y95375D01*
X142593D01*
X143081Y95490D01*
X143627Y95719D01*
X144231Y96064D01*
X144892Y96524D01*
X145610Y97099D01*
X147219Y98593D01*
X150093Y95719D01*
D02*
G37*
G36*
X236500Y99337D02*
X236591Y99219D01*
X236744Y99115D01*
X236957Y99024D01*
X237232Y98948D01*
X237567Y98885D01*
X237963Y98837D01*
X238938Y98781D01*
X239517Y98774D01*
Y95726D01*
X238938Y95719D01*
X237567Y95615D01*
X237232Y95552D01*
X236957Y95476D01*
X236744Y95385D01*
X236591Y95281D01*
X236500Y95163D01*
X236469Y95030D01*
Y99469D01*
X236500Y99337D01*
D02*
G37*
G36*
X245754Y96488D02*
X246037Y96259D01*
X246323Y96061D01*
X246613Y95896D01*
X246906Y95762D01*
X247204Y95659D01*
X247505Y95589D01*
X247809Y95550D01*
X248117Y95543D01*
X248429Y95568D01*
X245133Y91375D01*
X245086Y91689D01*
X245016Y91998D01*
X244922Y92303D01*
X244805Y92603D01*
X244664Y92899D01*
X244499Y93190D01*
X244310Y93477D01*
X244098Y93760D01*
X243862Y94038D01*
X243603Y94312D01*
X245476Y96749D01*
X245754Y96488D01*
D02*
G37*
G36*
X174208Y95030D02*
X173949Y94938D01*
X173721Y94784D01*
X173523Y94568D01*
X173355Y94291D01*
X173218Y93953D01*
X173111Y93553D01*
X173035Y93091D01*
X172989Y92567D01*
X172976Y92066D01*
X172985Y91759D01*
X173020Y91396D01*
X173077Y91049D01*
X173157Y90719D01*
X173260Y90405D01*
X173386Y90108D01*
X173534Y89827D01*
X173706Y89562D01*
X173900Y89313D01*
X174117Y89081D01*
X168783D01*
X169000Y89313D01*
X169195Y89562D01*
X169366Y89827D01*
X169515Y90108D01*
X169640Y90405D01*
X169743Y90719D01*
X169823Y91049D01*
X169880Y91396D01*
X169915Y91759D01*
X169924Y92066D01*
X169911Y92567D01*
X169865Y93091D01*
X169789Y93553D01*
X169682Y93953D01*
X169545Y94291D01*
X169377Y94568D01*
X169179Y94784D01*
X168951Y94938D01*
X168692Y95030D01*
X168402Y95061D01*
X174498D01*
X174208Y95030D01*
D02*
G37*
G36*
X71272Y96747D02*
X71142Y96394D01*
X71113Y95995D01*
X71187Y95551D01*
X71364Y95062D01*
X71643Y94526D01*
X72024Y93945D01*
X72509Y93319D01*
X73095Y92647D01*
X73784Y91929D01*
X70911Y89056D01*
X70193Y89745D01*
X68895Y90815D01*
X68314Y91197D01*
X67779Y91476D01*
X67289Y91653D01*
X66845Y91727D01*
X66446Y91699D01*
X66093Y91568D01*
X65786Y91334D01*
X71506Y97054D01*
X71272Y96747D01*
D02*
G37*
G36*
X126052Y78111D02*
X126113Y77421D01*
X126215Y76811D01*
X126357Y76283D01*
X126540Y75835D01*
X126763Y75470D01*
X127028Y75185D01*
X127332Y74982D01*
X127678Y74860D01*
X128064Y74819D01*
X119936D01*
X120322Y74860D01*
X120667Y74982D01*
X120972Y75185D01*
X121236Y75470D01*
X121460Y75835D01*
X121643Y76283D01*
X121785Y76811D01*
X121887Y77421D01*
X121948Y78111D01*
X121968Y78884D01*
X126032D01*
X126052Y78111D01*
D02*
G37*
G36*
X291417Y81162D02*
X291576Y80820D01*
X291843Y80518D01*
X292215Y80257D01*
X292694Y80035D01*
X293280Y79854D01*
X293971Y79713D01*
X294770Y79612D01*
X295674Y79552D01*
X296686Y79532D01*
Y75468D01*
X295674Y75448D01*
X293971Y75287D01*
X293280Y75146D01*
X292694Y74965D01*
X292215Y74743D01*
X291843Y74482D01*
X291576Y74180D01*
X291417Y73838D01*
X291364Y73455D01*
Y81545D01*
X291417Y81162D01*
D02*
G37*
G36*
X144720Y72608D02*
X144812Y72349D01*
X144966Y72121D01*
X145182Y71923D01*
X145459Y71755D01*
X145797Y71618D01*
X146198Y71511D01*
X146659Y71435D01*
X147183Y71389D01*
X147767Y71374D01*
Y68326D01*
X147183Y68311D01*
X146659Y68265D01*
X146198Y68189D01*
X145797Y68082D01*
X145459Y67945D01*
X145182Y67777D01*
X144966Y67579D01*
X144812Y67351D01*
X144720Y67092D01*
X144689Y66802D01*
Y72898D01*
X144720Y72608D01*
D02*
G37*
G36*
X142758Y64880D02*
X142499Y64788D01*
X142271Y64634D01*
X142073Y64418D01*
X141905Y64141D01*
X141768Y63803D01*
X141661Y63403D01*
X141585Y62941D01*
X141539Y62417D01*
X141524Y61832D01*
X138476D01*
X138461Y62417D01*
X138415Y62941D01*
X138339Y63403D01*
X138232Y63803D01*
X138095Y64141D01*
X137927Y64418D01*
X137729Y64634D01*
X137501Y64788D01*
X137242Y64880D01*
X136952Y64911D01*
X143048D01*
X142758Y64880D01*
D02*
G37*
G36*
X141539Y60773D02*
X141585Y60249D01*
X141661Y59788D01*
X141768Y59387D01*
X141905Y59049D01*
X142073Y58772D01*
X142271Y58556D01*
X142499Y58402D01*
X142758Y58310D01*
X143048Y58279D01*
X136952D01*
X137242Y58310D01*
X137501Y58402D01*
X137729Y58556D01*
X137927Y58772D01*
X138095Y59049D01*
X138232Y59387D01*
X138339Y59788D01*
X138415Y60249D01*
X138461Y60773D01*
X138476Y61357D01*
X141524D01*
X141539Y60773D01*
D02*
G37*
G36*
X121311Y49276D02*
X121270Y49662D01*
X121147Y50008D01*
X120942Y50312D01*
X120656Y50577D01*
X120287Y50800D01*
X119837Y50983D01*
X119305Y51125D01*
X118691Y51227D01*
X117994Y51288D01*
X117217Y51308D01*
Y55372D01*
X117994Y55392D01*
X118691Y55453D01*
X119305Y55555D01*
X119837Y55697D01*
X120287Y55880D01*
X120656Y56104D01*
X120942Y56368D01*
X121147Y56673D01*
X121270Y57018D01*
X121311Y57404D01*
Y49276D01*
D02*
G37*
D15*
X125000Y53340D02*
D03*
X140000D02*
D03*
X216020Y160140D02*
D03*
X231020D02*
D03*
Y289680D02*
D03*
X216020Y289680D02*
D03*
D16*
X127000Y176850D02*
D03*
Y196850D02*
D03*
X120000Y390000D02*
D03*
X120000Y370000D02*
D03*
X140000D02*
D03*
Y350000D02*
D03*
X120000Y260000D02*
D03*
Y240000D02*
D03*
X140000D02*
D03*
Y220000D02*
D03*
X120000Y130000D02*
D03*
Y110000D02*
D03*
X140000Y90000D02*
D03*
X140000Y110000D02*
D03*
X127000Y303500D02*
D03*
Y323500D02*
D03*
D17*
X124000Y69850D02*
D03*
X140000D02*
D03*
X231520Y175260D02*
D03*
X215520D02*
D03*
Y304680D02*
D03*
X231520D02*
D03*
D18*
X140000Y406000D02*
D03*
Y390000D02*
D03*
X139700Y258700D02*
D03*
Y274700D02*
D03*
X140000Y130000D02*
D03*
Y146000D02*
D03*
D19*
X200660Y160140D02*
D03*
Y175140D02*
D03*
X200660Y304680D02*
D03*
X200660Y289680D02*
D03*
D30*
X171000Y110250D02*
D03*
Y116750D02*
D03*
Y103750D02*
D03*
Y129750D02*
D03*
Y123250D02*
D03*
Y142750D02*
D03*
Y136250D02*
D03*
Y97250D02*
D03*
X229000Y110250D02*
D03*
Y116750D02*
D03*
Y103750D02*
D03*
Y129750D02*
D03*
Y123250D02*
D03*
Y142750D02*
D03*
Y136250D02*
D03*
Y97250D02*
D03*
X171000Y396250D02*
D03*
X171000Y402750D02*
D03*
X171000Y370250D02*
D03*
X171000Y376750D02*
D03*
Y363750D02*
D03*
Y389750D02*
D03*
X171000Y383250D02*
D03*
Y357250D02*
D03*
X229000Y370250D02*
D03*
X229000Y376750D02*
D03*
Y363750D02*
D03*
Y389750D02*
D03*
X229000Y383250D02*
D03*
X229000Y402750D02*
D03*
X229000Y396250D02*
D03*
X229000Y357250D02*
D03*
X171000Y240250D02*
D03*
Y246750D02*
D03*
Y233750D02*
D03*
Y259750D02*
D03*
Y253250D02*
D03*
Y272750D02*
D03*
Y266250D02*
D03*
Y227250D02*
D03*
X229000Y240250D02*
D03*
Y246750D02*
D03*
X229000Y233750D02*
D03*
X229000Y259750D02*
D03*
Y253250D02*
D03*
Y272750D02*
D03*
Y266250D02*
D03*
Y227250D02*
D03*
D31*
X248279Y91790D02*
X248920D01*
X229000Y97250D02*
X242819D01*
X248279Y91790D01*
X171000Y103750D02*
X186640D01*
X171080Y227330D02*
X187993D01*
X189263Y228600D02*
X190500D01*
X187993Y227330D02*
X189263Y228600D01*
X181136Y234476D02*
X189230Y242570D01*
X210930Y240140D02*
X228890D01*
X210820Y240030D02*
X210930Y240140D01*
X198120Y270510D02*
X198120Y270510D01*
Y218440D02*
Y270510D01*
X185400Y205720D02*
X198120Y218440D01*
X212090Y389750D02*
X229000D01*
X212090Y370250D02*
X229000D01*
X182913Y396240D02*
X186723Y400050D01*
X187960D01*
X177800Y396240D02*
X182913D01*
X39840Y326200D02*
X52730Y339090D01*
X150630D02*
X165024Y353484D01*
X52730Y339090D02*
X150630D01*
X195580Y88900D02*
Y146050D01*
X177800Y163830D02*
Y185460D01*
Y163830D02*
X195580Y146050D01*
X176530Y69850D02*
X195580Y88900D01*
X200660Y124460D02*
X214870Y110250D01*
X200660Y124460D02*
Y160140D01*
X140000Y69850D02*
X176530D01*
X168910Y162560D02*
X184150Y147320D01*
Y138035D02*
Y147320D01*
X111760Y162560D02*
X168910D01*
X177800Y185460D02*
X185400Y193060D01*
X140000Y53340D02*
Y69850D01*
X119510Y110490D02*
X120000Y110000D01*
X37300Y123000D02*
X39840D01*
X171000Y97250D02*
X171450Y96800D01*
Y86360D02*
Y96800D01*
X182365Y136250D02*
X184150Y138035D01*
X171000Y136250D02*
X182365D01*
X165024Y143476D02*
X165750Y142750D01*
X151130Y157480D02*
X165024Y143586D01*
X104140Y157480D02*
X151130D01*
X165750Y142750D02*
X171000D01*
X165024Y143476D02*
Y143586D01*
X87820Y173800D02*
X104140Y157480D01*
X87630Y186690D02*
X111760Y162560D01*
X62700Y173800D02*
X87820D01*
X52350Y186690D02*
X87630D01*
X39840Y199200D02*
X52350Y186690D01*
X37300Y199200D02*
X39840D01*
X213804Y129750D02*
X229000D01*
X214870Y110250D02*
X229000D01*
X171726Y234476D02*
X181136D01*
X171000Y233750D02*
X171726Y234476D01*
X231020Y174760D02*
X231520Y175260D01*
X231020Y160140D02*
Y174760D01*
X231520Y175260D02*
X247650D01*
X185400D02*
X200660D01*
X185400Y193060D02*
Y205720D01*
X231520Y304680D02*
X231640Y304800D01*
X246380D01*
X184150Y268036D02*
Y283381D01*
X179241Y288290D02*
X184150Y283381D01*
X171000Y266250D02*
X182365D01*
X184150Y268036D01*
X39840Y275400D02*
X52730Y288290D01*
X94234Y283464D02*
X166116D01*
X171450Y278130D01*
X52730Y288290D02*
X179241D01*
X73660Y262890D02*
X94234Y283464D01*
X171000Y273026D02*
X171450Y273476D01*
Y278130D01*
X171000Y272750D02*
Y273026D01*
X37300Y250000D02*
X39840D01*
X52730Y262890D01*
X73660D01*
X37300Y275400D02*
X39840D01*
X228890Y240140D02*
X229000Y240250D01*
X216020Y262770D02*
X218960Y259830D01*
X228920D01*
X229000Y259750D01*
X216020Y262770D02*
Y289680D01*
X200660D02*
X216020D01*
X165024Y353484D02*
Y356524D01*
X165750Y357250D02*
X171000D01*
X165024Y356524D02*
X165750Y357250D01*
X200660Y304680D02*
X215520D01*
X185420D02*
X200660D01*
X229000Y227250D02*
X252810D01*
X259080Y220980D01*
X247986Y351790D02*
X248920D01*
X229000Y357250D02*
X242526D01*
X247986Y351790D01*
X184150Y345440D02*
Y361435D01*
X53488Y314448D02*
X153158D01*
X184150Y345440D01*
X181835Y363750D02*
X184150Y361435D01*
X171000Y363750D02*
X181835D01*
X39840Y300800D02*
X53488Y314448D01*
X37300Y300800D02*
X39840D01*
X37300Y326200D02*
X39840D01*
X170906Y402750D02*
Y413926D01*
D32*
X62700Y97600D02*
X65240D01*
X109500Y53340D01*
X125000D01*
X120000Y110000D02*
Y110000D01*
Y83200D02*
Y110000D01*
Y83200D02*
X124000Y79200D01*
Y69850D02*
Y79200D01*
X52350Y110490D02*
X119510D01*
X39840Y123000D02*
X52350Y110490D01*
X119945Y240070D02*
X120000Y240125D01*
X101660Y240070D02*
X119945D01*
X101590Y240140D02*
X101660Y240070D01*
X200660Y160140D02*
X216020D01*
X154540Y253250D02*
X171000D01*
X141922Y258078D02*
X149712D01*
X154540Y253250D01*
X140000Y260000D02*
X141922Y258078D01*
X121300Y258700D02*
X139700D01*
X101785Y260285D02*
X120000D01*
Y260000D02*
X121300Y258700D01*
X139700Y274700D02*
X142418Y271982D01*
X145848D01*
X158080Y259750D01*
X171000D01*
X231020Y303500D02*
X231270Y303750D01*
Y289930D02*
Y304430D01*
X147320Y176530D02*
X147335Y176515D01*
X127000Y303505D02*
X147325D01*
X127000Y176515D02*
X147335D01*
X127000Y323665D02*
X147485D01*
X102427Y389183D02*
X124298D01*
X127000Y196675D02*
X147495D01*
X101785Y130285D02*
X125115D01*
X282230Y97500D02*
X285000D01*
X275980Y103750D02*
X282230Y97500D01*
X229000Y103750D02*
X275980D01*
X281880Y162500D02*
X285000D01*
X255630Y136250D02*
X281880Y162500D01*
X229000Y136250D02*
X255630D01*
X282200Y142500D02*
X285000D01*
X229000Y123250D02*
X262950D01*
X282200Y142500D01*
X282901Y227500D02*
X285000D01*
X276651Y233750D02*
X282901Y227500D01*
X229000Y233750D02*
X276651D01*
X229000Y266250D02*
X256090D01*
X282340Y292500D02*
X285000D01*
X256090Y266250D02*
X282340Y292500D01*
X229000Y253250D02*
X265750D01*
X285000Y272500D01*
X282901Y357500D02*
X285000D01*
X229000Y363750D02*
X276651D01*
X282901Y357500D01*
X229000Y396250D02*
X258750D01*
X285000Y422500D01*
X229000Y383250D02*
X265750D01*
X285000Y402500D01*
X124298Y389183D02*
X125115Y390000D01*
X101610Y388366D02*
X102427Y389183D01*
X125115Y390000D02*
X140000D01*
X101590Y370000D02*
X120000D01*
X120000D02*
X140000D01*
X120000Y130000D02*
X140000D01*
X120000Y110000D02*
X140000D01*
X147320Y196850D02*
X147495Y196675D01*
X148322Y128078D02*
X153150Y123250D01*
X140000Y130000D02*
X141922Y128078D01*
X153150Y123250D02*
X171000D01*
X141922Y128078D02*
X148322D01*
X156500Y129750D02*
X171000D01*
X140000Y146000D02*
X140250D01*
X156500Y129750D01*
X140000Y110000D02*
X142405Y112405D01*
X150965D01*
X155310Y116750D02*
X171000D01*
X150965Y112405D02*
X155310Y116750D01*
X170782Y110032D02*
X171000Y110250D01*
X140000Y90000D02*
X141500D01*
X161532Y110032D01*
X170782D01*
X148322Y388078D02*
X153150Y383250D01*
X140000Y390000D02*
X141922Y388078D01*
X153150Y383250D02*
X171000D01*
X141922Y388078D02*
X148322D01*
X156500Y389750D02*
X171000D01*
X140000Y406000D02*
X140250D01*
X156500Y389750D01*
X140000Y370000D02*
X142405Y372405D01*
X150965D01*
X155310Y376750D02*
X171000D01*
X150965Y372405D02*
X155310Y376750D01*
X170782Y370032D02*
X171000Y370250D01*
X140000Y350000D02*
X141500D01*
X161532Y370032D01*
X170782D01*
X161532Y240032D02*
X170782D01*
X141500Y220000D02*
X161532Y240032D01*
X140000Y220000D02*
X141500D01*
X170782Y240032D02*
X171000Y240250D01*
X150965Y242405D02*
X155310Y246750D01*
X171000D01*
X142405Y242405D02*
X150965D01*
X140000Y240000D02*
X142405Y242405D01*
X120000Y240000D02*
X140000D01*
X229000Y376750D02*
X289650D01*
X300990Y365410D01*
X285000Y337500D02*
X297210D01*
X300990Y341280D02*
Y365410D01*
X297210Y337500D02*
X300990Y341280D01*
X229000Y246750D02*
X289650D01*
X300990Y235410D01*
X285000Y207500D02*
X297210D01*
X300990Y211280D02*
Y235410D01*
X297210Y207500D02*
X300990Y211280D01*
X297210Y77500D02*
X300990Y81280D01*
Y105410D01*
X285000Y77500D02*
X297210D01*
X289650Y116750D02*
X300990Y105410D01*
X229000Y116750D02*
X289650D01*
D33*
X200720Y175200D02*
X215460D01*
X200660Y175140D02*
X200720Y175200D01*
D34*
X285000Y162500D02*
D03*
Y142500D02*
D03*
Y337500D02*
D03*
Y357500D02*
D03*
Y402500D02*
D03*
Y422500D02*
D03*
Y207500D02*
D03*
Y227500D02*
D03*
Y292500D02*
D03*
Y272500D02*
D03*
Y77500D02*
D03*
Y97500D02*
D03*
D35*
X62700Y377000D02*
D03*
X62700Y402400D02*
D03*
X62700Y199200D02*
D03*
X37300Y199200D02*
D03*
Y173800D02*
D03*
X62700D02*
D03*
Y224600D02*
D03*
X37300D02*
D03*
X62700Y351600D02*
D03*
X37300Y326200D02*
D03*
Y377000D02*
D03*
Y402400D02*
D03*
Y275400D02*
D03*
X37300Y250000D02*
D03*
X37300Y351600D02*
D03*
Y300800D02*
D03*
X62700Y300800D02*
D03*
Y250000D02*
D03*
Y275400D02*
D03*
X62700Y326200D02*
D03*
X37300Y148400D02*
D03*
X62700Y148400D02*
D03*
Y97600D02*
D03*
X37300D02*
D03*
Y123000D02*
D03*
X62700Y123000D02*
D03*
D36*
X25000Y475000D02*
D03*
X325000D02*
D03*
Y25000D02*
D03*
X25000D02*
D03*
D37*
X248920Y91790D02*
D03*
X171450Y86360D02*
D03*
X187500Y103750D02*
D03*
X190500Y228600D02*
D03*
X189230Y242570D02*
D03*
X210820Y240030D02*
D03*
X198100Y270510D02*
D03*
X212090Y370250D02*
D03*
Y389750D02*
D03*
X187960Y400050D02*
D03*
X213360Y129750D02*
D03*
X247650Y175260D02*
D03*
X185400D02*
D03*
X246380Y304800D02*
D03*
X185400Y193060D02*
D03*
X185420Y304680D02*
D03*
X259080Y220980D02*
D03*
X248920Y351790D02*
D03*
X171000Y413500D02*
D03*
D38*
X101590Y240140D02*
D03*
X101610Y388366D02*
D03*
X101590Y370000D02*
D03*
X101610Y130000D02*
D03*
X147300Y176850D02*
D03*
X147320Y196850D02*
D03*
X101610Y260000D02*
D03*
X147290Y303490D02*
D03*
X147310Y323840D02*
D03*
M02*
