G04*
G04 #@! TF.GenerationSoftware,Altium Limited,Altium Designer,22.4.2 (48)*
G04*
G04 Layer_Color=255*
%FSLAX44Y44*%
%MOMM*%
G71*
G04*
G04 #@! TF.SameCoordinates,805B4EF3-34EF-46CF-B3EC-FB7C4EB053B5*
G04*
G04*
G04 #@! TF.FilePolarity,Positive*
G04*
G01*
G75*
%ADD14R,1.0000X0.7500*%
%ADD15R,0.9500X1.4500*%
G04:AMPARAMS|DCode=16|XSize=1.5mm|YSize=3.5mm|CornerRadius=0.375mm|HoleSize=0mm|Usage=FLASHONLY|Rotation=270.000|XOffset=0mm|YOffset=0mm|HoleType=Round|Shape=RoundedRectangle|*
%AMROUNDEDRECTD16*
21,1,1.5000,2.7500,0,0,270.0*
21,1,0.7500,3.5000,0,0,270.0*
1,1,0.7500,-1.3750,-0.3750*
1,1,0.7500,-1.3750,0.3750*
1,1,0.7500,1.3750,0.3750*
1,1,0.7500,1.3750,-0.3750*
%
%ADD16ROUNDEDRECTD16*%
G04:AMPARAMS|DCode=17|XSize=1mm|YSize=3.5mm|CornerRadius=0.25mm|HoleSize=0mm|Usage=FLASHONLY|Rotation=270.000|XOffset=0mm|YOffset=0mm|HoleType=Round|Shape=RoundedRectangle|*
%AMROUNDEDRECTD17*
21,1,1.0000,3.0000,0,0,270.0*
21,1,0.5000,3.5000,0,0,270.0*
1,1,0.5000,-1.5000,-0.2500*
1,1,0.5000,-1.5000,0.2500*
1,1,0.5000,1.5000,0.2500*
1,1,0.5000,1.5000,-0.2500*
%
%ADD17ROUNDEDRECTD17*%
G04:AMPARAMS|DCode=18|XSize=4.5mm|YSize=4.5mm|CornerRadius=1.125mm|HoleSize=0mm|Usage=FLASHONLY|Rotation=0.000|XOffset=0mm|YOffset=0mm|HoleType=Round|Shape=RoundedRectangle|*
%AMROUNDEDRECTD18*
21,1,4.5000,2.2500,0,0,0.0*
21,1,2.2500,4.5000,0,0,0.0*
1,1,2.2500,1.1250,-1.1250*
1,1,2.2500,-1.1250,-1.1250*
1,1,2.2500,-1.1250,1.1250*
1,1,2.2500,1.1250,1.1250*
%
%ADD18ROUNDEDRECTD18*%
%ADD19R,1.4500X1.1500*%
G04:AMPARAMS|DCode=20|XSize=1.1mm|YSize=0.6mm|CornerRadius=0.15mm|HoleSize=0mm|Usage=FLASHONLY|Rotation=90.000|XOffset=0mm|YOffset=0mm|HoleType=Round|Shape=RoundedRectangle|*
%AMROUNDEDRECTD20*
21,1,1.1000,0.3000,0,0,90.0*
21,1,0.8000,0.6000,0,0,90.0*
1,1,0.3000,0.1500,0.4000*
1,1,0.3000,0.1500,-0.4000*
1,1,0.3000,-0.1500,-0.4000*
1,1,0.3000,-0.1500,0.4000*
%
%ADD20ROUNDEDRECTD20*%
%ADD21R,0.9500X1.0000*%
%ADD22R,1.0000X0.9500*%
%ADD24R,0.7500X1.0000*%
%ADD25R,1.1500X1.4500*%
%ADD39R,1.2000X1.2000*%
%ADD41C,1.0000*%
%ADD42C,1.5240*%
%ADD43O,1.5000X2.0000*%
%ADD44O,1.5000X0.9000*%
D14*
X113030Y176410D02*
D03*
Y161410D02*
D03*
X162940Y128390D02*
D03*
Y143390D02*
D03*
X146940D02*
D03*
Y128390D02*
D03*
X128270Y176410D02*
D03*
Y161410D02*
D03*
X33020Y75500D02*
D03*
Y90500D02*
D03*
X48260Y75500D02*
D03*
Y90500D02*
D03*
D15*
X82140Y386080D02*
D03*
X62640D02*
D03*
D16*
X19250Y338500D02*
D03*
Y171500D02*
D03*
X280750D02*
D03*
Y338500D02*
D03*
D17*
X74750Y315000D02*
D03*
Y195000D02*
D03*
Y295000D02*
D03*
Y215000D02*
D03*
Y235000D02*
D03*
Y255000D02*
D03*
Y275000D02*
D03*
X225250Y195000D02*
D03*
Y315000D02*
D03*
Y215000D02*
D03*
Y295000D02*
D03*
Y275000D02*
D03*
Y255000D02*
D03*
Y235000D02*
D03*
D18*
X165000Y306600D02*
D03*
D19*
X128489Y144982D02*
D03*
Y124982D02*
D03*
X201930Y363800D02*
D03*
Y383800D02*
D03*
D20*
X84430Y90200D02*
D03*
X65430D02*
D03*
X84430Y62200D02*
D03*
X74930D02*
D03*
X65430D02*
D03*
D21*
X72010Y40640D02*
D03*
X88010D02*
D03*
D22*
X100330Y74200D02*
D03*
Y90200D02*
D03*
X181610Y383920D02*
D03*
Y367920D02*
D03*
D24*
X127240Y364490D02*
D03*
X142240D02*
D03*
D25*
X144740Y383800D02*
D03*
X124740D02*
D03*
D39*
X13970Y93050D02*
D03*
Y72050D02*
D03*
D41*
X165000Y306600D02*
D03*
Y291600D02*
D03*
Y321670D02*
D03*
X150000Y306600D02*
D03*
X180000D02*
D03*
Y291600D02*
D03*
X150000D02*
D03*
Y321670D02*
D03*
X180000D02*
D03*
D42*
X70000Y17000D02*
D03*
X90000D02*
D03*
X227960Y60960D02*
D03*
X207960D02*
D03*
X187960D02*
D03*
D43*
X40640Y130000D02*
D03*
X66040D02*
D03*
X15240D02*
D03*
X207010Y123190D02*
D03*
X257810D02*
D03*
X232410D02*
D03*
X283210D02*
D03*
D44*
X25000Y25000D02*
D03*
X275000Y375000D02*
D03*
X25000D02*
D03*
X275000Y25000D02*
D03*
M02*
