G04*
G04 #@! TF.GenerationSoftware,Altium Limited,Altium Designer,22.4.2 (48)*
G04*
G04 Layer_Color=2752767*
%FSLAX44Y44*%
%MOMM*%
G71*
G04*
G04 #@! TF.SameCoordinates,805B4EF3-34EF-46CF-B3EC-FB7C4EB053B5*
G04*
G04*
G04 #@! TF.FilePolarity,Positive*
G04*
G01*
G75*
%ADD11C,0.1270*%
%ADD55C,0.1693*%
D11*
X159920Y301520D02*
Y311680D01*
X170080D01*
Y301520D01*
X159920D01*
Y286520D02*
Y296680D01*
X170080D01*
Y286520D01*
X159920D01*
Y316590D02*
Y326750D01*
X170080D01*
Y316590D01*
X159920D01*
X144920Y301520D02*
Y311680D01*
X155080D01*
Y301520D01*
X144920D01*
X174920D02*
Y311680D01*
X185080D01*
Y301520D01*
X174920D01*
Y286520D02*
Y296680D01*
X185080D01*
Y286520D01*
X174920D01*
X144920D02*
Y296680D01*
X155080D01*
Y286520D01*
X144920D01*
Y316590D02*
Y326750D01*
X155080D01*
Y316590D01*
X144920D01*
X174920D02*
Y326750D01*
X185080D01*
Y316590D01*
X174920D01*
X25000Y19920D02*
X19920Y30080D01*
X30080D01*
X25000Y19920D01*
X275000Y369920D02*
X269920Y380080D01*
X280080D01*
X275000Y369920D01*
X25000D02*
X19920Y380080D01*
X30080D01*
X25000Y369920D01*
X275000Y19920D02*
X269920Y30080D01*
X280080D01*
X275000Y19920D01*
X154940Y345440D02*
X157480Y347980D01*
X160020D01*
X157480Y350520D01*
X160020Y353060D01*
X157480D01*
X154940Y355600D01*
X152400Y353060D01*
X149860D01*
X152400Y350520D01*
X149860Y347980D01*
X152400D01*
X154940Y345440D01*
X193040Y332740D02*
X195580Y337820D01*
X193040Y342900D01*
X198120Y340360D01*
X203200Y342900D01*
X200660Y337820D01*
X203200Y332740D01*
X198120Y335280D01*
X193040Y332740D01*
X242570Y82550D02*
X245110Y85090D01*
X247650D01*
X245110Y87630D01*
X247650Y90170D01*
X245110D01*
X242570Y92710D01*
X240030Y90170D01*
X237490D01*
X240030Y87630D01*
X237490Y85090D01*
X240030D01*
X242570Y82550D01*
X252257Y353019D02*
X254797Y355559D01*
X257337D01*
X254797Y358099D01*
X257337Y360639D01*
X254797D01*
X252257Y363179D01*
X249717Y360639D01*
X247177D01*
X249717Y358099D01*
X247177Y355559D01*
X249717D01*
X252257Y353019D01*
X127000Y347980D02*
X129540Y350520D01*
X132080D01*
X129540Y353060D01*
X132080Y355600D01*
X129540D01*
X127000Y358140D01*
X124460Y355600D01*
X121920D01*
X124460Y353060D01*
X121920Y350520D01*
X124460D01*
X127000Y347980D01*
X189867Y215191D02*
X192407Y217731D01*
X194947D01*
X192407Y220271D01*
X194947Y222811D01*
X192407D01*
X189867Y225351D01*
X187327Y222811D01*
X184787D01*
X187327Y220271D01*
X184787Y217731D01*
X187327D01*
X189867Y215191D01*
X125730Y222637D02*
Y220097D01*
X130810D01*
Y222637D01*
X133350D01*
Y227717D01*
X130810D01*
Y230257D01*
X125730D01*
Y227717D01*
X123190D01*
Y222637D01*
X125730D01*
X127709Y94994D02*
X130249Y97534D01*
X132789D01*
X130249Y100074D01*
X132789Y102614D01*
X130249D01*
X127709Y105154D01*
X125169Y102614D01*
X122629D01*
X125169Y100074D01*
X122629Y97534D01*
X125169D01*
X127709Y94994D01*
X157860Y101600D02*
X160400Y106680D01*
X157860Y111760D01*
X162940Y109220D01*
X168020Y111760D01*
X165480Y106680D01*
X168020Y101600D01*
X162940Y104140D01*
X157860Y101600D01*
X141860D02*
X144400Y106680D01*
X141860Y111760D01*
X146940Y109220D01*
X152020Y111760D01*
X149480Y106680D01*
X152020Y101600D01*
X146940Y104140D01*
X141860Y101600D01*
X193040Y279400D02*
X195580Y284480D01*
X193040Y289560D01*
X198120Y287020D01*
X203200Y289560D01*
X200660Y284480D01*
X203200Y279400D01*
X198120Y281940D01*
X193040Y279400D01*
X39370Y289560D02*
X41910Y292100D01*
X44450D01*
X41910Y294640D01*
X44450Y297180D01*
X41910D01*
X39370Y299720D01*
X36830Y297180D01*
X34290D01*
X36830Y294640D01*
X34290Y292100D01*
X36830D01*
X39370Y289560D01*
X140997Y235401D02*
X143537Y240481D01*
X140997Y245561D01*
X146077Y243021D01*
X151157Y245561D01*
X148617Y240481D01*
X151157Y235401D01*
X146077Y237941D01*
X140997Y235401D01*
X100005Y216581D02*
X102544Y219121D01*
X105084D01*
X102544Y221661D01*
X105084Y224201D01*
X102544D01*
X100005Y226741D01*
X97465Y224201D01*
X94924D01*
X97465Y221661D01*
X94924Y219121D01*
X97465D01*
X100005Y216581D01*
X158750Y176530D02*
X161290Y181610D01*
X158750Y186690D01*
X163830Y184150D01*
X168910Y186690D01*
X166370Y181610D01*
X168910Y176530D01*
X163830Y179070D01*
X158750Y176530D01*
X141860D02*
X144400Y181610D01*
X141860Y186690D01*
X146940Y184150D01*
X152020Y186690D01*
X149480Y181610D01*
X152020Y176530D01*
X146940Y179070D01*
X141860Y176530D01*
X80010Y156210D02*
X82550Y158750D01*
X85090D01*
X82550Y161290D01*
X85090Y163830D01*
X82550D01*
X80010Y166370D01*
X77470Y163830D01*
X74930D01*
X77470Y161290D01*
X74930Y158750D01*
X77470D01*
X80010Y156210D01*
X104140Y289560D02*
X106680Y292100D01*
X109220D01*
X106680Y294640D01*
X109220Y297180D01*
X106680D01*
X104140Y299720D01*
X101600Y297180D01*
X99060D01*
X101600Y294640D01*
X99060Y292100D01*
X101600D01*
X104140Y289560D01*
X39370Y228465D02*
X41910Y231005D01*
X44450D01*
X41910Y233545D01*
X44450Y236085D01*
X41910D01*
X39370Y238625D01*
X36830Y236085D01*
X34290D01*
X36830Y233545D01*
X34290Y231005D01*
X36830D01*
X39370Y228465D01*
X184150Y270510D02*
X186690Y273050D01*
X189230D01*
X186690Y275590D01*
X189230Y278130D01*
X186690D01*
X184150Y280670D01*
X181610Y278130D01*
X179070D01*
X181610Y275590D01*
X179070Y273050D01*
X181610D01*
X184150Y270510D01*
Y250190D02*
X186690Y252730D01*
X189230D01*
X186690Y255270D01*
X189230Y257810D01*
X186690D01*
X184150Y260350D01*
X181610Y257810D01*
X179070D01*
X181610Y255270D01*
X179070Y252730D01*
X181610D01*
X184150Y250190D01*
X255000Y229920D02*
X257540Y232460D01*
X260080D01*
X257540Y235000D01*
X260080Y237540D01*
X257540D01*
X255000Y240080D01*
X252460Y237540D01*
X249920D01*
X252460Y235000D01*
X249920Y232460D01*
X252460D01*
X255000Y229920D01*
X265000Y249920D02*
X267540Y252460D01*
X270080D01*
X267540Y255000D01*
X270080Y257540D01*
X267540D01*
X265000Y260080D01*
X262460Y257540D01*
X259920D01*
X262460Y255000D01*
X259920Y252460D01*
X262460D01*
X265000Y249920D01*
X285000Y289920D02*
X287540Y292460D01*
X290080D01*
X287540Y295000D01*
X290080Y297540D01*
X287540D01*
X285000Y300080D01*
X282460Y297540D01*
X279920D01*
X282460Y295000D01*
X279920Y292460D01*
X282460D01*
X285000Y289920D01*
X275000Y269920D02*
X277540Y272460D01*
X280080D01*
X277540Y275000D01*
X280080Y277540D01*
X277540D01*
X275000Y280080D01*
X272460Y277540D01*
X269920D01*
X272460Y275000D01*
X269920Y272460D01*
X272460D01*
X275000Y269920D01*
X215900Y365760D02*
X218440Y370840D01*
X215900Y375920D01*
X220980Y373380D01*
X226060Y375920D01*
X223520Y370840D01*
X226060Y365760D01*
X220980Y368300D01*
X215900Y365760D01*
X159920Y378720D02*
X162460Y383800D01*
X159920Y388880D01*
X165000Y386340D01*
X170080Y388880D01*
X167540Y383800D01*
X170080Y378720D01*
X165000Y381260D01*
X159920Y378720D01*
X110490Y68580D02*
X113030Y73660D01*
X110490Y78740D01*
X115570Y76200D01*
X120650Y78740D01*
X118110Y73660D01*
X120650Y68580D01*
X115570Y71120D01*
X110490Y68580D01*
Y52960D02*
X113030Y58040D01*
X110490Y63120D01*
X115570Y60580D01*
X120650Y63120D01*
X118110Y58040D01*
X120650Y52960D01*
X115570Y55500D01*
X110490Y52960D01*
D55*
X75080Y17000D02*
G03*
X75080Y17000I-5080J0D01*
G01*
X95080D02*
G03*
X95080Y17000I-5080J0D01*
G01*
X233040Y60960D02*
G03*
X233040Y60960I-5080J0D01*
G01*
X213040D02*
G03*
X213040Y60960I-5080J0D01*
G01*
X193040D02*
G03*
X193040Y60960I-5080J0D01*
G01*
X45720Y130000D02*
G03*
X45720Y130000I-5080J0D01*
G01*
X71120D02*
G03*
X71120Y130000I-5080J0D01*
G01*
X20320D02*
G03*
X20320Y130000I-5080J0D01*
G01*
X212090Y123190D02*
G03*
X212090Y123190I-5080J0D01*
G01*
X262890D02*
G03*
X262890Y123190I-5080J0D01*
G01*
X237490D02*
G03*
X237490Y123190I-5080J0D01*
G01*
X288290D02*
G03*
X288290Y123190I-5080J0D01*
G01*
M02*
