G04*
G04 #@! TF.GenerationSoftware,Altium Limited,Altium Designer,24.10.1 (45)*
G04*
G04 Layer_Color=2752767*
%FSLAX44Y44*%
%MOMM*%
G71*
G04*
G04 #@! TF.SameCoordinates,DE934D07-760A-40F3-A6A2-C4044611B154*
G04*
G04*
G04 #@! TF.FilePolarity,Positive*
G04*
G01*
G75*
%ADD10C,0.1270*%
%ADD52C,0.1693*%
D10*
X-99060Y301630D02*
X-104140Y311790D01*
X-93980D01*
X-99060Y301630D01*
X-99060Y250830D02*
X-104140Y260990D01*
X-93980D01*
X-99060Y250830D01*
X-99060Y276230D02*
X-104140Y286390D01*
X-93980D01*
X-99060Y276230D01*
X-57000Y94920D02*
X-62080Y105080D01*
X-51920D01*
X-57000Y94920D01*
Y114920D02*
X-62080Y125080D01*
X-51920D01*
X-57000Y114920D01*
Y134920D02*
X-62080Y145080D01*
X-51920D01*
X-57000Y134920D01*
Y154920D02*
X-62080Y165080D01*
X-51920D01*
X-57000Y154920D01*
Y174920D02*
X-62080Y185080D01*
X-51920D01*
X-57000Y174920D01*
Y194920D02*
X-62080Y205080D01*
X-51920D01*
X-57000Y194920D01*
X-54610Y54920D02*
X-59690Y65080D01*
X-49530D01*
X-54610Y54920D01*
X-34610D02*
X-39690Y65080D01*
X-29530D01*
X-34610Y54920D01*
X-14610D02*
X-19690Y65080D01*
X-9530D01*
X-14610Y54920D01*
X54610Y54920D02*
X49530Y65080D01*
X59690D01*
X54610Y54920D01*
X34610Y54920D02*
X29530Y65080D01*
X39690D01*
X34610Y54920D01*
X-104000Y394920D02*
X-109080Y405080D01*
X-98920D01*
X-104000Y394920D01*
Y374920D02*
X-109080Y385080D01*
X-98920D01*
X-104000Y374920D01*
X56960Y94920D02*
X51880Y105080D01*
X62040D01*
X56960Y94920D01*
Y114920D02*
X51880Y125080D01*
X62040D01*
X56960Y114920D01*
Y134920D02*
X51880Y145080D01*
X62040D01*
X56960Y134920D01*
Y154920D02*
X51880Y165080D01*
X62040D01*
X56960Y154920D01*
Y174920D02*
X51880Y185080D01*
X62040D01*
X56960Y174920D01*
Y194920D02*
X51880Y205080D01*
X62040D01*
X56960Y194920D01*
X-102580Y14920D02*
Y25080D01*
X-92420D01*
Y14920D01*
X-102580D01*
X92420D02*
Y25080D01*
X102580D01*
Y14920D01*
X92420D01*
X-5080Y169920D02*
Y180080D01*
X5080D01*
Y169920D01*
X-5080D01*
X25400Y281310D02*
Y278770D01*
X30480D01*
Y281310D01*
X33020D01*
Y286390D01*
X30480D01*
Y288930D01*
X25400D01*
Y286390D01*
X22860D01*
Y281310D01*
X25400D01*
X71120Y260990D02*
Y258450D01*
X76200D01*
Y260990D01*
X78740D01*
Y266070D01*
X76200D01*
Y268610D01*
X71120D01*
Y266070D01*
X68580D01*
Y260990D01*
X71120D01*
X77470Y248290D02*
Y245750D01*
X82550D01*
Y248290D01*
X85090D01*
Y253370D01*
X82550D01*
Y255910D01*
X77470D01*
Y253370D01*
X74930D01*
Y248290D01*
X77470D01*
X71120Y198760D02*
Y196220D01*
X76200D01*
Y198760D01*
X78740D01*
Y203840D01*
X76200D01*
Y206380D01*
X71120D01*
Y203840D01*
X68580D01*
Y198760D01*
X71120D01*
X77470Y186060D02*
Y183520D01*
X82550D01*
Y186060D01*
X85090D01*
Y191140D01*
X82550D01*
Y193680D01*
X77470D01*
Y191140D01*
X74930D01*
Y186060D01*
X77470D01*
X21590Y247020D02*
Y244480D01*
X26670D01*
Y247020D01*
X29210D01*
Y252100D01*
X26670D01*
Y254640D01*
X21590D01*
Y252100D01*
X19050D01*
Y247020D01*
X21590D01*
X34290Y248290D02*
Y245750D01*
X39370D01*
Y248290D01*
X41910D01*
Y253370D01*
X39370D01*
Y255910D01*
X34290D01*
Y253370D01*
X31750D01*
Y248290D01*
X34290D01*
X48260Y252100D02*
Y249560D01*
X53340D01*
Y252100D01*
X55880D01*
Y257180D01*
X53340D01*
Y259720D01*
X48260D01*
Y257180D01*
X45720D01*
Y252100D01*
X48260D01*
X88312Y380863D02*
Y378323D01*
X93392D01*
Y380863D01*
X95932D01*
Y385943D01*
X93392D01*
Y388483D01*
X88312D01*
Y385943D01*
X85772D01*
Y380863D01*
X88312D01*
X-43180Y409580D02*
X-38100Y414660D01*
X-33020Y409580D01*
X-38100Y404500D01*
X-43180Y409580D01*
X-41384Y407784D02*
X-36304Y412864D01*
X-31224Y407784D01*
X-36304Y402704D01*
X-41384Y407784D01*
X-43180Y405988D02*
X-38100Y411068D01*
X-33020Y405988D01*
X-38100Y400908D01*
X-43180Y405988D01*
X-44976Y407784D02*
X-39896Y412864D01*
X-34816Y407784D01*
X-39896Y402704D01*
X-44976Y407784D01*
X-46772Y409580D02*
X-41692Y414660D01*
X-36612Y409580D01*
X-41692Y404500D01*
X-46772Y409580D01*
X-44976Y411376D02*
X-39896Y416456D01*
X-34816Y411376D01*
X-39896Y406296D01*
X-44976Y411376D01*
X-43180Y413172D02*
X-38100Y418252D01*
X-33020Y413172D01*
X-38100Y408092D01*
X-43180Y413172D01*
X-41384Y411376D02*
X-36304Y416456D01*
X-31224Y411376D01*
X-36304Y406296D01*
X-41384Y411376D01*
X-39456Y409650D02*
X-34376Y414730D01*
X-29296Y409650D01*
X-34376Y404571D01*
X-39456Y409650D01*
X-51180Y380750D02*
X-46100Y385830D01*
X-41020Y380750D01*
X-46100Y375670D01*
X-51180Y380750D01*
X-49384Y378954D02*
X-44304Y384034D01*
X-39224Y378954D01*
X-44304Y373874D01*
X-49384Y378954D01*
X-51180Y377158D02*
X-46100Y382238D01*
X-41020Y377158D01*
X-46100Y372078D01*
X-51180Y377158D01*
X-52976Y378954D02*
X-47896Y384034D01*
X-42816Y378954D01*
X-47896Y373874D01*
X-52976Y378954D01*
X-54772Y380750D02*
X-49692Y385830D01*
X-44612Y380750D01*
X-49692Y375670D01*
X-54772Y380750D01*
X-52976Y382546D02*
X-47896Y387626D01*
X-42816Y382546D01*
X-47896Y377466D01*
X-52976Y382546D01*
X-51180Y384342D02*
X-46100Y389422D01*
X-41020Y384342D01*
X-46100Y379262D01*
X-51180Y384342D01*
X-49384Y382546D02*
X-44304Y387626D01*
X-39224Y382546D01*
X-44304Y377466D01*
X-49384Y382546D01*
X-47456Y380821D02*
X-42376Y385900D01*
X-37296Y380821D01*
X-42376Y375741D01*
X-47456Y380821D01*
X-8637Y381133D02*
X-3557Y386213D01*
X1523Y381133D01*
X-3557Y376053D01*
X-8637Y381133D01*
X-6841Y379336D02*
X-1761Y384416D01*
X3319Y379336D01*
X-1761Y374256D01*
X-6841Y379336D01*
X-8637Y377540D02*
X-3557Y382620D01*
X1523Y377540D01*
X-3557Y372460D01*
X-8637Y377540D01*
X-10434Y379336D02*
X-5354Y384416D01*
X-274Y379336D01*
X-5354Y374256D01*
X-10434Y379336D01*
X-12230Y381133D02*
X-7150Y386213D01*
X-2070Y381133D01*
X-7150Y376053D01*
X-12230Y381133D01*
X-10434Y382929D02*
X-5354Y388008D01*
X-274Y382929D01*
X-5354Y377849D01*
X-10434Y382929D01*
X-8637Y384725D02*
X-3557Y389805D01*
X1523Y384725D01*
X-3557Y379645D01*
X-8637Y384725D01*
X-6841Y382929D02*
X-1761Y388008D01*
X3319Y382929D01*
X-1761Y377849D01*
X-6841Y382929D01*
X-4914Y381203D02*
X166Y386283D01*
X5246Y381203D01*
X166Y376123D01*
X-4914Y381203D01*
X84300Y395610D02*
X89380Y400690D01*
X94460Y395610D01*
X89380Y390530D01*
X84300Y395610D01*
X86096Y393814D02*
X91176Y398894D01*
X96256Y393814D01*
X91176Y388734D01*
X86096Y393814D01*
X84300Y392018D02*
X89380Y397098D01*
X94460Y392018D01*
X89380Y386938D01*
X84300Y392018D01*
X82504Y393814D02*
X87584Y398894D01*
X92664Y393814D01*
X87584Y388734D01*
X82504Y393814D01*
X80708Y395610D02*
X85788Y400690D01*
X90868Y395610D01*
X85788Y390530D01*
X80708Y395610D01*
X82504Y397406D02*
X87584Y402486D01*
X92664Y397406D01*
X87584Y392326D01*
X82504Y397406D01*
X84300Y399202D02*
X89380Y404282D01*
X94460Y399202D01*
X89380Y394122D01*
X84300Y399202D01*
X86096Y397406D02*
X91176Y402486D01*
X96256Y397406D01*
X91176Y392326D01*
X86096Y397406D01*
X88024Y395681D02*
X93104Y400760D01*
X98184Y395681D01*
X93104Y390601D01*
X88024Y395681D01*
X83570Y410925D02*
X88650Y416005D01*
X93730Y410925D01*
X88650Y405845D01*
X83570Y410925D01*
X85366Y409129D02*
X90447Y414209D01*
X95527Y409129D01*
X90447Y404049D01*
X85366Y409129D01*
X83570Y407333D02*
X88650Y412413D01*
X93730Y407333D01*
X88650Y402253D01*
X83570Y407333D01*
X81774Y409129D02*
X86854Y414209D01*
X91934Y409129D01*
X86854Y404049D01*
X81774Y409129D01*
X79978Y410925D02*
X85058Y416005D01*
X90138Y410925D01*
X85058Y405845D01*
X79978Y410925D01*
X81774Y412721D02*
X86854Y417801D01*
X91934Y412721D01*
X86854Y407641D01*
X81774Y412721D01*
X83570Y414517D02*
X88650Y419597D01*
X93730Y414517D01*
X88650Y409437D01*
X83570Y414517D01*
X85366Y412721D02*
X90447Y417801D01*
X95527Y412721D01*
X90447Y407641D01*
X85366Y412721D01*
X87294Y410996D02*
X92374Y416076D01*
X97454Y410996D01*
X92374Y405916D01*
X87294Y410996D01*
D52*
X52040Y346670D02*
G03*
X52040Y346670I-5080J0D01*
G01*
X22040D02*
G03*
X22040Y346670I-5080J0D01*
G01*
Y316600D02*
G03*
X22040Y316600I-5080J0D01*
G01*
X52040D02*
G03*
X52040Y316600I-5080J0D01*
G01*
Y331600D02*
G03*
X52040Y331600I-5080J0D01*
G01*
X22040D02*
G03*
X22040Y331600I-5080J0D01*
G01*
X37040Y346670D02*
G03*
X37040Y346670I-5080J0D01*
G01*
Y316600D02*
G03*
X37040Y316600I-5080J0D01*
G01*
Y331600D02*
G03*
X37040Y331600I-5080J0D01*
G01*
M02*
