G04*
G04 #@! TF.GenerationSoftware,Altium Limited,Altium Designer,24.10.1 (45)*
G04*
G04 Layer_Physical_Order=2*
G04 Layer_Color=16711680*
%FSLAX44Y44*%
%MOMM*%
G71*
G04*
G04 #@! TF.SameCoordinates,DE934D07-760A-40F3-A6A2-C4044611B154*
G04*
G04*
G04 #@! TF.FilePolarity,Positive*
G04*
G01*
G75*
G04:AMPARAMS|DCode=19|XSize=4.5mm|YSize=4.5mm|CornerRadius=1.125mm|HoleSize=0mm|Usage=FLASHONLY|Rotation=0.000|XOffset=0mm|YOffset=0mm|HoleType=Round|Shape=RoundedRectangle|*
%AMROUNDEDRECTD19*
21,1,4.5000,2.2500,0,0,0.0*
21,1,2.2500,4.5000,0,0,0.0*
1,1,2.2500,1.1250,-1.1250*
1,1,2.2500,-1.1250,-1.1250*
1,1,2.2500,-1.1250,1.1250*
1,1,2.2500,1.1250,1.1250*
%
%ADD19ROUNDEDRECTD19*%
%ADD35C,0.6000*%
%ADD36C,0.3000*%
%ADD37C,0.2540*%
%ADD39C,1.0000*%
%ADD40O,2.0000X1.5000*%
%ADD41C,1.5240*%
%ADD42O,1.5000X0.9000*%
%ADD43C,0.4000*%
%ADD44C,0.3000*%
G04:AMPARAMS|DCode=45|XSize=1.5mm|YSize=0.9mm|CornerRadius=0.225mm|HoleSize=0mm|Usage=FLASHONLY|Rotation=90.000|XOffset=0mm|YOffset=0mm|HoleType=Round|Shape=RoundedRectangle|*
%AMROUNDEDRECTD45*
21,1,1.5000,0.4500,0,0,90.0*
21,1,1.0500,0.9000,0,0,90.0*
1,1,0.4500,0.2250,0.5250*
1,1,0.4500,0.2250,-0.5250*
1,1,0.4500,-0.2250,-0.5250*
1,1,0.4500,-0.2250,0.5250*
%
%ADD45ROUNDEDRECTD45*%
G04:AMPARAMS|DCode=46|XSize=1.5mm|YSize=0.9mm|CornerRadius=0.225mm|HoleSize=0mm|Usage=FLASHONLY|Rotation=180.000|XOffset=0mm|YOffset=0mm|HoleType=Round|Shape=RoundedRectangle|*
%AMROUNDEDRECTD46*
21,1,1.5000,0.4500,0,0,180.0*
21,1,1.0500,0.9000,0,0,180.0*
1,1,0.4500,-0.5250,0.2250*
1,1,0.4500,0.5250,0.2250*
1,1,0.4500,0.5250,-0.2250*
1,1,0.4500,-0.5250,-0.2250*
%
%ADD46ROUNDEDRECTD46*%
%ADD47C,0.2000*%
G36*
X-93193Y404064D02*
X-93708Y403525D01*
X-94620Y402423D01*
X-95017Y401859D01*
X-95375Y401287D01*
X-95693Y400707D01*
X-95971Y400119D01*
X-96211Y399523D01*
X-96410Y398919D01*
X-96571Y398306D01*
X-102158Y407394D01*
X-101551Y407277D01*
X-100948Y407232D01*
X-100352Y407257D01*
X-99760Y407354D01*
X-99174Y407521D01*
X-98593Y407759D01*
X-98017Y408068D01*
X-97446Y408448D01*
X-96881Y408899D01*
X-96321Y409421D01*
X-93193Y404064D01*
D02*
G37*
G36*
X98344Y413141D02*
X97610Y404950D01*
X97279Y405367D01*
X96874Y405741D01*
X96393Y406070D01*
X95839Y406356D01*
X95210Y406598D01*
X94507Y406795D01*
X93728Y406949D01*
X92876Y407059D01*
X91949Y407125D01*
X90947Y407147D01*
X92375Y413147D01*
X98344Y413141D01*
D02*
G37*
G36*
X-64097Y412960D02*
X-63687Y412799D01*
X-63193Y412656D01*
X-62614Y412532D01*
X-61952Y412428D01*
X-60376Y412276D01*
X-58464Y412200D01*
X-57382Y412190D01*
X-57099Y406190D01*
X-58024Y406173D01*
X-59747Y406034D01*
X-60544Y405913D01*
X-61298Y405757D01*
X-62009Y405567D01*
X-62677Y405342D01*
X-63302Y405082D01*
X-63885Y404788D01*
X-64424Y404459D01*
Y413141D01*
X-64097Y412960D01*
D02*
G37*
G36*
X-76656Y404459D02*
X-77090Y404714D01*
X-77588Y404942D01*
X-78151Y405143D01*
X-78779Y405317D01*
X-79471Y405465D01*
X-81050Y405679D01*
X-81937Y405746D01*
X-83904Y405800D01*
Y411800D01*
X-82888Y411813D01*
X-80228Y412015D01*
X-79471Y412135D01*
X-78151Y412457D01*
X-77588Y412658D01*
X-77090Y412886D01*
X-76656Y413141D01*
Y404459D01*
D02*
G37*
G36*
X98344Y391759D02*
X98045Y391921D01*
X97657Y392066D01*
X97181Y392193D01*
X96617Y392304D01*
X95222Y392474D01*
X93473Y392576D01*
X91369Y392610D01*
X90999Y398610D01*
X91901Y398628D01*
X93594Y398775D01*
X94384Y398903D01*
X95138Y399068D01*
X95854Y399269D01*
X96532Y399507D01*
X97173Y399782D01*
X97777Y400093D01*
X98344Y400441D01*
Y391759D01*
D02*
G37*
G36*
X92317Y384777D02*
X92375Y384755D01*
X92453Y384735D01*
X92553Y384718D01*
X92816Y384692D01*
X93165Y384677D01*
X93598Y384671D01*
X93596Y382131D01*
X93369Y382130D01*
X92451Y382068D01*
X92373Y382048D01*
X92315Y382026D01*
X92279Y382002D01*
X92281Y384802D01*
X92317Y384777D01*
D02*
G37*
G36*
X97034Y380867D02*
X97008Y381107D01*
X96929Y381322D01*
X96798Y381512D01*
X96614Y381676D01*
X96377Y381815D01*
X96088Y381929D01*
X95747Y382018D01*
X95353Y382081D01*
X94906Y382119D01*
X94407Y382131D01*
Y384671D01*
X94906Y384684D01*
X95353Y384722D01*
X95747Y384785D01*
X96089Y384874D01*
X96378Y384987D01*
X96614Y385126D01*
X96798Y385291D01*
X96930Y385480D01*
X97008Y385695D01*
X97035Y385935D01*
X97034Y380867D01*
D02*
G37*
G36*
X97126Y367706D02*
X97094Y367990D01*
X96999Y368244D01*
X96840Y368468D01*
X96617Y368662D01*
X96331Y368826D01*
X95982Y368961D01*
X95568Y369066D01*
X95091Y369140D01*
X94551Y369185D01*
X93947Y369200D01*
Y372200D01*
X94551Y372215D01*
X95091Y372260D01*
X95568Y372335D01*
X95982Y372439D01*
X96331Y372574D01*
X96617Y372738D01*
X96840Y372932D01*
X96999Y373156D01*
X97094Y373410D01*
X97126Y373694D01*
Y367706D01*
D02*
G37*
G36*
X-77846Y367587D02*
X-77881Y367869D01*
X-77979Y368121D01*
X-78140Y368343D01*
X-78366Y368536D01*
X-78655Y368699D01*
X-79007Y368833D01*
X-79423Y368937D01*
X-79903Y369011D01*
X-80446Y369055D01*
X-81053Y369070D01*
Y372070D01*
X-80451Y372085D01*
X-79914Y372130D01*
X-79439Y372205D01*
X-79029Y372309D01*
X-78681Y372444D01*
X-78398Y372608D01*
X-78178Y372802D01*
X-78022Y373026D01*
X-77929Y373280D01*
X-77900Y373564D01*
X-77846Y367587D01*
D02*
G37*
G36*
X97126Y355006D02*
X97094Y355290D01*
X96999Y355544D01*
X96840Y355768D01*
X96617Y355962D01*
X96331Y356127D01*
X95982Y356261D01*
X95568Y356366D01*
X95091Y356440D01*
X94551Y356485D01*
X93947Y356500D01*
Y359500D01*
X94551Y359515D01*
X95091Y359560D01*
X95568Y359635D01*
X95982Y359739D01*
X96331Y359874D01*
X96617Y360038D01*
X96840Y360232D01*
X96999Y360456D01*
X97094Y360710D01*
X97126Y360994D01*
Y355006D01*
D02*
G37*
G36*
X-77577Y354484D02*
X-77618Y354632D01*
X-77712Y354765D01*
X-77859Y354883D01*
X-78057Y354984D01*
X-78309Y355070D01*
X-78612Y355141D01*
X-78969Y355195D01*
X-79377Y355234D01*
X-80352Y355266D01*
Y358266D01*
X-79895Y358274D01*
X-79131Y358338D01*
X-78824Y358394D01*
X-78566Y358465D01*
X-78358Y358553D01*
X-78200Y358657D01*
X-78091Y358777D01*
X-78032Y358913D01*
X-78023Y359064D01*
X-77577Y354484D01*
D02*
G37*
G36*
X97126Y342306D02*
X97094Y342590D01*
X96999Y342844D01*
X96840Y343068D01*
X96617Y343262D01*
X96331Y343427D01*
X95982Y343561D01*
X95568Y343666D01*
X95091Y343740D01*
X94551Y343785D01*
X93947Y343800D01*
Y346800D01*
X94551Y346815D01*
X95091Y346860D01*
X95568Y346935D01*
X95982Y347039D01*
X96331Y347174D01*
X96617Y347338D01*
X96840Y347532D01*
X96999Y347756D01*
X97094Y348010D01*
X97126Y348294D01*
Y342306D01*
D02*
G37*
G36*
Y329606D02*
X97094Y329890D01*
X96999Y330144D01*
X96840Y330368D01*
X96617Y330562D01*
X96331Y330727D01*
X95982Y330861D01*
X95568Y330965D01*
X95091Y331040D01*
X94551Y331085D01*
X93947Y331100D01*
Y334100D01*
X94551Y334115D01*
X95091Y334160D01*
X95568Y334235D01*
X95982Y334339D01*
X96331Y334473D01*
X96617Y334638D01*
X96840Y334832D01*
X96999Y335056D01*
X97094Y335310D01*
X97126Y335594D01*
Y329606D01*
D02*
G37*
G36*
Y316906D02*
X97094Y317190D01*
X96999Y317444D01*
X96840Y317668D01*
X96617Y317862D01*
X96331Y318027D01*
X95982Y318161D01*
X95568Y318265D01*
X95091Y318340D01*
X94551Y318385D01*
X93947Y318400D01*
Y321400D01*
X94551Y321415D01*
X95091Y321460D01*
X95568Y321535D01*
X95982Y321639D01*
X96331Y321773D01*
X96617Y321938D01*
X96840Y322132D01*
X96999Y322356D01*
X97094Y322610D01*
X97126Y322894D01*
Y316906D01*
D02*
G37*
G36*
X-93750Y316663D02*
X-93735Y315993D01*
X-93617Y314842D01*
X-93513Y314362D01*
X-93380Y313945D01*
X-93217Y313592D01*
X-93025Y313302D01*
X-92802Y313075D01*
X-92551Y312912D01*
X-92269Y312812D01*
X-98250Y314185D01*
X-97965Y314154D01*
X-97710Y314196D01*
X-97485Y314313D01*
X-97290Y314505D01*
X-97125Y314771D01*
X-96990Y315111D01*
X-96885Y315526D01*
X-96810Y316015D01*
X-96765Y316578D01*
X-96750Y317216D01*
X-93750Y316663D01*
D02*
G37*
G36*
X97126Y304206D02*
X97094Y304490D01*
X96999Y304744D01*
X96840Y304968D01*
X96617Y305162D01*
X96331Y305326D01*
X95982Y305461D01*
X95568Y305565D01*
X95091Y305640D01*
X94551Y305685D01*
X93947Y305700D01*
Y308700D01*
X94551Y308715D01*
X95091Y308760D01*
X95568Y308834D01*
X95982Y308939D01*
X96331Y309074D01*
X96617Y309238D01*
X96840Y309432D01*
X96999Y309656D01*
X97094Y309910D01*
X97126Y310194D01*
Y304206D01*
D02*
G37*
G36*
X100550Y290018D02*
X100349Y290214D01*
X100101Y290322D01*
X99807Y290341D01*
X99466Y290272D01*
X99078Y290114D01*
X98643Y289868D01*
X98162Y289532D01*
X97634Y289109D01*
X96437Y287995D01*
X94171Y289973D01*
X94864Y290686D01*
X95975Y291964D01*
X96393Y292529D01*
X96719Y293043D01*
X96954Y293508D01*
X97097Y293923D01*
X97149Y294288D01*
X97109Y294604D01*
X96977Y294870D01*
X100550Y290018D01*
D02*
G37*
G36*
X-88180Y287568D02*
X-88642Y287086D01*
X-89352Y286208D01*
X-89601Y285811D01*
X-89780Y285443D01*
X-89888Y285105D01*
X-89925Y284794D01*
X-89892Y284512D01*
X-89788Y284259D01*
X-89613Y284035D01*
X-93835Y288257D01*
X-93611Y288082D01*
X-93358Y287978D01*
X-93076Y287945D01*
X-92766Y287982D01*
X-92427Y288090D01*
X-92059Y288269D01*
X-91663Y288518D01*
X-91237Y288838D01*
X-90784Y289228D01*
X-90302Y289690D01*
X-88180Y287568D01*
D02*
G37*
G36*
X-93642Y249269D02*
X-94149Y249063D01*
X-94597Y248719D01*
X-94985Y248237D01*
X-95313Y247617D01*
X-95582Y246860D01*
X-95791Y245965D01*
X-95940Y244932D01*
X-96030Y243762D01*
X-96060Y242454D01*
X-102060D01*
X-102090Y243762D01*
X-102179Y244932D01*
X-102329Y245965D01*
X-102537Y246860D01*
X-102806Y247617D01*
X-103135Y248237D01*
X-103523Y248719D01*
X-103971Y249063D01*
X-104478Y249269D01*
X-105045Y249338D01*
X-93074D01*
X-93642Y249269D01*
D02*
G37*
G36*
X-63174Y246410D02*
X-63079Y246156D01*
X-62920Y245932D01*
X-62698Y245738D01*
X-62411Y245574D01*
X-62062Y245439D01*
X-61648Y245334D01*
X-61172Y245260D01*
X-60631Y245215D01*
X-60027Y245200D01*
Y242200D01*
X-60631Y242185D01*
X-61172Y242140D01*
X-61648Y242066D01*
X-62062Y241961D01*
X-62411Y241826D01*
X-62698Y241662D01*
X-62920Y241468D01*
X-63079Y241244D01*
X-63174Y240990D01*
X-63206Y240706D01*
Y246694D01*
X-63174Y246410D01*
D02*
G37*
G36*
X78146Y224650D02*
X77918Y224152D01*
X77717Y223589D01*
X77543Y222961D01*
X77395Y222269D01*
X77181Y220690D01*
X77113Y219803D01*
X77060Y217836D01*
X71060D01*
X71047Y218852D01*
X70845Y221512D01*
X70725Y222269D01*
X70403Y223589D01*
X70202Y224152D01*
X69974Y224650D01*
X69719Y225084D01*
X78401D01*
X78146Y224650D01*
D02*
G37*
G36*
X67267Y206065D02*
X66751Y205515D01*
X66289Y204955D01*
X65883Y204383D01*
X65531Y203801D01*
X65235Y203207D01*
X64994Y202603D01*
X64808Y201988D01*
X64677Y201362D01*
X64601Y200724D01*
X64580Y200076D01*
X57036Y207620D01*
X57684Y207641D01*
X58321Y207717D01*
X58948Y207848D01*
X59563Y208034D01*
X60167Y208275D01*
X60761Y208571D01*
X61343Y208923D01*
X61915Y209329D01*
X62475Y209791D01*
X63025Y210307D01*
X67267Y206065D01*
D02*
G37*
G36*
X61851Y194085D02*
X61454Y193581D01*
X61104Y193045D01*
X60800Y192479D01*
X60543Y191881D01*
X60333Y191252D01*
X60170Y190591D01*
X60070Y190000D01*
X60170Y189409D01*
X60333Y188748D01*
X60543Y188119D01*
X60800Y187521D01*
X61104Y186955D01*
X61454Y186419D01*
X61851Y185915D01*
X62294Y185442D01*
X51626D01*
X52069Y185915D01*
X52466Y186419D01*
X52816Y186955D01*
X53120Y187521D01*
X53376Y188119D01*
X53587Y188748D01*
X53750Y189409D01*
X53850Y190000D01*
X53750Y190591D01*
X53587Y191252D01*
X53376Y191881D01*
X53120Y192479D01*
X52816Y193045D01*
X52466Y193581D01*
X52069Y194085D01*
X51626Y194558D01*
X62294D01*
X61851Y194085D01*
D02*
G37*
G36*
X51518Y154666D02*
X51045Y155110D01*
X50541Y155506D01*
X50005Y155856D01*
X49439Y156160D01*
X48841Y156417D01*
X48211Y156627D01*
X47551Y156790D01*
X46860Y156907D01*
X46137Y156977D01*
X45383Y157000D01*
Y163000D01*
X46137Y163023D01*
X46860Y163093D01*
X47551Y163210D01*
X48211Y163373D01*
X48841Y163584D01*
X49439Y163840D01*
X50005Y164144D01*
X50541Y164494D01*
X51045Y164891D01*
X51518Y165334D01*
Y154666D01*
D02*
G37*
G36*
X63144Y144606D02*
X64574Y143379D01*
X65262Y142880D01*
X65931Y142458D01*
X66582Y142113D01*
X67215Y141845D01*
X67829Y141653D01*
X68425Y141538D01*
X69003Y141500D01*
Y138500D01*
X68425Y138462D01*
X67829Y138347D01*
X67215Y138155D01*
X66582Y137887D01*
X65931Y137542D01*
X65262Y137120D01*
X64574Y136621D01*
X63868Y136046D01*
X62402Y134666D01*
Y145334D01*
X63144Y144606D01*
D02*
G37*
G36*
X-51085Y144890D02*
X-50581Y144494D01*
X-50045Y144144D01*
X-49479Y143840D01*
X-48881Y143583D01*
X-48252Y143373D01*
X-47591Y143210D01*
X-46900Y143093D01*
X-46177Y143023D01*
X-45423Y143000D01*
Y137000D01*
X-46177Y136977D01*
X-46900Y136907D01*
X-47591Y136790D01*
X-48252Y136627D01*
X-48881Y136417D01*
X-49479Y136160D01*
X-50045Y135856D01*
X-50581Y135506D01*
X-51085Y135110D01*
X-51558Y134666D01*
Y145334D01*
X-51085Y144890D01*
D02*
G37*
G36*
X63144Y124606D02*
X64574Y123379D01*
X65262Y122880D01*
X65931Y122458D01*
X66582Y122113D01*
X67215Y121845D01*
X67829Y121653D01*
X68425Y121538D01*
X69003Y121500D01*
Y118500D01*
X68425Y118462D01*
X67829Y118347D01*
X67215Y118155D01*
X66582Y117887D01*
X65931Y117542D01*
X65262Y117120D01*
X64574Y116621D01*
X63868Y116046D01*
X62402Y114666D01*
Y125334D01*
X63144Y124606D01*
D02*
G37*
G36*
X-62442Y114666D02*
X-62915Y115110D01*
X-63419Y115506D01*
X-63955Y115856D01*
X-64521Y116160D01*
X-65119Y116417D01*
X-65748Y116627D01*
X-66409Y116790D01*
X-67100Y116907D01*
X-67823Y116977D01*
X-68577Y117000D01*
Y123000D01*
X-67823Y123023D01*
X-67100Y123093D01*
X-66409Y123210D01*
X-65748Y123373D01*
X-65119Y123583D01*
X-64521Y123840D01*
X-63955Y124144D01*
X-63419Y124494D01*
X-62915Y124891D01*
X-62442Y125334D01*
Y114666D01*
D02*
G37*
G36*
X-52109Y114085D02*
X-52506Y113581D01*
X-52856Y113045D01*
X-53160Y112479D01*
X-53417Y111881D01*
X-53627Y111252D01*
X-53790Y110591D01*
X-53890Y110000D01*
X-53790Y109409D01*
X-53627Y108748D01*
X-53417Y108119D01*
X-53160Y107521D01*
X-52856Y106955D01*
X-52506Y106419D01*
X-52109Y105915D01*
X-51666Y105442D01*
X-62334D01*
X-61891Y105915D01*
X-61494Y106419D01*
X-61144Y106955D01*
X-60840Y107521D01*
X-60584Y108119D01*
X-60373Y108748D01*
X-60210Y109409D01*
X-60110Y110000D01*
X-60210Y110591D01*
X-60373Y111252D01*
X-60584Y111881D01*
X-60840Y112479D01*
X-61144Y113045D01*
X-61494Y113581D01*
X-61891Y114085D01*
X-62334Y114558D01*
X-51666D01*
X-52109Y114085D01*
D02*
G37*
G36*
X63941Y103148D02*
X64207Y102802D01*
X64509Y102497D01*
X64846Y102233D01*
X65218Y102009D01*
X65626Y101826D01*
X66069Y101683D01*
X66547Y101581D01*
X67061Y101520D01*
X67610Y101500D01*
Y98500D01*
X67061Y98480D01*
X66547Y98419D01*
X66069Y98317D01*
X65626Y98174D01*
X65218Y97991D01*
X64846Y97767D01*
X64509Y97503D01*
X64207Y97198D01*
X63941Y96852D01*
X63710Y96465D01*
Y103535D01*
X63941Y103148D01*
D02*
G37*
G36*
X-51590Y94560D02*
X-51949Y94022D01*
X-52265Y93458D01*
X-52540Y92868D01*
X-52772Y92250D01*
X-52962Y91607D01*
X-53110Y90936D01*
X-53215Y90240D01*
X-53279Y89516D01*
X-53300Y88767D01*
X-59300Y88163D01*
X-59325Y88922D01*
X-59400Y89643D01*
X-59526Y90328D01*
X-59702Y90976D01*
X-59928Y91587D01*
X-60204Y92161D01*
X-60531Y92699D01*
X-60907Y93200D01*
X-61334Y93664D01*
X-61811Y94091D01*
X-51189Y95071D01*
X-51590Y94560D01*
D02*
G37*
G36*
X-53273Y71314D02*
X-53193Y70595D01*
X-53058Y69922D01*
X-52870Y69295D01*
X-52629Y68713D01*
X-52334Y68177D01*
X-51985Y67686D01*
X-51582Y67242D01*
X-51126Y66842D01*
X-50616Y66489D01*
X-61018Y64123D01*
X-60692Y64668D01*
X-60399Y65236D01*
X-60142Y65826D01*
X-59918Y66438D01*
X-59729Y67072D01*
X-59575Y67729D01*
X-59455Y68407D01*
X-59369Y69109D01*
X-59300Y70578D01*
X-53300Y72078D01*
X-53273Y71314D01*
D02*
G37*
G36*
X64186Y67455D02*
X63805Y67019D01*
X63465Y66516D01*
X63166Y65946D01*
X62908Y65309D01*
X62692Y64605D01*
X62517Y63834D01*
X62383Y62995D01*
X62291Y62089D01*
X62230Y60076D01*
X54686Y67620D01*
X55726Y67629D01*
X57605Y67773D01*
X58444Y67907D01*
X59215Y68082D01*
X59919Y68298D01*
X60557Y68556D01*
X61126Y68855D01*
X61629Y69195D01*
X62065Y69576D01*
X64186Y67455D01*
D02*
G37*
G36*
X34534Y52380D02*
X33886Y52359D01*
X33248Y52283D01*
X32622Y52152D01*
X32007Y51966D01*
X31403Y51725D01*
X30809Y51428D01*
X30227Y51077D01*
X29655Y50671D01*
X29095Y50209D01*
X28545Y49693D01*
X24303Y53935D01*
X24819Y54485D01*
X25281Y55045D01*
X25687Y55617D01*
X26038Y56199D01*
X26335Y56793D01*
X26576Y57397D01*
X26762Y58012D01*
X26893Y58639D01*
X26969Y59276D01*
X26990Y59924D01*
X34534Y52380D01*
D02*
G37*
G36*
X-46969Y59276D02*
X-46893Y58639D01*
X-46762Y58012D01*
X-46576Y57397D01*
X-46335Y56793D01*
X-46038Y56199D01*
X-45687Y55617D01*
X-45281Y55045D01*
X-44819Y54485D01*
X-44303Y53935D01*
X-48545Y49693D01*
X-49095Y50209D01*
X-49655Y50671D01*
X-50227Y51077D01*
X-50809Y51428D01*
X-51403Y51725D01*
X-52007Y51966D01*
X-52622Y52152D01*
X-53249Y52283D01*
X-53886Y52359D01*
X-54534Y52380D01*
X-46990Y59924D01*
X-46969Y59276D01*
D02*
G37*
D19*
X31960Y331600D02*
D03*
D35*
X17790Y43180D02*
X34610Y60000D01*
X-37790Y43180D02*
X17790D01*
X-54610Y60000D02*
X-37790Y43180D01*
X-57000Y100000D02*
X-56300Y99300D01*
Y61690D02*
Y99300D01*
X-57000Y100000D02*
Y120000D01*
X-56300Y61690D02*
X-54610Y60000D01*
X74060Y217100D02*
Y231200D01*
X56960Y200000D02*
X74060Y217100D01*
X89380Y395610D02*
X103970D01*
X89000D02*
X89380D01*
X56960Y180000D02*
Y200000D01*
X-99060Y144150D02*
Y255910D01*
X-74910Y120000D02*
X-57000D01*
X-99060Y144150D02*
X-74910Y120000D01*
X-5420Y140000D02*
X14580Y160000D01*
X56960D01*
X-57000Y140000D02*
X-5420D01*
X87630Y410850D02*
X88333Y410147D01*
X103113D01*
X104460Y408800D01*
X103970Y395610D02*
X104460Y396100D01*
X-3685Y381005D02*
X-3430Y381260D01*
X-46100Y380750D02*
X-45845Y381005D01*
X-3685D01*
X-70540Y408800D02*
X-70150Y409190D01*
X-38490D01*
X-38100Y409580D01*
X-101500Y400000D02*
X-92700Y408800D01*
X-104000Y400000D02*
X-101500D01*
X-92700Y408800D02*
X-70540D01*
D36*
X54610Y60000D02*
X91440Y96830D01*
X11430Y283850D02*
X27940D01*
X-28720Y243700D02*
X11430Y283850D01*
X-70540Y243700D02*
X-28720D01*
X73851Y269181D02*
X76200Y271530D01*
Y320680D01*
X73851Y263721D02*
Y269181D01*
X73660Y263530D02*
X73851Y263721D01*
X80978Y260688D02*
Y311488D01*
X79819Y259529D02*
X80978Y260688D01*
X79819Y251021D02*
Y259529D01*
Y251021D02*
X80010Y250830D01*
X86558Y301828D02*
X91930Y307200D01*
X67610Y100000D02*
X86558Y118948D01*
Y301828D01*
X73660Y144297D02*
Y201300D01*
X69363Y140000D02*
X73660Y144297D01*
X69830Y120000D02*
X80010Y130180D01*
Y188600D01*
X56960Y140000D02*
X69363D01*
X56960Y120000D02*
X69830D01*
X56960Y100000D02*
X67610D01*
X80978Y311488D02*
X89390Y319900D01*
X76200Y320680D02*
X88120Y332600D01*
X71120Y328300D02*
X88120Y345300D01*
X66040Y347350D02*
X76690Y358000D01*
X66040Y280040D02*
Y347350D01*
X60960Y354970D02*
X76690Y370700D01*
X50800Y254640D02*
X71120Y274960D01*
X36830Y250830D02*
X66040Y280040D01*
X71120Y274960D02*
Y328300D01*
X60960Y286390D02*
Y354970D01*
X24130Y249560D02*
X60960Y286390D01*
X91440Y96830D02*
Y285120D01*
X97820Y291500D01*
X101054Y294500D02*
X104460D01*
X98054Y291500D02*
X101054Y294500D01*
X97820Y291500D02*
X98054D01*
X91930Y307200D02*
X104460D01*
X88120Y345300D02*
X104460D01*
X88120Y332600D02*
X104460D01*
X89390Y319900D02*
X104460D01*
X76690Y358000D02*
X104460D01*
X76690Y370700D02*
X104460D01*
X-82190Y370570D02*
X-70900D01*
X-95250Y357510D02*
X-82190Y370570D01*
X-95250Y310520D02*
Y357510D01*
X-99060Y306710D02*
X-95250Y310520D01*
X-80352Y356766D02*
X-71774D01*
X-85515Y292355D02*
Y351602D01*
X-71774Y356766D02*
X-70540Y358000D01*
X-85515Y351602D02*
X-80352Y356766D01*
X-96560Y281310D02*
X-85515Y292355D01*
X-99060Y281310D02*
X-96560D01*
X-70900Y370570D02*
X-70785Y370455D01*
D37*
X90852Y383403D02*
X90853Y383401D01*
X104459D01*
X104460Y383400D01*
D39*
X46960Y346670D02*
D03*
X16960D02*
D03*
Y316600D02*
D03*
X46960D02*
D03*
Y331600D02*
D03*
X16960D02*
D03*
X31960Y346670D02*
D03*
Y316600D02*
D03*
Y331600D02*
D03*
D40*
X-99060Y306710D02*
D03*
X-99060Y255910D02*
D03*
X-99060Y281310D02*
D03*
D41*
X-57000Y100000D02*
D03*
Y120000D02*
D03*
Y140000D02*
D03*
Y160000D02*
D03*
Y180000D02*
D03*
Y200000D02*
D03*
X-54610Y60000D02*
D03*
X-34610D02*
D03*
X-14610D02*
D03*
X54610Y60000D02*
D03*
X34610Y60000D02*
D03*
X-104000Y400000D02*
D03*
Y380000D02*
D03*
X56960Y100000D02*
D03*
Y120000D02*
D03*
Y140000D02*
D03*
Y160000D02*
D03*
Y180000D02*
D03*
Y200000D02*
D03*
D42*
X-97500Y20000D02*
D03*
X97500D02*
D03*
X0Y175000D02*
D03*
D43*
X27940Y283850D02*
D03*
X73660Y263530D02*
D03*
X80010Y250830D02*
D03*
X73660Y201300D02*
D03*
X80010Y188600D02*
D03*
X24130Y249560D02*
D03*
X36830Y250830D02*
D03*
X50800Y254640D02*
D03*
X90852Y383403D02*
D03*
D44*
X-38100Y409580D02*
D03*
X-36304Y407784D02*
D03*
X-38100Y405988D02*
D03*
X-39896Y407784D02*
D03*
X-41692Y409580D02*
D03*
X-39896Y411376D02*
D03*
X-38100Y413172D02*
D03*
X-36304Y411376D02*
D03*
X-34376Y409650D02*
D03*
X-46100Y380750D02*
D03*
X-44304Y378954D02*
D03*
X-46100Y377158D02*
D03*
X-47896Y378954D02*
D03*
X-49692Y380750D02*
D03*
X-47896Y382546D02*
D03*
X-46100Y384342D02*
D03*
X-44304Y382546D02*
D03*
X-42376Y380821D02*
D03*
X-3557Y381133D02*
D03*
X-1761Y379336D02*
D03*
X-3557Y377540D02*
D03*
X-5354Y379336D02*
D03*
X-7150Y381133D02*
D03*
X-5354Y382929D02*
D03*
X-3557Y384725D02*
D03*
X-1761Y382929D02*
D03*
X166Y381203D02*
D03*
X89380Y395610D02*
D03*
X91176Y393814D02*
D03*
X89380Y392018D02*
D03*
X87584Y393814D02*
D03*
X85788Y395610D02*
D03*
X87584Y397406D02*
D03*
X89380Y399202D02*
D03*
X91176Y397406D02*
D03*
X93104Y395681D02*
D03*
X88650Y410925D02*
D03*
X90447Y409129D02*
D03*
X88650Y407333D02*
D03*
X86854Y409129D02*
D03*
X85058Y410925D02*
D03*
X86854Y412721D02*
D03*
X88650Y414517D02*
D03*
X90447Y412721D02*
D03*
X92374Y410996D02*
D03*
D45*
X74060Y231200D02*
D03*
X61360D02*
D03*
X48660D02*
D03*
X35960D02*
D03*
X23260D02*
D03*
X-2140D02*
D03*
X-14840D02*
D03*
X-27540D02*
D03*
X-40240D02*
D03*
X10560D02*
D03*
D46*
X104460Y408800D02*
D03*
Y396100D02*
D03*
Y383400D02*
D03*
Y370700D02*
D03*
Y358000D02*
D03*
Y345300D02*
D03*
Y332600D02*
D03*
Y319900D02*
D03*
Y307200D02*
D03*
Y294500D02*
D03*
Y281800D02*
D03*
Y269100D02*
D03*
Y256400D02*
D03*
Y243700D02*
D03*
X-70540D02*
D03*
Y256400D02*
D03*
Y269100D02*
D03*
Y281800D02*
D03*
Y294500D02*
D03*
Y307200D02*
D03*
Y319900D02*
D03*
Y332600D02*
D03*
Y345300D02*
D03*
Y358000D02*
D03*
Y370700D02*
D03*
Y383400D02*
D03*
Y396100D02*
D03*
Y408800D02*
D03*
D47*
X-70785Y370455D02*
X-70540Y370700D01*
M02*
