G04*
G04 #@! TF.GenerationSoftware,Altium Limited,Altium Designer,24.10.1 (45)*
G04*
G04 Layer_Color=128*
%FSLAX44Y44*%
%MOMM*%
G71*
G04*
G04 #@! TF.SameCoordinates,DE934D07-760A-40F3-A6A2-C4044611B154*
G04*
G04*
G04 #@! TF.FilePolarity,Positive*
G04*
G01*
G75*
%ADD10C,0.1270*%
D10*
X45710Y346670D02*
X48210D01*
X46960Y345420D02*
Y347920D01*
X15710Y346670D02*
X18210D01*
X16960Y345420D02*
Y347920D01*
X15710Y316600D02*
X18210D01*
X16960Y315350D02*
Y317850D01*
X45710Y316600D02*
X48210D01*
X46960Y315350D02*
Y317850D01*
X45710Y331600D02*
X48210D01*
X46960Y330350D02*
Y332850D01*
X15710Y331600D02*
X18210D01*
X16960Y330350D02*
Y332850D01*
X30710Y346670D02*
X33210D01*
X31960Y345420D02*
Y347920D01*
X30710Y316600D02*
X33210D01*
X31960Y315350D02*
Y317850D01*
X30710Y331600D02*
X33210D01*
X31960Y330350D02*
Y332850D01*
X-104060Y306710D02*
X-94060D01*
X-99060Y301710D02*
Y311710D01*
X-104060Y255910D02*
X-94060D01*
X-99060Y250910D02*
Y260910D01*
X-104060Y281310D02*
X-94060D01*
X-99060Y276310D02*
Y286310D01*
X-62000Y100000D02*
X-52000D01*
X-57000Y95000D02*
Y105000D01*
X-62000Y120000D02*
X-52000D01*
X-57000Y115000D02*
Y125000D01*
X-62000Y140000D02*
X-52000D01*
X-57000Y135000D02*
Y145000D01*
X-62000Y160000D02*
X-52000D01*
X-57000Y155000D02*
Y165000D01*
X-62000Y180000D02*
X-52000D01*
X-57000Y175000D02*
Y185000D01*
X-62000Y200000D02*
X-52000D01*
X-57000Y195000D02*
Y205000D01*
X-59610Y60000D02*
X-49610D01*
X-54610Y55000D02*
Y65000D01*
X-39610Y60000D02*
X-29610D01*
X-34610Y55000D02*
Y65000D01*
X-19610Y60000D02*
X-9610D01*
X-14610Y55000D02*
Y65000D01*
X49610Y60000D02*
X59610D01*
X54610Y55000D02*
Y65000D01*
X29610Y60000D02*
X39610D01*
X34610Y55000D02*
Y65000D01*
X-109000Y400000D02*
X-99000D01*
X-104000Y395000D02*
Y405000D01*
X-109000Y380000D02*
X-99000D01*
X-104000Y375000D02*
Y385000D01*
X51960Y100000D02*
X61960D01*
X56960Y95000D02*
Y105000D01*
X51960Y120000D02*
X61960D01*
X56960Y115000D02*
Y125000D01*
X51960Y140000D02*
X61960D01*
X56960Y135000D02*
Y145000D01*
X51960Y160000D02*
X61960D01*
X56960Y155000D02*
Y165000D01*
X51960Y180000D02*
X61960D01*
X56960Y175000D02*
Y185000D01*
X51960Y200000D02*
X61960D01*
X56960Y195000D02*
Y205000D01*
X-110000Y20000D02*
X-85000D01*
X-97500Y7500D02*
Y32500D01*
X85000Y20000D02*
X110000D01*
X97500Y7500D02*
Y32500D01*
X-12500Y175000D02*
X12500D01*
X0Y162500D02*
Y187500D01*
X26940Y283850D02*
X28940D01*
X27940Y282850D02*
Y284850D01*
X72660Y263530D02*
X74660D01*
X73660Y262530D02*
Y264530D01*
X79010Y250830D02*
X81010D01*
X80010Y249830D02*
Y251830D01*
X72660Y201300D02*
X74660D01*
X73660Y200300D02*
Y202300D01*
X79010Y188600D02*
X81010D01*
X80010Y187600D02*
Y189600D01*
X23130Y249560D02*
X25130D01*
X24130Y248560D02*
Y250560D01*
X35830Y250830D02*
X37830D01*
X36830Y249830D02*
Y251830D01*
X49800Y254640D02*
X51800D01*
X50800Y253640D02*
Y255640D01*
X89852Y383403D02*
X91852D01*
X90852Y382403D02*
Y384403D01*
X-38850Y409580D02*
X-37350D01*
X-38100Y408830D02*
Y410330D01*
X-37054Y407784D02*
X-35554D01*
X-36304Y407034D02*
Y408534D01*
X-38850Y405988D02*
X-37350D01*
X-38100Y405238D02*
Y406738D01*
X-40646Y407784D02*
X-39146D01*
X-39896Y407034D02*
Y408534D01*
X-42442Y409580D02*
X-40942D01*
X-41692Y408830D02*
Y410330D01*
X-40646Y411376D02*
X-39146D01*
X-39896Y410626D02*
Y412126D01*
X-38850Y413172D02*
X-37350D01*
X-38100Y412422D02*
Y413922D01*
X-37054Y411376D02*
X-35554D01*
X-36304Y410626D02*
Y412126D01*
X-35126Y409650D02*
X-33626D01*
X-34376Y408900D02*
Y410401D01*
X-46850Y380750D02*
X-45350D01*
X-46100Y380000D02*
Y381500D01*
X-45054Y378954D02*
X-43554D01*
X-44304Y378204D02*
Y379704D01*
X-46850Y377158D02*
X-45350D01*
X-46100Y376408D02*
Y377908D01*
X-48646Y378954D02*
X-47146D01*
X-47896Y378204D02*
Y379704D01*
X-50442Y380750D02*
X-48942D01*
X-49692Y380000D02*
Y381500D01*
X-48646Y382546D02*
X-47146D01*
X-47896Y381796D02*
Y383296D01*
X-46850Y384342D02*
X-45350D01*
X-46100Y383592D02*
Y385092D01*
X-45054Y382546D02*
X-43554D01*
X-44304Y381796D02*
Y383296D01*
X-43126Y380821D02*
X-41626D01*
X-42376Y380070D02*
Y381571D01*
X-4308Y381133D02*
X-2808D01*
X-3557Y380382D02*
Y381883D01*
X-2511Y379336D02*
X-1011D01*
X-1761Y378586D02*
Y380086D01*
X-4308Y377540D02*
X-2808D01*
X-3557Y376790D02*
Y378290D01*
X-6104Y379336D02*
X-4604D01*
X-5354Y378586D02*
Y380086D01*
X-7900Y381133D02*
X-6400D01*
X-7150Y380382D02*
Y381883D01*
X-6104Y382929D02*
X-4604D01*
X-5354Y382179D02*
Y383679D01*
X-4308Y384725D02*
X-2808D01*
X-3557Y383975D02*
Y385475D01*
X-2511Y382929D02*
X-1011D01*
X-1761Y382179D02*
Y383679D01*
X-584Y381203D02*
X916D01*
X166Y380453D02*
Y381953D01*
X88630Y395610D02*
X90130D01*
X89380Y394860D02*
Y396360D01*
X90426Y393814D02*
X91926D01*
X91176Y393064D02*
Y394564D01*
X88630Y392018D02*
X90130D01*
X89380Y391268D02*
Y392768D01*
X86834Y393814D02*
X88334D01*
X87584Y393064D02*
Y394564D01*
X85038Y395610D02*
X86538D01*
X85788Y394860D02*
Y396360D01*
X86834Y397406D02*
X88334D01*
X87584Y396656D02*
Y398156D01*
X88630Y399202D02*
X90130D01*
X89380Y398452D02*
Y399952D01*
X90426Y397406D02*
X91926D01*
X91176Y396656D02*
Y398156D01*
X92354Y395681D02*
X93854D01*
X93104Y394930D02*
Y396431D01*
X87900Y410925D02*
X89400D01*
X88650Y410175D02*
Y411675D01*
X89697Y409129D02*
X91196D01*
X90447Y408379D02*
Y409879D01*
X87900Y407333D02*
X89400D01*
X88650Y406583D02*
Y408083D01*
X86104Y409129D02*
X87604D01*
X86854Y408379D02*
Y409879D01*
X84308Y410925D02*
X85808D01*
X85058Y410175D02*
Y411675D01*
X86104Y412721D02*
X87604D01*
X86854Y411971D02*
Y413471D01*
X87900Y414517D02*
X89400D01*
X88650Y413767D02*
Y415267D01*
X89697Y412721D02*
X91196D01*
X90447Y411971D02*
Y413471D01*
X91624Y410996D02*
X93124D01*
X92374Y410246D02*
Y411746D01*
M02*
