G04*
G04 #@! TF.GenerationSoftware,Altium Limited,Altium Designer,24.10.1 (45)*
G04*
G04 Layer_Color=32896*
%FSLAX44Y44*%
%MOMM*%
G71*
G04*
G04 #@! TF.SameCoordinates,DE934D07-760A-40F3-A6A2-C4044611B154*
G04*
G04*
G04 #@! TF.FilePolarity,Positive*
G04*
G01*
G75*
%ADD10C,0.1270*%
G36*
X-10255Y133938D02*
X-10198D01*
Y133767D01*
X-10141D01*
Y133539D01*
X-10084D01*
Y133369D01*
X-10027D01*
Y133141D01*
X-9970D01*
Y132971D01*
X-9914D01*
Y132743D01*
X-9857D01*
Y132573D01*
X-9800D01*
Y132402D01*
X-9743D01*
Y132175D01*
X-9686D01*
Y132004D01*
X-9629D01*
Y131777D01*
X-9572D01*
Y131606D01*
X-9516D01*
Y131379D01*
X-9459D01*
Y131208D01*
X-9402D01*
Y130981D01*
X-9345D01*
Y130810D01*
X-9288D01*
Y130583D01*
X-9231D01*
Y130412D01*
X-9174D01*
Y130184D01*
X-9118D01*
Y130014D01*
X-9061D01*
Y129843D01*
X-9004D01*
Y129559D01*
X-19524D01*
Y134051D01*
X-10255D01*
Y133938D01*
D02*
G37*
G36*
X21135Y133767D02*
X21078D01*
Y133596D01*
X21021D01*
Y133426D01*
X20965D01*
Y133198D01*
X20908D01*
Y133028D01*
X20851D01*
Y132800D01*
X20794D01*
Y132630D01*
X20737D01*
Y132402D01*
X20680D01*
Y132232D01*
X20623D01*
Y132004D01*
X20566D01*
Y131834D01*
X20510D01*
Y131663D01*
X20453D01*
Y131435D01*
X20396D01*
Y131265D01*
X20339D01*
Y131038D01*
X20282D01*
Y130867D01*
X20225D01*
Y130639D01*
X20168D01*
Y130469D01*
X20111D01*
Y130241D01*
X20055D01*
Y130071D01*
X19998D01*
Y129900D01*
X19941D01*
Y129673D01*
X19884D01*
Y129502D01*
X19827D01*
Y129275D01*
X19770D01*
Y129104D01*
X19713D01*
Y128877D01*
X19657D01*
Y128706D01*
X19600D01*
Y128478D01*
X19543D01*
Y128308D01*
X19486D01*
Y128137D01*
X19429D01*
Y127910D01*
X19372D01*
Y127739D01*
X19315D01*
Y127512D01*
X19259D01*
Y127341D01*
X19202D01*
Y127114D01*
X19145D01*
Y126943D01*
X19088D01*
Y126716D01*
X19031D01*
Y126545D01*
X18974D01*
Y126375D01*
X18917D01*
Y126147D01*
X18860D01*
Y125976D01*
X18804D01*
Y125749D01*
X18747D01*
Y125578D01*
X18690D01*
Y125351D01*
X18633D01*
Y125180D01*
X18576D01*
Y124953D01*
X18519D01*
Y124782D01*
X18462D01*
Y124612D01*
X18405D01*
Y124384D01*
X18349D01*
Y124214D01*
X18292D01*
Y123986D01*
X18235D01*
Y123815D01*
X18178D01*
Y123588D01*
X18121D01*
Y123418D01*
X18064D01*
Y123190D01*
X18008D01*
Y123019D01*
X17951D01*
Y122849D01*
X17894D01*
Y122621D01*
X17837D01*
Y122451D01*
X17780D01*
Y122223D01*
X17723D01*
Y122053D01*
X17666D01*
Y121825D01*
X17609D01*
Y121655D01*
X17552D01*
Y121427D01*
X17496D01*
Y121257D01*
X17439D01*
Y121086D01*
X17382D01*
Y120858D01*
X17325D01*
Y120688D01*
X17268D01*
Y120460D01*
X17211D01*
Y120290D01*
X17155D01*
Y120062D01*
X17098D01*
Y119892D01*
X17041D01*
Y119664D01*
X16984D01*
Y119494D01*
X16927D01*
Y119323D01*
X16870D01*
Y119096D01*
X16813D01*
Y118925D01*
X16756D01*
Y118698D01*
X16700D01*
Y118527D01*
X16643D01*
Y118300D01*
X16586D01*
Y118129D01*
X16529D01*
Y117901D01*
X16472D01*
Y117731D01*
X16415D01*
Y117560D01*
X16358D01*
Y117333D01*
X16301D01*
Y117162D01*
X16245D01*
Y116935D01*
X16188D01*
Y116764D01*
X16131D01*
Y116537D01*
X16074D01*
Y116366D01*
X16017D01*
Y116139D01*
X15960D01*
Y115968D01*
X15903D01*
Y115798D01*
X15847D01*
Y115570D01*
X15790D01*
Y115399D01*
X15733D01*
Y115172D01*
X15676D01*
Y115001D01*
X15619D01*
Y114774D01*
X15562D01*
Y114603D01*
X15505D01*
Y114376D01*
X15448D01*
Y114205D01*
X15392D01*
Y114035D01*
X15335D01*
Y113978D01*
X10388D01*
Y114035D01*
X10331D01*
Y114148D01*
X10274D01*
Y114319D01*
X10217D01*
Y114489D01*
X10160D01*
Y114660D01*
X10103D01*
Y114831D01*
X10046D01*
Y115001D01*
X9989D01*
Y115115D01*
X9933D01*
Y115286D01*
X9876D01*
Y115456D01*
X9819D01*
Y115627D01*
X9762D01*
Y115798D01*
X9705D01*
Y115968D01*
X9648D01*
Y116139D01*
X9591D01*
Y116252D01*
X9535D01*
Y116423D01*
X9478D01*
Y116594D01*
X9421D01*
Y116764D01*
X9364D01*
Y116935D01*
X9307D01*
Y117105D01*
X9250D01*
Y117219D01*
X9193D01*
Y117390D01*
X9136D01*
Y117560D01*
X9080D01*
Y117731D01*
X9023D01*
Y117901D01*
X8966D01*
Y118072D01*
X8909D01*
Y118243D01*
X8852D01*
Y118356D01*
X8795D01*
Y118527D01*
X8738D01*
Y118698D01*
X8681D01*
Y118868D01*
X8625D01*
Y119039D01*
X8568D01*
Y119209D01*
X8511D01*
Y119323D01*
X8454D01*
Y119494D01*
X8397D01*
Y119664D01*
X8340D01*
Y119835D01*
X8283D01*
Y120006D01*
X8227D01*
Y120176D01*
X8170D01*
Y120347D01*
X8113D01*
Y120460D01*
X8056D01*
Y120631D01*
X7999D01*
Y120802D01*
X7942D01*
Y120972D01*
X7885D01*
Y121143D01*
X7829D01*
Y121313D01*
X7772D01*
Y121484D01*
X7715D01*
Y121598D01*
X7658D01*
Y121768D01*
X7601D01*
Y121939D01*
X7544D01*
Y122109D01*
X7487D01*
Y122280D01*
X7430D01*
Y122394D01*
Y122451D01*
X7374D01*
Y122564D01*
X7317D01*
Y122735D01*
X7260D01*
Y122906D01*
X7203D01*
Y123076D01*
X7146D01*
Y123247D01*
X7089D01*
Y123418D01*
X7032D01*
Y123588D01*
X6975D01*
Y123702D01*
X6919D01*
Y123872D01*
X6862D01*
Y124043D01*
X6805D01*
Y124214D01*
X6748D01*
Y124384D01*
X6691D01*
Y124555D01*
X6634D01*
Y124725D01*
X6578D01*
Y124839D01*
X6521D01*
Y125010D01*
X6464D01*
Y125180D01*
X6407D01*
Y125351D01*
X6350D01*
Y125521D01*
X6293D01*
Y125692D01*
X6236D01*
Y125806D01*
X6179D01*
Y125976D01*
X6122D01*
Y126147D01*
X6066D01*
Y126318D01*
X6009D01*
Y126488D01*
X5952D01*
Y126659D01*
X5895D01*
Y126545D01*
X5838D01*
Y126431D01*
X5781D01*
Y126261D01*
X5724D01*
Y126090D01*
X5668D01*
Y125920D01*
X5611D01*
Y125749D01*
X5554D01*
Y125578D01*
X5497D01*
Y125465D01*
X5440D01*
Y125294D01*
X5383D01*
Y125123D01*
X5326D01*
Y124953D01*
X5270D01*
Y124782D01*
X5213D01*
Y124612D01*
X5156D01*
Y124441D01*
X5099D01*
Y124327D01*
X5042D01*
Y124157D01*
X4985D01*
Y123986D01*
X4928D01*
Y123815D01*
X4872D01*
Y123645D01*
X4815D01*
Y123474D01*
X4758D01*
Y123304D01*
X4701D01*
Y123190D01*
X4644D01*
Y123019D01*
X4587D01*
Y122849D01*
X4530D01*
Y122678D01*
X4473D01*
Y122508D01*
X4417D01*
Y122337D01*
X4360D01*
Y122223D01*
X4303D01*
Y122053D01*
X4246D01*
Y121882D01*
X4189D01*
Y121712D01*
X4132D01*
Y121541D01*
X4075D01*
Y121370D01*
X4018D01*
Y121200D01*
X3962D01*
Y121086D01*
X3905D01*
Y120915D01*
X3848D01*
Y120745D01*
X3791D01*
Y120574D01*
X3734D01*
Y120404D01*
X3677D01*
Y120233D01*
X3620D01*
Y120119D01*
X3564D01*
Y119949D01*
X3507D01*
Y119778D01*
X3450D01*
Y119607D01*
X3393D01*
Y119437D01*
X3336D01*
Y119266D01*
X3279D01*
Y119096D01*
X3222D01*
Y118982D01*
X3165D01*
Y118811D01*
X3109D01*
Y118641D01*
X3052D01*
Y118470D01*
X2995D01*
Y118300D01*
X2938D01*
Y118129D01*
X2881D01*
Y117958D01*
X2824D01*
Y117845D01*
X2767D01*
Y117674D01*
X2711D01*
Y117503D01*
X2654D01*
Y117333D01*
X2597D01*
Y117162D01*
X2540D01*
Y116992D01*
X2483D01*
Y116878D01*
X2426D01*
Y116707D01*
X2369D01*
Y116537D01*
X2313D01*
Y116366D01*
X2256D01*
Y116195D01*
X2199D01*
Y116025D01*
X2142D01*
Y115854D01*
X2085D01*
Y115741D01*
X2028D01*
Y115570D01*
X1971D01*
Y115399D01*
X1914D01*
Y115229D01*
X1858D01*
Y115058D01*
X1801D01*
Y114888D01*
X1744D01*
Y114717D01*
X1687D01*
Y114603D01*
X1630D01*
Y114433D01*
X1573D01*
Y114262D01*
X1516D01*
Y114092D01*
X1460D01*
Y113978D01*
X-3545D01*
Y114092D01*
X-3602D01*
Y114319D01*
X-3658D01*
Y114489D01*
X-3715D01*
Y114660D01*
X-3772D01*
Y114888D01*
X-3829D01*
Y115058D01*
X-3886D01*
Y115286D01*
X-3943D01*
Y115456D01*
X-4000D01*
Y115684D01*
X-4056D01*
Y115854D01*
X-4113D01*
Y116082D01*
X-4170D01*
Y116252D01*
X-4227D01*
Y116480D01*
X-4284D01*
Y116650D01*
X-4341D01*
Y116821D01*
X-4398D01*
Y117049D01*
X-4455D01*
Y117219D01*
X-4511D01*
Y117447D01*
X-4568D01*
Y117617D01*
X-4625D01*
Y117845D01*
X-4682D01*
Y118015D01*
X-4739D01*
Y118243D01*
X-4796D01*
Y118413D01*
X-4852D01*
Y118641D01*
X-4909D01*
Y118811D01*
X-4966D01*
Y119039D01*
X-5023D01*
Y119209D01*
X-5080D01*
Y119380D01*
X-5137D01*
Y119607D01*
X-5194D01*
Y119778D01*
X-5251D01*
Y120006D01*
X-5307D01*
Y120176D01*
X-5364D01*
Y120404D01*
X-5421D01*
Y120574D01*
X-5478D01*
Y120802D01*
X-5535D01*
Y120972D01*
X-5592D01*
Y121200D01*
X-5649D01*
Y121370D01*
X-5706D01*
Y121541D01*
X-5762D01*
Y121768D01*
X-5819D01*
Y121939D01*
X-5876D01*
Y122166D01*
X-5933D01*
Y122337D01*
X-5990D01*
Y122564D01*
X-6047D01*
Y122735D01*
X-6104D01*
Y122963D01*
X-6160D01*
Y123133D01*
X-6217D01*
Y123361D01*
X-6274D01*
Y123531D01*
X-6331D01*
Y123759D01*
X-6388D01*
Y123929D01*
X-6445D01*
Y124100D01*
X-6502D01*
Y124327D01*
X-6558D01*
Y124498D01*
X-6615D01*
Y124725D01*
X-6672D01*
Y124896D01*
X-6729D01*
Y125123D01*
X-6786D01*
Y125294D01*
X-6843D01*
Y125521D01*
X-6900D01*
Y125692D01*
X-6957D01*
Y125920D01*
X-7013D01*
Y126090D01*
X-7070D01*
Y126261D01*
X-7127D01*
Y126488D01*
X-7184D01*
Y126659D01*
X-7241D01*
Y126886D01*
X-7298D01*
Y127057D01*
X-7355D01*
Y127284D01*
X-7412D01*
Y127455D01*
X-7468D01*
Y127682D01*
X-7525D01*
Y127853D01*
X-7582D01*
Y128080D01*
X-7639D01*
Y128251D01*
X-7696D01*
Y128478D01*
X-7753D01*
Y128649D01*
X-7810D01*
Y128820D01*
X-7866D01*
Y129047D01*
X-7923D01*
Y129218D01*
X-7980D01*
Y129445D01*
X-8037D01*
Y129616D01*
X-8094D01*
Y129843D01*
X-8151D01*
Y130014D01*
X-8208D01*
Y130241D01*
X-8264D01*
Y130412D01*
X-8321D01*
Y130639D01*
X-8378D01*
Y130810D01*
X-8435D01*
Y131038D01*
X-8492D01*
Y131208D01*
X-8549D01*
Y131435D01*
X-8606D01*
Y131606D01*
X-8662D01*
Y131777D01*
X-8719D01*
Y132004D01*
X-8776D01*
Y132175D01*
X-8833D01*
Y132402D01*
X-8890D01*
Y132573D01*
X-8947D01*
Y132800D01*
X-9004D01*
Y132971D01*
X-9061D01*
Y133198D01*
X-9118D01*
Y133369D01*
X-9174D01*
Y133596D01*
X-9231D01*
Y133767D01*
X-9288D01*
Y133995D01*
X-9345D01*
Y134051D01*
X-3943D01*
Y133881D01*
X-3886D01*
Y133653D01*
X-3829D01*
Y133426D01*
X-3772D01*
Y133198D01*
X-3715D01*
Y132914D01*
X-3658D01*
Y132687D01*
X-3602D01*
Y132459D01*
X-3545D01*
Y132232D01*
X-3488D01*
Y132004D01*
X-3431D01*
Y131777D01*
X-3374D01*
Y131549D01*
X-3317D01*
Y131322D01*
X-3260D01*
Y131094D01*
X-3203D01*
Y130867D01*
X-3147D01*
Y130639D01*
X-3090D01*
Y130355D01*
X-3033D01*
Y130128D01*
X-2976D01*
Y129900D01*
X-2919D01*
Y129673D01*
X-2862D01*
Y129445D01*
X-2805D01*
Y129218D01*
X-2749D01*
Y128990D01*
X-2692D01*
Y128763D01*
X-2635D01*
Y128535D01*
X-2578D01*
Y128308D01*
X-2521D01*
Y128024D01*
X-2464D01*
Y127796D01*
X-2407D01*
Y127569D01*
X-2350D01*
Y127341D01*
X-2294D01*
Y127114D01*
X-2237D01*
Y126886D01*
X-2180D01*
Y126659D01*
X-2123D01*
Y126431D01*
X-2066D01*
Y126204D01*
X-2009D01*
Y125976D01*
X-1952D01*
Y125692D01*
X-1895D01*
Y125465D01*
X-1839D01*
Y125237D01*
X-1782D01*
Y125010D01*
X-1725D01*
Y124782D01*
X-1668D01*
Y124555D01*
X-1611D01*
Y124327D01*
X-1554D01*
Y124100D01*
X-1497D01*
Y123872D01*
X-1441D01*
Y123645D01*
X-1384D01*
Y123418D01*
X-1327D01*
Y123133D01*
X-1270D01*
Y122906D01*
X-1213D01*
Y122678D01*
X-1156D01*
Y122451D01*
X-1099D01*
Y122223D01*
X-1042D01*
Y121996D01*
X-986D01*
Y121768D01*
X-929D01*
Y121598D01*
X-872D01*
Y121712D01*
X-815D01*
Y121882D01*
X-758D01*
Y122053D01*
X-701D01*
Y122223D01*
X-645D01*
Y122394D01*
X-588D01*
Y122564D01*
X-531D01*
Y122735D01*
X-474D01*
Y122906D01*
X-417D01*
Y123076D01*
X-360D01*
Y123247D01*
X-303D01*
Y123418D01*
X-246D01*
Y123588D01*
X-190D01*
Y123759D01*
X-133D01*
Y123929D01*
X-76D01*
Y124100D01*
X-19D01*
Y124270D01*
X38D01*
Y124441D01*
X95D01*
Y124612D01*
X152D01*
Y124782D01*
X209D01*
Y124953D01*
X265D01*
Y125123D01*
X322D01*
Y125294D01*
X379D01*
Y125465D01*
X436D01*
Y125635D01*
X493D01*
Y125806D01*
X550D01*
Y125976D01*
X607D01*
Y126204D01*
X663D01*
Y126375D01*
X720D01*
Y126545D01*
X777D01*
Y126716D01*
X834D01*
Y126886D01*
X891D01*
Y127057D01*
X948D01*
Y127227D01*
X1005D01*
Y127398D01*
X1062D01*
Y127569D01*
X1118D01*
Y127739D01*
X1175D01*
Y127910D01*
X1232D01*
Y128080D01*
X1289D01*
Y128251D01*
X1346D01*
Y128422D01*
X1403D01*
Y128592D01*
X1460D01*
Y128763D01*
X1516D01*
Y128933D01*
X1573D01*
Y129104D01*
X1630D01*
Y129275D01*
X1687D01*
Y129445D01*
X1744D01*
Y129616D01*
X1801D01*
Y129786D01*
X1858D01*
Y129957D01*
X1914D01*
Y130128D01*
X1971D01*
Y130298D01*
X2028D01*
Y130469D01*
X2085D01*
Y130639D01*
X2142D01*
Y130810D01*
X2199D01*
Y130981D01*
X2256D01*
Y131151D01*
X2313D01*
Y131322D01*
X2369D01*
Y131492D01*
X2426D01*
Y131663D01*
X2483D01*
Y131834D01*
X2540D01*
Y132004D01*
X2597D01*
Y132232D01*
X2654D01*
Y132402D01*
X2711D01*
Y132573D01*
X2767D01*
Y132743D01*
X2824D01*
Y132914D01*
X2881D01*
Y133085D01*
X2938D01*
Y133255D01*
X2995D01*
Y133426D01*
X3052D01*
Y133596D01*
X3109D01*
Y133767D01*
X3165D01*
Y133938D01*
X3222D01*
Y134051D01*
X8568D01*
Y133995D01*
X8625D01*
Y133824D01*
X8681D01*
Y133653D01*
X8738D01*
Y133483D01*
X8795D01*
Y133312D01*
X8852D01*
Y133141D01*
X8909D01*
Y132971D01*
X8966D01*
Y132800D01*
X9023D01*
Y132630D01*
X9080D01*
Y132459D01*
X9136D01*
Y132289D01*
X9193D01*
Y132118D01*
X9250D01*
Y131947D01*
X9307D01*
Y131777D01*
X9364D01*
Y131606D01*
X9421D01*
Y131435D01*
X9478D01*
Y131265D01*
X9535D01*
Y131094D01*
X9591D01*
Y130924D01*
X9648D01*
Y130753D01*
X9705D01*
Y130583D01*
X9762D01*
Y130412D01*
X9819D01*
Y130241D01*
X9876D01*
Y130071D01*
X9933D01*
Y129900D01*
X9989D01*
Y129729D01*
X10046D01*
Y129559D01*
X10103D01*
Y129388D01*
X10160D01*
Y129218D01*
X10217D01*
Y129047D01*
X10274D01*
Y128877D01*
X10331D01*
Y128706D01*
X10388D01*
Y128535D01*
X10444D01*
Y128365D01*
X10501D01*
Y128194D01*
X10558D01*
Y128024D01*
X10615D01*
Y127853D01*
X10672D01*
Y127682D01*
X10729D01*
Y127512D01*
X10785D01*
Y127341D01*
X10842D01*
Y127171D01*
X10899D01*
Y127000D01*
X10956D01*
Y126829D01*
X11013D01*
Y126659D01*
X11070D01*
Y126488D01*
X11127D01*
Y126318D01*
X11184D01*
Y126147D01*
X11240D01*
Y125976D01*
X11297D01*
Y125806D01*
X11354D01*
Y125635D01*
X11411D01*
Y125465D01*
X11468D01*
Y125294D01*
X11525D01*
Y125123D01*
X11582D01*
Y124953D01*
X11638D01*
Y124782D01*
X11695D01*
Y124612D01*
X11752D01*
Y124441D01*
X11809D01*
Y124270D01*
X11866D01*
Y124100D01*
X11923D01*
Y123929D01*
X11980D01*
Y123759D01*
X12037D01*
Y123588D01*
X12093D01*
Y123418D01*
X12150D01*
Y123247D01*
X12207D01*
Y123076D01*
X12264D01*
Y122906D01*
X12321D01*
Y122735D01*
X12378D01*
Y122564D01*
X12435D01*
Y122394D01*
X12492D01*
Y122223D01*
X12548D01*
Y122053D01*
X12605D01*
Y121882D01*
X12662D01*
Y121712D01*
X12719D01*
Y121598D01*
X12776D01*
Y121768D01*
X12833D01*
Y121996D01*
X12890D01*
Y122223D01*
X12946D01*
Y122451D01*
X13003D01*
Y122678D01*
X13060D01*
Y122963D01*
X13117D01*
Y123190D01*
X13174D01*
Y123418D01*
X13231D01*
Y123645D01*
X13288D01*
Y123872D01*
X13345D01*
Y124100D01*
X13401D01*
Y124327D01*
X13458D01*
Y124555D01*
X13515D01*
Y124782D01*
X13572D01*
Y125010D01*
X13629D01*
Y125294D01*
X13686D01*
Y125521D01*
X13743D01*
Y125749D01*
X13799D01*
Y125976D01*
X13856D01*
Y126204D01*
X13913D01*
Y126431D01*
X13970D01*
Y126659D01*
X14027D01*
Y126886D01*
X14084D01*
Y127114D01*
X14141D01*
Y127341D01*
X14197D01*
Y127626D01*
X14254D01*
Y127853D01*
X14311D01*
Y128080D01*
X14368D01*
Y128308D01*
X14425D01*
Y128535D01*
X14482D01*
Y128763D01*
X14539D01*
Y128990D01*
X14596D01*
Y129218D01*
X14652D01*
Y129445D01*
X14709D01*
Y129673D01*
X14766D01*
Y129900D01*
X14823D01*
Y130184D01*
X14880D01*
Y130412D01*
X14937D01*
Y130639D01*
X14994D01*
Y130867D01*
X15050D01*
Y131094D01*
X15107D01*
Y131322D01*
X15164D01*
Y131549D01*
X15221D01*
Y131777D01*
X15278D01*
Y132004D01*
X15335D01*
Y132232D01*
X15392D01*
Y132516D01*
X15448D01*
Y132743D01*
X15505D01*
Y132971D01*
X15562D01*
Y133198D01*
X15619D01*
Y133426D01*
X15676D01*
Y133653D01*
X15733D01*
Y133881D01*
X15790D01*
Y134051D01*
X21135D01*
Y133767D01*
D02*
G37*
G36*
X-8719Y128649D02*
X-8662D01*
Y128422D01*
X-8606D01*
Y128251D01*
X-8549D01*
Y128024D01*
X-8492D01*
Y127853D01*
X-8435D01*
Y127626D01*
X-8378D01*
Y127455D01*
X-8321D01*
Y127227D01*
X-8264D01*
Y127057D01*
X-8208D01*
Y126886D01*
X-8151D01*
Y126659D01*
X-8094D01*
Y126488D01*
X-8037D01*
Y126261D01*
X-7980D01*
Y126090D01*
X-7923D01*
Y125863D01*
X-7866D01*
Y125692D01*
X-7810D01*
Y125465D01*
X-7753D01*
Y125294D01*
X-7696D01*
Y125067D01*
X-7639D01*
Y124896D01*
X-7582D01*
Y124725D01*
X-7525D01*
Y124498D01*
X-7468D01*
Y124327D01*
X-7412D01*
Y124100D01*
X-7355D01*
Y123929D01*
X-7298D01*
Y123702D01*
X-7241D01*
Y123531D01*
X-7184D01*
Y123304D01*
X-7127D01*
Y123133D01*
X-7070D01*
Y122906D01*
X-7013D01*
Y122735D01*
X-6957D01*
Y122508D01*
X-6900D01*
Y122337D01*
X-6843D01*
Y122166D01*
X-6786D01*
Y121939D01*
X-6729D01*
Y121768D01*
X-6672D01*
Y121541D01*
X-6615D01*
Y121370D01*
X-6558D01*
Y121143D01*
X-6502D01*
Y120972D01*
X-6445D01*
Y120745D01*
X-6388D01*
Y120574D01*
X-6331D01*
Y120347D01*
X-6274D01*
Y120176D01*
X-6217D01*
Y120006D01*
X-6160D01*
Y119778D01*
X-6104D01*
Y119607D01*
X-6047D01*
Y119380D01*
X-5990D01*
Y119209D01*
X-5933D01*
Y118982D01*
X-5876D01*
Y118811D01*
X-5819D01*
Y118584D01*
X-5762D01*
Y118413D01*
X-5706D01*
Y118186D01*
X-5649D01*
Y118015D01*
X-5592D01*
Y117788D01*
X-5535D01*
Y117617D01*
X-5478D01*
Y117447D01*
X-5421D01*
Y117219D01*
X-5364D01*
Y117049D01*
X-5307D01*
Y116821D01*
X-5251D01*
Y116650D01*
X-5194D01*
Y116423D01*
X-5137D01*
Y116252D01*
X-5080D01*
Y116025D01*
X-5023D01*
Y115854D01*
X-4966D01*
Y115627D01*
X-4909D01*
Y115456D01*
X-4852D01*
Y115286D01*
X-4796D01*
Y115058D01*
X-4739D01*
Y114888D01*
X-4682D01*
Y114660D01*
X-4625D01*
Y114489D01*
X-4568D01*
Y114262D01*
X-4511D01*
Y114092D01*
X-4455D01*
Y114035D01*
X-4511D01*
Y113978D01*
X-8719D01*
Y114035D01*
X-8776D01*
Y121541D01*
X-18557D01*
Y125976D01*
X-8776D01*
Y128820D01*
X-8719D01*
Y128649D01*
D02*
G37*
G36*
X8738Y109997D02*
Y109940D01*
Y102605D01*
X7203D01*
Y106472D01*
X7146D01*
Y106244D01*
X7089D01*
Y105960D01*
X7032D01*
Y105675D01*
X6975D01*
Y105391D01*
X6919D01*
Y105107D01*
X6862D01*
Y104822D01*
X6805D01*
Y104538D01*
X6748D01*
Y104254D01*
X6691D01*
Y103969D01*
X6634D01*
Y103685D01*
X6578D01*
Y103401D01*
X6521D01*
Y103116D01*
X6464D01*
Y102832D01*
X6407D01*
Y102605D01*
X4815D01*
Y110623D01*
X6350D01*
Y106926D01*
X6407D01*
Y107154D01*
X6464D01*
Y107438D01*
X6521D01*
Y107723D01*
X6578D01*
Y108007D01*
X6634D01*
Y108291D01*
X6691D01*
Y108632D01*
X6748D01*
Y108917D01*
X6805D01*
Y109201D01*
X6862D01*
Y109485D01*
X6919D01*
Y109770D01*
X6975D01*
Y110111D01*
X7032D01*
Y110395D01*
X7089D01*
Y110623D01*
X8738D01*
Y109997D01*
D02*
G37*
G36*
X11525Y110680D02*
X11866D01*
Y110623D01*
X12093D01*
Y110566D01*
X12207D01*
Y110509D01*
X12378D01*
Y110452D01*
X12435D01*
Y110395D01*
X12548D01*
Y110338D01*
X12605D01*
Y110281D01*
X12662D01*
Y110225D01*
X12719D01*
Y110168D01*
X12776D01*
Y110111D01*
X12833D01*
Y109997D01*
X12890D01*
Y109940D01*
X12946D01*
Y109827D01*
X13003D01*
Y109713D01*
X13060D01*
Y109542D01*
X13117D01*
Y109372D01*
X13174D01*
Y109087D01*
X13231D01*
Y108575D01*
X13288D01*
Y104368D01*
X13231D01*
Y103969D01*
X13174D01*
Y103799D01*
X13117D01*
Y103628D01*
X13060D01*
Y103514D01*
X13003D01*
Y103401D01*
X12946D01*
Y103287D01*
X12890D01*
Y103230D01*
X12833D01*
Y103173D01*
X12776D01*
Y103116D01*
X12719D01*
Y103060D01*
X12662D01*
Y103003D01*
X12605D01*
Y102946D01*
X12548D01*
Y102889D01*
X12492D01*
Y102832D01*
X12378D01*
Y102775D01*
X12264D01*
Y102718D01*
X12150D01*
Y102662D01*
X12037D01*
Y102605D01*
X11809D01*
Y102548D01*
X10785D01*
Y102605D01*
X10501D01*
Y102662D01*
X10331D01*
Y102718D01*
X10217D01*
Y102775D01*
X10103D01*
Y102832D01*
X10046D01*
Y102889D01*
X9933D01*
Y102946D01*
X9876D01*
Y103003D01*
X9819D01*
Y103060D01*
X9762D01*
Y103116D01*
X9705D01*
Y103173D01*
X9648D01*
Y103287D01*
X9591D01*
Y103344D01*
X9535D01*
Y103458D01*
X9478D01*
Y103628D01*
X9421D01*
Y103799D01*
X9364D01*
Y104026D01*
X9307D01*
Y106073D01*
X10899D01*
Y104424D01*
X10956D01*
Y104197D01*
X11013D01*
Y104140D01*
X11070D01*
Y104083D01*
X11127D01*
Y104026D01*
X11468D01*
Y104083D01*
X11525D01*
Y104140D01*
X11582D01*
Y104254D01*
X11638D01*
Y109030D01*
X11582D01*
Y109144D01*
X11525D01*
Y109201D01*
X11411D01*
Y109258D01*
X11184D01*
Y109201D01*
X11070D01*
Y109144D01*
X11013D01*
Y109087D01*
X10956D01*
Y108860D01*
X10899D01*
Y107438D01*
X9307D01*
Y109144D01*
X9364D01*
Y109429D01*
X9421D01*
Y109599D01*
X9478D01*
Y109770D01*
X9535D01*
Y109883D01*
X9591D01*
Y109940D01*
X9648D01*
Y110054D01*
X9705D01*
Y110111D01*
X9762D01*
Y110168D01*
X9819D01*
Y110225D01*
X9876D01*
Y110281D01*
X9933D01*
Y110338D01*
X10046D01*
Y110395D01*
X10103D01*
Y110452D01*
X10217D01*
Y110509D01*
X10331D01*
Y110566D01*
X10501D01*
Y110623D01*
X10672D01*
Y110680D01*
X11070D01*
Y110736D01*
X11525D01*
Y110680D01*
D02*
G37*
G36*
X-10425D02*
X-10027D01*
Y110623D01*
X-9857D01*
Y110566D01*
X-9686D01*
Y110509D01*
X-9572D01*
Y110452D01*
X-9459D01*
Y110395D01*
X-9402D01*
Y110338D01*
X-9345D01*
Y110281D01*
X-9231D01*
Y110225D01*
X-9174D01*
Y110111D01*
X-9118D01*
Y110054D01*
X-9061D01*
Y109997D01*
X-9004D01*
Y109883D01*
X-8947D01*
Y109770D01*
X-8890D01*
Y109656D01*
X-8833D01*
Y109542D01*
X-8776D01*
Y109315D01*
X-8719D01*
Y109030D01*
X-8662D01*
Y108177D01*
Y108121D01*
Y104368D01*
X-8719D01*
Y103969D01*
X-8776D01*
Y103742D01*
X-8833D01*
Y103571D01*
X-8890D01*
Y103458D01*
X-8947D01*
Y103344D01*
X-9004D01*
Y103230D01*
X-9061D01*
Y103116D01*
X-9118D01*
Y103060D01*
X-9174D01*
Y103003D01*
X-9231D01*
Y102946D01*
X-9288D01*
Y102889D01*
X-9345D01*
Y102832D01*
X-9402D01*
Y102775D01*
X-9516D01*
Y102718D01*
X-9629D01*
Y102662D01*
X-9743D01*
Y102605D01*
X-9914D01*
Y102548D01*
X-10767D01*
Y102605D01*
X-10994D01*
Y102662D01*
X-11108D01*
Y102718D01*
X-11221D01*
Y102775D01*
X-11278D01*
Y102832D01*
X-11335D01*
Y102889D01*
X-11449D01*
Y102946D01*
X-11506D01*
Y103060D01*
X-11563D01*
Y103116D01*
X-11620D01*
Y103173D01*
X-11676D01*
Y103230D01*
X-11733D01*
Y103116D01*
X-11790D01*
Y103003D01*
X-11847D01*
Y102889D01*
X-11904D01*
Y102718D01*
X-11961D01*
Y102605D01*
X-12643D01*
Y107268D01*
X-10653D01*
Y105903D01*
X-11108D01*
Y104538D01*
X-11051D01*
Y104254D01*
X-10994D01*
Y104140D01*
X-10937D01*
Y104083D01*
X-10880D01*
Y104026D01*
X-10482D01*
Y104083D01*
X-10425D01*
Y104140D01*
X-10368D01*
Y104197D01*
X-10312D01*
Y104368D01*
X-10255D01*
Y108917D01*
X-10312D01*
Y109030D01*
X-10368D01*
Y109144D01*
X-10482D01*
Y109201D01*
X-10596D01*
Y109258D01*
X-10767D01*
Y109201D01*
X-10937D01*
Y109144D01*
X-10994D01*
Y108974D01*
X-11051D01*
Y107950D01*
X-11108D01*
Y107893D01*
X-12643D01*
Y108632D01*
X-12586D01*
Y109087D01*
X-12529D01*
Y109372D01*
X-12472D01*
Y109542D01*
X-12416D01*
Y109713D01*
X-12359D01*
Y109827D01*
X-12302D01*
Y109940D01*
X-12245D01*
Y110054D01*
X-12188D01*
Y110111D01*
X-12131D01*
Y110168D01*
X-12075D01*
Y110225D01*
X-12018D01*
Y110281D01*
X-11961D01*
Y110338D01*
X-11904D01*
Y110395D01*
X-11847D01*
Y110452D01*
X-11733D01*
Y110509D01*
X-11620D01*
Y110566D01*
X-11506D01*
Y110623D01*
X-11278D01*
Y110680D01*
X-10880D01*
Y110736D01*
X-10425D01*
Y110680D01*
D02*
G37*
G36*
X21021Y109087D02*
X20055D01*
Y102605D01*
X18462D01*
Y109087D01*
X17496D01*
Y110509D01*
Y110566D01*
Y110623D01*
X21021D01*
Y109087D01*
D02*
G37*
G36*
X17041Y102605D02*
X13743D01*
Y104140D01*
X15392D01*
Y106017D01*
X13913D01*
Y107552D01*
X15392D01*
Y109087D01*
X13856D01*
Y109372D01*
Y109429D01*
Y110623D01*
X17041D01*
Y102605D01*
D02*
G37*
G36*
X-474D02*
X-3715D01*
Y103173D01*
Y103230D01*
Y103969D01*
X-2066D01*
Y110623D01*
X-474D01*
Y102605D01*
D02*
G37*
G36*
X-13155D02*
X-14747D01*
Y104481D01*
Y104538D01*
Y110623D01*
X-13155D01*
Y102605D01*
D02*
G37*
G36*
X-15941Y110281D02*
X-15884D01*
Y109656D01*
X-15828D01*
Y109429D01*
Y109372D01*
Y109087D01*
X-15771D01*
Y108519D01*
X-15714D01*
Y107893D01*
X-15657D01*
Y107324D01*
X-15600D01*
Y106756D01*
X-15543D01*
Y106130D01*
X-15486D01*
Y105562D01*
X-15430D01*
Y104993D01*
X-15373D01*
Y104368D01*
X-15316D01*
Y103799D01*
X-15259D01*
Y103230D01*
X-15202D01*
Y102605D01*
X-16738D01*
Y103060D01*
X-16794D01*
Y103856D01*
X-16851D01*
Y103912D01*
X-17818D01*
Y103401D01*
X-17875D01*
Y102775D01*
X-17932D01*
Y102605D01*
X-19410D01*
Y103230D01*
X-19353D01*
Y103799D01*
X-19296D01*
Y104424D01*
X-19240D01*
Y104993D01*
X-19183D01*
Y105618D01*
X-19126D01*
Y106187D01*
X-19069D01*
Y106813D01*
X-19012D01*
Y107381D01*
X-18955D01*
Y108007D01*
X-18898D01*
Y108575D01*
X-18842D01*
Y109201D01*
X-18785D01*
Y109770D01*
X-18728D01*
Y110338D01*
X-18671D01*
Y110623D01*
X-15941D01*
Y110281D01*
D02*
G37*
G36*
X2426Y110680D02*
X2824D01*
Y110623D01*
X2995D01*
Y110566D01*
X3165D01*
Y110509D01*
X3279D01*
Y110452D01*
X3393D01*
Y110395D01*
X3450D01*
Y110338D01*
X3507D01*
Y110281D01*
X3620D01*
Y110225D01*
X3677D01*
Y110111D01*
X3734D01*
Y110054D01*
X3791D01*
Y109997D01*
X3848D01*
Y109883D01*
X3905D01*
Y109770D01*
X3962D01*
Y109656D01*
X4018D01*
Y109485D01*
X4075D01*
Y109315D01*
X4132D01*
Y108860D01*
X4189D01*
Y104538D01*
X4132D01*
Y104083D01*
X4075D01*
Y103856D01*
X4018D01*
Y103685D01*
X3962D01*
Y103571D01*
X3905D01*
Y103458D01*
X3848D01*
Y103344D01*
X3791D01*
Y103230D01*
X3734D01*
Y103173D01*
X3677D01*
Y103116D01*
X3620D01*
Y103060D01*
X3564D01*
Y103003D01*
X3507D01*
Y102946D01*
X3450D01*
Y102889D01*
X3393D01*
Y102832D01*
X3279D01*
Y102775D01*
X3165D01*
Y102718D01*
X3052D01*
Y102662D01*
X2881D01*
Y102605D01*
X2654D01*
Y102548D01*
X1687D01*
Y102605D01*
X1460D01*
Y102662D01*
X1289D01*
Y102718D01*
X1175D01*
Y102775D01*
X1062D01*
Y102832D01*
X1005D01*
Y102889D01*
X891D01*
Y102946D01*
X834D01*
Y103003D01*
X777D01*
Y103060D01*
X720D01*
Y103116D01*
X663D01*
Y103230D01*
X607D01*
Y103287D01*
X550D01*
Y103401D01*
X493D01*
Y103514D01*
X436D01*
Y103628D01*
X379D01*
Y103742D01*
X322D01*
Y103969D01*
X265D01*
Y104254D01*
X209D01*
Y107040D01*
Y107097D01*
Y109144D01*
X265D01*
Y109429D01*
X322D01*
Y109599D01*
X379D01*
Y109713D01*
X436D01*
Y109827D01*
X493D01*
Y109940D01*
X550D01*
Y110054D01*
X607D01*
Y110111D01*
X663D01*
Y110168D01*
X720D01*
Y110225D01*
X777D01*
Y110281D01*
X834D01*
Y110338D01*
X891D01*
Y110395D01*
X1005D01*
Y110452D01*
X1118D01*
Y110509D01*
X1232D01*
Y110566D01*
X1346D01*
Y110623D01*
X1573D01*
Y110680D01*
X1971D01*
Y110736D01*
X2426D01*
Y110680D01*
D02*
G37*
G36*
X-5876D02*
X-5478D01*
Y110623D01*
X-5251D01*
Y110566D01*
X-5137D01*
Y110509D01*
X-5023D01*
Y110452D01*
X-4909D01*
Y110395D01*
X-4796D01*
Y110338D01*
X-4739D01*
Y110281D01*
X-4682D01*
Y110225D01*
X-4625D01*
Y110168D01*
X-4568D01*
Y110111D01*
X-4511D01*
Y110054D01*
X-4455D01*
Y109940D01*
X-4398D01*
Y109827D01*
X-4341D01*
Y109713D01*
X-4284D01*
Y109599D01*
X-4227D01*
Y109429D01*
X-4170D01*
Y109144D01*
X-4113D01*
Y104254D01*
X-4170D01*
Y103969D01*
X-4227D01*
Y103799D01*
X-4284D01*
Y103628D01*
X-4341D01*
Y103514D01*
X-4398D01*
Y103401D01*
X-4455D01*
Y103287D01*
X-4511D01*
Y103230D01*
X-4568D01*
Y103116D01*
X-4625D01*
Y103060D01*
X-4682D01*
Y103003D01*
X-4739D01*
Y102946D01*
X-4852D01*
Y102889D01*
X-4909D01*
Y102832D01*
X-4966D01*
Y102775D01*
X-5080D01*
Y102718D01*
X-5194D01*
Y102662D01*
X-5364D01*
Y102605D01*
X-5592D01*
Y102548D01*
X-6615D01*
Y102605D01*
X-6786D01*
Y102662D01*
X-6957D01*
Y102718D01*
X-7070D01*
Y102775D01*
X-7184D01*
Y102832D01*
X-7298D01*
Y102889D01*
X-7355D01*
Y102946D01*
X-7412D01*
Y103003D01*
X-7468D01*
Y103060D01*
X-7525D01*
Y103116D01*
X-7582D01*
Y103173D01*
X-7639D01*
Y103230D01*
X-7696D01*
Y103344D01*
X-7753D01*
Y103458D01*
X-7810D01*
Y103571D01*
X-7866D01*
Y103685D01*
X-7923D01*
Y103856D01*
X-7980D01*
Y104083D01*
X-8037D01*
Y104538D01*
X-8094D01*
Y108860D01*
X-8037D01*
Y109315D01*
X-7980D01*
Y109542D01*
X-7923D01*
Y109656D01*
X-7866D01*
Y109770D01*
X-7810D01*
Y109883D01*
X-7753D01*
Y109997D01*
X-7696D01*
Y110054D01*
X-7639D01*
Y110168D01*
X-7582D01*
Y110225D01*
X-7525D01*
Y110281D01*
X-7412D01*
Y110338D01*
X-7355D01*
Y110395D01*
X-7298D01*
Y110452D01*
X-7184D01*
Y110509D01*
X-7070D01*
Y110566D01*
X-6900D01*
Y110623D01*
X-6729D01*
Y110680D01*
X-6331D01*
Y110736D01*
X-5876D01*
Y110680D01*
D02*
G37*
G36*
X10878Y216709D02*
X11174Y216691D01*
X11748Y216598D01*
X12229Y216450D01*
X12452Y216376D01*
X12655Y216283D01*
X12841Y216209D01*
X12989Y216117D01*
X13137Y216042D01*
X13248Y215987D01*
X13341Y215913D01*
X13396Y215876D01*
X13433Y215857D01*
X13452Y215839D01*
X13655Y215654D01*
X13841Y215468D01*
X14007Y215246D01*
X14155Y215005D01*
X14377Y214524D01*
X14563Y214061D01*
X14618Y213820D01*
X14674Y213617D01*
X14729Y213432D01*
X14748Y213265D01*
X14785Y213117D01*
Y213024D01*
X14803Y212950D01*
Y212932D01*
X12359Y212691D01*
X12322Y213061D01*
X12248Y213376D01*
X12174Y213654D01*
X12081Y213857D01*
X12007Y214024D01*
X11933Y214135D01*
X11878Y214209D01*
X11859Y214228D01*
X11674Y214376D01*
X11470Y214487D01*
X11267Y214580D01*
X11063Y214635D01*
X10896Y214672D01*
X10748Y214691D01*
X10619D01*
X10341Y214672D01*
X10100Y214617D01*
X9896Y214543D01*
X9711Y214468D01*
X9582Y214394D01*
X9470Y214320D01*
X9415Y214265D01*
X9396Y214246D01*
X9248Y214061D01*
X9137Y213857D01*
X9063Y213654D01*
X9008Y213450D01*
X8971Y213265D01*
X8952Y213098D01*
Y213006D01*
Y212987D01*
Y212969D01*
X8971Y212691D01*
X9026Y212432D01*
X9119Y212173D01*
X9211Y211950D01*
X9304Y211747D01*
X9396Y211598D01*
X9452Y211506D01*
X9470Y211469D01*
X9545Y211358D01*
X9656Y211228D01*
X9804Y211061D01*
X9952Y210913D01*
X10285Y210562D01*
X10619Y210210D01*
X10952Y209876D01*
X11100Y209728D01*
X11248Y209617D01*
X11359Y209506D01*
X11433Y209432D01*
X11489Y209377D01*
X11507Y209358D01*
X11878Y209006D01*
X12211Y208673D01*
X12526Y208358D01*
X12803Y208080D01*
X13063Y207803D01*
X13285Y207543D01*
X13489Y207321D01*
X13655Y207099D01*
X13803Y206914D01*
X13933Y206747D01*
X14044Y206618D01*
X14118Y206488D01*
X14192Y206414D01*
X14229Y206340D01*
X14266Y206303D01*
Y206284D01*
X14507Y205858D01*
X14692Y205414D01*
X14840Y205007D01*
X14951Y204636D01*
X15026Y204303D01*
X15044Y204173D01*
X15063Y204062D01*
X15081Y203970D01*
X15100Y203896D01*
Y203859D01*
Y203840D01*
X6489D01*
Y206117D01*
X11378D01*
X11230Y206358D01*
X11063Y206562D01*
X10989Y206654D01*
X10933Y206729D01*
X10896Y206766D01*
X10878Y206784D01*
X10804Y206858D01*
X10730Y206951D01*
X10508Y207155D01*
X10267Y207395D01*
X10026Y207636D01*
X9785Y207858D01*
X9582Y208043D01*
X9508Y208117D01*
X9452Y208173D01*
X9415Y208191D01*
X9396Y208210D01*
X8989Y208599D01*
X8656Y208914D01*
X8378Y209210D01*
X8156Y209432D01*
X7989Y209617D01*
X7878Y209747D01*
X7804Y209839D01*
X7786Y209858D01*
X7545Y210173D01*
X7341Y210469D01*
X7175Y210747D01*
X7045Y210987D01*
X6934Y211191D01*
X6860Y211358D01*
X6823Y211450D01*
X6804Y211487D01*
X6693Y211784D01*
X6619Y212080D01*
X6563Y212358D01*
X6526Y212617D01*
X6508Y212821D01*
X6489Y212987D01*
Y213098D01*
Y213135D01*
X6508Y213413D01*
X6545Y213691D01*
X6582Y213950D01*
X6656Y214191D01*
X6841Y214617D01*
X7026Y214987D01*
X7138Y215154D01*
X7230Y215283D01*
X7323Y215413D01*
X7415Y215506D01*
X7489Y215579D01*
X7526Y215654D01*
X7563Y215672D01*
X7582Y215691D01*
X7786Y215876D01*
X8026Y216042D01*
X8248Y216172D01*
X8508Y216283D01*
X8989Y216468D01*
X9470Y216598D01*
X9693Y216635D01*
X9896Y216672D01*
X10082Y216691D01*
X10248Y216709D01*
X10378Y216728D01*
X10563D01*
X10878Y216709D01*
D02*
G37*
G36*
X27191Y209802D02*
Y209414D01*
X27172Y209043D01*
Y208691D01*
X27154Y208377D01*
X27135Y208080D01*
X27117Y207821D01*
X27098Y207580D01*
X27061Y207358D01*
X27043Y207173D01*
X27024Y207006D01*
X27006Y206858D01*
X26987Y206747D01*
X26969Y206654D01*
Y206599D01*
X26950Y206562D01*
Y206543D01*
X26858Y206266D01*
X26765Y206006D01*
X26635Y205766D01*
X26524Y205562D01*
X26413Y205377D01*
X26321Y205229D01*
X26247Y205155D01*
X26228Y205118D01*
X26006Y204877D01*
X25765Y204655D01*
X25506Y204470D01*
X25265Y204303D01*
X25062Y204173D01*
X24876Y204081D01*
X24765Y204025D01*
X24747Y204007D01*
X24728D01*
X24543Y203933D01*
X24339Y203877D01*
X23877Y203766D01*
X23414Y203692D01*
X22969Y203655D01*
X22766Y203636D01*
X22562Y203618D01*
X22395D01*
X22229Y203599D01*
X21932D01*
X21395Y203618D01*
X20914Y203655D01*
X20488Y203729D01*
X20136Y203803D01*
X19988Y203822D01*
X19840Y203859D01*
X19729Y203896D01*
X19636Y203933D01*
X19562Y203951D01*
X19506Y203970D01*
X19488Y203988D01*
X19469D01*
X19136Y204136D01*
X18840Y204321D01*
X18581Y204488D01*
X18359Y204655D01*
X18192Y204803D01*
X18062Y204914D01*
X17988Y204988D01*
X17970Y205025D01*
X17766Y205284D01*
X17599Y205562D01*
X17470Y205821D01*
X17359Y206080D01*
X17284Y206303D01*
X17229Y206488D01*
X17211Y206543D01*
Y206599D01*
X17192Y206618D01*
Y206636D01*
X17155Y206840D01*
X17118Y207062D01*
X17081Y207303D01*
X17062Y207543D01*
X17025Y208099D01*
X16988Y208636D01*
Y208876D01*
Y209117D01*
X16970Y209339D01*
Y209525D01*
Y209673D01*
Y209802D01*
Y209876D01*
Y209895D01*
Y216653D01*
X19562D01*
Y209543D01*
Y209265D01*
Y209006D01*
X19581Y208765D01*
Y208543D01*
X19599Y208358D01*
Y208173D01*
X19618Y208006D01*
Y207858D01*
X19655Y207636D01*
X19673Y207469D01*
X19692Y207377D01*
Y207340D01*
X19747Y207099D01*
X19840Y206895D01*
X19951Y206710D01*
X20062Y206543D01*
X20173Y206414D01*
X20266Y206321D01*
X20340Y206266D01*
X20358Y206247D01*
X20580Y206099D01*
X20858Y205988D01*
X21117Y205914D01*
X21395Y205858D01*
X21636Y205821D01*
X21821Y205803D01*
X22006D01*
X22395Y205821D01*
X22728Y205877D01*
X23025Y205951D01*
X23284Y206043D01*
X23469Y206117D01*
X23617Y206192D01*
X23691Y206247D01*
X23728Y206266D01*
X23932Y206451D01*
X24099Y206673D01*
X24247Y206877D01*
X24339Y207080D01*
X24413Y207266D01*
X24469Y207414D01*
X24506Y207506D01*
Y207543D01*
X24525Y207654D01*
X24543Y207766D01*
Y207914D01*
X24562Y208080D01*
X24580Y208432D01*
Y208803D01*
X24599Y209136D01*
Y209284D01*
Y209432D01*
Y209543D01*
Y209617D01*
Y209673D01*
Y209691D01*
Y216653D01*
X27191D01*
Y209802D01*
D02*
G37*
%LPC*%
G36*
X-17249Y109258D02*
X-17306D01*
Y109201D01*
X-17363D01*
Y109087D01*
Y109030D01*
Y108519D01*
X-17420D01*
Y107893D01*
X-17477D01*
Y107211D01*
X-17534D01*
Y106585D01*
X-17590D01*
Y105903D01*
X-17647D01*
Y105277D01*
X-17704D01*
Y105220D01*
X-17647D01*
Y105164D01*
X-16965D01*
Y105789D01*
X-17022D01*
Y106528D01*
X-17079D01*
Y107324D01*
X-17135D01*
Y108121D01*
X-17192D01*
Y108860D01*
X-17249D01*
Y109258D01*
D02*
G37*
G36*
X2256D02*
X2085D01*
Y109201D01*
X1971D01*
Y109144D01*
X1914D01*
Y109087D01*
X1858D01*
Y108860D01*
X1801D01*
Y104481D01*
X1858D01*
Y104197D01*
X1914D01*
Y104140D01*
X1971D01*
Y104083D01*
X2028D01*
Y104026D01*
X2369D01*
Y104083D01*
X2426D01*
Y104140D01*
X2483D01*
Y104254D01*
X2540D01*
Y104481D01*
X2597D01*
Y106699D01*
Y106756D01*
Y108803D01*
X2540D01*
Y109030D01*
X2483D01*
Y109087D01*
X2426D01*
Y109144D01*
X2369D01*
Y109201D01*
X2256D01*
Y109258D01*
D02*
G37*
G36*
X-5990D02*
X-6217D01*
Y109201D01*
X-6331D01*
Y109144D01*
X-6388D01*
Y108974D01*
X-6445D01*
Y106699D01*
Y106642D01*
Y104311D01*
X-6388D01*
Y104140D01*
X-6331D01*
Y104083D01*
X-6274D01*
Y104026D01*
X-5876D01*
Y104083D01*
X-5819D01*
Y104197D01*
X-5762D01*
Y104311D01*
X-5706D01*
Y108917D01*
X-5762D01*
Y109087D01*
X-5819D01*
Y109144D01*
X-5876D01*
Y109201D01*
X-5990D01*
Y109258D01*
D02*
G37*
%LPD*%
D10*
X106960Y228700D02*
Y233700D01*
X-73040Y421700D02*
X106960Y421700D01*
X86960Y228700D02*
X106960D01*
X-73040D02*
Y233700D01*
Y228700D02*
X-53040D01*
X106960Y418700D02*
Y421700D01*
X-73040Y418700D02*
Y421700D01*
M02*
