G04*
G04 #@! TF.GenerationSoftware,Altium Limited,Altium Designer,24.10.1 (45)*
G04*
G04 Layer_Color=32768*
%FSLAX44Y44*%
%MOMM*%
G71*
G04*
G04 #@! TF.SameCoordinates,DE934D07-760A-40F3-A6A2-C4044611B154*
G04*
G04*
G04 #@! TF.FilePolarity,Positive*
G04*
G01*
G75*
%ADD10C,0.1270*%
D10*
X-47031Y331359D02*
X-16717Y331359D01*
X-47031Y289692D02*
X-16716Y289692D01*
X-47031Y289692D02*
X-47031Y331359D01*
X-16717Y331359D02*
X-16716Y289692D01*
X-15144Y377830D02*
X22719D01*
X-15144Y408310D02*
X-15144Y377830D01*
X-15144Y408310D02*
X22719Y408310D01*
X22719Y377830D01*
X-10460Y259370D02*
X15540Y259370D01*
X-10460Y272770D02*
X-10460Y259370D01*
X-10460Y272770D02*
X15540Y272770D01*
X15540Y259370D01*
X-49038Y256418D02*
X-12462Y256418D01*
X-49038Y256418D02*
Y274198D01*
X-12462Y274198D02*
X-12462Y256418D01*
X-49038Y274198D02*
X-12462Y274198D01*
X57040Y327976D02*
X75040D01*
X75040Y293024D02*
X75040Y327976D01*
X57040Y293024D02*
X75040Y293024D01*
X57040Y327976D02*
X57040Y293024D01*
X-6444Y374370D02*
X22499Y374370D01*
X22499Y360970D02*
X22499Y374370D01*
X-6443Y360970D02*
X22499Y360970D01*
X-6444Y374370D02*
X-6443Y360970D01*
X-73040Y421700D02*
Y483700D01*
X106960Y483700D01*
Y421700D02*
Y483700D01*
X113310Y222350D02*
X113310Y422870D01*
X-79730Y222350D02*
X113310Y222350D01*
X-79730Y422870D02*
X-79730Y222350D01*
X-79730Y422870D02*
X113310Y422870D01*
X18940Y258380D02*
X56440Y258380D01*
X18940Y281380D02*
X18940Y258380D01*
X18940Y281380D02*
X56440Y281380D01*
X56440Y258380D02*
X56440Y281380D01*
X-112383Y242342D02*
X-85815Y242342D01*
X-112383Y242342D02*
X-112383Y319918D01*
X-85746Y319918D01*
X-85709Y242342D02*
X-85709Y319918D01*
X-138825Y78700D02*
Y221294D01*
Y78700D02*
X-42207D01*
X-138825Y221294D02*
X-42207D01*
Y78700D02*
Y221294D01*
X-75904Y74793D02*
X6821Y74793D01*
X-75904Y-21351D02*
X-75904Y74793D01*
X-75904Y-21351D02*
X6821Y-21352D01*
X6821Y74793D02*
X6821Y-21352D01*
X13316Y-18122D02*
X13316Y74793D01*
X75942Y74793D01*
X13316Y-18122D02*
X75942D01*
X75942Y74793D02*
X75942Y-18122D01*
X48150Y384504D02*
Y419456D01*
X66150D01*
Y384504D02*
Y419456D01*
X48150Y384504D02*
X66150D01*
X68230Y388787D02*
X81630D01*
Y417729D01*
X68230D02*
X81630D01*
X68230Y388787D02*
Y417729D01*
X-63850Y288457D02*
X-50450Y288456D01*
X-50450Y317399D02*
X-50450Y288456D01*
X-63850Y317399D02*
X-50450D01*
X-63850D02*
X-63850Y288457D01*
X-51389Y350665D02*
X-22446Y350665D01*
X-22446Y337265D01*
X-51388Y337265D02*
X-22446Y337265D01*
X-51389Y350665D02*
X-51388Y337265D01*
X26320Y407514D02*
X39720D01*
X26320D02*
X26320Y378571D01*
X39720Y378571D01*
X39720Y407514D01*
X-118793Y358668D02*
X-25879D01*
X-25879Y421294D01*
X-118793Y358668D02*
X-118793Y421294D01*
X-25879Y421294D01*
X72740Y355270D02*
X72740Y329270D01*
X59340Y355270D02*
X72740D01*
X59340Y329270D02*
X59340Y355270D01*
X59340Y329270D02*
X72740Y329270D01*
X-920Y289900D02*
X-920Y315900D01*
X-14320Y289900D02*
X-920Y289900D01*
X-14320Y315900D02*
X-14320Y289900D01*
X-14320Y315900D02*
X-920D01*
X42167Y78706D02*
Y221300D01*
Y78706D02*
X138785D01*
X42167Y221300D02*
X138785D01*
Y78706D02*
Y221300D01*
M02*
