G04*
G04 #@! TF.GenerationSoftware,Altium Limited,Altium Designer,24.10.1 (45)*
G04*
G04 Layer_Color=8388736*
%FSLAX44Y44*%
%MOMM*%
G71*
G04*
G04 #@! TF.SameCoordinates,DE934D07-760A-40F3-A6A2-C4044611B154*
G04*
G04*
G04 #@! TF.FilePolarity,Negative*
G04*
G01*
G75*
G04:AMPARAMS|DCode=23|XSize=1.24mm|YSize=0.74mm|CornerRadius=0.22mm|HoleSize=0mm|Usage=FLASHONLY|Rotation=270.000|XOffset=0mm|YOffset=0mm|HoleType=Round|Shape=RoundedRectangle|*
%AMROUNDEDRECTD23*
21,1,1.2400,0.3000,0,0,270.0*
21,1,0.8000,0.7400,0,0,270.0*
1,1,0.4400,-0.1500,-0.4000*
1,1,0.4400,-0.1500,0.4000*
1,1,0.4400,0.1500,0.4000*
1,1,0.4400,0.1500,-0.4000*
%
%ADD23ROUNDEDRECTD23*%
G04:AMPARAMS|DCode=24|XSize=1.3532mm|YSize=0.8032mm|CornerRadius=0.2516mm|HoleSize=0mm|Usage=FLASHONLY|Rotation=180.000|XOffset=0mm|YOffset=0mm|HoleType=Round|Shape=RoundedRectangle|*
%AMROUNDEDRECTD24*
21,1,1.3532,0.3000,0,0,180.0*
21,1,0.8500,0.8032,0,0,180.0*
1,1,0.5032,-0.4250,0.1500*
1,1,0.5032,0.4250,0.1500*
1,1,0.5032,0.4250,-0.1500*
1,1,0.5032,-0.4250,-0.1500*
%
%ADD24ROUNDEDRECTD24*%
%ADD25R,0.9532X1.2032*%
%ADD26R,1.4032X1.4032*%
%ADD27R,1.6532X1.3532*%
%ADD28R,1.1532X1.2032*%
%ADD29R,1.1532X1.6532*%
%ADD30R,1.2032X1.1532*%
%ADD31R,1.2032X0.9532*%
%ADD32C,1.7272*%
%ADD33O,1.7032X1.1032*%
D23*
X-41250Y296520D02*
D03*
X-22250Y296520D02*
D03*
X-41250Y324520D02*
D03*
X-31750Y324520D02*
D03*
X-22250Y324520D02*
D03*
D24*
X-7690Y393070D02*
D03*
X15310Y402570D02*
D03*
X15310Y383570D02*
D03*
D25*
X-4960Y266070D02*
D03*
X10040Y266070D02*
D03*
D26*
X-41250Y266070D02*
D03*
X-20250Y266070D02*
D03*
D27*
X66040Y320520D02*
D03*
Y300520D02*
D03*
X57150Y411960D02*
D03*
Y391960D02*
D03*
D28*
X16000Y367670D02*
D03*
X0Y367670D02*
D03*
X-28945Y343965D02*
D03*
X-44945Y343965D02*
D03*
D29*
X47440Y269880D02*
D03*
X27940Y269880D02*
D03*
D30*
X74930Y395230D02*
D03*
Y411230D02*
D03*
X-57150Y294900D02*
D03*
X-57150Y310900D02*
D03*
X33020Y401070D02*
D03*
X33020Y385070D02*
D03*
D31*
X66040Y349770D02*
D03*
Y334770D02*
D03*
X-7620Y295400D02*
D03*
X-7620Y310400D02*
D03*
D32*
X-57000Y100000D02*
D03*
Y120000D02*
D03*
Y140000D02*
D03*
Y160000D02*
D03*
Y180000D02*
D03*
Y200000D02*
D03*
X-54610Y60000D02*
D03*
X-34610D02*
D03*
X-14610D02*
D03*
X54610Y60000D02*
D03*
X34610Y60000D02*
D03*
X-104000Y400000D02*
D03*
Y380000D02*
D03*
X56960Y100000D02*
D03*
Y120000D02*
D03*
Y140000D02*
D03*
Y160000D02*
D03*
Y180000D02*
D03*
Y200000D02*
D03*
D33*
X-97500Y20000D02*
D03*
X97500D02*
D03*
X0Y175000D02*
D03*
M02*
