M48
;Layer_Color=9474304
;FILE_FORMAT=4:2
METRIC,LZ
;TYPE=PLATED
T01F00S00C0.15
;TYPE=NON_PLATED
T03F00S00C2.00
%
T01
X000598Y00051
Y00054
X00063
Y00051
Y001315
Y001345
X000598
Y001315
Y001655
Y001685
X00063
Y001655
X-0006
Y001685
X-000632
Y001655
Y001345
Y001315
X-0006
Y001345
Y00054
Y00051
X-000632
Y00054
T03
X00059Y00016
Y00284
X-00059
Y00016
M30
