G04*
G04 #@! TF.GenerationSoftware,Altium Limited,Altium Designer,24.10.1 (45)*
G04*
G04 Layer_Color=32896*
%FSLAX44Y44*%
%MOMM*%
G71*
G04*
G04 #@! TF.SameCoordinates,79C6D601-A39B-46A2-8E03-E2448EDDA2BC*
G04*
G04*
G04 #@! TF.FilePolarity,Positive*
G04*
G01*
G75*
G36*
X-12789Y295068D02*
X-12730D01*
Y294889D01*
X-12670D01*
Y294651D01*
X-12611D01*
Y294472D01*
X-12551D01*
Y294234D01*
X-12492D01*
Y294055D01*
X-12432D01*
Y293817D01*
X-12372D01*
Y293638D01*
X-12313D01*
Y293459D01*
X-12253D01*
Y293221D01*
X-12194D01*
Y293042D01*
X-12134D01*
Y292804D01*
X-12075D01*
Y292625D01*
X-12015D01*
Y292387D01*
X-11955D01*
Y292208D01*
X-11896D01*
Y291970D01*
X-11836D01*
Y291791D01*
X-11777D01*
Y291553D01*
X-11717D01*
Y291374D01*
X-11658D01*
Y291136D01*
X-11598D01*
Y290957D01*
X-11538D01*
Y290779D01*
X-11479D01*
Y290481D01*
X-22500D01*
Y295187D01*
X-12789D01*
Y295068D01*
D02*
G37*
G36*
X20095Y294889D02*
X20036D01*
Y294710D01*
X19976D01*
Y294532D01*
X19916D01*
Y294293D01*
X19857D01*
Y294115D01*
X19797D01*
Y293876D01*
X19738D01*
Y293698D01*
X19678D01*
Y293459D01*
X19619D01*
Y293281D01*
X19559D01*
Y293042D01*
X19499D01*
Y292864D01*
X19440D01*
Y292685D01*
X19380D01*
Y292447D01*
X19321D01*
Y292268D01*
X19261D01*
Y292030D01*
X19202D01*
Y291851D01*
X19142D01*
Y291613D01*
X19082D01*
Y291434D01*
X19023D01*
Y291196D01*
X18963D01*
Y291017D01*
X18904D01*
Y290838D01*
X18844D01*
Y290600D01*
X18785D01*
Y290421D01*
X18725D01*
Y290183D01*
X18665D01*
Y290004D01*
X18606D01*
Y289766D01*
X18546D01*
Y289587D01*
X18487D01*
Y289349D01*
X18427D01*
Y289170D01*
X18368D01*
Y288991D01*
X18308D01*
Y288753D01*
X18248D01*
Y288574D01*
X18189D01*
Y288336D01*
X18129D01*
Y288157D01*
X18070D01*
Y287919D01*
X18010D01*
Y287740D01*
X17951D01*
Y287502D01*
X17891D01*
Y287323D01*
X17831D01*
Y287145D01*
X17772D01*
Y286906D01*
X17712D01*
Y286728D01*
X17653D01*
Y286489D01*
X17593D01*
Y286311D01*
X17534D01*
Y286072D01*
X17474D01*
Y285893D01*
X17414D01*
Y285655D01*
X17355D01*
Y285476D01*
X17295D01*
Y285298D01*
X17236D01*
Y285060D01*
X17176D01*
Y284881D01*
X17117D01*
Y284643D01*
X17057D01*
Y284464D01*
X16997D01*
Y284225D01*
X16938D01*
Y284047D01*
X16878D01*
Y283808D01*
X16819D01*
Y283630D01*
X16759D01*
Y283451D01*
X16700D01*
Y283213D01*
X16640D01*
Y283034D01*
X16580D01*
Y282796D01*
X16521D01*
Y282617D01*
X16461D01*
Y282379D01*
X16402D01*
Y282200D01*
X16342D01*
Y281962D01*
X16283D01*
Y281783D01*
X16223D01*
Y281604D01*
X16163D01*
Y281366D01*
X16104D01*
Y281187D01*
X16044D01*
Y280949D01*
X15985D01*
Y280770D01*
X15925D01*
Y280532D01*
X15865D01*
Y280353D01*
X15806D01*
Y280115D01*
X15746D01*
Y279936D01*
X15687D01*
Y279757D01*
X15627D01*
Y279519D01*
X15568D01*
Y279340D01*
X15508D01*
Y279102D01*
X15448D01*
Y278923D01*
X15389D01*
Y278685D01*
X15329D01*
Y278506D01*
X15270D01*
Y278268D01*
X15210D01*
Y278089D01*
X15151D01*
Y277911D01*
X15091D01*
Y277672D01*
X15031D01*
Y277494D01*
X14972D01*
Y277255D01*
X14912D01*
Y277077D01*
X14853D01*
Y276838D01*
X14793D01*
Y276660D01*
X14734D01*
Y276421D01*
X14674D01*
Y276243D01*
X14614D01*
Y276064D01*
X14555D01*
Y275826D01*
X14495D01*
Y275647D01*
X14436D01*
Y275409D01*
X14376D01*
Y275230D01*
X14317D01*
Y274992D01*
X14257D01*
Y274813D01*
X14197D01*
Y274575D01*
X14138D01*
Y274396D01*
X14078D01*
Y274217D01*
X14019D01*
Y274158D01*
X8836D01*
Y274217D01*
X8776D01*
Y274336D01*
X8717D01*
Y274515D01*
X8657D01*
Y274694D01*
X8598D01*
Y274872D01*
X8538D01*
Y275051D01*
X8478D01*
Y275230D01*
X8419D01*
Y275349D01*
X8359D01*
Y275528D01*
X8300D01*
Y275706D01*
X8240D01*
Y275885D01*
X8181D01*
Y276064D01*
X8121D01*
Y276243D01*
X8061D01*
Y276421D01*
X8002D01*
Y276541D01*
X7942D01*
Y276719D01*
X7883D01*
Y276898D01*
X7823D01*
Y277077D01*
X7764D01*
Y277255D01*
X7704D01*
Y277434D01*
X7644D01*
Y277553D01*
X7585D01*
Y277732D01*
X7525D01*
Y277911D01*
X7466D01*
Y278089D01*
X7406D01*
Y278268D01*
X7347D01*
Y278447D01*
X7287D01*
Y278626D01*
X7227D01*
Y278745D01*
X7168D01*
Y278923D01*
X7108D01*
Y279102D01*
X7049D01*
Y279281D01*
X6989D01*
Y279460D01*
X6930D01*
Y279638D01*
X6870D01*
Y279757D01*
X6810D01*
Y279936D01*
X6751D01*
Y280115D01*
X6691D01*
Y280294D01*
X6632D01*
Y280472D01*
X6572D01*
Y280651D01*
X6513D01*
Y280830D01*
X6453D01*
Y280949D01*
X6393D01*
Y281128D01*
X6334D01*
Y281306D01*
X6274D01*
Y281485D01*
X6215D01*
Y281664D01*
X6155D01*
Y281842D01*
X6095D01*
Y282021D01*
X6036D01*
Y282140D01*
X5976D01*
Y282319D01*
X5917D01*
Y282498D01*
X5857D01*
Y282677D01*
X5798D01*
Y282855D01*
X5738D01*
Y282974D01*
Y283034D01*
X5678D01*
Y283153D01*
X5619D01*
Y283332D01*
X5559D01*
Y283511D01*
X5500D01*
Y283689D01*
X5440D01*
Y283868D01*
X5381D01*
Y284047D01*
X5321D01*
Y284225D01*
X5261D01*
Y284345D01*
X5202D01*
Y284523D01*
X5142D01*
Y284702D01*
X5083D01*
Y284881D01*
X5023D01*
Y285060D01*
X4964D01*
Y285238D01*
X4904D01*
Y285417D01*
X4844D01*
Y285536D01*
X4785D01*
Y285715D01*
X4725D01*
Y285893D01*
X4666D01*
Y286072D01*
X4606D01*
Y286251D01*
X4547D01*
Y286430D01*
X4487D01*
Y286549D01*
X4427D01*
Y286728D01*
X4368D01*
Y286906D01*
X4308D01*
Y287085D01*
X4249D01*
Y287264D01*
X4189D01*
Y287442D01*
X4130D01*
Y287323D01*
X4070D01*
Y287204D01*
X4010D01*
Y287025D01*
X3951D01*
Y286847D01*
X3891D01*
Y286668D01*
X3832D01*
Y286489D01*
X3772D01*
Y286311D01*
X3713D01*
Y286191D01*
X3653D01*
Y286013D01*
X3593D01*
Y285834D01*
X3534D01*
Y285655D01*
X3474D01*
Y285476D01*
X3415D01*
Y285298D01*
X3355D01*
Y285119D01*
X3295D01*
Y285000D01*
X3236D01*
Y284821D01*
X3176D01*
Y284643D01*
X3117D01*
Y284464D01*
X3057D01*
Y284285D01*
X2998D01*
Y284106D01*
X2938D01*
Y283928D01*
X2878D01*
Y283808D01*
X2819D01*
Y283630D01*
X2759D01*
Y283451D01*
X2700D01*
Y283272D01*
X2640D01*
Y283093D01*
X2581D01*
Y282915D01*
X2521D01*
Y282796D01*
X2462D01*
Y282617D01*
X2402D01*
Y282438D01*
X2342D01*
Y282260D01*
X2283D01*
Y282081D01*
X2223D01*
Y281902D01*
X2164D01*
Y281723D01*
X2104D01*
Y281604D01*
X2044D01*
Y281425D01*
X1985D01*
Y281247D01*
X1925D01*
Y281068D01*
X1866D01*
Y280889D01*
X1806D01*
Y280711D01*
X1747D01*
Y280592D01*
X1687D01*
Y280413D01*
X1628D01*
Y280234D01*
X1568D01*
Y280055D01*
X1508D01*
Y279877D01*
X1449D01*
Y279698D01*
X1389D01*
Y279519D01*
X1330D01*
Y279400D01*
X1270D01*
Y279221D01*
X1210D01*
Y279042D01*
X1151D01*
Y278864D01*
X1091D01*
Y278685D01*
X1032D01*
Y278506D01*
X972D01*
Y278328D01*
X913D01*
Y278209D01*
X853D01*
Y278030D01*
X793D01*
Y277851D01*
X734D01*
Y277672D01*
X674D01*
Y277494D01*
X615D01*
Y277315D01*
X555D01*
Y277196D01*
X496D01*
Y277017D01*
X436D01*
Y276838D01*
X376D01*
Y276660D01*
X317D01*
Y276481D01*
X257D01*
Y276302D01*
X198D01*
Y276124D01*
X138D01*
Y276004D01*
X78D01*
Y275826D01*
X19D01*
Y275647D01*
X-41D01*
Y275468D01*
X-100D01*
Y275289D01*
X-160D01*
Y275111D01*
X-219D01*
Y274932D01*
X-279D01*
Y274813D01*
X-338D01*
Y274634D01*
X-398D01*
Y274455D01*
X-458D01*
Y274277D01*
X-517D01*
Y274158D01*
X-5760D01*
Y274277D01*
X-5819D01*
Y274515D01*
X-5879D01*
Y274694D01*
X-5938D01*
Y274872D01*
X-5998D01*
Y275111D01*
X-6058D01*
Y275289D01*
X-6117D01*
Y275528D01*
X-6177D01*
Y275706D01*
X-6236D01*
Y275945D01*
X-6296D01*
Y276124D01*
X-6355D01*
Y276362D01*
X-6415D01*
Y276541D01*
X-6475D01*
Y276779D01*
X-6534D01*
Y276957D01*
X-6594D01*
Y277136D01*
X-6653D01*
Y277374D01*
X-6713D01*
Y277553D01*
X-6772D01*
Y277792D01*
X-6832D01*
Y277970D01*
X-6892D01*
Y278209D01*
X-6951D01*
Y278387D01*
X-7011D01*
Y278626D01*
X-7070D01*
Y278804D01*
X-7130D01*
Y279042D01*
X-7189D01*
Y279221D01*
X-7249D01*
Y279460D01*
X-7309D01*
Y279638D01*
X-7368D01*
Y279817D01*
X-7428D01*
Y280055D01*
X-7487D01*
Y280234D01*
X-7547D01*
Y280472D01*
X-7606D01*
Y280651D01*
X-7666D01*
Y280889D01*
X-7726D01*
Y281068D01*
X-7785D01*
Y281306D01*
X-7845D01*
Y281485D01*
X-7904D01*
Y281723D01*
X-7964D01*
Y281902D01*
X-8023D01*
Y282081D01*
X-8083D01*
Y282319D01*
X-8143D01*
Y282498D01*
X-8202D01*
Y282736D01*
X-8262D01*
Y282915D01*
X-8321D01*
Y283153D01*
X-8381D01*
Y283332D01*
X-8440D01*
Y283570D01*
X-8500D01*
Y283749D01*
X-8560D01*
Y283987D01*
X-8619D01*
Y284166D01*
X-8679D01*
Y284404D01*
X-8738D01*
Y284583D01*
X-8798D01*
Y284762D01*
X-8857D01*
Y285000D01*
X-8917D01*
Y285179D01*
X-8977D01*
Y285417D01*
X-9036D01*
Y285596D01*
X-9096D01*
Y285834D01*
X-9155D01*
Y286013D01*
X-9215D01*
Y286251D01*
X-9275D01*
Y286430D01*
X-9334D01*
Y286668D01*
X-9394D01*
Y286847D01*
X-9453D01*
Y287025D01*
X-9513D01*
Y287264D01*
X-9572D01*
Y287442D01*
X-9632D01*
Y287681D01*
X-9692D01*
Y287859D01*
X-9751D01*
Y288098D01*
X-9811D01*
Y288277D01*
X-9870D01*
Y288515D01*
X-9930D01*
Y288694D01*
X-9989D01*
Y288932D01*
X-10049D01*
Y289111D01*
X-10108D01*
Y289349D01*
X-10168D01*
Y289527D01*
X-10228D01*
Y289706D01*
X-10287D01*
Y289944D01*
X-10347D01*
Y290123D01*
X-10406D01*
Y290361D01*
X-10466D01*
Y290540D01*
X-10526D01*
Y290779D01*
X-10585D01*
Y290957D01*
X-10645D01*
Y291196D01*
X-10704D01*
Y291374D01*
X-10764D01*
Y291613D01*
X-10823D01*
Y291791D01*
X-10883D01*
Y292030D01*
X-10943D01*
Y292208D01*
X-11002D01*
Y292447D01*
X-11062D01*
Y292625D01*
X-11121D01*
Y292804D01*
X-11181D01*
Y293042D01*
X-11240D01*
Y293221D01*
X-11300D01*
Y293459D01*
X-11360D01*
Y293638D01*
X-11419D01*
Y293876D01*
X-11479D01*
Y294055D01*
X-11538D01*
Y294293D01*
X-11598D01*
Y294472D01*
X-11658D01*
Y294710D01*
X-11717D01*
Y294889D01*
X-11777D01*
Y295127D01*
X-11836D01*
Y295187D01*
X-6177D01*
Y295008D01*
X-6117D01*
Y294770D01*
X-6058D01*
Y294532D01*
X-5998D01*
Y294293D01*
X-5938D01*
Y293995D01*
X-5879D01*
Y293757D01*
X-5819D01*
Y293519D01*
X-5760D01*
Y293281D01*
X-5700D01*
Y293042D01*
X-5641D01*
Y292804D01*
X-5581D01*
Y292566D01*
X-5521D01*
Y292327D01*
X-5462D01*
Y292089D01*
X-5402D01*
Y291851D01*
X-5343D01*
Y291613D01*
X-5283D01*
Y291315D01*
X-5224D01*
Y291076D01*
X-5164D01*
Y290838D01*
X-5104D01*
Y290600D01*
X-5045D01*
Y290361D01*
X-4985D01*
Y290123D01*
X-4926D01*
Y289885D01*
X-4866D01*
Y289647D01*
X-4807D01*
Y289408D01*
X-4747D01*
Y289170D01*
X-4687D01*
Y288872D01*
X-4628D01*
Y288634D01*
X-4568D01*
Y288396D01*
X-4509D01*
Y288157D01*
X-4449D01*
Y287919D01*
X-4390D01*
Y287681D01*
X-4330D01*
Y287442D01*
X-4270D01*
Y287204D01*
X-4211D01*
Y286966D01*
X-4151D01*
Y286728D01*
X-4092D01*
Y286430D01*
X-4032D01*
Y286191D01*
X-3972D01*
Y285953D01*
X-3913D01*
Y285715D01*
X-3853D01*
Y285476D01*
X-3794D01*
Y285238D01*
X-3734D01*
Y285000D01*
X-3675D01*
Y284762D01*
X-3615D01*
Y284523D01*
X-3555D01*
Y284285D01*
X-3496D01*
Y284047D01*
X-3436D01*
Y283749D01*
X-3377D01*
Y283511D01*
X-3317D01*
Y283272D01*
X-3258D01*
Y283034D01*
X-3198D01*
Y282796D01*
X-3138D01*
Y282557D01*
X-3079D01*
Y282319D01*
X-3019D01*
Y282140D01*
X-2960D01*
Y282260D01*
X-2900D01*
Y282438D01*
X-2841D01*
Y282617D01*
X-2781D01*
Y282796D01*
X-2721D01*
Y282974D01*
X-2662D01*
Y283153D01*
X-2602D01*
Y283332D01*
X-2543D01*
Y283511D01*
X-2483D01*
Y283689D01*
X-2423D01*
Y283868D01*
X-2364D01*
Y284047D01*
X-2304D01*
Y284225D01*
X-2245D01*
Y284404D01*
X-2185D01*
Y284583D01*
X-2126D01*
Y284762D01*
X-2066D01*
Y284940D01*
X-2007D01*
Y285119D01*
X-1947D01*
Y285298D01*
X-1887D01*
Y285476D01*
X-1828D01*
Y285655D01*
X-1768D01*
Y285834D01*
X-1709D01*
Y286013D01*
X-1649D01*
Y286191D01*
X-1590D01*
Y286370D01*
X-1530D01*
Y286549D01*
X-1470D01*
Y286728D01*
X-1411D01*
Y286966D01*
X-1351D01*
Y287145D01*
X-1292D01*
Y287323D01*
X-1232D01*
Y287502D01*
X-1173D01*
Y287681D01*
X-1113D01*
Y287859D01*
X-1053D01*
Y288038D01*
X-994D01*
Y288217D01*
X-934D01*
Y288396D01*
X-875D01*
Y288574D01*
X-815D01*
Y288753D01*
X-755D01*
Y288932D01*
X-696D01*
Y289111D01*
X-636D01*
Y289289D01*
X-577D01*
Y289468D01*
X-517D01*
Y289647D01*
X-458D01*
Y289825D01*
X-398D01*
Y290004D01*
X-338D01*
Y290183D01*
X-279D01*
Y290361D01*
X-219D01*
Y290540D01*
X-160D01*
Y290719D01*
X-100D01*
Y290898D01*
X-41D01*
Y291076D01*
X19D01*
Y291255D01*
X78D01*
Y291434D01*
X138D01*
Y291613D01*
X198D01*
Y291791D01*
X257D01*
Y291970D01*
X317D01*
Y292149D01*
X376D01*
Y292327D01*
X436D01*
Y292506D01*
X496D01*
Y292685D01*
X555D01*
Y292864D01*
X615D01*
Y293042D01*
X674D01*
Y293281D01*
X734D01*
Y293459D01*
X793D01*
Y293638D01*
X853D01*
Y293817D01*
X913D01*
Y293995D01*
X972D01*
Y294174D01*
X1032D01*
Y294353D01*
X1091D01*
Y294532D01*
X1151D01*
Y294710D01*
X1210D01*
Y294889D01*
X1270D01*
Y295068D01*
X1330D01*
Y295187D01*
X6930D01*
Y295127D01*
X6989D01*
Y294949D01*
X7049D01*
Y294770D01*
X7108D01*
Y294591D01*
X7168D01*
Y294412D01*
X7227D01*
Y294234D01*
X7287D01*
Y294055D01*
X7347D01*
Y293876D01*
X7406D01*
Y293698D01*
X7466D01*
Y293519D01*
X7525D01*
Y293340D01*
X7585D01*
Y293162D01*
X7644D01*
Y292983D01*
X7704D01*
Y292804D01*
X7764D01*
Y292625D01*
X7823D01*
Y292447D01*
X7883D01*
Y292268D01*
X7942D01*
Y292089D01*
X8002D01*
Y291910D01*
X8061D01*
Y291732D01*
X8121D01*
Y291553D01*
X8181D01*
Y291374D01*
X8240D01*
Y291196D01*
X8300D01*
Y291017D01*
X8359D01*
Y290838D01*
X8419D01*
Y290659D01*
X8478D01*
Y290481D01*
X8538D01*
Y290302D01*
X8598D01*
Y290123D01*
X8657D01*
Y289944D01*
X8717D01*
Y289766D01*
X8776D01*
Y289587D01*
X8836D01*
Y289408D01*
X8895D01*
Y289230D01*
X8955D01*
Y289051D01*
X9015D01*
Y288872D01*
X9074D01*
Y288694D01*
X9134D01*
Y288515D01*
X9193D01*
Y288336D01*
X9253D01*
Y288157D01*
X9312D01*
Y287979D01*
X9372D01*
Y287800D01*
X9432D01*
Y287621D01*
X9491D01*
Y287442D01*
X9551D01*
Y287264D01*
X9610D01*
Y287085D01*
X9670D01*
Y286906D01*
X9729D01*
Y286728D01*
X9789D01*
Y286549D01*
X9849D01*
Y286370D01*
X9908D01*
Y286191D01*
X9968D01*
Y286013D01*
X10027D01*
Y285834D01*
X10087D01*
Y285655D01*
X10146D01*
Y285476D01*
X10206D01*
Y285298D01*
X10266D01*
Y285119D01*
X10325D01*
Y284940D01*
X10385D01*
Y284762D01*
X10444D01*
Y284583D01*
X10504D01*
Y284404D01*
X10563D01*
Y284225D01*
X10623D01*
Y284047D01*
X10683D01*
Y283868D01*
X10742D01*
Y283689D01*
X10802D01*
Y283511D01*
X10861D01*
Y283332D01*
X10921D01*
Y283153D01*
X10980D01*
Y282974D01*
X11040D01*
Y282796D01*
X11100D01*
Y282617D01*
X11159D01*
Y282438D01*
X11219D01*
Y282260D01*
X11278D01*
Y282140D01*
X11338D01*
Y282319D01*
X11398D01*
Y282557D01*
X11457D01*
Y282796D01*
X11517D01*
Y283034D01*
X11576D01*
Y283272D01*
X11636D01*
Y283570D01*
X11695D01*
Y283808D01*
X11755D01*
Y284047D01*
X11815D01*
Y284285D01*
X11874D01*
Y284523D01*
X11934D01*
Y284762D01*
X11993D01*
Y285000D01*
X12053D01*
Y285238D01*
X12112D01*
Y285476D01*
X12172D01*
Y285715D01*
X12232D01*
Y286013D01*
X12291D01*
Y286251D01*
X12351D01*
Y286489D01*
X12410D01*
Y286728D01*
X12470D01*
Y286966D01*
X12529D01*
Y287204D01*
X12589D01*
Y287442D01*
X12649D01*
Y287681D01*
X12708D01*
Y287919D01*
X12768D01*
Y288157D01*
X12827D01*
Y288455D01*
X12887D01*
Y288694D01*
X12946D01*
Y288932D01*
X13006D01*
Y289170D01*
X13066D01*
Y289408D01*
X13125D01*
Y289647D01*
X13185D01*
Y289885D01*
X13244D01*
Y290123D01*
X13304D01*
Y290361D01*
X13363D01*
Y290600D01*
X13423D01*
Y290838D01*
X13483D01*
Y291136D01*
X13542D01*
Y291374D01*
X13602D01*
Y291613D01*
X13661D01*
Y291851D01*
X13721D01*
Y292089D01*
X13780D01*
Y292327D01*
X13840D01*
Y292566D01*
X13900D01*
Y292804D01*
X13959D01*
Y293042D01*
X14019D01*
Y293281D01*
X14078D01*
Y293578D01*
X14138D01*
Y293817D01*
X14197D01*
Y294055D01*
X14257D01*
Y294293D01*
X14317D01*
Y294532D01*
X14376D01*
Y294770D01*
X14436D01*
Y295008D01*
X14495D01*
Y295187D01*
X20095D01*
Y294889D01*
D02*
G37*
G36*
X-11181Y289527D02*
X-11121D01*
Y289289D01*
X-11062D01*
Y289111D01*
X-11002D01*
Y288872D01*
X-10943D01*
Y288694D01*
X-10883D01*
Y288455D01*
X-10823D01*
Y288277D01*
X-10764D01*
Y288038D01*
X-10704D01*
Y287859D01*
X-10645D01*
Y287681D01*
X-10585D01*
Y287442D01*
X-10526D01*
Y287264D01*
X-10466D01*
Y287025D01*
X-10406D01*
Y286847D01*
X-10347D01*
Y286608D01*
X-10287D01*
Y286430D01*
X-10228D01*
Y286191D01*
X-10168D01*
Y286013D01*
X-10108D01*
Y285774D01*
X-10049D01*
Y285596D01*
X-9989D01*
Y285417D01*
X-9930D01*
Y285179D01*
X-9870D01*
Y285000D01*
X-9811D01*
Y284762D01*
X-9751D01*
Y284583D01*
X-9692D01*
Y284345D01*
X-9632D01*
Y284166D01*
X-9572D01*
Y283928D01*
X-9513D01*
Y283749D01*
X-9453D01*
Y283511D01*
X-9394D01*
Y283332D01*
X-9334D01*
Y283093D01*
X-9275D01*
Y282915D01*
X-9215D01*
Y282736D01*
X-9155D01*
Y282498D01*
X-9096D01*
Y282319D01*
X-9036D01*
Y282081D01*
X-8977D01*
Y281902D01*
X-8917D01*
Y281664D01*
X-8857D01*
Y281485D01*
X-8798D01*
Y281247D01*
X-8738D01*
Y281068D01*
X-8679D01*
Y280830D01*
X-8619D01*
Y280651D01*
X-8560D01*
Y280472D01*
X-8500D01*
Y280234D01*
X-8440D01*
Y280055D01*
X-8381D01*
Y279817D01*
X-8321D01*
Y279638D01*
X-8262D01*
Y279400D01*
X-8202D01*
Y279221D01*
X-8143D01*
Y278983D01*
X-8083D01*
Y278804D01*
X-8023D01*
Y278566D01*
X-7964D01*
Y278387D01*
X-7904D01*
Y278149D01*
X-7845D01*
Y277970D01*
X-7785D01*
Y277792D01*
X-7726D01*
Y277553D01*
X-7666D01*
Y277374D01*
X-7606D01*
Y277136D01*
X-7547D01*
Y276957D01*
X-7487D01*
Y276719D01*
X-7428D01*
Y276541D01*
X-7368D01*
Y276302D01*
X-7309D01*
Y276124D01*
X-7249D01*
Y275885D01*
X-7189D01*
Y275706D01*
X-7130D01*
Y275528D01*
X-7070D01*
Y275289D01*
X-7011D01*
Y275111D01*
X-6951D01*
Y274872D01*
X-6892D01*
Y274694D01*
X-6832D01*
Y274455D01*
X-6772D01*
Y274277D01*
X-6713D01*
Y274217D01*
X-6772D01*
Y274158D01*
X-11181D01*
Y274217D01*
X-11240D01*
Y282081D01*
X-21487D01*
Y286728D01*
X-11240D01*
Y289706D01*
X-11181D01*
Y289527D01*
D02*
G37*
G36*
X7108Y269987D02*
Y269928D01*
Y262243D01*
X5500D01*
Y266294D01*
X5440D01*
Y266056D01*
X5381D01*
Y265758D01*
X5321D01*
Y265460D01*
X5261D01*
Y265162D01*
X5202D01*
Y264864D01*
X5142D01*
Y264566D01*
X5083D01*
Y264268D01*
X5023D01*
Y263970D01*
X4964D01*
Y263673D01*
X4904D01*
Y263375D01*
X4844D01*
Y263077D01*
X4785D01*
Y262779D01*
X4725D01*
Y262481D01*
X4666D01*
Y262243D01*
X2998D01*
Y270643D01*
X4606D01*
Y266770D01*
X4666D01*
Y267009D01*
X4725D01*
Y267307D01*
X4785D01*
Y267604D01*
X4844D01*
Y267902D01*
X4904D01*
Y268200D01*
X4964D01*
Y268558D01*
X5023D01*
Y268855D01*
X5083D01*
Y269153D01*
X5142D01*
Y269451D01*
X5202D01*
Y269749D01*
X5261D01*
Y270107D01*
X5321D01*
Y270404D01*
X5381D01*
Y270643D01*
X7108D01*
Y269987D01*
D02*
G37*
G36*
X10027Y270702D02*
X10385D01*
Y270643D01*
X10623D01*
Y270583D01*
X10742D01*
Y270523D01*
X10921D01*
Y270464D01*
X10980D01*
Y270404D01*
X11100D01*
Y270345D01*
X11159D01*
Y270285D01*
X11219D01*
Y270226D01*
X11278D01*
Y270166D01*
X11338D01*
Y270107D01*
X11398D01*
Y269987D01*
X11457D01*
Y269928D01*
X11517D01*
Y269809D01*
X11576D01*
Y269690D01*
X11636D01*
Y269511D01*
X11695D01*
Y269332D01*
X11755D01*
Y269034D01*
X11815D01*
Y268498D01*
X11874D01*
Y264090D01*
X11815D01*
Y263673D01*
X11755D01*
Y263494D01*
X11695D01*
Y263315D01*
X11636D01*
Y263196D01*
X11576D01*
Y263077D01*
X11517D01*
Y262958D01*
X11457D01*
Y262898D01*
X11398D01*
Y262838D01*
X11338D01*
Y262779D01*
X11278D01*
Y262719D01*
X11219D01*
Y262660D01*
X11159D01*
Y262600D01*
X11100D01*
Y262541D01*
X11040D01*
Y262481D01*
X10921D01*
Y262421D01*
X10802D01*
Y262362D01*
X10683D01*
Y262302D01*
X10563D01*
Y262243D01*
X10325D01*
Y262183D01*
X9253D01*
Y262243D01*
X8955D01*
Y262302D01*
X8776D01*
Y262362D01*
X8657D01*
Y262421D01*
X8538D01*
Y262481D01*
X8478D01*
Y262541D01*
X8359D01*
Y262600D01*
X8300D01*
Y262660D01*
X8240D01*
Y262719D01*
X8181D01*
Y262779D01*
X8121D01*
Y262838D01*
X8061D01*
Y262958D01*
X8002D01*
Y263017D01*
X7942D01*
Y263136D01*
X7883D01*
Y263315D01*
X7823D01*
Y263494D01*
X7764D01*
Y263732D01*
X7704D01*
Y265877D01*
X9372D01*
Y264149D01*
X9432D01*
Y263911D01*
X9491D01*
Y263851D01*
X9551D01*
Y263792D01*
X9610D01*
Y263732D01*
X9968D01*
Y263792D01*
X10027D01*
Y263851D01*
X10087D01*
Y263970D01*
X10146D01*
Y268975D01*
X10087D01*
Y269094D01*
X10027D01*
Y269153D01*
X9908D01*
Y269213D01*
X9670D01*
Y269153D01*
X9551D01*
Y269094D01*
X9491D01*
Y269034D01*
X9432D01*
Y268796D01*
X9372D01*
Y267307D01*
X7704D01*
Y269094D01*
X7764D01*
Y269392D01*
X7823D01*
Y269570D01*
X7883D01*
Y269749D01*
X7942D01*
Y269868D01*
X8002D01*
Y269928D01*
X8061D01*
Y270047D01*
X8121D01*
Y270107D01*
X8181D01*
Y270166D01*
X8240D01*
Y270226D01*
X8300D01*
Y270285D01*
X8359D01*
Y270345D01*
X8478D01*
Y270404D01*
X8538D01*
Y270464D01*
X8657D01*
Y270523D01*
X8776D01*
Y270583D01*
X8955D01*
Y270643D01*
X9134D01*
Y270702D01*
X9551D01*
Y270762D01*
X10027D01*
Y270702D01*
D02*
G37*
G36*
X-12968D02*
X-12551D01*
Y270643D01*
X-12372D01*
Y270583D01*
X-12194D01*
Y270523D01*
X-12075D01*
Y270464D01*
X-11955D01*
Y270404D01*
X-11896D01*
Y270345D01*
X-11836D01*
Y270285D01*
X-11717D01*
Y270226D01*
X-11658D01*
Y270107D01*
X-11598D01*
Y270047D01*
X-11538D01*
Y269987D01*
X-11479D01*
Y269868D01*
X-11419D01*
Y269749D01*
X-11360D01*
Y269630D01*
X-11300D01*
Y269511D01*
X-11240D01*
Y269272D01*
X-11181D01*
Y268975D01*
X-11121D01*
Y268081D01*
Y268021D01*
Y264090D01*
X-11181D01*
Y263673D01*
X-11240D01*
Y263434D01*
X-11300D01*
Y263256D01*
X-11360D01*
Y263136D01*
X-11419D01*
Y263017D01*
X-11479D01*
Y262898D01*
X-11538D01*
Y262779D01*
X-11598D01*
Y262719D01*
X-11658D01*
Y262660D01*
X-11717D01*
Y262600D01*
X-11777D01*
Y262541D01*
X-11836D01*
Y262481D01*
X-11896D01*
Y262421D01*
X-12015D01*
Y262362D01*
X-12134D01*
Y262302D01*
X-12253D01*
Y262243D01*
X-12432D01*
Y262183D01*
X-13326D01*
Y262243D01*
X-13564D01*
Y262302D01*
X-13683D01*
Y262362D01*
X-13802D01*
Y262421D01*
X-13862D01*
Y262481D01*
X-13921D01*
Y262541D01*
X-14040D01*
Y262600D01*
X-14100D01*
Y262719D01*
X-14159D01*
Y262779D01*
X-14219D01*
Y262838D01*
X-14279D01*
Y262898D01*
X-14338D01*
Y262779D01*
X-14398D01*
Y262660D01*
X-14457D01*
Y262541D01*
X-14517D01*
Y262362D01*
X-14577D01*
Y262243D01*
X-15291D01*
Y267128D01*
X-13206D01*
Y265698D01*
X-13683D01*
Y264268D01*
X-13623D01*
Y263970D01*
X-13564D01*
Y263851D01*
X-13504D01*
Y263792D01*
X-13445D01*
Y263732D01*
X-13028D01*
Y263792D01*
X-12968D01*
Y263851D01*
X-12909D01*
Y263911D01*
X-12849D01*
Y264090D01*
X-12789D01*
Y268855D01*
X-12849D01*
Y268975D01*
X-12909D01*
Y269094D01*
X-13028D01*
Y269153D01*
X-13147D01*
Y269213D01*
X-13326D01*
Y269153D01*
X-13504D01*
Y269094D01*
X-13564D01*
Y268915D01*
X-13623D01*
Y267843D01*
X-13683D01*
Y267783D01*
X-15291D01*
Y268558D01*
X-15232D01*
Y269034D01*
X-15172D01*
Y269332D01*
X-15113D01*
Y269511D01*
X-15053D01*
Y269690D01*
X-14994D01*
Y269809D01*
X-14934D01*
Y269928D01*
X-14874D01*
Y270047D01*
X-14815D01*
Y270107D01*
X-14755D01*
Y270166D01*
X-14696D01*
Y270226D01*
X-14636D01*
Y270285D01*
X-14577D01*
Y270345D01*
X-14517D01*
Y270404D01*
X-14457D01*
Y270464D01*
X-14338D01*
Y270523D01*
X-14219D01*
Y270583D01*
X-14100D01*
Y270643D01*
X-13862D01*
Y270702D01*
X-13445D01*
Y270762D01*
X-12968D01*
Y270702D01*
D02*
G37*
G36*
X19976Y269034D02*
X18963D01*
Y262243D01*
X17295D01*
Y269034D01*
X16283D01*
Y270523D01*
Y270583D01*
Y270643D01*
X19976D01*
Y269034D01*
D02*
G37*
G36*
X15806Y262243D02*
X12351D01*
Y263851D01*
X14078D01*
Y265817D01*
X12529D01*
Y267426D01*
X14078D01*
Y269034D01*
X12470D01*
Y269332D01*
Y269392D01*
Y270643D01*
X15806D01*
Y262243D01*
D02*
G37*
G36*
X-2543D02*
X-5938D01*
Y262838D01*
Y262898D01*
Y263673D01*
X-4211D01*
Y270643D01*
X-2543D01*
Y262243D01*
D02*
G37*
G36*
X-15828D02*
X-17496D01*
Y264209D01*
Y264268D01*
Y270643D01*
X-15828D01*
Y262243D01*
D02*
G37*
G36*
X-18747Y270285D02*
X-18687D01*
Y269630D01*
X-18628D01*
Y269392D01*
Y269332D01*
Y269034D01*
X-18568D01*
Y268438D01*
X-18508D01*
Y267783D01*
X-18449D01*
Y267187D01*
X-18389D01*
Y266592D01*
X-18330D01*
Y265936D01*
X-18270D01*
Y265341D01*
X-18211D01*
Y264745D01*
X-18151D01*
Y264090D01*
X-18091D01*
Y263494D01*
X-18032D01*
Y262898D01*
X-17972D01*
Y262243D01*
X-19581D01*
Y262719D01*
X-19640D01*
Y263553D01*
X-19700D01*
Y263613D01*
X-20713D01*
Y263077D01*
X-20772D01*
Y262421D01*
X-20832D01*
Y262243D01*
X-22381D01*
Y262898D01*
X-22321D01*
Y263494D01*
X-22262D01*
Y264149D01*
X-22202D01*
Y264745D01*
X-22142D01*
Y265400D01*
X-22083D01*
Y265996D01*
X-22023D01*
Y266651D01*
X-21964D01*
Y267247D01*
X-21904D01*
Y267902D01*
X-21844D01*
Y268498D01*
X-21785D01*
Y269153D01*
X-21725D01*
Y269749D01*
X-21666D01*
Y270345D01*
X-21606D01*
Y270643D01*
X-18747D01*
Y270285D01*
D02*
G37*
G36*
X496Y270702D02*
X913D01*
Y270643D01*
X1091D01*
Y270583D01*
X1270D01*
Y270523D01*
X1389D01*
Y270464D01*
X1508D01*
Y270404D01*
X1568D01*
Y270345D01*
X1628D01*
Y270285D01*
X1747D01*
Y270226D01*
X1806D01*
Y270107D01*
X1866D01*
Y270047D01*
X1925D01*
Y269987D01*
X1985D01*
Y269868D01*
X2044D01*
Y269749D01*
X2104D01*
Y269630D01*
X2164D01*
Y269451D01*
X2223D01*
Y269272D01*
X2283D01*
Y268796D01*
X2342D01*
Y264268D01*
X2283D01*
Y263792D01*
X2223D01*
Y263553D01*
X2164D01*
Y263375D01*
X2104D01*
Y263256D01*
X2044D01*
Y263136D01*
X1985D01*
Y263017D01*
X1925D01*
Y262898D01*
X1866D01*
Y262838D01*
X1806D01*
Y262779D01*
X1747D01*
Y262719D01*
X1687D01*
Y262660D01*
X1628D01*
Y262600D01*
X1568D01*
Y262541D01*
X1508D01*
Y262481D01*
X1389D01*
Y262421D01*
X1270D01*
Y262362D01*
X1151D01*
Y262302D01*
X972D01*
Y262243D01*
X734D01*
Y262183D01*
X-279D01*
Y262243D01*
X-517D01*
Y262302D01*
X-696D01*
Y262362D01*
X-815D01*
Y262421D01*
X-934D01*
Y262481D01*
X-994D01*
Y262541D01*
X-1113D01*
Y262600D01*
X-1173D01*
Y262660D01*
X-1232D01*
Y262719D01*
X-1292D01*
Y262779D01*
X-1351D01*
Y262898D01*
X-1411D01*
Y262958D01*
X-1470D01*
Y263077D01*
X-1530D01*
Y263196D01*
X-1590D01*
Y263315D01*
X-1649D01*
Y263434D01*
X-1709D01*
Y263673D01*
X-1768D01*
Y263970D01*
X-1828D01*
Y266889D01*
Y266949D01*
Y269094D01*
X-1768D01*
Y269392D01*
X-1709D01*
Y269570D01*
X-1649D01*
Y269690D01*
X-1590D01*
Y269809D01*
X-1530D01*
Y269928D01*
X-1470D01*
Y270047D01*
X-1411D01*
Y270107D01*
X-1351D01*
Y270166D01*
X-1292D01*
Y270226D01*
X-1232D01*
Y270285D01*
X-1173D01*
Y270345D01*
X-1113D01*
Y270404D01*
X-994D01*
Y270464D01*
X-875D01*
Y270523D01*
X-755D01*
Y270583D01*
X-636D01*
Y270643D01*
X-398D01*
Y270702D01*
X19D01*
Y270762D01*
X496D01*
Y270702D01*
D02*
G37*
G36*
X-8202D02*
X-7785D01*
Y270643D01*
X-7547D01*
Y270583D01*
X-7428D01*
Y270523D01*
X-7309D01*
Y270464D01*
X-7189D01*
Y270404D01*
X-7070D01*
Y270345D01*
X-7011D01*
Y270285D01*
X-6951D01*
Y270226D01*
X-6892D01*
Y270166D01*
X-6832D01*
Y270107D01*
X-6772D01*
Y270047D01*
X-6713D01*
Y269928D01*
X-6653D01*
Y269809D01*
X-6594D01*
Y269690D01*
X-6534D01*
Y269570D01*
X-6475D01*
Y269392D01*
X-6415D01*
Y269094D01*
X-6355D01*
Y263970D01*
X-6415D01*
Y263673D01*
X-6475D01*
Y263494D01*
X-6534D01*
Y263315D01*
X-6594D01*
Y263196D01*
X-6653D01*
Y263077D01*
X-6713D01*
Y262958D01*
X-6772D01*
Y262898D01*
X-6832D01*
Y262779D01*
X-6892D01*
Y262719D01*
X-6951D01*
Y262660D01*
X-7011D01*
Y262600D01*
X-7130D01*
Y262541D01*
X-7189D01*
Y262481D01*
X-7249D01*
Y262421D01*
X-7368D01*
Y262362D01*
X-7487D01*
Y262302D01*
X-7666D01*
Y262243D01*
X-7904D01*
Y262183D01*
X-8977D01*
Y262243D01*
X-9155D01*
Y262302D01*
X-9334D01*
Y262362D01*
X-9453D01*
Y262421D01*
X-9572D01*
Y262481D01*
X-9692D01*
Y262541D01*
X-9751D01*
Y262600D01*
X-9811D01*
Y262660D01*
X-9870D01*
Y262719D01*
X-9930D01*
Y262779D01*
X-9989D01*
Y262838D01*
X-10049D01*
Y262898D01*
X-10108D01*
Y263017D01*
X-10168D01*
Y263136D01*
X-10228D01*
Y263256D01*
X-10287D01*
Y263375D01*
X-10347D01*
Y263553D01*
X-10406D01*
Y263792D01*
X-10466D01*
Y264268D01*
X-10526D01*
Y268796D01*
X-10466D01*
Y269272D01*
X-10406D01*
Y269511D01*
X-10347D01*
Y269630D01*
X-10287D01*
Y269749D01*
X-10228D01*
Y269868D01*
X-10168D01*
Y269987D01*
X-10108D01*
Y270047D01*
X-10049D01*
Y270166D01*
X-9989D01*
Y270226D01*
X-9930D01*
Y270285D01*
X-9811D01*
Y270345D01*
X-9751D01*
Y270404D01*
X-9692D01*
Y270464D01*
X-9572D01*
Y270523D01*
X-9453D01*
Y270583D01*
X-9275D01*
Y270643D01*
X-9096D01*
Y270702D01*
X-8679D01*
Y270762D01*
X-8202D01*
Y270702D01*
D02*
G37*
G36*
X-52108Y259862D02*
X-51930Y259851D01*
X-51586Y259795D01*
X-51298Y259706D01*
X-51164Y259662D01*
X-51042Y259606D01*
X-50931Y259562D01*
X-50843Y259506D01*
X-50754Y259462D01*
X-50687Y259429D01*
X-50632Y259384D01*
X-50599Y259362D01*
X-50576Y259351D01*
X-50565Y259340D01*
X-50443Y259229D01*
X-50332Y259118D01*
X-50232Y258985D01*
X-50143Y258841D01*
X-50010Y258552D01*
X-49899Y258274D01*
X-49866Y258130D01*
X-49833Y258008D01*
X-49799Y257897D01*
X-49788Y257797D01*
X-49766Y257708D01*
Y257653D01*
X-49755Y257608D01*
Y257597D01*
X-51220Y257453D01*
X-51242Y257675D01*
X-51287Y257864D01*
X-51331Y258030D01*
X-51386Y258152D01*
X-51431Y258252D01*
X-51475Y258319D01*
X-51509Y258363D01*
X-51520Y258374D01*
X-51631Y258463D01*
X-51753Y258530D01*
X-51875Y258585D01*
X-51997Y258619D01*
X-52097Y258641D01*
X-52186Y258652D01*
X-52263D01*
X-52430Y258641D01*
X-52574Y258607D01*
X-52696Y258563D01*
X-52807Y258519D01*
X-52885Y258474D01*
X-52952Y258430D01*
X-52985Y258396D01*
X-52996Y258385D01*
X-53085Y258274D01*
X-53151Y258152D01*
X-53196Y258030D01*
X-53229Y257908D01*
X-53251Y257797D01*
X-53262Y257697D01*
Y257642D01*
Y257631D01*
Y257619D01*
X-53251Y257453D01*
X-53218Y257298D01*
X-53162Y257142D01*
X-53107Y257009D01*
X-53052Y256887D01*
X-52996Y256798D01*
X-52963Y256743D01*
X-52952Y256720D01*
X-52907Y256654D01*
X-52841Y256576D01*
X-52752Y256476D01*
X-52663Y256387D01*
X-52463Y256177D01*
X-52263Y255966D01*
X-52064Y255766D01*
X-51975Y255677D01*
X-51886Y255611D01*
X-51819Y255544D01*
X-51775Y255499D01*
X-51742Y255466D01*
X-51731Y255455D01*
X-51509Y255244D01*
X-51309Y255044D01*
X-51120Y254856D01*
X-50954Y254689D01*
X-50798Y254523D01*
X-50665Y254367D01*
X-50543Y254234D01*
X-50443Y254101D01*
X-50354Y253990D01*
X-50277Y253890D01*
X-50210Y253812D01*
X-50166Y253735D01*
X-50121Y253690D01*
X-50099Y253646D01*
X-50077Y253624D01*
Y253612D01*
X-49932Y253357D01*
X-49822Y253091D01*
X-49733Y252847D01*
X-49666Y252625D01*
X-49622Y252425D01*
X-49611Y252347D01*
X-49599Y252281D01*
X-49588Y252225D01*
X-49577Y252181D01*
Y252158D01*
Y252147D01*
X-54739D01*
Y253513D01*
X-51808D01*
X-51897Y253657D01*
X-51997Y253779D01*
X-52041Y253834D01*
X-52075Y253879D01*
X-52097Y253901D01*
X-52108Y253912D01*
X-52152Y253957D01*
X-52197Y254012D01*
X-52330Y254134D01*
X-52474Y254279D01*
X-52619Y254423D01*
X-52763Y254556D01*
X-52885Y254667D01*
X-52929Y254711D01*
X-52963Y254745D01*
X-52985Y254756D01*
X-52996Y254767D01*
X-53240Y255000D01*
X-53440Y255189D01*
X-53607Y255366D01*
X-53740Y255499D01*
X-53840Y255611D01*
X-53906Y255688D01*
X-53951Y255744D01*
X-53962Y255755D01*
X-54106Y255944D01*
X-54228Y256121D01*
X-54328Y256287D01*
X-54406Y256432D01*
X-54472Y256554D01*
X-54517Y256654D01*
X-54539Y256709D01*
X-54550Y256731D01*
X-54617Y256909D01*
X-54661Y257087D01*
X-54694Y257253D01*
X-54717Y257409D01*
X-54728Y257531D01*
X-54739Y257631D01*
Y257697D01*
Y257719D01*
X-54728Y257886D01*
X-54705Y258052D01*
X-54683Y258208D01*
X-54639Y258352D01*
X-54528Y258607D01*
X-54417Y258829D01*
X-54350Y258929D01*
X-54295Y259007D01*
X-54239Y259085D01*
X-54184Y259140D01*
X-54139Y259185D01*
X-54117Y259229D01*
X-54095Y259240D01*
X-54084Y259251D01*
X-53962Y259362D01*
X-53817Y259462D01*
X-53684Y259540D01*
X-53529Y259606D01*
X-53240Y259717D01*
X-52952Y259795D01*
X-52818Y259817D01*
X-52696Y259839D01*
X-52585Y259851D01*
X-52485Y259862D01*
X-52408Y259873D01*
X-52297D01*
X-52108Y259862D01*
D02*
G37*
G36*
X-5988Y258829D02*
Y257719D01*
X-5311D01*
Y256543D01*
X-5988D01*
Y254112D01*
Y253968D01*
Y253846D01*
Y253724D01*
X-6000Y253624D01*
Y253446D01*
X-6011Y253302D01*
X-6022Y253191D01*
Y253124D01*
X-6033Y253080D01*
Y253069D01*
X-6055Y252946D01*
X-6088Y252836D01*
X-6122Y252736D01*
X-6155Y252658D01*
X-6188Y252591D01*
X-6210Y252547D01*
X-6222Y252514D01*
X-6233Y252502D01*
X-6299Y252425D01*
X-6377Y252358D01*
X-6532Y252247D01*
X-6599Y252214D01*
X-6654Y252181D01*
X-6699Y252169D01*
X-6710Y252158D01*
X-6832Y252114D01*
X-6954Y252081D01*
X-7076Y252059D01*
X-7187Y252048D01*
X-7287Y252036D01*
X-7365Y252025D01*
X-7431D01*
X-7664Y252036D01*
X-7886Y252059D01*
X-8086Y252092D01*
X-8253Y252136D01*
X-8397Y252169D01*
X-8508Y252203D01*
X-8575Y252225D01*
X-8586Y252236D01*
X-8597D01*
X-8464Y253379D01*
X-8330Y253335D01*
X-8208Y253302D01*
X-8108Y253279D01*
X-8020Y253268D01*
X-7953Y253257D01*
X-7909Y253246D01*
X-7864D01*
X-7764Y253257D01*
X-7687Y253279D01*
X-7642Y253302D01*
X-7620Y253313D01*
X-7553Y253379D01*
X-7520Y253435D01*
X-7498Y253479D01*
X-7487Y253501D01*
Y253524D01*
X-7476Y253568D01*
Y253668D01*
Y253801D01*
X-7465Y253934D01*
Y254068D01*
Y254179D01*
Y254223D01*
Y254256D01*
Y254279D01*
Y254290D01*
Y256543D01*
X-8475D01*
Y257719D01*
X-7465D01*
Y259695D01*
X-5988Y258829D01*
D02*
G37*
G36*
X45271Y257830D02*
X45459Y257808D01*
X45648Y257764D01*
X45814Y257719D01*
X45981Y257664D01*
X46125Y257597D01*
X46269Y257520D01*
X46392Y257453D01*
X46503Y257375D01*
X46603Y257298D01*
X46691Y257231D01*
X46758Y257176D01*
X46813Y257131D01*
X46858Y257087D01*
X46880Y257065D01*
X46891Y257054D01*
X47013Y256898D01*
X47124Y256732D01*
X47224Y256565D01*
X47313Y256388D01*
X47379Y256199D01*
X47435Y256021D01*
X47524Y255677D01*
X47557Y255511D01*
X47579Y255366D01*
X47590Y255233D01*
X47601Y255122D01*
X47613Y255022D01*
Y254944D01*
Y254900D01*
Y254889D01*
X47601Y254678D01*
X47590Y254467D01*
X47557Y254279D01*
X47524Y254101D01*
X47491Y253923D01*
X47435Y253768D01*
X47391Y253624D01*
X47335Y253490D01*
X47291Y253368D01*
X47235Y253268D01*
X47191Y253180D01*
X47158Y253102D01*
X47113Y253046D01*
X47091Y253002D01*
X47080Y252980D01*
X47069Y252969D01*
X46924Y252802D01*
X46780Y252658D01*
X46614Y252536D01*
X46436Y252425D01*
X46258Y252336D01*
X46081Y252258D01*
X45903Y252192D01*
X45726Y252147D01*
X45570Y252103D01*
X45415Y252081D01*
X45271Y252059D01*
X45148Y252036D01*
X45048D01*
X44982Y252025D01*
X44915D01*
X44593Y252048D01*
X44294Y252092D01*
X44038Y252158D01*
X43816Y252236D01*
X43717Y252281D01*
X43639Y252314D01*
X43561Y252347D01*
X43506Y252380D01*
X43461Y252414D01*
X43417Y252425D01*
X43406Y252447D01*
X43395D01*
X43184Y252625D01*
X42995Y252813D01*
X42840Y253024D01*
X42718Y253224D01*
X42618Y253402D01*
X42584Y253479D01*
X42551Y253546D01*
X42529Y253601D01*
X42507Y253646D01*
X42496Y253668D01*
Y253679D01*
X43961Y253923D01*
X44016Y253779D01*
X44072Y253646D01*
X44127Y253546D01*
X44194Y253457D01*
X44238Y253391D01*
X44283Y253346D01*
X44316Y253324D01*
X44327Y253313D01*
X44416Y253246D01*
X44516Y253202D01*
X44616Y253169D01*
X44704Y253146D01*
X44782Y253135D01*
X44849Y253124D01*
X44904D01*
X45082Y253135D01*
X45248Y253180D01*
X45404Y253235D01*
X45526Y253302D01*
X45626Y253368D01*
X45692Y253424D01*
X45748Y253468D01*
X45759Y253479D01*
X45870Y253624D01*
X45948Y253790D01*
X46014Y253968D01*
X46059Y254123D01*
X46081Y254279D01*
X46092Y254389D01*
X46103Y254434D01*
Y254467D01*
Y254489D01*
Y254501D01*
X42418D01*
Y254811D01*
X42440Y255089D01*
X42473Y255355D01*
X42518Y255599D01*
X42573Y255833D01*
X42629Y256032D01*
X42695Y256221D01*
X42762Y256388D01*
X42829Y256532D01*
X42895Y256665D01*
X42951Y256765D01*
X43006Y256854D01*
X43051Y256920D01*
X43084Y256976D01*
X43106Y256998D01*
X43117Y257009D01*
X43250Y257153D01*
X43406Y257287D01*
X43561Y257398D01*
X43717Y257486D01*
X43883Y257575D01*
X44050Y257642D01*
X44205Y257697D01*
X44360Y257742D01*
X44505Y257775D01*
X44638Y257797D01*
X44760Y257819D01*
X44860Y257830D01*
X44949Y257841D01*
X45071D01*
X45271Y257830D01*
D02*
G37*
G36*
X-11405D02*
X-11216Y257808D01*
X-11028Y257764D01*
X-10861Y257719D01*
X-10695Y257664D01*
X-10550Y257597D01*
X-10406Y257520D01*
X-10284Y257453D01*
X-10173Y257375D01*
X-10073Y257298D01*
X-9984Y257231D01*
X-9918Y257176D01*
X-9862Y257131D01*
X-9818Y257087D01*
X-9796Y257065D01*
X-9785Y257054D01*
X-9662Y256898D01*
X-9551Y256732D01*
X-9452Y256565D01*
X-9363Y256388D01*
X-9296Y256199D01*
X-9241Y256021D01*
X-9152Y255677D01*
X-9118Y255511D01*
X-9096Y255366D01*
X-9085Y255233D01*
X-9074Y255122D01*
X-9063Y255022D01*
Y254944D01*
Y254900D01*
Y254889D01*
X-9074Y254678D01*
X-9085Y254467D01*
X-9118Y254279D01*
X-9152Y254101D01*
X-9185Y253923D01*
X-9241Y253768D01*
X-9285Y253624D01*
X-9341Y253490D01*
X-9385Y253368D01*
X-9440Y253268D01*
X-9485Y253180D01*
X-9518Y253102D01*
X-9563Y253046D01*
X-9585Y253002D01*
X-9596Y252980D01*
X-9607Y252969D01*
X-9751Y252802D01*
X-9895Y252658D01*
X-10062Y252536D01*
X-10240Y252425D01*
X-10417Y252336D01*
X-10595Y252258D01*
X-10772Y252192D01*
X-10950Y252147D01*
X-11105Y252103D01*
X-11261Y252081D01*
X-11405Y252059D01*
X-11527Y252036D01*
X-11627D01*
X-11694Y252025D01*
X-11760D01*
X-12082Y252048D01*
X-12382Y252092D01*
X-12637Y252158D01*
X-12859Y252236D01*
X-12959Y252281D01*
X-13037Y252314D01*
X-13114Y252347D01*
X-13170Y252380D01*
X-13214Y252414D01*
X-13259Y252425D01*
X-13270Y252447D01*
X-13281D01*
X-13492Y252625D01*
X-13680Y252813D01*
X-13836Y253024D01*
X-13958Y253224D01*
X-14058Y253402D01*
X-14091Y253479D01*
X-14124Y253546D01*
X-14147Y253601D01*
X-14169Y253646D01*
X-14180Y253668D01*
Y253679D01*
X-12715Y253923D01*
X-12659Y253779D01*
X-12604Y253646D01*
X-12548Y253546D01*
X-12482Y253457D01*
X-12437Y253391D01*
X-12393Y253346D01*
X-12360Y253324D01*
X-12349Y253313D01*
X-12260Y253246D01*
X-12160Y253202D01*
X-12060Y253169D01*
X-11971Y253146D01*
X-11893Y253135D01*
X-11827Y253124D01*
X-11771D01*
X-11594Y253135D01*
X-11427Y253180D01*
X-11272Y253235D01*
X-11150Y253302D01*
X-11050Y253368D01*
X-10983Y253424D01*
X-10928Y253468D01*
X-10917Y253479D01*
X-10806Y253624D01*
X-10728Y253790D01*
X-10661Y253968D01*
X-10617Y254123D01*
X-10595Y254279D01*
X-10584Y254389D01*
X-10573Y254434D01*
Y254467D01*
Y254489D01*
Y254501D01*
X-14258D01*
Y254811D01*
X-14236Y255089D01*
X-14202Y255355D01*
X-14158Y255599D01*
X-14102Y255833D01*
X-14047Y256032D01*
X-13980Y256221D01*
X-13914Y256388D01*
X-13847Y256532D01*
X-13780Y256665D01*
X-13725Y256765D01*
X-13669Y256854D01*
X-13625Y256920D01*
X-13592Y256976D01*
X-13570Y256998D01*
X-13558Y257009D01*
X-13425Y257153D01*
X-13270Y257287D01*
X-13114Y257398D01*
X-12959Y257486D01*
X-12793Y257575D01*
X-12626Y257642D01*
X-12471Y257697D01*
X-12315Y257742D01*
X-12171Y257775D01*
X-12038Y257797D01*
X-11916Y257819D01*
X-11816Y257830D01*
X-11727Y257841D01*
X-11605D01*
X-11405Y257830D01*
D02*
G37*
G36*
X-23348Y257830D02*
X-23160Y257808D01*
X-22971Y257764D01*
X-22805Y257719D01*
X-22638Y257664D01*
X-22494Y257597D01*
X-22350Y257520D01*
X-22227Y257453D01*
X-22116Y257375D01*
X-22016Y257298D01*
X-21928Y257231D01*
X-21861Y257176D01*
X-21806Y257131D01*
X-21761Y257087D01*
X-21739Y257064D01*
X-21728Y257053D01*
X-21606Y256898D01*
X-21495Y256731D01*
X-21395Y256565D01*
X-21306Y256387D01*
X-21240Y256199D01*
X-21184Y256021D01*
X-21095Y255677D01*
X-21062Y255511D01*
X-21040Y255366D01*
X-21029Y255233D01*
X-21017Y255122D01*
X-21006Y255022D01*
Y254944D01*
Y254900D01*
Y254889D01*
X-21017Y254678D01*
X-21029Y254467D01*
X-21062Y254279D01*
X-21095Y254101D01*
X-21128Y253923D01*
X-21184Y253768D01*
X-21228Y253624D01*
X-21284Y253490D01*
X-21328Y253368D01*
X-21384Y253268D01*
X-21428Y253180D01*
X-21462Y253102D01*
X-21506Y253046D01*
X-21528Y253002D01*
X-21539Y252980D01*
X-21550Y252969D01*
X-21695Y252802D01*
X-21839Y252658D01*
X-22005Y252536D01*
X-22183Y252425D01*
X-22361Y252336D01*
X-22538Y252258D01*
X-22716Y252192D01*
X-22893Y252147D01*
X-23049Y252103D01*
X-23204Y252081D01*
X-23348Y252059D01*
X-23470Y252036D01*
X-23570D01*
X-23637Y252025D01*
X-23704D01*
X-24025Y252047D01*
X-24325Y252092D01*
X-24581Y252158D01*
X-24802Y252236D01*
X-24902Y252281D01*
X-24980Y252314D01*
X-25058Y252347D01*
X-25113Y252380D01*
X-25158Y252414D01*
X-25202Y252425D01*
X-25213Y252447D01*
X-25224D01*
X-25435Y252625D01*
X-25624Y252813D01*
X-25779Y253024D01*
X-25901Y253224D01*
X-26001Y253402D01*
X-26035Y253479D01*
X-26068Y253546D01*
X-26090Y253601D01*
X-26112Y253646D01*
X-26123Y253668D01*
Y253679D01*
X-24658Y253923D01*
X-24603Y253779D01*
X-24547Y253646D01*
X-24492Y253546D01*
X-24425Y253457D01*
X-24381Y253391D01*
X-24336Y253346D01*
X-24303Y253324D01*
X-24292Y253313D01*
X-24203Y253246D01*
X-24103Y253202D01*
X-24003Y253169D01*
X-23914Y253146D01*
X-23837Y253135D01*
X-23770Y253124D01*
X-23715D01*
X-23537Y253135D01*
X-23371Y253180D01*
X-23215Y253235D01*
X-23093Y253302D01*
X-22993Y253368D01*
X-22927Y253424D01*
X-22871Y253468D01*
X-22860Y253479D01*
X-22749Y253624D01*
X-22671Y253790D01*
X-22605Y253968D01*
X-22560Y254123D01*
X-22538Y254279D01*
X-22527Y254389D01*
X-22516Y254434D01*
Y254467D01*
Y254489D01*
Y254501D01*
X-26201D01*
Y254811D01*
X-26179Y255089D01*
X-26146Y255355D01*
X-26101Y255599D01*
X-26046Y255833D01*
X-25990Y256032D01*
X-25924Y256221D01*
X-25857Y256387D01*
X-25790Y256532D01*
X-25724Y256665D01*
X-25668Y256765D01*
X-25613Y256854D01*
X-25568Y256920D01*
X-25535Y256976D01*
X-25513Y256998D01*
X-25502Y257009D01*
X-25369Y257153D01*
X-25213Y257286D01*
X-25058Y257397D01*
X-24902Y257486D01*
X-24736Y257575D01*
X-24569Y257642D01*
X-24414Y257697D01*
X-24259Y257742D01*
X-24114Y257775D01*
X-23981Y257797D01*
X-23859Y257819D01*
X-23759Y257830D01*
X-23670Y257841D01*
X-23548D01*
X-23348Y257830D01*
D02*
G37*
G36*
X38233Y257830D02*
X38433Y257797D01*
X38611Y257753D01*
X38788Y257697D01*
X38955Y257620D01*
X39099Y257542D01*
X39243Y257453D01*
X39365Y257375D01*
X39476Y257287D01*
X39576Y257198D01*
X39665Y257120D01*
X39732Y257042D01*
X39787Y256987D01*
X39832Y256943D01*
X39854Y256909D01*
X39865Y256898D01*
Y257719D01*
X41230D01*
Y252147D01*
X39754D01*
Y254656D01*
Y254822D01*
Y254978D01*
X39743Y255122D01*
X39732Y255244D01*
Y255366D01*
X39721Y255466D01*
X39709Y255566D01*
X39698Y255644D01*
X39676Y255777D01*
X39665Y255866D01*
X39643Y255921D01*
Y255932D01*
X39599Y256054D01*
X39532Y256177D01*
X39465Y256265D01*
X39399Y256354D01*
X39332Y256410D01*
X39277Y256465D01*
X39243Y256487D01*
X39232Y256499D01*
X39110Y256565D01*
X38988Y256621D01*
X38877Y256654D01*
X38766Y256687D01*
X38677Y256698D01*
X38611Y256709D01*
X38544D01*
X38433Y256698D01*
X38333Y256687D01*
X38255Y256665D01*
X38178Y256632D01*
X38111Y256598D01*
X38067Y256576D01*
X38045Y256565D01*
X38033Y256554D01*
X37956Y256499D01*
X37900Y256432D01*
X37800Y256299D01*
X37767Y256232D01*
X37745Y256188D01*
X37723Y256154D01*
Y256143D01*
X37701Y256088D01*
X37689Y256021D01*
X37667Y255855D01*
X37645Y255655D01*
X37634Y255466D01*
X37623Y255278D01*
Y255200D01*
Y255122D01*
Y255067D01*
Y255022D01*
Y254989D01*
Y254978D01*
Y252147D01*
X36147D01*
Y255599D01*
Y255833D01*
X36158Y256021D01*
X36169Y256199D01*
X36191Y256332D01*
X36202Y256443D01*
X36224Y256521D01*
X36235Y256576D01*
Y256587D01*
X36269Y256721D01*
X36313Y256831D01*
X36357Y256943D01*
X36413Y257031D01*
X36457Y257109D01*
X36491Y257164D01*
X36513Y257198D01*
X36524Y257209D01*
X36613Y257309D01*
X36713Y257398D01*
X36813Y257475D01*
X36912Y257542D01*
X37001Y257597D01*
X37079Y257631D01*
X37123Y257653D01*
X37146Y257664D01*
X37301Y257719D01*
X37456Y257764D01*
X37601Y257797D01*
X37734Y257819D01*
X37856Y257830D01*
X37956Y257841D01*
X38033D01*
X38233Y257830D01*
D02*
G37*
G36*
X19697D02*
X19808Y257819D01*
X19919Y257786D01*
X20007Y257753D01*
X20085Y257719D01*
X20152Y257697D01*
X20185Y257675D01*
X20196Y257664D01*
X20307Y257586D01*
X20407Y257475D01*
X20518Y257353D01*
X20607Y257231D01*
X20696Y257109D01*
X20762Y257009D01*
X20807Y256943D01*
X20818Y256931D01*
Y257719D01*
X22183D01*
Y252147D01*
X20707D01*
Y253857D01*
Y254112D01*
Y254345D01*
X20696Y254556D01*
X20684Y254745D01*
Y254922D01*
X20673Y255067D01*
X20662Y255211D01*
X20651Y255322D01*
X20640Y255422D01*
X20629Y255511D01*
X20618Y255577D01*
Y255633D01*
X20607Y255666D01*
X20596Y255699D01*
Y255721D01*
X20551Y255877D01*
X20496Y256010D01*
X20440Y256121D01*
X20385Y256199D01*
X20340Y256265D01*
X20296Y256310D01*
X20274Y256332D01*
X20263Y256343D01*
X20174Y256399D01*
X20085Y256443D01*
X19996Y256476D01*
X19919Y256499D01*
X19852Y256510D01*
X19785Y256521D01*
X19741D01*
X19619Y256510D01*
X19497Y256487D01*
X19386Y256443D01*
X19275Y256399D01*
X19186Y256354D01*
X19119Y256310D01*
X19064Y256288D01*
X19053Y256276D01*
X18587Y257553D01*
X18764Y257653D01*
X18931Y257719D01*
X19097Y257775D01*
X19253Y257808D01*
X19375Y257830D01*
X19475Y257841D01*
X19563D01*
X19697Y257830D01*
D02*
G37*
G36*
X11960Y252147D02*
X10406D01*
Y255044D01*
X9030D01*
X8863Y255056D01*
X8708D01*
X8564Y255067D01*
X8430Y255078D01*
X8308Y255089D01*
X8208Y255100D01*
X8108D01*
X8031Y255111D01*
X7953Y255122D01*
X7897Y255133D01*
X7853D01*
X7820Y255144D01*
X7798D01*
X7642Y255189D01*
X7498Y255244D01*
X7365Y255300D01*
X7243Y255366D01*
X7143Y255422D01*
X7065Y255466D01*
X7021Y255499D01*
X6998Y255511D01*
X6854Y255622D01*
X6732Y255744D01*
X6610Y255877D01*
X6521Y255988D01*
X6443Y256099D01*
X6388Y256188D01*
X6355Y256243D01*
X6344Y256265D01*
X6255Y256454D01*
X6188Y256654D01*
X6144Y256865D01*
X6110Y257054D01*
X6088Y257209D01*
Y257287D01*
X6077Y257342D01*
Y257398D01*
Y257431D01*
Y257453D01*
Y257464D01*
X6099Y257786D01*
X6144Y258086D01*
X6221Y258330D01*
X6299Y258552D01*
X6344Y258641D01*
X6388Y258718D01*
X6421Y258785D01*
X6466Y258852D01*
X6488Y258896D01*
X6510Y258929D01*
X6532Y258940D01*
Y258951D01*
X6710Y259151D01*
X6887Y259318D01*
X7076Y259451D01*
X7243Y259551D01*
X7398Y259618D01*
X7520Y259673D01*
X7564Y259684D01*
X7598Y259695D01*
X7620Y259706D01*
X7631D01*
X7720Y259729D01*
X7831Y259751D01*
X7964Y259762D01*
X8097Y259773D01*
X8408Y259795D01*
X8719Y259817D01*
X9007D01*
X9130Y259828D01*
X11960D01*
Y252147D01*
D02*
G37*
G36*
X2392Y257830D02*
X2503Y257819D01*
X2614Y257786D01*
X2703Y257753D01*
X2781Y257719D01*
X2847Y257697D01*
X2880Y257675D01*
X2891Y257664D01*
X3002Y257586D01*
X3102Y257475D01*
X3213Y257353D01*
X3302Y257231D01*
X3391Y257109D01*
X3458Y257009D01*
X3502Y256943D01*
X3513Y256931D01*
Y257719D01*
X4878D01*
Y252147D01*
X3402D01*
Y253857D01*
Y254112D01*
Y254345D01*
X3391Y254556D01*
X3380Y254745D01*
Y254922D01*
X3369Y255067D01*
X3358Y255211D01*
X3347Y255322D01*
X3336Y255422D01*
X3324Y255511D01*
X3313Y255577D01*
Y255633D01*
X3302Y255666D01*
X3291Y255699D01*
Y255721D01*
X3247Y255877D01*
X3191Y256010D01*
X3136Y256121D01*
X3080Y256199D01*
X3036Y256265D01*
X2991Y256310D01*
X2969Y256332D01*
X2958Y256343D01*
X2869Y256399D01*
X2781Y256443D01*
X2692Y256476D01*
X2614Y256499D01*
X2547Y256510D01*
X2481Y256521D01*
X2436D01*
X2314Y256510D01*
X2192Y256487D01*
X2081Y256443D01*
X1970Y256399D01*
X1881Y256354D01*
X1815Y256310D01*
X1759Y256288D01*
X1748Y256276D01*
X1282Y257553D01*
X1460Y257653D01*
X1626Y257719D01*
X1793Y257775D01*
X1948Y257808D01*
X2070Y257830D01*
X2170Y257841D01*
X2259D01*
X2392Y257830D01*
D02*
G37*
G36*
X-36380Y252147D02*
X-37934D01*
Y255355D01*
X-38433D01*
X-38589Y255344D01*
X-38722Y255333D01*
X-38833Y255311D01*
X-38921Y255300D01*
X-38977Y255278D01*
X-39010Y255266D01*
X-39021D01*
X-39110Y255222D01*
X-39199Y255178D01*
X-39277Y255122D01*
X-39354Y255078D01*
X-39410Y255022D01*
X-39454Y254978D01*
X-39476Y254956D01*
X-39488Y254944D01*
X-39532Y254889D01*
X-39587Y254834D01*
X-39709Y254667D01*
X-39843Y254489D01*
X-39987Y254290D01*
X-40109Y254112D01*
X-40165Y254023D01*
X-40209Y253957D01*
X-40253Y253901D01*
X-40287Y253857D01*
X-40298Y253823D01*
X-40309Y253812D01*
X-41419Y252147D01*
X-43284D01*
X-42340Y253646D01*
X-42240Y253801D01*
X-42140Y253957D01*
X-42052Y254090D01*
X-41963Y254212D01*
X-41885Y254323D01*
X-41818Y254434D01*
X-41685Y254600D01*
X-41585Y254734D01*
X-41519Y254822D01*
X-41463Y254878D01*
X-41452Y254889D01*
X-41330Y255022D01*
X-41186Y255144D01*
X-41053Y255244D01*
X-40919Y255344D01*
X-40808Y255422D01*
X-40720Y255477D01*
X-40653Y255522D01*
X-40642Y255533D01*
X-40631D01*
X-40820Y255566D01*
X-40986Y255611D01*
X-41141Y255655D01*
X-41297Y255710D01*
X-41430Y255766D01*
X-41552Y255821D01*
X-41674Y255877D01*
X-41774Y255944D01*
X-41863Y255999D01*
X-41941Y256054D01*
X-42007Y256110D01*
X-42052Y256154D01*
X-42096Y256188D01*
X-42129Y256221D01*
X-42140Y256232D01*
X-42151Y256243D01*
X-42240Y256354D01*
X-42318Y256465D01*
X-42451Y256709D01*
X-42540Y256942D01*
X-42596Y257176D01*
X-42640Y257375D01*
X-42651Y257453D01*
Y257531D01*
X-42662Y257586D01*
Y257642D01*
Y257664D01*
Y257675D01*
X-42651Y257919D01*
X-42607Y258152D01*
X-42551Y258352D01*
X-42496Y258530D01*
X-42429Y258674D01*
X-42373Y258785D01*
X-42351Y258818D01*
X-42329Y258852D01*
X-42318Y258863D01*
Y258874D01*
X-42185Y259062D01*
X-42041Y259218D01*
X-41896Y259340D01*
X-41752Y259451D01*
X-41619Y259518D01*
X-41519Y259573D01*
X-41452Y259606D01*
X-41441Y259618D01*
X-41430D01*
X-41319Y259651D01*
X-41197Y259684D01*
X-40919Y259740D01*
X-40620Y259773D01*
X-40331Y259806D01*
X-40187D01*
X-40065Y259817D01*
X-39943D01*
X-39843Y259828D01*
X-36380D01*
Y252147D01*
D02*
G37*
G36*
X33050Y257819D02*
X33238Y257797D01*
X33416Y257764D01*
X33571Y257731D01*
X33716Y257686D01*
X33849Y257642D01*
X33971Y257597D01*
X34071Y257542D01*
X34160Y257498D01*
X34237Y257453D01*
X34293Y257420D01*
X34348Y257386D01*
X34382Y257364D01*
X34393Y257353D01*
X34404Y257342D01*
X34504Y257253D01*
X34592Y257153D01*
X34670Y257054D01*
X34726Y256943D01*
X34837Y256743D01*
X34903Y256554D01*
X34937Y256388D01*
X34948Y256310D01*
X34959Y256254D01*
X34970Y256199D01*
Y256166D01*
Y256143D01*
Y256132D01*
X34959Y255988D01*
X34937Y255855D01*
X34914Y255721D01*
X34870Y255599D01*
X34759Y255389D01*
X34637Y255211D01*
X34526Y255067D01*
X34415Y254967D01*
X34371Y254922D01*
X34348Y254900D01*
X34326Y254889D01*
X34315Y254878D01*
X34215Y254822D01*
X34082Y254756D01*
X33926Y254689D01*
X33760Y254634D01*
X33582Y254567D01*
X33394Y254512D01*
X33005Y254401D01*
X32817Y254345D01*
X32639Y254301D01*
X32484Y254256D01*
X32339Y254223D01*
X32217Y254201D01*
X32128Y254179D01*
X32073Y254156D01*
X32051D01*
X31918Y254123D01*
X31818Y254090D01*
X31729Y254056D01*
X31662Y254034D01*
X31618Y254001D01*
X31584Y253990D01*
X31562Y253968D01*
X31496Y253879D01*
X31462Y253790D01*
X31451Y253724D01*
Y253701D01*
Y253690D01*
X31462Y253601D01*
X31485Y253524D01*
X31518Y253457D01*
X31551Y253402D01*
X31584Y253357D01*
X31618Y253324D01*
X31640Y253302D01*
X31651Y253291D01*
X31773Y253224D01*
X31906Y253180D01*
X32051Y253135D01*
X32184Y253113D01*
X32306Y253102D01*
X32417Y253091D01*
X32506D01*
X32694Y253102D01*
X32850Y253124D01*
X32994Y253157D01*
X33105Y253202D01*
X33194Y253235D01*
X33261Y253268D01*
X33305Y253291D01*
X33316Y253302D01*
X33416Y253391D01*
X33494Y253501D01*
X33560Y253601D01*
X33616Y253712D01*
X33649Y253812D01*
X33671Y253890D01*
X33693Y253934D01*
Y253957D01*
X35170Y253735D01*
X35070Y253457D01*
X34948Y253202D01*
X34815Y252991D01*
X34670Y252813D01*
X34537Y252669D01*
X34415Y252569D01*
X34382Y252525D01*
X34348Y252502D01*
X34326Y252491D01*
X34315Y252480D01*
X34182Y252403D01*
X34049Y252325D01*
X33749Y252214D01*
X33449Y252136D01*
X33161Y252081D01*
X33027Y252059D01*
X32905Y252048D01*
X32794Y252036D01*
X32694D01*
X32617Y252025D01*
X32506D01*
X32284Y252036D01*
X32073Y252048D01*
X31873Y252081D01*
X31684Y252114D01*
X31518Y252147D01*
X31363Y252203D01*
X31218Y252247D01*
X31096Y252303D01*
X30985Y252347D01*
X30885Y252403D01*
X30807Y252447D01*
X30741Y252480D01*
X30685Y252525D01*
X30652Y252547D01*
X30630Y252558D01*
X30619Y252569D01*
X30508Y252680D01*
X30408Y252791D01*
X30319Y252902D01*
X30241Y253013D01*
X30186Y253124D01*
X30130Y253235D01*
X30053Y253435D01*
X30008Y253624D01*
X29997Y253701D01*
X29986Y253757D01*
X29975Y253812D01*
Y253857D01*
Y253879D01*
Y253890D01*
X29997Y254134D01*
X30053Y254356D01*
X30119Y254545D01*
X30208Y254700D01*
X30297Y254822D01*
X30364Y254911D01*
X30419Y254956D01*
X30441Y254978D01*
X30541Y255044D01*
X30641Y255122D01*
X30763Y255178D01*
X30896Y255244D01*
X31163Y255355D01*
X31440Y255455D01*
X31684Y255533D01*
X31795Y255555D01*
X31895Y255588D01*
X31973Y255611D01*
X32029Y255622D01*
X32073Y255633D01*
X32084D01*
X32295Y255688D01*
X32484Y255733D01*
X32650Y255777D01*
X32794Y255821D01*
X32927Y255855D01*
X33038Y255888D01*
X33127Y255921D01*
X33216Y255944D01*
X33283Y255977D01*
X33338Y255999D01*
X33383Y256010D01*
X33405Y256032D01*
X33449Y256043D01*
X33460Y256054D01*
X33505Y256099D01*
X33538Y256143D01*
X33582Y256232D01*
X33605Y256299D01*
Y256310D01*
Y256321D01*
X33593Y256388D01*
X33582Y256443D01*
X33516Y256543D01*
X33460Y256598D01*
X33449Y256621D01*
X33438D01*
X33327Y256676D01*
X33205Y256721D01*
X33072Y256743D01*
X32927Y256765D01*
X32805Y256776D01*
X32706Y256787D01*
X32606D01*
X32439Y256776D01*
X32295Y256765D01*
X32173Y256732D01*
X32073Y256698D01*
X31995Y256665D01*
X31940Y256643D01*
X31906Y256621D01*
X31895Y256609D01*
X31806Y256543D01*
X31740Y256465D01*
X31673Y256388D01*
X31629Y256299D01*
X31596Y256232D01*
X31573Y256177D01*
X31551Y256132D01*
Y256121D01*
X30164Y256376D01*
X30252Y256632D01*
X30375Y256854D01*
X30497Y257042D01*
X30630Y257187D01*
X30741Y257309D01*
X30841Y257398D01*
X30907Y257442D01*
X30919Y257464D01*
X30930D01*
X31041Y257531D01*
X31163Y257586D01*
X31429Y257686D01*
X31707Y257753D01*
X31984Y257797D01*
X32117Y257808D01*
X32239Y257819D01*
X32350Y257830D01*
X32439Y257841D01*
X32850D01*
X33050Y257819D01*
D02*
G37*
G36*
X26456Y257830D02*
X26734Y257786D01*
X26989Y257731D01*
X27211Y257664D01*
X27300Y257620D01*
X27389Y257586D01*
X27466Y257564D01*
X27522Y257531D01*
X27577Y257509D01*
X27611Y257486D01*
X27633Y257475D01*
X27644D01*
X27877Y257320D01*
X28077Y257153D01*
X28254Y256976D01*
X28399Y256809D01*
X28510Y256654D01*
X28599Y256532D01*
X28632Y256487D01*
X28643Y256454D01*
X28665Y256432D01*
Y256421D01*
X28787Y256166D01*
X28865Y255910D01*
X28932Y255677D01*
X28976Y255466D01*
X28998Y255278D01*
X29009Y255200D01*
Y255133D01*
X29020Y255089D01*
Y255044D01*
Y255022D01*
Y255011D01*
X29009Y254667D01*
X28965Y254345D01*
X28909Y254068D01*
X28876Y253946D01*
X28843Y253834D01*
X28809Y253735D01*
X28776Y253646D01*
X28743Y253568D01*
X28721Y253501D01*
X28698Y253446D01*
X28676Y253413D01*
X28665Y253391D01*
Y253379D01*
X28510Y253146D01*
X28343Y252946D01*
X28166Y252769D01*
X27999Y252625D01*
X27844Y252514D01*
X27722Y252436D01*
X27677Y252403D01*
X27644Y252380D01*
X27622Y252369D01*
X27611D01*
X27344Y252258D01*
X27089Y252169D01*
X26845Y252114D01*
X26612Y252070D01*
X26423Y252048D01*
X26345Y252036D01*
X26279D01*
X26223Y252025D01*
X26146D01*
X25912Y252036D01*
X25702Y252059D01*
X25491Y252103D01*
X25302Y252158D01*
X25113Y252214D01*
X24947Y252281D01*
X24791Y252358D01*
X24647Y252436D01*
X24525Y252514D01*
X24414Y252591D01*
X24314Y252658D01*
X24236Y252713D01*
X24170Y252769D01*
X24125Y252813D01*
X24103Y252836D01*
X24092Y252847D01*
X23948Y253013D01*
X23826Y253180D01*
X23715Y253346D01*
X23615Y253524D01*
X23537Y253701D01*
X23470Y253879D01*
X23415Y254045D01*
X23371Y254212D01*
X23337Y254356D01*
X23315Y254501D01*
X23293Y254623D01*
X23282Y254734D01*
X23271Y254822D01*
Y254889D01*
Y254933D01*
Y254944D01*
X23282Y255178D01*
X23304Y255400D01*
X23348Y255599D01*
X23393Y255799D01*
X23459Y255977D01*
X23526Y256154D01*
X23604Y256310D01*
X23670Y256454D01*
X23748Y256576D01*
X23826Y256698D01*
X23892Y256787D01*
X23959Y256876D01*
X24003Y256931D01*
X24048Y256987D01*
X24070Y257009D01*
X24081Y257020D01*
X24236Y257164D01*
X24403Y257287D01*
X24569Y257398D01*
X24747Y257498D01*
X24925Y257575D01*
X25091Y257642D01*
X25258Y257697D01*
X25424Y257742D01*
X25568Y257775D01*
X25713Y257797D01*
X25835Y257819D01*
X25946Y257830D01*
X26035Y257841D01*
X26157D01*
X26456Y257830D01*
D02*
G37*
G36*
X-1582D02*
X-1304Y257786D01*
X-1049Y257731D01*
X-827Y257664D01*
X-738Y257620D01*
X-649Y257586D01*
X-572Y257564D01*
X-516Y257531D01*
X-461Y257509D01*
X-427Y257486D01*
X-405Y257475D01*
X-394D01*
X-161Y257320D01*
X39Y257153D01*
X216Y256976D01*
X361Y256809D01*
X472Y256654D01*
X560Y256532D01*
X594Y256487D01*
X605Y256454D01*
X627Y256432D01*
Y256421D01*
X749Y256166D01*
X827Y255910D01*
X894Y255677D01*
X938Y255466D01*
X960Y255278D01*
X971Y255200D01*
Y255133D01*
X982Y255089D01*
Y255044D01*
Y255022D01*
Y255011D01*
X971Y254667D01*
X927Y254345D01*
X871Y254068D01*
X838Y253946D01*
X805Y253834D01*
X771Y253735D01*
X738Y253646D01*
X705Y253568D01*
X683Y253501D01*
X660Y253446D01*
X638Y253413D01*
X627Y253391D01*
Y253379D01*
X472Y253146D01*
X305Y252946D01*
X128Y252769D01*
X-39Y252625D01*
X-194Y252514D01*
X-316Y252436D01*
X-361Y252403D01*
X-394Y252380D01*
X-416Y252369D01*
X-427D01*
X-694Y252258D01*
X-949Y252169D01*
X-1193Y252114D01*
X-1426Y252070D01*
X-1615Y252048D01*
X-1693Y252036D01*
X-1759D01*
X-1815Y252025D01*
X-1893D01*
X-2126Y252036D01*
X-2336Y252059D01*
X-2547Y252103D01*
X-2736Y252158D01*
X-2925Y252214D01*
X-3091Y252281D01*
X-3247Y252358D01*
X-3391Y252436D01*
X-3513Y252514D01*
X-3624Y252591D01*
X-3724Y252658D01*
X-3802Y252713D01*
X-3868Y252769D01*
X-3913Y252813D01*
X-3935Y252836D01*
X-3946Y252847D01*
X-4090Y253013D01*
X-4212Y253180D01*
X-4323Y253346D01*
X-4423Y253524D01*
X-4501Y253701D01*
X-4568Y253879D01*
X-4623Y254045D01*
X-4667Y254212D01*
X-4701Y254356D01*
X-4723Y254501D01*
X-4745Y254623D01*
X-4756Y254734D01*
X-4767Y254822D01*
Y254889D01*
Y254933D01*
Y254944D01*
X-4756Y255178D01*
X-4734Y255400D01*
X-4690Y255599D01*
X-4645Y255799D01*
X-4579Y255977D01*
X-4512Y256154D01*
X-4434Y256310D01*
X-4368Y256454D01*
X-4290Y256576D01*
X-4212Y256698D01*
X-4146Y256787D01*
X-4079Y256876D01*
X-4035Y256931D01*
X-3990Y256987D01*
X-3968Y257009D01*
X-3957Y257020D01*
X-3802Y257164D01*
X-3635Y257287D01*
X-3469Y257398D01*
X-3291Y257498D01*
X-3113Y257575D01*
X-2947Y257642D01*
X-2781Y257697D01*
X-2614Y257742D01*
X-2470Y257775D01*
X-2325Y257797D01*
X-2203Y257819D01*
X-2092Y257830D01*
X-2004Y257841D01*
X-1881D01*
X-1582Y257830D01*
D02*
G37*
G36*
X-17066Y257819D02*
X-16877Y257797D01*
X-16700Y257764D01*
X-16544Y257731D01*
X-16400Y257686D01*
X-16267Y257642D01*
X-16145Y257597D01*
X-16045Y257542D01*
X-15956Y257498D01*
X-15878Y257453D01*
X-15823Y257420D01*
X-15767Y257386D01*
X-15734Y257364D01*
X-15723Y257353D01*
X-15712Y257342D01*
X-15612Y257253D01*
X-15523Y257153D01*
X-15445Y257054D01*
X-15390Y256943D01*
X-15279Y256743D01*
X-15212Y256554D01*
X-15179Y256388D01*
X-15168Y256310D01*
X-15157Y256254D01*
X-15146Y256199D01*
Y256166D01*
Y256143D01*
Y256132D01*
X-15157Y255988D01*
X-15179Y255855D01*
X-15201Y255721D01*
X-15246Y255599D01*
X-15357Y255389D01*
X-15479Y255211D01*
X-15590Y255067D01*
X-15701Y254967D01*
X-15745Y254922D01*
X-15767Y254900D01*
X-15790Y254889D01*
X-15801Y254878D01*
X-15900Y254822D01*
X-16034Y254756D01*
X-16189Y254689D01*
X-16356Y254634D01*
X-16533Y254567D01*
X-16722Y254512D01*
X-17110Y254401D01*
X-17299Y254345D01*
X-17477Y254301D01*
X-17632Y254256D01*
X-17776Y254223D01*
X-17898Y254201D01*
X-17987Y254179D01*
X-18043Y254156D01*
X-18065D01*
X-18198Y254123D01*
X-18298Y254090D01*
X-18387Y254056D01*
X-18453Y254034D01*
X-18498Y254001D01*
X-18531Y253990D01*
X-18553Y253968D01*
X-18620Y253879D01*
X-18653Y253790D01*
X-18664Y253724D01*
Y253701D01*
Y253690D01*
X-18653Y253601D01*
X-18631Y253524D01*
X-18598Y253457D01*
X-18564Y253402D01*
X-18531Y253357D01*
X-18498Y253324D01*
X-18476Y253302D01*
X-18464Y253291D01*
X-18342Y253224D01*
X-18209Y253180D01*
X-18065Y253135D01*
X-17932Y253113D01*
X-17810Y253102D01*
X-17699Y253091D01*
X-17610D01*
X-17421Y253102D01*
X-17266Y253124D01*
X-17121Y253157D01*
X-17011Y253202D01*
X-16922Y253235D01*
X-16855Y253268D01*
X-16811Y253291D01*
X-16800Y253302D01*
X-16700Y253391D01*
X-16622Y253501D01*
X-16555Y253601D01*
X-16500Y253712D01*
X-16467Y253812D01*
X-16444Y253890D01*
X-16422Y253934D01*
Y253957D01*
X-14946Y253735D01*
X-15046Y253457D01*
X-15168Y253202D01*
X-15301Y252991D01*
X-15445Y252813D01*
X-15579Y252669D01*
X-15701Y252569D01*
X-15734Y252525D01*
X-15767Y252502D01*
X-15790Y252491D01*
X-15801Y252480D01*
X-15934Y252403D01*
X-16067Y252325D01*
X-16367Y252214D01*
X-16666Y252136D01*
X-16955Y252081D01*
X-17088Y252059D01*
X-17210Y252048D01*
X-17321Y252036D01*
X-17421D01*
X-17499Y252025D01*
X-17610D01*
X-17832Y252036D01*
X-18043Y252047D01*
X-18242Y252081D01*
X-18431Y252114D01*
X-18598Y252147D01*
X-18753Y252203D01*
X-18897Y252247D01*
X-19020Y252303D01*
X-19131Y252347D01*
X-19230Y252403D01*
X-19308Y252447D01*
X-19375Y252480D01*
X-19430Y252525D01*
X-19463Y252547D01*
X-19486Y252558D01*
X-19497Y252569D01*
X-19608Y252680D01*
X-19708Y252791D01*
X-19797Y252902D01*
X-19874Y253013D01*
X-19930Y253124D01*
X-19985Y253235D01*
X-20063Y253435D01*
X-20107Y253624D01*
X-20118Y253701D01*
X-20129Y253757D01*
X-20141Y253812D01*
Y253857D01*
Y253879D01*
Y253890D01*
X-20118Y254134D01*
X-20063Y254356D01*
X-19996Y254545D01*
X-19907Y254700D01*
X-19819Y254822D01*
X-19752Y254911D01*
X-19697Y254956D01*
X-19674Y254978D01*
X-19575Y255044D01*
X-19475Y255122D01*
X-19353Y255178D01*
X-19219Y255244D01*
X-18953Y255355D01*
X-18675Y255455D01*
X-18431Y255533D01*
X-18320Y255555D01*
X-18220Y255588D01*
X-18143Y255611D01*
X-18087Y255622D01*
X-18043Y255633D01*
X-18032D01*
X-17821Y255688D01*
X-17632Y255733D01*
X-17465Y255777D01*
X-17321Y255821D01*
X-17188Y255855D01*
X-17077Y255888D01*
X-16988Y255921D01*
X-16899Y255944D01*
X-16833Y255977D01*
X-16777Y255999D01*
X-16733Y256010D01*
X-16711Y256032D01*
X-16666Y256043D01*
X-16655Y256054D01*
X-16611Y256099D01*
X-16578Y256143D01*
X-16533Y256232D01*
X-16511Y256299D01*
Y256310D01*
Y256321D01*
X-16522Y256388D01*
X-16533Y256443D01*
X-16600Y256543D01*
X-16655Y256598D01*
X-16666Y256621D01*
X-16678D01*
X-16789Y256676D01*
X-16911Y256721D01*
X-17044Y256743D01*
X-17188Y256765D01*
X-17310Y256776D01*
X-17410Y256787D01*
X-17510D01*
X-17676Y256776D01*
X-17821Y256765D01*
X-17943Y256731D01*
X-18043Y256698D01*
X-18120Y256665D01*
X-18176Y256643D01*
X-18209Y256621D01*
X-18220Y256609D01*
X-18309Y256543D01*
X-18376Y256465D01*
X-18442Y256387D01*
X-18487Y256299D01*
X-18520Y256232D01*
X-18542Y256177D01*
X-18564Y256132D01*
Y256121D01*
X-19952Y256376D01*
X-19863Y256632D01*
X-19741Y256854D01*
X-19619Y257042D01*
X-19486Y257187D01*
X-19375Y257309D01*
X-19275Y257397D01*
X-19208Y257442D01*
X-19197Y257464D01*
X-19186D01*
X-19075Y257531D01*
X-18953Y257586D01*
X-18686Y257686D01*
X-18409Y257753D01*
X-18132Y257797D01*
X-17998Y257808D01*
X-17876Y257819D01*
X-17765Y257830D01*
X-17676Y257841D01*
X-17266D01*
X-17066Y257819D01*
D02*
G37*
G36*
X-29009Y257819D02*
X-28821Y257797D01*
X-28643Y257764D01*
X-28488Y257731D01*
X-28343Y257686D01*
X-28210Y257642D01*
X-28088Y257597D01*
X-27988Y257542D01*
X-27899Y257497D01*
X-27822Y257453D01*
X-27766Y257420D01*
X-27711Y257386D01*
X-27677Y257364D01*
X-27666Y257353D01*
X-27655Y257342D01*
X-27555Y257253D01*
X-27466Y257153D01*
X-27389Y257053D01*
X-27333Y256942D01*
X-27222Y256743D01*
X-27156Y256554D01*
X-27122Y256387D01*
X-27111Y256310D01*
X-27100Y256254D01*
X-27089Y256199D01*
Y256166D01*
Y256143D01*
Y256132D01*
X-27100Y255988D01*
X-27122Y255855D01*
X-27145Y255721D01*
X-27189Y255599D01*
X-27300Y255389D01*
X-27422Y255211D01*
X-27533Y255067D01*
X-27644Y254967D01*
X-27689Y254922D01*
X-27711Y254900D01*
X-27733Y254889D01*
X-27744Y254878D01*
X-27844Y254822D01*
X-27977Y254756D01*
X-28133Y254689D01*
X-28299Y254634D01*
X-28477Y254567D01*
X-28665Y254512D01*
X-29054Y254401D01*
X-29242Y254345D01*
X-29420Y254301D01*
X-29575Y254256D01*
X-29720Y254223D01*
X-29842Y254201D01*
X-29931Y254179D01*
X-29986Y254156D01*
X-30008D01*
X-30141Y254123D01*
X-30241Y254090D01*
X-30330Y254056D01*
X-30397Y254034D01*
X-30441Y254001D01*
X-30475Y253990D01*
X-30497Y253968D01*
X-30563Y253879D01*
X-30597Y253790D01*
X-30608Y253724D01*
Y253701D01*
Y253690D01*
X-30597Y253601D01*
X-30574Y253524D01*
X-30541Y253457D01*
X-30508Y253402D01*
X-30475Y253357D01*
X-30441Y253324D01*
X-30419Y253302D01*
X-30408Y253291D01*
X-30286Y253224D01*
X-30153Y253180D01*
X-30008Y253135D01*
X-29875Y253113D01*
X-29753Y253102D01*
X-29642Y253091D01*
X-29553D01*
X-29365Y253102D01*
X-29209Y253124D01*
X-29065Y253157D01*
X-28954Y253202D01*
X-28865Y253235D01*
X-28798Y253268D01*
X-28754Y253291D01*
X-28743Y253302D01*
X-28643Y253391D01*
X-28565Y253501D01*
X-28499Y253601D01*
X-28443Y253712D01*
X-28410Y253812D01*
X-28388Y253890D01*
X-28366Y253934D01*
Y253957D01*
X-26889Y253735D01*
X-26989Y253457D01*
X-27111Y253202D01*
X-27245Y252991D01*
X-27389Y252813D01*
X-27522Y252669D01*
X-27644Y252569D01*
X-27677Y252525D01*
X-27711Y252502D01*
X-27733Y252491D01*
X-27744Y252480D01*
X-27877Y252403D01*
X-28010Y252325D01*
X-28310Y252214D01*
X-28610Y252136D01*
X-28898Y252081D01*
X-29032Y252059D01*
X-29154Y252047D01*
X-29265Y252036D01*
X-29365D01*
X-29442Y252025D01*
X-29553D01*
X-29775Y252036D01*
X-29986Y252047D01*
X-30186Y252081D01*
X-30375Y252114D01*
X-30541Y252147D01*
X-30696Y252203D01*
X-30841Y252247D01*
X-30963Y252303D01*
X-31074Y252347D01*
X-31174Y252403D01*
X-31251Y252447D01*
X-31318Y252480D01*
X-31374Y252525D01*
X-31407Y252547D01*
X-31429Y252558D01*
X-31440Y252569D01*
X-31551Y252680D01*
X-31651Y252791D01*
X-31740Y252902D01*
X-31818Y253013D01*
X-31873Y253124D01*
X-31929Y253235D01*
X-32006Y253435D01*
X-32051Y253624D01*
X-32062Y253701D01*
X-32073Y253757D01*
X-32084Y253812D01*
Y253857D01*
Y253879D01*
Y253890D01*
X-32062Y254134D01*
X-32006Y254356D01*
X-31940Y254545D01*
X-31851Y254700D01*
X-31762Y254822D01*
X-31695Y254911D01*
X-31640Y254956D01*
X-31618Y254978D01*
X-31518Y255044D01*
X-31418Y255122D01*
X-31296Y255178D01*
X-31163Y255244D01*
X-30896Y255355D01*
X-30619Y255455D01*
X-30375Y255533D01*
X-30264Y255555D01*
X-30164Y255588D01*
X-30086Y255611D01*
X-30031Y255622D01*
X-29986Y255633D01*
X-29975D01*
X-29764Y255688D01*
X-29575Y255733D01*
X-29409Y255777D01*
X-29265Y255821D01*
X-29131Y255855D01*
X-29020Y255888D01*
X-28932Y255921D01*
X-28843Y255944D01*
X-28776Y255977D01*
X-28721Y255999D01*
X-28676Y256010D01*
X-28654Y256032D01*
X-28610Y256043D01*
X-28599Y256054D01*
X-28554Y256099D01*
X-28521Y256143D01*
X-28477Y256232D01*
X-28454Y256299D01*
Y256310D01*
Y256321D01*
X-28465Y256387D01*
X-28477Y256443D01*
X-28543Y256543D01*
X-28599Y256598D01*
X-28610Y256621D01*
X-28621D01*
X-28732Y256676D01*
X-28854Y256720D01*
X-28987Y256743D01*
X-29131Y256765D01*
X-29253Y256776D01*
X-29353Y256787D01*
X-29453D01*
X-29620Y256776D01*
X-29764Y256765D01*
X-29886Y256731D01*
X-29986Y256698D01*
X-30064Y256665D01*
X-30119Y256643D01*
X-30153Y256621D01*
X-30164Y256609D01*
X-30252Y256543D01*
X-30319Y256465D01*
X-30386Y256387D01*
X-30430Y256299D01*
X-30463Y256232D01*
X-30486Y256177D01*
X-30508Y256132D01*
Y256121D01*
X-31895Y256376D01*
X-31806Y256632D01*
X-31684Y256854D01*
X-31562Y257042D01*
X-31429Y257187D01*
X-31318Y257309D01*
X-31218Y257397D01*
X-31152Y257442D01*
X-31140Y257464D01*
X-31129D01*
X-31018Y257531D01*
X-30896Y257586D01*
X-30630Y257686D01*
X-30352Y257753D01*
X-30075Y257797D01*
X-29942Y257808D01*
X-29820Y257819D01*
X-29709Y257830D01*
X-29620Y257841D01*
X-29209D01*
X-29009Y257819D01*
D02*
G37*
G36*
X51975Y259962D02*
X52263Y259928D01*
X52519Y259884D01*
X52741Y259839D01*
X52841Y259806D01*
X52929Y259784D01*
X52996Y259762D01*
X53063Y259740D01*
X53107Y259717D01*
X53140Y259706D01*
X53162Y259695D01*
X53174D01*
X53396Y259584D01*
X53584Y259462D01*
X53751Y259329D01*
X53884Y259207D01*
X53995Y259096D01*
X54062Y259007D01*
X54117Y258940D01*
X54128Y258929D01*
Y258918D01*
X54239Y258729D01*
X54317Y258530D01*
X54372Y258341D01*
X54406Y258174D01*
X54428Y258030D01*
X54450Y257919D01*
Y257875D01*
Y257841D01*
Y257830D01*
Y257819D01*
X54439Y257653D01*
X54417Y257486D01*
X54384Y257342D01*
X54339Y257198D01*
X54228Y256931D01*
X54095Y256698D01*
X54039Y256598D01*
X53973Y256521D01*
X53917Y256443D01*
X53862Y256376D01*
X53817Y256332D01*
X53784Y256299D01*
X53762Y256276D01*
X53751Y256265D01*
X53651Y256188D01*
X53529Y256110D01*
X53407Y256032D01*
X53262Y255966D01*
X52985Y255833D01*
X52696Y255721D01*
X52552Y255677D01*
X52430Y255633D01*
X52308Y255599D01*
X52208Y255566D01*
X52130Y255544D01*
X52064Y255522D01*
X52019Y255511D01*
X52008D01*
X51831Y255466D01*
X51675Y255422D01*
X51531Y255389D01*
X51398Y255355D01*
X51287Y255322D01*
X51187Y255300D01*
X51098Y255266D01*
X51020Y255244D01*
X50954Y255233D01*
X50898Y255211D01*
X50820Y255189D01*
X50776Y255166D01*
X50765D01*
X50621Y255111D01*
X50510Y255056D01*
X50410Y255000D01*
X50332Y254944D01*
X50276Y254900D01*
X50243Y254867D01*
X50221Y254845D01*
X50210Y254834D01*
X50154Y254756D01*
X50110Y254678D01*
X50088Y254600D01*
X50066Y254534D01*
X50054Y254467D01*
X50043Y254412D01*
Y254378D01*
Y254367D01*
X50054Y254212D01*
X50099Y254079D01*
X50166Y253946D01*
X50232Y253834D01*
X50310Y253746D01*
X50365Y253679D01*
X50410Y253635D01*
X50432Y253624D01*
X50587Y253524D01*
X50765Y253446D01*
X50954Y253391D01*
X51131Y253357D01*
X51298Y253335D01*
X51431Y253313D01*
X51553D01*
X51808Y253324D01*
X52030Y253368D01*
X52219Y253424D01*
X52386Y253490D01*
X52519Y253557D01*
X52607Y253612D01*
X52663Y253657D01*
X52685Y253668D01*
X52829Y253823D01*
X52941Y253990D01*
X53040Y254179D01*
X53107Y254367D01*
X53162Y254534D01*
X53207Y254667D01*
X53218Y254711D01*
Y254756D01*
X53229Y254778D01*
Y254789D01*
X54739Y254645D01*
X54705Y254412D01*
X54661Y254190D01*
X54594Y253979D01*
X54539Y253790D01*
X54461Y253612D01*
X54384Y253446D01*
X54306Y253302D01*
X54228Y253169D01*
X54150Y253057D01*
X54073Y252958D01*
X54006Y252869D01*
X53939Y252791D01*
X53895Y252736D01*
X53851Y252702D01*
X53829Y252680D01*
X53817Y252669D01*
X53662Y252547D01*
X53495Y252447D01*
X53318Y252358D01*
X53129Y252281D01*
X52952Y252225D01*
X52763Y252169D01*
X52397Y252092D01*
X52230Y252059D01*
X52075Y252036D01*
X51941Y252025D01*
X51819Y252014D01*
X51719Y252003D01*
X51575D01*
X51220Y252014D01*
X50898Y252048D01*
X50609Y252092D01*
X50487Y252114D01*
X50365Y252147D01*
X50265Y252169D01*
X50177Y252192D01*
X50099Y252214D01*
X50032Y252236D01*
X49977Y252258D01*
X49943Y252269D01*
X49921Y252281D01*
X49910D01*
X49666Y252403D01*
X49466Y252536D01*
X49278Y252669D01*
X49133Y252813D01*
X49022Y252935D01*
X48934Y253046D01*
X48889Y253113D01*
X48867Y253124D01*
Y253135D01*
X48745Y253357D01*
X48645Y253568D01*
X48578Y253779D01*
X48534Y253979D01*
X48512Y254134D01*
X48501Y254212D01*
X48489Y254267D01*
Y254312D01*
Y254345D01*
Y254367D01*
Y254378D01*
X48501Y254645D01*
X48534Y254878D01*
X48589Y255089D01*
X48645Y255266D01*
X48700Y255411D01*
X48756Y255511D01*
X48789Y255577D01*
X48800Y255599D01*
X48922Y255777D01*
X49067Y255932D01*
X49211Y256066D01*
X49344Y256177D01*
X49466Y256265D01*
X49566Y256332D01*
X49633Y256376D01*
X49644Y256388D01*
X49655D01*
X49766Y256443D01*
X49877Y256499D01*
X50143Y256598D01*
X50421Y256687D01*
X50687Y256776D01*
X50809Y256809D01*
X50931Y256843D01*
X51042Y256876D01*
X51131Y256898D01*
X51209Y256920D01*
X51264Y256931D01*
X51309Y256943D01*
X51320D01*
X51520Y256998D01*
X51697Y257042D01*
X51864Y257087D01*
X52019Y257131D01*
X52141Y257176D01*
X52263Y257220D01*
X52363Y257264D01*
X52452Y257298D01*
X52530Y257331D01*
X52585Y257364D01*
X52641Y257386D01*
X52674Y257409D01*
X52730Y257442D01*
X52741Y257453D01*
X52818Y257531D01*
X52874Y257609D01*
X52907Y257686D01*
X52929Y257764D01*
X52952Y257819D01*
X52963Y257875D01*
Y257908D01*
Y257919D01*
X52952Y258030D01*
X52929Y258119D01*
X52885Y258208D01*
X52841Y258274D01*
X52796Y258330D01*
X52752Y258363D01*
X52730Y258385D01*
X52719Y258396D01*
X52563Y258496D01*
X52397Y258563D01*
X52219Y258619D01*
X52052Y258652D01*
X51908Y258674D01*
X51786Y258685D01*
X51675D01*
X51442Y258674D01*
X51242Y258641D01*
X51076Y258596D01*
X50943Y258552D01*
X50831Y258507D01*
X50754Y258463D01*
X50709Y258430D01*
X50698Y258419D01*
X50587Y258308D01*
X50487Y258174D01*
X50410Y258041D01*
X50354Y257897D01*
X50310Y257775D01*
X50288Y257675D01*
X50265Y257597D01*
Y257586D01*
Y257575D01*
X48712Y257631D01*
X48723Y257830D01*
X48756Y258008D01*
X48800Y258186D01*
X48856Y258341D01*
X48911Y258496D01*
X48978Y258641D01*
X49044Y258763D01*
X49111Y258885D01*
X49189Y258985D01*
X49255Y259074D01*
X49322Y259151D01*
X49377Y259218D01*
X49422Y259262D01*
X49455Y259296D01*
X49477Y259318D01*
X49488Y259329D01*
X49633Y259440D01*
X49788Y259540D01*
X49955Y259629D01*
X50132Y259706D01*
X50310Y259762D01*
X50487Y259817D01*
X50843Y259895D01*
X51009Y259917D01*
X51153Y259939D01*
X51298Y259951D01*
X51420Y259962D01*
X51520Y259973D01*
X51653D01*
X51975Y259962D01*
D02*
G37*
G36*
X-46081Y259862D02*
X-45892Y259839D01*
X-45703Y259795D01*
X-45537Y259751D01*
X-45381Y259684D01*
X-45237Y259618D01*
X-45115Y259551D01*
X-44993Y259473D01*
X-44893Y259396D01*
X-44793Y259329D01*
X-44716Y259262D01*
X-44660Y259196D01*
X-44605Y259151D01*
X-44571Y259107D01*
X-44549Y259085D01*
X-44538Y259074D01*
X-44405Y258885D01*
X-44294Y258663D01*
X-44194Y258430D01*
X-44105Y258186D01*
X-44039Y257930D01*
X-43972Y257664D01*
X-43927Y257409D01*
X-43883Y257153D01*
X-43861Y256909D01*
X-43839Y256687D01*
X-43816Y256476D01*
X-43805Y256299D01*
X-43794Y256154D01*
Y256043D01*
Y255999D01*
Y255966D01*
Y255955D01*
Y255944D01*
X-43805Y255544D01*
X-43828Y255178D01*
X-43861Y254834D01*
X-43905Y254523D01*
X-43950Y254245D01*
X-44005Y253990D01*
X-44072Y253768D01*
X-44138Y253568D01*
X-44194Y253402D01*
X-44261Y253246D01*
X-44316Y253124D01*
X-44372Y253024D01*
X-44405Y252958D01*
X-44438Y252902D01*
X-44460Y252869D01*
X-44471Y252858D01*
X-44605Y252702D01*
X-44749Y252580D01*
X-44893Y252458D01*
X-45049Y252369D01*
X-45193Y252281D01*
X-45348Y252214D01*
X-45493Y252158D01*
X-45637Y252114D01*
X-45770Y252070D01*
X-45892Y252047D01*
X-46003Y252025D01*
X-46092Y252014D01*
X-46170D01*
X-46236Y252003D01*
X-46281D01*
X-46480Y252014D01*
X-46669Y252036D01*
X-46858Y252081D01*
X-47024Y252125D01*
X-47180Y252181D01*
X-47324Y252247D01*
X-47446Y252325D01*
X-47568Y252403D01*
X-47668Y252469D01*
X-47768Y252547D01*
X-47846Y252614D01*
X-47912Y252669D01*
X-47957Y252713D01*
X-47990Y252758D01*
X-48012Y252780D01*
X-48023Y252791D01*
X-48156Y252980D01*
X-48267Y253202D01*
X-48379Y253435D01*
X-48456Y253690D01*
X-48534Y253946D01*
X-48589Y254201D01*
X-48645Y254467D01*
X-48689Y254722D01*
X-48712Y254967D01*
X-48734Y255189D01*
X-48756Y255400D01*
X-48767Y255577D01*
X-48778Y255721D01*
Y255833D01*
Y255877D01*
Y255910D01*
Y255921D01*
Y255932D01*
X-48767Y256332D01*
X-48745Y256698D01*
X-48712Y257031D01*
X-48656Y257342D01*
X-48601Y257631D01*
X-48545Y257886D01*
X-48467Y258119D01*
X-48401Y258319D01*
X-48334Y258507D01*
X-48267Y258652D01*
X-48201Y258785D01*
X-48145Y258896D01*
X-48090Y258974D01*
X-48057Y259029D01*
X-48034Y259062D01*
X-48023Y259074D01*
X-47901Y259218D01*
X-47768Y259340D01*
X-47624Y259440D01*
X-47479Y259540D01*
X-47335Y259618D01*
X-47191Y259673D01*
X-47058Y259729D01*
X-46913Y259773D01*
X-46780Y259806D01*
X-46669Y259828D01*
X-46558Y259851D01*
X-46469Y259862D01*
X-46392Y259873D01*
X-46281D01*
X-46081Y259862D01*
D02*
G37*
G36*
X18820Y250027D02*
X12693D01*
Y250982D01*
X18820D01*
Y250027D01*
D02*
G37*
%LPC*%
G36*
X-20117Y269213D02*
X-20176D01*
Y269153D01*
X-20236D01*
Y269034D01*
Y268975D01*
Y268438D01*
X-20296D01*
Y267783D01*
X-20355D01*
Y267068D01*
X-20415D01*
Y266413D01*
X-20474D01*
Y265698D01*
X-20534D01*
Y265043D01*
X-20594D01*
Y264983D01*
X-20534D01*
Y264924D01*
X-19819D01*
Y265579D01*
X-19879D01*
Y266353D01*
X-19938D01*
Y267187D01*
X-19998D01*
Y268021D01*
X-20057D01*
Y268796D01*
X-20117D01*
Y269213D01*
D02*
G37*
G36*
X317D02*
X138D01*
Y269153D01*
X19D01*
Y269094D01*
X-41D01*
Y269034D01*
X-100D01*
Y268796D01*
X-160D01*
Y264209D01*
X-100D01*
Y263911D01*
X-41D01*
Y263851D01*
X19D01*
Y263792D01*
X78D01*
Y263732D01*
X436D01*
Y263792D01*
X496D01*
Y263851D01*
X555D01*
Y263970D01*
X615D01*
Y264209D01*
X674D01*
Y266532D01*
Y266592D01*
Y268736D01*
X615D01*
Y268975D01*
X555D01*
Y269034D01*
X496D01*
Y269094D01*
X436D01*
Y269153D01*
X317D01*
Y269213D01*
D02*
G37*
G36*
X-8321D02*
X-8560D01*
Y269153D01*
X-8679D01*
Y269094D01*
X-8738D01*
Y268915D01*
X-8798D01*
Y266532D01*
Y266472D01*
Y264030D01*
X-8738D01*
Y263851D01*
X-8679D01*
Y263792D01*
X-8619D01*
Y263732D01*
X-8202D01*
Y263792D01*
X-8143D01*
Y263911D01*
X-8083D01*
Y264030D01*
X-8023D01*
Y268855D01*
X-8083D01*
Y269034D01*
X-8143D01*
Y269094D01*
X-8202D01*
Y269153D01*
X-8321D01*
Y269213D01*
D02*
G37*
G36*
X45060Y256709D02*
X44982D01*
X44815Y256698D01*
X44671Y256654D01*
X44538Y256598D01*
X44427Y256543D01*
X44338Y256476D01*
X44271Y256421D01*
X44227Y256376D01*
X44216Y256365D01*
X44116Y256232D01*
X44027Y256077D01*
X43972Y255910D01*
X43927Y255755D01*
X43905Y255622D01*
X43894Y255499D01*
X43883Y255455D01*
Y255433D01*
Y255411D01*
Y255400D01*
X46081D01*
X46070Y255611D01*
X46036Y255799D01*
X45992Y255966D01*
X45925Y256099D01*
X45870Y256210D01*
X45814Y256288D01*
X45781Y256343D01*
X45770Y256354D01*
X45648Y256476D01*
X45515Y256565D01*
X45381Y256621D01*
X45259Y256665D01*
X45148Y256687D01*
X45060Y256709D01*
D02*
G37*
G36*
X-11616D02*
X-11694D01*
X-11860Y256698D01*
X-12004Y256654D01*
X-12138Y256598D01*
X-12249Y256543D01*
X-12337Y256476D01*
X-12404Y256421D01*
X-12448Y256376D01*
X-12459Y256365D01*
X-12559Y256232D01*
X-12648Y256077D01*
X-12704Y255910D01*
X-12748Y255755D01*
X-12770Y255622D01*
X-12781Y255499D01*
X-12793Y255455D01*
Y255433D01*
Y255411D01*
Y255400D01*
X-10595D01*
X-10606Y255611D01*
X-10639Y255799D01*
X-10684Y255966D01*
X-10750Y256099D01*
X-10806Y256210D01*
X-10861Y256288D01*
X-10895Y256343D01*
X-10906Y256354D01*
X-11028Y256476D01*
X-11161Y256565D01*
X-11294Y256621D01*
X-11416Y256665D01*
X-11527Y256687D01*
X-11616Y256709D01*
D02*
G37*
G36*
X-23559Y256709D02*
X-23637D01*
X-23804Y256698D01*
X-23948Y256654D01*
X-24081Y256598D01*
X-24192Y256543D01*
X-24281Y256476D01*
X-24347Y256421D01*
X-24392Y256376D01*
X-24403Y256365D01*
X-24503Y256232D01*
X-24592Y256077D01*
X-24647Y255910D01*
X-24692Y255755D01*
X-24714Y255622D01*
X-24725Y255499D01*
X-24736Y255455D01*
Y255433D01*
Y255411D01*
Y255400D01*
X-22538D01*
X-22549Y255611D01*
X-22583Y255799D01*
X-22627Y255966D01*
X-22694Y256099D01*
X-22749Y256210D01*
X-22805Y256287D01*
X-22838Y256343D01*
X-22849Y256354D01*
X-22971Y256476D01*
X-23104Y256565D01*
X-23237Y256621D01*
X-23359Y256665D01*
X-23470Y256687D01*
X-23559Y256709D01*
D02*
G37*
G36*
X10406Y258530D02*
X9252D01*
X9141Y258519D01*
X9041D01*
X8941Y258507D01*
X8797D01*
X8686Y258496D01*
X8608Y258485D01*
X8564Y258474D01*
X8552D01*
X8419Y258441D01*
X8297Y258396D01*
X8186Y258341D01*
X8097Y258274D01*
X8031Y258219D01*
X7975Y258174D01*
X7942Y258141D01*
X7931Y258130D01*
X7842Y258019D01*
X7786Y257908D01*
X7742Y257786D01*
X7709Y257675D01*
X7687Y257575D01*
X7675Y257498D01*
Y257453D01*
Y257431D01*
X7687Y257309D01*
X7698Y257198D01*
X7731Y257098D01*
X7764Y257009D01*
X7798Y256931D01*
X7820Y256876D01*
X7842Y256843D01*
X7853Y256831D01*
X7920Y256743D01*
X8008Y256665D01*
X8086Y256598D01*
X8164Y256543D01*
X8231Y256510D01*
X8286Y256476D01*
X8330Y256465D01*
X8342Y256454D01*
X8408Y256432D01*
X8486Y256421D01*
X8663Y256388D01*
X8863Y256365D01*
X9063Y256354D01*
X9263D01*
X9341Y256343D01*
X10406D01*
Y258530D01*
D02*
G37*
G36*
X-37934Y258530D02*
X-39709D01*
X-39809Y258519D01*
X-40054D01*
X-40153Y258507D01*
X-40220D01*
X-40253Y258496D01*
X-40265D01*
X-40398Y258463D01*
X-40520Y258419D01*
X-40620Y258374D01*
X-40697Y258319D01*
X-40764Y258263D01*
X-40820Y258230D01*
X-40842Y258197D01*
X-40853Y258186D01*
X-40919Y258097D01*
X-40975Y257986D01*
X-41008Y257886D01*
X-41041Y257786D01*
X-41053Y257697D01*
X-41064Y257631D01*
Y257586D01*
Y257564D01*
X-41053Y257442D01*
X-41041Y257331D01*
X-41008Y257231D01*
X-40986Y257142D01*
X-40953Y257076D01*
X-40919Y257031D01*
X-40908Y256998D01*
X-40897Y256987D01*
X-40831Y256909D01*
X-40764Y256842D01*
X-40620Y256743D01*
X-40564Y256709D01*
X-40509Y256687D01*
X-40475Y256665D01*
X-40464D01*
X-40409Y256654D01*
X-40320Y256632D01*
X-40231Y256621D01*
X-40131Y256609D01*
X-39898Y256598D01*
X-39665Y256587D01*
X-39443Y256576D01*
X-37934D01*
Y258530D01*
D02*
G37*
G36*
X26201Y256643D02*
X26146D01*
X25935Y256621D01*
X25746Y256576D01*
X25591Y256499D01*
X25446Y256421D01*
X25335Y256343D01*
X25247Y256265D01*
X25202Y256221D01*
X25180Y256199D01*
X25047Y256021D01*
X24947Y255810D01*
X24880Y255599D01*
X24825Y255400D01*
X24802Y255222D01*
X24791Y255133D01*
Y255067D01*
X24780Y255011D01*
Y254967D01*
Y254944D01*
Y254933D01*
X24802Y254645D01*
X24847Y254378D01*
X24902Y254167D01*
X24980Y253979D01*
X25058Y253846D01*
X25113Y253735D01*
X25158Y253679D01*
X25180Y253657D01*
X25335Y253513D01*
X25491Y253402D01*
X25657Y253335D01*
X25813Y253279D01*
X25946Y253246D01*
X26046Y253235D01*
X26090Y253224D01*
X26146D01*
X26356Y253246D01*
X26545Y253291D01*
X26712Y253357D01*
X26845Y253446D01*
X26967Y253524D01*
X27056Y253590D01*
X27100Y253635D01*
X27122Y253657D01*
X27255Y253834D01*
X27344Y254045D01*
X27411Y254256D01*
X27466Y254467D01*
X27489Y254645D01*
X27500Y254722D01*
Y254800D01*
X27511Y254856D01*
Y254900D01*
Y254922D01*
Y254933D01*
X27489Y255222D01*
X27444Y255477D01*
X27389Y255699D01*
X27311Y255877D01*
X27244Y256010D01*
X27178Y256121D01*
X27133Y256177D01*
X27122Y256199D01*
X26967Y256343D01*
X26800Y256454D01*
X26634Y256532D01*
X26479Y256587D01*
X26345Y256621D01*
X26246Y256632D01*
X26201Y256643D01*
D02*
G37*
G36*
X-1837D02*
X-1893D01*
X-2103Y256621D01*
X-2292Y256576D01*
X-2447Y256499D01*
X-2592Y256421D01*
X-2703Y256343D01*
X-2792Y256265D01*
X-2836Y256221D01*
X-2858Y256199D01*
X-2991Y256021D01*
X-3091Y255810D01*
X-3158Y255599D01*
X-3213Y255400D01*
X-3236Y255222D01*
X-3247Y255133D01*
Y255067D01*
X-3258Y255011D01*
Y254967D01*
Y254944D01*
Y254933D01*
X-3236Y254645D01*
X-3191Y254378D01*
X-3136Y254167D01*
X-3058Y253979D01*
X-2980Y253846D01*
X-2925Y253735D01*
X-2880Y253679D01*
X-2858Y253657D01*
X-2703Y253513D01*
X-2547Y253402D01*
X-2381Y253335D01*
X-2226Y253279D01*
X-2092Y253246D01*
X-1992Y253235D01*
X-1948Y253224D01*
X-1893D01*
X-1682Y253246D01*
X-1493Y253291D01*
X-1326Y253357D01*
X-1193Y253446D01*
X-1071Y253524D01*
X-982Y253590D01*
X-938Y253635D01*
X-916Y253657D01*
X-782Y253834D01*
X-694Y254045D01*
X-627Y254256D01*
X-572Y254467D01*
X-549Y254645D01*
X-538Y254722D01*
Y254800D01*
X-527Y254856D01*
Y254900D01*
Y254922D01*
Y254933D01*
X-549Y255222D01*
X-594Y255477D01*
X-649Y255699D01*
X-727Y255877D01*
X-794Y256010D01*
X-860Y256121D01*
X-905Y256177D01*
X-916Y256199D01*
X-1071Y256343D01*
X-1238Y256454D01*
X-1404Y256532D01*
X-1559Y256587D01*
X-1693Y256621D01*
X-1793Y256632D01*
X-1837Y256643D01*
D02*
G37*
G36*
X-46236Y258652D02*
X-46281D01*
X-46381Y258641D01*
X-46469Y258630D01*
X-46547Y258596D01*
X-46614Y258563D01*
X-46669Y258530D01*
X-46714Y258507D01*
X-46736Y258485D01*
X-46747Y258474D01*
X-46813Y258396D01*
X-46880Y258297D01*
X-46936Y258186D01*
X-46991Y258075D01*
X-47024Y257964D01*
X-47058Y257875D01*
X-47069Y257819D01*
X-47080Y257808D01*
Y257797D01*
X-47102Y257697D01*
X-47124Y257575D01*
X-47146Y257431D01*
X-47169Y257286D01*
X-47191Y256987D01*
X-47202Y256676D01*
X-47213Y256532D01*
Y256387D01*
X-47224Y256265D01*
Y256154D01*
Y256066D01*
Y255988D01*
Y255944D01*
Y255932D01*
Y255688D01*
X-47213Y255455D01*
Y255244D01*
X-47202Y255056D01*
X-47191Y254878D01*
X-47180Y254722D01*
X-47158Y254578D01*
X-47146Y254456D01*
X-47135Y254345D01*
X-47113Y254256D01*
X-47102Y254179D01*
X-47091Y254112D01*
X-47080Y254068D01*
Y254023D01*
X-47069Y254012D01*
Y254001D01*
X-47024Y253846D01*
X-46969Y253724D01*
X-46913Y253612D01*
X-46869Y253535D01*
X-46824Y253468D01*
X-46780Y253424D01*
X-46758Y253402D01*
X-46747Y253391D01*
X-46669Y253335D01*
X-46591Y253291D01*
X-46514Y253268D01*
X-46436Y253246D01*
X-46381Y253235D01*
X-46325Y253224D01*
X-46281D01*
X-46181Y253235D01*
X-46092Y253246D01*
X-46014Y253279D01*
X-45948Y253313D01*
X-45892Y253335D01*
X-45848Y253368D01*
X-45826Y253379D01*
X-45814Y253391D01*
X-45748Y253468D01*
X-45681Y253568D01*
X-45626Y253679D01*
X-45570Y253790D01*
X-45537Y253890D01*
X-45504Y253979D01*
X-45493Y254034D01*
X-45481Y254056D01*
X-45459Y254167D01*
X-45437Y254290D01*
X-45415Y254423D01*
X-45404Y254567D01*
X-45381Y254878D01*
X-45370Y255189D01*
X-45359Y255333D01*
Y255477D01*
X-45348Y255599D01*
Y255710D01*
Y255799D01*
Y255877D01*
Y255921D01*
Y255932D01*
Y256177D01*
X-45359Y256410D01*
Y256609D01*
X-45370Y256809D01*
X-45381Y256976D01*
X-45393Y257142D01*
X-45404Y257275D01*
X-45426Y257409D01*
X-45437Y257520D01*
X-45448Y257608D01*
X-45459Y257686D01*
X-45470Y257753D01*
X-45481Y257797D01*
Y257841D01*
X-45493Y257853D01*
Y257864D01*
X-45537Y258019D01*
X-45592Y258152D01*
X-45637Y258252D01*
X-45692Y258341D01*
X-45737Y258396D01*
X-45770Y258441D01*
X-45792Y258463D01*
X-45803Y258474D01*
X-45881Y258530D01*
X-45970Y258574D01*
X-46048Y258607D01*
X-46125Y258630D01*
X-46181Y258641D01*
X-46236Y258652D01*
D02*
G37*
%LPD*%
M02*
