G04*
G04 #@! TF.GenerationSoftware,Altium Limited,Altium Designer,24.10.1 (45)*
G04*
G04 Layer_Physical_Order=1*
G04 Layer_Color=255*
%FSLAX44Y44*%
%MOMM*%
G71*
G04*
G04 #@! TF.SameCoordinates,79C6D601-A39B-46A2-8E03-E2448EDDA2BC*
G04*
G04*
G04 #@! TF.FilePolarity,Positive*
G04*
G01*
G75*
%ADD12R,0.6000X1.5000*%
%ADD13R,1.0000X0.7500*%
%ADD14R,1.1500X1.8000*%
%ADD15R,1.0000X0.9500*%
G04:AMPARAMS|DCode=16|XSize=2mm|YSize=1mm|CornerRadius=0.25mm|HoleSize=0mm|Usage=FLASHONLY|Rotation=180.000|XOffset=0mm|YOffset=0mm|HoleType=Round|Shape=RoundedRectangle|*
%AMROUNDEDRECTD16*
21,1,2.0000,0.5000,0,0,180.0*
21,1,1.5000,1.0000,0,0,180.0*
1,1,0.5000,-0.7500,0.2500*
1,1,0.5000,0.7500,0.2500*
1,1,0.5000,0.7500,-0.2500*
1,1,0.5000,-0.7500,-0.2500*
%
%ADD16ROUNDEDRECTD16*%
%ADD17R,0.9500X1.0000*%
%ADD18R,0.7500X1.0000*%
%ADD29C,0.3810*%
%ADD30R,2.0000X2.0000*%
%ADD31C,1.5240*%
%ADD32C,0.3000*%
G36*
X-35342Y158195D02*
X-35228Y157886D01*
X-35038Y157614D01*
X-34771Y157378D01*
X-34428Y157179D01*
X-34009Y157015D01*
X-33514Y156888D01*
X-32942Y156798D01*
X-32294Y156743D01*
X-31570Y156725D01*
Y152915D01*
X-32294Y152897D01*
X-32942Y152842D01*
X-33514Y152752D01*
X-34009Y152625D01*
X-34428Y152461D01*
X-34771Y152262D01*
X-35038Y152026D01*
X-35228Y151754D01*
X-35342Y151445D01*
X-35380Y151101D01*
Y158539D01*
X-35342Y158195D01*
D02*
G37*
G36*
X21543Y138738D02*
X21505Y139064D01*
X21391Y139356D01*
X21200Y139614D01*
X20934Y139837D01*
X20591Y140026D01*
X20172Y140180D01*
X19676Y140301D01*
X19105Y140386D01*
X18457Y140438D01*
X17733Y140455D01*
Y144265D01*
X18457Y144284D01*
X19105Y144341D01*
X19676Y144436D01*
X20172Y144570D01*
X20591Y144741D01*
X20934Y144951D01*
X21200Y145198D01*
X21391Y145484D01*
X21505Y145808D01*
X21543Y146170D01*
Y138738D01*
D02*
G37*
G36*
X44961Y137370D02*
X44637Y137255D01*
X44351Y137063D01*
X44103Y136794D01*
X43894Y136448D01*
X43723Y136026D01*
X43589Y135527D01*
X43494Y134951D01*
X43437Y134298D01*
X43418Y133568D01*
X39608D01*
X39589Y134298D01*
X39532Y134951D01*
X39436Y135527D01*
X39303Y136026D01*
X39132Y136448D01*
X38922Y136794D01*
X38674Y137063D01*
X38389Y137255D01*
X38065Y137370D01*
X37703Y137408D01*
X45323D01*
X44961Y137370D01*
D02*
G37*
G36*
X-36902Y136093D02*
X-37226Y135977D01*
X-37511Y135785D01*
X-37759Y135517D01*
X-37969Y135171D01*
X-38140Y134748D01*
X-38273Y134249D01*
X-38369Y133673D01*
X-38426Y133020D01*
X-38445Y132290D01*
X-42255D01*
X-42274Y133020D01*
X-42331Y133673D01*
X-42426Y134249D01*
X-42560Y134748D01*
X-42731Y135171D01*
X-42941Y135517D01*
X-43188Y135785D01*
X-43474Y135977D01*
X-43798Y136093D01*
X-44160Y136131D01*
X-36540D01*
X-36902Y136093D01*
D02*
G37*
G36*
X-11434Y133056D02*
X-11349Y131836D01*
X-11275Y131341D01*
X-11179Y130922D01*
X-11062Y130579D01*
X-10923Y130312D01*
X-10764Y130122D01*
X-10583Y130008D01*
X-10381Y129970D01*
X-16320D01*
X-16117Y130008D01*
X-15936Y130122D01*
X-15777Y130312D01*
X-15638Y130579D01*
X-15521Y130922D01*
X-15425Y131341D01*
X-15351Y131836D01*
X-15298Y132408D01*
X-15255Y133779D01*
X-11445D01*
X-11434Y133056D01*
D02*
G37*
G36*
X15027Y125948D02*
X15143Y125624D01*
X15335Y125338D01*
X15603Y125091D01*
X15949Y124881D01*
X16372Y124710D01*
X16871Y124576D01*
X17447Y124481D01*
X18100Y124424D01*
X18829Y124405D01*
Y120595D01*
X18100Y120576D01*
X17447Y120519D01*
X16871Y120423D01*
X16372Y120290D01*
X15949Y120119D01*
X15603Y119909D01*
X15335Y119662D01*
X15143Y119376D01*
X15027Y119052D01*
X14989Y118690D01*
Y126310D01*
X15027Y125948D01*
D02*
G37*
G36*
X35659Y124405D02*
X35147Y123855D01*
X34689Y123283D01*
X34285Y122688D01*
X33935Y122071D01*
X33639Y121432D01*
X33396Y120770D01*
X33207Y120086D01*
X33073Y119380D01*
X32992Y118652D01*
X32965Y117901D01*
X29155Y116785D01*
X29117Y117509D01*
X29003Y118157D01*
X28812Y118728D01*
X28545Y119223D01*
X28203Y119642D01*
X27783Y119985D01*
X27288Y120252D01*
X26717Y120443D01*
X26069Y120557D01*
X25345Y120595D01*
X26461Y124405D01*
X27212Y124432D01*
X27940Y124513D01*
X28647Y124648D01*
X29330Y124836D01*
X29992Y125078D01*
X30631Y125375D01*
X31248Y125725D01*
X31843Y126129D01*
X32415Y126587D01*
X32965Y127099D01*
X35659Y124405D01*
D02*
G37*
G36*
X2081Y119628D02*
X1955Y119296D01*
X1942Y118904D01*
X2042Y118454D01*
X2255Y117945D01*
X2581Y117376D01*
X3020Y116749D01*
X3571Y116063D01*
X5014Y114513D01*
X1802Y112336D01*
X1044Y113067D01*
X-326Y114222D01*
X-938Y114645D01*
X-1501Y114966D01*
X-2016Y115184D01*
X-2482Y115299D01*
X-2899Y115312D01*
X-3267Y115223D01*
X-3587Y115030D01*
X2319Y119901D01*
X2081Y119628D01*
D02*
G37*
G36*
X-10619Y119635D02*
X-10745Y119303D01*
X-10757Y118912D01*
X-10657Y118461D01*
X-10444Y117952D01*
X-10118Y117384D01*
X-9680Y116756D01*
X-9128Y116070D01*
X-7686Y114521D01*
X-10891Y112336D01*
X-11649Y113068D01*
X-13019Y114223D01*
X-13631Y114646D01*
X-14194Y114967D01*
X-14709Y115185D01*
X-15174Y115300D01*
X-15591Y115313D01*
X-15959Y115223D01*
X-16279Y115030D01*
X-10381Y119909D01*
X-10619Y119635D01*
D02*
G37*
G36*
X-23283Y114992D02*
X-23464Y114878D01*
X-23623Y114688D01*
X-23762Y114421D01*
X-23879Y114078D01*
X-23975Y113659D01*
X-24049Y113164D01*
X-24102Y112592D01*
X-24145Y111221D01*
X-27955D01*
X-27966Y111944D01*
X-28051Y113164D01*
X-28125Y113659D01*
X-28221Y114078D01*
X-28338Y114421D01*
X-28477Y114688D01*
X-28636Y114878D01*
X-28817Y114992D01*
X-29019Y115030D01*
X-23080D01*
X-23283Y114992D01*
D02*
G37*
G36*
X-5482Y110870D02*
X-5434Y110267D01*
X-5353Y109736D01*
X-5241Y109275D01*
X-5096Y108885D01*
X-4919Y108566D01*
X-4710Y108318D01*
X-4469Y108141D01*
X-4195Y108034D01*
X-3889Y107999D01*
X-10917D01*
X-10611Y108034D01*
X-10338Y108141D01*
X-10096Y108318D01*
X-9887Y108566D01*
X-9710Y108885D01*
X-9566Y109275D01*
X-9453Y109736D01*
X-9373Y110267D01*
X-9324Y110870D01*
X-9308Y111543D01*
X-5498D01*
X-5482Y110870D01*
D02*
G37*
G36*
X-38426Y111110D02*
X-38369Y110457D01*
X-38273Y109881D01*
X-38140Y109382D01*
X-37969Y108959D01*
X-37759Y108614D01*
X-37511Y108345D01*
X-37226Y108153D01*
X-36902Y108037D01*
X-36540Y107999D01*
X-44160D01*
X-43798Y108037D01*
X-43474Y108153D01*
X-43188Y108345D01*
X-42941Y108614D01*
X-42731Y108959D01*
X-42560Y109382D01*
X-42426Y109881D01*
X-42331Y110457D01*
X-42274Y111110D01*
X-42255Y111840D01*
X-38445D01*
X-38426Y111110D01*
D02*
G37*
G36*
X12531Y107021D02*
X15056Y104896D01*
X15763Y104429D01*
X16403Y104082D01*
X16976Y103856D01*
X17481Y103750D01*
X17919Y103764D01*
X18291Y103899D01*
X11501Y99973D01*
X11777Y100203D01*
X11932Y100501D01*
X11965Y100868D01*
X11875Y101304D01*
X11664Y101808D01*
X11330Y102381D01*
X10875Y103023D01*
X10297Y103734D01*
X8776Y105362D01*
X11556Y107971D01*
X12531Y107021D01*
D02*
G37*
G36*
X21167Y101585D02*
X21062Y101237D01*
X21065Y100834D01*
X21176Y100377D01*
X21394Y99866D01*
X21721Y99300D01*
X22155Y98679D01*
X22697Y98004D01*
X24104Y96490D01*
X21409Y93796D01*
X20626Y94554D01*
X19221Y95745D01*
X18600Y96179D01*
X18034Y96506D01*
X17523Y96724D01*
X17066Y96835D01*
X16663Y96838D01*
X16315Y96733D01*
X16021Y96521D01*
X21379Y101879D01*
X21167Y101585D01*
D02*
G37*
G36*
X-831Y95783D02*
X-873Y95372D01*
X-787Y94886D01*
X-572Y94325D01*
X-229Y93689D01*
X242Y92978D01*
X842Y92192D01*
X2426Y90395D01*
X3411Y89383D01*
X10Y87396D01*
X-803Y88182D01*
X-2246Y89412D01*
X-2876Y89856D01*
X-3445Y90185D01*
X-3954Y90401D01*
X-4401Y90502D01*
X-4788Y90489D01*
X-5114Y90362D01*
X-5379Y90121D01*
X-661Y96119D01*
X-831Y95783D01*
D02*
G37*
G36*
X-24126Y88050D02*
X-24069Y87397D01*
X-23974Y86821D01*
X-23840Y86322D01*
X-23669Y85899D01*
X-23459Y85554D01*
X-23212Y85285D01*
X-22926Y85093D01*
X-22602Y84978D01*
X-22240Y84939D01*
X-29860D01*
X-29498Y84978D01*
X-29174Y85093D01*
X-28888Y85285D01*
X-28641Y85554D01*
X-28431Y85899D01*
X-28260Y86322D01*
X-28126Y86821D01*
X-28031Y87397D01*
X-27974Y88050D01*
X-27955Y88779D01*
X-24145D01*
X-24126Y88050D01*
D02*
G37*
G36*
X11471Y81490D02*
X11432Y81740D01*
X11318Y81964D01*
X11128Y82161D01*
X10861Y82332D01*
X10518Y82476D01*
X10099Y82595D01*
X9604Y82687D01*
X9032Y82752D01*
X8384Y82792D01*
X7660Y82805D01*
Y86615D01*
X8384Y86634D01*
X9032Y86691D01*
X9604Y86786D01*
X10099Y86920D01*
X10518Y87091D01*
X10861Y87301D01*
X11128Y87549D01*
X11318Y87834D01*
X11432Y88158D01*
X11471Y88520D01*
Y81490D01*
D02*
G37*
G36*
X-52388Y57434D02*
X-52260Y57113D01*
X-52047Y56830D01*
X-51749Y56585D01*
X-51366Y56377D01*
X-50897Y56207D01*
X-50344Y56075D01*
X-49705Y55981D01*
X-48981Y55924D01*
X-48172Y55905D01*
Y52095D01*
X-48981Y52076D01*
X-49705Y52020D01*
X-50344Y51925D01*
X-50897Y51793D01*
X-51366Y51623D01*
X-51749Y51415D01*
X-52047Y51170D01*
X-52260Y50887D01*
X-52388Y50566D01*
X-52431Y50207D01*
Y57793D01*
X-52388Y57434D01*
D02*
G37*
G36*
X38762Y48298D02*
X38843Y47570D01*
X38977Y46863D01*
X39166Y46180D01*
X39409Y45518D01*
X39705Y44879D01*
X40055Y44262D01*
X40459Y43667D01*
X40917Y43095D01*
X41429Y42545D01*
X39524Y39062D01*
X38985Y39547D01*
X38447Y39924D01*
X37908Y40193D01*
X37369Y40355D01*
X36830Y40409D01*
X36291Y40355D01*
X35752Y40193D01*
X35213Y39924D01*
X34675Y39547D01*
X34136Y39062D01*
X32231Y42545D01*
X32743Y43095D01*
X33201Y43667D01*
X33605Y44262D01*
X33955Y44879D01*
X34251Y45518D01*
X34494Y46180D01*
X34683Y46863D01*
X34817Y47570D01*
X34898Y48298D01*
X34925Y49049D01*
X38735D01*
X38762Y48298D01*
D02*
G37*
G36*
X52431Y30207D02*
X52388Y30566D01*
X52260Y30887D01*
X52047Y31170D01*
X51749Y31415D01*
X51366Y31623D01*
X50897Y31793D01*
X50344Y31925D01*
X49705Y32020D01*
X48981Y32076D01*
X48172Y32095D01*
Y35905D01*
X48981Y35924D01*
X49705Y35981D01*
X50344Y36075D01*
X50897Y36207D01*
X51366Y36377D01*
X51749Y36585D01*
X52047Y36830D01*
X52260Y37113D01*
X52388Y37434D01*
X52431Y37793D01*
Y30207D01*
D02*
G37*
G36*
X-52388Y37434D02*
X-52260Y37113D01*
X-52047Y36830D01*
X-51749Y36585D01*
X-51366Y36377D01*
X-50897Y36207D01*
X-50344Y36075D01*
X-49705Y35981D01*
X-48981Y35924D01*
X-48172Y35905D01*
Y32095D01*
X-48981Y32076D01*
X-49705Y32020D01*
X-50344Y31925D01*
X-50897Y31793D01*
X-51366Y31623D01*
X-51749Y31415D01*
X-52047Y31170D01*
X-52260Y30887D01*
X-52388Y30566D01*
X-52431Y30207D01*
Y37793D01*
X-52388Y37434D01*
D02*
G37*
G36*
X52431Y245207D02*
X52388Y245566D01*
X52260Y245887D01*
X52047Y246170D01*
X51749Y246415D01*
X51366Y246623D01*
X50897Y246793D01*
X50344Y246925D01*
X49705Y247020D01*
X48981Y247076D01*
X48172Y247095D01*
Y250905D01*
X48981Y250924D01*
X49705Y250980D01*
X50344Y251075D01*
X50897Y251207D01*
X51366Y251377D01*
X51749Y251585D01*
X52047Y251830D01*
X52260Y252113D01*
X52388Y252434D01*
X52431Y252793D01*
Y245207D01*
D02*
G37*
G36*
X-52388Y252434D02*
X-52260Y252113D01*
X-52047Y251830D01*
X-51749Y251585D01*
X-51366Y251377D01*
X-50897Y251207D01*
X-50344Y251075D01*
X-49705Y250980D01*
X-48981Y250924D01*
X-48172Y250905D01*
Y247095D01*
X-48981Y247076D01*
X-49705Y247020D01*
X-50344Y246925D01*
X-50897Y246793D01*
X-51366Y246623D01*
X-51749Y246415D01*
X-52047Y246170D01*
X-52260Y245887D01*
X-52388Y245566D01*
X-52431Y245207D01*
Y252793D01*
X-52388Y252434D01*
D02*
G37*
G36*
X65678Y243974D02*
X65354Y243859D01*
X65068Y243667D01*
X64821Y243398D01*
X64611Y243053D01*
X64440Y242630D01*
X64306Y242131D01*
X64211Y241555D01*
X64154Y240902D01*
X64135Y240172D01*
X60325D01*
X60306Y240902D01*
X60249Y241555D01*
X60153Y242131D01*
X60020Y242630D01*
X59849Y243053D01*
X59639Y243398D01*
X59391Y243667D01*
X59106Y243859D01*
X58782Y243974D01*
X58420Y244013D01*
X66040D01*
X65678Y243974D01*
D02*
G37*
G36*
X-58552D02*
X-58876Y243859D01*
X-59162Y243667D01*
X-59409Y243398D01*
X-59619Y243053D01*
X-59790Y242630D01*
X-59924Y242131D01*
X-60019Y241555D01*
X-60076Y240902D01*
X-60095Y240172D01*
X-63905D01*
X-63924Y240902D01*
X-63981Y241555D01*
X-64076Y242131D01*
X-64210Y242630D01*
X-64381Y243053D01*
X-64591Y243398D01*
X-64839Y243667D01*
X-65124Y243859D01*
X-65448Y243974D01*
X-65810Y244013D01*
X-58190D01*
X-58552Y243974D01*
D02*
G37*
G36*
X40848Y228703D02*
X40524Y228587D01*
X40238Y228395D01*
X39991Y228127D01*
X39781Y227781D01*
X39610Y227358D01*
X39476Y226859D01*
X39381Y226283D01*
X39324Y225630D01*
X39305Y224900D01*
X35495D01*
X35476Y225630D01*
X35419Y226283D01*
X35324Y226859D01*
X35190Y227358D01*
X35019Y227781D01*
X34809Y228127D01*
X34562Y228395D01*
X34276Y228587D01*
X33952Y228703D01*
X33590Y228741D01*
X41210D01*
X40848Y228703D01*
D02*
G37*
G36*
X24848D02*
X24524Y228587D01*
X24239Y228395D01*
X23991Y228127D01*
X23781Y227781D01*
X23610Y227358D01*
X23477Y226859D01*
X23381Y226283D01*
X23361Y226049D01*
X23378Y225848D01*
X23468Y225276D01*
X23595Y224781D01*
X23759Y224362D01*
X23958Y224019D01*
X24194Y223752D01*
X24466Y223562D01*
X24775Y223448D01*
X25120Y223410D01*
X17680D01*
X18025Y223448D01*
X18334Y223562D01*
X18606Y223752D01*
X18842Y224019D01*
X19041Y224362D01*
X19205Y224781D01*
X19332Y225276D01*
X19422Y225848D01*
X19439Y226049D01*
X19419Y226283D01*
X19324Y226859D01*
X19190Y227358D01*
X19019Y227781D01*
X18809Y228127D01*
X18562Y228395D01*
X18276Y228587D01*
X17952Y228703D01*
X17590Y228741D01*
X25210D01*
X24848Y228703D01*
D02*
G37*
G36*
X41513Y216227D02*
X39608Y211628D01*
X39581Y212379D01*
X39500Y213108D01*
X39365Y213814D01*
X39177Y214498D01*
X38934Y215159D01*
X38638Y215798D01*
X38288Y216415D01*
X37884Y217010D01*
X37425Y217582D01*
X36914Y218132D01*
X41513Y216227D01*
D02*
G37*
G36*
X-9902Y214992D02*
X-10226Y214878D01*
X-10512Y214688D01*
X-10759Y214421D01*
X-10969Y214078D01*
X-11140Y213659D01*
X-11274Y213164D01*
X-11369Y212592D01*
X-11426Y211944D01*
X-11445Y211220D01*
X-15255D01*
X-15274Y211944D01*
X-15331Y212592D01*
X-15426Y213164D01*
X-15560Y213659D01*
X-15731Y214078D01*
X-15941Y214421D01*
X-16188Y214688D01*
X-16474Y214878D01*
X-16798Y214992D01*
X-17160Y215030D01*
X-9540D01*
X-9902Y214992D01*
D02*
G37*
G36*
X9775Y213432D02*
X9466Y213318D01*
X9194Y213128D01*
X8958Y212861D01*
X8759Y212518D01*
X8595Y212099D01*
X8468Y211604D01*
X8378Y211032D01*
X8323Y210384D01*
X8318Y210185D01*
X8323Y209986D01*
X8378Y209338D01*
X8468Y208766D01*
X8595Y208271D01*
X8759Y207852D01*
X8958Y207509D01*
X9194Y207242D01*
X9466Y207052D01*
X9775Y206938D01*
X10120Y206900D01*
X2680D01*
X3025Y206938D01*
X3334Y207052D01*
X3606Y207242D01*
X3842Y207509D01*
X4041Y207852D01*
X4205Y208271D01*
X4332Y208766D01*
X4422Y209338D01*
X4477Y209986D01*
X4482Y210185D01*
X4477Y210384D01*
X4422Y211032D01*
X4332Y211604D01*
X4205Y212099D01*
X4041Y212518D01*
X3842Y212861D01*
X3606Y213128D01*
X3334Y213318D01*
X3025Y213432D01*
X2680Y213470D01*
X10120D01*
X9775Y213432D01*
D02*
G37*
G36*
X8069Y196961D02*
X7772Y197176D01*
X7422Y197284D01*
X7018D01*
X6560Y197176D01*
X6048Y196961D01*
X5482Y196637D01*
X4863Y196206D01*
X4189Y195667D01*
X2680Y194266D01*
X-14Y196961D01*
X741Y197742D01*
X1926Y199143D01*
X2357Y199762D01*
X2680Y200328D01*
X2896Y200840D01*
X3004Y201298D01*
Y201702D01*
X2896Y202052D01*
X2680Y202349D01*
X8069Y196961D01*
D02*
G37*
G36*
X22683Y196926D02*
X22427Y196824D01*
X22200Y196653D01*
X22004Y196414D01*
X21838Y196107D01*
X21702Y195731D01*
X21596Y195287D01*
X21520Y194775D01*
X21475Y194194D01*
X21460Y193545D01*
X17650D01*
X17680Y196961D01*
X22970D01*
X22683Y196926D01*
D02*
G37*
G36*
X1266Y188056D02*
X1351Y186836D01*
X1425Y186341D01*
X1521Y185922D01*
X1638Y185579D01*
X1777Y185312D01*
X1936Y185122D01*
X2117Y185008D01*
X2319Y184970D01*
X-3620D01*
X-3417Y185008D01*
X-3236Y185122D01*
X-3077Y185312D01*
X-2938Y185579D01*
X-2821Y185922D01*
X-2725Y186341D01*
X-2651Y186836D01*
X-2598Y187408D01*
X-2555Y188780D01*
X1255D01*
X1266Y188056D01*
D02*
G37*
G36*
X-11434D02*
X-11349Y186836D01*
X-11275Y186341D01*
X-11179Y185922D01*
X-11062Y185579D01*
X-10923Y185312D01*
X-10764Y185122D01*
X-10583Y185008D01*
X-10381Y184970D01*
X-16320D01*
X-16117Y185008D01*
X-15936Y185122D01*
X-15777Y185312D01*
X-15638Y185579D01*
X-15521Y185922D01*
X-15425Y186341D01*
X-15351Y186836D01*
X-15298Y187408D01*
X-15255Y188780D01*
X-11445D01*
X-11434Y188056D01*
D02*
G37*
G36*
X-24134D02*
X-24049Y186836D01*
X-23975Y186341D01*
X-23879Y185922D01*
X-23762Y185579D01*
X-23623Y185312D01*
X-23464Y185122D01*
X-23283Y185008D01*
X-23080Y184970D01*
X-29019D01*
X-28817Y185008D01*
X-28636Y185122D01*
X-28477Y185312D01*
X-28338Y185579D01*
X-28221Y185922D01*
X-28125Y186341D01*
X-28051Y186836D01*
X-27998Y187408D01*
X-27955Y188780D01*
X-24145D01*
X-24134Y188056D01*
D02*
G37*
G36*
X15020Y184970D02*
X10979Y184939D01*
X11029Y184961D01*
X11073Y185028D01*
X11112Y185138D01*
X11146Y185291D01*
X11175Y185489D01*
X11216Y186016D01*
X11240Y187135D01*
X15050D01*
X15020Y184970D01*
D02*
G37*
G36*
X15027Y180948D02*
X15143Y180624D01*
X15335Y180338D01*
X15603Y180091D01*
X15949Y179881D01*
X16372Y179710D01*
X16871Y179576D01*
X17447Y179481D01*
X18100Y179424D01*
X18829Y179405D01*
Y175595D01*
X18100Y175576D01*
X17447Y175519D01*
X16871Y175424D01*
X16372Y175290D01*
X15949Y175119D01*
X15603Y174909D01*
X15335Y174662D01*
X15143Y174376D01*
X15027Y174052D01*
X14989Y173690D01*
Y181310D01*
X15027Y180948D01*
D02*
G37*
G36*
X2117Y169992D02*
X1936Y169878D01*
X1777Y169688D01*
X1638Y169421D01*
X1521Y169078D01*
X1425Y168659D01*
X1351Y168164D01*
X1298Y167592D01*
X1255Y166220D01*
X-2555D01*
X-2566Y166944D01*
X-2651Y168164D01*
X-2725Y168659D01*
X-2821Y169078D01*
X-2938Y169421D01*
X-3077Y169688D01*
X-3236Y169878D01*
X-3417Y169992D01*
X-3620Y170030D01*
X2319D01*
X2117Y169992D01*
D02*
G37*
G36*
X43437Y165897D02*
X43494Y165244D01*
X43589Y164668D01*
X43723Y164169D01*
X43894Y163747D01*
X44103Y163401D01*
X44351Y163132D01*
X44637Y162940D01*
X44961Y162825D01*
X45323Y162787D01*
X37703D01*
X38065Y162825D01*
X38389Y162940D01*
X38674Y163132D01*
X38922Y163401D01*
X39132Y163747D01*
X39303Y164169D01*
X39436Y164668D01*
X39532Y165244D01*
X39589Y165897D01*
X39608Y166627D01*
X43418D01*
X43437Y165897D01*
D02*
G37*
G36*
X28437Y164257D02*
X28494Y163604D01*
X28589Y163028D01*
X28723Y162529D01*
X28894Y162107D01*
X29104Y161761D01*
X29351Y161492D01*
X29637Y161300D01*
X29961Y161185D01*
X30323Y161147D01*
X22703D01*
X23065Y161185D01*
X23389Y161300D01*
X23674Y161492D01*
X23922Y161761D01*
X24132Y162107D01*
X24303Y162529D01*
X24436Y163028D01*
X24532Y163604D01*
X24589Y164257D01*
X24608Y164987D01*
X28418D01*
X28437Y164257D01*
D02*
G37*
D12*
X-26050Y122500D02*
D03*
X-13350D02*
D03*
X-650D02*
D03*
X12050D02*
D03*
X-26050Y177500D02*
D03*
X-13350D02*
D03*
X-650D02*
D03*
X12050D02*
D03*
D13*
X-40350Y139820D02*
D03*
Y154820D02*
D03*
X16440Y85210D02*
D03*
Y100210D02*
D03*
X26513Y157457D02*
D03*
Y142457D02*
D03*
D14*
X-40350Y99060D02*
D03*
X-6350D02*
D03*
D15*
X41513Y158097D02*
D03*
Y142098D02*
D03*
D16*
X62000Y133000D02*
D03*
Y54000D02*
D03*
X-62000D02*
D03*
X62000Y249000D02*
D03*
X-62000D02*
D03*
X62000Y34000D02*
D03*
X-62000D02*
D03*
Y167000D02*
D03*
X62000D02*
D03*
X-62000Y133000D02*
D03*
D17*
X37400Y233680D02*
D03*
X21400D02*
D03*
D18*
Y201930D02*
D03*
X6400D02*
D03*
Y218440D02*
D03*
X21400D02*
D03*
D29*
X14630Y54000D02*
X27940Y67310D01*
X17690Y100210D02*
X27940Y89960D01*
Y67310D02*
Y89960D01*
X47280Y34000D02*
X62000D01*
X36830Y44450D02*
X47280Y34000D01*
X-62000D02*
X26380D01*
X36830Y44450D01*
Y104140D01*
X-60000Y54000D02*
X14630D01*
X-63247Y53340D02*
X-60000D01*
X-64770D02*
X-63247D01*
X62230Y245950D02*
X65200Y248920D01*
X62230Y236220D02*
Y245950D01*
X65200Y248920D02*
X65920D01*
X42237Y216227D02*
X62230Y236220D01*
X-62000Y249000D02*
X62000D01*
X-62000Y227100D02*
Y248920D01*
X31060Y109910D02*
Y122500D01*
Y109910D02*
X36830Y104140D01*
X60951Y35049D02*
X62000Y34000D01*
X-13350Y177500D02*
Y225000D01*
X41513Y216227D02*
X42237D01*
X41513Y158097D02*
Y216227D01*
X-62000Y227100D02*
X-26050Y191150D01*
Y177500D02*
Y191150D01*
X16440Y100210D02*
X17690D01*
X-26050Y75000D02*
Y122500D01*
X12050D02*
X31060D01*
X41513Y132953D01*
Y142098D01*
X37400Y220340D02*
X41513Y216227D01*
X13145Y178595D02*
Y187135D01*
X19555Y193545D02*
Y200085D01*
X12050Y177500D02*
X13145Y178595D01*
Y187135D02*
X19555Y193545D01*
X-650Y164520D02*
Y193630D01*
X-10350Y154820D02*
X-650Y164520D01*
X6400Y200680D02*
Y218440D01*
X-650Y193630D02*
X6400Y200680D01*
X19555Y200085D02*
X21400Y201930D01*
X12050Y177500D02*
X14050Y177500D01*
X21890D01*
X26513Y157457D02*
Y172877D01*
X21890Y177500D02*
X26513Y172877D01*
X-650Y122500D02*
X445Y121405D01*
Y116387D02*
X13345Y103487D01*
Y102055D02*
Y103487D01*
X445Y116387D02*
Y121405D01*
X-12255Y116395D02*
Y121405D01*
Y116395D02*
X-7403Y111543D01*
X-13350Y122500D02*
X-12255Y121405D01*
X-7403Y96863D02*
Y111543D01*
Y96863D02*
X-2505Y91965D01*
X-13350Y134040D02*
X-5030Y142360D01*
X-13350Y122500D02*
Y134040D01*
X-40350Y154820D02*
X-10350D01*
X-40350Y99060D02*
Y139820D01*
X37400Y220340D02*
Y233680D01*
X37150Y233930D02*
X37400Y233680D01*
X21400Y218440D02*
Y233680D01*
X-1865Y91965D02*
X5390Y84710D01*
X15690D01*
X-2505Y91965D02*
X-1865D01*
X13345Y102055D02*
X15190Y100210D01*
X16440D01*
X-5030Y142360D02*
X29000D01*
D30*
X-26050Y75000D02*
D03*
X-13350Y225000D02*
D03*
D31*
X59000Y284000D02*
D03*
X-59000D02*
D03*
X59000Y16000D02*
D03*
X-59000D02*
D03*
D32*
X-63247Y51000D02*
D03*
Y54000D02*
D03*
X-60000D02*
D03*
X59770D02*
D03*
Y51000D02*
D03*
X63018D02*
D03*
X-60000D02*
D03*
X63018Y54000D02*
D03*
X-60000Y134500D02*
D03*
Y131500D02*
D03*
X-63247Y134500D02*
D03*
Y131500D02*
D03*
X63018D02*
D03*
Y134500D02*
D03*
X59770Y131500D02*
D03*
Y134500D02*
D03*
X-60000Y168500D02*
D03*
Y165500D02*
D03*
X-63247Y168500D02*
D03*
Y165500D02*
D03*
X63018D02*
D03*
Y168500D02*
D03*
X59770Y165500D02*
D03*
Y168500D02*
D03*
M02*
