G04*
G04 #@! TF.GenerationSoftware,Altium Limited,Altium Designer,24.10.1 (45)*
G04*
G04 Layer_Physical_Order=2*
G04 Layer_Color=16711680*
%FSLAX44Y44*%
%MOMM*%
G71*
G04*
G04 #@! TF.SameCoordinates,79C6D601-A39B-46A2-8E03-E2448EDDA2BC*
G04*
G04*
G04 #@! TF.FilePolarity,Positive*
G04*
G01*
G75*
%ADD29C,0.3810*%
%ADD30R,2.0000X2.0000*%
%ADD31C,1.5240*%
%ADD32C,0.3000*%
%ADD33R,9.0000X5.0000*%
D29*
X-60000Y51000D02*
X-47100Y38100D01*
X46870D01*
X59770Y51000D01*
Y52500D02*
X62000D01*
X-62000D02*
X-60000D01*
X-62000Y133000D02*
X62000D01*
X-62000Y167000D02*
X62000D01*
D30*
X-26050Y75000D02*
D03*
X-13350Y225000D02*
D03*
D31*
X59000Y284000D02*
D03*
X-59000D02*
D03*
X59000Y16000D02*
D03*
X-59000D02*
D03*
D32*
X-63247Y51000D02*
D03*
Y54000D02*
D03*
X-60000D02*
D03*
X59770D02*
D03*
Y51000D02*
D03*
X63018D02*
D03*
X-60000D02*
D03*
X63018Y54000D02*
D03*
X-60000Y134500D02*
D03*
Y131500D02*
D03*
X-63247Y134500D02*
D03*
Y131500D02*
D03*
X63018D02*
D03*
Y134500D02*
D03*
X59770Y131500D02*
D03*
Y134500D02*
D03*
X-60000Y168500D02*
D03*
Y165500D02*
D03*
X-63247Y168500D02*
D03*
Y165500D02*
D03*
X63018D02*
D03*
Y168500D02*
D03*
X59770Y165500D02*
D03*
Y168500D02*
D03*
D33*
X0Y216000D02*
D03*
Y84000D02*
D03*
M02*
