G04*
G04 #@! TF.GenerationSoftware,Altium Limited,Altium Designer,22.4.2 (48)*
G04*
G04 Layer_Color=128*
%FSLAX44Y44*%
%MOMM*%
G71*
G04*
G04 #@! TF.SameCoordinates,9B9F8FC9-ABE2-414B-8338-F90C526896C9*
G04*
G04*
G04 #@! TF.FilePolarity,Positive*
G04*
G01*
G75*
%ADD11C,0.1270*%
D11*
X124000Y284000D02*
X144000D01*
X134000Y274000D02*
Y294000D01*
X6000Y284000D02*
X26000D01*
X16000Y274000D02*
Y294000D01*
X124000Y16000D02*
X144000D01*
X134000Y6000D02*
Y26000D01*
X6000Y16000D02*
X26000D01*
X16000Y6000D02*
Y26000D01*
X118250Y125000D02*
X121750D01*
X120000Y123250D02*
Y126750D01*
X73250Y37340D02*
X76750D01*
X75000Y35590D02*
Y39090D01*
X73250Y240030D02*
X76750D01*
X75000Y238280D02*
Y241780D01*
X69370Y171450D02*
X72870D01*
X71120Y169700D02*
Y173200D01*
X146250Y100000D02*
X153750D01*
X150000Y96250D02*
Y103750D01*
X146250Y135000D02*
X153750D01*
X150000Y131250D02*
Y138750D01*
X146250Y165000D02*
X153750D01*
X150000Y161250D02*
Y168750D01*
M02*
