G04*
G04 #@! TF.GenerationSoftware,Altium Limited,Altium Designer,22.4.2 (48)*
G04*
G04 Layer_Color=8388736*
%FSLAX44Y44*%
%MOMM*%
G71*
G04*
G04 #@! TF.SameCoordinates,9B9F8FC9-ABE2-414B-8338-F90C526896C9*
G04*
G04*
G04 #@! TF.FilePolarity,Negative*
G04*
G01*
G75*
%ADD19R,1.7032X0.8032*%
%ADD20R,2.2032X1.7032*%
%ADD21R,0.9532X1.2032*%
%ADD22R,1.1532X1.2032*%
%ADD23R,1.3532X2.0032*%
%ADD24R,1.2032X0.9532*%
%ADD25C,1.7272*%
%ADD26C,1.7032*%
D19*
X105090Y130810D02*
D03*
Y143510D02*
D03*
Y156210D02*
D03*
Y168910D02*
D03*
X50090Y130810D02*
D03*
Y143510D02*
D03*
Y156210D02*
D03*
Y168910D02*
D03*
D20*
X140000Y200000D02*
D03*
Y100000D02*
D03*
Y135000D02*
D03*
Y165000D02*
D03*
D21*
X25520Y190500D02*
D03*
X40520D02*
D03*
X71240Y92710D02*
D03*
X86240D02*
D03*
X71240Y77470D02*
D03*
X86240D02*
D03*
D22*
X25520Y207010D02*
D03*
X41520D02*
D03*
X93600Y193040D02*
D03*
X109600D02*
D03*
D23*
X92000Y111760D02*
D03*
X58000D02*
D03*
D24*
X26670Y140850D02*
D03*
Y125850D02*
D03*
Y155060D02*
D03*
Y170060D02*
D03*
D25*
X134000Y284000D02*
D03*
X16000D02*
D03*
X134000Y16000D02*
D03*
X16000D02*
D03*
D26*
X150000Y100000D02*
D03*
Y135000D02*
D03*
Y165000D02*
D03*
M02*
