G04*
G04 #@! TF.GenerationSoftware,Altium Limited,Altium Designer,22.4.2 (48)*
G04*
G04 Layer_Color=2752767*
%FSLAX44Y44*%
%MOMM*%
G71*
G04*
G04 #@! TF.SameCoordinates,9B9F8FC9-ABE2-414B-8338-F90C526896C9*
G04*
G04*
G04 #@! TF.FilePolarity,Positive*
G04*
G01*
G75*
%ADD11C,0.1270*%
%ADD33C,0.1693*%
D11*
X128920Y278920D02*
Y289080D01*
X139080D01*
Y278920D01*
X128920D01*
X10920D02*
Y289080D01*
X21080D01*
Y278920D01*
X10920D01*
X128920Y10920D02*
Y21080D01*
X139080D01*
Y10920D01*
X128920D01*
X10920D02*
Y21080D01*
X21080D01*
Y10920D01*
X10920D01*
X150000Y94920D02*
X144920Y105080D01*
X155080D01*
X150000Y94920D01*
Y129920D02*
X144920Y140080D01*
X155080D01*
X150000Y129920D01*
Y159920D02*
X144920Y170080D01*
X155080D01*
X150000Y159920D01*
D33*
X125080Y125000D02*
G03*
X125080Y125000I-5080J0D01*
G01*
X80080Y37340D02*
G03*
X80080Y37340I-5080J0D01*
G01*
Y240030D02*
G03*
X80080Y240030I-5080J0D01*
G01*
X76200Y171450D02*
G03*
X76200Y171450I-5080J0D01*
G01*
M02*
