G04*
G04 #@! TF.GenerationSoftware,Altium Limited,Altium Designer,22.4.2 (48)*
G04*
G04 Layer_Color=32768*
%FSLAX44Y44*%
%MOMM*%
G71*
G04*
G04 #@! TF.SameCoordinates,9B9F8FC9-ABE2-414B-8338-F90C526896C9*
G04*
G04*
G04 #@! TF.FilePolarity,Positive*
G04*
G01*
G75*
%ADD11C,0.1270*%
%ADD12C,0.1000*%
D11*
X42030Y125730D02*
X113150D01*
X42030Y180340D02*
X113150D01*
Y125730D02*
Y180340D01*
X42030Y125730D02*
Y180340D01*
X48252Y200152D02*
Y213868D01*
X18788D02*
X48252D01*
X18788Y200152D02*
Y213868D01*
Y200152D02*
X48252D01*
X116332Y186182D02*
Y199898D01*
X86868D02*
X116332D01*
X86868Y186182D02*
Y199898D01*
Y186182D02*
X116332D01*
X99892Y100584D02*
Y122936D01*
X50108Y100584D02*
X99892D01*
X50108D02*
Y122936D01*
X99892D01*
D12*
X20020Y183500D02*
Y197500D01*
Y183500D02*
X46020D01*
Y197500D01*
X20020D02*
X46020D01*
X19670Y146350D02*
X33670D01*
X19670Y120350D02*
Y146350D01*
Y120350D02*
X33670D01*
Y146350D01*
X19670Y149560D02*
X33670D01*
Y175560D01*
X19670D02*
X33670D01*
X19670Y149560D02*
Y175560D01*
X65740Y85710D02*
Y99710D01*
Y85710D02*
X91740D01*
Y99710D01*
X65740D02*
X91740D01*
X65740Y70470D02*
Y84470D01*
Y70470D02*
X91740D01*
Y84470D01*
X65740D02*
X91740D01*
M02*
