G04*
G04 #@! TF.GenerationSoftware,Altium Limited,Altium Designer,22.4.2 (48)*
G04*
G04 Layer_Physical_Order=1*
G04 Layer_Color=255*
%FSLAX44Y44*%
%MOMM*%
G71*
G04*
G04 #@! TF.SameCoordinates,9B9F8FC9-ABE2-414B-8338-F90C526896C9*
G04*
G04*
G04 #@! TF.FilePolarity,Positive*
G04*
G01*
G75*
%ADD10C,0.2540*%
%ADD13R,1.5000X0.6000*%
%ADD14R,2.0000X1.5000*%
%ADD15R,0.7500X1.0000*%
%ADD16R,0.9500X1.0000*%
%ADD17R,1.1500X1.8000*%
%ADD18R,1.0000X0.7500*%
%ADD27C,1.5240*%
%ADD28C,0.7000*%
%ADD29C,1.5000*%
G36*
X121460Y282349D02*
X122315Y279160D01*
X123966Y276300D01*
X126300Y273965D01*
X129160Y272315D01*
X132349Y271460D01*
X134000D01*
Y210040D01*
X127460D01*
Y201270D01*
X140000D01*
Y198730D01*
X127460D01*
Y189960D01*
X134000D01*
Y175040D01*
X127460D01*
Y168885D01*
X122359D01*
X119587Y171657D01*
X118327Y172499D01*
X116840Y172795D01*
X115130D01*
Y174450D01*
X113105D01*
Y185500D01*
X116890D01*
Y200580D01*
X102310D01*
Y185500D01*
X105335D01*
Y174450D01*
X95050D01*
Y163370D01*
X115130D01*
Y163370D01*
X116400Y163856D01*
X118003Y162253D01*
X119263Y161411D01*
X120750Y161115D01*
X127460D01*
Y154960D01*
X134000D01*
Y145846D01*
X132730Y145374D01*
X119147Y158957D01*
X117887Y159799D01*
X116400Y160095D01*
X115130D01*
Y161750D01*
X95050D01*
Y156164D01*
X68493Y129607D01*
X67651Y128347D01*
X67355Y126860D01*
Y123794D01*
X66290Y123300D01*
X49710D01*
Y115645D01*
X34629D01*
X31887Y118387D01*
X32373Y119560D01*
X34210D01*
Y132140D01*
X19130D01*
Y122643D01*
X17957Y122157D01*
X16000Y124114D01*
Y161636D01*
X18426Y164062D01*
X19130Y163770D01*
Y163770D01*
X34210D01*
Y165600D01*
X40050D01*
Y163370D01*
X59615D01*
Y161750D01*
X40050D01*
Y159520D01*
X34210D01*
Y161350D01*
X19130D01*
Y148770D01*
X22785D01*
Y147140D01*
X19130D01*
Y134560D01*
X34210D01*
Y147140D01*
X30555D01*
Y148770D01*
X34210D01*
Y151750D01*
X40050D01*
Y150670D01*
X60130D01*
Y152325D01*
X62012D01*
X63499Y152621D01*
X64759Y153463D01*
X66247Y154951D01*
X67089Y156211D01*
X67385Y157698D01*
Y165085D01*
X68655Y165933D01*
X69919Y165410D01*
X72321D01*
X73585Y165933D01*
X74855Y165085D01*
Y161629D01*
X61400Y148174D01*
X60130Y148700D01*
Y149050D01*
X40050D01*
Y137970D01*
X60130D01*
Y139625D01*
X62230D01*
X63717Y139921D01*
X64977Y140763D01*
X81487Y157273D01*
X82329Y158533D01*
X82625Y160020D01*
Y229984D01*
X82329Y231470D01*
X81487Y232730D01*
X79754Y234463D01*
Y236242D01*
X80120Y236609D01*
X81040Y238829D01*
Y241231D01*
X80120Y243451D01*
X78421Y245151D01*
X76201Y246070D01*
X73799D01*
X71579Y245151D01*
X69879Y243451D01*
X68960Y241231D01*
Y238829D01*
X69879Y236609D01*
X71115Y235373D01*
Y233724D01*
X71411Y232237D01*
X72253Y230977D01*
X74855Y228375D01*
Y197808D01*
X74696Y197687D01*
X73585Y197338D01*
X61167Y209757D01*
X59907Y210599D01*
X58420Y210895D01*
X48810D01*
Y214550D01*
X34230D01*
Y199470D01*
X48810D01*
Y203125D01*
X56811D01*
X67235Y192701D01*
Y187648D01*
X67076Y187527D01*
X65965Y187178D01*
X59897Y193247D01*
X58637Y194089D01*
X57150Y194385D01*
X46810D01*
Y198040D01*
X34230D01*
Y182960D01*
X46810D01*
Y186615D01*
X55541D01*
X59615Y182541D01*
Y174450D01*
X40050D01*
Y173370D01*
X34210D01*
Y176350D01*
X19130D01*
Y173945D01*
X18930D01*
X17443Y173649D01*
X17270Y173533D01*
X16000Y174212D01*
Y271460D01*
X17651D01*
X20840Y272315D01*
X23700Y273965D01*
X26035Y276300D01*
X27685Y279160D01*
X28540Y282349D01*
Y284000D01*
X121460D01*
Y282349D01*
D02*
G37*
G36*
X127460Y139656D02*
Y124960D01*
X134000D01*
Y118153D01*
X132827Y117667D01*
X126040Y124454D01*
Y126201D01*
X125120Y128421D01*
X123421Y130120D01*
X121201Y131040D01*
X118799D01*
X116579Y130120D01*
X116303Y129845D01*
X115130Y130331D01*
Y136350D01*
X101690D01*
X101036Y137620D01*
X101287Y137970D01*
X115130D01*
Y149050D01*
X101690D01*
X101036Y150320D01*
X101287Y150670D01*
X115130D01*
Y150670D01*
X116061Y151055D01*
X127460Y139656D01*
D02*
G37*
G36*
X49710Y100220D02*
X64950D01*
Y85170D01*
X64950D01*
Y85010D01*
X64950D01*
Y81355D01*
X58759D01*
X33508Y106605D01*
X34035Y107875D01*
X49710D01*
Y100220D01*
D02*
G37*
G36*
X88525Y136855D02*
X87851Y135847D01*
X87555Y134360D01*
Y123300D01*
X83710D01*
Y101974D01*
X83493Y101757D01*
X82651Y100497D01*
X82602Y100250D01*
X79950D01*
Y85170D01*
X79950D01*
Y85010D01*
X79950D01*
Y69930D01*
X92530D01*
Y85010D01*
X92530D01*
Y85170D01*
X92530D01*
Y99121D01*
X93629Y100220D01*
X100290D01*
X101205Y99364D01*
Y47009D01*
X95421Y41225D01*
X79657D01*
X78421Y42460D01*
X76201Y43380D01*
X73799D01*
X71579Y42460D01*
X69879Y40761D01*
X68960Y38541D01*
Y36139D01*
X69879Y33919D01*
X71579Y32220D01*
X73799Y31300D01*
X76201D01*
X78421Y32220D01*
X79657Y33455D01*
X97030D01*
X98517Y33751D01*
X99777Y34593D01*
X107837Y42653D01*
X108679Y43913D01*
X108975Y45400D01*
Y125270D01*
X113960D01*
Y123799D01*
X114880Y121579D01*
X116579Y119880D01*
X118799Y118960D01*
X120546D01*
X127385Y112121D01*
Y106230D01*
X127460Y105855D01*
Y89960D01*
X134000D01*
Y28540D01*
X132349D01*
X129160Y27685D01*
X126300Y26035D01*
X123966Y23700D01*
X122315Y20840D01*
X121460Y17651D01*
Y16000D01*
X28540D01*
Y17651D01*
X27685Y20840D01*
X26035Y23700D01*
X23700Y26035D01*
X20840Y27685D01*
X17651Y28540D01*
X16000D01*
Y111467D01*
X17173Y111953D01*
X54403Y74723D01*
X55663Y73881D01*
X57150Y73585D01*
X64950D01*
Y69930D01*
X77530D01*
Y85010D01*
X77530D01*
Y85170D01*
X77530D01*
Y100250D01*
X75125D01*
Y125251D01*
X87539Y137665D01*
X88525Y136855D01*
D02*
G37*
%LPC*%
G36*
X100890Y200580D02*
X94870D01*
Y194310D01*
X100890D01*
Y200580D01*
D02*
G37*
G36*
X92330D02*
X86310D01*
Y194310D01*
X92330D01*
Y200580D01*
D02*
G37*
G36*
X100890Y191770D02*
X94870D01*
Y185500D01*
X100890D01*
Y191770D01*
D02*
G37*
G36*
X92330D02*
X86310D01*
Y185500D01*
X92330D01*
Y191770D01*
D02*
G37*
G36*
X32810Y214550D02*
X18230D01*
Y199470D01*
X21635D01*
Y198040D01*
X19230D01*
Y182960D01*
X31810D01*
Y198040D01*
X29405D01*
Y199470D01*
X32810D01*
Y214550D01*
D02*
G37*
G36*
X60130Y136350D02*
X51360D01*
Y132080D01*
X60130D01*
Y136350D01*
D02*
G37*
G36*
X48820D02*
X40050D01*
Y132080D01*
X48820D01*
Y136350D01*
D02*
G37*
G36*
X60130Y129540D02*
X51360D01*
Y125270D01*
X60130D01*
Y129540D01*
D02*
G37*
G36*
X48820D02*
X40050D01*
Y125270D01*
X48820D01*
Y129540D01*
D02*
G37*
%LPD*%
D10*
X97790Y204470D02*
X133840D01*
X138310Y200000D01*
X132080Y206230D02*
X133840Y204470D01*
X138310Y200000D02*
X140000D01*
X93682Y200362D02*
X97790Y204470D01*
X75000Y37340D02*
X97030D01*
X105090Y45400D01*
Y130810D01*
X78740Y160020D02*
Y229984D01*
X75000Y233724D02*
X78740Y229984D01*
X75000Y233724D02*
Y240030D01*
X62230Y143510D02*
X78740Y160020D01*
X41520Y207010D02*
X58420D01*
X71120Y194310D01*
Y171450D02*
Y194310D01*
X57150Y190500D02*
X63500Y184150D01*
Y157698D02*
Y184150D01*
X40021Y190500D02*
X57150D01*
X50090Y156210D02*
X62012D01*
X63500Y157698D01*
X93682Y193122D02*
Y200362D01*
X93600Y193040D02*
X93682Y193122D01*
X93600Y163450D02*
Y193040D01*
X60960Y130810D02*
X93600Y163450D01*
X105090Y168910D02*
X107490D01*
X109220Y170640D01*
Y192962D01*
X25520Y190500D02*
Y207010D01*
X49515Y155635D02*
X50090Y156210D01*
X140000Y100000D02*
X150000D01*
X137500D02*
X140000D01*
Y135000D02*
X150000D01*
X140000Y165000D02*
X150000D01*
X120000Y125000D02*
X131270Y113730D01*
Y106230D02*
Y113730D01*
Y106230D02*
X137500Y100000D01*
X131270Y141230D02*
Y141340D01*
X105090Y156210D02*
X116400D01*
X131270Y141340D01*
Y141230D02*
X137500Y135000D01*
X140000D01*
X105090Y168910D02*
X116840D01*
X120750Y165000D01*
X140000D01*
X71240Y126860D02*
X100590Y156210D01*
X71240Y92710D02*
Y126860D01*
X50090Y143510D02*
X62230D01*
X86240Y77470D02*
Y92710D01*
Y99010D01*
X57150Y77470D02*
X71240D01*
X26670Y170060D02*
X27245Y169485D01*
X49515D02*
X50090Y168910D01*
X27245Y169485D02*
X49515D01*
X100590Y143510D02*
X105090D01*
X98860Y141780D02*
X100590Y143510D01*
X98860Y141780D02*
Y141780D01*
X91440Y134360D02*
X98860Y141780D01*
X50090Y130810D02*
X60960D01*
X26670Y140850D02*
Y155060D01*
X27245Y155635D01*
X11332Y162462D02*
X18930Y170060D01*
X26670D01*
X27245Y155635D02*
X49515D01*
X26670Y118110D02*
Y125850D01*
X11332Y123288D02*
Y162462D01*
X26670Y118110D02*
X33020Y111760D01*
X11332Y123288D02*
X57150Y77470D01*
X100590Y156210D02*
X105090D01*
X86240Y99010D02*
X95740Y108510D01*
X91440Y116060D02*
Y134360D01*
Y116060D02*
X95740Y111760D01*
Y108510D02*
Y111760D01*
X33020D02*
X61740D01*
D13*
X105090Y130810D02*
D03*
Y143510D02*
D03*
Y156210D02*
D03*
Y168910D02*
D03*
X50090Y130810D02*
D03*
Y143510D02*
D03*
Y156210D02*
D03*
Y168910D02*
D03*
D14*
X140000Y200000D02*
D03*
Y100000D02*
D03*
Y135000D02*
D03*
Y165000D02*
D03*
D15*
X25520Y190500D02*
D03*
X40520D02*
D03*
X71240Y92710D02*
D03*
X86240D02*
D03*
X71240Y77470D02*
D03*
X86240D02*
D03*
D16*
X25520Y207010D02*
D03*
X41520D02*
D03*
X93600Y193040D02*
D03*
X109600D02*
D03*
D17*
X92000Y111760D02*
D03*
X58000D02*
D03*
D18*
X26670Y140850D02*
D03*
Y125850D02*
D03*
Y155060D02*
D03*
Y170060D02*
D03*
D27*
X134000Y284000D02*
D03*
X16000D02*
D03*
X134000Y16000D02*
D03*
X16000D02*
D03*
D28*
X120000Y125000D02*
D03*
X75000Y37340D02*
D03*
Y240030D02*
D03*
X71120Y171450D02*
D03*
D29*
X150000Y100000D02*
D03*
Y135000D02*
D03*
Y165000D02*
D03*
M02*
