G04*
G04 #@! TF.GenerationSoftware,Altium Limited,Altium Designer,23.10.1 (27)*
G04*
G04 Layer_Color=32768*
%FSLAX44Y44*%
%MOMM*%
G71*
G04*
G04 #@! TF.SameCoordinates,C40AB362-5B66-420F-9F68-920D16D289EC*
G04*
G04*
G04 #@! TF.FilePolarity,Positive*
G04*
G01*
G75*
%ADD11C,0.1000*%
%ADD12C,0.1270*%
D11*
X71740Y242870D02*
X85740D01*
X71740Y216870D02*
Y242870D01*
Y216870D02*
X85740D01*
Y242870D01*
X131430Y223820D02*
X145430D01*
X131430Y197820D02*
Y223820D01*
Y197820D02*
X145430D01*
Y223820D01*
X136190Y252080D02*
Y266080D01*
X110190D02*
X136190D01*
X110190Y252080D02*
Y266080D01*
Y252080D02*
X136190D01*
X110190Y236840D02*
Y250840D01*
Y236840D02*
X136190D01*
Y250840D01*
X110190D02*
X136190D01*
X129840Y140320D02*
Y154320D01*
X103840D02*
X129840D01*
X103840Y140320D02*
Y154320D01*
Y140320D02*
X129840D01*
D12*
X127762Y166878D02*
X141478D01*
Y196342D01*
X127762D02*
X141478D01*
X127762Y166878D02*
Y196342D01*
X145542Y194818D02*
X159258D01*
Y224282D01*
X145542D02*
X159258D01*
X145542Y194818D02*
Y224282D01*
X87884Y181610D02*
Y217170D01*
X69596Y181610D02*
X87884D01*
X69596D02*
Y217170D01*
X87884D01*
X95250Y165100D02*
X129540D01*
X95250Y226060D02*
X129540D01*
X95250Y165100D02*
Y226060D01*
X129540Y165100D02*
Y226060D01*
X162822Y131420D02*
X248928D01*
Y268580D01*
X162822D02*
X248928D01*
X162822Y131420D02*
Y268580D01*
M02*
