G04*
G04 #@! TF.GenerationSoftware,Altium Limited,Altium Designer,23.11.1 (41)*
G04*
G04 Layer_Color=32768*
%FSLAX44Y44*%
%MOMM*%
G71*
G04*
G04 #@! TF.SameCoordinates,663EB88F-05E0-4BFF-A99C-D42E022A2D9A*
G04*
G04*
G04 #@! TF.FilePolarity,Positive*
G04*
G01*
G75*
%ADD11C,0.1270*%
%ADD12C,0.1000*%
D11*
X99892Y100584D02*
Y122936D01*
X50108Y100584D02*
X99892D01*
X50108D02*
Y122936D01*
X99892D01*
X111822Y213142D02*
Y226858D01*
X82358D02*
X111822D01*
X82358Y213142D02*
Y226858D01*
Y213142D02*
X111822D01*
Y186182D02*
Y199898D01*
X82358D02*
X111822D01*
X82358Y186182D02*
Y199898D01*
Y186182D02*
X111822D01*
X42030Y125730D02*
Y180340D01*
X113150Y125730D02*
Y180340D01*
X42030D02*
X113150D01*
X42030Y125730D02*
X113150D01*
D12*
X19670Y146350D02*
X33670D01*
X19670Y120350D02*
Y146350D01*
Y120350D02*
X33670D01*
Y146350D01*
X19670Y149560D02*
X33670D01*
Y175560D01*
X19670D02*
X33670D01*
X19670Y149560D02*
Y175560D01*
X65740Y85710D02*
Y99710D01*
Y85710D02*
X91740D01*
Y99710D01*
X65740D02*
X91740D01*
X94280Y229220D02*
Y243220D01*
X68280D02*
X94280D01*
X68280Y229220D02*
Y243220D01*
Y229220D02*
X94280D01*
X65740Y70470D02*
Y84470D01*
Y70470D02*
X91740D01*
Y84470D01*
X65740D02*
X91740D01*
M02*
