G04*
G04 #@! TF.GenerationSoftware,Altium Limited,Altium Designer,23.11.1 (41)*
G04*
G04 Layer_Color=65535*
%FSLAX44Y44*%
%MOMM*%
G71*
G04*
G04 #@! TF.SameCoordinates,D4B6ECC5-B607-4844-A390-64D59AB080A4*
G04*
G04*
G04 #@! TF.FilePolarity,Positive*
G04*
G01*
G75*
%ADD10C,0.2540*%
%ADD11C,0.1000*%
%ADD12C,0.1270*%
G36*
X81301Y297407D02*
X81361D01*
Y297347D01*
X81420D01*
Y297287D01*
X81480D01*
Y297228D01*
X81539D01*
Y297108D01*
X81659D01*
Y296989D01*
X81778D01*
Y296929D01*
X81838D01*
Y296869D01*
X81898D01*
Y296810D01*
X81957D01*
Y296750D01*
X82017D01*
Y296690D01*
X82196D01*
Y296631D01*
X82256D01*
Y296571D01*
X82435D01*
Y296511D01*
X82614D01*
Y296452D01*
X82674D01*
Y296392D01*
X83032D01*
Y296332D01*
X83151D01*
Y296273D01*
X83868D01*
Y296213D01*
X84285D01*
Y296153D01*
X92344D01*
Y296093D01*
X92404D01*
Y295974D01*
X92344D01*
Y295914D01*
X92404D01*
Y294004D01*
X92344D01*
Y293944D01*
X90315D01*
Y294004D01*
X89837D01*
Y294064D01*
X89180D01*
Y294123D01*
X88763D01*
Y294183D01*
X88404D01*
Y294243D01*
X87867D01*
Y294303D01*
X87748D01*
Y294362D01*
X87210D01*
Y294422D01*
X87031D01*
Y294482D01*
X86912D01*
Y294541D01*
X86554D01*
Y294601D01*
X86434D01*
Y294661D01*
X86196D01*
Y294720D01*
X86017D01*
Y294780D01*
X85837D01*
Y294840D01*
X85479D01*
Y294900D01*
X85360D01*
Y294959D01*
X85121D01*
Y295019D01*
X85002D01*
Y295079D01*
X84763D01*
Y295138D01*
X84584D01*
Y295198D01*
X84524D01*
Y295258D01*
X84285D01*
Y295317D01*
X84166D01*
Y295377D01*
X83868D01*
Y295437D01*
X83808D01*
Y295497D01*
X83688D01*
Y295556D01*
X83509D01*
Y295616D01*
X83390D01*
Y295676D01*
X83271D01*
Y295735D01*
X83211D01*
Y295795D01*
X83032D01*
Y295855D01*
X82913D01*
Y295914D01*
X82853D01*
Y295974D01*
X82733D01*
Y296034D01*
X82674D01*
Y296093D01*
X82554D01*
Y296153D01*
X82495D01*
Y296213D01*
X82435D01*
Y296273D01*
X82316D01*
Y296332D01*
X82196D01*
Y296392D01*
X82136D01*
Y296452D01*
X82077D01*
Y296511D01*
X81957D01*
Y296631D01*
X81838D01*
Y296690D01*
X81778D01*
Y296810D01*
X81659D01*
Y296929D01*
X81599D01*
Y296989D01*
X81539D01*
Y297048D01*
X81480D01*
Y297108D01*
X81420D01*
Y297168D01*
X81361D01*
Y297287D01*
X81301D01*
Y297347D01*
X81241D01*
Y297466D01*
X81301D01*
Y297407D01*
D02*
G37*
G36*
X82077Y295437D02*
X82136D01*
Y295377D01*
X82256D01*
Y295258D01*
X82316D01*
Y295198D01*
X82375D01*
Y295138D01*
X82495D01*
Y295079D01*
X82554D01*
Y295019D01*
X82614D01*
Y294959D01*
X82674D01*
Y294900D01*
X82733D01*
Y294840D01*
X82853D01*
Y294780D01*
X82913D01*
Y294720D01*
X82972D01*
Y294661D01*
X83092D01*
Y294601D01*
X83151D01*
Y294541D01*
X83271D01*
Y294482D01*
X83330D01*
Y294422D01*
X83390D01*
Y294362D01*
X83450D01*
Y294303D01*
X83509D01*
Y294243D01*
X83629D01*
Y294183D01*
X83688D01*
Y294123D01*
X83868D01*
Y294064D01*
X83927D01*
Y294004D01*
X83987D01*
Y293944D01*
X84166D01*
Y293885D01*
X84285D01*
Y293825D01*
X84465D01*
Y293765D01*
X84524D01*
Y293706D01*
X84584D01*
Y293646D01*
X84703D01*
Y293586D01*
X84823D01*
Y293527D01*
X84942D01*
Y293467D01*
X85002D01*
Y293407D01*
X85121D01*
Y293347D01*
X85240D01*
Y293288D01*
X85300D01*
Y293228D01*
X85420D01*
Y293168D01*
X85479D01*
Y293109D01*
X85599D01*
Y293049D01*
X85658D01*
Y292930D01*
X85599D01*
Y292989D01*
X85479D01*
Y293049D01*
X85420D01*
Y293109D01*
X85240D01*
Y293168D01*
X85181D01*
Y293228D01*
X84942D01*
Y293288D01*
X84882D01*
Y293228D01*
X84763D01*
Y293168D01*
X84703D01*
Y289229D01*
X84763D01*
Y289109D01*
X84823D01*
Y289050D01*
X91150D01*
Y289109D01*
X91329D01*
Y289050D01*
X91628D01*
Y289109D01*
X91926D01*
Y289050D01*
X92344D01*
Y288930D01*
X92404D01*
Y286841D01*
X92344D01*
Y286781D01*
X84882D01*
Y286721D01*
X84823D01*
Y286662D01*
X84703D01*
Y284692D01*
Y284632D01*
Y278066D01*
X84644D01*
Y278006D01*
X84226D01*
Y278066D01*
X82077D01*
Y278305D01*
X82017D01*
Y282722D01*
X82077D01*
Y283438D01*
X82017D01*
Y285707D01*
X82077D01*
Y292094D01*
X82017D01*
Y292273D01*
X82077D01*
Y293288D01*
X82017D01*
Y295497D01*
X82077D01*
Y295437D01*
D02*
G37*
G36*
X85778Y292870D02*
X85718D01*
Y292930D01*
X85778D01*
Y292870D01*
D02*
G37*
G36*
X64228Y291139D02*
X64288D01*
Y291079D01*
X64109D01*
Y291139D01*
X63870D01*
Y291199D01*
X64228D01*
Y291139D01*
D02*
G37*
G36*
X64945Y291019D02*
X65064D01*
Y290960D01*
X64825D01*
Y291019D01*
X64646D01*
Y291079D01*
X64945D01*
Y291019D01*
D02*
G37*
G36*
X67512Y296332D02*
X67571D01*
Y296273D01*
X67631D01*
Y295974D01*
X67691D01*
Y295914D01*
X67750D01*
Y295795D01*
X67810D01*
Y295616D01*
X67870D01*
Y295497D01*
X67929D01*
Y295258D01*
X67989D01*
Y295138D01*
X68049D01*
Y294959D01*
X68109D01*
Y294840D01*
X68168D01*
Y294720D01*
X68228D01*
Y294422D01*
X68288D01*
Y294303D01*
X68347D01*
Y294123D01*
X68407D01*
Y294004D01*
X68467D01*
Y293825D01*
X68526D01*
Y293646D01*
X68586D01*
Y293527D01*
X68646D01*
Y293288D01*
X68706D01*
Y293168D01*
X68765D01*
Y292930D01*
X68825D01*
Y292870D01*
X68885D01*
Y292751D01*
X68944D01*
Y292572D01*
X69004D01*
Y292512D01*
X69064D01*
Y292333D01*
X69123D01*
Y292213D01*
X69183D01*
Y292094D01*
X69243D01*
Y291915D01*
X69302D01*
Y291796D01*
X69362D01*
Y291557D01*
X69422D01*
Y291437D01*
X69482D01*
Y291318D01*
X69541D01*
Y291139D01*
X69601D01*
Y291079D01*
X69661D01*
Y290900D01*
X69720D01*
Y290781D01*
X69780D01*
Y290602D01*
X69840D01*
Y290542D01*
X69899D01*
Y290422D01*
X69959D01*
Y290243D01*
X70019D01*
Y290184D01*
X70078D01*
Y290005D01*
X70138D01*
Y289885D01*
X70198D01*
Y289826D01*
X70258D01*
Y289706D01*
X70317D01*
Y289587D01*
X70377D01*
Y289467D01*
X70437D01*
Y289408D01*
X70496D01*
Y289288D01*
X70556D01*
Y289229D01*
X70616D01*
Y289109D01*
X70675D01*
Y288930D01*
X70735D01*
Y288871D01*
X70795D01*
Y288751D01*
X70854D01*
Y288691D01*
X70914D01*
Y288572D01*
X70974D01*
Y288512D01*
X71034D01*
Y288393D01*
X71093D01*
Y288274D01*
X71153D01*
Y288214D01*
X71213D01*
Y288035D01*
X71332D01*
Y287915D01*
X71392D01*
Y287856D01*
X71451D01*
Y287796D01*
X71511D01*
Y287617D01*
X71571D01*
Y287557D01*
X71630D01*
Y287498D01*
X71690D01*
Y287438D01*
X71750D01*
Y287378D01*
X71810D01*
Y287259D01*
X71929D01*
Y287139D01*
X71989D01*
Y287080D01*
X72048D01*
Y286960D01*
X71989D01*
Y287080D01*
X71810D01*
Y287199D01*
X71690D01*
Y287259D01*
X71630D01*
Y287318D01*
X71571D01*
Y287378D01*
X71511D01*
Y287498D01*
X71451D01*
Y287557D01*
X71392D01*
Y287617D01*
X71332D01*
Y287736D01*
X71272D01*
Y287796D01*
X71213D01*
Y287856D01*
X71153D01*
Y287915D01*
X71093D01*
Y288035D01*
X71034D01*
Y288095D01*
X70974D01*
Y288154D01*
X70914D01*
Y288274D01*
X70854D01*
Y288333D01*
X70795D01*
Y288393D01*
X70735D01*
Y288453D01*
X70675D01*
Y288512D01*
X70616D01*
Y288572D01*
X70556D01*
Y288632D01*
X70496D01*
Y288691D01*
X70437D01*
Y288751D01*
X70377D01*
Y288811D01*
X70317D01*
Y288871D01*
X70258D01*
Y288930D01*
X70198D01*
Y288990D01*
X70138D01*
Y289050D01*
X70078D01*
Y289109D01*
X70019D01*
Y289169D01*
X69959D01*
Y289229D01*
X69899D01*
Y289288D01*
X69840D01*
Y289348D01*
X69780D01*
Y289408D01*
X69720D01*
Y289467D01*
X69661D01*
Y289527D01*
X69601D01*
Y289587D01*
X69541D01*
Y289646D01*
X69482D01*
Y289706D01*
X69422D01*
Y289766D01*
X69362D01*
Y289826D01*
X69243D01*
Y289885D01*
X69183D01*
Y289945D01*
X69064D01*
Y290005D01*
X69004D01*
Y290064D01*
X68944D01*
Y290124D01*
X68885D01*
Y290184D01*
X68825D01*
Y290243D01*
X68706D01*
Y290303D01*
X68646D01*
Y290363D01*
X68526D01*
Y290422D01*
X68467D01*
Y290482D01*
X68407D01*
Y290542D01*
X68347D01*
Y290602D01*
X68288D01*
Y290661D01*
X68168D01*
Y290721D01*
X68109D01*
Y290781D01*
X68049D01*
Y290840D01*
X67929D01*
Y290900D01*
X67870D01*
Y290960D01*
X67691D01*
Y291019D01*
X67631D01*
Y291079D01*
X67512D01*
Y291139D01*
X67452D01*
Y291199D01*
X67333D01*
Y291258D01*
X67213D01*
Y291318D01*
X67153D01*
Y291378D01*
X66974D01*
Y291437D01*
X66855D01*
Y291497D01*
X66795D01*
Y291557D01*
X66676D01*
Y291616D01*
X66616D01*
Y291676D01*
X66437D01*
Y291736D01*
X66377D01*
Y291796D01*
X66318D01*
Y291855D01*
X66198D01*
Y291975D01*
X66139D01*
Y292034D01*
X66079D01*
Y292154D01*
X66019D01*
Y292213D01*
X66079D01*
Y292333D01*
X66019D01*
Y292452D01*
X66079D01*
Y292930D01*
X66139D01*
Y292989D01*
X66198D01*
Y293288D01*
X66258D01*
Y293407D01*
X66318D01*
Y293527D01*
X66377D01*
Y293706D01*
X66437D01*
Y293765D01*
X66497D01*
Y294004D01*
X66557D01*
Y294064D01*
X66616D01*
Y294303D01*
X66676D01*
Y294422D01*
X66736D01*
Y294541D01*
X66795D01*
Y294780D01*
X66855D01*
Y294900D01*
X66915D01*
Y295198D01*
X66974D01*
Y295258D01*
X67034D01*
Y295437D01*
X67094D01*
Y295616D01*
X67153D01*
Y295735D01*
X67213D01*
Y295974D01*
X67273D01*
Y296093D01*
X67333D01*
Y296332D01*
X67392D01*
Y296511D01*
X67512D01*
Y296332D01*
D02*
G37*
G36*
X79391Y295974D02*
X79331D01*
Y295855D01*
X79271D01*
Y295735D01*
X79212D01*
Y295497D01*
X79152D01*
Y295437D01*
X79092D01*
Y295198D01*
X79032D01*
Y295138D01*
X78973D01*
Y294900D01*
X78913D01*
Y294840D01*
Y294780D01*
X78853D01*
Y294601D01*
X78794D01*
Y294362D01*
X78734D01*
Y294303D01*
X78674D01*
Y294064D01*
X78615D01*
Y293944D01*
X78555D01*
Y293825D01*
X78495D01*
Y293706D01*
X78436D01*
Y293586D01*
X78376D01*
Y293288D01*
X78316D01*
Y293228D01*
X78256D01*
Y292989D01*
X78197D01*
Y292870D01*
X78137D01*
Y292691D01*
X78077D01*
Y292512D01*
X78018D01*
Y292452D01*
X77958D01*
Y292213D01*
X77898D01*
Y292094D01*
X77839D01*
Y291855D01*
X77779D01*
Y291736D01*
X77719D01*
Y291557D01*
X77660D01*
Y291318D01*
X77600D01*
Y291258D01*
X77540D01*
Y291019D01*
X77480D01*
Y290900D01*
X77421D01*
Y290781D01*
X77361D01*
Y290602D01*
X77301D01*
Y290422D01*
X77242D01*
Y290303D01*
X77182D01*
Y290184D01*
X77122D01*
Y290005D01*
X77063D01*
Y289826D01*
X77003D01*
Y289706D01*
X76943D01*
Y289527D01*
X76883D01*
Y289408D01*
X76824D01*
Y289169D01*
X76764D01*
Y289050D01*
X76704D01*
Y288871D01*
X76645D01*
Y288691D01*
X76585D01*
Y288572D01*
X76525D01*
Y288333D01*
X76466D01*
Y288214D01*
X76406D01*
Y288035D01*
X76346D01*
Y287856D01*
X76287D01*
Y287736D01*
X76227D01*
Y287557D01*
X76167D01*
Y287438D01*
X76107D01*
Y287139D01*
X76048D01*
Y287080D01*
X75988D01*
Y286960D01*
X75928D01*
Y286781D01*
X75869D01*
Y286662D01*
X75809D01*
Y286483D01*
X75749D01*
Y286363D01*
X75690D01*
Y286184D01*
X75630D01*
Y286005D01*
X75570D01*
Y285886D01*
X75511D01*
Y285647D01*
X75451D01*
Y285587D01*
X75391D01*
Y285349D01*
X75331D01*
Y285170D01*
X75272D01*
Y285110D01*
X75212D01*
Y284811D01*
X75152D01*
Y284692D01*
X75093D01*
Y284453D01*
X75033D01*
Y284334D01*
X74973D01*
Y284155D01*
X74914D01*
Y284035D01*
X74854D01*
Y283916D01*
X74794D01*
Y283677D01*
X74735D01*
Y283558D01*
X74675D01*
Y283379D01*
X74615D01*
Y283259D01*
X74555D01*
Y283140D01*
X74496D01*
Y282961D01*
X74436D01*
Y282841D01*
X74376D01*
Y282662D01*
X74317D01*
Y282543D01*
X74257D01*
Y282304D01*
X74197D01*
Y282125D01*
X74138D01*
Y282006D01*
X74078D01*
Y281767D01*
X74018D01*
Y281648D01*
X73959D01*
Y281469D01*
X73899D01*
Y281349D01*
X73839D01*
Y281170D01*
X73779D01*
Y280991D01*
X73720D01*
Y280872D01*
X73660D01*
Y280573D01*
X73600D01*
Y280513D01*
X73541D01*
Y280275D01*
X73481D01*
Y280096D01*
X73421D01*
Y279976D01*
X73362D01*
Y279797D01*
X73302D01*
Y279678D01*
X73242D01*
Y279499D01*
X73183D01*
Y279319D01*
X73123D01*
Y279200D01*
X73063D01*
Y279081D01*
X73003D01*
Y278961D01*
X72944D01*
Y278723D01*
X72884D01*
Y278603D01*
X72824D01*
Y278484D01*
X72765D01*
Y278305D01*
X72705D01*
Y278126D01*
X72645D01*
Y277887D01*
X72586D01*
Y277768D01*
X72466D01*
Y278006D01*
X72406D01*
Y278126D01*
X72347D01*
Y278364D01*
X72287D01*
Y278424D01*
X72227D01*
Y278663D01*
X72168D01*
Y278782D01*
X72108D01*
Y278961D01*
X72048D01*
Y279140D01*
X71989D01*
Y279200D01*
X71929D01*
Y279379D01*
X71869D01*
Y279439D01*
X71810D01*
Y279618D01*
X71750D01*
Y279797D01*
X71690D01*
Y279916D01*
X71630D01*
Y280155D01*
X71571D01*
Y280215D01*
X71511D01*
Y280454D01*
X71451D01*
Y280573D01*
X71392D01*
Y280633D01*
X71332D01*
Y280931D01*
X71272D01*
Y280991D01*
X71213D01*
Y281230D01*
X71153D01*
Y281349D01*
X71093D01*
Y281588D01*
X71034D01*
Y281707D01*
X70974D01*
Y281827D01*
X70914D01*
Y282065D01*
X70854D01*
Y282125D01*
X70795D01*
Y282424D01*
X70735D01*
Y282483D01*
X70675D01*
Y282603D01*
X70616D01*
Y282782D01*
X70556D01*
Y282841D01*
X70496D01*
Y283080D01*
X70437D01*
Y283140D01*
X70377D01*
Y283379D01*
X70317D01*
Y283498D01*
X70258D01*
Y283617D01*
X70198D01*
Y283856D01*
X70138D01*
Y283976D01*
X70078D01*
Y284274D01*
X70019D01*
Y284334D01*
X69959D01*
Y284453D01*
X69899D01*
Y284632D01*
X69840D01*
Y284692D01*
X69780D01*
Y284931D01*
X69720D01*
Y285050D01*
X69661D01*
Y285229D01*
X69601D01*
Y285408D01*
X69541D01*
Y285528D01*
X69482D01*
Y285766D01*
X69422D01*
Y285826D01*
X69362D01*
Y286065D01*
X69302D01*
Y286184D01*
X69243D01*
Y286363D01*
X69183D01*
Y286542D01*
X69123D01*
Y286602D01*
X69064D01*
Y286781D01*
X69004D01*
Y286841D01*
X68944D01*
Y287020D01*
X68885D01*
Y287199D01*
X68825D01*
Y287318D01*
X68765D01*
Y287557D01*
X68706D01*
Y287617D01*
X68646D01*
Y287856D01*
X68586D01*
Y287975D01*
X68526D01*
Y288154D01*
X68467D01*
Y288333D01*
X68407D01*
Y288453D01*
X68347D01*
Y288632D01*
X68288D01*
Y288751D01*
X68228D01*
Y288930D01*
X68168D01*
Y289050D01*
X68109D01*
Y289229D01*
X68049D01*
Y289467D01*
X67989D01*
Y289527D01*
X67929D01*
Y289706D01*
X67870D01*
Y289766D01*
X67810D01*
Y289885D01*
X67870D01*
Y289826D01*
X67989D01*
Y289766D01*
X68049D01*
Y289706D01*
X68168D01*
Y289646D01*
X68288D01*
Y289527D01*
X68467D01*
Y289467D01*
X68526D01*
Y289408D01*
X68586D01*
Y289348D01*
X68706D01*
Y289288D01*
X68765D01*
Y289229D01*
X68825D01*
Y289169D01*
X68885D01*
Y289109D01*
X69004D01*
Y289050D01*
X69064D01*
Y288990D01*
X69183D01*
Y288930D01*
X69243D01*
Y288871D01*
X69302D01*
Y288811D01*
X69362D01*
Y288751D01*
X69422D01*
Y288691D01*
X69541D01*
Y288632D01*
X69601D01*
Y288572D01*
X69661D01*
Y288512D01*
X69720D01*
Y288453D01*
X69780D01*
Y288393D01*
X69840D01*
Y288333D01*
X69899D01*
Y288274D01*
X69959D01*
Y288214D01*
X70019D01*
Y288154D01*
X70078D01*
Y288095D01*
X70138D01*
Y288035D01*
X70198D01*
Y287975D01*
X70258D01*
Y287915D01*
X70317D01*
Y287856D01*
X70377D01*
Y287796D01*
X70437D01*
Y287736D01*
X70496D01*
Y287617D01*
X70556D01*
Y287557D01*
X70616D01*
Y287498D01*
X70675D01*
Y287378D01*
X70735D01*
Y287318D01*
X70795D01*
Y287199D01*
X70854D01*
Y287139D01*
X70914D01*
Y287020D01*
X70974D01*
Y286960D01*
X71034D01*
Y286841D01*
X71093D01*
Y286721D01*
X71153D01*
Y286662D01*
X71213D01*
Y286423D01*
X71272D01*
Y286304D01*
X71332D01*
Y286244D01*
X71392D01*
Y286065D01*
X71451D01*
Y285945D01*
X71511D01*
Y285766D01*
X71571D01*
Y285707D01*
X71630D01*
Y285468D01*
X71690D01*
Y285408D01*
X71750D01*
Y285289D01*
X71810D01*
Y285050D01*
X71869D01*
Y284931D01*
X71929D01*
Y284692D01*
X71989D01*
Y284513D01*
X72048D01*
Y284334D01*
X72108D01*
Y284155D01*
X72168D01*
Y284095D01*
X72466D01*
Y284155D01*
X72526D01*
Y284214D01*
X72586D01*
Y284274D01*
X72645D01*
Y284513D01*
X72705D01*
Y284632D01*
X72765D01*
Y284811D01*
X72824D01*
Y285050D01*
X72884D01*
Y285170D01*
X72944D01*
Y285408D01*
X73003D01*
Y285468D01*
X73063D01*
Y285766D01*
X73123D01*
Y285826D01*
X73183D01*
Y286005D01*
X73242D01*
Y286184D01*
X73302D01*
Y286304D01*
X73362D01*
Y286483D01*
X73421D01*
Y286602D01*
X73481D01*
Y286841D01*
X73541D01*
Y286960D01*
X73600D01*
Y287020D01*
X73660D01*
Y287318D01*
X73720D01*
Y287378D01*
X73779D01*
Y287736D01*
X73839D01*
Y287856D01*
X73899D01*
Y288035D01*
X73959D01*
Y288214D01*
X74018D01*
Y288274D01*
X74078D01*
Y288572D01*
X74138D01*
Y288691D01*
X74197D01*
Y288871D01*
X74257D01*
Y289050D01*
X74317D01*
Y289229D01*
X74376D01*
Y289467D01*
X74436D01*
Y289527D01*
X74496D01*
Y289766D01*
X74555D01*
Y289885D01*
X74615D01*
Y290064D01*
X74675D01*
Y290243D01*
X74735D01*
Y290363D01*
X74794D01*
Y290542D01*
X74854D01*
Y290661D01*
X74914D01*
Y290900D01*
X74973D01*
Y291079D01*
X75033D01*
Y291199D01*
X75093D01*
Y291378D01*
X75152D01*
Y291497D01*
X75212D01*
Y291736D01*
X75272D01*
Y291915D01*
X75331D01*
Y292094D01*
X75391D01*
Y292213D01*
X75451D01*
Y292333D01*
X75511D01*
Y292631D01*
X75570D01*
Y292691D01*
X75630D01*
Y292930D01*
X75690D01*
Y293049D01*
X75749D01*
Y293168D01*
X75809D01*
Y293527D01*
X75869D01*
Y293586D01*
X75928D01*
Y293825D01*
X75988D01*
Y293885D01*
X76048D01*
Y294123D01*
X76107D01*
Y294243D01*
X76167D01*
Y294303D01*
X76227D01*
Y294601D01*
X76287D01*
Y294720D01*
X76346D01*
Y294900D01*
X76406D01*
Y295079D01*
X76466D01*
Y295198D01*
X76525D01*
Y295437D01*
X76585D01*
Y295497D01*
X76645D01*
Y295795D01*
X76704D01*
Y295855D01*
X76764D01*
Y296093D01*
X76824D01*
Y296153D01*
X79391D01*
Y295974D01*
D02*
G37*
G36*
X58199Y296093D02*
X58259D01*
Y296034D01*
X58319D01*
Y295795D01*
X58379D01*
Y295616D01*
X58438D01*
Y295497D01*
X58498D01*
Y295258D01*
X58558D01*
Y295198D01*
X58617D01*
Y294959D01*
X58677D01*
Y294840D01*
X58737D01*
Y294661D01*
X58796D01*
Y294422D01*
X58856D01*
Y294362D01*
X58916D01*
Y294064D01*
X58975D01*
Y294004D01*
X59035D01*
Y293825D01*
X59095D01*
Y293646D01*
X59155D01*
Y293527D01*
X59214D01*
Y293288D01*
X59274D01*
Y293168D01*
X59334D01*
Y292930D01*
X59393D01*
Y292870D01*
X59453D01*
Y292751D01*
X59513D01*
Y292572D01*
X59572D01*
Y292452D01*
X59632D01*
Y292213D01*
X59692D01*
Y292094D01*
X59751D01*
Y291855D01*
X59811D01*
Y291736D01*
X59871D01*
Y291616D01*
X59931D01*
Y291318D01*
X59990D01*
Y291258D01*
X60050D01*
Y290960D01*
X60110D01*
Y290900D01*
X60169D01*
Y290721D01*
X60229D01*
Y290542D01*
X60289D01*
Y290363D01*
X60348D01*
Y290124D01*
X60408D01*
Y290064D01*
X60468D01*
Y289826D01*
X60527D01*
Y289766D01*
X60587D01*
Y289587D01*
X60647D01*
Y289348D01*
X60707D01*
Y289288D01*
X60766D01*
Y289050D01*
X60826D01*
Y288930D01*
X60886D01*
Y288811D01*
X60945D01*
Y288632D01*
X61005D01*
Y288512D01*
X61065D01*
Y288214D01*
X61124D01*
Y288154D01*
X61184D01*
Y287856D01*
X61244D01*
Y287736D01*
X61304D01*
Y287617D01*
X61363D01*
Y287378D01*
X61423D01*
Y287318D01*
X61483D01*
Y287080D01*
X61542D01*
Y286960D01*
X61602D01*
Y286781D01*
X61662D01*
Y286602D01*
X61721D01*
Y286483D01*
X61781D01*
Y286184D01*
X61841D01*
Y286065D01*
X61900D01*
Y285886D01*
X61960D01*
Y285707D01*
X62020D01*
Y285587D01*
X62080D01*
Y285349D01*
X62139D01*
Y285229D01*
X62199D01*
Y285050D01*
X62259D01*
Y284990D01*
X62318D01*
Y284811D01*
X62378D01*
Y284632D01*
X62438D01*
Y284453D01*
X62497D01*
Y284274D01*
X62557D01*
Y284155D01*
X62617D01*
Y284095D01*
X62915D01*
Y284155D01*
X62975D01*
Y284214D01*
X63035D01*
Y284334D01*
X63094D01*
Y284453D01*
X63154D01*
Y284573D01*
X63214D01*
Y284811D01*
X63273D01*
Y284931D01*
X63333D01*
Y285229D01*
X63393D01*
Y285408D01*
X63452D01*
Y285528D01*
X63512D01*
Y285766D01*
X63572D01*
Y285886D01*
X63632D01*
Y286005D01*
X63691D01*
Y286125D01*
X63751D01*
Y286363D01*
X63811D01*
Y286542D01*
X63870D01*
Y286662D01*
X63930D01*
Y286841D01*
X63990D01*
Y286960D01*
X64049D01*
Y287199D01*
X64109D01*
Y287318D01*
X64169D01*
Y287557D01*
X64228D01*
Y287677D01*
X64288D01*
Y287856D01*
X64348D01*
Y288095D01*
X64408D01*
Y288274D01*
X64467D01*
Y288453D01*
X64527D01*
Y288572D01*
X64587D01*
Y288751D01*
X64646D01*
Y288990D01*
X64706D01*
Y289109D01*
X64766D01*
Y289348D01*
X64825D01*
Y289467D01*
X64885D01*
Y289706D01*
X64945D01*
Y289826D01*
X65004D01*
Y289945D01*
X65064D01*
Y290184D01*
X65124D01*
Y290243D01*
X65184D01*
Y290422D01*
X65243D01*
Y290781D01*
X65184D01*
Y290900D01*
X65124D01*
Y290960D01*
X65422D01*
Y290900D01*
X65542D01*
Y290840D01*
X65721D01*
Y290781D01*
X65900D01*
Y290721D01*
X66019D01*
Y290661D01*
X66258D01*
Y290602D01*
X66377D01*
Y290542D01*
X66557D01*
Y290482D01*
X66676D01*
Y290422D01*
X66795D01*
Y290363D01*
X66915D01*
Y290303D01*
X66974D01*
Y290243D01*
X67153D01*
Y290184D01*
X67213D01*
Y290064D01*
X67153D01*
Y289945D01*
X67094D01*
Y289766D01*
X67034D01*
Y289646D01*
X66974D01*
Y289527D01*
X66915D01*
Y289288D01*
X66855D01*
Y289169D01*
X66795D01*
Y288990D01*
X66736D01*
Y288871D01*
X66676D01*
Y288632D01*
X66616D01*
Y288453D01*
X66557D01*
Y288393D01*
X66497D01*
Y288154D01*
X66437D01*
Y288035D01*
X66377D01*
Y287856D01*
X66318D01*
Y287677D01*
X66258D01*
Y287617D01*
X66198D01*
Y287438D01*
X66139D01*
Y287378D01*
X66079D01*
Y287139D01*
X66019D01*
Y287020D01*
X65960D01*
Y286841D01*
X65900D01*
Y286721D01*
X65840D01*
Y286602D01*
X65781D01*
Y286363D01*
X65721D01*
Y286184D01*
X65661D01*
Y286005D01*
X65601D01*
Y285886D01*
X65542D01*
Y285707D01*
X65482D01*
Y285528D01*
X65422D01*
Y285468D01*
X65363D01*
Y285229D01*
X65303D01*
Y285050D01*
X65243D01*
Y284931D01*
X65184D01*
Y284752D01*
Y284692D01*
X65124D01*
Y284573D01*
X65064D01*
Y284394D01*
X65004D01*
Y284334D01*
X64945D01*
Y284155D01*
X64885D01*
Y284035D01*
X64825D01*
Y283976D01*
X64766D01*
Y283677D01*
X64706D01*
Y283558D01*
X64646D01*
Y283379D01*
X64587D01*
Y283259D01*
X64527D01*
Y283080D01*
X64467D01*
Y282961D01*
X64408D01*
Y282841D01*
X64348D01*
Y282603D01*
X64288D01*
Y282483D01*
X64228D01*
Y282244D01*
X64169D01*
Y282125D01*
X64109D01*
Y282006D01*
X64049D01*
Y281707D01*
X63990D01*
Y281648D01*
X63930D01*
Y281409D01*
X63870D01*
Y281289D01*
X63811D01*
Y281110D01*
X63751D01*
Y280931D01*
X63691D01*
Y280872D01*
X63632D01*
Y280633D01*
X63572D01*
Y280573D01*
X63512D01*
Y280394D01*
X63452D01*
Y280275D01*
X63393D01*
Y280155D01*
X63333D01*
Y279976D01*
X63273D01*
Y279797D01*
X63214D01*
Y279558D01*
X63154D01*
Y279499D01*
X63094D01*
Y279260D01*
X63035D01*
Y279081D01*
X62975D01*
Y279021D01*
X62915D01*
Y278782D01*
X62856D01*
Y278663D01*
X62796D01*
Y278543D01*
X62736D01*
Y278364D01*
X62676D01*
Y278185D01*
X62617D01*
Y278006D01*
X62557D01*
Y277827D01*
X62497D01*
Y277708D01*
X62438D01*
Y277768D01*
X62378D01*
Y277947D01*
X62318D01*
Y278245D01*
X62259D01*
Y278305D01*
X62199D01*
Y278543D01*
X62139D01*
Y278663D01*
X62080D01*
Y278842D01*
X62020D01*
Y279021D01*
X61960D01*
Y279140D01*
X61900D01*
Y279379D01*
X61841D01*
Y279499D01*
X61781D01*
Y279678D01*
X61721D01*
Y279857D01*
X61662D01*
Y279976D01*
X61602D01*
Y280215D01*
X61542D01*
Y280275D01*
X61483D01*
Y280573D01*
X61423D01*
Y280693D01*
X61363D01*
Y280872D01*
X61304D01*
Y281051D01*
X61244D01*
Y281170D01*
X61184D01*
Y281409D01*
X61124D01*
Y281528D01*
X61065D01*
Y281707D01*
X61005D01*
Y281767D01*
X60945D01*
Y281886D01*
X60886D01*
Y282065D01*
X60826D01*
Y282185D01*
X60766D01*
Y282424D01*
X60707D01*
Y282543D01*
X60647D01*
Y282782D01*
X60587D01*
Y282901D01*
X60527D01*
Y283020D01*
X60468D01*
Y283259D01*
X60408D01*
Y283379D01*
X60348D01*
Y283617D01*
X60289D01*
Y283797D01*
X60229D01*
Y283856D01*
X60169D01*
Y284155D01*
X60110D01*
Y284214D01*
X60050D01*
Y284453D01*
X59990D01*
Y284573D01*
X59931D01*
Y284692D01*
X59871D01*
Y284931D01*
X59811D01*
Y285050D01*
X59751D01*
Y285289D01*
X59692D01*
Y285408D01*
X59632D01*
Y285587D01*
X59572D01*
Y285707D01*
X59513D01*
Y285826D01*
X59453D01*
Y285945D01*
X59393D01*
Y286065D01*
X59334D01*
Y286304D01*
X59274D01*
Y286423D01*
X59214D01*
Y286542D01*
X59155D01*
Y286841D01*
X59095D01*
Y286901D01*
X59035D01*
Y287139D01*
X58975D01*
Y287259D01*
X58916D01*
Y287438D01*
X58856D01*
Y287617D01*
X58796D01*
Y287736D01*
X58737D01*
Y287975D01*
X58677D01*
Y288035D01*
X58617D01*
Y288333D01*
X58558D01*
Y288453D01*
X58498D01*
Y288572D01*
X58438D01*
Y288751D01*
X58379D01*
Y288871D01*
X58319D01*
Y289109D01*
X58259D01*
Y289169D01*
X58199D01*
Y289408D01*
X58140D01*
Y289467D01*
X58080D01*
Y289587D01*
X58020D01*
Y289885D01*
X57961D01*
Y289945D01*
X57901D01*
Y290124D01*
X57841D01*
Y290303D01*
X57782D01*
Y290422D01*
X57722D01*
Y290661D01*
X57662D01*
Y290781D01*
X57603D01*
Y291019D01*
X57543D01*
Y291139D01*
X57483D01*
Y291318D01*
X57423D01*
Y291437D01*
X57364D01*
Y291557D01*
X57304D01*
Y291855D01*
X57244D01*
Y291915D01*
X57185D01*
Y292154D01*
X57125D01*
Y292333D01*
X57065D01*
Y292452D01*
X57006D01*
Y292631D01*
X56946D01*
Y292751D01*
X56886D01*
Y292930D01*
X56827D01*
Y292989D01*
X56767D01*
Y293228D01*
X56707D01*
Y293347D01*
X56647D01*
Y293467D01*
X56588D01*
Y293706D01*
X56528D01*
Y293765D01*
X56468D01*
Y294004D01*
X56409D01*
Y294123D01*
X56349D01*
Y294303D01*
X56289D01*
Y294482D01*
X56230D01*
Y294601D01*
X56170D01*
Y294900D01*
X56110D01*
Y294959D01*
X56050D01*
Y295138D01*
X55991D01*
Y295317D01*
X55931D01*
Y295497D01*
X55871D01*
Y295676D01*
X55812D01*
Y295795D01*
X55752D01*
Y295974D01*
X55692D01*
Y296153D01*
X58199D01*
Y296093D01*
D02*
G37*
G36*
X78734Y272097D02*
X78853D01*
Y271977D01*
Y271917D01*
Y267082D01*
X77958D01*
Y267142D01*
X77898D01*
Y272097D01*
X78316D01*
Y272156D01*
X78555D01*
Y272097D01*
X78674D01*
Y272156D01*
X78734D01*
Y272097D01*
D02*
G37*
G36*
X60886Y271798D02*
X60945D01*
Y271082D01*
X59751D01*
Y271022D01*
X59692D01*
Y267142D01*
X59632D01*
Y267082D01*
X58737D01*
Y267142D01*
X58677D01*
Y271022D01*
X58617D01*
Y271082D01*
X57423D01*
Y271798D01*
X57483D01*
Y271858D01*
X57603D01*
Y271798D01*
X57722D01*
Y271858D01*
X60707D01*
Y271798D01*
X60766D01*
Y271858D01*
X60886D01*
Y271798D01*
D02*
G37*
G36*
X88882Y271977D02*
X88941D01*
Y271917D01*
X89001D01*
Y271559D01*
Y271500D01*
Y271440D01*
X88941D01*
Y271380D01*
X88882D01*
Y271321D01*
X88822D01*
Y271261D01*
X88166D01*
Y271321D01*
X88106D01*
Y271380D01*
X88046D01*
Y271977D01*
X88106D01*
Y272037D01*
X88166D01*
Y272097D01*
X88882D01*
Y271977D01*
D02*
G37*
G36*
X71451Y270724D02*
X71690D01*
Y270664D01*
X71989D01*
Y270604D01*
X72048D01*
Y270545D01*
X72168D01*
Y270485D01*
X72227D01*
Y270425D01*
X72287D01*
Y270366D01*
X72347D01*
Y270306D01*
X72406D01*
Y270127D01*
X72466D01*
Y269948D01*
X72526D01*
Y269828D01*
X72586D01*
Y267142D01*
X72526D01*
Y267082D01*
X71630D01*
Y269351D01*
X71571D01*
Y269709D01*
X71511D01*
Y269769D01*
X71451D01*
Y269888D01*
X71392D01*
Y269948D01*
X71213D01*
Y270007D01*
X70735D01*
Y269948D01*
X70616D01*
Y269888D01*
X70496D01*
Y269828D01*
X70437D01*
Y269769D01*
X70377D01*
Y269709D01*
X70317D01*
Y269649D01*
X70258D01*
Y269410D01*
X70198D01*
Y269291D01*
X70138D01*
Y267082D01*
X69302D01*
Y267202D01*
X69243D01*
Y267321D01*
X69302D01*
Y267381D01*
X69243D01*
Y267560D01*
X69302D01*
Y268037D01*
Y268097D01*
Y268993D01*
X69243D01*
Y270366D01*
X69302D01*
Y270485D01*
X69243D01*
Y270604D01*
X69302D01*
Y270664D01*
X69959D01*
Y270485D01*
X70019D01*
Y270306D01*
X70078D01*
Y270246D01*
X70138D01*
Y270306D01*
X70258D01*
Y270366D01*
X70317D01*
Y270485D01*
X70437D01*
Y270545D01*
X70556D01*
Y270604D01*
X70616D01*
Y270664D01*
X70914D01*
Y270724D01*
X71213D01*
Y270783D01*
X71451D01*
Y270724D01*
D02*
G37*
G36*
X67452D02*
X67810D01*
Y270664D01*
X68168D01*
Y270604D01*
X68288D01*
Y270545D01*
X68347D01*
Y270366D01*
X68288D01*
Y270127D01*
X68228D01*
Y270007D01*
X68168D01*
Y269888D01*
X68109D01*
Y269828D01*
X67929D01*
Y269888D01*
X67870D01*
Y269948D01*
X67571D01*
Y270007D01*
X67034D01*
Y269948D01*
X66915D01*
Y269888D01*
X66855D01*
Y269828D01*
X66736D01*
Y269769D01*
X66676D01*
Y269649D01*
X66616D01*
Y269590D01*
X66557D01*
Y269291D01*
X66497D01*
Y268993D01*
X66437D01*
Y268694D01*
X66497D01*
Y268455D01*
X66557D01*
Y268157D01*
X66616D01*
Y268097D01*
X66676D01*
Y267978D01*
X66736D01*
Y267918D01*
X66795D01*
Y267858D01*
X66855D01*
Y267799D01*
X67094D01*
Y267739D01*
X67512D01*
Y267799D01*
X67929D01*
Y267858D01*
X68049D01*
Y267918D01*
X68168D01*
Y267978D01*
X68228D01*
Y267918D01*
X68288D01*
Y267262D01*
X68228D01*
Y267202D01*
X68168D01*
Y267142D01*
X68049D01*
Y267082D01*
X67810D01*
Y267023D01*
X67631D01*
Y266963D01*
X66855D01*
Y267023D01*
X66676D01*
Y267082D01*
X66437D01*
Y267142D01*
X66258D01*
Y267202D01*
X66198D01*
Y267262D01*
X66079D01*
Y267321D01*
X66019D01*
Y267381D01*
X65960D01*
Y267440D01*
X65900D01*
Y267500D01*
X65840D01*
Y267620D01*
X65781D01*
Y267679D01*
X65721D01*
Y267918D01*
X65661D01*
Y267978D01*
X65601D01*
Y268276D01*
X65542D01*
Y269410D01*
X65601D01*
Y269709D01*
X65661D01*
Y269769D01*
X65721D01*
Y269948D01*
X65781D01*
Y270007D01*
X65840D01*
Y270186D01*
X65900D01*
Y270246D01*
X65960D01*
Y270306D01*
X66019D01*
Y270366D01*
X66079D01*
Y270425D01*
X66139D01*
Y270485D01*
X66198D01*
Y270545D01*
X66437D01*
Y270604D01*
X66497D01*
Y270664D01*
X66795D01*
Y270724D01*
X67153D01*
Y270783D01*
X67452D01*
Y270724D01*
D02*
G37*
G36*
X63333D02*
X63691D01*
Y270664D01*
X63990D01*
Y270604D01*
X64049D01*
Y270545D01*
X64169D01*
Y270485D01*
X64288D01*
Y270425D01*
X64348D01*
Y270366D01*
X64408D01*
Y270246D01*
X64527D01*
Y270067D01*
X64587D01*
Y269948D01*
X64646D01*
Y269888D01*
X64706D01*
Y269590D01*
X64766D01*
Y269410D01*
X64825D01*
Y268694D01*
X64527D01*
Y268634D01*
X64228D01*
Y268694D01*
X62617D01*
Y268634D01*
X62497D01*
Y268575D01*
X62438D01*
Y268396D01*
X62497D01*
Y268217D01*
X62557D01*
Y268097D01*
X62617D01*
Y267978D01*
X62676D01*
Y267918D01*
X62736D01*
Y267858D01*
X62796D01*
Y267799D01*
X62975D01*
Y267739D01*
X63035D01*
Y267679D01*
X63990D01*
Y267739D01*
X64109D01*
Y267799D01*
X64408D01*
Y267858D01*
X64587D01*
Y267262D01*
X64527D01*
Y267142D01*
X64288D01*
Y267082D01*
X64049D01*
Y267023D01*
X63870D01*
Y266963D01*
X62975D01*
Y267023D01*
X62796D01*
Y267082D01*
X62557D01*
Y267142D01*
X62378D01*
Y267202D01*
X62318D01*
Y267262D01*
X62139D01*
Y267321D01*
X62080D01*
Y267381D01*
X62020D01*
Y267440D01*
X61960D01*
Y267560D01*
X61900D01*
Y267620D01*
X61841D01*
Y267679D01*
X61781D01*
Y267739D01*
X61721D01*
Y267918D01*
X61662D01*
Y268037D01*
X61602D01*
Y268157D01*
X61542D01*
Y268813D01*
X61483D01*
Y268993D01*
X61542D01*
Y269590D01*
X61602D01*
Y269709D01*
X61662D01*
Y269828D01*
X61721D01*
Y270007D01*
X61781D01*
Y270067D01*
X61841D01*
Y270186D01*
X61900D01*
Y270246D01*
X61960D01*
Y270306D01*
X62020D01*
Y270366D01*
X62080D01*
Y270425D01*
X62139D01*
Y270485D01*
X62199D01*
Y270545D01*
X62378D01*
Y270604D01*
X62438D01*
Y270664D01*
X62736D01*
Y270724D01*
X63035D01*
Y270783D01*
X63333D01*
Y270724D01*
D02*
G37*
G36*
X91867D02*
X92105D01*
Y270664D01*
X92463D01*
Y270604D01*
X92523D01*
Y270545D01*
X92702D01*
Y270485D01*
X92762D01*
Y270425D01*
X92822D01*
Y270366D01*
X92881D01*
Y270246D01*
X92941D01*
Y270127D01*
X93001D01*
Y270007D01*
X93060D01*
Y267978D01*
X93120D01*
Y267918D01*
X93060D01*
Y267262D01*
X93120D01*
Y267202D01*
X93060D01*
Y267082D01*
X92463D01*
Y267142D01*
X92404D01*
Y267202D01*
X92344D01*
Y267500D01*
X92105D01*
Y267440D01*
X92046D01*
Y267321D01*
X91986D01*
Y267262D01*
X91867D01*
Y267202D01*
X91807D01*
Y267142D01*
X91687D01*
Y267082D01*
X91508D01*
Y267023D01*
X91329D01*
Y266963D01*
X90673D01*
Y267023D01*
X90553D01*
Y267082D01*
X90374D01*
Y267142D01*
X90315D01*
Y267202D01*
X90255D01*
Y267262D01*
X90195D01*
Y267321D01*
X90135D01*
Y267381D01*
X90076D01*
Y267500D01*
X90016D01*
Y267620D01*
X89956D01*
Y267739D01*
X89897D01*
Y268455D01*
X89956D01*
Y268575D01*
X90016D01*
Y268694D01*
X90076D01*
Y268813D01*
X90135D01*
Y268873D01*
X90195D01*
Y268933D01*
X90255D01*
Y268993D01*
X90374D01*
Y269052D01*
X90434D01*
Y269112D01*
X90673D01*
Y269172D01*
X90792D01*
Y269231D01*
X91747D01*
Y269291D01*
X92105D01*
Y269351D01*
X92165D01*
Y269769D01*
X92105D01*
Y269828D01*
X92046D01*
Y269948D01*
X91926D01*
Y270007D01*
X91807D01*
Y270067D01*
X91628D01*
Y270127D01*
X91449D01*
Y270067D01*
X91210D01*
Y270007D01*
X90911D01*
Y269948D01*
X90732D01*
Y269888D01*
X90613D01*
Y269828D01*
X90553D01*
Y269888D01*
X90493D01*
Y270007D01*
X90434D01*
Y270127D01*
X90374D01*
Y270306D01*
X90315D01*
Y270485D01*
X90374D01*
Y270545D01*
X90553D01*
Y270604D01*
X90613D01*
Y270664D01*
X91031D01*
Y270724D01*
X91329D01*
Y270783D01*
X91867D01*
Y270724D01*
D02*
G37*
G36*
X88941Y270604D02*
X89001D01*
Y267142D01*
X88941D01*
Y267082D01*
X88046D01*
Y270664D01*
X88941D01*
Y270604D01*
D02*
G37*
G36*
X81719Y270724D02*
X82017D01*
Y270664D01*
X82256D01*
Y270604D01*
X82375D01*
Y270545D01*
X82495D01*
Y270485D01*
X82554D01*
Y270425D01*
X82674D01*
Y270366D01*
X82733D01*
Y270306D01*
X82793D01*
Y270246D01*
X82853D01*
Y270186D01*
X82913D01*
Y270127D01*
X82972D01*
Y270007D01*
X83032D01*
Y269888D01*
X83092D01*
Y269828D01*
X83151D01*
Y269530D01*
X83211D01*
Y269410D01*
X83271D01*
Y268336D01*
X83211D01*
Y268217D01*
X83151D01*
Y267918D01*
X83092D01*
Y267858D01*
X83032D01*
Y267739D01*
X82972D01*
Y267679D01*
X82913D01*
Y267560D01*
X82853D01*
Y267500D01*
X82793D01*
Y267440D01*
X82733D01*
Y267381D01*
X82674D01*
Y267321D01*
X82614D01*
Y267262D01*
X82495D01*
Y267202D01*
X82435D01*
Y267142D01*
X82256D01*
Y267082D01*
X82017D01*
Y267023D01*
X81898D01*
Y266963D01*
X81122D01*
Y267023D01*
X81002D01*
Y267082D01*
X80823D01*
Y267142D01*
X80644D01*
Y267202D01*
X80584D01*
Y267262D01*
X80465D01*
Y267321D01*
X80405D01*
Y267381D01*
X80346D01*
Y267440D01*
X80286D01*
Y267500D01*
X80226D01*
Y267560D01*
X80167D01*
Y267620D01*
X80107D01*
Y267679D01*
X80047D01*
Y267799D01*
X79988D01*
Y267858D01*
X79928D01*
Y267978D01*
X79868D01*
Y268276D01*
X79808D01*
Y268396D01*
X79749D01*
Y269410D01*
X79808D01*
Y269530D01*
X79868D01*
Y269769D01*
X79928D01*
Y269888D01*
X79988D01*
Y270007D01*
X80047D01*
Y270067D01*
X80107D01*
Y270127D01*
X80167D01*
Y270246D01*
X80226D01*
Y270306D01*
X80286D01*
Y270366D01*
X80405D01*
Y270425D01*
X80465D01*
Y270485D01*
X80525D01*
Y270545D01*
X80644D01*
Y270604D01*
X80764D01*
Y270664D01*
X81062D01*
Y270724D01*
X81361D01*
Y270783D01*
X81719D01*
Y270724D01*
D02*
G37*
G36*
X75391D02*
X75690D01*
Y270664D01*
X75988D01*
Y270604D01*
X76107D01*
Y270545D01*
X76227D01*
Y270485D01*
X76287D01*
Y270425D01*
X76406D01*
Y270366D01*
X76466D01*
Y270306D01*
X76525D01*
Y270246D01*
X76585D01*
Y270127D01*
X76645D01*
Y270067D01*
X76704D01*
Y269948D01*
X76764D01*
Y269828D01*
X76824D01*
Y269709D01*
X76883D01*
Y269410D01*
X76943D01*
Y269291D01*
X77003D01*
Y269112D01*
Y269052D01*
Y268455D01*
X76943D01*
Y268276D01*
X76883D01*
Y268037D01*
X76824D01*
Y267918D01*
X76764D01*
Y267799D01*
X76704D01*
Y267679D01*
X76645D01*
Y267620D01*
X76585D01*
Y267500D01*
X76525D01*
Y267440D01*
X76466D01*
Y267381D01*
X76406D01*
Y267321D01*
X76346D01*
Y267262D01*
X76227D01*
Y267202D01*
X76167D01*
Y267142D01*
X75988D01*
Y267082D01*
X75749D01*
Y267023D01*
X75570D01*
Y266963D01*
X74914D01*
Y267023D01*
X74735D01*
Y267082D01*
X74496D01*
Y267142D01*
X74376D01*
Y267202D01*
X74257D01*
Y267262D01*
X74138D01*
Y267321D01*
X74078D01*
Y267381D01*
X74018D01*
Y267500D01*
X73959D01*
Y267560D01*
X73899D01*
Y267620D01*
X73839D01*
Y267679D01*
X73779D01*
Y267799D01*
X73720D01*
Y267918D01*
X73660D01*
Y268037D01*
X73600D01*
Y268336D01*
X73541D01*
Y268575D01*
X73481D01*
Y269172D01*
X73541D01*
Y269410D01*
X73600D01*
Y269769D01*
X73660D01*
Y269828D01*
X73720D01*
Y270007D01*
X73779D01*
Y270067D01*
X73839D01*
Y270186D01*
X73899D01*
Y270246D01*
X73959D01*
Y270306D01*
X74018D01*
Y270366D01*
X74078D01*
Y270425D01*
X74138D01*
Y270485D01*
X74197D01*
Y270545D01*
X74376D01*
Y270604D01*
X74436D01*
Y270664D01*
X74794D01*
Y270724D01*
X75093D01*
Y270783D01*
X75391D01*
Y270724D01*
D02*
G37*
G36*
X85599D02*
X85957D01*
Y270664D01*
X87330D01*
Y270246D01*
X87210D01*
Y270186D01*
X87151D01*
Y270127D01*
X86852D01*
Y270067D01*
X86793D01*
Y269888D01*
X86852D01*
Y269769D01*
X86912D01*
Y269231D01*
X86852D01*
Y269052D01*
X86793D01*
Y268933D01*
X86733D01*
Y268813D01*
X86673D01*
Y268754D01*
X86614D01*
Y268634D01*
X86554D01*
Y268575D01*
X86434D01*
Y268515D01*
X86315D01*
Y268455D01*
X86255D01*
Y268396D01*
X86017D01*
Y268336D01*
X85837D01*
Y268276D01*
X85002D01*
Y268217D01*
X84942D01*
Y268157D01*
X84882D01*
Y268097D01*
Y267858D01*
X85002D01*
Y267799D01*
X85300D01*
Y267739D01*
X86434D01*
Y267679D01*
X86733D01*
Y267620D01*
X86852D01*
Y267560D01*
X86972D01*
Y267500D01*
X87031D01*
Y267440D01*
X87091D01*
Y267381D01*
X87151D01*
Y267262D01*
X87210D01*
Y267142D01*
X87270D01*
Y267023D01*
X87330D01*
Y266485D01*
X87270D01*
Y266366D01*
X87210D01*
Y266247D01*
X87151D01*
Y266068D01*
X87091D01*
Y266008D01*
X87031D01*
Y265948D01*
X86972D01*
Y265889D01*
X86912D01*
Y265829D01*
X86793D01*
Y265769D01*
X86733D01*
Y265709D01*
X86614D01*
Y265650D01*
X86434D01*
Y265590D01*
X86375D01*
Y265530D01*
X85957D01*
Y265471D01*
X85718D01*
Y265411D01*
X84823D01*
Y265471D01*
X84644D01*
Y265530D01*
X84285D01*
Y265590D01*
X84166D01*
Y265650D01*
X84106D01*
Y265709D01*
X83987D01*
Y265769D01*
X83927D01*
Y265829D01*
X83868D01*
Y265889D01*
X83808D01*
Y266008D01*
X83748D01*
Y266306D01*
X83688D01*
Y266545D01*
X83748D01*
Y266784D01*
X83808D01*
Y266844D01*
X83868D01*
Y266903D01*
X83927D01*
Y266963D01*
X83987D01*
Y267023D01*
X84047D01*
Y267082D01*
X84166D01*
Y267142D01*
X84285D01*
Y267202D01*
X84405D01*
Y267262D01*
X84465D01*
Y267381D01*
X84405D01*
Y267440D01*
X84285D01*
Y267500D01*
X84226D01*
Y267560D01*
X84166D01*
Y267739D01*
X84106D01*
Y267978D01*
X84166D01*
Y268097D01*
X84226D01*
Y268157D01*
X84285D01*
Y268217D01*
X84345D01*
Y268276D01*
X84465D01*
Y268336D01*
X84524D01*
Y268396D01*
X84584D01*
Y268515D01*
X84524D01*
Y268575D01*
X84405D01*
Y268634D01*
X84345D01*
Y268694D01*
X84226D01*
Y268754D01*
X84166D01*
Y268873D01*
X84106D01*
Y268993D01*
X84047D01*
Y269231D01*
X83987D01*
Y269530D01*
X83927D01*
Y269590D01*
X83987D01*
Y269828D01*
X84047D01*
Y270127D01*
X84106D01*
Y270186D01*
X84166D01*
Y270306D01*
X84226D01*
Y270366D01*
X84285D01*
Y270425D01*
X84345D01*
Y270485D01*
X84465D01*
Y270545D01*
X84584D01*
Y270604D01*
X84644D01*
Y270664D01*
X84942D01*
Y270724D01*
X85240D01*
Y270783D01*
X85599D01*
Y270724D01*
D02*
G37*
G36*
X148290Y114064D02*
X144838D01*
X145104Y114079D01*
X145371Y114108D01*
X145608Y114153D01*
X145845Y114212D01*
X146052Y114286D01*
X146259Y114360D01*
X146452Y114449D01*
X146615Y114538D01*
X146763Y114627D01*
X146911Y114715D01*
X147015Y114789D01*
X147118Y114864D01*
X147192Y114923D01*
X147251Y114967D01*
X147281Y114997D01*
X147296Y115012D01*
X147473Y115189D01*
X147622Y115382D01*
X147755Y115574D01*
X147873Y115767D01*
X147962Y115974D01*
X148051Y116167D01*
X148169Y116522D01*
X148199Y116685D01*
X148229Y116848D01*
X148258Y116981D01*
X148273Y117100D01*
X148288Y117188D01*
Y117322D01*
X148258Y117662D01*
X148199Y117958D01*
X148125Y118240D01*
X148021Y118462D01*
X147918Y118654D01*
X147844Y118788D01*
X147785Y118876D01*
X147755Y118906D01*
X147548Y119128D01*
X147311Y119321D01*
X147074Y119469D01*
X146852Y119587D01*
X146659Y119676D01*
X146496Y119721D01*
X146437Y119750D01*
X146392D01*
X146363Y119765D01*
X146348D01*
X146615Y119928D01*
X146837Y120091D01*
X147029Y120268D01*
X147207Y120446D01*
X147355Y120624D01*
X147473Y120802D01*
X147562Y120979D01*
X147651Y121142D01*
X147710Y121305D01*
X147755Y121453D01*
X147785Y121586D01*
X147799Y121705D01*
X147814Y121794D01*
X147829Y121868D01*
Y121912D01*
Y121927D01*
X147814Y122105D01*
X147799Y122268D01*
X147710Y122593D01*
X147607Y122889D01*
X147473Y123141D01*
X147340Y123349D01*
X147222Y123497D01*
X147177Y123556D01*
X147133Y123600D01*
X147118Y123615D01*
X147103Y123630D01*
X146940Y123793D01*
X146748Y123941D01*
X146570Y124059D01*
X146378Y124163D01*
X146170Y124267D01*
X145978Y124341D01*
X145608Y124444D01*
X145445Y124489D01*
X145282Y124518D01*
X145149Y124533D01*
X145015Y124548D01*
X144912Y124563D01*
X144778D01*
X144467Y124548D01*
X144186Y124518D01*
X143919Y124459D01*
X143697Y124400D01*
X143520Y124341D01*
X143372Y124282D01*
X143283Y124252D01*
X143268Y124237D01*
X143253D01*
X143016Y124104D01*
X142794Y123956D01*
X142616Y123808D01*
X142468Y123674D01*
X142350Y123541D01*
X142261Y123437D01*
X142202Y123378D01*
X142187Y123349D01*
X142054Y123126D01*
X141935Y122889D01*
X141846Y122638D01*
X141758Y122401D01*
X141698Y122179D01*
X141654Y122016D01*
X141639Y121942D01*
Y121897D01*
X141624Y121868D01*
Y121853D01*
X143431Y121557D01*
X143475Y121794D01*
X143534Y122001D01*
X143594Y122179D01*
X143668Y122312D01*
X143742Y122430D01*
X143801Y122519D01*
X143846Y122564D01*
X143860Y122579D01*
X143994Y122697D01*
X144142Y122786D01*
X144290Y122845D01*
X144423Y122889D01*
X144542Y122919D01*
X144630Y122934D01*
X144719D01*
X144897Y122919D01*
X145075Y122889D01*
X145208Y122830D01*
X145326Y122786D01*
X145430Y122727D01*
X145489Y122667D01*
X145534Y122638D01*
X145548Y122623D01*
X145652Y122505D01*
X145726Y122356D01*
X145785Y122223D01*
X145815Y122090D01*
X145845Y121971D01*
X145859Y121883D01*
Y121823D01*
Y121794D01*
X145845Y121572D01*
X145800Y121379D01*
X145726Y121216D01*
X145652Y121083D01*
X145563Y120964D01*
X145504Y120890D01*
X145445Y120831D01*
X145430Y120816D01*
X145252Y120698D01*
X145060Y120609D01*
X144853Y120550D01*
X144660Y120505D01*
X144482Y120491D01*
X144334Y120476D01*
X144201D01*
X143994Y118891D01*
X144186Y118936D01*
X144349Y118980D01*
X144512Y119010D01*
X144645Y119025D01*
X144749Y119039D01*
X144897D01*
X145104Y119025D01*
X145282Y118965D01*
X145445Y118906D01*
X145593Y118817D01*
X145696Y118743D01*
X145785Y118669D01*
X145845Y118610D01*
X145859Y118595D01*
X145993Y118418D01*
X146096Y118225D01*
X146170Y118033D01*
X146230Y117840D01*
X146259Y117662D01*
X146274Y117529D01*
Y117440D01*
Y117425D01*
Y117410D01*
X146259Y117129D01*
X146215Y116877D01*
X146141Y116655D01*
X146067Y116478D01*
X145978Y116344D01*
X145919Y116241D01*
X145859Y116167D01*
X145845Y116152D01*
X145682Y116004D01*
X145504Y115885D01*
X145341Y115811D01*
X145178Y115752D01*
X145030Y115722D01*
X144927Y115708D01*
X144853Y115693D01*
X144823D01*
X144615Y115708D01*
X144438Y115752D01*
X144275Y115811D01*
X144127Y115885D01*
X144023Y115944D01*
X143934Y116004D01*
X143875Y116048D01*
X143860Y116063D01*
X143727Y116226D01*
X143609Y116404D01*
X143534Y116596D01*
X143461Y116774D01*
X143416Y116937D01*
X143386Y117070D01*
X143372Y117159D01*
Y117174D01*
Y117188D01*
X141476Y116952D01*
X141506Y116714D01*
X141565Y116492D01*
X141698Y116078D01*
X141861Y115722D01*
X141965Y115574D01*
X142054Y115426D01*
X142143Y115293D01*
X142231Y115189D01*
X142305Y115086D01*
X142380Y115012D01*
X142439Y114952D01*
X142483Y114908D01*
X142513Y114878D01*
X142528Y114864D01*
X142705Y114730D01*
X142898Y114597D01*
X143076Y114493D01*
X143283Y114404D01*
X143668Y114256D01*
X144023Y114167D01*
X144201Y114138D01*
X144349Y114108D01*
X144482Y114094D01*
X144601Y114079D01*
X144704Y114064D01*
X120950D01*
Y124696D01*
X125735D01*
X125350Y124681D01*
X124965Y124637D01*
X124625Y124563D01*
X124284Y124474D01*
X123988Y124370D01*
X123692Y124252D01*
X123440Y124119D01*
X123203Y123985D01*
X122981Y123852D01*
X122803Y123719D01*
X122640Y123600D01*
X122507Y123497D01*
X122403Y123408D01*
X122329Y123334D01*
X122285Y123289D01*
X122270Y123275D01*
X122033Y122993D01*
X121840Y122697D01*
X121663Y122386D01*
X121515Y122060D01*
X121382Y121720D01*
X121278Y121394D01*
X121189Y121068D01*
X121115Y120757D01*
X121056Y120446D01*
X121026Y120180D01*
X120997Y119928D01*
X120967Y119721D01*
Y119543D01*
X120952Y119410D01*
Y119291D01*
X120967Y118847D01*
X121011Y118432D01*
X121070Y118033D01*
X121159Y117677D01*
X121248Y117337D01*
X121367Y117011D01*
X121485Y116729D01*
X121604Y116478D01*
X121722Y116241D01*
X121840Y116033D01*
X121959Y115871D01*
X122048Y115722D01*
X122137Y115619D01*
X122196Y115530D01*
X122240Y115485D01*
X122255Y115471D01*
X122507Y115219D01*
X122773Y115012D01*
X123055Y114819D01*
X123336Y114671D01*
X123617Y114538D01*
X123899Y114419D01*
X124165Y114330D01*
X124417Y114256D01*
X124669Y114197D01*
X124891Y114153D01*
X125098Y114123D01*
X125261Y114108D01*
X125409Y114094D01*
X125513Y114079D01*
X125602D01*
X125913Y114094D01*
X126194Y114108D01*
X126475Y114153D01*
X126727Y114212D01*
X126964Y114271D01*
X127186Y114330D01*
X127394Y114404D01*
X127586Y114493D01*
X127749Y114567D01*
X127897Y114641D01*
X128030Y114701D01*
X128134Y114760D01*
X128223Y114819D01*
X128282Y114864D01*
X128312Y114878D01*
X128327Y114893D01*
X128519Y115056D01*
X128697Y115234D01*
X129023Y115633D01*
X129289Y116048D01*
X129496Y116448D01*
X129585Y116641D01*
X129659Y116818D01*
X129719Y116981D01*
X129778Y117114D01*
X129822Y117233D01*
X129852Y117322D01*
X129867Y117381D01*
Y117396D01*
X127853Y118018D01*
X127734Y117618D01*
X127601Y117277D01*
X127468Y116996D01*
X127320Y116759D01*
X127201Y116581D01*
X127097Y116463D01*
X127023Y116389D01*
X126994Y116359D01*
X126757Y116181D01*
X126520Y116063D01*
X126283Y115974D01*
X126076Y115900D01*
X125883Y115871D01*
X125720Y115856D01*
X125661Y115841D01*
X125587D01*
X125380Y115856D01*
X125187Y115871D01*
X124832Y115974D01*
X124521Y116093D01*
X124269Y116256D01*
X124062Y116404D01*
X123914Y116522D01*
X123854Y116581D01*
X123810Y116626D01*
X123795Y116641D01*
X123780Y116655D01*
X123662Y116818D01*
X123558Y117011D01*
X123455Y117218D01*
X123381Y117440D01*
X123262Y117899D01*
X123173Y118358D01*
X123144Y118580D01*
X123129Y118773D01*
X123099Y118965D01*
Y119128D01*
X123084Y119247D01*
Y119350D01*
Y119424D01*
Y119439D01*
X123099Y119780D01*
X123114Y120091D01*
X123144Y120372D01*
X123188Y120639D01*
X123247Y120876D01*
X123307Y121098D01*
X123366Y121290D01*
X123440Y121468D01*
X123499Y121616D01*
X123558Y121749D01*
X123617Y121853D01*
X123677Y121942D01*
X123721Y122016D01*
X123751Y122060D01*
X123780Y122090D01*
Y122105D01*
X123914Y122253D01*
X124062Y122386D01*
X124210Y122490D01*
X124373Y122579D01*
X124684Y122727D01*
X124980Y122830D01*
X125232Y122889D01*
X125350Y122904D01*
X125439Y122919D01*
X125528Y122934D01*
X125631D01*
X125928Y122919D01*
X126194Y122860D01*
X126431Y122786D01*
X126638Y122697D01*
X126801Y122608D01*
X126920Y122534D01*
X126994Y122475D01*
X127023Y122460D01*
X127216Y122282D01*
X127394Y122075D01*
X127527Y121868D01*
X127631Y121660D01*
X127705Y121483D01*
X127749Y121349D01*
X127779Y121290D01*
Y121246D01*
X127793Y121231D01*
Y121216D01*
X129837Y121705D01*
X129689Y122134D01*
X129526Y122505D01*
X129348Y122830D01*
X129185Y123097D01*
X129023Y123304D01*
X128963Y123393D01*
X128904Y123467D01*
X128860Y123511D01*
X128815Y123556D01*
X128800Y123586D01*
X128786D01*
X128563Y123778D01*
X128312Y123956D01*
X128075Y124104D01*
X127823Y124222D01*
X127556Y124341D01*
X127305Y124430D01*
X127053Y124504D01*
X126816Y124563D01*
X126594Y124607D01*
X126387Y124637D01*
X126209Y124667D01*
X126046Y124681D01*
X125913Y124696D01*
X148290D01*
Y114064D01*
D02*
G37*
G36*
X125202Y90384D02*
X124817Y90339D01*
X124476Y90266D01*
X124136Y90177D01*
X123840Y90073D01*
X123544Y89955D01*
X123292Y89821D01*
X123055Y89688D01*
X122833Y89555D01*
X122655Y89421D01*
X122492Y89303D01*
X122359Y89199D01*
X122255Y89110D01*
X122181Y89036D01*
X122137Y88992D01*
X122122Y88977D01*
X121885Y88696D01*
X121692Y88400D01*
X121515Y88089D01*
X121367Y87763D01*
X121233Y87422D01*
X121130Y87097D01*
X121041Y86771D01*
X120967Y86460D01*
X120908Y86149D01*
X120878Y85882D01*
X120848Y85631D01*
X120819Y85423D01*
Y85246D01*
X120804Y85112D01*
Y90399D01*
X125587D01*
X125202Y90384D01*
D02*
G37*
G36*
X148436Y90251D02*
Y83735D01*
X147163D01*
Y90251D01*
X145504D01*
X141062Y83720D01*
Y82017D01*
X145267D01*
Y79959D01*
X147163D01*
Y82017D01*
X148436D01*
Y79959D01*
Y79781D01*
X125454D01*
X125765Y79796D01*
X126046Y79811D01*
X126327Y79855D01*
X126579Y79914D01*
X126816Y79974D01*
X127038Y80033D01*
X127246Y80107D01*
X127438Y80196D01*
X127601Y80270D01*
X127749Y80344D01*
X127882Y80403D01*
X127986Y80463D01*
X128075Y80522D01*
X128134Y80566D01*
X128164Y80581D01*
X128178Y80596D01*
X128371Y80759D01*
X128549Y80936D01*
X128874Y81336D01*
X129141Y81751D01*
X129348Y82151D01*
X129437Y82343D01*
X129511Y82521D01*
X129570Y82684D01*
X129630Y82817D01*
X129674Y82935D01*
X129704Y83024D01*
X129719Y83083D01*
Y83098D01*
X127705Y83720D01*
X127586Y83320D01*
X127453Y82980D01*
X127320Y82698D01*
X127171Y82462D01*
X127053Y82284D01*
X126949Y82165D01*
X126875Y82091D01*
X126846Y82062D01*
X126609Y81884D01*
X126372Y81766D01*
X126135Y81677D01*
X125928Y81603D01*
X125735Y81573D01*
X125572Y81558D01*
X125513Y81543D01*
X125439D01*
X125232Y81558D01*
X125039Y81573D01*
X124684Y81677D01*
X124373Y81795D01*
X124121Y81958D01*
X123914Y82106D01*
X123766Y82225D01*
X123706Y82284D01*
X123662Y82328D01*
X123647Y82343D01*
X123632Y82358D01*
X123514Y82521D01*
X123410Y82713D01*
X123307Y82921D01*
X123232Y83143D01*
X123114Y83602D01*
X123025Y84061D01*
X122996Y84283D01*
X122981Y84475D01*
X122951Y84668D01*
Y84831D01*
X122936Y84949D01*
Y85053D01*
Y85127D01*
Y85142D01*
X122951Y85482D01*
X122966Y85793D01*
X122996Y86075D01*
X123040Y86341D01*
X123099Y86578D01*
X123159Y86800D01*
X123218Y86993D01*
X123292Y87171D01*
X123351Y87319D01*
X123410Y87452D01*
X123469Y87556D01*
X123529Y87644D01*
X123573Y87718D01*
X123603Y87763D01*
X123632Y87793D01*
Y87807D01*
X123766Y87955D01*
X123914Y88089D01*
X124062Y88192D01*
X124225Y88281D01*
X124536Y88429D01*
X124832Y88533D01*
X125084Y88592D01*
X125202Y88607D01*
X125291Y88622D01*
X125380Y88637D01*
X125483D01*
X125779Y88622D01*
X126046Y88562D01*
X126283Y88489D01*
X126490Y88400D01*
X126653Y88311D01*
X126772Y88237D01*
X126846Y88177D01*
X126875Y88163D01*
X127068Y87985D01*
X127246Y87778D01*
X127379Y87570D01*
X127482Y87363D01*
X127556Y87185D01*
X127601Y87052D01*
X127631Y86993D01*
Y86948D01*
X127645Y86934D01*
Y86919D01*
X129689Y87408D01*
X129541Y87837D01*
X129378Y88207D01*
X129200Y88533D01*
X129037Y88799D01*
X128874Y89007D01*
X128815Y89096D01*
X128756Y89170D01*
X128712Y89214D01*
X128667Y89258D01*
X128652Y89288D01*
X128638D01*
X128415Y89481D01*
X128164Y89658D01*
X127927Y89806D01*
X127675Y89925D01*
X127408Y90043D01*
X127157Y90132D01*
X126905Y90206D01*
X126668Y90266D01*
X126446Y90310D01*
X126239Y90339D01*
X126061Y90369D01*
X125898Y90384D01*
X125765Y90399D01*
X148436D01*
Y90251D01*
D02*
G37*
G36*
X145267Y83735D02*
X142883D01*
X145267Y87259D01*
Y83735D01*
D02*
G37*
G36*
X120819Y84550D02*
X120863Y84135D01*
X120922Y83735D01*
X121011Y83380D01*
X121100Y83039D01*
X121219Y82713D01*
X121337Y82432D01*
X121455Y82180D01*
X121574Y81943D01*
X121692Y81736D01*
X121811Y81573D01*
X121900Y81425D01*
X121989Y81321D01*
X122048Y81233D01*
X122092Y81188D01*
X122107Y81173D01*
X122359Y80921D01*
X122625Y80714D01*
X122907Y80522D01*
X123188Y80374D01*
X123469Y80240D01*
X123751Y80122D01*
X124017Y80033D01*
X124269Y79959D01*
X124521Y79900D01*
X124743Y79855D01*
X124950Y79826D01*
X125113Y79811D01*
X125261Y79796D01*
X125365Y79781D01*
X120804D01*
Y84994D01*
X120819Y84550D01*
D02*
G37*
G36*
X147166Y209321D02*
X125191D01*
X125502Y209336D01*
X125783Y209351D01*
X126064Y209395D01*
X126316Y209454D01*
X126553Y209514D01*
X126775Y209573D01*
X126982Y209647D01*
X127175Y209736D01*
X127338Y209810D01*
X127486Y209884D01*
X127619Y209943D01*
X127723Y210002D01*
X127812Y210062D01*
X127871Y210106D01*
X127901Y210121D01*
X127915Y210136D01*
X128108Y210299D01*
X128286Y210476D01*
X128611Y210876D01*
X128878Y211291D01*
X129085Y211691D01*
X129174Y211883D01*
X129248Y212061D01*
X129307Y212224D01*
X129367Y212357D01*
X129411Y212475D01*
X129441Y212564D01*
X129455Y212624D01*
Y212638D01*
X127442Y213260D01*
X127323Y212860D01*
X127190Y212520D01*
X127057Y212239D01*
X126908Y212002D01*
X126790Y211824D01*
X126686Y211705D01*
X126612Y211631D01*
X126583Y211602D01*
X126346Y211424D01*
X126109Y211306D01*
X125872Y211217D01*
X125665Y211143D01*
X125472Y211113D01*
X125309Y211098D01*
X125250Y211083D01*
X125176D01*
X124969Y211098D01*
X124776Y211113D01*
X124421Y211217D01*
X124110Y211335D01*
X123858Y211498D01*
X123651Y211646D01*
X123503Y211765D01*
X123443Y211824D01*
X123399Y211868D01*
X123384Y211883D01*
X123369Y211898D01*
X123251Y212061D01*
X123147Y212253D01*
X123043Y212461D01*
X122970Y212683D01*
X122851Y213142D01*
X122762Y213601D01*
X122732Y213823D01*
X122718Y214016D01*
X122688Y214208D01*
Y214371D01*
X122673Y214489D01*
Y214593D01*
Y214667D01*
Y214682D01*
X122688Y215022D01*
X122703Y215333D01*
X122732Y215615D01*
X122777Y215881D01*
X122836Y216118D01*
X122895Y216340D01*
X122955Y216533D01*
X123029Y216711D01*
X123088Y216859D01*
X123147Y216992D01*
X123206Y217096D01*
X123266Y217184D01*
X123310Y217258D01*
X123340Y217303D01*
X123369Y217332D01*
Y217347D01*
X123503Y217495D01*
X123651Y217629D01*
X123799Y217732D01*
X123962Y217821D01*
X124273Y217969D01*
X124569Y218073D01*
X124820Y218132D01*
X124939Y218147D01*
X125028Y218162D01*
X125117Y218177D01*
X125220D01*
X125517Y218162D01*
X125783Y218102D01*
X126020Y218029D01*
X126227Y217940D01*
X126390Y217851D01*
X126509Y217777D01*
X126583Y217717D01*
X126612Y217703D01*
X126805Y217525D01*
X126982Y217318D01*
X127116Y217110D01*
X127219Y216903D01*
X127293Y216725D01*
X127338Y216592D01*
X127367Y216533D01*
Y216488D01*
X127382Y216474D01*
Y216459D01*
X129426Y216947D01*
X129278Y217377D01*
X129115Y217747D01*
X128937Y218073D01*
X128774Y218340D01*
X128611Y218547D01*
X128552Y218636D01*
X128493Y218710D01*
X128448Y218754D01*
X128404Y218799D01*
X128389Y218828D01*
X128374D01*
X128152Y219021D01*
X127901Y219198D01*
X127664Y219346D01*
X127412Y219465D01*
X127145Y219583D01*
X126894Y219672D01*
X126642Y219746D01*
X126405Y219806D01*
X126183Y219850D01*
X125976Y219879D01*
X125798Y219909D01*
X125635Y219924D01*
X125502Y219939D01*
X147166D01*
Y209321D01*
D02*
G37*
G36*
X124939Y219924D02*
X124554Y219879D01*
X124213Y219806D01*
X123873Y219717D01*
X123577Y219613D01*
X123280Y219494D01*
X123029Y219361D01*
X122792Y219228D01*
X122570Y219095D01*
X122392Y218961D01*
X122229Y218843D01*
X122096Y218739D01*
X121992Y218650D01*
X121918Y218576D01*
X121874Y218532D01*
X121859Y218517D01*
X121622Y218236D01*
X121429Y217940D01*
X121252Y217629D01*
X121104Y217303D01*
X120970Y216962D01*
X120867Y216637D01*
X120778Y216311D01*
X120704Y216000D01*
X120645Y215689D01*
X120615Y215422D01*
X120585Y215170D01*
X120556Y214963D01*
Y214785D01*
X120541Y214652D01*
Y214534D01*
X120556Y214090D01*
X120600Y213675D01*
X120659Y213275D01*
X120748Y212920D01*
X120837Y212579D01*
X120955Y212253D01*
X121074Y211972D01*
X121193Y211720D01*
X121311Y211483D01*
X121429Y211276D01*
X121548Y211113D01*
X121637Y210965D01*
X121726Y210861D01*
X121785Y210772D01*
X121829Y210728D01*
X121844Y210713D01*
X122096Y210462D01*
X122362Y210254D01*
X122644Y210062D01*
X122925Y209914D01*
X123206Y209780D01*
X123488Y209662D01*
X123754Y209573D01*
X124006Y209499D01*
X124258Y209440D01*
X124480Y209395D01*
X124687Y209366D01*
X124850Y209351D01*
X124998Y209336D01*
X125102Y209321D01*
X119534D01*
Y219939D01*
X125324D01*
X124939Y219924D01*
D02*
G37*
G36*
X148290Y175031D02*
X125654D01*
X125965Y175046D01*
X126246Y175061D01*
X126527Y175105D01*
X126779Y175165D01*
X127016Y175224D01*
X127238Y175283D01*
X127445Y175357D01*
X127638Y175446D01*
X127801Y175520D01*
X127949Y175594D01*
X128082Y175653D01*
X128186Y175713D01*
X128275Y175772D01*
X128334Y175816D01*
X128364Y175831D01*
X128378Y175846D01*
X128571Y176009D01*
X128749Y176186D01*
X129074Y176586D01*
X129341Y177001D01*
X129548Y177401D01*
X129637Y177593D01*
X129711Y177771D01*
X129770Y177934D01*
X129830Y178067D01*
X129874Y178185D01*
X129904Y178274D01*
X129918Y178333D01*
Y178348D01*
X127905Y178970D01*
X127786Y178570D01*
X127653Y178230D01*
X127520Y177948D01*
X127371Y177712D01*
X127253Y177534D01*
X127149Y177415D01*
X127075Y177341D01*
X127046Y177312D01*
X126809Y177134D01*
X126572Y177016D01*
X126335Y176927D01*
X126128Y176853D01*
X125935Y176823D01*
X125772Y176808D01*
X125713Y176793D01*
X125639D01*
X125431Y176808D01*
X125239Y176823D01*
X124884Y176927D01*
X124573Y177045D01*
X124321Y177208D01*
X124114Y177356D01*
X123966Y177475D01*
X123906Y177534D01*
X123862Y177578D01*
X123847Y177593D01*
X123832Y177608D01*
X123714Y177771D01*
X123610Y177963D01*
X123506Y178171D01*
X123432Y178393D01*
X123314Y178852D01*
X123225Y179311D01*
X123195Y179533D01*
X123181Y179725D01*
X123151Y179918D01*
Y180081D01*
X123136Y180199D01*
Y180303D01*
Y180377D01*
Y180392D01*
X123151Y180732D01*
X123166Y181043D01*
X123195Y181325D01*
X123240Y181591D01*
X123299Y181828D01*
X123358Y182050D01*
X123418Y182243D01*
X123492Y182421D01*
X123551Y182569D01*
X123610Y182702D01*
X123669Y182806D01*
X123729Y182894D01*
X123773Y182969D01*
X123803Y183013D01*
X123832Y183043D01*
Y183057D01*
X123966Y183205D01*
X124114Y183339D01*
X124262Y183442D01*
X124425Y183531D01*
X124735Y183679D01*
X125032Y183783D01*
X125283Y183842D01*
X125402Y183857D01*
X125491Y183872D01*
X125580Y183887D01*
X125683D01*
X125979Y183872D01*
X126246Y183813D01*
X126483Y183738D01*
X126690Y183650D01*
X126853Y183561D01*
X126972Y183487D01*
X127046Y183428D01*
X127075Y183413D01*
X127268Y183235D01*
X127445Y183028D01*
X127579Y182820D01*
X127682Y182613D01*
X127756Y182435D01*
X127801Y182302D01*
X127830Y182243D01*
Y182198D01*
X127845Y182184D01*
Y182169D01*
X129889Y182658D01*
X129741Y183087D01*
X129578Y183457D01*
X129400Y183783D01*
X129237Y184049D01*
X129074Y184257D01*
X129015Y184346D01*
X128956Y184420D01*
X128912Y184464D01*
X128867Y184508D01*
X128852Y184538D01*
X128837D01*
X128615Y184731D01*
X128364Y184908D01*
X128127Y185056D01*
X127875Y185175D01*
X127608Y185293D01*
X127357Y185382D01*
X127105Y185456D01*
X126868Y185515D01*
X126646Y185560D01*
X126439Y185590D01*
X126261Y185619D01*
X126098Y185634D01*
X125965Y185649D01*
X148290D01*
Y175031D01*
D02*
G37*
G36*
X125402Y185634D02*
X125017Y185590D01*
X124676Y185515D01*
X124336Y185427D01*
X124040Y185323D01*
X123743Y185205D01*
X123492Y185071D01*
X123255Y184938D01*
X123033Y184805D01*
X122855Y184671D01*
X122692Y184553D01*
X122559Y184449D01*
X122455Y184360D01*
X122381Y184286D01*
X122337Y184242D01*
X122322Y184227D01*
X122085Y183946D01*
X121892Y183650D01*
X121715Y183339D01*
X121567Y183013D01*
X121433Y182672D01*
X121330Y182346D01*
X121241Y182021D01*
X121167Y181710D01*
X121108Y181399D01*
X121078Y181132D01*
X121048Y180881D01*
X121019Y180673D01*
Y180495D01*
X121004Y180362D01*
Y180244D01*
X121019Y179799D01*
X121063Y179385D01*
X121122Y178985D01*
X121211Y178630D01*
X121300Y178289D01*
X121419Y177963D01*
X121537Y177682D01*
X121655Y177430D01*
X121774Y177193D01*
X121892Y176986D01*
X122011Y176823D01*
X122100Y176675D01*
X122189Y176571D01*
X122248Y176483D01*
X122292Y176438D01*
X122307Y176423D01*
X122559Y176171D01*
X122825Y175964D01*
X123107Y175772D01*
X123388Y175624D01*
X123669Y175490D01*
X123951Y175372D01*
X124217Y175283D01*
X124469Y175209D01*
X124721Y175150D01*
X124943Y175105D01*
X125150Y175076D01*
X125313Y175061D01*
X125461Y175046D01*
X125565Y175031D01*
X120950D01*
Y185649D01*
X125787D01*
X125402Y185634D01*
D02*
G37*
G36*
X24467Y264045D02*
X24619Y264031D01*
X24799Y264017D01*
X24980Y263989D01*
X25188Y263962D01*
X25632Y263865D01*
X25854Y263795D01*
X26075Y263726D01*
X26297Y263629D01*
X26505Y263518D01*
X26700Y263393D01*
X26880Y263254D01*
X26894Y263241D01*
X26921Y263213D01*
X26963Y263171D01*
X27018Y263116D01*
X27088Y263032D01*
X27171Y262935D01*
X27254Y262824D01*
X27351Y262700D01*
X27434Y262547D01*
X27518Y262395D01*
X27601Y262214D01*
X27670Y262020D01*
X27740Y261826D01*
X27795Y261604D01*
X27837Y261382D01*
X27850Y261133D01*
X25909Y261063D01*
Y261077D01*
Y261091D01*
X25881Y261188D01*
X25854Y261313D01*
X25798Y261465D01*
X25729Y261646D01*
X25632Y261812D01*
X25507Y261978D01*
X25368Y262117D01*
X25354Y262131D01*
X25299Y262173D01*
X25202Y262228D01*
X25063Y262284D01*
X24897Y262339D01*
X24688Y262395D01*
X24439Y262436D01*
X24148Y262450D01*
X24009D01*
X23856Y262436D01*
X23676Y262408D01*
X23468Y262367D01*
X23246Y262297D01*
X23038Y262214D01*
X22844Y262089D01*
X22830Y262076D01*
X22802Y262048D01*
X22747Y262006D01*
X22692Y261937D01*
X22636Y261854D01*
X22580Y261743D01*
X22553Y261632D01*
X22539Y261493D01*
Y261479D01*
Y261438D01*
X22553Y261368D01*
X22580Y261299D01*
X22608Y261202D01*
X22650Y261105D01*
X22719Y261008D01*
X22816Y260911D01*
X22830Y260897D01*
X22899Y260855D01*
X22941Y260827D01*
X23010Y260800D01*
X23080Y260758D01*
X23177Y260716D01*
X23288Y260675D01*
X23413Y260619D01*
X23565Y260564D01*
X23718Y260508D01*
X23912Y260453D01*
X24120Y260397D01*
X24342Y260342D01*
X24592Y260273D01*
X24605D01*
X24661Y260259D01*
X24730Y260245D01*
X24827Y260217D01*
X24938Y260189D01*
X25077Y260148D01*
X25229Y260106D01*
X25382Y260065D01*
X25715Y259954D01*
X26061Y259843D01*
X26394Y259718D01*
X26533Y259649D01*
X26672Y259579D01*
X26686D01*
X26700Y259565D01*
X26783Y259510D01*
X26907Y259427D01*
X27060Y259316D01*
X27227Y259177D01*
X27407Y259011D01*
X27587Y258817D01*
X27740Y258595D01*
X27754Y258567D01*
X27795Y258484D01*
X27864Y258359D01*
X27934Y258179D01*
X28003Y257957D01*
X28072Y257693D01*
X28114Y257402D01*
X28128Y257069D01*
Y257055D01*
Y257027D01*
Y256986D01*
Y256930D01*
X28114Y256861D01*
X28100Y256764D01*
X28072Y256570D01*
X28017Y256320D01*
X27934Y256057D01*
X27809Y255793D01*
X27656Y255516D01*
Y255502D01*
X27629Y255488D01*
X27573Y255405D01*
X27462Y255266D01*
X27324Y255114D01*
X27143Y254933D01*
X26907Y254767D01*
X26658Y254601D01*
X26353Y254448D01*
X26339D01*
X26311Y254434D01*
X26270Y254420D01*
X26200Y254393D01*
X26117Y254365D01*
X26020Y254337D01*
X25909Y254309D01*
X25784Y254282D01*
X25632Y254240D01*
X25479Y254212D01*
X25119Y254157D01*
X24716Y254115D01*
X24272Y254101D01*
X24092D01*
X23967Y254115D01*
X23815Y254129D01*
X23648Y254143D01*
X23454Y254171D01*
X23246Y254212D01*
X22789Y254309D01*
X22553Y254379D01*
X22331Y254448D01*
X22095Y254545D01*
X21873Y254656D01*
X21665Y254781D01*
X21471Y254933D01*
X21457Y254947D01*
X21430Y254975D01*
X21374Y255017D01*
X21319Y255086D01*
X21235Y255183D01*
X21152Y255294D01*
X21055Y255419D01*
X20958Y255557D01*
X20861Y255724D01*
X20764Y255904D01*
X20667Y256112D01*
X20570Y256334D01*
X20500Y256570D01*
X20417Y256833D01*
X20362Y257111D01*
X20320Y257402D01*
X22206Y257582D01*
Y257568D01*
X22220Y257541D01*
Y257485D01*
X22234Y257430D01*
X22289Y257263D01*
X22359Y257055D01*
X22442Y256819D01*
X22567Y256584D01*
X22705Y256376D01*
X22886Y256182D01*
X22913Y256168D01*
X22983Y256112D01*
X23094Y256043D01*
X23260Y255960D01*
X23468Y255876D01*
X23704Y255807D01*
X23981Y255752D01*
X24300Y255738D01*
X24453D01*
X24619Y255765D01*
X24827Y255793D01*
X25049Y255835D01*
X25285Y255904D01*
X25507Y256001D01*
X25701Y256126D01*
X25729Y256140D01*
X25784Y256195D01*
X25854Y256279D01*
X25951Y256390D01*
X26034Y256528D01*
X26117Y256695D01*
X26172Y256861D01*
X26186Y257055D01*
Y257069D01*
Y257111D01*
X26172Y257180D01*
X26159Y257263D01*
X26131Y257346D01*
X26103Y257444D01*
X26048Y257541D01*
X25978Y257638D01*
X25964Y257652D01*
X25937Y257679D01*
X25895Y257721D01*
X25826Y257776D01*
X25729Y257846D01*
X25604Y257915D01*
X25465Y257984D01*
X25285Y258054D01*
X25271D01*
X25215Y258081D01*
X25119Y258109D01*
X25049Y258137D01*
X24966Y258151D01*
X24869Y258179D01*
X24758Y258220D01*
X24633Y258248D01*
X24494Y258290D01*
X24328Y258331D01*
X24148Y258373D01*
X23953Y258428D01*
X23732Y258484D01*
X23718D01*
X23662Y258498D01*
X23579Y258525D01*
X23482Y258553D01*
X23357Y258595D01*
X23205Y258636D01*
X23052Y258692D01*
X22872Y258747D01*
X22511Y258886D01*
X22164Y259052D01*
X21984Y259135D01*
X21832Y259233D01*
X21679Y259330D01*
X21554Y259427D01*
X21540Y259441D01*
X21513Y259468D01*
X21471Y259510D01*
X21416Y259565D01*
X21346Y259649D01*
X21277Y259746D01*
X21194Y259843D01*
X21124Y259968D01*
X20958Y260259D01*
X20819Y260592D01*
X20764Y260772D01*
X20722Y260952D01*
X20694Y261160D01*
X20681Y261368D01*
Y261382D01*
Y261396D01*
Y261438D01*
Y261493D01*
X20708Y261632D01*
X20736Y261812D01*
X20778Y262020D01*
X20847Y262256D01*
X20944Y262505D01*
X21083Y262741D01*
Y262755D01*
X21097Y262769D01*
X21166Y262852D01*
X21249Y262963D01*
X21388Y263102D01*
X21554Y263254D01*
X21762Y263421D01*
X21998Y263573D01*
X22275Y263712D01*
X22289D01*
X22317Y263726D01*
X22359Y263740D01*
X22414Y263768D01*
X22497Y263795D01*
X22580Y263823D01*
X22692Y263851D01*
X22816Y263892D01*
X23094Y263948D01*
X23413Y264003D01*
X23773Y264045D01*
X24175Y264059D01*
X24342D01*
X24467Y264045D01*
D02*
G37*
G36*
X82395Y261382D02*
X82548Y261354D01*
X82742Y261313D01*
X82950Y261243D01*
X83158Y261160D01*
X83380Y261035D01*
X82797Y259441D01*
X82783Y259454D01*
X82714Y259482D01*
X82631Y259538D01*
X82520Y259593D01*
X82381Y259649D01*
X82242Y259704D01*
X82090Y259732D01*
X81937Y259746D01*
X81882D01*
X81799Y259732D01*
X81715Y259718D01*
X81618Y259690D01*
X81507Y259649D01*
X81396Y259593D01*
X81285Y259524D01*
X81272Y259510D01*
X81244Y259482D01*
X81188Y259427D01*
X81133Y259343D01*
X81064Y259246D01*
X80994Y259108D01*
X80925Y258941D01*
X80869Y258747D01*
Y258719D01*
X80856Y258678D01*
X80842Y258636D01*
Y258567D01*
X80828Y258484D01*
X80814Y258373D01*
X80800Y258248D01*
X80786Y258109D01*
X80772Y257929D01*
X80758Y257749D01*
Y257527D01*
X80745Y257291D01*
X80731Y257027D01*
Y256736D01*
Y256417D01*
Y254282D01*
X78886D01*
Y261243D01*
X80592D01*
Y260259D01*
X80606Y260273D01*
X80661Y260356D01*
X80745Y260481D01*
X80856Y260633D01*
X80967Y260786D01*
X81105Y260938D01*
X81230Y261077D01*
X81369Y261174D01*
X81383Y261188D01*
X81424Y261216D01*
X81507Y261243D01*
X81604Y261285D01*
X81715Y261327D01*
X81854Y261368D01*
X81993Y261382D01*
X82159Y261396D01*
X82270D01*
X82395Y261382D01*
D02*
G37*
G36*
X64505D02*
X64657Y261354D01*
X64851Y261313D01*
X65059Y261243D01*
X65268Y261160D01*
X65489Y261035D01*
X64907Y259441D01*
X64893Y259454D01*
X64824Y259482D01*
X64741Y259538D01*
X64630Y259593D01*
X64491Y259649D01*
X64352Y259704D01*
X64200Y259732D01*
X64047Y259746D01*
X63992D01*
X63908Y259732D01*
X63825Y259718D01*
X63728Y259690D01*
X63617Y259649D01*
X63506Y259593D01*
X63395Y259524D01*
X63381Y259510D01*
X63354Y259482D01*
X63298Y259427D01*
X63243Y259343D01*
X63173Y259246D01*
X63104Y259108D01*
X63035Y258941D01*
X62979Y258747D01*
Y258719D01*
X62965Y258678D01*
X62951Y258636D01*
Y258567D01*
X62938Y258484D01*
X62924Y258373D01*
X62910Y258248D01*
X62896Y258109D01*
X62882Y257929D01*
X62868Y257749D01*
Y257527D01*
X62854Y257291D01*
X62840Y257027D01*
Y256736D01*
Y256417D01*
Y254282D01*
X60996D01*
Y261243D01*
X62702D01*
Y260259D01*
X62716Y260273D01*
X62771Y260356D01*
X62854Y260481D01*
X62965Y260633D01*
X63076Y260786D01*
X63215Y260938D01*
X63340Y261077D01*
X63478Y261174D01*
X63492Y261188D01*
X63534Y261216D01*
X63617Y261243D01*
X63714Y261285D01*
X63825Y261327D01*
X63964Y261368D01*
X64103Y261382D01*
X64269Y261396D01*
X64380D01*
X64505Y261382D01*
D02*
G37*
G36*
X41414D02*
X41566Y261368D01*
X41733Y261341D01*
X41913Y261299D01*
X42107Y261243D01*
X42301Y261174D01*
X42329Y261160D01*
X42385Y261133D01*
X42482Y261091D01*
X42593Y261022D01*
X42717Y260938D01*
X42842Y260841D01*
X42967Y260730D01*
X43078Y260606D01*
X43092Y260592D01*
X43120Y260550D01*
X43161Y260481D01*
X43217Y260384D01*
X43286Y260273D01*
X43341Y260134D01*
X43397Y259995D01*
X43439Y259829D01*
Y259815D01*
X43453Y259746D01*
X43480Y259649D01*
X43494Y259510D01*
X43522Y259343D01*
X43536Y259122D01*
X43550Y258886D01*
Y258595D01*
Y254282D01*
X41705D01*
Y257818D01*
Y257832D01*
Y257873D01*
Y257929D01*
Y257998D01*
Y258095D01*
Y258192D01*
X41691Y258428D01*
X41677Y258664D01*
X41650Y258914D01*
X41622Y259122D01*
X41608Y259205D01*
X41580Y259274D01*
Y259288D01*
X41553Y259330D01*
X41525Y259385D01*
X41483Y259468D01*
X41358Y259635D01*
X41289Y259718D01*
X41192Y259787D01*
X41178Y259801D01*
X41150Y259815D01*
X41095Y259843D01*
X41012Y259884D01*
X40915Y259926D01*
X40817Y259954D01*
X40693Y259968D01*
X40554Y259981D01*
X40471D01*
X40388Y259968D01*
X40277Y259954D01*
X40138Y259912D01*
X39999Y259870D01*
X39847Y259801D01*
X39694Y259718D01*
X39680Y259704D01*
X39639Y259676D01*
X39569Y259607D01*
X39486Y259538D01*
X39403Y259427D01*
X39320Y259316D01*
X39237Y259163D01*
X39181Y259011D01*
Y258997D01*
X39153Y258927D01*
X39139Y258817D01*
X39112Y258650D01*
X39098Y258553D01*
X39084Y258428D01*
X39070Y258303D01*
Y258151D01*
X39056Y257998D01*
X39042Y257818D01*
Y257624D01*
Y257416D01*
Y254282D01*
X37198D01*
Y261243D01*
X38904D01*
Y260217D01*
X38918Y260231D01*
X38945Y260273D01*
X39001Y260328D01*
X39070Y260397D01*
X39153Y260495D01*
X39264Y260592D01*
X39389Y260703D01*
X39528Y260814D01*
X39680Y260911D01*
X39861Y261022D01*
X40041Y261119D01*
X40249Y261216D01*
X40471Y261285D01*
X40693Y261341D01*
X40942Y261382D01*
X41192Y261396D01*
X41289D01*
X41414Y261382D01*
D02*
G37*
G36*
X122100D02*
X122239Y261368D01*
X122391Y261354D01*
X122558Y261341D01*
X122905Y261285D01*
X123251Y261202D01*
X123584Y261077D01*
X123737Y261008D01*
X123875Y260924D01*
X123889D01*
X123903Y260897D01*
X123986Y260841D01*
X124111Y260730D01*
X124250Y260578D01*
X124416Y260397D01*
X124569Y260162D01*
X124721Y259884D01*
X124832Y259565D01*
X123099Y259246D01*
Y259260D01*
X123071Y259316D01*
X123043Y259385D01*
X123002Y259468D01*
X122946Y259579D01*
X122863Y259676D01*
X122780Y259773D01*
X122669Y259857D01*
X122655Y259870D01*
X122613Y259898D01*
X122544Y259926D01*
X122447Y259968D01*
X122322Y260009D01*
X122170Y260051D01*
X121989Y260065D01*
X121781Y260079D01*
X121656D01*
X121532Y260065D01*
X121379Y260051D01*
X121199Y260023D01*
X121032Y259995D01*
X120880Y259940D01*
X120741Y259870D01*
X120727D01*
X120713Y259843D01*
X120644Y259773D01*
X120561Y259649D01*
X120547Y259579D01*
X120533Y259496D01*
Y259482D01*
Y259468D01*
X120561Y259385D01*
X120616Y259274D01*
X120658Y259219D01*
X120713Y259163D01*
X120727Y259149D01*
X120783Y259135D01*
X120810Y259108D01*
X120866Y259094D01*
X120935Y259066D01*
X121018Y259025D01*
X121129Y258997D01*
X121240Y258955D01*
X121379Y258914D01*
X121545Y258872D01*
X121726Y258817D01*
X121934Y258761D01*
X122170Y258706D01*
X122433Y258636D01*
X122447D01*
X122502Y258622D01*
X122572Y258608D01*
X122669Y258581D01*
X122794Y258539D01*
X122932Y258511D01*
X123237Y258414D01*
X123584Y258290D01*
X123917Y258151D01*
X124083Y258068D01*
X124236Y257998D01*
X124361Y257901D01*
X124486Y257818D01*
X124513Y257790D01*
X124583Y257735D01*
X124666Y257624D01*
X124777Y257471D01*
X124888Y257277D01*
X124971Y257041D01*
X125040Y256764D01*
X125068Y256459D01*
Y256445D01*
Y256417D01*
Y256362D01*
X125054Y256292D01*
X125040Y256223D01*
X125026Y256126D01*
X124971Y255890D01*
X124874Y255641D01*
X124804Y255502D01*
X124735Y255363D01*
X124638Y255225D01*
X124527Y255086D01*
X124402Y254947D01*
X124264Y254809D01*
X124250Y254795D01*
X124222Y254781D01*
X124180Y254753D01*
X124111Y254698D01*
X124028Y254656D01*
X123931Y254601D01*
X123806Y254531D01*
X123667Y254476D01*
X123515Y254406D01*
X123335Y254351D01*
X123140Y254282D01*
X122932Y254240D01*
X122697Y254198D01*
X122447Y254157D01*
X122183Y254143D01*
X121906Y254129D01*
X121767D01*
X121670Y254143D01*
X121545D01*
X121407Y254157D01*
X121254Y254171D01*
X121088Y254198D01*
X120727Y254268D01*
X120353Y254365D01*
X119978Y254503D01*
X119812Y254601D01*
X119646Y254698D01*
X119632Y254711D01*
X119604Y254725D01*
X119562Y254753D01*
X119521Y254809D01*
X119368Y254933D01*
X119202Y255114D01*
X119021Y255336D01*
X118855Y255599D01*
X118702Y255918D01*
X118578Y256265D01*
X120422Y256542D01*
Y256514D01*
X120450Y256459D01*
X120478Y256362D01*
X120519Y256237D01*
X120589Y256098D01*
X120672Y255973D01*
X120769Y255835D01*
X120894Y255724D01*
X120907Y255710D01*
X120963Y255682D01*
X121046Y255641D01*
X121157Y255599D01*
X121296Y255544D01*
X121476Y255502D01*
X121670Y255474D01*
X121906Y255460D01*
X122017D01*
X122156Y255474D01*
X122308Y255488D01*
X122475Y255516D01*
X122655Y255571D01*
X122821Y255627D01*
X122974Y255710D01*
X122988Y255724D01*
X123015Y255752D01*
X123057Y255793D01*
X123099Y255849D01*
X123140Y255918D01*
X123182Y256001D01*
X123210Y256098D01*
X123223Y256209D01*
Y256223D01*
Y256251D01*
X123210Y256334D01*
X123168Y256445D01*
X123085Y256556D01*
X123057Y256584D01*
X123015Y256598D01*
X122960Y256639D01*
X122877Y256667D01*
X122766Y256709D01*
X122641Y256750D01*
X122475Y256792D01*
X122447D01*
X122378Y256819D01*
X122267Y256847D01*
X122114Y256875D01*
X121934Y256917D01*
X121740Y256972D01*
X121518Y257027D01*
X121282Y257097D01*
X120797Y257236D01*
X120561Y257305D01*
X120339Y257388D01*
X120131Y257457D01*
X119937Y257541D01*
X119770Y257624D01*
X119646Y257693D01*
X119632Y257707D01*
X119604Y257721D01*
X119576Y257749D01*
X119521Y257804D01*
X119382Y257929D01*
X119243Y258109D01*
X119091Y258331D01*
X118952Y258595D01*
X118897Y258747D01*
X118869Y258914D01*
X118841Y259080D01*
X118827Y259260D01*
Y259274D01*
Y259302D01*
Y259343D01*
X118841Y259413D01*
X118855Y259482D01*
X118869Y259579D01*
X118911Y259787D01*
X118994Y260023D01*
X119132Y260273D01*
X119202Y260411D01*
X119299Y260536D01*
X119410Y260661D01*
X119535Y260772D01*
X119548Y260786D01*
X119562Y260800D01*
X119604Y260827D01*
X119673Y260869D01*
X119743Y260911D01*
X119840Y260966D01*
X119951Y261022D01*
X120075Y261091D01*
X120228Y261146D01*
X120394Y261202D01*
X120575Y261257D01*
X120769Y261299D01*
X120991Y261341D01*
X121227Y261368D01*
X121476Y261396D01*
X121989D01*
X122100Y261382D01*
D02*
G37*
G36*
X107178D02*
X107317Y261368D01*
X107469Y261354D01*
X107635Y261341D01*
X107982Y261285D01*
X108329Y261202D01*
X108662Y261077D01*
X108814Y261008D01*
X108953Y260924D01*
X108967D01*
X108981Y260897D01*
X109064Y260841D01*
X109189Y260730D01*
X109327Y260578D01*
X109494Y260397D01*
X109646Y260162D01*
X109799Y259884D01*
X109910Y259565D01*
X108176Y259246D01*
Y259260D01*
X108149Y259316D01*
X108121Y259385D01*
X108079Y259468D01*
X108024Y259579D01*
X107941Y259676D01*
X107857Y259773D01*
X107746Y259857D01*
X107732Y259870D01*
X107691Y259898D01*
X107622Y259926D01*
X107524Y259968D01*
X107400Y260009D01*
X107247Y260051D01*
X107067Y260065D01*
X106859Y260079D01*
X106734D01*
X106609Y260065D01*
X106457Y260051D01*
X106276Y260023D01*
X106110Y259995D01*
X105957Y259940D01*
X105819Y259870D01*
X105805D01*
X105791Y259843D01*
X105722Y259773D01*
X105638Y259649D01*
X105625Y259579D01*
X105611Y259496D01*
Y259482D01*
Y259468D01*
X105638Y259385D01*
X105694Y259274D01*
X105736Y259219D01*
X105791Y259163D01*
X105805Y259149D01*
X105860Y259135D01*
X105888Y259108D01*
X105943Y259094D01*
X106013Y259066D01*
X106096Y259025D01*
X106207Y258997D01*
X106318Y258955D01*
X106457Y258914D01*
X106623Y258872D01*
X106803Y258817D01*
X107011Y258761D01*
X107247Y258706D01*
X107511Y258636D01*
X107524D01*
X107580Y258622D01*
X107649Y258608D01*
X107746Y258581D01*
X107871Y258539D01*
X108010Y258511D01*
X108315Y258414D01*
X108662Y258290D01*
X108995Y258151D01*
X109161Y258068D01*
X109313Y257998D01*
X109438Y257901D01*
X109563Y257818D01*
X109591Y257790D01*
X109660Y257735D01*
X109743Y257624D01*
X109854Y257471D01*
X109965Y257277D01*
X110049Y257041D01*
X110118Y256764D01*
X110146Y256459D01*
Y256445D01*
Y256417D01*
Y256362D01*
X110132Y256292D01*
X110118Y256223D01*
X110104Y256126D01*
X110049Y255890D01*
X109951Y255641D01*
X109882Y255502D01*
X109813Y255363D01*
X109716Y255225D01*
X109605Y255086D01*
X109480Y254947D01*
X109341Y254809D01*
X109327Y254795D01*
X109300Y254781D01*
X109258Y254753D01*
X109189Y254698D01*
X109106Y254656D01*
X109008Y254601D01*
X108884Y254531D01*
X108745Y254476D01*
X108592Y254406D01*
X108412Y254351D01*
X108218Y254282D01*
X108010Y254240D01*
X107774Y254198D01*
X107524Y254157D01*
X107261Y254143D01*
X106984Y254129D01*
X106845D01*
X106748Y254143D01*
X106623D01*
X106484Y254157D01*
X106332Y254171D01*
X106165Y254198D01*
X105805Y254268D01*
X105430Y254365D01*
X105056Y254503D01*
X104889Y254601D01*
X104723Y254698D01*
X104709Y254711D01*
X104682Y254725D01*
X104640Y254753D01*
X104598Y254809D01*
X104446Y254933D01*
X104279Y255114D01*
X104099Y255336D01*
X103933Y255599D01*
X103780Y255918D01*
X103655Y256265D01*
X105500Y256542D01*
Y256514D01*
X105527Y256459D01*
X105555Y256362D01*
X105597Y256237D01*
X105666Y256098D01*
X105749Y255973D01*
X105846Y255835D01*
X105971Y255724D01*
X105985Y255710D01*
X106041Y255682D01*
X106124Y255641D01*
X106235Y255599D01*
X106373Y255544D01*
X106554Y255502D01*
X106748Y255474D01*
X106984Y255460D01*
X107095D01*
X107233Y255474D01*
X107386Y255488D01*
X107552Y255516D01*
X107732Y255571D01*
X107899Y255627D01*
X108052Y255710D01*
X108065Y255724D01*
X108093Y255752D01*
X108135Y255793D01*
X108176Y255849D01*
X108218Y255918D01*
X108259Y256001D01*
X108287Y256098D01*
X108301Y256209D01*
Y256223D01*
Y256251D01*
X108287Y256334D01*
X108246Y256445D01*
X108162Y256556D01*
X108135Y256584D01*
X108093Y256598D01*
X108038Y256639D01*
X107954Y256667D01*
X107844Y256709D01*
X107719Y256750D01*
X107552Y256792D01*
X107524D01*
X107455Y256819D01*
X107344Y256847D01*
X107192Y256875D01*
X107011Y256917D01*
X106817Y256972D01*
X106595Y257027D01*
X106360Y257097D01*
X105874Y257236D01*
X105638Y257305D01*
X105416Y257388D01*
X105209Y257457D01*
X105014Y257541D01*
X104848Y257624D01*
X104723Y257693D01*
X104709Y257707D01*
X104682Y257721D01*
X104654Y257749D01*
X104598Y257804D01*
X104460Y257929D01*
X104321Y258109D01*
X104168Y258331D01*
X104030Y258595D01*
X103974Y258747D01*
X103947Y258914D01*
X103919Y259080D01*
X103905Y259260D01*
Y259274D01*
Y259302D01*
Y259343D01*
X103919Y259413D01*
X103933Y259482D01*
X103947Y259579D01*
X103988Y259787D01*
X104071Y260023D01*
X104210Y260273D01*
X104279Y260411D01*
X104376Y260536D01*
X104487Y260661D01*
X104612Y260772D01*
X104626Y260786D01*
X104640Y260800D01*
X104682Y260827D01*
X104751Y260869D01*
X104820Y260911D01*
X104917Y260966D01*
X105028Y261022D01*
X105153Y261091D01*
X105306Y261146D01*
X105472Y261202D01*
X105652Y261257D01*
X105846Y261299D01*
X106068Y261341D01*
X106304Y261368D01*
X106554Y261396D01*
X107067D01*
X107178Y261382D01*
D02*
G37*
G36*
X48293D02*
X48431Y261368D01*
X48584Y261354D01*
X48750Y261341D01*
X49097Y261285D01*
X49444Y261202D01*
X49777Y261077D01*
X49929Y261008D01*
X50068Y260924D01*
X50082D01*
X50096Y260897D01*
X50179Y260841D01*
X50304Y260730D01*
X50442Y260578D01*
X50609Y260397D01*
X50761Y260162D01*
X50914Y259884D01*
X51025Y259565D01*
X49291Y259246D01*
Y259260D01*
X49263Y259316D01*
X49236Y259385D01*
X49194Y259468D01*
X49138Y259579D01*
X49055Y259676D01*
X48972Y259773D01*
X48861Y259857D01*
X48847Y259870D01*
X48806Y259898D01*
X48736Y259926D01*
X48639Y259968D01*
X48514Y260009D01*
X48362Y260051D01*
X48182Y260065D01*
X47974Y260079D01*
X47849D01*
X47724Y260065D01*
X47571Y260051D01*
X47391Y260023D01*
X47225Y259995D01*
X47072Y259940D01*
X46933Y259870D01*
X46920D01*
X46906Y259843D01*
X46836Y259773D01*
X46753Y259649D01*
X46739Y259579D01*
X46725Y259496D01*
Y259482D01*
Y259468D01*
X46753Y259385D01*
X46809Y259274D01*
X46850Y259219D01*
X46906Y259163D01*
X46920Y259149D01*
X46975Y259135D01*
X47003Y259108D01*
X47058Y259094D01*
X47128Y259066D01*
X47211Y259025D01*
X47322Y258997D01*
X47433Y258955D01*
X47571Y258914D01*
X47738Y258872D01*
X47918Y258817D01*
X48126Y258761D01*
X48362Y258706D01*
X48625Y258636D01*
X48639D01*
X48695Y258622D01*
X48764Y258608D01*
X48861Y258581D01*
X48986Y258539D01*
X49125Y258511D01*
X49430Y258414D01*
X49777Y258290D01*
X50109Y258151D01*
X50276Y258068D01*
X50428Y257998D01*
X50553Y257901D01*
X50678Y257818D01*
X50706Y257790D01*
X50775Y257735D01*
X50858Y257624D01*
X50969Y257471D01*
X51080Y257277D01*
X51163Y257041D01*
X51233Y256764D01*
X51260Y256459D01*
Y256445D01*
Y256417D01*
Y256362D01*
X51247Y256292D01*
X51233Y256223D01*
X51219Y256126D01*
X51163Y255890D01*
X51066Y255641D01*
X50997Y255502D01*
X50928Y255363D01*
X50830Y255225D01*
X50719Y255086D01*
X50595Y254947D01*
X50456Y254809D01*
X50442Y254795D01*
X50414Y254781D01*
X50373Y254753D01*
X50304Y254698D01*
X50220Y254656D01*
X50123Y254601D01*
X49998Y254531D01*
X49860Y254476D01*
X49707Y254406D01*
X49527Y254351D01*
X49333Y254282D01*
X49125Y254240D01*
X48889Y254198D01*
X48639Y254157D01*
X48376Y254143D01*
X48098Y254129D01*
X47960D01*
X47863Y254143D01*
X47738D01*
X47599Y254157D01*
X47447Y254171D01*
X47280Y254198D01*
X46920Y254268D01*
X46545Y254365D01*
X46171Y254503D01*
X46004Y254601D01*
X45838Y254698D01*
X45824Y254711D01*
X45796Y254725D01*
X45755Y254753D01*
X45713Y254809D01*
X45560Y254933D01*
X45394Y255114D01*
X45214Y255336D01*
X45047Y255599D01*
X44895Y255918D01*
X44770Y256265D01*
X46614Y256542D01*
Y256514D01*
X46642Y256459D01*
X46670Y256362D01*
X46712Y256237D01*
X46781Y256098D01*
X46864Y255973D01*
X46961Y255835D01*
X47086Y255724D01*
X47100Y255710D01*
X47155Y255682D01*
X47239Y255641D01*
X47350Y255599D01*
X47488Y255544D01*
X47668Y255502D01*
X47863Y255474D01*
X48098Y255460D01*
X48209D01*
X48348Y255474D01*
X48501Y255488D01*
X48667Y255516D01*
X48847Y255571D01*
X49014Y255627D01*
X49166Y255710D01*
X49180Y255724D01*
X49208Y255752D01*
X49250Y255793D01*
X49291Y255849D01*
X49333Y255918D01*
X49374Y256001D01*
X49402Y256098D01*
X49416Y256209D01*
Y256223D01*
Y256251D01*
X49402Y256334D01*
X49360Y256445D01*
X49277Y256556D01*
X49250Y256584D01*
X49208Y256598D01*
X49152Y256639D01*
X49069Y256667D01*
X48958Y256709D01*
X48833Y256750D01*
X48667Y256792D01*
X48639D01*
X48570Y256819D01*
X48459Y256847D01*
X48306Y256875D01*
X48126Y256917D01*
X47932Y256972D01*
X47710Y257027D01*
X47474Y257097D01*
X46989Y257236D01*
X46753Y257305D01*
X46531Y257388D01*
X46323Y257457D01*
X46129Y257541D01*
X45963Y257624D01*
X45838Y257693D01*
X45824Y257707D01*
X45796Y257721D01*
X45768Y257749D01*
X45713Y257804D01*
X45574Y257929D01*
X45436Y258109D01*
X45283Y258331D01*
X45144Y258595D01*
X45089Y258747D01*
X45061Y258914D01*
X45033Y259080D01*
X45020Y259260D01*
Y259274D01*
Y259302D01*
Y259343D01*
X45033Y259413D01*
X45047Y259482D01*
X45061Y259579D01*
X45103Y259787D01*
X45186Y260023D01*
X45325Y260273D01*
X45394Y260411D01*
X45491Y260536D01*
X45602Y260661D01*
X45727Y260772D01*
X45741Y260786D01*
X45755Y260800D01*
X45796Y260827D01*
X45866Y260869D01*
X45935Y260911D01*
X46032Y260966D01*
X46143Y261022D01*
X46268Y261091D01*
X46420Y261146D01*
X46587Y261202D01*
X46767Y261257D01*
X46961Y261299D01*
X47183Y261341D01*
X47419Y261368D01*
X47668Y261396D01*
X48182D01*
X48293Y261382D01*
D02*
G37*
G36*
X73727Y263865D02*
X74088D01*
X74476Y263837D01*
X74864Y263809D01*
X75031Y263795D01*
X75197Y263781D01*
X75336Y263754D01*
X75447Y263726D01*
X75461D01*
X75489Y263712D01*
X75530Y263698D01*
X75586Y263684D01*
X75738Y263615D01*
X75932Y263532D01*
X76140Y263407D01*
X76376Y263241D01*
X76598Y263032D01*
X76820Y262783D01*
Y262769D01*
X76848Y262755D01*
X76875Y262714D01*
X76903Y262658D01*
X76958Y262575D01*
X77000Y262492D01*
X77056Y262395D01*
X77111Y262284D01*
X77208Y262006D01*
X77305Y261701D01*
X77361Y261327D01*
X77389Y260924D01*
Y260911D01*
Y260883D01*
Y260841D01*
Y260772D01*
X77375Y260703D01*
Y260606D01*
X77347Y260411D01*
X77305Y260176D01*
X77250Y259912D01*
X77167Y259662D01*
X77056Y259427D01*
X77042Y259399D01*
X77000Y259330D01*
X76931Y259219D01*
X76834Y259080D01*
X76723Y258941D01*
X76570Y258775D01*
X76418Y258622D01*
X76237Y258484D01*
X76210Y258470D01*
X76154Y258428D01*
X76057Y258373D01*
X75932Y258303D01*
X75780Y258220D01*
X75613Y258151D01*
X75433Y258081D01*
X75239Y258026D01*
X75211D01*
X75170Y258012D01*
X75114D01*
X75045Y257998D01*
X74948Y257984D01*
X74851Y257971D01*
X74726D01*
X74601Y257957D01*
X74448Y257943D01*
X74282Y257929D01*
X74102Y257915D01*
X73907D01*
X73699Y257901D01*
X71980D01*
Y254282D01*
X70038D01*
Y263878D01*
X73575D01*
X73727Y263865D01*
D02*
G37*
G36*
X114667Y261382D02*
X114791Y261368D01*
X114944Y261341D01*
X115111Y261313D01*
X115291Y261271D01*
X115485Y261216D01*
X115679Y261146D01*
X115887Y261063D01*
X116095Y260952D01*
X116289Y260841D01*
X116483Y260703D01*
X116678Y260536D01*
X116844Y260356D01*
X116858Y260342D01*
X116886Y260314D01*
X116927Y260245D01*
X116983Y260162D01*
X117052Y260051D01*
X117121Y259926D01*
X117205Y259760D01*
X117288Y259579D01*
X117371Y259371D01*
X117454Y259135D01*
X117524Y258886D01*
X117593Y258595D01*
X117648Y258290D01*
X117690Y257957D01*
X117718Y257610D01*
Y257222D01*
X113113D01*
Y257208D01*
Y257180D01*
Y257138D01*
X113127Y257083D01*
X113141Y256944D01*
X113169Y256750D01*
X113224Y256556D01*
X113308Y256334D01*
X113405Y256126D01*
X113543Y255946D01*
X113557Y255932D01*
X113627Y255876D01*
X113710Y255807D01*
X113835Y255724D01*
X113987Y255641D01*
X114181Y255571D01*
X114389Y255516D01*
X114611Y255502D01*
X114681D01*
X114764Y255516D01*
X114861Y255530D01*
X114972Y255557D01*
X115097Y255599D01*
X115222Y255655D01*
X115332Y255738D01*
X115346Y255752D01*
X115388Y255779D01*
X115443Y255835D01*
X115499Y255918D01*
X115582Y256029D01*
X115651Y256154D01*
X115721Y256320D01*
X115790Y256500D01*
X117621Y256195D01*
Y256182D01*
X117607Y256154D01*
X117579Y256098D01*
X117551Y256029D01*
X117510Y255946D01*
X117468Y255849D01*
X117343Y255627D01*
X117191Y255377D01*
X116997Y255114D01*
X116761Y254878D01*
X116497Y254656D01*
X116483D01*
X116470Y254628D01*
X116414Y254614D01*
X116359Y254573D01*
X116289Y254531D01*
X116192Y254490D01*
X116095Y254448D01*
X115970Y254393D01*
X115693Y254295D01*
X115374Y254212D01*
X115000Y254157D01*
X114597Y254129D01*
X114514D01*
X114431Y254143D01*
X114306D01*
X114154Y254171D01*
X113973Y254198D01*
X113779Y254226D01*
X113585Y254282D01*
X113363Y254337D01*
X113141Y254420D01*
X112919Y254517D01*
X112697Y254628D01*
X112476Y254767D01*
X112268Y254919D01*
X112087Y255100D01*
X111907Y255308D01*
X111893Y255322D01*
X111879Y255349D01*
X111851Y255405D01*
X111796Y255474D01*
X111754Y255571D01*
X111699Y255682D01*
X111629Y255807D01*
X111574Y255960D01*
X111505Y256126D01*
X111449Y256306D01*
X111380Y256500D01*
X111338Y256722D01*
X111297Y256944D01*
X111255Y257180D01*
X111241Y257444D01*
X111227Y257707D01*
Y257721D01*
Y257776D01*
Y257873D01*
X111241Y257998D01*
X111255Y258137D01*
X111269Y258303D01*
X111297Y258484D01*
X111338Y258692D01*
X111449Y259122D01*
X111519Y259343D01*
X111602Y259579D01*
X111713Y259801D01*
X111838Y260009D01*
X111976Y260217D01*
X112129Y260411D01*
X112143Y260425D01*
X112170Y260453D01*
X112226Y260508D01*
X112295Y260564D01*
X112378Y260633D01*
X112489Y260716D01*
X112614Y260814D01*
X112753Y260911D01*
X112905Y260994D01*
X113086Y261091D01*
X113266Y261174D01*
X113474Y261243D01*
X113682Y261299D01*
X113918Y261354D01*
X114154Y261382D01*
X114403Y261396D01*
X114556D01*
X114667Y261382D01*
D02*
G37*
G36*
X99744D02*
X99869Y261368D01*
X100022Y261341D01*
X100188Y261313D01*
X100368Y261271D01*
X100563Y261216D01*
X100757Y261146D01*
X100965Y261063D01*
X101173Y260952D01*
X101367Y260841D01*
X101561Y260703D01*
X101755Y260536D01*
X101922Y260356D01*
X101936Y260342D01*
X101963Y260314D01*
X102005Y260245D01*
X102060Y260162D01*
X102130Y260051D01*
X102199Y259926D01*
X102282Y259760D01*
X102366Y259579D01*
X102449Y259371D01*
X102532Y259135D01*
X102601Y258886D01*
X102671Y258595D01*
X102726Y258290D01*
X102768Y257957D01*
X102795Y257610D01*
Y257222D01*
X98191D01*
Y257208D01*
Y257180D01*
Y257138D01*
X98205Y257083D01*
X98219Y256944D01*
X98246Y256750D01*
X98302Y256556D01*
X98385Y256334D01*
X98482Y256126D01*
X98621Y255946D01*
X98635Y255932D01*
X98704Y255876D01*
X98787Y255807D01*
X98912Y255724D01*
X99065Y255641D01*
X99259Y255571D01*
X99467Y255516D01*
X99689Y255502D01*
X99758D01*
X99841Y255516D01*
X99938Y255530D01*
X100049Y255557D01*
X100174Y255599D01*
X100299Y255655D01*
X100410Y255738D01*
X100424Y255752D01*
X100465Y255779D01*
X100521Y255835D01*
X100576Y255918D01*
X100660Y256029D01*
X100729Y256154D01*
X100798Y256320D01*
X100868Y256500D01*
X102698Y256195D01*
Y256182D01*
X102684Y256154D01*
X102657Y256098D01*
X102629Y256029D01*
X102587Y255946D01*
X102546Y255849D01*
X102421Y255627D01*
X102268Y255377D01*
X102074Y255114D01*
X101839Y254878D01*
X101575Y254656D01*
X101561D01*
X101547Y254628D01*
X101492Y254614D01*
X101436Y254573D01*
X101367Y254531D01*
X101270Y254490D01*
X101173Y254448D01*
X101048Y254393D01*
X100771Y254295D01*
X100452Y254212D01*
X100077Y254157D01*
X99675Y254129D01*
X99592D01*
X99509Y254143D01*
X99384D01*
X99231Y254171D01*
X99051Y254198D01*
X98857Y254226D01*
X98663Y254282D01*
X98441Y254337D01*
X98219Y254420D01*
X97997Y254517D01*
X97775Y254628D01*
X97553Y254767D01*
X97345Y254919D01*
X97165Y255100D01*
X96985Y255308D01*
X96971Y255322D01*
X96957Y255349D01*
X96929Y255405D01*
X96874Y255474D01*
X96832Y255571D01*
X96777Y255682D01*
X96707Y255807D01*
X96652Y255960D01*
X96582Y256126D01*
X96527Y256306D01*
X96458Y256500D01*
X96416Y256722D01*
X96374Y256944D01*
X96333Y257180D01*
X96319Y257444D01*
X96305Y257707D01*
Y257721D01*
Y257776D01*
Y257873D01*
X96319Y257998D01*
X96333Y258137D01*
X96347Y258303D01*
X96374Y258484D01*
X96416Y258692D01*
X96527Y259122D01*
X96596Y259343D01*
X96679Y259579D01*
X96790Y259801D01*
X96915Y260009D01*
X97054Y260217D01*
X97206Y260411D01*
X97220Y260425D01*
X97248Y260453D01*
X97303Y260508D01*
X97373Y260564D01*
X97456Y260633D01*
X97567Y260716D01*
X97692Y260814D01*
X97830Y260911D01*
X97983Y260994D01*
X98163Y261091D01*
X98344Y261174D01*
X98552Y261243D01*
X98760Y261299D01*
X98995Y261354D01*
X99231Y261382D01*
X99481Y261396D01*
X99633D01*
X99744Y261382D01*
D02*
G37*
G36*
X94308Y261243D02*
X95570D01*
Y259773D01*
X94308D01*
Y256958D01*
Y256944D01*
Y256917D01*
Y256875D01*
Y256819D01*
Y256681D01*
Y256514D01*
X94322Y256348D01*
Y256182D01*
Y256057D01*
X94336Y256001D01*
Y255973D01*
X94349Y255946D01*
X94377Y255890D01*
X94419Y255821D01*
X94502Y255738D01*
X94530Y255724D01*
X94585Y255696D01*
X94682Y255668D01*
X94807Y255655D01*
X94863D01*
X94918Y255668D01*
X95001Y255682D01*
X95112Y255696D01*
X95237Y255724D01*
X95390Y255765D01*
X95556Y255821D01*
X95723Y254393D01*
X95709D01*
X95695Y254379D01*
X95611Y254351D01*
X95473Y254309D01*
X95293Y254268D01*
X95084Y254212D01*
X94835Y254171D01*
X94558Y254143D01*
X94266Y254129D01*
X94183D01*
X94086Y254143D01*
X93961Y254157D01*
X93822Y254171D01*
X93670Y254198D01*
X93517Y254240D01*
X93365Y254295D01*
X93351Y254309D01*
X93295Y254323D01*
X93226Y254365D01*
X93143Y254406D01*
X92949Y254545D01*
X92852Y254628D01*
X92768Y254725D01*
X92755Y254739D01*
X92741Y254781D01*
X92713Y254836D01*
X92671Y254919D01*
X92630Y255017D01*
X92588Y255141D01*
X92547Y255280D01*
X92519Y255433D01*
Y255446D01*
X92505Y255502D01*
Y255585D01*
X92491Y255724D01*
X92477Y255904D01*
Y256126D01*
X92463Y256251D01*
Y256403D01*
Y256556D01*
Y256736D01*
Y259773D01*
X91617D01*
Y261243D01*
X92463D01*
Y262630D01*
X94308Y263712D01*
Y261243D01*
D02*
G37*
G36*
X87596Y261382D02*
X87734Y261368D01*
X87887Y261341D01*
X88067Y261313D01*
X88247Y261271D01*
X88455Y261216D01*
X88664Y261146D01*
X88871Y261063D01*
X89093Y260966D01*
X89315Y260841D01*
X89523Y260703D01*
X89731Y260550D01*
X89925Y260370D01*
X89939Y260356D01*
X89967Y260328D01*
X90023Y260259D01*
X90078Y260189D01*
X90161Y260079D01*
X90245Y259968D01*
X90342Y259815D01*
X90439Y259662D01*
X90522Y259482D01*
X90619Y259288D01*
X90702Y259066D01*
X90785Y258844D01*
X90841Y258595D01*
X90896Y258345D01*
X90924Y258068D01*
X90938Y257776D01*
Y257763D01*
Y257707D01*
Y257624D01*
X90924Y257513D01*
X90910Y257374D01*
X90882Y257222D01*
X90855Y257041D01*
X90813Y256861D01*
X90758Y256653D01*
X90688Y256445D01*
X90605Y256223D01*
X90508Y256001D01*
X90383Y255779D01*
X90245Y255571D01*
X90092Y255363D01*
X89912Y255155D01*
X89898Y255141D01*
X89870Y255114D01*
X89815Y255058D01*
X89731Y254989D01*
X89634Y254919D01*
X89509Y254836D01*
X89371Y254739D01*
X89218Y254642D01*
X89038Y254545D01*
X88844Y254448D01*
X88636Y254365D01*
X88400Y254295D01*
X88164Y254226D01*
X87901Y254171D01*
X87637Y254143D01*
X87346Y254129D01*
X87249D01*
X87180Y254143D01*
X87096D01*
X86999Y254157D01*
X86763Y254184D01*
X86472Y254240D01*
X86167Y254309D01*
X85848Y254420D01*
X85515Y254559D01*
X85501D01*
X85474Y254573D01*
X85432Y254601D01*
X85377Y254642D01*
X85224Y254739D01*
X85030Y254878D01*
X84822Y255058D01*
X84600Y255280D01*
X84392Y255530D01*
X84198Y255821D01*
Y255835D01*
X84184Y255863D01*
X84156Y255904D01*
X84129Y255973D01*
X84101Y256057D01*
X84059Y256154D01*
X84018Y256265D01*
X83976Y256390D01*
X83934Y256528D01*
X83893Y256681D01*
X83823Y257027D01*
X83768Y257430D01*
X83754Y257860D01*
Y257873D01*
Y257901D01*
Y257957D01*
X83768Y258012D01*
Y258095D01*
X83782Y258192D01*
X83809Y258428D01*
X83865Y258692D01*
X83948Y258983D01*
X84045Y259302D01*
X84198Y259621D01*
Y259635D01*
X84226Y259662D01*
X84240Y259704D01*
X84281Y259760D01*
X84392Y259912D01*
X84531Y260106D01*
X84711Y260314D01*
X84933Y260536D01*
X85183Y260744D01*
X85474Y260938D01*
X85488D01*
X85515Y260952D01*
X85557Y260980D01*
X85626Y261008D01*
X85696Y261049D01*
X85793Y261077D01*
X85904Y261119D01*
X86015Y261174D01*
X86292Y261257D01*
X86611Y261327D01*
X86958Y261382D01*
X87332Y261396D01*
X87485D01*
X87596Y261382D01*
D02*
G37*
G36*
X56295D02*
X56433Y261368D01*
X56586Y261341D01*
X56766Y261313D01*
X56946Y261271D01*
X57154Y261216D01*
X57362Y261146D01*
X57571Y261063D01*
X57792Y260966D01*
X58014Y260841D01*
X58222Y260703D01*
X58430Y260550D01*
X58625Y260370D01*
X58638Y260356D01*
X58666Y260328D01*
X58722Y260259D01*
X58777Y260189D01*
X58860Y260079D01*
X58944Y259968D01*
X59041Y259815D01*
X59138Y259662D01*
X59221Y259482D01*
X59318Y259288D01*
X59401Y259066D01*
X59484Y258844D01*
X59540Y258595D01*
X59595Y258345D01*
X59623Y258068D01*
X59637Y257776D01*
Y257763D01*
Y257707D01*
Y257624D01*
X59623Y257513D01*
X59609Y257374D01*
X59581Y257222D01*
X59554Y257041D01*
X59512Y256861D01*
X59457Y256653D01*
X59387Y256445D01*
X59304Y256223D01*
X59207Y256001D01*
X59082Y255779D01*
X58944Y255571D01*
X58791Y255363D01*
X58611Y255155D01*
X58597Y255141D01*
X58569Y255114D01*
X58514Y255058D01*
X58430Y254989D01*
X58333Y254919D01*
X58208Y254836D01*
X58070Y254739D01*
X57917Y254642D01*
X57737Y254545D01*
X57543Y254448D01*
X57335Y254365D01*
X57099Y254295D01*
X56863Y254226D01*
X56600Y254171D01*
X56336Y254143D01*
X56045Y254129D01*
X55948D01*
X55879Y254143D01*
X55795D01*
X55698Y254157D01*
X55462Y254184D01*
X55171Y254240D01*
X54866Y254309D01*
X54547Y254420D01*
X54214Y254559D01*
X54201D01*
X54173Y254573D01*
X54131Y254601D01*
X54076Y254642D01*
X53923Y254739D01*
X53729Y254878D01*
X53521Y255058D01*
X53299Y255280D01*
X53091Y255530D01*
X52897Y255821D01*
Y255835D01*
X52883Y255863D01*
X52855Y255904D01*
X52828Y255973D01*
X52800Y256057D01*
X52758Y256154D01*
X52717Y256265D01*
X52675Y256390D01*
X52633Y256528D01*
X52592Y256681D01*
X52522Y257027D01*
X52467Y257430D01*
X52453Y257860D01*
Y257873D01*
Y257901D01*
Y257957D01*
X52467Y258012D01*
Y258095D01*
X52481Y258192D01*
X52509Y258428D01*
X52564Y258692D01*
X52647Y258983D01*
X52744Y259302D01*
X52897Y259621D01*
Y259635D01*
X52925Y259662D01*
X52938Y259704D01*
X52980Y259760D01*
X53091Y259912D01*
X53230Y260106D01*
X53410Y260314D01*
X53632Y260536D01*
X53882Y260744D01*
X54173Y260938D01*
X54187D01*
X54214Y260952D01*
X54256Y260980D01*
X54325Y261008D01*
X54395Y261049D01*
X54492Y261077D01*
X54603Y261119D01*
X54714Y261174D01*
X54991Y261257D01*
X55310Y261327D01*
X55657Y261382D01*
X56031Y261396D01*
X56184D01*
X56295Y261382D01*
D02*
G37*
G36*
X32663D02*
X32788Y261368D01*
X32940Y261341D01*
X33107Y261313D01*
X33287Y261271D01*
X33481Y261216D01*
X33675Y261146D01*
X33883Y261063D01*
X34091Y260952D01*
X34286Y260841D01*
X34480Y260703D01*
X34674Y260536D01*
X34840Y260356D01*
X34854Y260342D01*
X34882Y260314D01*
X34923Y260245D01*
X34979Y260162D01*
X35048Y260051D01*
X35118Y259926D01*
X35201Y259760D01*
X35284Y259579D01*
X35367Y259371D01*
X35450Y259135D01*
X35520Y258886D01*
X35589Y258595D01*
X35645Y258290D01*
X35686Y257957D01*
X35714Y257610D01*
Y257222D01*
X31110D01*
Y257208D01*
Y257180D01*
Y257138D01*
X31123Y257083D01*
X31137Y256944D01*
X31165Y256750D01*
X31221Y256556D01*
X31304Y256334D01*
X31401Y256126D01*
X31539Y255946D01*
X31553Y255932D01*
X31623Y255876D01*
X31706Y255807D01*
X31831Y255724D01*
X31983Y255641D01*
X32178Y255571D01*
X32385Y255516D01*
X32607Y255502D01*
X32677D01*
X32760Y255516D01*
X32857Y255530D01*
X32968Y255557D01*
X33093Y255599D01*
X33218Y255655D01*
X33329Y255738D01*
X33342Y255752D01*
X33384Y255779D01*
X33440Y255835D01*
X33495Y255918D01*
X33578Y256029D01*
X33647Y256154D01*
X33717Y256320D01*
X33786Y256500D01*
X35617Y256195D01*
Y256182D01*
X35603Y256154D01*
X35575Y256098D01*
X35547Y256029D01*
X35506Y255946D01*
X35464Y255849D01*
X35340Y255627D01*
X35187Y255377D01*
X34993Y255114D01*
X34757Y254878D01*
X34494Y254656D01*
X34480D01*
X34466Y254628D01*
X34410Y254614D01*
X34355Y254573D01*
X34286Y254531D01*
X34188Y254490D01*
X34091Y254448D01*
X33967Y254393D01*
X33689Y254295D01*
X33370Y254212D01*
X32996Y254157D01*
X32594Y254129D01*
X32510D01*
X32427Y254143D01*
X32302D01*
X32150Y254171D01*
X31969Y254198D01*
X31775Y254226D01*
X31581Y254282D01*
X31359Y254337D01*
X31137Y254420D01*
X30916Y254517D01*
X30694Y254628D01*
X30472Y254767D01*
X30264Y254919D01*
X30083Y255100D01*
X29903Y255308D01*
X29889Y255322D01*
X29875Y255349D01*
X29848Y255405D01*
X29792Y255474D01*
X29750Y255571D01*
X29695Y255682D01*
X29626Y255807D01*
X29570Y255960D01*
X29501Y256126D01*
X29445Y256306D01*
X29376Y256500D01*
X29334Y256722D01*
X29293Y256944D01*
X29251Y257180D01*
X29237Y257444D01*
X29223Y257707D01*
Y257721D01*
Y257776D01*
Y257873D01*
X29237Y257998D01*
X29251Y258137D01*
X29265Y258303D01*
X29293Y258484D01*
X29334Y258692D01*
X29445Y259122D01*
X29515Y259343D01*
X29598Y259579D01*
X29709Y259801D01*
X29834Y260009D01*
X29972Y260217D01*
X30125Y260411D01*
X30139Y260425D01*
X30167Y260453D01*
X30222Y260508D01*
X30291Y260564D01*
X30375Y260633D01*
X30485Y260716D01*
X30610Y260814D01*
X30749Y260911D01*
X30902Y260994D01*
X31082Y261091D01*
X31262Y261174D01*
X31470Y261243D01*
X31678Y261299D01*
X31914Y261354D01*
X32150Y261382D01*
X32399Y261396D01*
X32552D01*
X32663Y261382D01*
D02*
G37*
G36*
X85935Y244433D02*
X84705D01*
Y249065D01*
X84696Y249055D01*
X84678Y249037D01*
X84641Y249009D01*
X84585Y248963D01*
X84521Y248907D01*
X84447Y248852D01*
X84354Y248787D01*
X84253Y248713D01*
X84142Y248639D01*
X84021Y248565D01*
X83892Y248482D01*
X83753Y248408D01*
X83457Y248270D01*
X83125Y248140D01*
Y249249D01*
X83134D01*
X83143Y249259D01*
X83171Y249268D01*
X83208Y249277D01*
X83300Y249324D01*
X83430Y249379D01*
X83587Y249453D01*
X83762Y249555D01*
X83957Y249684D01*
X84160Y249832D01*
X84169Y249841D01*
X84188Y249851D01*
X84215Y249878D01*
X84253Y249915D01*
X84354Y250008D01*
X84465Y250128D01*
X84594Y250276D01*
X84724Y250461D01*
X84844Y250655D01*
X84937Y250868D01*
X85935D01*
Y244433D01*
D02*
G37*
G36*
X79593Y250821D02*
X79694D01*
X79796Y250812D01*
X79916D01*
X80157Y250784D01*
X80406Y250756D01*
X80637Y250710D01*
X80739Y250683D01*
X80832Y250655D01*
X80841D01*
X80850Y250646D01*
X80906Y250618D01*
X80989Y250572D01*
X81100Y250516D01*
X81220Y250424D01*
X81340Y250322D01*
X81460Y250193D01*
X81571Y250035D01*
Y250026D01*
X81580Y250017D01*
X81599Y249989D01*
X81617Y249961D01*
X81664Y249869D01*
X81719Y249749D01*
X81765Y249601D01*
X81812Y249434D01*
X81849Y249240D01*
X81858Y249037D01*
Y249028D01*
Y249009D01*
Y248963D01*
X81849Y248917D01*
Y248852D01*
X81839Y248787D01*
X81802Y248621D01*
X81756Y248427D01*
X81682Y248232D01*
X81571Y248029D01*
X81507Y247937D01*
X81433Y247844D01*
X81423Y247835D01*
X81414Y247826D01*
X81386Y247798D01*
X81349Y247770D01*
X81312Y247733D01*
X81257Y247687D01*
X81192Y247641D01*
X81118Y247595D01*
X81035Y247539D01*
X80933Y247493D01*
X80832Y247447D01*
X80721Y247400D01*
X80591Y247354D01*
X80462Y247317D01*
X80323Y247280D01*
X80166Y247252D01*
X80175D01*
X80184Y247243D01*
X80240Y247206D01*
X80314Y247160D01*
X80406Y247095D01*
X80517Y247012D01*
X80628Y246929D01*
X80748Y246827D01*
X80850Y246716D01*
X80859Y246707D01*
X80906Y246661D01*
X80961Y246587D01*
X81044Y246476D01*
X81155Y246337D01*
X81211Y246245D01*
X81275Y246152D01*
X81349Y246050D01*
X81423Y245940D01*
X81507Y245810D01*
X81590Y245681D01*
X82376Y244433D01*
X80822D01*
X79898Y245819D01*
X79889Y245829D01*
X79879Y245856D01*
X79852Y245893D01*
X79815Y245940D01*
X79778Y245995D01*
X79731Y246069D01*
X79630Y246217D01*
X79510Y246383D01*
X79398Y246531D01*
X79297Y246670D01*
X79251Y246716D01*
X79214Y246762D01*
X79204Y246772D01*
X79186Y246790D01*
X79149Y246827D01*
X79103Y246873D01*
X79038Y246910D01*
X78973Y246957D01*
X78899Y246994D01*
X78825Y247031D01*
X78816D01*
X78788Y247040D01*
X78742Y247058D01*
X78668Y247068D01*
X78576Y247086D01*
X78465Y247095D01*
X78335Y247104D01*
X77919D01*
Y244433D01*
X76625D01*
Y250830D01*
X79510D01*
X79593Y250821D01*
D02*
G37*
G36*
X103820Y234445D02*
X103921Y234436D01*
X104032Y234418D01*
X104162Y234399D01*
X104300Y234371D01*
X104448Y234334D01*
X104606Y234288D01*
X104763Y234233D01*
X104929Y234159D01*
X105086Y234085D01*
X105234Y233992D01*
X105392Y233881D01*
X105530Y233761D01*
X105539D01*
X105549Y233743D01*
X105576Y233715D01*
X105604Y233687D01*
X105641Y233641D01*
X105678Y233585D01*
X105780Y233456D01*
X105882Y233290D01*
X105992Y233086D01*
X106094Y232855D01*
X106187Y232587D01*
X104911Y232282D01*
Y232291D01*
X104902Y232300D01*
Y232328D01*
X104883Y232365D01*
X104855Y232448D01*
X104809Y232559D01*
X104744Y232689D01*
X104661Y232818D01*
X104550Y232948D01*
X104430Y233058D01*
X104411Y233068D01*
X104365Y233105D01*
X104291Y233151D01*
X104190Y233206D01*
X104060Y233262D01*
X103912Y233308D01*
X103746Y233345D01*
X103561Y233354D01*
X103496D01*
X103441Y233345D01*
X103385Y233336D01*
X103311Y233327D01*
X103154Y233290D01*
X102969Y233225D01*
X102775Y233132D01*
X102673Y233077D01*
X102581Y233012D01*
X102488Y232929D01*
X102405Y232837D01*
Y232827D01*
X102387Y232809D01*
X102368Y232781D01*
X102340Y232735D01*
X102303Y232679D01*
X102267Y232615D01*
X102229Y232532D01*
X102192Y232439D01*
X102146Y232328D01*
X102109Y232208D01*
X102072Y232069D01*
X102035Y231921D01*
X102008Y231755D01*
X101989Y231579D01*
X101980Y231385D01*
X101971Y231172D01*
Y231163D01*
Y231117D01*
Y231052D01*
X101980Y230978D01*
Y230877D01*
X101998Y230756D01*
X102008Y230636D01*
X102026Y230497D01*
X102082Y230211D01*
X102156Y229924D01*
X102202Y229785D01*
X102267Y229656D01*
X102331Y229536D01*
X102405Y229434D01*
X102414Y229425D01*
X102424Y229416D01*
X102451Y229388D01*
X102488Y229351D01*
X102581Y229277D01*
X102710Y229185D01*
X102867Y229083D01*
X103062Y229009D01*
X103284Y228944D01*
X103404Y228935D01*
X103533Y228926D01*
X103579D01*
X103616Y228935D01*
X103718Y228944D01*
X103838Y228963D01*
X103968Y229009D01*
X104116Y229064D01*
X104263Y229138D01*
X104411Y229249D01*
X104430Y229268D01*
X104476Y229314D01*
X104541Y229388D01*
X104615Y229499D01*
X104707Y229647D01*
X104790Y229823D01*
X104874Y230035D01*
X104948Y230285D01*
X106205Y229897D01*
Y229887D01*
X106196Y229850D01*
X106177Y229795D01*
X106150Y229721D01*
X106113Y229638D01*
X106076Y229536D01*
X106030Y229425D01*
X105974Y229305D01*
X105844Y229055D01*
X105678Y228796D01*
X105475Y228547D01*
X105364Y228436D01*
X105244Y228334D01*
X105234Y228325D01*
X105216Y228316D01*
X105179Y228288D01*
X105123Y228251D01*
X105059Y228214D01*
X104976Y228177D01*
X104883Y228131D01*
X104781Y228084D01*
X104661Y228029D01*
X104532Y227983D01*
X104393Y227946D01*
X104245Y227909D01*
X104088Y227872D01*
X103912Y227844D01*
X103736Y227835D01*
X103542Y227826D01*
X103487D01*
X103422Y227835D01*
X103330Y227844D01*
X103228Y227853D01*
X103099Y227872D01*
X102960Y227899D01*
X102803Y227936D01*
X102646Y227983D01*
X102479Y228038D01*
X102303Y228112D01*
X102128Y228195D01*
X101952Y228288D01*
X101777Y228408D01*
X101610Y228537D01*
X101453Y228694D01*
X101444Y228704D01*
X101416Y228731D01*
X101379Y228787D01*
X101323Y228852D01*
X101268Y228944D01*
X101194Y229046D01*
X101120Y229175D01*
X101046Y229323D01*
X100972Y229480D01*
X100898Y229656D01*
X100824Y229860D01*
X100769Y230072D01*
X100713Y230294D01*
X100676Y230544D01*
X100648Y230802D01*
X100639Y231080D01*
Y231089D01*
Y231098D01*
Y231154D01*
X100648Y231237D01*
Y231348D01*
X100667Y231478D01*
X100686Y231635D01*
X100704Y231801D01*
X100741Y231995D01*
X100787Y232189D01*
X100843Y232393D01*
X100907Y232596D01*
X100991Y232809D01*
X101083Y233012D01*
X101194Y233206D01*
X101314Y233391D01*
X101462Y233567D01*
X101471Y233576D01*
X101499Y233604D01*
X101545Y233650D01*
X101610Y233706D01*
X101693Y233770D01*
X101795Y233844D01*
X101906Y233927D01*
X102045Y234011D01*
X102192Y234094D01*
X102350Y234177D01*
X102535Y234251D01*
X102719Y234316D01*
X102932Y234371D01*
X103145Y234418D01*
X103385Y234445D01*
X103626Y234454D01*
X103736D01*
X103820Y234445D01*
D02*
G37*
G36*
X110181Y227936D02*
X108951D01*
Y232568D01*
X108942Y232559D01*
X108923Y232541D01*
X108886Y232513D01*
X108831Y232467D01*
X108766Y232411D01*
X108692Y232356D01*
X108600Y232291D01*
X108498Y232217D01*
X108387Y232143D01*
X108267Y232069D01*
X108138Y231986D01*
X107999Y231912D01*
X107703Y231773D01*
X107370Y231644D01*
Y232753D01*
X107379D01*
X107389Y232763D01*
X107416Y232772D01*
X107453Y232781D01*
X107546Y232827D01*
X107675Y232883D01*
X107832Y232957D01*
X108008Y233058D01*
X108202Y233188D01*
X108406Y233336D01*
X108415Y233345D01*
X108433Y233354D01*
X108461Y233382D01*
X108498Y233419D01*
X108600Y233512D01*
X108711Y233632D01*
X108840Y233780D01*
X108970Y233965D01*
X109090Y234159D01*
X109182Y234371D01*
X110181D01*
Y227936D01*
D02*
G37*
G36*
X51631Y192365D02*
Y192346D01*
Y192272D01*
Y192143D01*
Y191995D01*
Y191809D01*
X51613Y191587D01*
Y191346D01*
Y191106D01*
X51576Y190569D01*
X51539Y190013D01*
X51520Y189773D01*
X51483Y189532D01*
X51446Y189310D01*
X51409Y189106D01*
Y189088D01*
X51390Y189069D01*
Y189013D01*
X51372Y188958D01*
X51316Y188773D01*
X51242Y188550D01*
X51131Y188291D01*
X51002Y188032D01*
X50835Y187754D01*
X50631Y187495D01*
X50613Y187458D01*
X50539Y187384D01*
X50409Y187273D01*
X50242Y187125D01*
X50020Y186958D01*
X49761Y186791D01*
X49465Y186606D01*
X49131Y186458D01*
X49113D01*
X49094Y186440D01*
X49039Y186421D01*
X48965Y186403D01*
X48872Y186366D01*
X48761Y186329D01*
X48613Y186292D01*
X48465Y186273D01*
X48113Y186199D01*
X47687Y186125D01*
X47206Y186088D01*
X46669Y186069D01*
X46372D01*
X46206Y186088D01*
X46039D01*
X45835Y186106D01*
X45632Y186125D01*
X45187Y186162D01*
X44724Y186236D01*
X44262Y186347D01*
X44058Y186403D01*
X43873Y186477D01*
X43854D01*
X43836Y186495D01*
X43725Y186551D01*
X43539Y186643D01*
X43336Y186773D01*
X43095Y186940D01*
X42836Y187125D01*
X42595Y187347D01*
X42373Y187588D01*
X42354Y187625D01*
X42280Y187699D01*
X42188Y187847D01*
X42077Y188032D01*
X41965Y188236D01*
X41836Y188477D01*
X41743Y188736D01*
X41651Y189013D01*
Y189032D01*
X41632Y189069D01*
Y189125D01*
X41614Y189217D01*
X41595Y189328D01*
X41577Y189476D01*
X41558Y189643D01*
X41540Y189828D01*
X41503Y190050D01*
X41484Y190291D01*
X41466Y190550D01*
X41447Y190847D01*
X41428Y191161D01*
Y191513D01*
X41410Y191884D01*
Y192272D01*
Y199123D01*
X44002D01*
Y192161D01*
Y192143D01*
Y192087D01*
Y192013D01*
Y191902D01*
Y191754D01*
Y191606D01*
X44021Y191273D01*
Y190902D01*
X44039Y190550D01*
X44058Y190384D01*
Y190236D01*
X44076Y190124D01*
X44095Y190013D01*
Y189976D01*
X44132Y189884D01*
X44187Y189736D01*
X44262Y189550D01*
X44354Y189347D01*
X44502Y189143D01*
X44669Y188921D01*
X44873Y188736D01*
X44910Y188717D01*
X44984Y188662D01*
X45132Y188588D01*
X45317Y188514D01*
X45576Y188421D01*
X45873Y188347D01*
X46206Y188291D01*
X46595Y188273D01*
X46780D01*
X46965Y188291D01*
X47206Y188328D01*
X47483Y188384D01*
X47743Y188458D01*
X48020Y188569D01*
X48243Y188717D01*
X48261Y188736D01*
X48335Y188791D01*
X48428Y188884D01*
X48539Y189013D01*
X48650Y189180D01*
X48761Y189365D01*
X48854Y189569D01*
X48909Y189810D01*
Y189847D01*
X48928Y189939D01*
X48946Y190106D01*
X48983Y190328D01*
Y190476D01*
X49002Y190643D01*
Y190828D01*
X49020Y191013D01*
Y191235D01*
X49039Y191476D01*
Y191735D01*
Y192013D01*
Y199123D01*
X51631D01*
Y192365D01*
D02*
G37*
G36*
X60093Y186310D02*
X57631D01*
Y195587D01*
X57612Y195568D01*
X57575Y195531D01*
X57501Y195476D01*
X57390Y195383D01*
X57260Y195272D01*
X57112Y195161D01*
X56927Y195031D01*
X56723Y194883D01*
X56501Y194735D01*
X56260Y194587D01*
X56001Y194420D01*
X55723Y194272D01*
X55131Y193994D01*
X54464Y193735D01*
Y195957D01*
X54483D01*
X54501Y195976D01*
X54557Y195994D01*
X54631Y196013D01*
X54816Y196105D01*
X55075Y196216D01*
X55390Y196364D01*
X55742Y196568D01*
X56131Y196827D01*
X56538Y197124D01*
X56557Y197142D01*
X56594Y197161D01*
X56649Y197216D01*
X56723Y197290D01*
X56927Y197475D01*
X57149Y197716D01*
X57408Y198013D01*
X57668Y198383D01*
X57908Y198772D01*
X58094Y199198D01*
X60093D01*
Y186310D01*
D02*
G37*
G36*
X120823Y196370D02*
X120925Y196361D01*
X121035Y196343D01*
X121165Y196324D01*
X121304Y196296D01*
X121452Y196259D01*
X121609Y196213D01*
X121766Y196158D01*
X121932Y196084D01*
X122090Y196010D01*
X122237Y195917D01*
X122395Y195806D01*
X122533Y195686D01*
X122542D01*
X122552Y195668D01*
X122579Y195640D01*
X122607Y195612D01*
X122644Y195566D01*
X122681Y195511D01*
X122783Y195381D01*
X122885Y195215D01*
X122996Y195011D01*
X123097Y194780D01*
X123190Y194512D01*
X121914Y194207D01*
Y194216D01*
X121905Y194225D01*
Y194253D01*
X121886Y194290D01*
X121858Y194373D01*
X121812Y194484D01*
X121747Y194614D01*
X121664Y194743D01*
X121553Y194872D01*
X121433Y194984D01*
X121415Y194993D01*
X121368Y195030D01*
X121294Y195076D01*
X121193Y195131D01*
X121063Y195187D01*
X120915Y195233D01*
X120749Y195270D01*
X120564Y195279D01*
X120499D01*
X120444Y195270D01*
X120388Y195261D01*
X120314Y195252D01*
X120157Y195215D01*
X119972Y195150D01*
X119778Y195057D01*
X119676Y195002D01*
X119584Y194937D01*
X119492Y194854D01*
X119408Y194762D01*
Y194752D01*
X119390Y194734D01*
X119371Y194706D01*
X119344Y194660D01*
X119307Y194604D01*
X119270Y194540D01*
X119233Y194457D01*
X119196Y194364D01*
X119149Y194253D01*
X119112Y194133D01*
X119075Y193994D01*
X119038Y193846D01*
X119011Y193680D01*
X118992Y193504D01*
X118983Y193310D01*
X118974Y193097D01*
Y193088D01*
Y193042D01*
Y192977D01*
X118983Y192903D01*
Y192801D01*
X119002Y192681D01*
X119011Y192561D01*
X119029Y192422D01*
X119085Y192136D01*
X119159Y191849D01*
X119205Y191710D01*
X119270Y191581D01*
X119334Y191461D01*
X119408Y191359D01*
X119417Y191350D01*
X119427Y191341D01*
X119454Y191313D01*
X119492Y191276D01*
X119584Y191202D01*
X119713Y191110D01*
X119871Y191008D01*
X120065Y190934D01*
X120287Y190869D01*
X120407Y190860D01*
X120536Y190851D01*
X120583D01*
X120619Y190860D01*
X120721Y190869D01*
X120841Y190888D01*
X120971Y190934D01*
X121119Y190989D01*
X121267Y191063D01*
X121415Y191174D01*
X121433Y191193D01*
X121479Y191239D01*
X121544Y191313D01*
X121618Y191424D01*
X121710Y191572D01*
X121794Y191747D01*
X121877Y191960D01*
X121951Y192210D01*
X123208Y191821D01*
Y191812D01*
X123199Y191775D01*
X123181Y191720D01*
X123153Y191646D01*
X123116Y191563D01*
X123079Y191461D01*
X123033Y191350D01*
X122977Y191230D01*
X122848Y190980D01*
X122681Y190721D01*
X122478Y190472D01*
X122367Y190361D01*
X122247Y190259D01*
X122237Y190250D01*
X122219Y190240D01*
X122182Y190213D01*
X122127Y190176D01*
X122062Y190139D01*
X121979Y190102D01*
X121886Y190056D01*
X121784Y190009D01*
X121664Y189954D01*
X121535Y189908D01*
X121396Y189871D01*
X121248Y189834D01*
X121091Y189797D01*
X120915Y189769D01*
X120740Y189760D01*
X120546Y189750D01*
X120490D01*
X120425Y189760D01*
X120333Y189769D01*
X120231Y189778D01*
X120102Y189797D01*
X119963Y189824D01*
X119806Y189861D01*
X119649Y189908D01*
X119482Y189963D01*
X119307Y190037D01*
X119131Y190120D01*
X118955Y190213D01*
X118780Y190333D01*
X118613Y190462D01*
X118456Y190620D01*
X118447Y190629D01*
X118419Y190657D01*
X118382Y190712D01*
X118327Y190777D01*
X118271Y190869D01*
X118197Y190971D01*
X118123Y191100D01*
X118049Y191248D01*
X117975Y191405D01*
X117901Y191581D01*
X117827Y191784D01*
X117772Y191997D01*
X117716Y192219D01*
X117679Y192469D01*
X117652Y192728D01*
X117642Y193005D01*
Y193014D01*
Y193023D01*
Y193079D01*
X117652Y193162D01*
Y193273D01*
X117670Y193403D01*
X117689Y193560D01*
X117707Y193726D01*
X117744Y193920D01*
X117790Y194114D01*
X117846Y194318D01*
X117910Y194521D01*
X117994Y194734D01*
X118086Y194937D01*
X118197Y195131D01*
X118317Y195316D01*
X118465Y195492D01*
X118475Y195501D01*
X118502Y195529D01*
X118548Y195575D01*
X118613Y195631D01*
X118696Y195695D01*
X118798Y195769D01*
X118909Y195853D01*
X119048Y195936D01*
X119196Y196019D01*
X119353Y196102D01*
X119538Y196176D01*
X119723Y196241D01*
X119935Y196296D01*
X120148Y196343D01*
X120388Y196370D01*
X120629Y196380D01*
X120740D01*
X120823Y196370D01*
D02*
G37*
G36*
X126315Y196287D02*
X126398Y196278D01*
X126490Y196269D01*
X126592Y196250D01*
X126703Y196232D01*
X126943Y196167D01*
X127184Y196074D01*
X127313Y196019D01*
X127424Y195954D01*
X127544Y195871D01*
X127646Y195779D01*
X127655Y195769D01*
X127674Y195760D01*
X127692Y195723D01*
X127729Y195686D01*
X127775Y195640D01*
X127822Y195575D01*
X127868Y195511D01*
X127923Y195427D01*
X128016Y195242D01*
X128108Y195030D01*
X128145Y194909D01*
X128164Y194780D01*
X128182Y194641D01*
X128192Y194503D01*
Y194484D01*
Y194429D01*
X128182Y194345D01*
X128173Y194244D01*
X128155Y194114D01*
X128127Y193976D01*
X128090Y193828D01*
X128034Y193680D01*
X128025Y193661D01*
X128007Y193615D01*
X127970Y193532D01*
X127914Y193430D01*
X127850Y193310D01*
X127766Y193171D01*
X127665Y193023D01*
X127544Y192866D01*
X127535Y192857D01*
X127498Y192811D01*
X127443Y192746D01*
X127360Y192654D01*
X127248Y192543D01*
X127110Y192395D01*
X126943Y192237D01*
X126740Y192043D01*
X126731Y192034D01*
X126712Y192025D01*
X126685Y191997D01*
X126648Y191960D01*
X126546Y191868D01*
X126426Y191757D01*
X126306Y191637D01*
X126185Y191516D01*
X126074Y191415D01*
X126037Y191368D01*
X126000Y191331D01*
X125991Y191322D01*
X125973Y191304D01*
X125945Y191267D01*
X125908Y191220D01*
X125825Y191119D01*
X125751Y190999D01*
X128192D01*
Y189861D01*
X123892D01*
Y189871D01*
Y189889D01*
X123902Y189926D01*
X123911Y189972D01*
X123920Y190028D01*
X123929Y190093D01*
X123966Y190259D01*
X124022Y190444D01*
X124096Y190647D01*
X124188Y190869D01*
X124308Y191082D01*
Y191091D01*
X124327Y191110D01*
X124345Y191147D01*
X124382Y191183D01*
X124419Y191248D01*
X124475Y191313D01*
X124540Y191396D01*
X124614Y191489D01*
X124697Y191600D01*
X124798Y191710D01*
X124909Y191840D01*
X125039Y191979D01*
X125177Y192117D01*
X125335Y192274D01*
X125501Y192441D01*
X125686Y192617D01*
X125695Y192626D01*
X125723Y192654D01*
X125760Y192691D01*
X125815Y192746D01*
X125889Y192801D01*
X125963Y192875D01*
X126130Y193042D01*
X126296Y193218D01*
X126463Y193393D01*
X126537Y193467D01*
X126611Y193550D01*
X126666Y193615D01*
X126703Y193671D01*
X126712Y193689D01*
X126740Y193735D01*
X126786Y193809D01*
X126833Y193911D01*
X126879Y194022D01*
X126925Y194151D01*
X126953Y194281D01*
X126962Y194419D01*
Y194429D01*
Y194438D01*
Y194484D01*
X126953Y194567D01*
X126934Y194660D01*
X126906Y194762D01*
X126869Y194863D01*
X126814Y194965D01*
X126740Y195057D01*
X126731Y195067D01*
X126703Y195094D01*
X126648Y195131D01*
X126583Y195168D01*
X126490Y195205D01*
X126389Y195242D01*
X126269Y195270D01*
X126130Y195279D01*
X126065D01*
X125991Y195270D01*
X125908Y195252D01*
X125806Y195224D01*
X125704Y195178D01*
X125603Y195122D01*
X125510Y195048D01*
X125501Y195039D01*
X125473Y195002D01*
X125436Y194946D01*
X125399Y194863D01*
X125353Y194762D01*
X125316Y194623D01*
X125279Y194466D01*
X125261Y194281D01*
X124040Y194401D01*
Y194410D01*
X124050Y194447D01*
Y194493D01*
X124068Y194567D01*
X124077Y194651D01*
X124105Y194743D01*
X124133Y194845D01*
X124160Y194965D01*
X124253Y195196D01*
X124364Y195436D01*
X124438Y195557D01*
X124521Y195668D01*
X124614Y195760D01*
X124715Y195853D01*
X124725Y195862D01*
X124743Y195871D01*
X124771Y195889D01*
X124817Y195926D01*
X124872Y195954D01*
X124946Y195991D01*
X125020Y196038D01*
X125113Y196074D01*
X125215Y196121D01*
X125325Y196158D01*
X125566Y196232D01*
X125852Y196278D01*
X126000Y196287D01*
X126158Y196296D01*
X126250D01*
X126315Y196287D01*
D02*
G37*
G36*
X37450Y115099D02*
X37552Y115090D01*
X37663Y115072D01*
X37792Y115053D01*
X37931Y115026D01*
X38079Y114989D01*
X38236Y114942D01*
X38393Y114887D01*
X38560Y114813D01*
X38717Y114739D01*
X38865Y114647D01*
X39022Y114536D01*
X39161Y114415D01*
X39170D01*
X39179Y114397D01*
X39207Y114369D01*
X39235Y114341D01*
X39272Y114295D01*
X39309Y114240D01*
X39410Y114110D01*
X39512Y113944D01*
X39623Y113740D01*
X39725Y113509D01*
X39817Y113241D01*
X38541Y112936D01*
Y112945D01*
X38532Y112955D01*
Y112982D01*
X38514Y113019D01*
X38486Y113103D01*
X38440Y113213D01*
X38375Y113343D01*
X38292Y113472D01*
X38181Y113602D01*
X38061Y113713D01*
X38042Y113722D01*
X37996Y113759D01*
X37922Y113805D01*
X37820Y113861D01*
X37691Y113916D01*
X37543Y113962D01*
X37376Y113999D01*
X37191Y114009D01*
X37127D01*
X37071Y113999D01*
X37016Y113990D01*
X36942Y113981D01*
X36785Y113944D01*
X36600Y113879D01*
X36405Y113787D01*
X36304Y113731D01*
X36211Y113666D01*
X36119Y113583D01*
X36036Y113491D01*
Y113482D01*
X36017Y113463D01*
X35999Y113435D01*
X35971Y113389D01*
X35934Y113334D01*
X35897Y113269D01*
X35860Y113186D01*
X35823Y113093D01*
X35777Y112982D01*
X35740Y112862D01*
X35703Y112723D01*
X35666Y112576D01*
X35638Y112409D01*
X35620Y112233D01*
X35610Y112039D01*
X35601Y111827D01*
Y111817D01*
Y111771D01*
Y111706D01*
X35610Y111632D01*
Y111531D01*
X35629Y111411D01*
X35638Y111290D01*
X35657Y111152D01*
X35712Y110865D01*
X35786Y110578D01*
X35832Y110440D01*
X35897Y110310D01*
X35962Y110190D01*
X36036Y110088D01*
X36045Y110079D01*
X36054Y110070D01*
X36082Y110042D01*
X36119Y110005D01*
X36211Y109931D01*
X36341Y109839D01*
X36498Y109737D01*
X36692Y109663D01*
X36914Y109598D01*
X37034Y109589D01*
X37164Y109580D01*
X37210D01*
X37247Y109589D01*
X37348Y109598D01*
X37469Y109617D01*
X37598Y109663D01*
X37746Y109719D01*
X37894Y109793D01*
X38042Y109903D01*
X38061Y109922D01*
X38107Y109968D01*
X38171Y110042D01*
X38245Y110153D01*
X38338Y110301D01*
X38421Y110477D01*
X38504Y110689D01*
X38578Y110939D01*
X39836Y110551D01*
Y110541D01*
X39826Y110505D01*
X39808Y110449D01*
X39780Y110375D01*
X39743Y110292D01*
X39706Y110190D01*
X39660Y110079D01*
X39604Y109959D01*
X39475Y109709D01*
X39309Y109451D01*
X39105Y109201D01*
X38994Y109090D01*
X38874Y108988D01*
X38865Y108979D01*
X38846Y108970D01*
X38809Y108942D01*
X38754Y108905D01*
X38689Y108868D01*
X38606Y108831D01*
X38514Y108785D01*
X38412Y108739D01*
X38292Y108683D01*
X38162Y108637D01*
X38024Y108600D01*
X37875Y108563D01*
X37718Y108526D01*
X37543Y108498D01*
X37367Y108489D01*
X37173Y108480D01*
X37117D01*
X37053Y108489D01*
X36960Y108498D01*
X36858Y108507D01*
X36729Y108526D01*
X36590Y108554D01*
X36433Y108591D01*
X36276Y108637D01*
X36110Y108692D01*
X35934Y108766D01*
X35758Y108849D01*
X35583Y108942D01*
X35407Y109062D01*
X35240Y109192D01*
X35083Y109349D01*
X35074Y109358D01*
X35046Y109386D01*
X35009Y109441D01*
X34954Y109506D01*
X34899Y109598D01*
X34825Y109700D01*
X34750Y109830D01*
X34677Y109978D01*
X34603Y110135D01*
X34529Y110310D01*
X34455Y110514D01*
X34399Y110726D01*
X34344Y110948D01*
X34307Y111198D01*
X34279Y111457D01*
X34270Y111734D01*
Y111743D01*
Y111753D01*
Y111808D01*
X34279Y111891D01*
Y112002D01*
X34297Y112132D01*
X34316Y112289D01*
X34334Y112455D01*
X34372Y112649D01*
X34418Y112844D01*
X34473Y113047D01*
X34538Y113250D01*
X34621Y113463D01*
X34713Y113666D01*
X34825Y113861D01*
X34945Y114045D01*
X35093Y114221D01*
X35102Y114230D01*
X35130Y114258D01*
X35176Y114304D01*
X35240Y114360D01*
X35324Y114425D01*
X35426Y114499D01*
X35536Y114582D01*
X35675Y114665D01*
X35823Y114748D01*
X35980Y114831D01*
X36165Y114905D01*
X36350Y114970D01*
X36563Y115026D01*
X36775Y115072D01*
X37016Y115099D01*
X37256Y115109D01*
X37367D01*
X37450Y115099D01*
D02*
G37*
G36*
X42840Y115016D02*
X42924Y115007D01*
X43007Y114998D01*
X43109Y114979D01*
X43210Y114952D01*
X43441Y114887D01*
X43562Y114841D01*
X43691Y114776D01*
X43811Y114711D01*
X43922Y114637D01*
X44042Y114545D01*
X44144Y114443D01*
X44153Y114434D01*
X44163Y114425D01*
X44190Y114397D01*
X44218Y114360D01*
X44292Y114267D01*
X44375Y114138D01*
X44458Y113981D01*
X44523Y113796D01*
X44579Y113593D01*
X44588Y113491D01*
X44597Y113380D01*
Y113371D01*
Y113343D01*
X44588Y113297D01*
X44579Y113241D01*
X44569Y113167D01*
X44551Y113084D01*
X44523Y112992D01*
X44486Y112890D01*
X44431Y112788D01*
X44375Y112677D01*
X44301Y112566D01*
X44209Y112455D01*
X44098Y112344D01*
X43978Y112233D01*
X43839Y112132D01*
X43672Y112030D01*
X43682D01*
X43700Y112021D01*
X43728D01*
X43765Y112002D01*
X43867Y111974D01*
X43987Y111919D01*
X44126Y111845D01*
X44274Y111753D01*
X44421Y111632D01*
X44551Y111494D01*
X44569Y111475D01*
X44606Y111420D01*
X44653Y111337D01*
X44717Y111216D01*
X44782Y111078D01*
X44828Y110902D01*
X44865Y110717D01*
X44884Y110505D01*
Y110495D01*
Y110468D01*
Y110421D01*
X44875Y110366D01*
X44865Y110292D01*
X44847Y110209D01*
X44828Y110107D01*
X44810Y110005D01*
X44736Y109783D01*
X44680Y109663D01*
X44625Y109534D01*
X44551Y109413D01*
X44468Y109293D01*
X44375Y109173D01*
X44264Y109062D01*
X44255Y109053D01*
X44236Y109034D01*
X44200Y109007D01*
X44153Y108970D01*
X44089Y108924D01*
X44024Y108877D01*
X43931Y108822D01*
X43839Y108766D01*
X43737Y108711D01*
X43617Y108655D01*
X43488Y108609D01*
X43358Y108563D01*
X43210Y108526D01*
X43062Y108498D01*
X42896Y108480D01*
X42730Y108470D01*
X42646D01*
X42582Y108480D01*
X42508Y108489D01*
X42424Y108498D01*
X42332Y108517D01*
X42221Y108535D01*
X41999Y108591D01*
X41759Y108683D01*
X41629Y108739D01*
X41518Y108803D01*
X41398Y108886D01*
X41287Y108970D01*
X41278Y108979D01*
X41259Y108997D01*
X41232Y109025D01*
X41195Y109062D01*
X41149Y109108D01*
X41102Y109173D01*
X41047Y109238D01*
X40991Y109321D01*
X40936Y109413D01*
X40871Y109506D01*
X40769Y109728D01*
X40686Y109987D01*
X40649Y110125D01*
X40631Y110273D01*
X41814Y110421D01*
Y110412D01*
Y110403D01*
X41823Y110347D01*
X41842Y110264D01*
X41870Y110162D01*
X41916Y110051D01*
X41962Y109931D01*
X42036Y109820D01*
X42119Y109719D01*
X42129Y109709D01*
X42165Y109682D01*
X42221Y109645D01*
X42286Y109608D01*
X42378Y109561D01*
X42480Y109524D01*
X42591Y109497D01*
X42720Y109487D01*
X42739D01*
X42785Y109497D01*
X42850Y109506D01*
X42942Y109524D01*
X43044Y109561D01*
X43145Y109608D01*
X43257Y109682D01*
X43358Y109774D01*
X43367Y109783D01*
X43404Y109830D01*
X43441Y109894D01*
X43497Y109978D01*
X43543Y110088D01*
X43589Y110227D01*
X43617Y110384D01*
X43626Y110560D01*
Y110569D01*
Y110578D01*
Y110634D01*
X43617Y110717D01*
X43599Y110828D01*
X43562Y110948D01*
X43515Y111068D01*
X43451Y111189D01*
X43367Y111300D01*
X43358Y111309D01*
X43321Y111346D01*
X43266Y111392D01*
X43201Y111438D01*
X43109Y111494D01*
X43007Y111531D01*
X42896Y111568D01*
X42766Y111577D01*
X42674D01*
X42609Y111568D01*
X42526Y111559D01*
X42424Y111540D01*
X42323Y111512D01*
X42203Y111484D01*
X42332Y112474D01*
X42415D01*
X42508Y112483D01*
X42618Y112492D01*
X42739Y112520D01*
X42868Y112557D01*
X42988Y112612D01*
X43099Y112686D01*
X43109Y112696D01*
X43145Y112733D01*
X43183Y112779D01*
X43238Y112853D01*
X43284Y112936D01*
X43330Y113038D01*
X43358Y113158D01*
X43367Y113297D01*
Y113315D01*
Y113352D01*
X43358Y113408D01*
X43340Y113482D01*
X43321Y113565D01*
X43284Y113648D01*
X43238Y113740D01*
X43173Y113814D01*
X43164Y113824D01*
X43136Y113842D01*
X43099Y113879D01*
X43035Y113916D01*
X42961Y113944D01*
X42877Y113981D01*
X42766Y113999D01*
X42656Y114009D01*
X42600D01*
X42545Y113999D01*
X42471Y113981D01*
X42387Y113953D01*
X42295Y113916D01*
X42203Y113861D01*
X42119Y113787D01*
X42110Y113777D01*
X42082Y113750D01*
X42045Y113694D01*
X41999Y113620D01*
X41953Y113537D01*
X41916Y113426D01*
X41879Y113297D01*
X41851Y113149D01*
X40723Y113334D01*
Y113343D01*
X40732Y113361D01*
Y113389D01*
X40742Y113435D01*
X40769Y113537D01*
X40806Y113676D01*
X40862Y113824D01*
X40917Y113981D01*
X40991Y114129D01*
X41075Y114267D01*
X41084Y114286D01*
X41121Y114323D01*
X41176Y114388D01*
X41250Y114471D01*
X41343Y114554D01*
X41454Y114647D01*
X41592Y114739D01*
X41740Y114822D01*
X41749D01*
X41759Y114831D01*
X41814Y114850D01*
X41907Y114887D01*
X42018Y114924D01*
X42156Y114961D01*
X42323Y114998D01*
X42498Y115016D01*
X42692Y115026D01*
X42776D01*
X42840Y115016D01*
D02*
G37*
G36*
X12637Y136662D02*
X12721Y136653D01*
X12804Y136643D01*
X12905Y136625D01*
X13007Y136597D01*
X13238Y136532D01*
X13358Y136486D01*
X13488Y136421D01*
X13608Y136357D01*
X13719Y136283D01*
X13839Y136190D01*
X13941Y136089D01*
X13950Y136079D01*
X13959Y136070D01*
X13987Y136042D01*
X14015Y136005D01*
X14089Y135913D01*
X14172Y135784D01*
X14255Y135626D01*
X14320Y135441D01*
X14375Y135238D01*
X14385Y135136D01*
X14394Y135025D01*
Y135016D01*
Y134988D01*
X14385Y134942D01*
X14375Y134887D01*
X14366Y134813D01*
X14348Y134729D01*
X14320Y134637D01*
X14283Y134535D01*
X14227Y134434D01*
X14172Y134323D01*
X14098Y134212D01*
X14006Y134101D01*
X13895Y133990D01*
X13774Y133879D01*
X13636Y133777D01*
X13469Y133675D01*
X13479D01*
X13497Y133666D01*
X13525D01*
X13562Y133648D01*
X13664Y133620D01*
X13784Y133565D01*
X13922Y133491D01*
X14070Y133398D01*
X14218Y133278D01*
X14348Y133139D01*
X14366Y133121D01*
X14403Y133065D01*
X14449Y132982D01*
X14514Y132862D01*
X14579Y132723D01*
X14625Y132548D01*
X14662Y132363D01*
X14681Y132150D01*
Y132141D01*
Y132113D01*
Y132067D01*
X14671Y132011D01*
X14662Y131937D01*
X14644Y131854D01*
X14625Y131752D01*
X14607Y131651D01*
X14533Y131429D01*
X14477Y131309D01*
X14422Y131179D01*
X14348Y131059D01*
X14265Y130939D01*
X14172Y130819D01*
X14061Y130708D01*
X14052Y130698D01*
X14033Y130680D01*
X13996Y130652D01*
X13950Y130615D01*
X13885Y130569D01*
X13821Y130523D01*
X13728Y130467D01*
X13636Y130412D01*
X13534Y130356D01*
X13414Y130301D01*
X13284Y130255D01*
X13155Y130208D01*
X13007Y130171D01*
X12859Y130144D01*
X12693Y130125D01*
X12526Y130116D01*
X12443D01*
X12378Y130125D01*
X12304Y130134D01*
X12221Y130144D01*
X12129Y130162D01*
X12018Y130181D01*
X11796Y130236D01*
X11556Y130329D01*
X11426Y130384D01*
X11315Y130449D01*
X11195Y130532D01*
X11084Y130615D01*
X11075Y130624D01*
X11056Y130643D01*
X11029Y130671D01*
X10992Y130708D01*
X10945Y130754D01*
X10899Y130819D01*
X10844Y130883D01*
X10788Y130967D01*
X10733Y131059D01*
X10668Y131151D01*
X10566Y131373D01*
X10483Y131632D01*
X10446Y131771D01*
X10428Y131919D01*
X11611Y132067D01*
Y132058D01*
Y132048D01*
X11620Y131993D01*
X11639Y131910D01*
X11667Y131808D01*
X11713Y131697D01*
X11759Y131577D01*
X11833Y131466D01*
X11916Y131364D01*
X11925Y131355D01*
X11962Y131327D01*
X12018Y131290D01*
X12083Y131253D01*
X12175Y131207D01*
X12277Y131170D01*
X12388Y131142D01*
X12517Y131133D01*
X12536D01*
X12582Y131142D01*
X12646Y131151D01*
X12739Y131170D01*
X12841Y131207D01*
X12942Y131253D01*
X13053Y131327D01*
X13155Y131419D01*
X13164Y131429D01*
X13201Y131475D01*
X13238Y131540D01*
X13294Y131623D01*
X13340Y131734D01*
X13386Y131873D01*
X13414Y132030D01*
X13423Y132205D01*
Y132215D01*
Y132224D01*
Y132279D01*
X13414Y132363D01*
X13395Y132473D01*
X13358Y132594D01*
X13312Y132714D01*
X13247Y132834D01*
X13164Y132945D01*
X13155Y132954D01*
X13118Y132991D01*
X13063Y133038D01*
X12998Y133084D01*
X12905Y133139D01*
X12804Y133176D01*
X12693Y133213D01*
X12563Y133222D01*
X12471D01*
X12406Y133213D01*
X12323Y133204D01*
X12221Y133186D01*
X12119Y133158D01*
X11999Y133130D01*
X12129Y134119D01*
X12212D01*
X12304Y134129D01*
X12415Y134138D01*
X12536Y134165D01*
X12665Y134202D01*
X12785Y134258D01*
X12896Y134332D01*
X12905Y134341D01*
X12942Y134378D01*
X12979Y134424D01*
X13035Y134498D01*
X13081Y134581D01*
X13127Y134683D01*
X13155Y134803D01*
X13164Y134942D01*
Y134961D01*
Y134998D01*
X13155Y135053D01*
X13137Y135127D01*
X13118Y135210D01*
X13081Y135294D01*
X13035Y135386D01*
X12970Y135460D01*
X12961Y135469D01*
X12933Y135488D01*
X12896Y135525D01*
X12831Y135562D01*
X12758Y135589D01*
X12674Y135626D01*
X12563Y135645D01*
X12452Y135654D01*
X12397D01*
X12341Y135645D01*
X12268Y135626D01*
X12184Y135599D01*
X12092Y135562D01*
X11999Y135506D01*
X11916Y135432D01*
X11907Y135423D01*
X11879Y135395D01*
X11842Y135340D01*
X11796Y135266D01*
X11750Y135183D01*
X11713Y135072D01*
X11676Y134942D01*
X11648Y134794D01*
X10520Y134979D01*
Y134988D01*
X10529Y135007D01*
Y135035D01*
X10539Y135081D01*
X10566Y135183D01*
X10603Y135321D01*
X10659Y135469D01*
X10714Y135626D01*
X10788Y135774D01*
X10871Y135913D01*
X10881Y135931D01*
X10918Y135968D01*
X10973Y136033D01*
X11047Y136116D01*
X11140Y136200D01*
X11250Y136292D01*
X11389Y136384D01*
X11537Y136468D01*
X11546D01*
X11556Y136477D01*
X11611Y136495D01*
X11703Y136532D01*
X11814Y136569D01*
X11953Y136606D01*
X12119Y136643D01*
X12295Y136662D01*
X12489Y136671D01*
X12573D01*
X12637Y136662D01*
D02*
G37*
G36*
X7266Y136625D02*
X7367D01*
X7469Y136616D01*
X7589D01*
X7830Y136588D01*
X8079Y136560D01*
X8310Y136514D01*
X8412Y136486D01*
X8504Y136458D01*
X8514D01*
X8523Y136449D01*
X8579Y136421D01*
X8662Y136375D01*
X8773Y136320D01*
X8893Y136227D01*
X9013Y136126D01*
X9133Y135996D01*
X9244Y135839D01*
Y135830D01*
X9253Y135821D01*
X9272Y135793D01*
X9290Y135765D01*
X9337Y135673D01*
X9392Y135552D01*
X9438Y135404D01*
X9485Y135238D01*
X9521Y135044D01*
X9531Y134840D01*
Y134831D01*
Y134813D01*
Y134767D01*
X9521Y134720D01*
Y134656D01*
X9512Y134591D01*
X9475Y134424D01*
X9429Y134230D01*
X9355Y134036D01*
X9244Y133833D01*
X9179Y133740D01*
X9105Y133648D01*
X9096Y133638D01*
X9087Y133629D01*
X9059Y133602D01*
X9022Y133574D01*
X8985Y133537D01*
X8930Y133491D01*
X8865Y133444D01*
X8791Y133398D01*
X8708Y133343D01*
X8606Y133296D01*
X8504Y133250D01*
X8394Y133204D01*
X8264Y133158D01*
X8135Y133121D01*
X7996Y133084D01*
X7839Y133056D01*
X7848D01*
X7857Y133047D01*
X7913Y133010D01*
X7987Y132964D01*
X8079Y132899D01*
X8190Y132816D01*
X8301Y132732D01*
X8421Y132631D01*
X8523Y132520D01*
X8532Y132510D01*
X8579Y132464D01*
X8634Y132390D01*
X8717Y132279D01*
X8828Y132141D01*
X8884Y132048D01*
X8948Y131956D01*
X9022Y131854D01*
X9096Y131743D01*
X9179Y131614D01*
X9263Y131484D01*
X10049Y130236D01*
X8495D01*
X7571Y131623D01*
X7562Y131632D01*
X7552Y131660D01*
X7524Y131697D01*
X7487Y131743D01*
X7451Y131799D01*
X7404Y131873D01*
X7303Y132021D01*
X7182Y132187D01*
X7071Y132335D01*
X6970Y132473D01*
X6923Y132520D01*
X6887Y132566D01*
X6877Y132575D01*
X6859Y132594D01*
X6822Y132631D01*
X6776Y132677D01*
X6711Y132714D01*
X6646Y132760D01*
X6572Y132797D01*
X6498Y132834D01*
X6489D01*
X6461Y132843D01*
X6415Y132862D01*
X6341Y132871D01*
X6249Y132890D01*
X6138Y132899D01*
X6008Y132908D01*
X5592D01*
Y130236D01*
X4298D01*
Y136634D01*
X7182D01*
X7266Y136625D01*
D02*
G37*
G36*
X12259Y165812D02*
X12342Y165802D01*
X12435Y165793D01*
X12537Y165775D01*
X12648Y165756D01*
X12888Y165692D01*
X13128Y165599D01*
X13258Y165544D01*
X13369Y165479D01*
X13489Y165396D01*
X13591Y165303D01*
X13600Y165294D01*
X13618Y165285D01*
X13637Y165248D01*
X13674Y165211D01*
X13720Y165165D01*
X13766Y165100D01*
X13813Y165035D01*
X13868Y164952D01*
X13960Y164767D01*
X14053Y164554D01*
X14090Y164434D01*
X14108Y164305D01*
X14127Y164166D01*
X14136Y164027D01*
Y164009D01*
Y163953D01*
X14127Y163870D01*
X14118Y163768D01*
X14099Y163639D01*
X14071Y163500D01*
X14034Y163352D01*
X13979Y163204D01*
X13970Y163186D01*
X13951Y163140D01*
X13914Y163057D01*
X13859Y162955D01*
X13794Y162835D01*
X13711Y162696D01*
X13609Y162548D01*
X13489Y162391D01*
X13480Y162382D01*
X13443Y162335D01*
X13387Y162271D01*
X13304Y162178D01*
X13193Y162067D01*
X13054Y161919D01*
X12888Y161762D01*
X12685Y161568D01*
X12675Y161559D01*
X12657Y161549D01*
X12629Y161522D01*
X12592Y161485D01*
X12490Y161392D01*
X12370Y161281D01*
X12250Y161161D01*
X12130Y161041D01*
X12019Y160939D01*
X11982Y160893D01*
X11945Y160856D01*
X11936Y160847D01*
X11917Y160828D01*
X11889Y160791D01*
X11852Y160745D01*
X11769Y160643D01*
X11695Y160523D01*
X14136D01*
Y159386D01*
X9837D01*
Y159395D01*
Y159414D01*
X9846Y159451D01*
X9855Y159497D01*
X9865Y159552D01*
X9874Y159617D01*
X9911Y159784D01*
X9966Y159969D01*
X10040Y160172D01*
X10133Y160394D01*
X10253Y160606D01*
Y160616D01*
X10271Y160634D01*
X10290Y160671D01*
X10327Y160708D01*
X10364Y160773D01*
X10419Y160838D01*
X10484Y160921D01*
X10558Y161013D01*
X10641Y161124D01*
X10743Y161235D01*
X10854Y161365D01*
X10983Y161503D01*
X11122Y161642D01*
X11279Y161799D01*
X11446Y161966D01*
X11631Y162141D01*
X11640Y162150D01*
X11667Y162178D01*
X11704Y162215D01*
X11760Y162271D01*
X11834Y162326D01*
X11908Y162400D01*
X12074Y162567D01*
X12241Y162742D01*
X12407Y162918D01*
X12481Y162992D01*
X12555Y163075D01*
X12611Y163140D01*
X12648Y163195D01*
X12657Y163214D01*
X12685Y163260D01*
X12731Y163334D01*
X12777Y163436D01*
X12823Y163547D01*
X12869Y163676D01*
X12897Y163805D01*
X12906Y163944D01*
Y163953D01*
Y163963D01*
Y164009D01*
X12897Y164092D01*
X12879Y164184D01*
X12851Y164286D01*
X12814Y164388D01*
X12759Y164490D01*
X12685Y164582D01*
X12675Y164591D01*
X12648Y164619D01*
X12592Y164656D01*
X12527Y164693D01*
X12435Y164730D01*
X12333Y164767D01*
X12213Y164795D01*
X12074Y164804D01*
X12010D01*
X11936Y164795D01*
X11852Y164776D01*
X11751Y164748D01*
X11649Y164702D01*
X11547Y164647D01*
X11455Y164573D01*
X11446Y164564D01*
X11418Y164527D01*
X11381Y164471D01*
X11344Y164388D01*
X11298Y164286D01*
X11261Y164147D01*
X11224Y163990D01*
X11205Y163805D01*
X9985Y163926D01*
Y163935D01*
X9994Y163972D01*
Y164018D01*
X10013Y164092D01*
X10022Y164175D01*
X10050Y164268D01*
X10077Y164369D01*
X10105Y164490D01*
X10197Y164721D01*
X10308Y164961D01*
X10382Y165081D01*
X10466Y165192D01*
X10558Y165285D01*
X10660Y165377D01*
X10669Y165386D01*
X10688Y165396D01*
X10715Y165414D01*
X10761Y165451D01*
X10817Y165479D01*
X10891Y165516D01*
X10965Y165562D01*
X11057Y165599D01*
X11159Y165645D01*
X11270Y165682D01*
X11510Y165756D01*
X11797Y165802D01*
X11945Y165812D01*
X12102Y165821D01*
X12194D01*
X12259Y165812D01*
D02*
G37*
G36*
X6786Y165775D02*
X6888D01*
X6989Y165765D01*
X7109D01*
X7350Y165738D01*
X7599Y165710D01*
X7831Y165664D01*
X7932Y165636D01*
X8025Y165608D01*
X8034D01*
X8043Y165599D01*
X8099Y165571D01*
X8182Y165525D01*
X8293Y165470D01*
X8413Y165377D01*
X8533Y165275D01*
X8653Y165146D01*
X8764Y164989D01*
Y164980D01*
X8774Y164970D01*
X8792Y164943D01*
X8811Y164915D01*
X8857Y164822D01*
X8912Y164702D01*
X8959Y164554D01*
X9005Y164388D01*
X9042Y164194D01*
X9051Y163990D01*
Y163981D01*
Y163963D01*
Y163916D01*
X9042Y163870D01*
Y163805D01*
X9032Y163741D01*
X8996Y163574D01*
X8949Y163380D01*
X8875Y163186D01*
X8764Y162983D01*
X8700Y162890D01*
X8626Y162798D01*
X8616Y162788D01*
X8607Y162779D01*
X8579Y162751D01*
X8543Y162724D01*
X8505Y162687D01*
X8450Y162640D01*
X8385Y162594D01*
X8311Y162548D01*
X8228Y162493D01*
X8127Y162446D01*
X8025Y162400D01*
X7914Y162354D01*
X7784Y162308D01*
X7655Y162271D01*
X7516Y162234D01*
X7359Y162206D01*
X7368D01*
X7378Y162197D01*
X7433Y162160D01*
X7507Y162113D01*
X7599Y162049D01*
X7710Y161966D01*
X7821Y161882D01*
X7941Y161781D01*
X8043Y161670D01*
X8052Y161660D01*
X8099Y161614D01*
X8154Y161540D01*
X8237Y161429D01*
X8348Y161291D01*
X8404Y161198D01*
X8468Y161106D01*
X8543Y161004D01*
X8616Y160893D01*
X8700Y160764D01*
X8783Y160634D01*
X9569Y159386D01*
X8015D01*
X7091Y160773D01*
X7082Y160782D01*
X7072Y160810D01*
X7045Y160847D01*
X7008Y160893D01*
X6971Y160949D01*
X6924Y161022D01*
X6823Y161170D01*
X6703Y161337D01*
X6592Y161485D01*
X6490Y161623D01*
X6444Y161670D01*
X6407Y161716D01*
X6398Y161725D01*
X6379Y161744D01*
X6342Y161781D01*
X6296Y161827D01*
X6231Y161864D01*
X6166Y161910D01*
X6092Y161947D01*
X6018Y161984D01*
X6009D01*
X5982Y161993D01*
X5935Y162012D01*
X5861Y162021D01*
X5769Y162040D01*
X5658Y162049D01*
X5528Y162058D01*
X5112D01*
Y159386D01*
X3818D01*
Y165784D01*
X6703D01*
X6786Y165775D01*
D02*
G37*
G36*
X59472Y91838D02*
X60267D01*
Y90766D01*
X59472D01*
Y89480D01*
X58289D01*
Y90766D01*
X55663D01*
Y91829D01*
X58437Y95906D01*
X59472D01*
Y91838D01*
D02*
G37*
G36*
X52667Y95869D02*
X52769D01*
X52871Y95860D01*
X52991D01*
X53231Y95832D01*
X53481Y95805D01*
X53712Y95758D01*
X53814Y95731D01*
X53906Y95703D01*
X53916D01*
X53925Y95694D01*
X53980Y95666D01*
X54064Y95620D01*
X54174Y95564D01*
X54295Y95472D01*
X54415Y95370D01*
X54535Y95241D01*
X54646Y95083D01*
Y95074D01*
X54655Y95065D01*
X54674Y95037D01*
X54692Y95009D01*
X54738Y94917D01*
X54794Y94797D01*
X54840Y94649D01*
X54886Y94482D01*
X54923Y94288D01*
X54933Y94085D01*
Y94076D01*
Y94057D01*
Y94011D01*
X54923Y93965D01*
Y93900D01*
X54914Y93835D01*
X54877Y93669D01*
X54831Y93475D01*
X54757Y93280D01*
X54646Y93077D01*
X54581Y92985D01*
X54507Y92892D01*
X54498Y92883D01*
X54489Y92874D01*
X54461Y92846D01*
X54424Y92818D01*
X54387Y92781D01*
X54332Y92735D01*
X54267Y92689D01*
X54193Y92642D01*
X54110Y92587D01*
X54008Y92541D01*
X53906Y92495D01*
X53795Y92448D01*
X53666Y92402D01*
X53537Y92365D01*
X53398Y92328D01*
X53241Y92301D01*
X53250D01*
X53259Y92291D01*
X53315Y92254D01*
X53389Y92208D01*
X53481Y92143D01*
X53592Y92060D01*
X53703Y91977D01*
X53823Y91875D01*
X53925Y91764D01*
X53934Y91755D01*
X53980Y91709D01*
X54036Y91635D01*
X54119Y91524D01*
X54230Y91385D01*
X54285Y91293D01*
X54350Y91200D01*
X54424Y91098D01*
X54498Y90988D01*
X54581Y90858D01*
X54664Y90729D01*
X55450Y89480D01*
X53897D01*
X52972Y90867D01*
X52963Y90877D01*
X52954Y90904D01*
X52926Y90941D01*
X52889Y90988D01*
X52852Y91043D01*
X52806Y91117D01*
X52704Y91265D01*
X52584Y91431D01*
X52473Y91579D01*
X52372Y91718D01*
X52325Y91764D01*
X52288Y91810D01*
X52279Y91820D01*
X52261Y91838D01*
X52224Y91875D01*
X52177Y91921D01*
X52113Y91958D01*
X52048Y92005D01*
X51974Y92042D01*
X51900Y92079D01*
X51891D01*
X51863Y92088D01*
X51817Y92106D01*
X51743Y92115D01*
X51650Y92134D01*
X51539Y92143D01*
X51410Y92153D01*
X50994D01*
Y89480D01*
X49700D01*
Y95878D01*
X52584D01*
X52667Y95869D01*
D02*
G37*
G36*
X59754Y79464D02*
X57434D01*
X57240Y78373D01*
X57249D01*
X57258Y78383D01*
X57314Y78410D01*
X57397Y78438D01*
X57498Y78484D01*
X57628Y78521D01*
X57767Y78549D01*
X57924Y78577D01*
X58081Y78586D01*
X58164D01*
X58220Y78577D01*
X58284Y78568D01*
X58368Y78558D01*
X58460Y78540D01*
X58562Y78512D01*
X58774Y78438D01*
X58895Y78392D01*
X59005Y78336D01*
X59126Y78262D01*
X59246Y78179D01*
X59357Y78087D01*
X59468Y77985D01*
X59477Y77976D01*
X59496Y77957D01*
X59523Y77920D01*
X59560Y77874D01*
X59597Y77819D01*
X59653Y77745D01*
X59699Y77661D01*
X59754Y77569D01*
X59810Y77467D01*
X59856Y77347D01*
X59912Y77218D01*
X59949Y77088D01*
X59985Y76940D01*
X60013Y76783D01*
X60032Y76617D01*
X60041Y76441D01*
Y76432D01*
Y76404D01*
Y76367D01*
X60032Y76312D01*
Y76238D01*
X60013Y76154D01*
X60004Y76062D01*
X59985Y75970D01*
X59930Y75748D01*
X59847Y75507D01*
X59791Y75378D01*
X59736Y75258D01*
X59662Y75137D01*
X59579Y75017D01*
X59570Y75008D01*
X59551Y74980D01*
X59514Y74943D01*
X59468Y74888D01*
X59403Y74823D01*
X59320Y74749D01*
X59227Y74675D01*
X59126Y74601D01*
X59005Y74518D01*
X58876Y74444D01*
X58737Y74370D01*
X58580Y74305D01*
X58414Y74250D01*
X58238Y74213D01*
X58044Y74185D01*
X57840Y74176D01*
X57757D01*
X57693Y74185D01*
X57619Y74194D01*
X57526Y74204D01*
X57434Y74213D01*
X57323Y74231D01*
X57101Y74287D01*
X56851Y74379D01*
X56731Y74426D01*
X56611Y74490D01*
X56500Y74564D01*
X56389Y74647D01*
X56380Y74657D01*
X56361Y74666D01*
X56333Y74694D01*
X56297Y74731D01*
X56260Y74786D01*
X56204Y74841D01*
X56158Y74906D01*
X56102Y74980D01*
X56038Y75073D01*
X55982Y75165D01*
X55880Y75387D01*
X55788Y75637D01*
X55760Y75775D01*
X55733Y75923D01*
X56953Y76053D01*
Y76034D01*
X56962Y75988D01*
X56981Y75905D01*
X57008Y75812D01*
X57045Y75711D01*
X57101Y75600D01*
X57175Y75498D01*
X57258Y75396D01*
X57267Y75387D01*
X57304Y75359D01*
X57360Y75322D01*
X57434Y75276D01*
X57517Y75230D01*
X57619Y75193D01*
X57739Y75165D01*
X57859Y75156D01*
X57877D01*
X57924Y75165D01*
X57998Y75174D01*
X58090Y75193D01*
X58192Y75230D01*
X58303Y75285D01*
X58414Y75368D01*
X58516Y75470D01*
X58525Y75489D01*
X58562Y75526D01*
X58599Y75600D01*
X58654Y75711D01*
X58700Y75840D01*
X58747Y75997D01*
X58774Y76191D01*
X58784Y76413D01*
Y76423D01*
Y76441D01*
Y76469D01*
Y76515D01*
X58774Y76617D01*
X58747Y76746D01*
X58719Y76894D01*
X58673Y77042D01*
X58608Y77181D01*
X58516Y77301D01*
X58506Y77310D01*
X58469Y77347D01*
X58404Y77393D01*
X58331Y77458D01*
X58229Y77513D01*
X58109Y77560D01*
X57970Y77597D01*
X57822Y77606D01*
X57767D01*
X57730Y77597D01*
X57637Y77578D01*
X57508Y77551D01*
X57360Y77495D01*
X57203Y77412D01*
X57119Y77356D01*
X57036Y77292D01*
X56953Y77218D01*
X56870Y77134D01*
X55880Y77273D01*
X56509Y80611D01*
X59754D01*
Y79464D01*
D02*
G37*
G36*
X52506Y80685D02*
X52607D01*
X52709Y80675D01*
X52829D01*
X53070Y80648D01*
X53320Y80620D01*
X53551Y80574D01*
X53652Y80546D01*
X53745Y80518D01*
X53754D01*
X53763Y80509D01*
X53819Y80481D01*
X53902Y80435D01*
X54013Y80380D01*
X54133Y80287D01*
X54253Y80185D01*
X54373Y80056D01*
X54484Y79899D01*
Y79890D01*
X54494Y79880D01*
X54512Y79853D01*
X54531Y79825D01*
X54577Y79732D01*
X54632Y79612D01*
X54679Y79464D01*
X54725Y79298D01*
X54762Y79104D01*
X54771Y78900D01*
Y78891D01*
Y78873D01*
Y78826D01*
X54762Y78780D01*
Y78715D01*
X54752Y78651D01*
X54715Y78484D01*
X54669Y78290D01*
X54595Y78096D01*
X54484Y77893D01*
X54420Y77800D01*
X54346Y77708D01*
X54337Y77698D01*
X54327Y77689D01*
X54300Y77661D01*
X54262Y77634D01*
X54226Y77597D01*
X54170Y77551D01*
X54105Y77504D01*
X54031Y77458D01*
X53948Y77403D01*
X53847Y77356D01*
X53745Y77310D01*
X53634Y77264D01*
X53504Y77218D01*
X53375Y77181D01*
X53236Y77144D01*
X53079Y77116D01*
X53088D01*
X53098Y77107D01*
X53153Y77070D01*
X53227Y77024D01*
X53320Y76959D01*
X53430Y76876D01*
X53541Y76792D01*
X53661Y76691D01*
X53763Y76580D01*
X53773Y76570D01*
X53819Y76524D01*
X53874Y76450D01*
X53957Y76339D01*
X54068Y76201D01*
X54124Y76108D01*
X54188Y76016D01*
X54262Y75914D01*
X54337Y75803D01*
X54420Y75674D01*
X54503Y75544D01*
X55289Y74296D01*
X53735D01*
X52811Y75683D01*
X52802Y75692D01*
X52793Y75720D01*
X52765Y75757D01*
X52728Y75803D01*
X52691Y75858D01*
X52645Y75932D01*
X52543Y76080D01*
X52423Y76247D01*
X52312Y76395D01*
X52210Y76533D01*
X52164Y76580D01*
X52127Y76626D01*
X52118Y76635D01*
X52099Y76654D01*
X52062Y76691D01*
X52016Y76737D01*
X51951Y76774D01*
X51886Y76820D01*
X51812Y76857D01*
X51739Y76894D01*
X51729D01*
X51701Y76903D01*
X51655Y76922D01*
X51581Y76931D01*
X51489Y76950D01*
X51378Y76959D01*
X51248Y76968D01*
X50832D01*
Y74296D01*
X49538D01*
Y80694D01*
X52423D01*
X52506Y80685D01*
D02*
G37*
%LPC*%
G36*
X84823Y295317D02*
X84703D01*
Y295258D01*
X84823D01*
Y295317D01*
D02*
G37*
G36*
X87509Y294601D02*
X87210D01*
Y294541D01*
X87509D01*
Y294601D01*
D02*
G37*
G36*
X91926Y288930D02*
X91867D01*
Y288871D01*
X91926D01*
Y288930D01*
D02*
G37*
G36*
X91807D02*
X91687D01*
Y288871D01*
X91807D01*
Y288930D01*
D02*
G37*
G36*
X84524Y278245D02*
X84465D01*
Y278185D01*
X84524D01*
Y278245D01*
D02*
G37*
G36*
X68347Y293825D02*
X68288D01*
Y293765D01*
X68347D01*
Y293825D01*
D02*
G37*
G36*
X69899Y290124D02*
X69840D01*
Y290064D01*
X69899D01*
Y290124D01*
D02*
G37*
G36*
X77779Y292333D02*
X77719D01*
Y292273D01*
X77779D01*
Y292333D01*
D02*
G37*
G36*
X77063Y290363D02*
X77003D01*
Y290303D01*
X77063D01*
Y290363D01*
D02*
G37*
G36*
X74138Y288035D02*
X74078D01*
Y287975D01*
X74138D01*
Y288035D01*
D02*
G37*
G36*
X70138Y284513D02*
X70078D01*
Y284453D01*
X70138D01*
Y284513D01*
D02*
G37*
G36*
X71571Y280693D02*
X71511D01*
Y280633D01*
X71571D01*
Y280693D01*
D02*
G37*
G36*
X58199Y295974D02*
X58140D01*
Y295855D01*
X58199D01*
Y295914D01*
Y295974D01*
D02*
G37*
G36*
X58737Y294362D02*
X58677D01*
Y294123D01*
X58737D01*
Y294362D01*
D02*
G37*
G36*
X64408Y287617D02*
X64348D01*
Y287498D01*
X64408D01*
Y287617D01*
D02*
G37*
G36*
X59393Y286662D02*
X59334D01*
Y286602D01*
X59393D01*
Y286662D01*
D02*
G37*
G36*
X63691Y285587D02*
X63632D01*
Y285528D01*
X63691D01*
Y285587D01*
D02*
G37*
G36*
X61900D02*
X61841D01*
Y285468D01*
X61900D01*
Y285587D01*
D02*
G37*
G36*
X65184Y285349D02*
X65124D01*
Y285289D01*
Y285229D01*
X65184D01*
Y285349D01*
D02*
G37*
G36*
X61841Y280155D02*
X61781D01*
Y280096D01*
X61841D01*
Y280155D01*
D02*
G37*
G36*
X63393Y270127D02*
X63035D01*
Y270067D01*
X62915D01*
Y270007D01*
X62796D01*
Y269948D01*
X62736D01*
Y269888D01*
X62676D01*
Y269828D01*
X62617D01*
Y269769D01*
X62557D01*
Y269530D01*
X62497D01*
Y269291D01*
X62557D01*
Y269231D01*
X63870D01*
Y269291D01*
X63990D01*
Y269590D01*
X63930D01*
Y269649D01*
X63870D01*
Y269769D01*
X63811D01*
Y269888D01*
X63751D01*
Y269948D01*
X63632D01*
Y270007D01*
X63512D01*
Y270067D01*
X63393D01*
Y270127D01*
D02*
G37*
G36*
X91986Y268813D02*
X91926D01*
Y268754D01*
X91568D01*
Y268694D01*
X91210D01*
Y268634D01*
X91150D01*
Y268575D01*
X91031D01*
Y268515D01*
X90971D01*
Y268455D01*
X90911D01*
Y268336D01*
X90852D01*
Y268217D01*
X90792D01*
Y268037D01*
X90852D01*
Y267918D01*
X90911D01*
Y267799D01*
X91031D01*
Y267739D01*
X91090D01*
Y267679D01*
X91747D01*
Y267739D01*
X91807D01*
Y267799D01*
X91926D01*
Y267858D01*
X91986D01*
Y267918D01*
X92046D01*
Y268037D01*
X92105D01*
Y268157D01*
X92165D01*
Y268396D01*
X92225D01*
Y268634D01*
X92165D01*
Y268754D01*
X91986D01*
Y268813D01*
D02*
G37*
G36*
X81778Y270007D02*
X81241D01*
Y269948D01*
X81122D01*
Y269888D01*
X81002D01*
Y269828D01*
X80943D01*
Y269769D01*
X80883D01*
Y269590D01*
X80823D01*
Y269530D01*
X80764D01*
Y269291D01*
X80704D01*
Y268396D01*
X80764D01*
Y268217D01*
X80823D01*
Y268097D01*
X80883D01*
Y267978D01*
X80943D01*
Y267918D01*
X81002D01*
Y267858D01*
X81062D01*
Y267799D01*
X81301D01*
Y267739D01*
X81719D01*
Y267799D01*
X81957D01*
Y267858D01*
X82017D01*
Y267918D01*
X82077D01*
Y267978D01*
X82136D01*
Y268037D01*
X82196D01*
Y268217D01*
X82256D01*
Y268336D01*
X82316D01*
Y268515D01*
Y268575D01*
Y269410D01*
X82256D01*
Y269530D01*
X82196D01*
Y269649D01*
X82136D01*
Y269769D01*
X82077D01*
Y269828D01*
X82017D01*
Y269888D01*
X81957D01*
Y269948D01*
X81778D01*
Y270007D01*
D02*
G37*
G36*
X75511D02*
X74973D01*
Y269948D01*
X74854D01*
Y269888D01*
X74794D01*
Y269828D01*
X74675D01*
Y269769D01*
X74615D01*
Y269649D01*
X74555D01*
Y269530D01*
X74496D01*
Y269470D01*
X74436D01*
Y268276D01*
X74496D01*
Y268217D01*
X74555D01*
Y268037D01*
X74615D01*
Y267978D01*
X74675D01*
Y267918D01*
X74735D01*
Y267858D01*
X74854D01*
Y267799D01*
X75033D01*
Y267739D01*
X75451D01*
Y267799D01*
X75690D01*
Y267858D01*
X75749D01*
Y267978D01*
X75869D01*
Y268157D01*
X75928D01*
Y268217D01*
X75988D01*
Y268336D01*
X76048D01*
Y268873D01*
Y268933D01*
Y269410D01*
X75988D01*
Y269530D01*
X75928D01*
Y269590D01*
X75869D01*
Y269709D01*
X75809D01*
Y269769D01*
X75749D01*
Y269828D01*
X75690D01*
Y269888D01*
X75630D01*
Y269948D01*
X75511D01*
Y270007D01*
D02*
G37*
G36*
X85599Y270246D02*
X85300D01*
Y270186D01*
X85181D01*
Y270127D01*
X85062D01*
Y270067D01*
X85002D01*
Y269948D01*
X84942D01*
Y269888D01*
X84882D01*
Y269112D01*
X84942D01*
Y269052D01*
X85002D01*
Y268993D01*
X85062D01*
Y268933D01*
X85181D01*
Y268873D01*
X85240D01*
Y268813D01*
X85658D01*
Y268873D01*
X85778D01*
Y268933D01*
X85837D01*
Y268993D01*
X85897D01*
Y269052D01*
X85957D01*
Y269112D01*
X86017D01*
Y269351D01*
X86076D01*
Y269709D01*
X86017D01*
Y269948D01*
X85957D01*
Y270007D01*
X85897D01*
Y270067D01*
X85837D01*
Y270127D01*
X85718D01*
Y270186D01*
X85599D01*
Y270246D01*
D02*
G37*
G36*
X86315Y266963D02*
X84763D01*
Y266903D01*
X84703D01*
Y266844D01*
X84644D01*
Y266784D01*
X84584D01*
Y266665D01*
X84524D01*
Y266605D01*
X84465D01*
Y266426D01*
X84524D01*
Y266306D01*
X84584D01*
Y266247D01*
X84644D01*
Y266187D01*
X84703D01*
Y266127D01*
X84823D01*
Y266068D01*
X85062D01*
Y266008D01*
X85658D01*
Y266068D01*
X86017D01*
Y266127D01*
X86136D01*
Y266187D01*
X86255D01*
Y266247D01*
X86315D01*
Y266306D01*
X86375D01*
Y266366D01*
X86434D01*
Y266426D01*
X86494D01*
Y266784D01*
X86434D01*
Y266844D01*
X86315D01*
Y266963D01*
D02*
G37*
G36*
X139803Y124504D02*
X137893D01*
Y117603D01*
X133658Y124504D01*
X131658D01*
Y114256D01*
X133569D01*
Y121009D01*
X137730Y114256D01*
X139803D01*
Y124504D01*
D02*
G37*
G36*
X139655Y90206D02*
X137745D01*
Y83306D01*
X133509Y90206D01*
X131510D01*
Y79959D01*
X133420D01*
Y86712D01*
X137582Y79959D01*
X139655D01*
Y90206D01*
D02*
G37*
G36*
X139392Y219746D02*
X137481D01*
Y212846D01*
X133246Y219746D01*
X131247D01*
Y209499D01*
X133158D01*
Y216252D01*
X137319Y209499D01*
X139392D01*
Y219746D01*
D02*
G37*
G36*
X146159Y219806D02*
X144560D01*
X144412Y219465D01*
X144219Y219154D01*
X144012Y218858D01*
X143805Y218621D01*
X143627Y218428D01*
X143464Y218280D01*
X143405Y218221D01*
X143360Y218177D01*
X143331Y218162D01*
X143316Y218147D01*
X142990Y217910D01*
X142679Y217703D01*
X142398Y217540D01*
X142146Y217421D01*
X141939Y217332D01*
X141791Y217258D01*
X141731Y217244D01*
X141687Y217229D01*
X141672Y217214D01*
X141657D01*
Y215437D01*
X142191Y215644D01*
X142664Y215867D01*
X142886Y215985D01*
X143094Y216118D01*
X143286Y216237D01*
X143464Y216355D01*
X143627Y216474D01*
X143775Y216577D01*
X143893Y216666D01*
X143997Y216755D01*
X144086Y216829D01*
X144145Y216873D01*
X144175Y216903D01*
X144190Y216918D01*
Y209499D01*
X146159D01*
Y219806D01*
D02*
G37*
G36*
X139855Y185456D02*
X137944D01*
Y178556D01*
X133709Y185456D01*
X131710D01*
Y175209D01*
X133621D01*
Y181961D01*
X137782Y175209D01*
X139855D01*
Y185456D01*
D02*
G37*
G36*
X145126Y185515D02*
X144978D01*
X144727Y185501D01*
X144490Y185486D01*
X144031Y185412D01*
X143646Y185293D01*
X143468Y185234D01*
X143305Y185160D01*
X143157Y185101D01*
X143039Y185027D01*
X142920Y184968D01*
X142831Y184923D01*
X142757Y184864D01*
X142713Y184834D01*
X142683Y184820D01*
X142668Y184805D01*
X142505Y184657D01*
X142357Y184508D01*
X142224Y184331D01*
X142106Y184138D01*
X141928Y183753D01*
X141780Y183383D01*
X141735Y183191D01*
X141691Y183028D01*
X141646Y182880D01*
X141632Y182746D01*
X141602Y182628D01*
Y182554D01*
X141587Y182495D01*
Y182480D01*
X143542Y182287D01*
X143572Y182584D01*
X143631Y182835D01*
X143690Y183057D01*
X143764Y183220D01*
X143823Y183354D01*
X143883Y183442D01*
X143927Y183502D01*
X143942Y183516D01*
X144090Y183635D01*
X144253Y183724D01*
X144416Y183798D01*
X144579Y183842D01*
X144712Y183872D01*
X144830Y183887D01*
X144934D01*
X145156Y183872D01*
X145349Y183827D01*
X145511Y183768D01*
X145660Y183709D01*
X145763Y183650D01*
X145852Y183590D01*
X145897Y183546D01*
X145911Y183531D01*
X146030Y183383D01*
X146119Y183220D01*
X146178Y183057D01*
X146222Y182894D01*
X146252Y182746D01*
X146267Y182613D01*
Y182539D01*
Y182524D01*
Y182509D01*
X146252Y182287D01*
X146207Y182080D01*
X146133Y181873D01*
X146059Y181695D01*
X145985Y181532D01*
X145911Y181414D01*
X145867Y181340D01*
X145852Y181310D01*
X145793Y181221D01*
X145704Y181117D01*
X145585Y180984D01*
X145467Y180866D01*
X145201Y180584D01*
X144934Y180303D01*
X144667Y180036D01*
X144549Y179918D01*
X144430Y179829D01*
X144342Y179740D01*
X144282Y179681D01*
X144238Y179637D01*
X144223Y179622D01*
X143927Y179340D01*
X143660Y179074D01*
X143409Y178822D01*
X143187Y178600D01*
X142979Y178378D01*
X142802Y178171D01*
X142639Y177993D01*
X142505Y177815D01*
X142387Y177667D01*
X142283Y177534D01*
X142194Y177430D01*
X142135Y177327D01*
X142076Y177267D01*
X142046Y177208D01*
X142017Y177178D01*
Y177164D01*
X141824Y176823D01*
X141676Y176468D01*
X141558Y176142D01*
X141469Y175846D01*
X141410Y175579D01*
X141395Y175476D01*
X141380Y175387D01*
X141365Y175313D01*
X141350Y175253D01*
Y175209D01*
X148236D01*
Y177030D01*
X144327D01*
X144445Y177223D01*
X144579Y177386D01*
X144638Y177460D01*
X144682Y177519D01*
X144712Y177549D01*
X144727Y177563D01*
X144786Y177623D01*
X144845Y177697D01*
X145023Y177860D01*
X145215Y178052D01*
X145408Y178245D01*
X145600Y178422D01*
X145763Y178570D01*
X145822Y178630D01*
X145867Y178674D01*
X145897Y178689D01*
X145911Y178704D01*
X146237Y179015D01*
X146504Y179266D01*
X146726Y179503D01*
X146903Y179681D01*
X147037Y179829D01*
X147126Y179933D01*
X147185Y180007D01*
X147200Y180022D01*
X147392Y180273D01*
X147555Y180510D01*
X147688Y180732D01*
X147792Y180925D01*
X147881Y181088D01*
X147940Y181221D01*
X147970Y181295D01*
X147984Y181325D01*
X148073Y181562D01*
X148132Y181799D01*
X148177Y182021D01*
X148207Y182228D01*
X148221Y182391D01*
X148236Y182524D01*
Y182643D01*
X148221Y182865D01*
X148192Y183087D01*
X148162Y183294D01*
X148103Y183487D01*
X147955Y183827D01*
X147807Y184123D01*
X147718Y184257D01*
X147644Y184360D01*
X147570Y184464D01*
X147496Y184538D01*
X147437Y184597D01*
X147407Y184657D01*
X147377Y184671D01*
X147362Y184686D01*
X147200Y184834D01*
X147007Y184968D01*
X146829Y185071D01*
X146622Y185160D01*
X146237Y185308D01*
X145852Y185412D01*
X145674Y185441D01*
X145511Y185471D01*
X145363Y185486D01*
X145230Y185501D01*
X145126Y185515D01*
D02*
G37*
G36*
X73422Y262256D02*
X71980D01*
Y259524D01*
X73311D01*
X73408Y259538D01*
X73658D01*
X73907Y259552D01*
X74157Y259579D01*
X74379Y259621D01*
X74476Y259635D01*
X74559Y259662D01*
X74573Y259676D01*
X74629Y259690D01*
X74698Y259732D01*
X74781Y259773D01*
X74878Y259843D01*
X74975Y259926D01*
X75086Y260023D01*
X75170Y260134D01*
X75183Y260148D01*
X75211Y260189D01*
X75239Y260259D01*
X75280Y260356D01*
X75322Y260467D01*
X75364Y260592D01*
X75377Y260730D01*
X75391Y260883D01*
Y260911D01*
Y260966D01*
X75377Y261063D01*
X75350Y261188D01*
X75308Y261327D01*
X75253Y261479D01*
X75183Y261618D01*
X75072Y261757D01*
X75059Y261770D01*
X75017Y261812D01*
X74948Y261868D01*
X74864Y261937D01*
X74753Y262020D01*
X74615Y262089D01*
X74462Y262145D01*
X74296Y262187D01*
X74282D01*
X74226Y262200D01*
X74129Y262214D01*
X73991Y262228D01*
X73810D01*
X73686Y262242D01*
X73561D01*
X73422Y262256D01*
D02*
G37*
G36*
X114514Y259981D02*
X114417D01*
X114306Y259954D01*
X114167Y259926D01*
X114015Y259870D01*
X113848Y259801D01*
X113682Y259690D01*
X113530Y259538D01*
X113516Y259524D01*
X113474Y259454D01*
X113405Y259357D01*
X113335Y259219D01*
X113252Y259052D01*
X113197Y258844D01*
X113155Y258608D01*
X113141Y258345D01*
X115887D01*
Y258359D01*
Y258387D01*
Y258414D01*
X115873Y258470D01*
X115859Y258622D01*
X115832Y258789D01*
X115776Y258983D01*
X115707Y259191D01*
X115596Y259385D01*
X115471Y259552D01*
X115457Y259565D01*
X115402Y259621D01*
X115318Y259690D01*
X115208Y259773D01*
X115069Y259843D01*
X114902Y259912D01*
X114722Y259968D01*
X114514Y259981D01*
D02*
G37*
G36*
X99592D02*
X99495D01*
X99384Y259954D01*
X99245Y259926D01*
X99093Y259870D01*
X98926Y259801D01*
X98760Y259690D01*
X98607Y259538D01*
X98593Y259524D01*
X98552Y259454D01*
X98482Y259357D01*
X98413Y259219D01*
X98330Y259052D01*
X98274Y258844D01*
X98233Y258608D01*
X98219Y258345D01*
X100965D01*
Y258359D01*
Y258387D01*
Y258414D01*
X100951Y258470D01*
X100937Y258622D01*
X100909Y258789D01*
X100854Y258983D01*
X100785Y259191D01*
X100674Y259385D01*
X100549Y259552D01*
X100535Y259565D01*
X100479Y259621D01*
X100396Y259690D01*
X100285Y259773D01*
X100147Y259843D01*
X99980Y259912D01*
X99800Y259968D01*
X99592Y259981D01*
D02*
G37*
G36*
X87346Y259898D02*
X87277D01*
X87221Y259884D01*
X87096Y259870D01*
X86930Y259829D01*
X86736Y259760D01*
X86528Y259662D01*
X86320Y259524D01*
X86126Y259343D01*
X86112Y259316D01*
X86056Y259246D01*
X85973Y259108D01*
X85890Y258941D01*
X85793Y258719D01*
X85723Y258442D01*
X85668Y258123D01*
X85640Y257763D01*
Y257749D01*
Y257721D01*
Y257665D01*
X85654Y257596D01*
Y257499D01*
X85668Y257402D01*
X85696Y257180D01*
X85765Y256917D01*
X85848Y256653D01*
X85959Y256390D01*
X86126Y256168D01*
X86153Y256140D01*
X86209Y256084D01*
X86320Y256001D01*
X86472Y255904D01*
X86639Y255793D01*
X86847Y255710D01*
X87083Y255655D01*
X87346Y255627D01*
X87415D01*
X87471Y255641D01*
X87596Y255655D01*
X87762Y255696D01*
X87956Y255765D01*
X88164Y255849D01*
X88358Y255987D01*
X88553Y256168D01*
X88580Y256195D01*
X88636Y256265D01*
X88705Y256403D01*
X88802Y256570D01*
X88899Y256806D01*
X88969Y257069D01*
X89024Y257402D01*
X89052Y257763D01*
Y257776D01*
Y257804D01*
Y257860D01*
X89038Y257929D01*
Y258012D01*
X89024Y258123D01*
X88996Y258345D01*
X88927Y258595D01*
X88844Y258858D01*
X88719Y259122D01*
X88553Y259343D01*
X88525Y259371D01*
X88469Y259427D01*
X88358Y259524D01*
X88220Y259621D01*
X88039Y259718D01*
X87845Y259815D01*
X87610Y259870D01*
X87346Y259898D01*
D02*
G37*
G36*
X56045D02*
X55976D01*
X55920Y259884D01*
X55795Y259870D01*
X55629Y259829D01*
X55435Y259760D01*
X55227Y259662D01*
X55019Y259524D01*
X54825Y259343D01*
X54811Y259316D01*
X54755Y259246D01*
X54672Y259108D01*
X54589Y258941D01*
X54492Y258719D01*
X54422Y258442D01*
X54367Y258123D01*
X54339Y257763D01*
Y257749D01*
Y257721D01*
Y257665D01*
X54353Y257596D01*
Y257499D01*
X54367Y257402D01*
X54395Y257180D01*
X54464Y256917D01*
X54547Y256653D01*
X54658Y256390D01*
X54825Y256168D01*
X54852Y256140D01*
X54908Y256084D01*
X55019Y256001D01*
X55171Y255904D01*
X55338Y255793D01*
X55546Y255710D01*
X55781Y255655D01*
X56045Y255627D01*
X56114D01*
X56170Y255641D01*
X56295Y255655D01*
X56461Y255696D01*
X56655Y255765D01*
X56863Y255849D01*
X57057Y255987D01*
X57252Y256168D01*
X57279Y256195D01*
X57335Y256265D01*
X57404Y256403D01*
X57501Y256570D01*
X57598Y256806D01*
X57668Y257069D01*
X57723Y257402D01*
X57751Y257763D01*
Y257776D01*
Y257804D01*
Y257860D01*
X57737Y257929D01*
Y258012D01*
X57723Y258123D01*
X57695Y258345D01*
X57626Y258595D01*
X57543Y258858D01*
X57418Y259122D01*
X57252Y259343D01*
X57224Y259371D01*
X57168Y259427D01*
X57057Y259524D01*
X56919Y259621D01*
X56738Y259718D01*
X56544Y259815D01*
X56308Y259870D01*
X56045Y259898D01*
D02*
G37*
G36*
X32510Y259981D02*
X32413D01*
X32302Y259954D01*
X32164Y259926D01*
X32011Y259870D01*
X31845Y259801D01*
X31678Y259690D01*
X31526Y259538D01*
X31512Y259524D01*
X31470Y259454D01*
X31401Y259357D01*
X31332Y259219D01*
X31248Y259052D01*
X31193Y258844D01*
X31151Y258608D01*
X31137Y258345D01*
X33883D01*
Y258359D01*
Y258387D01*
Y258414D01*
X33869Y258470D01*
X33856Y258622D01*
X33828Y258789D01*
X33772Y258983D01*
X33703Y259191D01*
X33592Y259385D01*
X33467Y259552D01*
X33453Y259565D01*
X33398Y259621D01*
X33315Y259690D01*
X33204Y259773D01*
X33065Y259843D01*
X32899Y259912D01*
X32718Y259968D01*
X32510Y259981D01*
D02*
G37*
G36*
X79398Y249749D02*
X77919D01*
Y248121D01*
X79177D01*
X79362Y248131D01*
X79556Y248140D01*
X79750Y248149D01*
X79833Y248158D01*
X79907Y248168D01*
X79981Y248186D01*
X80027Y248195D01*
X80036D01*
X80064Y248214D01*
X80110Y248232D01*
X80157Y248260D01*
X80277Y248343D01*
X80332Y248399D01*
X80388Y248464D01*
X80397Y248473D01*
X80406Y248501D01*
X80434Y248538D01*
X80462Y248593D01*
X80480Y248667D01*
X80508Y248750D01*
X80517Y248843D01*
X80527Y248944D01*
Y248963D01*
Y249000D01*
X80517Y249055D01*
X80508Y249129D01*
X80480Y249212D01*
X80452Y249296D01*
X80406Y249388D01*
X80351Y249462D01*
X80342Y249471D01*
X80323Y249499D01*
X80277Y249527D01*
X80221Y249573D01*
X80157Y249619D01*
X80073Y249656D01*
X79972Y249693D01*
X79861Y249721D01*
X79852D01*
X79824Y249730D01*
X79768D01*
X79685Y249739D01*
X79482D01*
X79398Y249749D01*
D02*
G37*
G36*
X7071Y135552D02*
X5592D01*
Y133925D01*
X6849D01*
X7035Y133934D01*
X7229Y133944D01*
X7423Y133953D01*
X7506Y133962D01*
X7580Y133971D01*
X7654Y133990D01*
X7700Y133999D01*
X7709D01*
X7737Y134018D01*
X7783Y134036D01*
X7830Y134064D01*
X7950Y134147D01*
X8005Y134202D01*
X8061Y134267D01*
X8070Y134276D01*
X8079Y134304D01*
X8107Y134341D01*
X8135Y134397D01*
X8153Y134471D01*
X8181Y134554D01*
X8190Y134646D01*
X8199Y134748D01*
Y134767D01*
Y134803D01*
X8190Y134859D01*
X8181Y134933D01*
X8153Y135016D01*
X8125Y135099D01*
X8079Y135192D01*
X8024Y135266D01*
X8015Y135275D01*
X7996Y135303D01*
X7950Y135330D01*
X7894Y135377D01*
X7830Y135423D01*
X7746Y135460D01*
X7645Y135497D01*
X7534Y135525D01*
X7524D01*
X7497Y135534D01*
X7441D01*
X7358Y135543D01*
X7155D01*
X7071Y135552D01*
D02*
G37*
G36*
X6592Y164702D02*
X5112D01*
Y163075D01*
X6370D01*
X6555Y163084D01*
X6749Y163093D01*
X6943Y163103D01*
X7026Y163112D01*
X7100Y163121D01*
X7174Y163140D01*
X7220Y163149D01*
X7230D01*
X7257Y163167D01*
X7304Y163186D01*
X7350Y163214D01*
X7470Y163297D01*
X7526Y163352D01*
X7581Y163417D01*
X7590Y163426D01*
X7599Y163454D01*
X7627Y163491D01*
X7655Y163547D01*
X7673Y163620D01*
X7701Y163704D01*
X7710Y163796D01*
X7720Y163898D01*
Y163916D01*
Y163953D01*
X7710Y164009D01*
X7701Y164083D01*
X7673Y164166D01*
X7646Y164249D01*
X7599Y164342D01*
X7544Y164416D01*
X7535Y164425D01*
X7516Y164453D01*
X7470Y164480D01*
X7415Y164527D01*
X7350Y164573D01*
X7267Y164610D01*
X7165Y164647D01*
X7054Y164674D01*
X7045D01*
X7017Y164684D01*
X6962D01*
X6878Y164693D01*
X6675D01*
X6592Y164702D01*
D02*
G37*
G36*
X58289Y94039D02*
X56800Y91838D01*
X58289D01*
Y94039D01*
D02*
G37*
G36*
X52473Y94797D02*
X50994D01*
Y93169D01*
X52251D01*
X52436Y93179D01*
X52630Y93188D01*
X52825Y93197D01*
X52908Y93207D01*
X52982Y93216D01*
X53056Y93234D01*
X53102Y93244D01*
X53111D01*
X53139Y93262D01*
X53185Y93280D01*
X53231Y93308D01*
X53352Y93391D01*
X53407Y93447D01*
X53463Y93512D01*
X53472Y93521D01*
X53481Y93549D01*
X53509Y93586D01*
X53537Y93641D01*
X53555Y93715D01*
X53583Y93798D01*
X53592Y93891D01*
X53601Y93992D01*
Y94011D01*
Y94048D01*
X53592Y94103D01*
X53583Y94177D01*
X53555Y94261D01*
X53527Y94344D01*
X53481Y94436D01*
X53425Y94510D01*
X53416Y94519D01*
X53398Y94547D01*
X53352Y94575D01*
X53296Y94621D01*
X53231Y94667D01*
X53148Y94704D01*
X53046Y94741D01*
X52936Y94769D01*
X52926D01*
X52899Y94778D01*
X52843D01*
X52760Y94788D01*
X52556D01*
X52473Y94797D01*
D02*
G37*
G36*
X52312Y79612D02*
X50832D01*
Y77985D01*
X52090D01*
X52275Y77994D01*
X52469Y78004D01*
X52663Y78013D01*
X52746Y78022D01*
X52820Y78031D01*
X52894Y78050D01*
X52940Y78059D01*
X52950D01*
X52977Y78078D01*
X53024Y78096D01*
X53070Y78124D01*
X53190Y78207D01*
X53246Y78262D01*
X53301Y78327D01*
X53310Y78336D01*
X53320Y78364D01*
X53347Y78401D01*
X53375Y78457D01*
X53393Y78531D01*
X53421Y78614D01*
X53430Y78706D01*
X53440Y78808D01*
Y78826D01*
Y78863D01*
X53430Y78919D01*
X53421Y78993D01*
X53393Y79076D01*
X53366Y79159D01*
X53320Y79252D01*
X53264Y79326D01*
X53255Y79335D01*
X53236Y79363D01*
X53190Y79390D01*
X53134Y79437D01*
X53070Y79483D01*
X52987Y79520D01*
X52885Y79557D01*
X52774Y79584D01*
X52765D01*
X52737Y79594D01*
X52681D01*
X52598Y79603D01*
X52395D01*
X52312Y79612D01*
D02*
G37*
%LPD*%
D10*
X50725Y179070D02*
G03*
X50725Y179070I-635J0D01*
G01*
D11*
X81280Y236220D02*
Y241220D01*
Y231220D02*
Y236220D01*
X97090Y215000D02*
Y225000D01*
X96090D02*
X98090D01*
X96090Y215000D02*
X98090D01*
X97090Y188040D02*
Y198040D01*
X96090D02*
X98090D01*
X96090Y188040D02*
X98090D01*
X21670Y133350D02*
X26670D01*
X31670D01*
X26670Y162560D02*
X31670D01*
X21670D02*
X26670D01*
X78740Y87710D02*
Y92710D01*
Y97710D01*
Y72470D02*
Y77470D01*
Y82470D01*
D12*
X80280Y231220D02*
X82280D01*
X80280Y241220D02*
X82280D01*
X62590Y125860D02*
Y173860D01*
X92590Y125860D02*
Y173860D01*
X62590D02*
X92590D01*
X62590Y125860D02*
X92590D01*
X67000Y120760D02*
X83000D01*
X67000Y102760D02*
X83000D01*
X31670Y132350D02*
Y134350D01*
X21670Y132350D02*
Y134350D01*
Y161560D02*
Y163560D01*
X31670Y161560D02*
Y163560D01*
X77740Y97710D02*
X79740D01*
X77740Y87710D02*
X79740D01*
X77740Y82470D02*
X79740D01*
X77740Y72470D02*
X79740D01*
M02*
