G04*
G04 #@! TF.GenerationSoftware,Altium Limited,Altium Designer,23.11.1 (41)*
G04*
G04 Layer_Color=65535*
%FSLAX44Y44*%
%MOMM*%
G71*
G04*
G04 #@! TF.SameCoordinates,663EB88F-05E0-4BFF-A99C-D42E022A2D9A*
G04*
G04*
G04 #@! TF.FilePolarity,Positive*
G04*
G01*
G75*
%ADD10C,0.2540*%
%ADD11C,0.1270*%
%ADD12C,0.1000*%
G36*
X83841Y297407D02*
X83900D01*
Y297347D01*
X83960D01*
Y297287D01*
X84020D01*
Y297228D01*
X84080D01*
Y297108D01*
X84199D01*
Y296989D01*
X84318D01*
Y296929D01*
X84378D01*
Y296869D01*
X84438D01*
Y296810D01*
X84497D01*
Y296750D01*
X84557D01*
Y296690D01*
X84736D01*
Y296631D01*
X84796D01*
Y296571D01*
X84975D01*
Y296511D01*
X85154D01*
Y296452D01*
X85214D01*
Y296392D01*
X85572D01*
Y296332D01*
X85691D01*
Y296273D01*
X86408D01*
Y296213D01*
X86825D01*
Y296153D01*
X94884D01*
Y296093D01*
X94944D01*
Y295974D01*
X94884D01*
Y295914D01*
X94944D01*
Y294004D01*
X94884D01*
Y293944D01*
X92854D01*
Y294004D01*
X92377D01*
Y294064D01*
X91720D01*
Y294123D01*
X91302D01*
Y294183D01*
X90944D01*
Y294243D01*
X90407D01*
Y294303D01*
X90288D01*
Y294362D01*
X89750D01*
Y294422D01*
X89571D01*
Y294482D01*
X89452D01*
Y294541D01*
X89094D01*
Y294601D01*
X88974D01*
Y294661D01*
X88736D01*
Y294720D01*
X88556D01*
Y294780D01*
X88378D01*
Y294840D01*
X88019D01*
Y294900D01*
X87900D01*
Y294959D01*
X87661D01*
Y295019D01*
X87542D01*
Y295079D01*
X87303D01*
Y295138D01*
X87124D01*
Y295198D01*
X87064D01*
Y295258D01*
X86825D01*
Y295317D01*
X86706D01*
Y295377D01*
X86408D01*
Y295437D01*
X86348D01*
Y295497D01*
X86229D01*
Y295556D01*
X86049D01*
Y295616D01*
X85930D01*
Y295676D01*
X85811D01*
Y295735D01*
X85751D01*
Y295795D01*
X85572D01*
Y295855D01*
X85452D01*
Y295914D01*
X85393D01*
Y295974D01*
X85273D01*
Y296034D01*
X85214D01*
Y296093D01*
X85094D01*
Y296153D01*
X85035D01*
Y296213D01*
X84975D01*
Y296273D01*
X84856D01*
Y296332D01*
X84736D01*
Y296392D01*
X84677D01*
Y296452D01*
X84617D01*
Y296511D01*
X84497D01*
Y296631D01*
X84378D01*
Y296690D01*
X84318D01*
Y296810D01*
X84199D01*
Y296929D01*
X84139D01*
Y296989D01*
X84080D01*
Y297048D01*
X84020D01*
Y297108D01*
X83960D01*
Y297168D01*
X83900D01*
Y297287D01*
X83841D01*
Y297347D01*
X83781D01*
Y297466D01*
X83841D01*
Y297407D01*
D02*
G37*
G36*
X84617Y295437D02*
X84677D01*
Y295377D01*
X84796D01*
Y295258D01*
X84856D01*
Y295198D01*
X84915D01*
Y295138D01*
X85035D01*
Y295079D01*
X85094D01*
Y295019D01*
X85154D01*
Y294959D01*
X85214D01*
Y294900D01*
X85273D01*
Y294840D01*
X85393D01*
Y294780D01*
X85452D01*
Y294720D01*
X85512D01*
Y294661D01*
X85632D01*
Y294601D01*
X85691D01*
Y294541D01*
X85811D01*
Y294482D01*
X85870D01*
Y294422D01*
X85930D01*
Y294362D01*
X85990D01*
Y294303D01*
X86049D01*
Y294243D01*
X86169D01*
Y294183D01*
X86229D01*
Y294123D01*
X86408D01*
Y294064D01*
X86467D01*
Y294004D01*
X86527D01*
Y293944D01*
X86706D01*
Y293885D01*
X86825D01*
Y293825D01*
X87004D01*
Y293765D01*
X87064D01*
Y293706D01*
X87124D01*
Y293646D01*
X87243D01*
Y293586D01*
X87363D01*
Y293527D01*
X87482D01*
Y293467D01*
X87542D01*
Y293407D01*
X87661D01*
Y293347D01*
X87781D01*
Y293288D01*
X87840D01*
Y293228D01*
X87960D01*
Y293168D01*
X88019D01*
Y293109D01*
X88139D01*
Y293049D01*
X88198D01*
Y292930D01*
X88139D01*
Y292989D01*
X88019D01*
Y293049D01*
X87960D01*
Y293109D01*
X87781D01*
Y293168D01*
X87721D01*
Y293228D01*
X87482D01*
Y293288D01*
X87422D01*
Y293228D01*
X87303D01*
Y293168D01*
X87243D01*
Y289229D01*
X87303D01*
Y289109D01*
X87363D01*
Y289050D01*
X93690D01*
Y289109D01*
X93869D01*
Y289050D01*
X94168D01*
Y289109D01*
X94466D01*
Y289050D01*
X94884D01*
Y288930D01*
X94944D01*
Y286841D01*
X94884D01*
Y286781D01*
X87422D01*
Y286721D01*
X87363D01*
Y286662D01*
X87243D01*
Y284692D01*
Y284632D01*
Y278066D01*
X87184D01*
Y278006D01*
X86766D01*
Y278066D01*
X84617D01*
Y278305D01*
X84557D01*
Y282722D01*
X84617D01*
Y283438D01*
X84557D01*
Y285707D01*
X84617D01*
Y292094D01*
X84557D01*
Y292273D01*
X84617D01*
Y293288D01*
X84557D01*
Y295497D01*
X84617D01*
Y295437D01*
D02*
G37*
G36*
X88318Y292870D02*
X88258D01*
Y292930D01*
X88318D01*
Y292870D01*
D02*
G37*
G36*
X66768Y291139D02*
X66828D01*
Y291079D01*
X66649D01*
Y291139D01*
X66410D01*
Y291199D01*
X66768D01*
Y291139D01*
D02*
G37*
G36*
X67485Y291019D02*
X67604D01*
Y290960D01*
X67365D01*
Y291019D01*
X67186D01*
Y291079D01*
X67485D01*
Y291019D01*
D02*
G37*
G36*
X70052Y296332D02*
X70111D01*
Y296273D01*
X70171D01*
Y295974D01*
X70231D01*
Y295914D01*
X70290D01*
Y295795D01*
X70350D01*
Y295616D01*
X70410D01*
Y295497D01*
X70469D01*
Y295258D01*
X70529D01*
Y295138D01*
X70589D01*
Y294959D01*
X70648D01*
Y294840D01*
X70708D01*
Y294720D01*
X70768D01*
Y294422D01*
X70828D01*
Y294303D01*
X70887D01*
Y294123D01*
X70947D01*
Y294004D01*
X71007D01*
Y293825D01*
X71066D01*
Y293646D01*
X71126D01*
Y293527D01*
X71186D01*
Y293288D01*
X71245D01*
Y293168D01*
X71305D01*
Y292930D01*
X71365D01*
Y292870D01*
X71424D01*
Y292751D01*
X71484D01*
Y292572D01*
X71544D01*
Y292512D01*
X71604D01*
Y292333D01*
X71663D01*
Y292213D01*
X71723D01*
Y292094D01*
X71783D01*
Y291915D01*
X71842D01*
Y291796D01*
X71902D01*
Y291557D01*
X71962D01*
Y291437D01*
X72021D01*
Y291318D01*
X72081D01*
Y291139D01*
X72141D01*
Y291079D01*
X72200D01*
Y290900D01*
X72260D01*
Y290781D01*
X72320D01*
Y290602D01*
X72380D01*
Y290542D01*
X72439D01*
Y290422D01*
X72499D01*
Y290243D01*
X72559D01*
Y290184D01*
X72618D01*
Y290005D01*
X72678D01*
Y289885D01*
X72738D01*
Y289826D01*
X72797D01*
Y289706D01*
X72857D01*
Y289587D01*
X72917D01*
Y289467D01*
X72977D01*
Y289408D01*
X73036D01*
Y289288D01*
X73096D01*
Y289229D01*
X73156D01*
Y289109D01*
X73215D01*
Y288930D01*
X73275D01*
Y288871D01*
X73335D01*
Y288751D01*
X73394D01*
Y288691D01*
X73454D01*
Y288572D01*
X73514D01*
Y288512D01*
X73573D01*
Y288393D01*
X73633D01*
Y288274D01*
X73693D01*
Y288214D01*
X73753D01*
Y288035D01*
X73872D01*
Y287915D01*
X73932D01*
Y287856D01*
X73991D01*
Y287796D01*
X74051D01*
Y287617D01*
X74111D01*
Y287557D01*
X74170D01*
Y287498D01*
X74230D01*
Y287438D01*
X74290D01*
Y287378D01*
X74349D01*
Y287259D01*
X74469D01*
Y287139D01*
X74529D01*
Y287080D01*
X74588D01*
Y286960D01*
X74529D01*
Y287080D01*
X74349D01*
Y287199D01*
X74230D01*
Y287259D01*
X74170D01*
Y287318D01*
X74111D01*
Y287378D01*
X74051D01*
Y287498D01*
X73991D01*
Y287557D01*
X73932D01*
Y287617D01*
X73872D01*
Y287736D01*
X73812D01*
Y287796D01*
X73753D01*
Y287856D01*
X73693D01*
Y287915D01*
X73633D01*
Y288035D01*
X73573D01*
Y288095D01*
X73514D01*
Y288154D01*
X73454D01*
Y288274D01*
X73394D01*
Y288333D01*
X73335D01*
Y288393D01*
X73275D01*
Y288453D01*
X73215D01*
Y288512D01*
X73156D01*
Y288572D01*
X73096D01*
Y288632D01*
X73036D01*
Y288691D01*
X72977D01*
Y288751D01*
X72917D01*
Y288811D01*
X72857D01*
Y288871D01*
X72797D01*
Y288930D01*
X72738D01*
Y288990D01*
X72678D01*
Y289050D01*
X72618D01*
Y289109D01*
X72559D01*
Y289169D01*
X72499D01*
Y289229D01*
X72439D01*
Y289288D01*
X72380D01*
Y289348D01*
X72320D01*
Y289408D01*
X72260D01*
Y289467D01*
X72200D01*
Y289527D01*
X72141D01*
Y289587D01*
X72081D01*
Y289646D01*
X72021D01*
Y289706D01*
X71962D01*
Y289766D01*
X71902D01*
Y289826D01*
X71783D01*
Y289885D01*
X71723D01*
Y289945D01*
X71604D01*
Y290005D01*
X71544D01*
Y290064D01*
X71484D01*
Y290124D01*
X71424D01*
Y290184D01*
X71365D01*
Y290243D01*
X71245D01*
Y290303D01*
X71186D01*
Y290363D01*
X71066D01*
Y290422D01*
X71007D01*
Y290482D01*
X70947D01*
Y290542D01*
X70887D01*
Y290602D01*
X70828D01*
Y290661D01*
X70708D01*
Y290721D01*
X70648D01*
Y290781D01*
X70589D01*
Y290840D01*
X70469D01*
Y290900D01*
X70410D01*
Y290960D01*
X70231D01*
Y291019D01*
X70171D01*
Y291079D01*
X70052D01*
Y291139D01*
X69992D01*
Y291199D01*
X69872D01*
Y291258D01*
X69753D01*
Y291318D01*
X69693D01*
Y291378D01*
X69514D01*
Y291437D01*
X69395D01*
Y291497D01*
X69335D01*
Y291557D01*
X69216D01*
Y291616D01*
X69156D01*
Y291676D01*
X68977D01*
Y291736D01*
X68917D01*
Y291796D01*
X68858D01*
Y291855D01*
X68738D01*
Y291975D01*
X68679D01*
Y292034D01*
X68619D01*
Y292154D01*
X68559D01*
Y292213D01*
X68619D01*
Y292333D01*
X68559D01*
Y292452D01*
X68619D01*
Y292930D01*
X68679D01*
Y292989D01*
X68738D01*
Y293288D01*
X68798D01*
Y293407D01*
X68858D01*
Y293527D01*
X68917D01*
Y293706D01*
X68977D01*
Y293765D01*
X69037D01*
Y294004D01*
X69096D01*
Y294064D01*
X69156D01*
Y294303D01*
X69216D01*
Y294422D01*
X69276D01*
Y294541D01*
X69335D01*
Y294780D01*
X69395D01*
Y294900D01*
X69455D01*
Y295198D01*
X69514D01*
Y295258D01*
X69574D01*
Y295437D01*
X69634D01*
Y295616D01*
X69693D01*
Y295735D01*
X69753D01*
Y295974D01*
X69813D01*
Y296093D01*
X69872D01*
Y296332D01*
X69932D01*
Y296511D01*
X70052D01*
Y296332D01*
D02*
G37*
G36*
X81931Y295974D02*
X81871D01*
Y295855D01*
X81811D01*
Y295735D01*
X81751D01*
Y295497D01*
X81692D01*
Y295437D01*
X81632D01*
Y295198D01*
X81572D01*
Y295138D01*
X81513D01*
Y294900D01*
X81453D01*
Y294840D01*
Y294780D01*
X81393D01*
Y294601D01*
X81334D01*
Y294362D01*
X81274D01*
Y294303D01*
X81214D01*
Y294064D01*
X81154D01*
Y293944D01*
X81095D01*
Y293825D01*
X81035D01*
Y293706D01*
X80976D01*
Y293586D01*
X80916D01*
Y293288D01*
X80856D01*
Y293228D01*
X80796D01*
Y292989D01*
X80737D01*
Y292870D01*
X80677D01*
Y292691D01*
X80617D01*
Y292512D01*
X80558D01*
Y292452D01*
X80498D01*
Y292213D01*
X80438D01*
Y292094D01*
X80379D01*
Y291855D01*
X80319D01*
Y291736D01*
X80259D01*
Y291557D01*
X80199D01*
Y291318D01*
X80140D01*
Y291258D01*
X80080D01*
Y291019D01*
X80020D01*
Y290900D01*
X79961D01*
Y290781D01*
X79901D01*
Y290602D01*
X79841D01*
Y290422D01*
X79782D01*
Y290303D01*
X79722D01*
Y290184D01*
X79662D01*
Y290005D01*
X79602D01*
Y289826D01*
X79543D01*
Y289706D01*
X79483D01*
Y289527D01*
X79423D01*
Y289408D01*
X79364D01*
Y289169D01*
X79304D01*
Y289050D01*
X79244D01*
Y288871D01*
X79185D01*
Y288691D01*
X79125D01*
Y288572D01*
X79065D01*
Y288333D01*
X79006D01*
Y288214D01*
X78946D01*
Y288035D01*
X78886D01*
Y287856D01*
X78826D01*
Y287736D01*
X78767D01*
Y287557D01*
X78707D01*
Y287438D01*
X78647D01*
Y287139D01*
X78588D01*
Y287080D01*
X78528D01*
Y286960D01*
X78468D01*
Y286781D01*
X78409D01*
Y286662D01*
X78349D01*
Y286483D01*
X78289D01*
Y286363D01*
X78230D01*
Y286184D01*
X78170D01*
Y286005D01*
X78110D01*
Y285886D01*
X78050D01*
Y285647D01*
X77991D01*
Y285587D01*
X77931D01*
Y285349D01*
X77871D01*
Y285170D01*
X77812D01*
Y285110D01*
X77752D01*
Y284811D01*
X77692D01*
Y284692D01*
X77633D01*
Y284453D01*
X77573D01*
Y284334D01*
X77513D01*
Y284155D01*
X77454D01*
Y284035D01*
X77394D01*
Y283916D01*
X77334D01*
Y283677D01*
X77274D01*
Y283558D01*
X77215D01*
Y283379D01*
X77155D01*
Y283259D01*
X77095D01*
Y283140D01*
X77036D01*
Y282961D01*
X76976D01*
Y282841D01*
X76916D01*
Y282662D01*
X76857D01*
Y282543D01*
X76797D01*
Y282304D01*
X76737D01*
Y282125D01*
X76677D01*
Y282006D01*
X76618D01*
Y281767D01*
X76558D01*
Y281648D01*
X76498D01*
Y281469D01*
X76439D01*
Y281349D01*
X76379D01*
Y281170D01*
X76319D01*
Y280991D01*
X76260D01*
Y280872D01*
X76200D01*
Y280573D01*
X76140D01*
Y280513D01*
X76081D01*
Y280275D01*
X76021D01*
Y280096D01*
X75961D01*
Y279976D01*
X75901D01*
Y279797D01*
X75842D01*
Y279678D01*
X75782D01*
Y279499D01*
X75722D01*
Y279319D01*
X75663D01*
Y279200D01*
X75603D01*
Y279081D01*
X75543D01*
Y278961D01*
X75484D01*
Y278723D01*
X75424D01*
Y278603D01*
X75364D01*
Y278484D01*
X75305D01*
Y278305D01*
X75245D01*
Y278126D01*
X75185D01*
Y277887D01*
X75125D01*
Y277768D01*
X75006D01*
Y278006D01*
X74946D01*
Y278126D01*
X74887D01*
Y278364D01*
X74827D01*
Y278424D01*
X74767D01*
Y278663D01*
X74708D01*
Y278782D01*
X74648D01*
Y278961D01*
X74588D01*
Y279140D01*
X74529D01*
Y279200D01*
X74469D01*
Y279379D01*
X74409D01*
Y279439D01*
X74349D01*
Y279618D01*
X74290D01*
Y279797D01*
X74230D01*
Y279916D01*
X74170D01*
Y280155D01*
X74111D01*
Y280215D01*
X74051D01*
Y280454D01*
X73991D01*
Y280573D01*
X73932D01*
Y280633D01*
X73872D01*
Y280931D01*
X73812D01*
Y280991D01*
X73753D01*
Y281230D01*
X73693D01*
Y281349D01*
X73633D01*
Y281588D01*
X73573D01*
Y281707D01*
X73514D01*
Y281827D01*
X73454D01*
Y282065D01*
X73394D01*
Y282125D01*
X73335D01*
Y282424D01*
X73275D01*
Y282483D01*
X73215D01*
Y282603D01*
X73156D01*
Y282782D01*
X73096D01*
Y282841D01*
X73036D01*
Y283080D01*
X72977D01*
Y283140D01*
X72917D01*
Y283379D01*
X72857D01*
Y283498D01*
X72797D01*
Y283617D01*
X72738D01*
Y283856D01*
X72678D01*
Y283976D01*
X72618D01*
Y284274D01*
X72559D01*
Y284334D01*
X72499D01*
Y284453D01*
X72439D01*
Y284632D01*
X72380D01*
Y284692D01*
X72320D01*
Y284931D01*
X72260D01*
Y285050D01*
X72200D01*
Y285229D01*
X72141D01*
Y285408D01*
X72081D01*
Y285528D01*
X72021D01*
Y285766D01*
X71962D01*
Y285826D01*
X71902D01*
Y286065D01*
X71842D01*
Y286184D01*
X71783D01*
Y286363D01*
X71723D01*
Y286542D01*
X71663D01*
Y286602D01*
X71604D01*
Y286781D01*
X71544D01*
Y286841D01*
X71484D01*
Y287020D01*
X71424D01*
Y287199D01*
X71365D01*
Y287318D01*
X71305D01*
Y287557D01*
X71245D01*
Y287617D01*
X71186D01*
Y287856D01*
X71126D01*
Y287975D01*
X71066D01*
Y288154D01*
X71007D01*
Y288333D01*
X70947D01*
Y288453D01*
X70887D01*
Y288632D01*
X70828D01*
Y288751D01*
X70768D01*
Y288930D01*
X70708D01*
Y289050D01*
X70648D01*
Y289229D01*
X70589D01*
Y289467D01*
X70529D01*
Y289527D01*
X70469D01*
Y289706D01*
X70410D01*
Y289766D01*
X70350D01*
Y289885D01*
X70410D01*
Y289826D01*
X70529D01*
Y289766D01*
X70589D01*
Y289706D01*
X70708D01*
Y289646D01*
X70828D01*
Y289527D01*
X71007D01*
Y289467D01*
X71066D01*
Y289408D01*
X71126D01*
Y289348D01*
X71245D01*
Y289288D01*
X71305D01*
Y289229D01*
X71365D01*
Y289169D01*
X71424D01*
Y289109D01*
X71544D01*
Y289050D01*
X71604D01*
Y288990D01*
X71723D01*
Y288930D01*
X71783D01*
Y288871D01*
X71842D01*
Y288811D01*
X71902D01*
Y288751D01*
X71962D01*
Y288691D01*
X72081D01*
Y288632D01*
X72141D01*
Y288572D01*
X72200D01*
Y288512D01*
X72260D01*
Y288453D01*
X72320D01*
Y288393D01*
X72380D01*
Y288333D01*
X72439D01*
Y288274D01*
X72499D01*
Y288214D01*
X72559D01*
Y288154D01*
X72618D01*
Y288095D01*
X72678D01*
Y288035D01*
X72738D01*
Y287975D01*
X72797D01*
Y287915D01*
X72857D01*
Y287856D01*
X72917D01*
Y287796D01*
X72977D01*
Y287736D01*
X73036D01*
Y287617D01*
X73096D01*
Y287557D01*
X73156D01*
Y287498D01*
X73215D01*
Y287378D01*
X73275D01*
Y287318D01*
X73335D01*
Y287199D01*
X73394D01*
Y287139D01*
X73454D01*
Y287020D01*
X73514D01*
Y286960D01*
X73573D01*
Y286841D01*
X73633D01*
Y286721D01*
X73693D01*
Y286662D01*
X73753D01*
Y286423D01*
X73812D01*
Y286304D01*
X73872D01*
Y286244D01*
X73932D01*
Y286065D01*
X73991D01*
Y285945D01*
X74051D01*
Y285766D01*
X74111D01*
Y285707D01*
X74170D01*
Y285468D01*
X74230D01*
Y285408D01*
X74290D01*
Y285289D01*
X74349D01*
Y285050D01*
X74409D01*
Y284931D01*
X74469D01*
Y284692D01*
X74529D01*
Y284513D01*
X74588D01*
Y284334D01*
X74648D01*
Y284155D01*
X74708D01*
Y284095D01*
X75006D01*
Y284155D01*
X75066D01*
Y284214D01*
X75125D01*
Y284274D01*
X75185D01*
Y284513D01*
X75245D01*
Y284632D01*
X75305D01*
Y284811D01*
X75364D01*
Y285050D01*
X75424D01*
Y285170D01*
X75484D01*
Y285408D01*
X75543D01*
Y285468D01*
X75603D01*
Y285766D01*
X75663D01*
Y285826D01*
X75722D01*
Y286005D01*
X75782D01*
Y286184D01*
X75842D01*
Y286304D01*
X75901D01*
Y286483D01*
X75961D01*
Y286602D01*
X76021D01*
Y286841D01*
X76081D01*
Y286960D01*
X76140D01*
Y287020D01*
X76200D01*
Y287318D01*
X76260D01*
Y287378D01*
X76319D01*
Y287736D01*
X76379D01*
Y287856D01*
X76439D01*
Y288035D01*
X76498D01*
Y288214D01*
X76558D01*
Y288274D01*
X76618D01*
Y288572D01*
X76677D01*
Y288691D01*
X76737D01*
Y288871D01*
X76797D01*
Y289050D01*
X76857D01*
Y289229D01*
X76916D01*
Y289467D01*
X76976D01*
Y289527D01*
X77036D01*
Y289766D01*
X77095D01*
Y289885D01*
X77155D01*
Y290064D01*
X77215D01*
Y290243D01*
X77274D01*
Y290363D01*
X77334D01*
Y290542D01*
X77394D01*
Y290661D01*
X77454D01*
Y290900D01*
X77513D01*
Y291079D01*
X77573D01*
Y291199D01*
X77633D01*
Y291378D01*
X77692D01*
Y291497D01*
X77752D01*
Y291736D01*
X77812D01*
Y291915D01*
X77871D01*
Y292094D01*
X77931D01*
Y292213D01*
X77991D01*
Y292333D01*
X78050D01*
Y292631D01*
X78110D01*
Y292691D01*
X78170D01*
Y292930D01*
X78230D01*
Y293049D01*
X78289D01*
Y293168D01*
X78349D01*
Y293527D01*
X78409D01*
Y293586D01*
X78468D01*
Y293825D01*
X78528D01*
Y293885D01*
X78588D01*
Y294123D01*
X78647D01*
Y294243D01*
X78707D01*
Y294303D01*
X78767D01*
Y294601D01*
X78826D01*
Y294720D01*
X78886D01*
Y294900D01*
X78946D01*
Y295079D01*
X79006D01*
Y295198D01*
X79065D01*
Y295437D01*
X79125D01*
Y295497D01*
X79185D01*
Y295795D01*
X79244D01*
Y295855D01*
X79304D01*
Y296093D01*
X79364D01*
Y296153D01*
X81931D01*
Y295974D01*
D02*
G37*
G36*
X60739Y296093D02*
X60799D01*
Y296034D01*
X60859D01*
Y295795D01*
X60918D01*
Y295616D01*
X60978D01*
Y295497D01*
X61038D01*
Y295258D01*
X61098D01*
Y295198D01*
X61157D01*
Y294959D01*
X61217D01*
Y294840D01*
X61277D01*
Y294661D01*
X61336D01*
Y294422D01*
X61396D01*
Y294362D01*
X61456D01*
Y294064D01*
X61515D01*
Y294004D01*
X61575D01*
Y293825D01*
X61635D01*
Y293646D01*
X61694D01*
Y293527D01*
X61754D01*
Y293288D01*
X61814D01*
Y293168D01*
X61874D01*
Y292930D01*
X61933D01*
Y292870D01*
X61993D01*
Y292751D01*
X62053D01*
Y292572D01*
X62112D01*
Y292452D01*
X62172D01*
Y292213D01*
X62232D01*
Y292094D01*
X62291D01*
Y291855D01*
X62351D01*
Y291736D01*
X62411D01*
Y291616D01*
X62470D01*
Y291318D01*
X62530D01*
Y291258D01*
X62590D01*
Y290960D01*
X62650D01*
Y290900D01*
X62709D01*
Y290721D01*
X62769D01*
Y290542D01*
X62829D01*
Y290363D01*
X62888D01*
Y290124D01*
X62948D01*
Y290064D01*
X63008D01*
Y289826D01*
X63067D01*
Y289766D01*
X63127D01*
Y289587D01*
X63187D01*
Y289348D01*
X63246D01*
Y289288D01*
X63306D01*
Y289050D01*
X63366D01*
Y288930D01*
X63426D01*
Y288811D01*
X63485D01*
Y288632D01*
X63545D01*
Y288512D01*
X63605D01*
Y288214D01*
X63664D01*
Y288154D01*
X63724D01*
Y287856D01*
X63784D01*
Y287736D01*
X63843D01*
Y287617D01*
X63903D01*
Y287378D01*
X63963D01*
Y287318D01*
X64022D01*
Y287080D01*
X64082D01*
Y286960D01*
X64142D01*
Y286781D01*
X64202D01*
Y286602D01*
X64261D01*
Y286483D01*
X64321D01*
Y286184D01*
X64381D01*
Y286065D01*
X64440D01*
Y285886D01*
X64500D01*
Y285707D01*
X64560D01*
Y285587D01*
X64619D01*
Y285349D01*
X64679D01*
Y285229D01*
X64739D01*
Y285050D01*
X64798D01*
Y284990D01*
X64858D01*
Y284811D01*
X64918D01*
Y284632D01*
X64978D01*
Y284453D01*
X65037D01*
Y284274D01*
X65097D01*
Y284155D01*
X65157D01*
Y284095D01*
X65455D01*
Y284155D01*
X65515D01*
Y284214D01*
X65575D01*
Y284334D01*
X65634D01*
Y284453D01*
X65694D01*
Y284573D01*
X65754D01*
Y284811D01*
X65813D01*
Y284931D01*
X65873D01*
Y285229D01*
X65933D01*
Y285408D01*
X65992D01*
Y285528D01*
X66052D01*
Y285766D01*
X66112D01*
Y285886D01*
X66171D01*
Y286005D01*
X66231D01*
Y286125D01*
X66291D01*
Y286363D01*
X66351D01*
Y286542D01*
X66410D01*
Y286662D01*
X66470D01*
Y286841D01*
X66530D01*
Y286960D01*
X66589D01*
Y287199D01*
X66649D01*
Y287318D01*
X66709D01*
Y287557D01*
X66768D01*
Y287677D01*
X66828D01*
Y287856D01*
X66888D01*
Y288095D01*
X66947D01*
Y288274D01*
X67007D01*
Y288453D01*
X67067D01*
Y288572D01*
X67127D01*
Y288751D01*
X67186D01*
Y288990D01*
X67246D01*
Y289109D01*
X67306D01*
Y289348D01*
X67365D01*
Y289467D01*
X67425D01*
Y289706D01*
X67485D01*
Y289826D01*
X67544D01*
Y289945D01*
X67604D01*
Y290184D01*
X67664D01*
Y290243D01*
X67723D01*
Y290422D01*
X67783D01*
Y290781D01*
X67723D01*
Y290900D01*
X67664D01*
Y290960D01*
X67962D01*
Y290900D01*
X68082D01*
Y290840D01*
X68261D01*
Y290781D01*
X68440D01*
Y290721D01*
X68559D01*
Y290661D01*
X68798D01*
Y290602D01*
X68917D01*
Y290542D01*
X69096D01*
Y290482D01*
X69216D01*
Y290422D01*
X69335D01*
Y290363D01*
X69455D01*
Y290303D01*
X69514D01*
Y290243D01*
X69693D01*
Y290184D01*
X69753D01*
Y290064D01*
X69693D01*
Y289945D01*
X69634D01*
Y289766D01*
X69574D01*
Y289646D01*
X69514D01*
Y289527D01*
X69455D01*
Y289288D01*
X69395D01*
Y289169D01*
X69335D01*
Y288990D01*
X69276D01*
Y288871D01*
X69216D01*
Y288632D01*
X69156D01*
Y288453D01*
X69096D01*
Y288393D01*
X69037D01*
Y288154D01*
X68977D01*
Y288035D01*
X68917D01*
Y287856D01*
X68858D01*
Y287677D01*
X68798D01*
Y287617D01*
X68738D01*
Y287438D01*
X68679D01*
Y287378D01*
X68619D01*
Y287139D01*
X68559D01*
Y287020D01*
X68499D01*
Y286841D01*
X68440D01*
Y286721D01*
X68380D01*
Y286602D01*
X68320D01*
Y286363D01*
X68261D01*
Y286184D01*
X68201D01*
Y286005D01*
X68141D01*
Y285886D01*
X68082D01*
Y285707D01*
X68022D01*
Y285528D01*
X67962D01*
Y285468D01*
X67903D01*
Y285229D01*
X67843D01*
Y285050D01*
X67783D01*
Y284931D01*
X67723D01*
Y284752D01*
Y284692D01*
X67664D01*
Y284573D01*
X67604D01*
Y284394D01*
X67544D01*
Y284334D01*
X67485D01*
Y284155D01*
X67425D01*
Y284035D01*
X67365D01*
Y283976D01*
X67306D01*
Y283677D01*
X67246D01*
Y283558D01*
X67186D01*
Y283379D01*
X67127D01*
Y283259D01*
X67067D01*
Y283080D01*
X67007D01*
Y282961D01*
X66947D01*
Y282841D01*
X66888D01*
Y282603D01*
X66828D01*
Y282483D01*
X66768D01*
Y282244D01*
X66709D01*
Y282125D01*
X66649D01*
Y282006D01*
X66589D01*
Y281707D01*
X66530D01*
Y281648D01*
X66470D01*
Y281409D01*
X66410D01*
Y281289D01*
X66351D01*
Y281110D01*
X66291D01*
Y280931D01*
X66231D01*
Y280872D01*
X66171D01*
Y280633D01*
X66112D01*
Y280573D01*
X66052D01*
Y280394D01*
X65992D01*
Y280275D01*
X65933D01*
Y280155D01*
X65873D01*
Y279976D01*
X65813D01*
Y279797D01*
X65754D01*
Y279558D01*
X65694D01*
Y279499D01*
X65634D01*
Y279260D01*
X65575D01*
Y279081D01*
X65515D01*
Y279021D01*
X65455D01*
Y278782D01*
X65395D01*
Y278663D01*
X65336D01*
Y278543D01*
X65276D01*
Y278364D01*
X65216D01*
Y278185D01*
X65157D01*
Y278006D01*
X65097D01*
Y277827D01*
X65037D01*
Y277708D01*
X64978D01*
Y277768D01*
X64918D01*
Y277947D01*
X64858D01*
Y278245D01*
X64798D01*
Y278305D01*
X64739D01*
Y278543D01*
X64679D01*
Y278663D01*
X64619D01*
Y278842D01*
X64560D01*
Y279021D01*
X64500D01*
Y279140D01*
X64440D01*
Y279379D01*
X64381D01*
Y279499D01*
X64321D01*
Y279678D01*
X64261D01*
Y279857D01*
X64202D01*
Y279976D01*
X64142D01*
Y280215D01*
X64082D01*
Y280275D01*
X64022D01*
Y280573D01*
X63963D01*
Y280693D01*
X63903D01*
Y280872D01*
X63843D01*
Y281051D01*
X63784D01*
Y281170D01*
X63724D01*
Y281409D01*
X63664D01*
Y281528D01*
X63605D01*
Y281707D01*
X63545D01*
Y281767D01*
X63485D01*
Y281886D01*
X63426D01*
Y282065D01*
X63366D01*
Y282185D01*
X63306D01*
Y282424D01*
X63246D01*
Y282543D01*
X63187D01*
Y282782D01*
X63127D01*
Y282901D01*
X63067D01*
Y283020D01*
X63008D01*
Y283259D01*
X62948D01*
Y283379D01*
X62888D01*
Y283617D01*
X62829D01*
Y283797D01*
X62769D01*
Y283856D01*
X62709D01*
Y284155D01*
X62650D01*
Y284214D01*
X62590D01*
Y284453D01*
X62530D01*
Y284573D01*
X62470D01*
Y284692D01*
X62411D01*
Y284931D01*
X62351D01*
Y285050D01*
X62291D01*
Y285289D01*
X62232D01*
Y285408D01*
X62172D01*
Y285587D01*
X62112D01*
Y285707D01*
X62053D01*
Y285826D01*
X61993D01*
Y285945D01*
X61933D01*
Y286065D01*
X61874D01*
Y286304D01*
X61814D01*
Y286423D01*
X61754D01*
Y286542D01*
X61694D01*
Y286841D01*
X61635D01*
Y286901D01*
X61575D01*
Y287139D01*
X61515D01*
Y287259D01*
X61456D01*
Y287438D01*
X61396D01*
Y287617D01*
X61336D01*
Y287736D01*
X61277D01*
Y287975D01*
X61217D01*
Y288035D01*
X61157D01*
Y288333D01*
X61098D01*
Y288453D01*
X61038D01*
Y288572D01*
X60978D01*
Y288751D01*
X60918D01*
Y288871D01*
X60859D01*
Y289109D01*
X60799D01*
Y289169D01*
X60739D01*
Y289408D01*
X60680D01*
Y289467D01*
X60620D01*
Y289587D01*
X60560D01*
Y289885D01*
X60501D01*
Y289945D01*
X60441D01*
Y290124D01*
X60381D01*
Y290303D01*
X60321D01*
Y290422D01*
X60262D01*
Y290661D01*
X60202D01*
Y290781D01*
X60142D01*
Y291019D01*
X60083D01*
Y291139D01*
X60023D01*
Y291318D01*
X59963D01*
Y291437D01*
X59904D01*
Y291557D01*
X59844D01*
Y291855D01*
X59784D01*
Y291915D01*
X59725D01*
Y292154D01*
X59665D01*
Y292333D01*
X59605D01*
Y292452D01*
X59545D01*
Y292631D01*
X59486D01*
Y292751D01*
X59426D01*
Y292930D01*
X59366D01*
Y292989D01*
X59307D01*
Y293228D01*
X59247D01*
Y293347D01*
X59187D01*
Y293467D01*
X59128D01*
Y293706D01*
X59068D01*
Y293765D01*
X59008D01*
Y294004D01*
X58949D01*
Y294123D01*
X58889D01*
Y294303D01*
X58829D01*
Y294482D01*
X58769D01*
Y294601D01*
X58710D01*
Y294900D01*
X58650D01*
Y294959D01*
X58590D01*
Y295138D01*
X58531D01*
Y295317D01*
X58471D01*
Y295497D01*
X58411D01*
Y295676D01*
X58352D01*
Y295795D01*
X58292D01*
Y295974D01*
X58232D01*
Y296153D01*
X60739D01*
Y296093D01*
D02*
G37*
G36*
X81274Y272097D02*
X81393D01*
Y271977D01*
Y271917D01*
Y267082D01*
X80498D01*
Y267142D01*
X80438D01*
Y272097D01*
X80856D01*
Y272156D01*
X81095D01*
Y272097D01*
X81214D01*
Y272156D01*
X81274D01*
Y272097D01*
D02*
G37*
G36*
X63426Y271798D02*
X63485D01*
Y271082D01*
X62291D01*
Y271022D01*
X62232D01*
Y267142D01*
X62172D01*
Y267082D01*
X61277D01*
Y267142D01*
X61217D01*
Y271022D01*
X61157D01*
Y271082D01*
X59963D01*
Y271798D01*
X60023D01*
Y271858D01*
X60142D01*
Y271798D01*
X60262D01*
Y271858D01*
X63246D01*
Y271798D01*
X63306D01*
Y271858D01*
X63426D01*
Y271798D01*
D02*
G37*
G36*
X91422Y271977D02*
X91482D01*
Y271917D01*
X91541D01*
Y271559D01*
Y271500D01*
Y271440D01*
X91482D01*
Y271380D01*
X91422D01*
Y271321D01*
X91362D01*
Y271261D01*
X90705D01*
Y271321D01*
X90646D01*
Y271380D01*
X90586D01*
Y271977D01*
X90646D01*
Y272037D01*
X90705D01*
Y272097D01*
X91422D01*
Y271977D01*
D02*
G37*
G36*
X73991Y270724D02*
X74230D01*
Y270664D01*
X74529D01*
Y270604D01*
X74588D01*
Y270545D01*
X74708D01*
Y270485D01*
X74767D01*
Y270425D01*
X74827D01*
Y270366D01*
X74887D01*
Y270306D01*
X74946D01*
Y270127D01*
X75006D01*
Y269948D01*
X75066D01*
Y269828D01*
X75125D01*
Y267142D01*
X75066D01*
Y267082D01*
X74170D01*
Y269351D01*
X74111D01*
Y269709D01*
X74051D01*
Y269769D01*
X73991D01*
Y269888D01*
X73932D01*
Y269948D01*
X73753D01*
Y270007D01*
X73275D01*
Y269948D01*
X73156D01*
Y269888D01*
X73036D01*
Y269828D01*
X72977D01*
Y269769D01*
X72917D01*
Y269709D01*
X72857D01*
Y269649D01*
X72797D01*
Y269410D01*
X72738D01*
Y269291D01*
X72678D01*
Y267082D01*
X71842D01*
Y267202D01*
X71783D01*
Y267321D01*
X71842D01*
Y267381D01*
X71783D01*
Y267560D01*
X71842D01*
Y268037D01*
Y268097D01*
Y268993D01*
X71783D01*
Y270366D01*
X71842D01*
Y270485D01*
X71783D01*
Y270604D01*
X71842D01*
Y270664D01*
X72499D01*
Y270485D01*
X72559D01*
Y270306D01*
X72618D01*
Y270246D01*
X72678D01*
Y270306D01*
X72797D01*
Y270366D01*
X72857D01*
Y270485D01*
X72977D01*
Y270545D01*
X73096D01*
Y270604D01*
X73156D01*
Y270664D01*
X73454D01*
Y270724D01*
X73753D01*
Y270783D01*
X73991D01*
Y270724D01*
D02*
G37*
G36*
X69992D02*
X70350D01*
Y270664D01*
X70708D01*
Y270604D01*
X70828D01*
Y270545D01*
X70887D01*
Y270366D01*
X70828D01*
Y270127D01*
X70768D01*
Y270007D01*
X70708D01*
Y269888D01*
X70648D01*
Y269828D01*
X70469D01*
Y269888D01*
X70410D01*
Y269948D01*
X70111D01*
Y270007D01*
X69574D01*
Y269948D01*
X69455D01*
Y269888D01*
X69395D01*
Y269828D01*
X69276D01*
Y269769D01*
X69216D01*
Y269649D01*
X69156D01*
Y269590D01*
X69096D01*
Y269291D01*
X69037D01*
Y268993D01*
X68977D01*
Y268694D01*
X69037D01*
Y268455D01*
X69096D01*
Y268157D01*
X69156D01*
Y268097D01*
X69216D01*
Y267978D01*
X69276D01*
Y267918D01*
X69335D01*
Y267858D01*
X69395D01*
Y267799D01*
X69634D01*
Y267739D01*
X70052D01*
Y267799D01*
X70469D01*
Y267858D01*
X70589D01*
Y267918D01*
X70708D01*
Y267978D01*
X70768D01*
Y267918D01*
X70828D01*
Y267262D01*
X70768D01*
Y267202D01*
X70708D01*
Y267142D01*
X70589D01*
Y267082D01*
X70350D01*
Y267023D01*
X70171D01*
Y266963D01*
X69395D01*
Y267023D01*
X69216D01*
Y267082D01*
X68977D01*
Y267142D01*
X68798D01*
Y267202D01*
X68738D01*
Y267262D01*
X68619D01*
Y267321D01*
X68559D01*
Y267381D01*
X68499D01*
Y267440D01*
X68440D01*
Y267500D01*
X68380D01*
Y267620D01*
X68320D01*
Y267679D01*
X68261D01*
Y267918D01*
X68201D01*
Y267978D01*
X68141D01*
Y268276D01*
X68082D01*
Y269410D01*
X68141D01*
Y269709D01*
X68201D01*
Y269769D01*
X68261D01*
Y269948D01*
X68320D01*
Y270007D01*
X68380D01*
Y270186D01*
X68440D01*
Y270246D01*
X68499D01*
Y270306D01*
X68559D01*
Y270366D01*
X68619D01*
Y270425D01*
X68679D01*
Y270485D01*
X68738D01*
Y270545D01*
X68977D01*
Y270604D01*
X69037D01*
Y270664D01*
X69335D01*
Y270724D01*
X69693D01*
Y270783D01*
X69992D01*
Y270724D01*
D02*
G37*
G36*
X65873D02*
X66231D01*
Y270664D01*
X66530D01*
Y270604D01*
X66589D01*
Y270545D01*
X66709D01*
Y270485D01*
X66828D01*
Y270425D01*
X66888D01*
Y270366D01*
X66947D01*
Y270246D01*
X67067D01*
Y270067D01*
X67127D01*
Y269948D01*
X67186D01*
Y269888D01*
X67246D01*
Y269590D01*
X67306D01*
Y269410D01*
X67365D01*
Y268694D01*
X67067D01*
Y268634D01*
X66768D01*
Y268694D01*
X65157D01*
Y268634D01*
X65037D01*
Y268575D01*
X64978D01*
Y268396D01*
X65037D01*
Y268217D01*
X65097D01*
Y268097D01*
X65157D01*
Y267978D01*
X65216D01*
Y267918D01*
X65276D01*
Y267858D01*
X65336D01*
Y267799D01*
X65515D01*
Y267739D01*
X65575D01*
Y267679D01*
X66530D01*
Y267739D01*
X66649D01*
Y267799D01*
X66947D01*
Y267858D01*
X67127D01*
Y267262D01*
X67067D01*
Y267142D01*
X66828D01*
Y267082D01*
X66589D01*
Y267023D01*
X66410D01*
Y266963D01*
X65515D01*
Y267023D01*
X65336D01*
Y267082D01*
X65097D01*
Y267142D01*
X64918D01*
Y267202D01*
X64858D01*
Y267262D01*
X64679D01*
Y267321D01*
X64619D01*
Y267381D01*
X64560D01*
Y267440D01*
X64500D01*
Y267560D01*
X64440D01*
Y267620D01*
X64381D01*
Y267679D01*
X64321D01*
Y267739D01*
X64261D01*
Y267918D01*
X64202D01*
Y268037D01*
X64142D01*
Y268157D01*
X64082D01*
Y268813D01*
X64022D01*
Y268993D01*
X64082D01*
Y269590D01*
X64142D01*
Y269709D01*
X64202D01*
Y269828D01*
X64261D01*
Y270007D01*
X64321D01*
Y270067D01*
X64381D01*
Y270186D01*
X64440D01*
Y270246D01*
X64500D01*
Y270306D01*
X64560D01*
Y270366D01*
X64619D01*
Y270425D01*
X64679D01*
Y270485D01*
X64739D01*
Y270545D01*
X64918D01*
Y270604D01*
X64978D01*
Y270664D01*
X65276D01*
Y270724D01*
X65575D01*
Y270783D01*
X65873D01*
Y270724D01*
D02*
G37*
G36*
X94406D02*
X94645D01*
Y270664D01*
X95003D01*
Y270604D01*
X95063D01*
Y270545D01*
X95242D01*
Y270485D01*
X95302D01*
Y270425D01*
X95362D01*
Y270366D01*
X95421D01*
Y270246D01*
X95481D01*
Y270127D01*
X95541D01*
Y270007D01*
X95600D01*
Y267978D01*
X95660D01*
Y267918D01*
X95600D01*
Y267262D01*
X95660D01*
Y267202D01*
X95600D01*
Y267082D01*
X95003D01*
Y267142D01*
X94944D01*
Y267202D01*
X94884D01*
Y267500D01*
X94645D01*
Y267440D01*
X94586D01*
Y267321D01*
X94526D01*
Y267262D01*
X94406D01*
Y267202D01*
X94347D01*
Y267142D01*
X94227D01*
Y267082D01*
X94048D01*
Y267023D01*
X93869D01*
Y266963D01*
X93213D01*
Y267023D01*
X93093D01*
Y267082D01*
X92914D01*
Y267142D01*
X92854D01*
Y267202D01*
X92795D01*
Y267262D01*
X92735D01*
Y267321D01*
X92675D01*
Y267381D01*
X92616D01*
Y267500D01*
X92556D01*
Y267620D01*
X92496D01*
Y267739D01*
X92437D01*
Y268455D01*
X92496D01*
Y268575D01*
X92556D01*
Y268694D01*
X92616D01*
Y268813D01*
X92675D01*
Y268873D01*
X92735D01*
Y268933D01*
X92795D01*
Y268993D01*
X92914D01*
Y269052D01*
X92974D01*
Y269112D01*
X93213D01*
Y269172D01*
X93332D01*
Y269231D01*
X94287D01*
Y269291D01*
X94645D01*
Y269351D01*
X94705D01*
Y269769D01*
X94645D01*
Y269828D01*
X94586D01*
Y269948D01*
X94466D01*
Y270007D01*
X94347D01*
Y270067D01*
X94168D01*
Y270127D01*
X93989D01*
Y270067D01*
X93750D01*
Y270007D01*
X93451D01*
Y269948D01*
X93272D01*
Y269888D01*
X93153D01*
Y269828D01*
X93093D01*
Y269888D01*
X93034D01*
Y270007D01*
X92974D01*
Y270127D01*
X92914D01*
Y270306D01*
X92854D01*
Y270485D01*
X92914D01*
Y270545D01*
X93093D01*
Y270604D01*
X93153D01*
Y270664D01*
X93571D01*
Y270724D01*
X93869D01*
Y270783D01*
X94406D01*
Y270724D01*
D02*
G37*
G36*
X91482Y270604D02*
X91541D01*
Y267142D01*
X91482D01*
Y267082D01*
X90586D01*
Y270664D01*
X91482D01*
Y270604D01*
D02*
G37*
G36*
X84259Y270724D02*
X84557D01*
Y270664D01*
X84796D01*
Y270604D01*
X84915D01*
Y270545D01*
X85035D01*
Y270485D01*
X85094D01*
Y270425D01*
X85214D01*
Y270366D01*
X85273D01*
Y270306D01*
X85333D01*
Y270246D01*
X85393D01*
Y270186D01*
X85452D01*
Y270127D01*
X85512D01*
Y270007D01*
X85572D01*
Y269888D01*
X85632D01*
Y269828D01*
X85691D01*
Y269530D01*
X85751D01*
Y269410D01*
X85811D01*
Y268336D01*
X85751D01*
Y268217D01*
X85691D01*
Y267918D01*
X85632D01*
Y267858D01*
X85572D01*
Y267739D01*
X85512D01*
Y267679D01*
X85452D01*
Y267560D01*
X85393D01*
Y267500D01*
X85333D01*
Y267440D01*
X85273D01*
Y267381D01*
X85214D01*
Y267321D01*
X85154D01*
Y267262D01*
X85035D01*
Y267202D01*
X84975D01*
Y267142D01*
X84796D01*
Y267082D01*
X84557D01*
Y267023D01*
X84438D01*
Y266963D01*
X83662D01*
Y267023D01*
X83542D01*
Y267082D01*
X83363D01*
Y267142D01*
X83184D01*
Y267202D01*
X83124D01*
Y267262D01*
X83005D01*
Y267321D01*
X82945D01*
Y267381D01*
X82886D01*
Y267440D01*
X82826D01*
Y267500D01*
X82766D01*
Y267560D01*
X82707D01*
Y267620D01*
X82647D01*
Y267679D01*
X82587D01*
Y267799D01*
X82528D01*
Y267858D01*
X82468D01*
Y267978D01*
X82408D01*
Y268276D01*
X82348D01*
Y268396D01*
X82289D01*
Y269410D01*
X82348D01*
Y269530D01*
X82408D01*
Y269769D01*
X82468D01*
Y269888D01*
X82528D01*
Y270007D01*
X82587D01*
Y270067D01*
X82647D01*
Y270127D01*
X82707D01*
Y270246D01*
X82766D01*
Y270306D01*
X82826D01*
Y270366D01*
X82945D01*
Y270425D01*
X83005D01*
Y270485D01*
X83065D01*
Y270545D01*
X83184D01*
Y270604D01*
X83303D01*
Y270664D01*
X83602D01*
Y270724D01*
X83900D01*
Y270783D01*
X84259D01*
Y270724D01*
D02*
G37*
G36*
X77931D02*
X78230D01*
Y270664D01*
X78528D01*
Y270604D01*
X78647D01*
Y270545D01*
X78767D01*
Y270485D01*
X78826D01*
Y270425D01*
X78946D01*
Y270366D01*
X79006D01*
Y270306D01*
X79065D01*
Y270246D01*
X79125D01*
Y270127D01*
X79185D01*
Y270067D01*
X79244D01*
Y269948D01*
X79304D01*
Y269828D01*
X79364D01*
Y269709D01*
X79423D01*
Y269410D01*
X79483D01*
Y269291D01*
X79543D01*
Y269112D01*
Y269052D01*
Y268455D01*
X79483D01*
Y268276D01*
X79423D01*
Y268037D01*
X79364D01*
Y267918D01*
X79304D01*
Y267799D01*
X79244D01*
Y267679D01*
X79185D01*
Y267620D01*
X79125D01*
Y267500D01*
X79065D01*
Y267440D01*
X79006D01*
Y267381D01*
X78946D01*
Y267321D01*
X78886D01*
Y267262D01*
X78767D01*
Y267202D01*
X78707D01*
Y267142D01*
X78528D01*
Y267082D01*
X78289D01*
Y267023D01*
X78110D01*
Y266963D01*
X77454D01*
Y267023D01*
X77274D01*
Y267082D01*
X77036D01*
Y267142D01*
X76916D01*
Y267202D01*
X76797D01*
Y267262D01*
X76677D01*
Y267321D01*
X76618D01*
Y267381D01*
X76558D01*
Y267500D01*
X76498D01*
Y267560D01*
X76439D01*
Y267620D01*
X76379D01*
Y267679D01*
X76319D01*
Y267799D01*
X76260D01*
Y267918D01*
X76200D01*
Y268037D01*
X76140D01*
Y268336D01*
X76081D01*
Y268575D01*
X76021D01*
Y269172D01*
X76081D01*
Y269410D01*
X76140D01*
Y269769D01*
X76200D01*
Y269828D01*
X76260D01*
Y270007D01*
X76319D01*
Y270067D01*
X76379D01*
Y270186D01*
X76439D01*
Y270246D01*
X76498D01*
Y270306D01*
X76558D01*
Y270366D01*
X76618D01*
Y270425D01*
X76677D01*
Y270485D01*
X76737D01*
Y270545D01*
X76916D01*
Y270604D01*
X76976D01*
Y270664D01*
X77334D01*
Y270724D01*
X77633D01*
Y270783D01*
X77931D01*
Y270724D01*
D02*
G37*
G36*
X88139D02*
X88497D01*
Y270664D01*
X89870D01*
Y270246D01*
X89750D01*
Y270186D01*
X89691D01*
Y270127D01*
X89392D01*
Y270067D01*
X89333D01*
Y269888D01*
X89392D01*
Y269769D01*
X89452D01*
Y269231D01*
X89392D01*
Y269052D01*
X89333D01*
Y268933D01*
X89273D01*
Y268813D01*
X89213D01*
Y268754D01*
X89153D01*
Y268634D01*
X89094D01*
Y268575D01*
X88974D01*
Y268515D01*
X88855D01*
Y268455D01*
X88795D01*
Y268396D01*
X88556D01*
Y268336D01*
X88378D01*
Y268276D01*
X87542D01*
Y268217D01*
X87482D01*
Y268157D01*
X87422D01*
Y268097D01*
Y267858D01*
X87542D01*
Y267799D01*
X87840D01*
Y267739D01*
X88974D01*
Y267679D01*
X89273D01*
Y267620D01*
X89392D01*
Y267560D01*
X89512D01*
Y267500D01*
X89571D01*
Y267440D01*
X89631D01*
Y267381D01*
X89691D01*
Y267262D01*
X89750D01*
Y267142D01*
X89810D01*
Y267023D01*
X89870D01*
Y266485D01*
X89810D01*
Y266366D01*
X89750D01*
Y266247D01*
X89691D01*
Y266068D01*
X89631D01*
Y266008D01*
X89571D01*
Y265948D01*
X89512D01*
Y265889D01*
X89452D01*
Y265829D01*
X89333D01*
Y265769D01*
X89273D01*
Y265709D01*
X89153D01*
Y265650D01*
X88974D01*
Y265590D01*
X88915D01*
Y265530D01*
X88497D01*
Y265471D01*
X88258D01*
Y265411D01*
X87363D01*
Y265471D01*
X87184D01*
Y265530D01*
X86825D01*
Y265590D01*
X86706D01*
Y265650D01*
X86646D01*
Y265709D01*
X86527D01*
Y265769D01*
X86467D01*
Y265829D01*
X86408D01*
Y265889D01*
X86348D01*
Y266008D01*
X86288D01*
Y266306D01*
X86229D01*
Y266545D01*
X86288D01*
Y266784D01*
X86348D01*
Y266844D01*
X86408D01*
Y266903D01*
X86467D01*
Y266963D01*
X86527D01*
Y267023D01*
X86587D01*
Y267082D01*
X86706D01*
Y267142D01*
X86825D01*
Y267202D01*
X86945D01*
Y267262D01*
X87004D01*
Y267381D01*
X86945D01*
Y267440D01*
X86825D01*
Y267500D01*
X86766D01*
Y267560D01*
X86706D01*
Y267739D01*
X86646D01*
Y267978D01*
X86706D01*
Y268097D01*
X86766D01*
Y268157D01*
X86825D01*
Y268217D01*
X86885D01*
Y268276D01*
X87004D01*
Y268336D01*
X87064D01*
Y268396D01*
X87124D01*
Y268515D01*
X87064D01*
Y268575D01*
X86945D01*
Y268634D01*
X86885D01*
Y268694D01*
X86766D01*
Y268754D01*
X86706D01*
Y268873D01*
X86646D01*
Y268993D01*
X86587D01*
Y269231D01*
X86527D01*
Y269530D01*
X86467D01*
Y269590D01*
X86527D01*
Y269828D01*
X86587D01*
Y270127D01*
X86646D01*
Y270186D01*
X86706D01*
Y270306D01*
X86766D01*
Y270366D01*
X86825D01*
Y270425D01*
X86885D01*
Y270485D01*
X87004D01*
Y270545D01*
X87124D01*
Y270604D01*
X87184D01*
Y270664D01*
X87482D01*
Y270724D01*
X87781D01*
Y270783D01*
X88139D01*
Y270724D01*
D02*
G37*
G36*
X148290Y175031D02*
X125654D01*
X125965Y175046D01*
X126246Y175061D01*
X126527Y175105D01*
X126779Y175165D01*
X127016Y175224D01*
X127238Y175283D01*
X127445Y175357D01*
X127638Y175446D01*
X127801Y175520D01*
X127949Y175594D01*
X128082Y175653D01*
X128186Y175713D01*
X128275Y175772D01*
X128334Y175816D01*
X128364Y175831D01*
X128378Y175846D01*
X128571Y176009D01*
X128749Y176186D01*
X129074Y176586D01*
X129341Y177001D01*
X129548Y177401D01*
X129637Y177593D01*
X129711Y177771D01*
X129770Y177934D01*
X129830Y178067D01*
X129874Y178185D01*
X129904Y178274D01*
X129918Y178333D01*
Y178348D01*
X127905Y178970D01*
X127786Y178570D01*
X127653Y178230D01*
X127520Y177948D01*
X127371Y177712D01*
X127253Y177534D01*
X127149Y177415D01*
X127075Y177341D01*
X127046Y177312D01*
X126809Y177134D01*
X126572Y177016D01*
X126335Y176927D01*
X126128Y176853D01*
X125935Y176823D01*
X125772Y176808D01*
X125713Y176793D01*
X125639D01*
X125431Y176808D01*
X125239Y176823D01*
X124884Y176927D01*
X124573Y177045D01*
X124321Y177208D01*
X124114Y177356D01*
X123966Y177475D01*
X123906Y177534D01*
X123862Y177578D01*
X123847Y177593D01*
X123832Y177608D01*
X123714Y177771D01*
X123610Y177963D01*
X123506Y178171D01*
X123432Y178393D01*
X123314Y178852D01*
X123225Y179311D01*
X123195Y179533D01*
X123181Y179725D01*
X123151Y179918D01*
Y180081D01*
X123136Y180199D01*
Y180303D01*
Y180377D01*
Y180392D01*
X123151Y180732D01*
X123166Y181043D01*
X123195Y181325D01*
X123240Y181591D01*
X123299Y181828D01*
X123358Y182050D01*
X123418Y182243D01*
X123492Y182421D01*
X123551Y182569D01*
X123610Y182702D01*
X123669Y182806D01*
X123729Y182894D01*
X123773Y182969D01*
X123803Y183013D01*
X123832Y183043D01*
Y183057D01*
X123966Y183205D01*
X124114Y183339D01*
X124262Y183442D01*
X124425Y183531D01*
X124735Y183679D01*
X125032Y183783D01*
X125283Y183842D01*
X125402Y183857D01*
X125491Y183872D01*
X125580Y183887D01*
X125683D01*
X125979Y183872D01*
X126246Y183813D01*
X126483Y183738D01*
X126690Y183650D01*
X126853Y183561D01*
X126972Y183487D01*
X127046Y183428D01*
X127075Y183413D01*
X127268Y183235D01*
X127445Y183028D01*
X127579Y182820D01*
X127682Y182613D01*
X127756Y182435D01*
X127801Y182302D01*
X127830Y182243D01*
Y182198D01*
X127845Y182184D01*
Y182169D01*
X129889Y182658D01*
X129741Y183087D01*
X129578Y183457D01*
X129400Y183783D01*
X129237Y184049D01*
X129074Y184257D01*
X129015Y184346D01*
X128956Y184420D01*
X128912Y184464D01*
X128867Y184508D01*
X128852Y184538D01*
X128837D01*
X128615Y184731D01*
X128364Y184908D01*
X128127Y185056D01*
X127875Y185175D01*
X127608Y185293D01*
X127357Y185382D01*
X127105Y185456D01*
X126868Y185515D01*
X126646Y185560D01*
X126439Y185590D01*
X126261Y185619D01*
X126098Y185634D01*
X125965Y185649D01*
X148290D01*
Y175031D01*
D02*
G37*
G36*
X125402Y185634D02*
X125017Y185590D01*
X124676Y185515D01*
X124336Y185427D01*
X124040Y185323D01*
X123743Y185205D01*
X123492Y185071D01*
X123255Y184938D01*
X123033Y184805D01*
X122855Y184671D01*
X122692Y184553D01*
X122559Y184449D01*
X122455Y184360D01*
X122381Y184286D01*
X122337Y184242D01*
X122322Y184227D01*
X122085Y183946D01*
X121892Y183650D01*
X121715Y183339D01*
X121567Y183013D01*
X121433Y182672D01*
X121330Y182346D01*
X121241Y182021D01*
X121167Y181710D01*
X121108Y181399D01*
X121078Y181132D01*
X121048Y180881D01*
X121019Y180673D01*
Y180495D01*
X121004Y180362D01*
Y180244D01*
X121019Y179799D01*
X121063Y179385D01*
X121122Y178985D01*
X121211Y178630D01*
X121300Y178289D01*
X121419Y177963D01*
X121537Y177682D01*
X121655Y177430D01*
X121774Y177193D01*
X121892Y176986D01*
X122011Y176823D01*
X122100Y176675D01*
X122189Y176571D01*
X122248Y176483D01*
X122292Y176438D01*
X122307Y176423D01*
X122559Y176171D01*
X122825Y175964D01*
X123107Y175772D01*
X123388Y175624D01*
X123669Y175490D01*
X123951Y175372D01*
X124217Y175283D01*
X124469Y175209D01*
X124721Y175150D01*
X124943Y175105D01*
X125150Y175076D01*
X125313Y175061D01*
X125461Y175046D01*
X125565Y175031D01*
X120950D01*
Y185649D01*
X125787D01*
X125402Y185634D01*
D02*
G37*
G36*
X125202Y90384D02*
X124817Y90339D01*
X124476Y90266D01*
X124136Y90177D01*
X123840Y90073D01*
X123544Y89955D01*
X123292Y89821D01*
X123055Y89688D01*
X122833Y89555D01*
X122655Y89421D01*
X122492Y89303D01*
X122359Y89199D01*
X122255Y89110D01*
X122181Y89036D01*
X122137Y88992D01*
X122122Y88977D01*
X121885Y88696D01*
X121692Y88400D01*
X121515Y88089D01*
X121367Y87763D01*
X121233Y87422D01*
X121130Y87097D01*
X121041Y86771D01*
X120967Y86460D01*
X120908Y86149D01*
X120878Y85882D01*
X120848Y85631D01*
X120819Y85423D01*
Y85246D01*
X120804Y85112D01*
Y90399D01*
X125587D01*
X125202Y90384D01*
D02*
G37*
G36*
X148436Y90251D02*
Y83735D01*
X147163D01*
Y90251D01*
X145504D01*
X141062Y83720D01*
Y82017D01*
X145267D01*
Y79959D01*
X147163D01*
Y82017D01*
X148436D01*
Y79959D01*
Y79781D01*
X125454D01*
X125765Y79796D01*
X126046Y79811D01*
X126327Y79855D01*
X126579Y79914D01*
X126816Y79974D01*
X127038Y80033D01*
X127246Y80107D01*
X127438Y80196D01*
X127601Y80270D01*
X127749Y80344D01*
X127882Y80403D01*
X127986Y80463D01*
X128075Y80522D01*
X128134Y80566D01*
X128164Y80581D01*
X128178Y80596D01*
X128371Y80759D01*
X128549Y80936D01*
X128874Y81336D01*
X129141Y81751D01*
X129348Y82151D01*
X129437Y82343D01*
X129511Y82521D01*
X129570Y82684D01*
X129630Y82817D01*
X129674Y82935D01*
X129704Y83024D01*
X129719Y83083D01*
Y83098D01*
X127705Y83720D01*
X127586Y83320D01*
X127453Y82980D01*
X127320Y82698D01*
X127171Y82462D01*
X127053Y82284D01*
X126949Y82165D01*
X126875Y82091D01*
X126846Y82062D01*
X126609Y81884D01*
X126372Y81766D01*
X126135Y81677D01*
X125928Y81603D01*
X125735Y81573D01*
X125572Y81558D01*
X125513Y81543D01*
X125439D01*
X125232Y81558D01*
X125039Y81573D01*
X124684Y81677D01*
X124373Y81795D01*
X124121Y81958D01*
X123914Y82106D01*
X123766Y82225D01*
X123706Y82284D01*
X123662Y82328D01*
X123647Y82343D01*
X123632Y82358D01*
X123514Y82521D01*
X123410Y82713D01*
X123307Y82921D01*
X123232Y83143D01*
X123114Y83602D01*
X123025Y84061D01*
X122996Y84283D01*
X122981Y84475D01*
X122951Y84668D01*
Y84831D01*
X122936Y84949D01*
Y85053D01*
Y85127D01*
Y85142D01*
X122951Y85482D01*
X122966Y85793D01*
X122996Y86075D01*
X123040Y86341D01*
X123099Y86578D01*
X123159Y86800D01*
X123218Y86993D01*
X123292Y87171D01*
X123351Y87319D01*
X123410Y87452D01*
X123469Y87556D01*
X123529Y87644D01*
X123573Y87718D01*
X123603Y87763D01*
X123632Y87793D01*
Y87807D01*
X123766Y87955D01*
X123914Y88089D01*
X124062Y88192D01*
X124225Y88281D01*
X124536Y88429D01*
X124832Y88533D01*
X125084Y88592D01*
X125202Y88607D01*
X125291Y88622D01*
X125380Y88637D01*
X125483D01*
X125779Y88622D01*
X126046Y88562D01*
X126283Y88489D01*
X126490Y88400D01*
X126653Y88311D01*
X126772Y88237D01*
X126846Y88177D01*
X126875Y88163D01*
X127068Y87985D01*
X127246Y87778D01*
X127379Y87570D01*
X127482Y87363D01*
X127556Y87185D01*
X127601Y87052D01*
X127631Y86993D01*
Y86948D01*
X127645Y86934D01*
Y86919D01*
X129689Y87408D01*
X129541Y87837D01*
X129378Y88207D01*
X129200Y88533D01*
X129037Y88799D01*
X128874Y89007D01*
X128815Y89096D01*
X128756Y89170D01*
X128712Y89214D01*
X128667Y89258D01*
X128652Y89288D01*
X128638D01*
X128415Y89481D01*
X128164Y89658D01*
X127927Y89806D01*
X127675Y89925D01*
X127408Y90043D01*
X127157Y90132D01*
X126905Y90206D01*
X126668Y90266D01*
X126446Y90310D01*
X126239Y90339D01*
X126061Y90369D01*
X125898Y90384D01*
X125765Y90399D01*
X148436D01*
Y90251D01*
D02*
G37*
G36*
X145267Y83735D02*
X142883D01*
X145267Y87259D01*
Y83735D01*
D02*
G37*
G36*
X120819Y84550D02*
X120863Y84135D01*
X120922Y83735D01*
X121011Y83380D01*
X121100Y83039D01*
X121219Y82713D01*
X121337Y82432D01*
X121455Y82180D01*
X121574Y81943D01*
X121692Y81736D01*
X121811Y81573D01*
X121900Y81425D01*
X121989Y81321D01*
X122048Y81233D01*
X122092Y81188D01*
X122107Y81173D01*
X122359Y80921D01*
X122625Y80714D01*
X122907Y80522D01*
X123188Y80374D01*
X123469Y80240D01*
X123751Y80122D01*
X124017Y80033D01*
X124269Y79959D01*
X124521Y79900D01*
X124743Y79855D01*
X124950Y79826D01*
X125113Y79811D01*
X125261Y79796D01*
X125365Y79781D01*
X120804D01*
Y84994D01*
X120819Y84550D01*
D02*
G37*
G36*
X147166Y209321D02*
X125191D01*
X125502Y209336D01*
X125783Y209351D01*
X126064Y209395D01*
X126316Y209454D01*
X126553Y209514D01*
X126775Y209573D01*
X126982Y209647D01*
X127175Y209736D01*
X127338Y209810D01*
X127486Y209884D01*
X127619Y209943D01*
X127723Y210002D01*
X127812Y210062D01*
X127871Y210106D01*
X127901Y210121D01*
X127915Y210136D01*
X128108Y210299D01*
X128286Y210476D01*
X128611Y210876D01*
X128878Y211291D01*
X129085Y211691D01*
X129174Y211883D01*
X129248Y212061D01*
X129307Y212224D01*
X129367Y212357D01*
X129411Y212475D01*
X129441Y212564D01*
X129455Y212624D01*
Y212638D01*
X127442Y213260D01*
X127323Y212860D01*
X127190Y212520D01*
X127057Y212239D01*
X126908Y212002D01*
X126790Y211824D01*
X126686Y211705D01*
X126612Y211631D01*
X126583Y211602D01*
X126346Y211424D01*
X126109Y211306D01*
X125872Y211217D01*
X125665Y211143D01*
X125472Y211113D01*
X125309Y211098D01*
X125250Y211083D01*
X125176D01*
X124969Y211098D01*
X124776Y211113D01*
X124421Y211217D01*
X124110Y211335D01*
X123858Y211498D01*
X123651Y211646D01*
X123503Y211765D01*
X123443Y211824D01*
X123399Y211868D01*
X123384Y211883D01*
X123369Y211898D01*
X123251Y212061D01*
X123147Y212253D01*
X123043Y212461D01*
X122970Y212683D01*
X122851Y213142D01*
X122762Y213601D01*
X122732Y213823D01*
X122718Y214016D01*
X122688Y214208D01*
Y214371D01*
X122673Y214489D01*
Y214593D01*
Y214667D01*
Y214682D01*
X122688Y215022D01*
X122703Y215333D01*
X122732Y215615D01*
X122777Y215881D01*
X122836Y216118D01*
X122895Y216340D01*
X122955Y216533D01*
X123029Y216711D01*
X123088Y216859D01*
X123147Y216992D01*
X123206Y217096D01*
X123266Y217184D01*
X123310Y217258D01*
X123340Y217303D01*
X123369Y217332D01*
Y217347D01*
X123503Y217495D01*
X123651Y217629D01*
X123799Y217732D01*
X123962Y217821D01*
X124273Y217969D01*
X124569Y218073D01*
X124820Y218132D01*
X124939Y218147D01*
X125028Y218162D01*
X125117Y218177D01*
X125220D01*
X125517Y218162D01*
X125783Y218102D01*
X126020Y218029D01*
X126227Y217940D01*
X126390Y217851D01*
X126509Y217777D01*
X126583Y217717D01*
X126612Y217703D01*
X126805Y217525D01*
X126982Y217318D01*
X127116Y217110D01*
X127219Y216903D01*
X127293Y216725D01*
X127338Y216592D01*
X127367Y216533D01*
Y216488D01*
X127382Y216474D01*
Y216459D01*
X129426Y216947D01*
X129278Y217377D01*
X129115Y217747D01*
X128937Y218073D01*
X128774Y218340D01*
X128611Y218547D01*
X128552Y218636D01*
X128493Y218710D01*
X128448Y218754D01*
X128404Y218799D01*
X128389Y218828D01*
X128374D01*
X128152Y219021D01*
X127901Y219198D01*
X127664Y219346D01*
X127412Y219465D01*
X127145Y219583D01*
X126894Y219672D01*
X126642Y219746D01*
X126405Y219806D01*
X126183Y219850D01*
X125976Y219879D01*
X125798Y219909D01*
X125635Y219924D01*
X125502Y219939D01*
X147166D01*
Y209321D01*
D02*
G37*
G36*
X124939Y219924D02*
X124554Y219879D01*
X124213Y219806D01*
X123873Y219717D01*
X123577Y219613D01*
X123280Y219494D01*
X123029Y219361D01*
X122792Y219228D01*
X122570Y219095D01*
X122392Y218961D01*
X122229Y218843D01*
X122096Y218739D01*
X121992Y218650D01*
X121918Y218576D01*
X121874Y218532D01*
X121859Y218517D01*
X121622Y218236D01*
X121429Y217940D01*
X121252Y217629D01*
X121104Y217303D01*
X120970Y216962D01*
X120867Y216637D01*
X120778Y216311D01*
X120704Y216000D01*
X120645Y215689D01*
X120615Y215422D01*
X120585Y215170D01*
X120556Y214963D01*
Y214785D01*
X120541Y214652D01*
Y214534D01*
X120556Y214090D01*
X120600Y213675D01*
X120659Y213275D01*
X120748Y212920D01*
X120837Y212579D01*
X120955Y212253D01*
X121074Y211972D01*
X121193Y211720D01*
X121311Y211483D01*
X121429Y211276D01*
X121548Y211113D01*
X121637Y210965D01*
X121726Y210861D01*
X121785Y210772D01*
X121829Y210728D01*
X121844Y210713D01*
X122096Y210462D01*
X122362Y210254D01*
X122644Y210062D01*
X122925Y209914D01*
X123206Y209780D01*
X123488Y209662D01*
X123754Y209573D01*
X124006Y209499D01*
X124258Y209440D01*
X124480Y209395D01*
X124687Y209366D01*
X124850Y209351D01*
X124998Y209336D01*
X125102Y209321D01*
X119534D01*
Y219939D01*
X125324D01*
X124939Y219924D01*
D02*
G37*
G36*
X148290Y114064D02*
X144838D01*
X145104Y114079D01*
X145371Y114108D01*
X145608Y114153D01*
X145845Y114212D01*
X146052Y114286D01*
X146259Y114360D01*
X146452Y114449D01*
X146615Y114538D01*
X146763Y114627D01*
X146911Y114715D01*
X147015Y114789D01*
X147118Y114864D01*
X147192Y114923D01*
X147251Y114967D01*
X147281Y114997D01*
X147296Y115012D01*
X147473Y115189D01*
X147622Y115382D01*
X147755Y115574D01*
X147873Y115767D01*
X147962Y115974D01*
X148051Y116167D01*
X148169Y116522D01*
X148199Y116685D01*
X148229Y116848D01*
X148258Y116981D01*
X148273Y117100D01*
X148288Y117188D01*
Y117322D01*
X148258Y117662D01*
X148199Y117958D01*
X148125Y118240D01*
X148021Y118462D01*
X147918Y118654D01*
X147844Y118788D01*
X147785Y118876D01*
X147755Y118906D01*
X147548Y119128D01*
X147311Y119321D01*
X147074Y119469D01*
X146852Y119587D01*
X146659Y119676D01*
X146496Y119721D01*
X146437Y119750D01*
X146392D01*
X146363Y119765D01*
X146348D01*
X146615Y119928D01*
X146837Y120091D01*
X147029Y120268D01*
X147207Y120446D01*
X147355Y120624D01*
X147473Y120802D01*
X147562Y120979D01*
X147651Y121142D01*
X147710Y121305D01*
X147755Y121453D01*
X147785Y121586D01*
X147799Y121705D01*
X147814Y121794D01*
X147829Y121868D01*
Y121912D01*
Y121927D01*
X147814Y122105D01*
X147799Y122268D01*
X147710Y122593D01*
X147607Y122889D01*
X147473Y123141D01*
X147340Y123349D01*
X147222Y123497D01*
X147177Y123556D01*
X147133Y123600D01*
X147118Y123615D01*
X147103Y123630D01*
X146940Y123793D01*
X146748Y123941D01*
X146570Y124059D01*
X146378Y124163D01*
X146170Y124267D01*
X145978Y124341D01*
X145608Y124444D01*
X145445Y124489D01*
X145282Y124518D01*
X145149Y124533D01*
X145015Y124548D01*
X144912Y124563D01*
X144778D01*
X144467Y124548D01*
X144186Y124518D01*
X143919Y124459D01*
X143697Y124400D01*
X143520Y124341D01*
X143372Y124282D01*
X143283Y124252D01*
X143268Y124237D01*
X143253D01*
X143016Y124104D01*
X142794Y123956D01*
X142616Y123808D01*
X142468Y123674D01*
X142350Y123541D01*
X142261Y123437D01*
X142202Y123378D01*
X142187Y123349D01*
X142054Y123126D01*
X141935Y122889D01*
X141846Y122638D01*
X141758Y122401D01*
X141698Y122179D01*
X141654Y122016D01*
X141639Y121942D01*
Y121897D01*
X141624Y121868D01*
Y121853D01*
X143431Y121557D01*
X143475Y121794D01*
X143534Y122001D01*
X143594Y122179D01*
X143668Y122312D01*
X143742Y122430D01*
X143801Y122519D01*
X143846Y122564D01*
X143860Y122579D01*
X143994Y122697D01*
X144142Y122786D01*
X144290Y122845D01*
X144423Y122889D01*
X144542Y122919D01*
X144630Y122934D01*
X144719D01*
X144897Y122919D01*
X145075Y122889D01*
X145208Y122830D01*
X145326Y122786D01*
X145430Y122727D01*
X145489Y122667D01*
X145534Y122638D01*
X145548Y122623D01*
X145652Y122505D01*
X145726Y122356D01*
X145785Y122223D01*
X145815Y122090D01*
X145845Y121971D01*
X145859Y121883D01*
Y121823D01*
Y121794D01*
X145845Y121572D01*
X145800Y121379D01*
X145726Y121216D01*
X145652Y121083D01*
X145563Y120964D01*
X145504Y120890D01*
X145445Y120831D01*
X145430Y120816D01*
X145252Y120698D01*
X145060Y120609D01*
X144853Y120550D01*
X144660Y120505D01*
X144482Y120491D01*
X144334Y120476D01*
X144201D01*
X143994Y118891D01*
X144186Y118936D01*
X144349Y118980D01*
X144512Y119010D01*
X144645Y119025D01*
X144749Y119039D01*
X144897D01*
X145104Y119025D01*
X145282Y118965D01*
X145445Y118906D01*
X145593Y118817D01*
X145696Y118743D01*
X145785Y118669D01*
X145845Y118610D01*
X145859Y118595D01*
X145993Y118418D01*
X146096Y118225D01*
X146170Y118033D01*
X146230Y117840D01*
X146259Y117662D01*
X146274Y117529D01*
Y117440D01*
Y117425D01*
Y117410D01*
X146259Y117129D01*
X146215Y116877D01*
X146141Y116655D01*
X146067Y116478D01*
X145978Y116344D01*
X145919Y116241D01*
X145859Y116167D01*
X145845Y116152D01*
X145682Y116004D01*
X145504Y115885D01*
X145341Y115811D01*
X145178Y115752D01*
X145030Y115722D01*
X144927Y115708D01*
X144853Y115693D01*
X144823D01*
X144615Y115708D01*
X144438Y115752D01*
X144275Y115811D01*
X144127Y115885D01*
X144023Y115944D01*
X143934Y116004D01*
X143875Y116048D01*
X143860Y116063D01*
X143727Y116226D01*
X143609Y116404D01*
X143534Y116596D01*
X143461Y116774D01*
X143416Y116937D01*
X143386Y117070D01*
X143372Y117159D01*
Y117174D01*
Y117188D01*
X141476Y116952D01*
X141506Y116714D01*
X141565Y116492D01*
X141698Y116078D01*
X141861Y115722D01*
X141965Y115574D01*
X142054Y115426D01*
X142143Y115293D01*
X142231Y115189D01*
X142305Y115086D01*
X142380Y115012D01*
X142439Y114952D01*
X142483Y114908D01*
X142513Y114878D01*
X142528Y114864D01*
X142705Y114730D01*
X142898Y114597D01*
X143076Y114493D01*
X143283Y114404D01*
X143668Y114256D01*
X144023Y114167D01*
X144201Y114138D01*
X144349Y114108D01*
X144482Y114094D01*
X144601Y114079D01*
X144704Y114064D01*
X120950D01*
Y124696D01*
X125735D01*
X125350Y124681D01*
X124965Y124637D01*
X124625Y124563D01*
X124284Y124474D01*
X123988Y124370D01*
X123692Y124252D01*
X123440Y124119D01*
X123203Y123985D01*
X122981Y123852D01*
X122803Y123719D01*
X122640Y123600D01*
X122507Y123497D01*
X122403Y123408D01*
X122329Y123334D01*
X122285Y123289D01*
X122270Y123275D01*
X122033Y122993D01*
X121840Y122697D01*
X121663Y122386D01*
X121515Y122060D01*
X121382Y121720D01*
X121278Y121394D01*
X121189Y121068D01*
X121115Y120757D01*
X121056Y120446D01*
X121026Y120180D01*
X120997Y119928D01*
X120967Y119721D01*
Y119543D01*
X120952Y119410D01*
Y119291D01*
X120967Y118847D01*
X121011Y118432D01*
X121070Y118033D01*
X121159Y117677D01*
X121248Y117337D01*
X121367Y117011D01*
X121485Y116729D01*
X121604Y116478D01*
X121722Y116241D01*
X121840Y116033D01*
X121959Y115871D01*
X122048Y115722D01*
X122137Y115619D01*
X122196Y115530D01*
X122240Y115485D01*
X122255Y115471D01*
X122507Y115219D01*
X122773Y115012D01*
X123055Y114819D01*
X123336Y114671D01*
X123617Y114538D01*
X123899Y114419D01*
X124165Y114330D01*
X124417Y114256D01*
X124669Y114197D01*
X124891Y114153D01*
X125098Y114123D01*
X125261Y114108D01*
X125409Y114094D01*
X125513Y114079D01*
X125602D01*
X125913Y114094D01*
X126194Y114108D01*
X126475Y114153D01*
X126727Y114212D01*
X126964Y114271D01*
X127186Y114330D01*
X127394Y114404D01*
X127586Y114493D01*
X127749Y114567D01*
X127897Y114641D01*
X128030Y114701D01*
X128134Y114760D01*
X128223Y114819D01*
X128282Y114864D01*
X128312Y114878D01*
X128327Y114893D01*
X128519Y115056D01*
X128697Y115234D01*
X129023Y115633D01*
X129289Y116048D01*
X129496Y116448D01*
X129585Y116641D01*
X129659Y116818D01*
X129719Y116981D01*
X129778Y117114D01*
X129822Y117233D01*
X129852Y117322D01*
X129867Y117381D01*
Y117396D01*
X127853Y118018D01*
X127734Y117618D01*
X127601Y117277D01*
X127468Y116996D01*
X127320Y116759D01*
X127201Y116581D01*
X127097Y116463D01*
X127023Y116389D01*
X126994Y116359D01*
X126757Y116181D01*
X126520Y116063D01*
X126283Y115974D01*
X126076Y115900D01*
X125883Y115871D01*
X125720Y115856D01*
X125661Y115841D01*
X125587D01*
X125380Y115856D01*
X125187Y115871D01*
X124832Y115974D01*
X124521Y116093D01*
X124269Y116256D01*
X124062Y116404D01*
X123914Y116522D01*
X123854Y116581D01*
X123810Y116626D01*
X123795Y116641D01*
X123780Y116655D01*
X123662Y116818D01*
X123558Y117011D01*
X123455Y117218D01*
X123381Y117440D01*
X123262Y117899D01*
X123173Y118358D01*
X123144Y118580D01*
X123129Y118773D01*
X123099Y118965D01*
Y119128D01*
X123084Y119247D01*
Y119350D01*
Y119424D01*
Y119439D01*
X123099Y119780D01*
X123114Y120091D01*
X123144Y120372D01*
X123188Y120639D01*
X123247Y120876D01*
X123307Y121098D01*
X123366Y121290D01*
X123440Y121468D01*
X123499Y121616D01*
X123558Y121749D01*
X123617Y121853D01*
X123677Y121942D01*
X123721Y122016D01*
X123751Y122060D01*
X123780Y122090D01*
Y122105D01*
X123914Y122253D01*
X124062Y122386D01*
X124210Y122490D01*
X124373Y122579D01*
X124684Y122727D01*
X124980Y122830D01*
X125232Y122889D01*
X125350Y122904D01*
X125439Y122919D01*
X125528Y122934D01*
X125631D01*
X125928Y122919D01*
X126194Y122860D01*
X126431Y122786D01*
X126638Y122697D01*
X126801Y122608D01*
X126920Y122534D01*
X126994Y122475D01*
X127023Y122460D01*
X127216Y122282D01*
X127394Y122075D01*
X127527Y121868D01*
X127631Y121660D01*
X127705Y121483D01*
X127749Y121349D01*
X127779Y121290D01*
Y121246D01*
X127793Y121231D01*
Y121216D01*
X129837Y121705D01*
X129689Y122134D01*
X129526Y122505D01*
X129348Y122830D01*
X129185Y123097D01*
X129023Y123304D01*
X128963Y123393D01*
X128904Y123467D01*
X128860Y123511D01*
X128815Y123556D01*
X128800Y123586D01*
X128786D01*
X128563Y123778D01*
X128312Y123956D01*
X128075Y124104D01*
X127823Y124222D01*
X127556Y124341D01*
X127305Y124430D01*
X127053Y124504D01*
X126816Y124563D01*
X126594Y124607D01*
X126387Y124637D01*
X126209Y124667D01*
X126046Y124681D01*
X125913Y124696D01*
X148290D01*
Y114064D01*
D02*
G37*
G36*
X27007Y264045D02*
X27159Y264031D01*
X27339Y264017D01*
X27520Y263989D01*
X27728Y263962D01*
X28172Y263865D01*
X28393Y263795D01*
X28615Y263726D01*
X28837Y263629D01*
X29045Y263518D01*
X29239Y263393D01*
X29420Y263254D01*
X29434Y263241D01*
X29461Y263213D01*
X29503Y263171D01*
X29558Y263116D01*
X29628Y263032D01*
X29711Y262935D01*
X29794Y262824D01*
X29891Y262700D01*
X29975Y262547D01*
X30058Y262395D01*
X30141Y262214D01*
X30210Y262020D01*
X30280Y261826D01*
X30335Y261604D01*
X30377Y261382D01*
X30391Y261133D01*
X28449Y261063D01*
Y261077D01*
Y261091D01*
X28421Y261188D01*
X28393Y261313D01*
X28338Y261465D01*
X28269Y261646D01*
X28172Y261812D01*
X28047Y261978D01*
X27908Y262117D01*
X27894Y262131D01*
X27839Y262173D01*
X27742Y262228D01*
X27603Y262284D01*
X27437Y262339D01*
X27229Y262395D01*
X26979Y262436D01*
X26688Y262450D01*
X26549D01*
X26396Y262436D01*
X26216Y262408D01*
X26008Y262367D01*
X25786Y262297D01*
X25578Y262214D01*
X25384Y262089D01*
X25370Y262076D01*
X25342Y262048D01*
X25287Y262006D01*
X25231Y261937D01*
X25176Y261854D01*
X25120Y261743D01*
X25093Y261632D01*
X25079Y261493D01*
Y261479D01*
Y261438D01*
X25093Y261368D01*
X25120Y261299D01*
X25148Y261202D01*
X25190Y261105D01*
X25259Y261008D01*
X25356Y260911D01*
X25370Y260897D01*
X25440Y260855D01*
X25481Y260827D01*
X25550Y260800D01*
X25620Y260758D01*
X25717Y260716D01*
X25828Y260675D01*
X25953Y260619D01*
X26105Y260564D01*
X26258Y260508D01*
X26452Y260453D01*
X26660Y260397D01*
X26882Y260342D01*
X27132Y260273D01*
X27145D01*
X27201Y260259D01*
X27270Y260245D01*
X27367Y260217D01*
X27478Y260189D01*
X27617Y260148D01*
X27769Y260106D01*
X27922Y260065D01*
X28255Y259954D01*
X28602Y259843D01*
X28934Y259718D01*
X29073Y259649D01*
X29212Y259579D01*
X29226D01*
X29239Y259565D01*
X29323Y259510D01*
X29448Y259427D01*
X29600Y259316D01*
X29766Y259177D01*
X29947Y259011D01*
X30127Y258817D01*
X30280Y258595D01*
X30294Y258567D01*
X30335Y258484D01*
X30404Y258359D01*
X30474Y258179D01*
X30543Y257957D01*
X30612Y257693D01*
X30654Y257402D01*
X30668Y257069D01*
Y257055D01*
Y257027D01*
Y256986D01*
Y256930D01*
X30654Y256861D01*
X30640Y256764D01*
X30612Y256570D01*
X30557Y256320D01*
X30474Y256057D01*
X30349Y255793D01*
X30196Y255516D01*
Y255502D01*
X30169Y255488D01*
X30113Y255405D01*
X30002Y255266D01*
X29864Y255114D01*
X29683Y254933D01*
X29448Y254767D01*
X29198Y254601D01*
X28893Y254448D01*
X28879D01*
X28851Y254434D01*
X28809Y254420D01*
X28740Y254393D01*
X28657Y254365D01*
X28560Y254337D01*
X28449Y254309D01*
X28324Y254282D01*
X28172Y254240D01*
X28019Y254212D01*
X27659Y254157D01*
X27256Y254115D01*
X26813Y254101D01*
X26632D01*
X26507Y254115D01*
X26355Y254129D01*
X26188Y254143D01*
X25994Y254171D01*
X25786Y254212D01*
X25329Y254309D01*
X25093Y254379D01*
X24871Y254448D01*
X24635Y254545D01*
X24413Y254656D01*
X24205Y254781D01*
X24011Y254933D01*
X23997Y254947D01*
X23970Y254975D01*
X23914Y255017D01*
X23858Y255086D01*
X23775Y255183D01*
X23692Y255294D01*
X23595Y255419D01*
X23498Y255557D01*
X23401Y255724D01*
X23304Y255904D01*
X23207Y256112D01*
X23110Y256334D01*
X23040Y256570D01*
X22957Y256833D01*
X22902Y257111D01*
X22860Y257402D01*
X24746Y257582D01*
Y257568D01*
X24760Y257541D01*
Y257485D01*
X24774Y257430D01*
X24829Y257263D01*
X24899Y257055D01*
X24982Y256819D01*
X25107Y256584D01*
X25245Y256376D01*
X25426Y256182D01*
X25453Y256168D01*
X25523Y256112D01*
X25634Y256043D01*
X25800Y255960D01*
X26008Y255876D01*
X26244Y255807D01*
X26521Y255752D01*
X26840Y255738D01*
X26993D01*
X27159Y255765D01*
X27367Y255793D01*
X27589Y255835D01*
X27825Y255904D01*
X28047Y256001D01*
X28241Y256126D01*
X28269Y256140D01*
X28324Y256195D01*
X28393Y256279D01*
X28491Y256390D01*
X28574Y256528D01*
X28657Y256695D01*
X28712Y256861D01*
X28726Y257055D01*
Y257069D01*
Y257111D01*
X28712Y257180D01*
X28699Y257263D01*
X28671Y257346D01*
X28643Y257444D01*
X28588Y257541D01*
X28518Y257638D01*
X28504Y257652D01*
X28477Y257679D01*
X28435Y257721D01*
X28366Y257776D01*
X28269Y257846D01*
X28144Y257915D01*
X28005Y257984D01*
X27825Y258054D01*
X27811D01*
X27755Y258081D01*
X27659Y258109D01*
X27589Y258137D01*
X27506Y258151D01*
X27409Y258179D01*
X27298Y258220D01*
X27173Y258248D01*
X27034Y258290D01*
X26868Y258331D01*
X26688Y258373D01*
X26493Y258428D01*
X26272Y258484D01*
X26258D01*
X26202Y258498D01*
X26119Y258525D01*
X26022Y258553D01*
X25897Y258595D01*
X25745Y258636D01*
X25592Y258692D01*
X25412Y258747D01*
X25051Y258886D01*
X24704Y259052D01*
X24524Y259135D01*
X24372Y259233D01*
X24219Y259330D01*
X24094Y259427D01*
X24080Y259441D01*
X24053Y259468D01*
X24011Y259510D01*
X23956Y259565D01*
X23886Y259649D01*
X23817Y259746D01*
X23734Y259843D01*
X23664Y259968D01*
X23498Y260259D01*
X23359Y260592D01*
X23304Y260772D01*
X23262Y260952D01*
X23234Y261160D01*
X23221Y261368D01*
Y261382D01*
Y261396D01*
Y261438D01*
Y261493D01*
X23248Y261632D01*
X23276Y261812D01*
X23318Y262020D01*
X23387Y262256D01*
X23484Y262505D01*
X23623Y262741D01*
Y262755D01*
X23637Y262769D01*
X23706Y262852D01*
X23789Y262963D01*
X23928Y263102D01*
X24094Y263254D01*
X24302Y263421D01*
X24538Y263573D01*
X24815Y263712D01*
X24829D01*
X24857Y263726D01*
X24899Y263740D01*
X24954Y263768D01*
X25037Y263795D01*
X25120Y263823D01*
X25231Y263851D01*
X25356Y263892D01*
X25634Y263948D01*
X25953Y264003D01*
X26313Y264045D01*
X26715Y264059D01*
X26882D01*
X27007Y264045D01*
D02*
G37*
G36*
X84935Y261382D02*
X85087Y261354D01*
X85282Y261313D01*
X85490Y261243D01*
X85698Y261160D01*
X85920Y261035D01*
X85337Y259441D01*
X85323Y259454D01*
X85254Y259482D01*
X85171Y259538D01*
X85060Y259593D01*
X84921Y259649D01*
X84782Y259704D01*
X84630Y259732D01*
X84477Y259746D01*
X84422D01*
X84339Y259732D01*
X84255Y259718D01*
X84158Y259690D01*
X84047Y259649D01*
X83936Y259593D01*
X83826Y259524D01*
X83812Y259510D01*
X83784Y259482D01*
X83728Y259427D01*
X83673Y259343D01*
X83604Y259246D01*
X83534Y259108D01*
X83465Y258941D01*
X83409Y258747D01*
Y258719D01*
X83396Y258678D01*
X83382Y258636D01*
Y258567D01*
X83368Y258484D01*
X83354Y258373D01*
X83340Y258248D01*
X83326Y258109D01*
X83312Y257929D01*
X83299Y257749D01*
Y257527D01*
X83285Y257291D01*
X83271Y257027D01*
Y256736D01*
Y256417D01*
Y254282D01*
X81426D01*
Y261243D01*
X83132D01*
Y260259D01*
X83146Y260273D01*
X83201Y260356D01*
X83285Y260481D01*
X83396Y260633D01*
X83506Y260786D01*
X83645Y260938D01*
X83770Y261077D01*
X83909Y261174D01*
X83923Y261188D01*
X83964Y261216D01*
X84047Y261243D01*
X84144Y261285D01*
X84255Y261327D01*
X84394Y261368D01*
X84533Y261382D01*
X84699Y261396D01*
X84810D01*
X84935Y261382D01*
D02*
G37*
G36*
X67045D02*
X67197Y261354D01*
X67391Y261313D01*
X67600Y261243D01*
X67807Y261160D01*
X68029Y261035D01*
X67447Y259441D01*
X67433Y259454D01*
X67364Y259482D01*
X67281Y259538D01*
X67169Y259593D01*
X67031Y259649D01*
X66892Y259704D01*
X66740Y259732D01*
X66587Y259746D01*
X66532D01*
X66448Y259732D01*
X66365Y259718D01*
X66268Y259690D01*
X66157Y259649D01*
X66046Y259593D01*
X65935Y259524D01*
X65921Y259510D01*
X65894Y259482D01*
X65838Y259427D01*
X65783Y259343D01*
X65713Y259246D01*
X65644Y259108D01*
X65575Y258941D01*
X65519Y258747D01*
Y258719D01*
X65505Y258678D01*
X65491Y258636D01*
Y258567D01*
X65478Y258484D01*
X65464Y258373D01*
X65450Y258248D01*
X65436Y258109D01*
X65422Y257929D01*
X65408Y257749D01*
Y257527D01*
X65394Y257291D01*
X65381Y257027D01*
Y256736D01*
Y256417D01*
Y254282D01*
X63536D01*
Y261243D01*
X65242D01*
Y260259D01*
X65256Y260273D01*
X65311Y260356D01*
X65394Y260481D01*
X65505Y260633D01*
X65616Y260786D01*
X65755Y260938D01*
X65880Y261077D01*
X66019Y261174D01*
X66032Y261188D01*
X66074Y261216D01*
X66157Y261243D01*
X66254Y261285D01*
X66365Y261327D01*
X66504Y261368D01*
X66642Y261382D01*
X66809Y261396D01*
X66920D01*
X67045Y261382D01*
D02*
G37*
G36*
X43954D02*
X44106Y261368D01*
X44273Y261341D01*
X44453Y261299D01*
X44647Y261243D01*
X44841Y261174D01*
X44869Y261160D01*
X44925Y261133D01*
X45022Y261091D01*
X45133Y261022D01*
X45258Y260938D01*
X45382Y260841D01*
X45507Y260730D01*
X45618Y260606D01*
X45632Y260592D01*
X45660Y260550D01*
X45701Y260481D01*
X45757Y260384D01*
X45826Y260273D01*
X45882Y260134D01*
X45937Y259995D01*
X45979Y259829D01*
Y259815D01*
X45992Y259746D01*
X46020Y259649D01*
X46034Y259510D01*
X46062Y259343D01*
X46076Y259122D01*
X46090Y258886D01*
Y258595D01*
Y254282D01*
X44245D01*
Y257818D01*
Y257832D01*
Y257873D01*
Y257929D01*
Y257998D01*
Y258095D01*
Y258192D01*
X44231Y258428D01*
X44217Y258664D01*
X44190Y258914D01*
X44162Y259122D01*
X44148Y259205D01*
X44120Y259274D01*
Y259288D01*
X44092Y259330D01*
X44065Y259385D01*
X44023Y259468D01*
X43898Y259635D01*
X43829Y259718D01*
X43732Y259787D01*
X43718Y259801D01*
X43690Y259815D01*
X43635Y259843D01*
X43552Y259884D01*
X43455Y259926D01*
X43358Y259954D01*
X43233Y259968D01*
X43094Y259981D01*
X43011D01*
X42928Y259968D01*
X42817Y259954D01*
X42678Y259912D01*
X42539Y259870D01*
X42387Y259801D01*
X42234Y259718D01*
X42220Y259704D01*
X42179Y259676D01*
X42109Y259607D01*
X42026Y259538D01*
X41943Y259427D01*
X41860Y259316D01*
X41776Y259163D01*
X41721Y259011D01*
Y258997D01*
X41693Y258927D01*
X41679Y258817D01*
X41652Y258650D01*
X41638Y258553D01*
X41624Y258428D01*
X41610Y258303D01*
Y258151D01*
X41596Y257998D01*
X41582Y257818D01*
Y257624D01*
Y257416D01*
Y254282D01*
X39738D01*
Y261243D01*
X41444D01*
Y260217D01*
X41458Y260231D01*
X41485Y260273D01*
X41541Y260328D01*
X41610Y260397D01*
X41693Y260495D01*
X41804Y260592D01*
X41929Y260703D01*
X42068Y260814D01*
X42220Y260911D01*
X42401Y261022D01*
X42581Y261119D01*
X42789Y261216D01*
X43011Y261285D01*
X43233Y261341D01*
X43482Y261382D01*
X43732Y261396D01*
X43829D01*
X43954Y261382D01*
D02*
G37*
G36*
X124640D02*
X124779Y261368D01*
X124931Y261354D01*
X125098Y261341D01*
X125445Y261285D01*
X125791Y261202D01*
X126124Y261077D01*
X126277Y261008D01*
X126415Y260924D01*
X126429D01*
X126443Y260897D01*
X126526Y260841D01*
X126651Y260730D01*
X126790Y260578D01*
X126956Y260397D01*
X127109Y260162D01*
X127261Y259884D01*
X127372Y259565D01*
X125639Y259246D01*
Y259260D01*
X125611Y259316D01*
X125583Y259385D01*
X125542Y259468D01*
X125486Y259579D01*
X125403Y259676D01*
X125320Y259773D01*
X125209Y259857D01*
X125195Y259870D01*
X125153Y259898D01*
X125084Y259926D01*
X124987Y259968D01*
X124862Y260009D01*
X124710Y260051D01*
X124529Y260065D01*
X124321Y260079D01*
X124196D01*
X124072Y260065D01*
X123919Y260051D01*
X123739Y260023D01*
X123572Y259995D01*
X123420Y259940D01*
X123281Y259870D01*
X123267D01*
X123253Y259843D01*
X123184Y259773D01*
X123101Y259649D01*
X123087Y259579D01*
X123073Y259496D01*
Y259482D01*
Y259468D01*
X123101Y259385D01*
X123156Y259274D01*
X123198Y259219D01*
X123253Y259163D01*
X123267Y259149D01*
X123323Y259135D01*
X123350Y259108D01*
X123406Y259094D01*
X123475Y259066D01*
X123559Y259025D01*
X123669Y258997D01*
X123780Y258955D01*
X123919Y258914D01*
X124086Y258872D01*
X124266Y258817D01*
X124474Y258761D01*
X124710Y258706D01*
X124973Y258636D01*
X124987D01*
X125042Y258622D01*
X125112Y258608D01*
X125209Y258581D01*
X125334Y258539D01*
X125472Y258511D01*
X125777Y258414D01*
X126124Y258290D01*
X126457Y258151D01*
X126623Y258068D01*
X126776Y257998D01*
X126901Y257901D01*
X127026Y257818D01*
X127053Y257790D01*
X127123Y257735D01*
X127206Y257624D01*
X127317Y257471D01*
X127428Y257277D01*
X127511Y257041D01*
X127580Y256764D01*
X127608Y256459D01*
Y256445D01*
Y256417D01*
Y256362D01*
X127594Y256292D01*
X127580Y256223D01*
X127566Y256126D01*
X127511Y255890D01*
X127414Y255641D01*
X127345Y255502D01*
X127275Y255363D01*
X127178Y255225D01*
X127067Y255086D01*
X126942Y254947D01*
X126804Y254809D01*
X126790Y254795D01*
X126762Y254781D01*
X126720Y254753D01*
X126651Y254698D01*
X126568Y254656D01*
X126471Y254601D01*
X126346Y254531D01*
X126207Y254476D01*
X126055Y254406D01*
X125875Y254351D01*
X125680Y254282D01*
X125472Y254240D01*
X125237Y254198D01*
X124987Y254157D01*
X124723Y254143D01*
X124446Y254129D01*
X124307D01*
X124210Y254143D01*
X124086D01*
X123947Y254157D01*
X123794Y254171D01*
X123628Y254198D01*
X123267Y254268D01*
X122893Y254365D01*
X122518Y254503D01*
X122352Y254601D01*
X122185Y254698D01*
X122172Y254711D01*
X122144Y254725D01*
X122102Y254753D01*
X122061Y254809D01*
X121908Y254933D01*
X121742Y255114D01*
X121561Y255336D01*
X121395Y255599D01*
X121242Y255918D01*
X121118Y256265D01*
X122962Y256542D01*
Y256514D01*
X122990Y256459D01*
X123018Y256362D01*
X123059Y256237D01*
X123128Y256098D01*
X123212Y255973D01*
X123309Y255835D01*
X123434Y255724D01*
X123448Y255710D01*
X123503Y255682D01*
X123586Y255641D01*
X123697Y255599D01*
X123836Y255544D01*
X124016Y255502D01*
X124210Y255474D01*
X124446Y255460D01*
X124557D01*
X124696Y255474D01*
X124848Y255488D01*
X125015Y255516D01*
X125195Y255571D01*
X125361Y255627D01*
X125514Y255710D01*
X125528Y255724D01*
X125555Y255752D01*
X125597Y255793D01*
X125639Y255849D01*
X125680Y255918D01*
X125722Y256001D01*
X125750Y256098D01*
X125764Y256209D01*
Y256223D01*
Y256251D01*
X125750Y256334D01*
X125708Y256445D01*
X125625Y256556D01*
X125597Y256584D01*
X125555Y256598D01*
X125500Y256639D01*
X125417Y256667D01*
X125306Y256709D01*
X125181Y256750D01*
X125015Y256792D01*
X124987D01*
X124918Y256819D01*
X124807Y256847D01*
X124654Y256875D01*
X124474Y256917D01*
X124280Y256972D01*
X124058Y257027D01*
X123822Y257097D01*
X123337Y257236D01*
X123101Y257305D01*
X122879Y257388D01*
X122671Y257457D01*
X122477Y257541D01*
X122310Y257624D01*
X122185Y257693D01*
X122172Y257707D01*
X122144Y257721D01*
X122116Y257749D01*
X122061Y257804D01*
X121922Y257929D01*
X121783Y258109D01*
X121631Y258331D01*
X121492Y258595D01*
X121437Y258747D01*
X121409Y258914D01*
X121381Y259080D01*
X121367Y259260D01*
Y259274D01*
Y259302D01*
Y259343D01*
X121381Y259413D01*
X121395Y259482D01*
X121409Y259579D01*
X121451Y259787D01*
X121534Y260023D01*
X121672Y260273D01*
X121742Y260411D01*
X121839Y260536D01*
X121950Y260661D01*
X122074Y260772D01*
X122088Y260786D01*
X122102Y260800D01*
X122144Y260827D01*
X122213Y260869D01*
X122283Y260911D01*
X122380Y260966D01*
X122491Y261022D01*
X122615Y261091D01*
X122768Y261146D01*
X122934Y261202D01*
X123115Y261257D01*
X123309Y261299D01*
X123531Y261341D01*
X123766Y261368D01*
X124016Y261396D01*
X124529D01*
X124640Y261382D01*
D02*
G37*
G36*
X109718D02*
X109857Y261368D01*
X110009Y261354D01*
X110175Y261341D01*
X110522Y261285D01*
X110869Y261202D01*
X111202Y261077D01*
X111354Y261008D01*
X111493Y260924D01*
X111507D01*
X111521Y260897D01*
X111604Y260841D01*
X111729Y260730D01*
X111867Y260578D01*
X112034Y260397D01*
X112186Y260162D01*
X112339Y259884D01*
X112450Y259565D01*
X110716Y259246D01*
Y259260D01*
X110689Y259316D01*
X110661Y259385D01*
X110619Y259468D01*
X110564Y259579D01*
X110481Y259676D01*
X110397Y259773D01*
X110286Y259857D01*
X110273Y259870D01*
X110231Y259898D01*
X110162Y259926D01*
X110064Y259968D01*
X109940Y260009D01*
X109787Y260051D01*
X109607Y260065D01*
X109399Y260079D01*
X109274D01*
X109149Y260065D01*
X108997Y260051D01*
X108816Y260023D01*
X108650Y259995D01*
X108497Y259940D01*
X108359Y259870D01*
X108345D01*
X108331Y259843D01*
X108262Y259773D01*
X108178Y259649D01*
X108165Y259579D01*
X108151Y259496D01*
Y259482D01*
Y259468D01*
X108178Y259385D01*
X108234Y259274D01*
X108275Y259219D01*
X108331Y259163D01*
X108345Y259149D01*
X108400Y259135D01*
X108428Y259108D01*
X108483Y259094D01*
X108553Y259066D01*
X108636Y259025D01*
X108747Y258997D01*
X108858Y258955D01*
X108997Y258914D01*
X109163Y258872D01*
X109343Y258817D01*
X109551Y258761D01*
X109787Y258706D01*
X110051Y258636D01*
X110064D01*
X110120Y258622D01*
X110189Y258608D01*
X110286Y258581D01*
X110411Y258539D01*
X110550Y258511D01*
X110855Y258414D01*
X111202Y258290D01*
X111535Y258151D01*
X111701Y258068D01*
X111854Y257998D01*
X111978Y257901D01*
X112103Y257818D01*
X112131Y257790D01*
X112200Y257735D01*
X112283Y257624D01*
X112394Y257471D01*
X112505Y257277D01*
X112589Y257041D01*
X112658Y256764D01*
X112686Y256459D01*
Y256445D01*
Y256417D01*
Y256362D01*
X112672Y256292D01*
X112658Y256223D01*
X112644Y256126D01*
X112589Y255890D01*
X112492Y255641D01*
X112422Y255502D01*
X112353Y255363D01*
X112256Y255225D01*
X112145Y255086D01*
X112020Y254947D01*
X111881Y254809D01*
X111867Y254795D01*
X111840Y254781D01*
X111798Y254753D01*
X111729Y254698D01*
X111645Y254656D01*
X111548Y254601D01*
X111424Y254531D01*
X111285Y254476D01*
X111132Y254406D01*
X110952Y254351D01*
X110758Y254282D01*
X110550Y254240D01*
X110314Y254198D01*
X110064Y254157D01*
X109801Y254143D01*
X109524Y254129D01*
X109385D01*
X109288Y254143D01*
X109163D01*
X109024Y254157D01*
X108872Y254171D01*
X108705Y254198D01*
X108345Y254268D01*
X107970Y254365D01*
X107596Y254503D01*
X107430Y254601D01*
X107263Y254698D01*
X107249Y254711D01*
X107221Y254725D01*
X107180Y254753D01*
X107138Y254809D01*
X106986Y254933D01*
X106819Y255114D01*
X106639Y255336D01*
X106473Y255599D01*
X106320Y255918D01*
X106195Y256265D01*
X108040Y256542D01*
Y256514D01*
X108067Y256459D01*
X108095Y256362D01*
X108137Y256237D01*
X108206Y256098D01*
X108289Y255973D01*
X108386Y255835D01*
X108511Y255724D01*
X108525Y255710D01*
X108581Y255682D01*
X108664Y255641D01*
X108775Y255599D01*
X108913Y255544D01*
X109094Y255502D01*
X109288Y255474D01*
X109524Y255460D01*
X109635D01*
X109773Y255474D01*
X109926Y255488D01*
X110092Y255516D01*
X110273Y255571D01*
X110439Y255627D01*
X110591Y255710D01*
X110605Y255724D01*
X110633Y255752D01*
X110675Y255793D01*
X110716Y255849D01*
X110758Y255918D01*
X110800Y256001D01*
X110827Y256098D01*
X110841Y256209D01*
Y256223D01*
Y256251D01*
X110827Y256334D01*
X110786Y256445D01*
X110702Y256556D01*
X110675Y256584D01*
X110633Y256598D01*
X110578Y256639D01*
X110494Y256667D01*
X110384Y256709D01*
X110259Y256750D01*
X110092Y256792D01*
X110064D01*
X109995Y256819D01*
X109884Y256847D01*
X109732Y256875D01*
X109551Y256917D01*
X109357Y256972D01*
X109135Y257027D01*
X108900Y257097D01*
X108414Y257236D01*
X108178Y257305D01*
X107956Y257388D01*
X107748Y257457D01*
X107554Y257541D01*
X107388Y257624D01*
X107263Y257693D01*
X107249Y257707D01*
X107221Y257721D01*
X107194Y257749D01*
X107138Y257804D01*
X107000Y257929D01*
X106861Y258109D01*
X106708Y258331D01*
X106570Y258595D01*
X106514Y258747D01*
X106487Y258914D01*
X106459Y259080D01*
X106445Y259260D01*
Y259274D01*
Y259302D01*
Y259343D01*
X106459Y259413D01*
X106473Y259482D01*
X106487Y259579D01*
X106528Y259787D01*
X106611Y260023D01*
X106750Y260273D01*
X106819Y260411D01*
X106916Y260536D01*
X107027Y260661D01*
X107152Y260772D01*
X107166Y260786D01*
X107180Y260800D01*
X107221Y260827D01*
X107291Y260869D01*
X107360Y260911D01*
X107457Y260966D01*
X107568Y261022D01*
X107693Y261091D01*
X107846Y261146D01*
X108012Y261202D01*
X108192Y261257D01*
X108386Y261299D01*
X108608Y261341D01*
X108844Y261368D01*
X109094Y261396D01*
X109607D01*
X109718Y261382D01*
D02*
G37*
G36*
X50833D02*
X50971Y261368D01*
X51124Y261354D01*
X51290Y261341D01*
X51637Y261285D01*
X51984Y261202D01*
X52316Y261077D01*
X52469Y261008D01*
X52608Y260924D01*
X52622D01*
X52635Y260897D01*
X52719Y260841D01*
X52843Y260730D01*
X52982Y260578D01*
X53149Y260397D01*
X53301Y260162D01*
X53454Y259884D01*
X53565Y259565D01*
X51831Y259246D01*
Y259260D01*
X51803Y259316D01*
X51776Y259385D01*
X51734Y259468D01*
X51679Y259579D01*
X51595Y259676D01*
X51512Y259773D01*
X51401Y259857D01*
X51387Y259870D01*
X51346Y259898D01*
X51276Y259926D01*
X51179Y259968D01*
X51055Y260009D01*
X50902Y260051D01*
X50722Y260065D01*
X50514Y260079D01*
X50389D01*
X50264Y260065D01*
X50111Y260051D01*
X49931Y260023D01*
X49765Y259995D01*
X49612Y259940D01*
X49474Y259870D01*
X49460D01*
X49446Y259843D01*
X49376Y259773D01*
X49293Y259649D01*
X49279Y259579D01*
X49265Y259496D01*
Y259482D01*
Y259468D01*
X49293Y259385D01*
X49349Y259274D01*
X49390Y259219D01*
X49446Y259163D01*
X49460Y259149D01*
X49515Y259135D01*
X49543Y259108D01*
X49598Y259094D01*
X49668Y259066D01*
X49751Y259025D01*
X49862Y258997D01*
X49973Y258955D01*
X50111Y258914D01*
X50278Y258872D01*
X50458Y258817D01*
X50666Y258761D01*
X50902Y258706D01*
X51165Y258636D01*
X51179D01*
X51235Y258622D01*
X51304Y258608D01*
X51401Y258581D01*
X51526Y258539D01*
X51665Y258511D01*
X51970Y258414D01*
X52316Y258290D01*
X52649Y258151D01*
X52816Y258068D01*
X52968Y257998D01*
X53093Y257901D01*
X53218Y257818D01*
X53246Y257790D01*
X53315Y257735D01*
X53398Y257624D01*
X53509Y257471D01*
X53620Y257277D01*
X53703Y257041D01*
X53773Y256764D01*
X53800Y256459D01*
Y256445D01*
Y256417D01*
Y256362D01*
X53787Y256292D01*
X53773Y256223D01*
X53759Y256126D01*
X53703Y255890D01*
X53606Y255641D01*
X53537Y255502D01*
X53468Y255363D01*
X53370Y255225D01*
X53260Y255086D01*
X53135Y254947D01*
X52996Y254809D01*
X52982Y254795D01*
X52954Y254781D01*
X52913Y254753D01*
X52843Y254698D01*
X52760Y254656D01*
X52663Y254601D01*
X52538Y254531D01*
X52400Y254476D01*
X52247Y254406D01*
X52067Y254351D01*
X51873Y254282D01*
X51665Y254240D01*
X51429Y254198D01*
X51179Y254157D01*
X50916Y254143D01*
X50638Y254129D01*
X50500D01*
X50403Y254143D01*
X50278D01*
X50139Y254157D01*
X49987Y254171D01*
X49820Y254198D01*
X49460Y254268D01*
X49085Y254365D01*
X48711Y254503D01*
X48544Y254601D01*
X48378Y254698D01*
X48364Y254711D01*
X48336Y254725D01*
X48295Y254753D01*
X48253Y254809D01*
X48101Y254933D01*
X47934Y255114D01*
X47754Y255336D01*
X47587Y255599D01*
X47435Y255918D01*
X47310Y256265D01*
X49155Y256542D01*
Y256514D01*
X49182Y256459D01*
X49210Y256362D01*
X49252Y256237D01*
X49321Y256098D01*
X49404Y255973D01*
X49501Y255835D01*
X49626Y255724D01*
X49640Y255710D01*
X49695Y255682D01*
X49779Y255641D01*
X49889Y255599D01*
X50028Y255544D01*
X50209Y255502D01*
X50403Y255474D01*
X50638Y255460D01*
X50749D01*
X50888Y255474D01*
X51041Y255488D01*
X51207Y255516D01*
X51387Y255571D01*
X51554Y255627D01*
X51706Y255710D01*
X51720Y255724D01*
X51748Y255752D01*
X51789Y255793D01*
X51831Y255849D01*
X51873Y255918D01*
X51914Y256001D01*
X51942Y256098D01*
X51956Y256209D01*
Y256223D01*
Y256251D01*
X51942Y256334D01*
X51900Y256445D01*
X51817Y256556D01*
X51789Y256584D01*
X51748Y256598D01*
X51692Y256639D01*
X51609Y256667D01*
X51498Y256709D01*
X51373Y256750D01*
X51207Y256792D01*
X51179D01*
X51110Y256819D01*
X50999Y256847D01*
X50846Y256875D01*
X50666Y256917D01*
X50472Y256972D01*
X50250Y257027D01*
X50014Y257097D01*
X49529Y257236D01*
X49293Y257305D01*
X49071Y257388D01*
X48863Y257457D01*
X48669Y257541D01*
X48503Y257624D01*
X48378Y257693D01*
X48364Y257707D01*
X48336Y257721D01*
X48309Y257749D01*
X48253Y257804D01*
X48114Y257929D01*
X47976Y258109D01*
X47823Y258331D01*
X47684Y258595D01*
X47629Y258747D01*
X47601Y258914D01*
X47573Y259080D01*
X47560Y259260D01*
Y259274D01*
Y259302D01*
Y259343D01*
X47573Y259413D01*
X47587Y259482D01*
X47601Y259579D01*
X47643Y259787D01*
X47726Y260023D01*
X47865Y260273D01*
X47934Y260411D01*
X48031Y260536D01*
X48142Y260661D01*
X48267Y260772D01*
X48281Y260786D01*
X48295Y260800D01*
X48336Y260827D01*
X48406Y260869D01*
X48475Y260911D01*
X48572Y260966D01*
X48683Y261022D01*
X48808Y261091D01*
X48960Y261146D01*
X49127Y261202D01*
X49307Y261257D01*
X49501Y261299D01*
X49723Y261341D01*
X49959Y261368D01*
X50209Y261396D01*
X50722D01*
X50833Y261382D01*
D02*
G37*
G36*
X76267Y263865D02*
X76628D01*
X77016Y263837D01*
X77404Y263809D01*
X77571Y263795D01*
X77737Y263781D01*
X77876Y263754D01*
X77987Y263726D01*
X78001D01*
X78028Y263712D01*
X78070Y263698D01*
X78126Y263684D01*
X78278Y263615D01*
X78472Y263532D01*
X78680Y263407D01*
X78916Y263241D01*
X79138Y263032D01*
X79360Y262783D01*
Y262769D01*
X79388Y262755D01*
X79415Y262714D01*
X79443Y262658D01*
X79499Y262575D01*
X79540Y262492D01*
X79596Y262395D01*
X79651Y262284D01*
X79748Y262006D01*
X79845Y261701D01*
X79901Y261327D01*
X79928Y260924D01*
Y260911D01*
Y260883D01*
Y260841D01*
Y260772D01*
X79915Y260703D01*
Y260606D01*
X79887Y260411D01*
X79845Y260176D01*
X79790Y259912D01*
X79707Y259662D01*
X79596Y259427D01*
X79582Y259399D01*
X79540Y259330D01*
X79471Y259219D01*
X79374Y259080D01*
X79263Y258941D01*
X79110Y258775D01*
X78958Y258622D01*
X78777Y258484D01*
X78750Y258470D01*
X78694Y258428D01*
X78597Y258373D01*
X78472Y258303D01*
X78320Y258220D01*
X78153Y258151D01*
X77973Y258081D01*
X77779Y258026D01*
X77751D01*
X77709Y258012D01*
X77654D01*
X77585Y257998D01*
X77488Y257984D01*
X77390Y257971D01*
X77266D01*
X77141Y257957D01*
X76988Y257943D01*
X76822Y257929D01*
X76642Y257915D01*
X76448D01*
X76240Y257901D01*
X74520D01*
Y254282D01*
X72578D01*
Y263878D01*
X76115D01*
X76267Y263865D01*
D02*
G37*
G36*
X117207Y261382D02*
X117331Y261368D01*
X117484Y261341D01*
X117650Y261313D01*
X117831Y261271D01*
X118025Y261216D01*
X118219Y261146D01*
X118427Y261063D01*
X118635Y260952D01*
X118829Y260841D01*
X119024Y260703D01*
X119218Y260536D01*
X119384Y260356D01*
X119398Y260342D01*
X119426Y260314D01*
X119467Y260245D01*
X119523Y260162D01*
X119592Y260051D01*
X119661Y259926D01*
X119745Y259760D01*
X119828Y259579D01*
X119911Y259371D01*
X119994Y259135D01*
X120064Y258886D01*
X120133Y258595D01*
X120188Y258290D01*
X120230Y257957D01*
X120258Y257610D01*
Y257222D01*
X115653D01*
Y257208D01*
Y257180D01*
Y257138D01*
X115667Y257083D01*
X115681Y256944D01*
X115709Y256750D01*
X115764Y256556D01*
X115848Y256334D01*
X115945Y256126D01*
X116083Y255946D01*
X116097Y255932D01*
X116167Y255876D01*
X116250Y255807D01*
X116375Y255724D01*
X116527Y255641D01*
X116721Y255571D01*
X116929Y255516D01*
X117151Y255502D01*
X117221D01*
X117304Y255516D01*
X117401Y255530D01*
X117512Y255557D01*
X117637Y255599D01*
X117761Y255655D01*
X117872Y255738D01*
X117886Y255752D01*
X117928Y255779D01*
X117983Y255835D01*
X118039Y255918D01*
X118122Y256029D01*
X118191Y256154D01*
X118261Y256320D01*
X118330Y256500D01*
X120161Y256195D01*
Y256182D01*
X120147Y256154D01*
X120119Y256098D01*
X120091Y256029D01*
X120050Y255946D01*
X120008Y255849D01*
X119883Y255627D01*
X119731Y255377D01*
X119537Y255114D01*
X119301Y254878D01*
X119037Y254656D01*
X119024D01*
X119010Y254628D01*
X118954Y254614D01*
X118899Y254573D01*
X118829Y254531D01*
X118732Y254490D01*
X118635Y254448D01*
X118510Y254393D01*
X118233Y254295D01*
X117914Y254212D01*
X117540Y254157D01*
X117137Y254129D01*
X117054D01*
X116971Y254143D01*
X116846D01*
X116694Y254171D01*
X116513Y254198D01*
X116319Y254226D01*
X116125Y254282D01*
X115903Y254337D01*
X115681Y254420D01*
X115459Y254517D01*
X115237Y254628D01*
X115015Y254767D01*
X114808Y254919D01*
X114627Y255100D01*
X114447Y255308D01*
X114433Y255322D01*
X114419Y255349D01*
X114391Y255405D01*
X114336Y255474D01*
X114294Y255571D01*
X114239Y255682D01*
X114170Y255807D01*
X114114Y255960D01*
X114045Y256126D01*
X113989Y256306D01*
X113920Y256500D01*
X113878Y256722D01*
X113837Y256944D01*
X113795Y257180D01*
X113781Y257444D01*
X113767Y257707D01*
Y257721D01*
Y257776D01*
Y257873D01*
X113781Y257998D01*
X113795Y258137D01*
X113809Y258303D01*
X113837Y258484D01*
X113878Y258692D01*
X113989Y259122D01*
X114059Y259343D01*
X114142Y259579D01*
X114253Y259801D01*
X114378Y260009D01*
X114516Y260217D01*
X114669Y260411D01*
X114683Y260425D01*
X114710Y260453D01*
X114766Y260508D01*
X114835Y260564D01*
X114918Y260633D01*
X115029Y260716D01*
X115154Y260814D01*
X115293Y260911D01*
X115445Y260994D01*
X115626Y261091D01*
X115806Y261174D01*
X116014Y261243D01*
X116222Y261299D01*
X116458Y261354D01*
X116694Y261382D01*
X116943Y261396D01*
X117096D01*
X117207Y261382D01*
D02*
G37*
G36*
X102284D02*
X102409Y261368D01*
X102562Y261341D01*
X102728Y261313D01*
X102908Y261271D01*
X103103Y261216D01*
X103297Y261146D01*
X103505Y261063D01*
X103713Y260952D01*
X103907Y260841D01*
X104101Y260703D01*
X104295Y260536D01*
X104462Y260356D01*
X104475Y260342D01*
X104503Y260314D01*
X104545Y260245D01*
X104600Y260162D01*
X104670Y260051D01*
X104739Y259926D01*
X104822Y259760D01*
X104906Y259579D01*
X104989Y259371D01*
X105072Y259135D01*
X105141Y258886D01*
X105211Y258595D01*
X105266Y258290D01*
X105308Y257957D01*
X105335Y257610D01*
Y257222D01*
X100731D01*
Y257208D01*
Y257180D01*
Y257138D01*
X100745Y257083D01*
X100759Y256944D01*
X100787Y256750D01*
X100842Y256556D01*
X100925Y256334D01*
X101022Y256126D01*
X101161Y255946D01*
X101175Y255932D01*
X101244Y255876D01*
X101327Y255807D01*
X101452Y255724D01*
X101605Y255641D01*
X101799Y255571D01*
X102007Y255516D01*
X102229Y255502D01*
X102298D01*
X102381Y255516D01*
X102479Y255530D01*
X102589Y255557D01*
X102714Y255599D01*
X102839Y255655D01*
X102950Y255738D01*
X102964Y255752D01*
X103006Y255779D01*
X103061Y255835D01*
X103116Y255918D01*
X103200Y256029D01*
X103269Y256154D01*
X103338Y256320D01*
X103408Y256500D01*
X105238Y256195D01*
Y256182D01*
X105224Y256154D01*
X105197Y256098D01*
X105169Y256029D01*
X105127Y255946D01*
X105086Y255849D01*
X104961Y255627D01*
X104808Y255377D01*
X104614Y255114D01*
X104378Y254878D01*
X104115Y254656D01*
X104101D01*
X104087Y254628D01*
X104032Y254614D01*
X103976Y254573D01*
X103907Y254531D01*
X103810Y254490D01*
X103713Y254448D01*
X103588Y254393D01*
X103311Y254295D01*
X102992Y254212D01*
X102617Y254157D01*
X102215Y254129D01*
X102132D01*
X102049Y254143D01*
X101924D01*
X101771Y254171D01*
X101591Y254198D01*
X101397Y254226D01*
X101203Y254282D01*
X100981Y254337D01*
X100759Y254420D01*
X100537Y254517D01*
X100315Y254628D01*
X100093Y254767D01*
X99885Y254919D01*
X99705Y255100D01*
X99524Y255308D01*
X99511Y255322D01*
X99497Y255349D01*
X99469Y255405D01*
X99414Y255474D01*
X99372Y255571D01*
X99317Y255682D01*
X99247Y255807D01*
X99192Y255960D01*
X99122Y256126D01*
X99067Y256306D01*
X98997Y256500D01*
X98956Y256722D01*
X98914Y256944D01*
X98873Y257180D01*
X98859Y257444D01*
X98845Y257707D01*
Y257721D01*
Y257776D01*
Y257873D01*
X98859Y257998D01*
X98873Y258137D01*
X98887Y258303D01*
X98914Y258484D01*
X98956Y258692D01*
X99067Y259122D01*
X99136Y259343D01*
X99219Y259579D01*
X99330Y259801D01*
X99455Y260009D01*
X99594Y260217D01*
X99746Y260411D01*
X99760Y260425D01*
X99788Y260453D01*
X99844Y260508D01*
X99913Y260564D01*
X99996Y260633D01*
X100107Y260716D01*
X100232Y260814D01*
X100371Y260911D01*
X100523Y260994D01*
X100703Y261091D01*
X100884Y261174D01*
X101092Y261243D01*
X101300Y261299D01*
X101535Y261354D01*
X101771Y261382D01*
X102021Y261396D01*
X102173D01*
X102284Y261382D01*
D02*
G37*
G36*
X96848Y261243D02*
X98110D01*
Y259773D01*
X96848D01*
Y256958D01*
Y256944D01*
Y256917D01*
Y256875D01*
Y256819D01*
Y256681D01*
Y256514D01*
X96862Y256348D01*
Y256182D01*
Y256057D01*
X96876Y256001D01*
Y255973D01*
X96889Y255946D01*
X96917Y255890D01*
X96959Y255821D01*
X97042Y255738D01*
X97070Y255724D01*
X97125Y255696D01*
X97222Y255668D01*
X97347Y255655D01*
X97403D01*
X97458Y255668D01*
X97541Y255682D01*
X97652Y255696D01*
X97777Y255724D01*
X97930Y255765D01*
X98096Y255821D01*
X98263Y254393D01*
X98249D01*
X98235Y254379D01*
X98152Y254351D01*
X98013Y254309D01*
X97833Y254268D01*
X97625Y254212D01*
X97375Y254171D01*
X97098Y254143D01*
X96806Y254129D01*
X96723D01*
X96626Y254143D01*
X96501Y254157D01*
X96362Y254171D01*
X96210Y254198D01*
X96057Y254240D01*
X95905Y254295D01*
X95891Y254309D01*
X95836Y254323D01*
X95766Y254365D01*
X95683Y254406D01*
X95489Y254545D01*
X95392Y254628D01*
X95309Y254725D01*
X95295Y254739D01*
X95281Y254781D01*
X95253Y254836D01*
X95211Y254919D01*
X95170Y255017D01*
X95128Y255141D01*
X95087Y255280D01*
X95059Y255433D01*
Y255446D01*
X95045Y255502D01*
Y255585D01*
X95031Y255724D01*
X95017Y255904D01*
Y256126D01*
X95003Y256251D01*
Y256403D01*
Y256556D01*
Y256736D01*
Y259773D01*
X94157D01*
Y261243D01*
X95003D01*
Y262630D01*
X96848Y263712D01*
Y261243D01*
D02*
G37*
G36*
X90136Y261382D02*
X90274Y261368D01*
X90427Y261341D01*
X90607Y261313D01*
X90787Y261271D01*
X90995Y261216D01*
X91203Y261146D01*
X91412Y261063D01*
X91633Y260966D01*
X91855Y260841D01*
X92063Y260703D01*
X92271Y260550D01*
X92465Y260370D01*
X92479Y260356D01*
X92507Y260328D01*
X92563Y260259D01*
X92618Y260189D01*
X92701Y260079D01*
X92785Y259968D01*
X92882Y259815D01*
X92979Y259662D01*
X93062Y259482D01*
X93159Y259288D01*
X93242Y259066D01*
X93325Y258844D01*
X93381Y258595D01*
X93436Y258345D01*
X93464Y258068D01*
X93478Y257776D01*
Y257763D01*
Y257707D01*
Y257624D01*
X93464Y257513D01*
X93450Y257374D01*
X93422Y257222D01*
X93395Y257041D01*
X93353Y256861D01*
X93298Y256653D01*
X93228Y256445D01*
X93145Y256223D01*
X93048Y256001D01*
X92923Y255779D01*
X92785Y255571D01*
X92632Y255363D01*
X92452Y255155D01*
X92438Y255141D01*
X92410Y255114D01*
X92355Y255058D01*
X92271Y254989D01*
X92174Y254919D01*
X92049Y254836D01*
X91911Y254739D01*
X91758Y254642D01*
X91578Y254545D01*
X91384Y254448D01*
X91176Y254365D01*
X90940Y254295D01*
X90704Y254226D01*
X90441Y254171D01*
X90177Y254143D01*
X89886Y254129D01*
X89789D01*
X89720Y254143D01*
X89636D01*
X89539Y254157D01*
X89304Y254184D01*
X89012Y254240D01*
X88707Y254309D01*
X88388Y254420D01*
X88055Y254559D01*
X88041D01*
X88014Y254573D01*
X87972Y254601D01*
X87917Y254642D01*
X87764Y254739D01*
X87570Y254878D01*
X87362Y255058D01*
X87140Y255280D01*
X86932Y255530D01*
X86738Y255821D01*
Y255835D01*
X86724Y255863D01*
X86696Y255904D01*
X86669Y255973D01*
X86641Y256057D01*
X86599Y256154D01*
X86558Y256265D01*
X86516Y256390D01*
X86474Y256528D01*
X86433Y256681D01*
X86363Y257027D01*
X86308Y257430D01*
X86294Y257860D01*
Y257873D01*
Y257901D01*
Y257957D01*
X86308Y258012D01*
Y258095D01*
X86322Y258192D01*
X86349Y258428D01*
X86405Y258692D01*
X86488Y258983D01*
X86585Y259302D01*
X86738Y259621D01*
Y259635D01*
X86766Y259662D01*
X86779Y259704D01*
X86821Y259760D01*
X86932Y259912D01*
X87071Y260106D01*
X87251Y260314D01*
X87473Y260536D01*
X87723Y260744D01*
X88014Y260938D01*
X88028D01*
X88055Y260952D01*
X88097Y260980D01*
X88166Y261008D01*
X88236Y261049D01*
X88333Y261077D01*
X88444Y261119D01*
X88555Y261174D01*
X88832Y261257D01*
X89151Y261327D01*
X89498Y261382D01*
X89872Y261396D01*
X90025D01*
X90136Y261382D01*
D02*
G37*
G36*
X58835D02*
X58973Y261368D01*
X59126Y261341D01*
X59306Y261313D01*
X59486Y261271D01*
X59694Y261216D01*
X59903Y261146D01*
X60111Y261063D01*
X60332Y260966D01*
X60554Y260841D01*
X60762Y260703D01*
X60970Y260550D01*
X61164Y260370D01*
X61178Y260356D01*
X61206Y260328D01*
X61262Y260259D01*
X61317Y260189D01*
X61400Y260079D01*
X61483Y259968D01*
X61581Y259815D01*
X61678Y259662D01*
X61761Y259482D01*
X61858Y259288D01*
X61941Y259066D01*
X62024Y258844D01*
X62080Y258595D01*
X62135Y258345D01*
X62163Y258068D01*
X62177Y257776D01*
Y257763D01*
Y257707D01*
Y257624D01*
X62163Y257513D01*
X62149Y257374D01*
X62121Y257222D01*
X62094Y257041D01*
X62052Y256861D01*
X61997Y256653D01*
X61927Y256445D01*
X61844Y256223D01*
X61747Y256001D01*
X61622Y255779D01*
X61483Y255571D01*
X61331Y255363D01*
X61151Y255155D01*
X61137Y255141D01*
X61109Y255114D01*
X61054Y255058D01*
X60970Y254989D01*
X60873Y254919D01*
X60749Y254836D01*
X60610Y254739D01*
X60457Y254642D01*
X60277Y254545D01*
X60083Y254448D01*
X59875Y254365D01*
X59639Y254295D01*
X59403Y254226D01*
X59140Y254171D01*
X58876Y254143D01*
X58585Y254129D01*
X58488D01*
X58419Y254143D01*
X58335D01*
X58238Y254157D01*
X58003Y254184D01*
X57711Y254240D01*
X57406Y254309D01*
X57087Y254420D01*
X56754Y254559D01*
X56740D01*
X56713Y254573D01*
X56671Y254601D01*
X56616Y254642D01*
X56463Y254739D01*
X56269Y254878D01*
X56061Y255058D01*
X55839Y255280D01*
X55631Y255530D01*
X55437Y255821D01*
Y255835D01*
X55423Y255863D01*
X55395Y255904D01*
X55367Y255973D01*
X55340Y256057D01*
X55298Y256154D01*
X55257Y256265D01*
X55215Y256390D01*
X55173Y256528D01*
X55132Y256681D01*
X55062Y257027D01*
X55007Y257430D01*
X54993Y257860D01*
Y257873D01*
Y257901D01*
Y257957D01*
X55007Y258012D01*
Y258095D01*
X55021Y258192D01*
X55049Y258428D01*
X55104Y258692D01*
X55187Y258983D01*
X55284Y259302D01*
X55437Y259621D01*
Y259635D01*
X55465Y259662D01*
X55479Y259704D01*
X55520Y259760D01*
X55631Y259912D01*
X55770Y260106D01*
X55950Y260314D01*
X56172Y260536D01*
X56421Y260744D01*
X56713Y260938D01*
X56727D01*
X56754Y260952D01*
X56796Y260980D01*
X56865Y261008D01*
X56935Y261049D01*
X57032Y261077D01*
X57143Y261119D01*
X57254Y261174D01*
X57531Y261257D01*
X57850Y261327D01*
X58197Y261382D01*
X58571Y261396D01*
X58724D01*
X58835Y261382D01*
D02*
G37*
G36*
X35203D02*
X35328Y261368D01*
X35480Y261341D01*
X35647Y261313D01*
X35827Y261271D01*
X36021Y261216D01*
X36215Y261146D01*
X36423Y261063D01*
X36631Y260952D01*
X36825Y260841D01*
X37020Y260703D01*
X37214Y260536D01*
X37380Y260356D01*
X37394Y260342D01*
X37422Y260314D01*
X37463Y260245D01*
X37519Y260162D01*
X37588Y260051D01*
X37658Y259926D01*
X37741Y259760D01*
X37824Y259579D01*
X37907Y259371D01*
X37990Y259135D01*
X38060Y258886D01*
X38129Y258595D01*
X38185Y258290D01*
X38226Y257957D01*
X38254Y257610D01*
Y257222D01*
X33650D01*
Y257208D01*
Y257180D01*
Y257138D01*
X33663Y257083D01*
X33677Y256944D01*
X33705Y256750D01*
X33761Y256556D01*
X33844Y256334D01*
X33941Y256126D01*
X34079Y255946D01*
X34093Y255932D01*
X34163Y255876D01*
X34246Y255807D01*
X34371Y255724D01*
X34523Y255641D01*
X34718Y255571D01*
X34925Y255516D01*
X35147Y255502D01*
X35217D01*
X35300Y255516D01*
X35397Y255530D01*
X35508Y255557D01*
X35633Y255599D01*
X35758Y255655D01*
X35869Y255738D01*
X35882Y255752D01*
X35924Y255779D01*
X35979Y255835D01*
X36035Y255918D01*
X36118Y256029D01*
X36188Y256154D01*
X36257Y256320D01*
X36326Y256500D01*
X38157Y256195D01*
Y256182D01*
X38143Y256154D01*
X38115Y256098D01*
X38087Y256029D01*
X38046Y255946D01*
X38004Y255849D01*
X37880Y255627D01*
X37727Y255377D01*
X37533Y255114D01*
X37297Y254878D01*
X37034Y254656D01*
X37020D01*
X37006Y254628D01*
X36950Y254614D01*
X36895Y254573D01*
X36825Y254531D01*
X36728Y254490D01*
X36631Y254448D01*
X36507Y254393D01*
X36229Y254295D01*
X35910Y254212D01*
X35536Y254157D01*
X35134Y254129D01*
X35050D01*
X34967Y254143D01*
X34842D01*
X34690Y254171D01*
X34509Y254198D01*
X34315Y254226D01*
X34121Y254282D01*
X33899Y254337D01*
X33677Y254420D01*
X33456Y254517D01*
X33234Y254628D01*
X33012Y254767D01*
X32804Y254919D01*
X32623Y255100D01*
X32443Y255308D01*
X32429Y255322D01*
X32415Y255349D01*
X32388Y255405D01*
X32332Y255474D01*
X32290Y255571D01*
X32235Y255682D01*
X32166Y255807D01*
X32110Y255960D01*
X32041Y256126D01*
X31985Y256306D01*
X31916Y256500D01*
X31874Y256722D01*
X31833Y256944D01*
X31791Y257180D01*
X31777Y257444D01*
X31764Y257707D01*
Y257721D01*
Y257776D01*
Y257873D01*
X31777Y257998D01*
X31791Y258137D01*
X31805Y258303D01*
X31833Y258484D01*
X31874Y258692D01*
X31985Y259122D01*
X32055Y259343D01*
X32138Y259579D01*
X32249Y259801D01*
X32374Y260009D01*
X32512Y260217D01*
X32665Y260411D01*
X32679Y260425D01*
X32707Y260453D01*
X32762Y260508D01*
X32831Y260564D01*
X32915Y260633D01*
X33026Y260716D01*
X33150Y260814D01*
X33289Y260911D01*
X33442Y260994D01*
X33622Y261091D01*
X33802Y261174D01*
X34010Y261243D01*
X34218Y261299D01*
X34454Y261354D01*
X34690Y261382D01*
X34939Y261396D01*
X35092D01*
X35203Y261382D01*
D02*
G37*
G36*
X36962Y114967D02*
X37064Y114958D01*
X37175Y114939D01*
X37305Y114921D01*
X37443Y114893D01*
X37591Y114856D01*
X37748Y114810D01*
X37905Y114754D01*
X38072Y114680D01*
X38229Y114606D01*
X38377Y114514D01*
X38534Y114403D01*
X38673Y114283D01*
X38682D01*
X38691Y114264D01*
X38719Y114236D01*
X38747Y114209D01*
X38784Y114163D01*
X38821Y114107D01*
X38923Y113978D01*
X39024Y113811D01*
X39135Y113608D01*
X39237Y113377D01*
X39329Y113109D01*
X38054Y112803D01*
Y112813D01*
X38044Y112822D01*
Y112850D01*
X38026Y112887D01*
X37998Y112970D01*
X37952Y113081D01*
X37887Y113210D01*
X37804Y113340D01*
X37693Y113469D01*
X37573Y113580D01*
X37554Y113589D01*
X37508Y113626D01*
X37434Y113673D01*
X37332Y113728D01*
X37203Y113784D01*
X37055Y113830D01*
X36888Y113867D01*
X36704Y113876D01*
X36639D01*
X36583Y113867D01*
X36528Y113857D01*
X36454Y113848D01*
X36297Y113811D01*
X36112Y113747D01*
X35918Y113654D01*
X35816Y113599D01*
X35724Y113534D01*
X35631Y113451D01*
X35548Y113358D01*
Y113349D01*
X35529Y113330D01*
X35511Y113303D01*
X35483Y113257D01*
X35446Y113201D01*
X35409Y113136D01*
X35372Y113053D01*
X35335Y112961D01*
X35289Y112850D01*
X35252Y112730D01*
X35215Y112591D01*
X35178Y112443D01*
X35150Y112276D01*
X35132Y112101D01*
X35123Y111907D01*
X35113Y111694D01*
Y111685D01*
Y111638D01*
Y111574D01*
X35123Y111500D01*
Y111398D01*
X35141Y111278D01*
X35150Y111158D01*
X35169Y111019D01*
X35224Y110732D01*
X35298Y110446D01*
X35345Y110307D01*
X35409Y110178D01*
X35474Y110057D01*
X35548Y109956D01*
X35557Y109946D01*
X35566Y109937D01*
X35594Y109910D01*
X35631Y109873D01*
X35724Y109799D01*
X35853Y109706D01*
X36010Y109605D01*
X36204Y109530D01*
X36426Y109466D01*
X36546Y109457D01*
X36676Y109447D01*
X36722D01*
X36759Y109457D01*
X36861Y109466D01*
X36981Y109484D01*
X37110Y109530D01*
X37258Y109586D01*
X37406Y109660D01*
X37554Y109771D01*
X37573Y109789D01*
X37619Y109836D01*
X37684Y109910D01*
X37758Y110021D01*
X37850Y110168D01*
X37933Y110344D01*
X38017Y110557D01*
X38090Y110806D01*
X39348Y110418D01*
Y110409D01*
X39339Y110372D01*
X39320Y110316D01*
X39292Y110242D01*
X39255Y110159D01*
X39218Y110057D01*
X39172Y109946D01*
X39117Y109826D01*
X38987Y109577D01*
X38821Y109318D01*
X38617Y109068D01*
X38507Y108957D01*
X38386Y108856D01*
X38377Y108846D01*
X38359Y108837D01*
X38322Y108809D01*
X38266Y108772D01*
X38201Y108735D01*
X38118Y108698D01*
X38026Y108652D01*
X37924Y108606D01*
X37804Y108551D01*
X37674Y108504D01*
X37536Y108467D01*
X37388Y108430D01*
X37231Y108393D01*
X37055Y108365D01*
X36879Y108356D01*
X36685Y108347D01*
X36630D01*
X36565Y108356D01*
X36472Y108365D01*
X36371Y108375D01*
X36241Y108393D01*
X36103Y108421D01*
X35945Y108458D01*
X35788Y108504D01*
X35622Y108560D01*
X35446Y108634D01*
X35271Y108717D01*
X35095Y108809D01*
X34919Y108930D01*
X34753Y109059D01*
X34596Y109216D01*
X34586Y109225D01*
X34559Y109253D01*
X34522Y109309D01*
X34466Y109373D01*
X34411Y109466D01*
X34337Y109567D01*
X34263Y109697D01*
X34189Y109845D01*
X34115Y110002D01*
X34041Y110178D01*
X33967Y110381D01*
X33911Y110594D01*
X33856Y110816D01*
X33819Y111065D01*
X33791Y111324D01*
X33782Y111601D01*
Y111611D01*
Y111620D01*
Y111676D01*
X33791Y111759D01*
Y111870D01*
X33810Y111999D01*
X33828Y112156D01*
X33847Y112323D01*
X33884Y112517D01*
X33930Y112711D01*
X33985Y112914D01*
X34050Y113118D01*
X34133Y113330D01*
X34226Y113534D01*
X34337Y113728D01*
X34457Y113913D01*
X34605Y114089D01*
X34614Y114098D01*
X34642Y114126D01*
X34688Y114172D01*
X34753Y114227D01*
X34836Y114292D01*
X34938Y114366D01*
X35049Y114449D01*
X35187Y114532D01*
X35335Y114616D01*
X35492Y114699D01*
X35677Y114773D01*
X35862Y114838D01*
X36075Y114893D01*
X36288Y114939D01*
X36528Y114967D01*
X36768Y114976D01*
X36879D01*
X36962Y114967D01*
D02*
G37*
G36*
X42353Y114884D02*
X42436Y114874D01*
X42519Y114865D01*
X42621Y114847D01*
X42723Y114819D01*
X42954Y114754D01*
X43074Y114708D01*
X43203Y114643D01*
X43323Y114579D01*
X43434Y114505D01*
X43555Y114412D01*
X43656Y114311D01*
X43665Y114301D01*
X43675Y114292D01*
X43703Y114264D01*
X43730Y114227D01*
X43804Y114135D01*
X43887Y114005D01*
X43971Y113848D01*
X44035Y113663D01*
X44091Y113460D01*
X44100Y113358D01*
X44109Y113247D01*
Y113238D01*
Y113210D01*
X44100Y113164D01*
X44091Y113109D01*
X44082Y113035D01*
X44063Y112951D01*
X44035Y112859D01*
X43998Y112757D01*
X43943Y112655D01*
X43887Y112545D01*
X43814Y112434D01*
X43721Y112323D01*
X43610Y112212D01*
X43490Y112101D01*
X43351Y111999D01*
X43185Y111897D01*
X43194D01*
X43212Y111888D01*
X43240D01*
X43277Y111870D01*
X43379Y111842D01*
X43499Y111786D01*
X43638Y111713D01*
X43786Y111620D01*
X43934Y111500D01*
X44063Y111361D01*
X44082Y111343D01*
X44119Y111287D01*
X44165Y111204D01*
X44229Y111084D01*
X44294Y110945D01*
X44341Y110769D01*
X44377Y110584D01*
X44396Y110372D01*
Y110363D01*
Y110335D01*
Y110289D01*
X44387Y110233D01*
X44377Y110159D01*
X44359Y110076D01*
X44341Y109974D01*
X44322Y109873D01*
X44248Y109651D01*
X44193Y109530D01*
X44137Y109401D01*
X44063Y109281D01*
X43980Y109161D01*
X43887Y109040D01*
X43776Y108930D01*
X43767Y108920D01*
X43749Y108902D01*
X43712Y108874D01*
X43665Y108837D01*
X43601Y108791D01*
X43536Y108745D01*
X43444Y108689D01*
X43351Y108634D01*
X43250Y108578D01*
X43129Y108523D01*
X43000Y108476D01*
X42870Y108430D01*
X42723Y108393D01*
X42575Y108365D01*
X42408Y108347D01*
X42242Y108338D01*
X42158D01*
X42094Y108347D01*
X42020Y108356D01*
X41937Y108365D01*
X41844Y108384D01*
X41733Y108403D01*
X41511Y108458D01*
X41271Y108551D01*
X41142Y108606D01*
X41031Y108671D01*
X40910Y108754D01*
X40799Y108837D01*
X40790Y108846D01*
X40772Y108865D01*
X40744Y108892D01*
X40707Y108930D01*
X40661Y108976D01*
X40615Y109040D01*
X40559Y109105D01*
X40504Y109188D01*
X40448Y109281D01*
X40383Y109373D01*
X40282Y109595D01*
X40198Y109854D01*
X40161Y109993D01*
X40143Y110141D01*
X41326Y110289D01*
Y110279D01*
Y110270D01*
X41336Y110215D01*
X41354Y110132D01*
X41382Y110030D01*
X41428Y109919D01*
X41474Y109799D01*
X41548Y109688D01*
X41631Y109586D01*
X41641Y109577D01*
X41678Y109549D01*
X41733Y109512D01*
X41798Y109475D01*
X41890Y109429D01*
X41992Y109392D01*
X42103Y109364D01*
X42232Y109355D01*
X42251D01*
X42297Y109364D01*
X42362Y109373D01*
X42454Y109392D01*
X42556Y109429D01*
X42658Y109475D01*
X42769Y109549D01*
X42870Y109641D01*
X42880Y109651D01*
X42917Y109697D01*
X42954Y109762D01*
X43009Y109845D01*
X43055Y109956D01*
X43102Y110094D01*
X43129Y110252D01*
X43138Y110427D01*
Y110437D01*
Y110446D01*
Y110501D01*
X43129Y110584D01*
X43111Y110695D01*
X43074Y110816D01*
X43028Y110936D01*
X42963Y111056D01*
X42880Y111167D01*
X42870Y111176D01*
X42833Y111213D01*
X42778Y111259D01*
X42713Y111306D01*
X42621Y111361D01*
X42519Y111398D01*
X42408Y111435D01*
X42279Y111444D01*
X42186D01*
X42122Y111435D01*
X42038Y111426D01*
X41937Y111407D01*
X41835Y111380D01*
X41715Y111352D01*
X41844Y112341D01*
X41927D01*
X42020Y112350D01*
X42131Y112360D01*
X42251Y112387D01*
X42380Y112424D01*
X42501Y112480D01*
X42611Y112554D01*
X42621Y112563D01*
X42658Y112600D01*
X42695Y112646D01*
X42750Y112720D01*
X42797Y112803D01*
X42843Y112905D01*
X42870Y113025D01*
X42880Y113164D01*
Y113182D01*
Y113219D01*
X42870Y113275D01*
X42852Y113349D01*
X42833Y113432D01*
X42797Y113515D01*
X42750Y113608D01*
X42685Y113682D01*
X42676Y113691D01*
X42649Y113709D01*
X42611Y113747D01*
X42547Y113784D01*
X42473Y113811D01*
X42390Y113848D01*
X42279Y113867D01*
X42168Y113876D01*
X42112D01*
X42057Y113867D01*
X41983Y113848D01*
X41900Y113820D01*
X41807Y113784D01*
X41715Y113728D01*
X41631Y113654D01*
X41622Y113645D01*
X41595Y113617D01*
X41557Y113562D01*
X41511Y113488D01*
X41465Y113404D01*
X41428Y113293D01*
X41391Y113164D01*
X41363Y113016D01*
X40235Y113201D01*
Y113210D01*
X40245Y113229D01*
Y113257D01*
X40254Y113303D01*
X40282Y113404D01*
X40319Y113543D01*
X40374Y113691D01*
X40430Y113848D01*
X40504Y113996D01*
X40587Y114135D01*
X40596Y114153D01*
X40633Y114190D01*
X40689Y114255D01*
X40762Y114338D01*
X40855Y114421D01*
X40966Y114514D01*
X41104Y114606D01*
X41252Y114690D01*
X41262D01*
X41271Y114699D01*
X41326Y114717D01*
X41419Y114754D01*
X41530Y114791D01*
X41669Y114828D01*
X41835Y114865D01*
X42011Y114884D01*
X42205Y114893D01*
X42288D01*
X42353Y114884D01*
D02*
G37*
G36*
X103820Y234445D02*
X103921Y234436D01*
X104032Y234418D01*
X104162Y234399D01*
X104300Y234371D01*
X104448Y234334D01*
X104606Y234288D01*
X104763Y234233D01*
X104929Y234159D01*
X105086Y234085D01*
X105234Y233992D01*
X105392Y233881D01*
X105530Y233761D01*
X105539D01*
X105549Y233743D01*
X105576Y233715D01*
X105604Y233687D01*
X105641Y233641D01*
X105678Y233585D01*
X105780Y233456D01*
X105882Y233290D01*
X105992Y233086D01*
X106094Y232855D01*
X106187Y232587D01*
X104911Y232282D01*
Y232291D01*
X104902Y232300D01*
Y232328D01*
X104883Y232365D01*
X104855Y232448D01*
X104809Y232559D01*
X104744Y232689D01*
X104661Y232818D01*
X104550Y232948D01*
X104430Y233058D01*
X104411Y233068D01*
X104365Y233105D01*
X104291Y233151D01*
X104190Y233206D01*
X104060Y233262D01*
X103912Y233308D01*
X103746Y233345D01*
X103561Y233354D01*
X103496D01*
X103441Y233345D01*
X103385Y233336D01*
X103311Y233327D01*
X103154Y233290D01*
X102969Y233225D01*
X102775Y233132D01*
X102673Y233077D01*
X102581Y233012D01*
X102488Y232929D01*
X102405Y232837D01*
Y232827D01*
X102387Y232809D01*
X102368Y232781D01*
X102340Y232735D01*
X102303Y232679D01*
X102267Y232615D01*
X102229Y232532D01*
X102192Y232439D01*
X102146Y232328D01*
X102109Y232208D01*
X102072Y232069D01*
X102035Y231921D01*
X102008Y231755D01*
X101989Y231579D01*
X101980Y231385D01*
X101971Y231172D01*
Y231163D01*
Y231117D01*
Y231052D01*
X101980Y230978D01*
Y230877D01*
X101998Y230756D01*
X102008Y230636D01*
X102026Y230497D01*
X102082Y230211D01*
X102156Y229924D01*
X102202Y229785D01*
X102267Y229656D01*
X102331Y229536D01*
X102405Y229434D01*
X102414Y229425D01*
X102424Y229416D01*
X102451Y229388D01*
X102488Y229351D01*
X102581Y229277D01*
X102710Y229185D01*
X102867Y229083D01*
X103062Y229009D01*
X103284Y228944D01*
X103404Y228935D01*
X103533Y228926D01*
X103579D01*
X103616Y228935D01*
X103718Y228944D01*
X103838Y228963D01*
X103968Y229009D01*
X104116Y229064D01*
X104263Y229138D01*
X104411Y229249D01*
X104430Y229268D01*
X104476Y229314D01*
X104541Y229388D01*
X104615Y229499D01*
X104707Y229647D01*
X104790Y229823D01*
X104874Y230035D01*
X104948Y230285D01*
X106205Y229897D01*
Y229887D01*
X106196Y229850D01*
X106177Y229795D01*
X106150Y229721D01*
X106113Y229638D01*
X106076Y229536D01*
X106030Y229425D01*
X105974Y229305D01*
X105844Y229055D01*
X105678Y228796D01*
X105475Y228547D01*
X105364Y228436D01*
X105244Y228334D01*
X105234Y228325D01*
X105216Y228316D01*
X105179Y228288D01*
X105123Y228251D01*
X105059Y228214D01*
X104976Y228177D01*
X104883Y228131D01*
X104781Y228084D01*
X104661Y228029D01*
X104532Y227983D01*
X104393Y227946D01*
X104245Y227909D01*
X104088Y227872D01*
X103912Y227844D01*
X103736Y227835D01*
X103542Y227826D01*
X103487D01*
X103422Y227835D01*
X103330Y227844D01*
X103228Y227853D01*
X103099Y227872D01*
X102960Y227899D01*
X102803Y227936D01*
X102646Y227983D01*
X102479Y228038D01*
X102303Y228112D01*
X102128Y228195D01*
X101952Y228288D01*
X101777Y228408D01*
X101610Y228537D01*
X101453Y228694D01*
X101444Y228704D01*
X101416Y228731D01*
X101379Y228787D01*
X101323Y228852D01*
X101268Y228944D01*
X101194Y229046D01*
X101120Y229175D01*
X101046Y229323D01*
X100972Y229480D01*
X100898Y229656D01*
X100824Y229860D01*
X100769Y230072D01*
X100713Y230294D01*
X100676Y230544D01*
X100648Y230802D01*
X100639Y231080D01*
Y231089D01*
Y231098D01*
Y231154D01*
X100648Y231237D01*
Y231348D01*
X100667Y231478D01*
X100686Y231635D01*
X100704Y231801D01*
X100741Y231995D01*
X100787Y232189D01*
X100843Y232393D01*
X100907Y232596D01*
X100991Y232809D01*
X101083Y233012D01*
X101194Y233206D01*
X101314Y233391D01*
X101462Y233567D01*
X101471Y233576D01*
X101499Y233604D01*
X101545Y233650D01*
X101610Y233706D01*
X101693Y233770D01*
X101795Y233844D01*
X101906Y233927D01*
X102045Y234011D01*
X102192Y234094D01*
X102350Y234177D01*
X102535Y234251D01*
X102719Y234316D01*
X102932Y234371D01*
X103145Y234418D01*
X103385Y234445D01*
X103626Y234454D01*
X103736D01*
X103820Y234445D01*
D02*
G37*
G36*
X110181Y227936D02*
X108951D01*
Y232568D01*
X108942Y232559D01*
X108923Y232541D01*
X108886Y232513D01*
X108831Y232467D01*
X108766Y232411D01*
X108692Y232356D01*
X108600Y232291D01*
X108498Y232217D01*
X108387Y232143D01*
X108267Y232069D01*
X108138Y231986D01*
X107999Y231912D01*
X107703Y231773D01*
X107370Y231644D01*
Y232753D01*
X107379D01*
X107389Y232763D01*
X107416Y232772D01*
X107453Y232781D01*
X107546Y232827D01*
X107675Y232883D01*
X107832Y232957D01*
X108008Y233058D01*
X108202Y233188D01*
X108406Y233336D01*
X108415Y233345D01*
X108433Y233354D01*
X108461Y233382D01*
X108498Y233419D01*
X108600Y233512D01*
X108711Y233632D01*
X108840Y233780D01*
X108970Y233965D01*
X109090Y234159D01*
X109182Y234371D01*
X110181D01*
Y227936D01*
D02*
G37*
G36*
X120782Y196247D02*
X120884Y196238D01*
X120995Y196219D01*
X121125Y196201D01*
X121263Y196173D01*
X121411Y196136D01*
X121568Y196090D01*
X121726Y196034D01*
X121892Y195960D01*
X122049Y195886D01*
X122197Y195794D01*
X122354Y195683D01*
X122493Y195563D01*
X122502D01*
X122511Y195544D01*
X122539Y195516D01*
X122567Y195489D01*
X122604Y195443D01*
X122641Y195387D01*
X122743Y195258D01*
X122844Y195091D01*
X122955Y194888D01*
X123057Y194657D01*
X123149Y194389D01*
X121874Y194083D01*
Y194093D01*
X121864Y194102D01*
Y194130D01*
X121846Y194167D01*
X121818Y194250D01*
X121772Y194361D01*
X121707Y194490D01*
X121624Y194620D01*
X121513Y194749D01*
X121393Y194860D01*
X121374Y194869D01*
X121328Y194906D01*
X121254Y194953D01*
X121152Y195008D01*
X121023Y195063D01*
X120875Y195110D01*
X120709Y195147D01*
X120524Y195156D01*
X120459D01*
X120403Y195147D01*
X120348Y195137D01*
X120274Y195128D01*
X120117Y195091D01*
X119932Y195026D01*
X119738Y194934D01*
X119636Y194879D01*
X119544Y194814D01*
X119451Y194731D01*
X119368Y194638D01*
Y194629D01*
X119349Y194610D01*
X119331Y194583D01*
X119303Y194536D01*
X119266Y194481D01*
X119229Y194416D01*
X119192Y194333D01*
X119155Y194241D01*
X119109Y194130D01*
X119072Y194009D01*
X119035Y193871D01*
X118998Y193723D01*
X118970Y193556D01*
X118952Y193381D01*
X118943Y193187D01*
X118933Y192974D01*
Y192965D01*
Y192918D01*
Y192854D01*
X118943Y192780D01*
Y192678D01*
X118961Y192558D01*
X118970Y192438D01*
X118989Y192299D01*
X119044Y192012D01*
X119118Y191726D01*
X119164Y191587D01*
X119229Y191458D01*
X119294Y191338D01*
X119368Y191236D01*
X119377Y191227D01*
X119386Y191217D01*
X119414Y191190D01*
X119451Y191153D01*
X119544Y191079D01*
X119673Y190986D01*
X119830Y190884D01*
X120024Y190811D01*
X120246Y190746D01*
X120366Y190737D01*
X120496Y190727D01*
X120542D01*
X120579Y190737D01*
X120681Y190746D01*
X120801Y190764D01*
X120930Y190811D01*
X121078Y190866D01*
X121226Y190940D01*
X121374Y191051D01*
X121393Y191069D01*
X121439Y191116D01*
X121504Y191190D01*
X121578Y191301D01*
X121670Y191448D01*
X121753Y191624D01*
X121837Y191837D01*
X121910Y192086D01*
X123168Y191698D01*
Y191689D01*
X123159Y191652D01*
X123140Y191596D01*
X123112Y191522D01*
X123075Y191439D01*
X123038Y191338D01*
X122992Y191227D01*
X122937Y191106D01*
X122807Y190857D01*
X122641Y190598D01*
X122437Y190348D01*
X122326Y190237D01*
X122206Y190136D01*
X122197Y190126D01*
X122179Y190117D01*
X122142Y190089D01*
X122086Y190052D01*
X122021Y190015D01*
X121938Y189978D01*
X121846Y189932D01*
X121744Y189886D01*
X121624Y189830D01*
X121494Y189784D01*
X121356Y189747D01*
X121208Y189710D01*
X121051Y189673D01*
X120875Y189646D01*
X120699Y189636D01*
X120505Y189627D01*
X120450D01*
X120385Y189636D01*
X120293Y189646D01*
X120191Y189655D01*
X120061Y189673D01*
X119923Y189701D01*
X119766Y189738D01*
X119608Y189784D01*
X119442Y189840D01*
X119266Y189914D01*
X119090Y189997D01*
X118915Y190089D01*
X118739Y190210D01*
X118573Y190339D01*
X118416Y190496D01*
X118406Y190505D01*
X118379Y190533D01*
X118342Y190589D01*
X118286Y190653D01*
X118231Y190746D01*
X118157Y190847D01*
X118083Y190977D01*
X118009Y191125D01*
X117935Y191282D01*
X117861Y191458D01*
X117787Y191661D01*
X117731Y191874D01*
X117676Y192096D01*
X117639Y192345D01*
X117611Y192604D01*
X117602Y192882D01*
Y192891D01*
Y192900D01*
Y192955D01*
X117611Y193039D01*
Y193150D01*
X117630Y193279D01*
X117648Y193436D01*
X117667Y193603D01*
X117704Y193797D01*
X117750Y193991D01*
X117805Y194194D01*
X117870Y194398D01*
X117953Y194610D01*
X118046Y194814D01*
X118157Y195008D01*
X118277Y195193D01*
X118425Y195369D01*
X118434Y195378D01*
X118462Y195406D01*
X118508Y195452D01*
X118573Y195507D01*
X118656Y195572D01*
X118758Y195646D01*
X118869Y195729D01*
X119007Y195812D01*
X119155Y195896D01*
X119312Y195979D01*
X119497Y196053D01*
X119682Y196117D01*
X119895Y196173D01*
X120108Y196219D01*
X120348Y196247D01*
X120588Y196256D01*
X120699D01*
X120782Y196247D01*
D02*
G37*
G36*
X126274Y196164D02*
X126358Y196154D01*
X126450Y196145D01*
X126552Y196127D01*
X126663Y196108D01*
X126903Y196043D01*
X127143Y195951D01*
X127273Y195896D01*
X127384Y195831D01*
X127504Y195748D01*
X127606Y195655D01*
X127615Y195646D01*
X127633Y195637D01*
X127652Y195600D01*
X127689Y195563D01*
X127735Y195516D01*
X127781Y195452D01*
X127828Y195387D01*
X127883Y195304D01*
X127976Y195119D01*
X128068Y194906D01*
X128105Y194786D01*
X128124Y194657D01*
X128142Y194518D01*
X128151Y194379D01*
Y194361D01*
Y194305D01*
X128142Y194222D01*
X128133Y194120D01*
X128114Y193991D01*
X128087Y193852D01*
X128049Y193704D01*
X127994Y193556D01*
X127985Y193538D01*
X127966Y193492D01*
X127929Y193409D01*
X127874Y193307D01*
X127809Y193187D01*
X127726Y193048D01*
X127624Y192900D01*
X127504Y192743D01*
X127495Y192734D01*
X127458Y192687D01*
X127402Y192623D01*
X127319Y192530D01*
X127208Y192419D01*
X127070Y192271D01*
X126903Y192114D01*
X126700Y191920D01*
X126690Y191911D01*
X126672Y191901D01*
X126644Y191874D01*
X126607Y191837D01*
X126505Y191744D01*
X126385Y191633D01*
X126265Y191513D01*
X126145Y191393D01*
X126034Y191291D01*
X125997Y191245D01*
X125960Y191208D01*
X125951Y191199D01*
X125932Y191180D01*
X125905Y191143D01*
X125868Y191097D01*
X125784Y190995D01*
X125710Y190875D01*
X128151D01*
Y189738D01*
X123852D01*
Y189747D01*
Y189766D01*
X123861Y189803D01*
X123870Y189849D01*
X123880Y189904D01*
X123889Y189969D01*
X123926Y190136D01*
X123982Y190320D01*
X124055Y190524D01*
X124148Y190746D01*
X124268Y190958D01*
Y190968D01*
X124287Y190986D01*
X124305Y191023D01*
X124342Y191060D01*
X124379Y191125D01*
X124434Y191190D01*
X124499Y191273D01*
X124573Y191365D01*
X124656Y191476D01*
X124758Y191587D01*
X124869Y191717D01*
X124999Y191855D01*
X125137Y191994D01*
X125294Y192151D01*
X125461Y192318D01*
X125646Y192493D01*
X125655Y192502D01*
X125683Y192530D01*
X125720Y192567D01*
X125775Y192623D01*
X125849Y192678D01*
X125923Y192752D01*
X126089Y192918D01*
X126256Y193094D01*
X126422Y193270D01*
X126496Y193344D01*
X126570Y193427D01*
X126626Y193492D01*
X126663Y193547D01*
X126672Y193566D01*
X126700Y193612D01*
X126746Y193686D01*
X126792Y193788D01*
X126838Y193899D01*
X126885Y194028D01*
X126912Y194157D01*
X126922Y194296D01*
Y194305D01*
Y194315D01*
Y194361D01*
X126912Y194444D01*
X126894Y194536D01*
X126866Y194638D01*
X126829Y194740D01*
X126774Y194842D01*
X126700Y194934D01*
X126690Y194943D01*
X126663Y194971D01*
X126607Y195008D01*
X126543Y195045D01*
X126450Y195082D01*
X126348Y195119D01*
X126228Y195147D01*
X126089Y195156D01*
X126025D01*
X125951Y195147D01*
X125868Y195128D01*
X125766Y195100D01*
X125664Y195054D01*
X125562Y194999D01*
X125470Y194925D01*
X125461Y194916D01*
X125433Y194879D01*
X125396Y194823D01*
X125359Y194740D01*
X125313Y194638D01*
X125276Y194499D01*
X125239Y194342D01*
X125220Y194157D01*
X124000Y194278D01*
Y194287D01*
X124009Y194324D01*
Y194370D01*
X124028Y194444D01*
X124037Y194527D01*
X124065Y194620D01*
X124092Y194721D01*
X124120Y194842D01*
X124213Y195073D01*
X124324Y195313D01*
X124397Y195433D01*
X124481Y195544D01*
X124573Y195637D01*
X124675Y195729D01*
X124684Y195738D01*
X124703Y195748D01*
X124730Y195766D01*
X124777Y195803D01*
X124832Y195831D01*
X124906Y195868D01*
X124980Y195914D01*
X125072Y195951D01*
X125174Y195997D01*
X125285Y196034D01*
X125526Y196108D01*
X125812Y196154D01*
X125960Y196164D01*
X126117Y196173D01*
X126210D01*
X126274Y196164D01*
D02*
G37*
G36*
X12149Y136728D02*
X12233Y136718D01*
X12316Y136709D01*
X12418Y136691D01*
X12519Y136663D01*
X12751Y136598D01*
X12871Y136552D01*
X13000Y136487D01*
X13120Y136423D01*
X13231Y136349D01*
X13352Y136256D01*
X13453Y136154D01*
X13462Y136145D01*
X13472Y136136D01*
X13499Y136108D01*
X13527Y136071D01*
X13601Y135979D01*
X13684Y135849D01*
X13767Y135692D01*
X13832Y135507D01*
X13888Y135304D01*
X13897Y135202D01*
X13906Y135091D01*
Y135082D01*
Y135054D01*
X13897Y135008D01*
X13888Y134952D01*
X13879Y134879D01*
X13860Y134795D01*
X13832Y134703D01*
X13795Y134601D01*
X13740Y134500D01*
X13684Y134389D01*
X13610Y134278D01*
X13518Y134167D01*
X13407Y134056D01*
X13287Y133945D01*
X13148Y133843D01*
X12982Y133741D01*
X12991D01*
X13009Y133732D01*
X13037D01*
X13074Y133714D01*
X13176Y133686D01*
X13296Y133630D01*
X13435Y133556D01*
X13583Y133464D01*
X13730Y133344D01*
X13860Y133205D01*
X13879Y133187D01*
X13915Y133131D01*
X13962Y133048D01*
X14026Y132928D01*
X14091Y132789D01*
X14137Y132613D01*
X14174Y132429D01*
X14193Y132216D01*
Y132207D01*
Y132179D01*
Y132133D01*
X14184Y132077D01*
X14174Y132003D01*
X14156Y131920D01*
X14137Y131818D01*
X14119Y131717D01*
X14045Y131495D01*
X13989Y131375D01*
X13934Y131245D01*
X13860Y131125D01*
X13777Y131005D01*
X13684Y130885D01*
X13573Y130773D01*
X13564Y130764D01*
X13546Y130746D01*
X13509Y130718D01*
X13462Y130681D01*
X13398Y130635D01*
X13333Y130589D01*
X13240Y130533D01*
X13148Y130478D01*
X13046Y130422D01*
X12926Y130367D01*
X12797Y130321D01*
X12667Y130274D01*
X12519Y130237D01*
X12371Y130210D01*
X12205Y130191D01*
X12039Y130182D01*
X11955D01*
X11891Y130191D01*
X11817Y130200D01*
X11733Y130210D01*
X11641Y130228D01*
X11530Y130246D01*
X11308Y130302D01*
X11068Y130394D01*
X10938Y130450D01*
X10827Y130515D01*
X10707Y130598D01*
X10596Y130681D01*
X10587Y130690D01*
X10568Y130709D01*
X10541Y130737D01*
X10504Y130773D01*
X10458Y130820D01*
X10411Y130885D01*
X10356Y130949D01*
X10300Y131032D01*
X10245Y131125D01*
X10180Y131217D01*
X10079Y131439D01*
X9995Y131698D01*
X9958Y131837D01*
X9940Y131985D01*
X11123Y132133D01*
Y132123D01*
Y132114D01*
X11133Y132059D01*
X11151Y131975D01*
X11179Y131874D01*
X11225Y131763D01*
X11271Y131643D01*
X11345Y131532D01*
X11428Y131430D01*
X11438Y131421D01*
X11475Y131393D01*
X11530Y131356D01*
X11595Y131319D01*
X11687Y131273D01*
X11789Y131236D01*
X11900Y131208D01*
X12029Y131199D01*
X12048D01*
X12094Y131208D01*
X12159Y131217D01*
X12251Y131236D01*
X12353Y131273D01*
X12455Y131319D01*
X12566Y131393D01*
X12667Y131485D01*
X12677Y131495D01*
X12714Y131541D01*
X12751Y131606D01*
X12806Y131689D01*
X12852Y131800D01*
X12898Y131938D01*
X12926Y132096D01*
X12935Y132271D01*
Y132281D01*
Y132290D01*
Y132345D01*
X12926Y132429D01*
X12908Y132539D01*
X12871Y132660D01*
X12824Y132780D01*
X12760Y132900D01*
X12677Y133011D01*
X12667Y133020D01*
X12630Y133057D01*
X12575Y133103D01*
X12510Y133150D01*
X12418Y133205D01*
X12316Y133242D01*
X12205Y133279D01*
X12076Y133288D01*
X11983D01*
X11918Y133279D01*
X11835Y133270D01*
X11733Y133251D01*
X11632Y133224D01*
X11512Y133196D01*
X11641Y134185D01*
X11724D01*
X11817Y134194D01*
X11928Y134204D01*
X12048Y134231D01*
X12177Y134268D01*
X12298Y134324D01*
X12408Y134398D01*
X12418Y134407D01*
X12455Y134444D01*
X12492Y134490D01*
X12547Y134564D01*
X12593Y134647D01*
X12639Y134749D01*
X12667Y134869D01*
X12677Y135008D01*
Y135027D01*
Y135063D01*
X12667Y135119D01*
X12649Y135193D01*
X12630Y135276D01*
X12593Y135359D01*
X12547Y135452D01*
X12482Y135526D01*
X12473Y135535D01*
X12445Y135554D01*
X12408Y135590D01*
X12344Y135627D01*
X12270Y135655D01*
X12186Y135692D01*
X12076Y135711D01*
X11965Y135720D01*
X11909D01*
X11854Y135711D01*
X11780Y135692D01*
X11696Y135664D01*
X11604Y135627D01*
X11512Y135572D01*
X11428Y135498D01*
X11419Y135489D01*
X11391Y135461D01*
X11354Y135406D01*
X11308Y135332D01*
X11262Y135248D01*
X11225Y135137D01*
X11188Y135008D01*
X11160Y134860D01*
X10032Y135045D01*
Y135054D01*
X10042Y135073D01*
Y135100D01*
X10051Y135147D01*
X10079Y135248D01*
X10115Y135387D01*
X10171Y135535D01*
X10226Y135692D01*
X10300Y135840D01*
X10384Y135979D01*
X10393Y135997D01*
X10430Y136034D01*
X10485Y136099D01*
X10559Y136182D01*
X10652Y136265D01*
X10763Y136358D01*
X10901Y136450D01*
X11049Y136533D01*
X11059D01*
X11068Y136543D01*
X11123Y136561D01*
X11216Y136598D01*
X11327Y136635D01*
X11465Y136672D01*
X11632Y136709D01*
X11807Y136728D01*
X12002Y136737D01*
X12085D01*
X12149Y136728D01*
D02*
G37*
G36*
X6778Y136691D02*
X6880D01*
X6981Y136681D01*
X7101D01*
X7342Y136654D01*
X7592Y136626D01*
X7823Y136580D01*
X7924Y136552D01*
X8017Y136524D01*
X8026D01*
X8035Y136515D01*
X8091Y136487D01*
X8174Y136441D01*
X8285Y136386D01*
X8405Y136293D01*
X8525Y136191D01*
X8645Y136062D01*
X8756Y135905D01*
Y135896D01*
X8766Y135886D01*
X8784Y135859D01*
X8803Y135831D01*
X8849Y135738D01*
X8904Y135618D01*
X8951Y135470D01*
X8997Y135304D01*
X9034Y135110D01*
X9043Y134906D01*
Y134897D01*
Y134879D01*
Y134832D01*
X9034Y134786D01*
Y134721D01*
X9025Y134657D01*
X8988Y134490D01*
X8941Y134296D01*
X8867Y134102D01*
X8756Y133898D01*
X8692Y133806D01*
X8618Y133714D01*
X8608Y133704D01*
X8599Y133695D01*
X8572Y133667D01*
X8535Y133640D01*
X8497Y133603D01*
X8442Y133556D01*
X8377Y133510D01*
X8303Y133464D01*
X8220Y133408D01*
X8118Y133362D01*
X8017Y133316D01*
X7906Y133270D01*
X7776Y133224D01*
X7647Y133187D01*
X7508Y133150D01*
X7351Y133122D01*
X7360D01*
X7370Y133113D01*
X7425Y133076D01*
X7499Y133029D01*
X7592Y132965D01*
X7702Y132881D01*
X7813Y132798D01*
X7933Y132697D01*
X8035Y132586D01*
X8044Y132576D01*
X8091Y132530D01*
X8146Y132456D01*
X8229Y132345D01*
X8340Y132207D01*
X8396Y132114D01*
X8461Y132022D01*
X8535Y131920D01*
X8608Y131809D01*
X8692Y131680D01*
X8775Y131550D01*
X9561Y130302D01*
X8008D01*
X7083Y131689D01*
X7074Y131698D01*
X7064Y131726D01*
X7037Y131763D01*
X7000Y131809D01*
X6963Y131865D01*
X6916Y131938D01*
X6815Y132086D01*
X6695Y132253D01*
X6584Y132401D01*
X6482Y132539D01*
X6436Y132586D01*
X6399Y132632D01*
X6389Y132641D01*
X6371Y132660D01*
X6334Y132697D01*
X6288Y132743D01*
X6223Y132780D01*
X6158Y132826D01*
X6084Y132863D01*
X6011Y132900D01*
X6001D01*
X5974Y132909D01*
X5927Y132928D01*
X5853Y132937D01*
X5761Y132956D01*
X5650Y132965D01*
X5520Y132974D01*
X5104D01*
Y130302D01*
X3810D01*
Y136700D01*
X6695D01*
X6778Y136691D01*
D02*
G37*
G36*
X12259Y165812D02*
X12342Y165802D01*
X12435Y165793D01*
X12537Y165775D01*
X12648Y165756D01*
X12888Y165692D01*
X13128Y165599D01*
X13258Y165544D01*
X13369Y165479D01*
X13489Y165396D01*
X13591Y165303D01*
X13600Y165294D01*
X13618Y165285D01*
X13637Y165248D01*
X13674Y165211D01*
X13720Y165165D01*
X13766Y165100D01*
X13813Y165035D01*
X13868Y164952D01*
X13960Y164767D01*
X14053Y164554D01*
X14090Y164434D01*
X14108Y164305D01*
X14127Y164166D01*
X14136Y164027D01*
Y164009D01*
Y163953D01*
X14127Y163870D01*
X14118Y163768D01*
X14099Y163639D01*
X14071Y163500D01*
X14034Y163352D01*
X13979Y163204D01*
X13970Y163186D01*
X13951Y163140D01*
X13914Y163057D01*
X13859Y162955D01*
X13794Y162835D01*
X13711Y162696D01*
X13609Y162548D01*
X13489Y162391D01*
X13480Y162382D01*
X13443Y162335D01*
X13387Y162271D01*
X13304Y162178D01*
X13193Y162067D01*
X13054Y161919D01*
X12888Y161762D01*
X12685Y161568D01*
X12675Y161559D01*
X12657Y161549D01*
X12629Y161522D01*
X12592Y161485D01*
X12490Y161392D01*
X12370Y161281D01*
X12250Y161161D01*
X12130Y161041D01*
X12019Y160939D01*
X11982Y160893D01*
X11945Y160856D01*
X11936Y160847D01*
X11917Y160828D01*
X11889Y160791D01*
X11852Y160745D01*
X11769Y160643D01*
X11695Y160523D01*
X14136D01*
Y159386D01*
X9837D01*
Y159395D01*
Y159414D01*
X9846Y159451D01*
X9855Y159497D01*
X9865Y159552D01*
X9874Y159617D01*
X9911Y159784D01*
X9966Y159969D01*
X10040Y160172D01*
X10133Y160394D01*
X10253Y160606D01*
Y160616D01*
X10271Y160634D01*
X10290Y160671D01*
X10327Y160708D01*
X10364Y160773D01*
X10419Y160838D01*
X10484Y160921D01*
X10558Y161013D01*
X10641Y161124D01*
X10743Y161235D01*
X10854Y161365D01*
X10983Y161503D01*
X11122Y161642D01*
X11279Y161799D01*
X11446Y161966D01*
X11631Y162141D01*
X11640Y162150D01*
X11667Y162178D01*
X11704Y162215D01*
X11760Y162271D01*
X11834Y162326D01*
X11908Y162400D01*
X12074Y162567D01*
X12241Y162742D01*
X12407Y162918D01*
X12481Y162992D01*
X12555Y163075D01*
X12611Y163140D01*
X12648Y163195D01*
X12657Y163214D01*
X12685Y163260D01*
X12731Y163334D01*
X12777Y163436D01*
X12823Y163547D01*
X12869Y163676D01*
X12897Y163805D01*
X12906Y163944D01*
Y163953D01*
Y163963D01*
Y164009D01*
X12897Y164092D01*
X12879Y164184D01*
X12851Y164286D01*
X12814Y164388D01*
X12759Y164490D01*
X12685Y164582D01*
X12675Y164591D01*
X12648Y164619D01*
X12592Y164656D01*
X12527Y164693D01*
X12435Y164730D01*
X12333Y164767D01*
X12213Y164795D01*
X12074Y164804D01*
X12010D01*
X11936Y164795D01*
X11852Y164776D01*
X11751Y164748D01*
X11649Y164702D01*
X11547Y164647D01*
X11455Y164573D01*
X11446Y164564D01*
X11418Y164527D01*
X11381Y164471D01*
X11344Y164388D01*
X11298Y164286D01*
X11261Y164147D01*
X11224Y163990D01*
X11205Y163805D01*
X9985Y163926D01*
Y163935D01*
X9994Y163972D01*
Y164018D01*
X10013Y164092D01*
X10022Y164175D01*
X10050Y164268D01*
X10077Y164369D01*
X10105Y164490D01*
X10197Y164721D01*
X10308Y164961D01*
X10382Y165081D01*
X10466Y165192D01*
X10558Y165285D01*
X10660Y165377D01*
X10669Y165386D01*
X10688Y165396D01*
X10715Y165414D01*
X10761Y165451D01*
X10817Y165479D01*
X10891Y165516D01*
X10965Y165562D01*
X11057Y165599D01*
X11159Y165645D01*
X11270Y165682D01*
X11510Y165756D01*
X11797Y165802D01*
X11945Y165812D01*
X12102Y165821D01*
X12194D01*
X12259Y165812D01*
D02*
G37*
G36*
X6786Y165775D02*
X6888D01*
X6989Y165765D01*
X7109D01*
X7350Y165738D01*
X7599Y165710D01*
X7831Y165664D01*
X7932Y165636D01*
X8025Y165608D01*
X8034D01*
X8043Y165599D01*
X8099Y165571D01*
X8182Y165525D01*
X8293Y165470D01*
X8413Y165377D01*
X8533Y165275D01*
X8653Y165146D01*
X8764Y164989D01*
Y164980D01*
X8774Y164970D01*
X8792Y164943D01*
X8811Y164915D01*
X8857Y164822D01*
X8912Y164702D01*
X8959Y164554D01*
X9005Y164388D01*
X9042Y164194D01*
X9051Y163990D01*
Y163981D01*
Y163963D01*
Y163916D01*
X9042Y163870D01*
Y163805D01*
X9032Y163741D01*
X8996Y163574D01*
X8949Y163380D01*
X8875Y163186D01*
X8764Y162983D01*
X8700Y162890D01*
X8626Y162798D01*
X8616Y162788D01*
X8607Y162779D01*
X8579Y162751D01*
X8543Y162724D01*
X8505Y162687D01*
X8450Y162640D01*
X8385Y162594D01*
X8311Y162548D01*
X8228Y162493D01*
X8127Y162446D01*
X8025Y162400D01*
X7914Y162354D01*
X7784Y162308D01*
X7655Y162271D01*
X7516Y162234D01*
X7359Y162206D01*
X7368D01*
X7378Y162197D01*
X7433Y162160D01*
X7507Y162113D01*
X7599Y162049D01*
X7710Y161966D01*
X7821Y161882D01*
X7941Y161781D01*
X8043Y161670D01*
X8052Y161660D01*
X8099Y161614D01*
X8154Y161540D01*
X8237Y161429D01*
X8348Y161291D01*
X8404Y161198D01*
X8468Y161106D01*
X8543Y161004D01*
X8616Y160893D01*
X8700Y160764D01*
X8783Y160634D01*
X9569Y159386D01*
X8015D01*
X7091Y160773D01*
X7082Y160782D01*
X7072Y160810D01*
X7045Y160847D01*
X7008Y160893D01*
X6971Y160949D01*
X6924Y161022D01*
X6823Y161170D01*
X6703Y161337D01*
X6592Y161485D01*
X6490Y161623D01*
X6444Y161670D01*
X6407Y161716D01*
X6398Y161725D01*
X6379Y161744D01*
X6342Y161781D01*
X6296Y161827D01*
X6231Y161864D01*
X6166Y161910D01*
X6092Y161947D01*
X6018Y161984D01*
X6009D01*
X5982Y161993D01*
X5935Y162012D01*
X5861Y162021D01*
X5769Y162040D01*
X5658Y162049D01*
X5528Y162058D01*
X5112D01*
Y159386D01*
X3818D01*
Y165784D01*
X6703D01*
X6786Y165775D01*
D02*
G37*
G36*
X59303Y91766D02*
X60098D01*
Y90693D01*
X59303D01*
Y89408D01*
X58119D01*
Y90693D01*
X55493D01*
Y91756D01*
X58267Y95834D01*
X59303D01*
Y91766D01*
D02*
G37*
G36*
X52498Y95797D02*
X52600D01*
X52701Y95787D01*
X52821D01*
X53062Y95760D01*
X53312Y95732D01*
X53543Y95686D01*
X53644Y95658D01*
X53737Y95630D01*
X53746D01*
X53755Y95621D01*
X53811Y95593D01*
X53894Y95547D01*
X54005Y95492D01*
X54125Y95399D01*
X54245Y95297D01*
X54365Y95168D01*
X54476Y95011D01*
Y95002D01*
X54486Y94992D01*
X54504Y94965D01*
X54523Y94937D01*
X54569Y94844D01*
X54624Y94724D01*
X54671Y94576D01*
X54717Y94410D01*
X54754Y94216D01*
X54763Y94012D01*
Y94003D01*
Y93985D01*
Y93938D01*
X54754Y93892D01*
Y93827D01*
X54745Y93763D01*
X54707Y93596D01*
X54661Y93402D01*
X54587Y93208D01*
X54476Y93005D01*
X54412Y92912D01*
X54338Y92820D01*
X54328Y92810D01*
X54319Y92801D01*
X54292Y92773D01*
X54254Y92746D01*
X54218Y92709D01*
X54162Y92662D01*
X54097Y92616D01*
X54023Y92570D01*
X53940Y92514D01*
X53838Y92468D01*
X53737Y92422D01*
X53626Y92376D01*
X53496Y92330D01*
X53367Y92293D01*
X53228Y92256D01*
X53071Y92228D01*
X53080D01*
X53090Y92219D01*
X53145Y92182D01*
X53219Y92135D01*
X53312Y92071D01*
X53422Y91987D01*
X53533Y91904D01*
X53653Y91803D01*
X53755Y91692D01*
X53765Y91682D01*
X53811Y91636D01*
X53866Y91562D01*
X53949Y91451D01*
X54060Y91313D01*
X54116Y91220D01*
X54180Y91128D01*
X54254Y91026D01*
X54328Y90915D01*
X54412Y90786D01*
X54495Y90656D01*
X55281Y89408D01*
X53727D01*
X52803Y90795D01*
X52794Y90804D01*
X52785Y90832D01*
X52757Y90869D01*
X52720Y90915D01*
X52683Y90970D01*
X52636Y91045D01*
X52535Y91192D01*
X52415Y91359D01*
X52304Y91507D01*
X52202Y91645D01*
X52156Y91692D01*
X52119Y91738D01*
X52109Y91747D01*
X52091Y91766D01*
X52054Y91803D01*
X52008Y91849D01*
X51943Y91886D01*
X51878Y91932D01*
X51804Y91969D01*
X51730Y92006D01*
X51721D01*
X51694Y92015D01*
X51647Y92034D01*
X51573Y92043D01*
X51481Y92062D01*
X51370Y92071D01*
X51240Y92080D01*
X50824D01*
Y89408D01*
X49530D01*
Y95806D01*
X52415D01*
X52498Y95797D01*
D02*
G37*
G36*
X85935Y244433D02*
X84705D01*
Y249065D01*
X84696Y249055D01*
X84678Y249037D01*
X84641Y249009D01*
X84585Y248963D01*
X84521Y248907D01*
X84447Y248852D01*
X84354Y248787D01*
X84253Y248713D01*
X84142Y248639D01*
X84021Y248565D01*
X83892Y248482D01*
X83753Y248408D01*
X83457Y248270D01*
X83125Y248140D01*
Y249249D01*
X83134D01*
X83143Y249259D01*
X83171Y249268D01*
X83208Y249277D01*
X83300Y249324D01*
X83430Y249379D01*
X83587Y249453D01*
X83762Y249555D01*
X83957Y249684D01*
X84160Y249832D01*
X84169Y249841D01*
X84188Y249851D01*
X84215Y249878D01*
X84253Y249915D01*
X84354Y250008D01*
X84465Y250128D01*
X84594Y250276D01*
X84724Y250461D01*
X84844Y250655D01*
X84937Y250868D01*
X85935D01*
Y244433D01*
D02*
G37*
G36*
X79593Y250821D02*
X79694D01*
X79796Y250812D01*
X79916D01*
X80157Y250784D01*
X80406Y250756D01*
X80637Y250710D01*
X80739Y250683D01*
X80832Y250655D01*
X80841D01*
X80850Y250646D01*
X80906Y250618D01*
X80989Y250572D01*
X81100Y250516D01*
X81220Y250424D01*
X81340Y250322D01*
X81460Y250193D01*
X81571Y250035D01*
Y250026D01*
X81580Y250017D01*
X81599Y249989D01*
X81617Y249961D01*
X81664Y249869D01*
X81719Y249749D01*
X81765Y249601D01*
X81812Y249434D01*
X81849Y249240D01*
X81858Y249037D01*
Y249028D01*
Y249009D01*
Y248963D01*
X81849Y248917D01*
Y248852D01*
X81839Y248787D01*
X81802Y248621D01*
X81756Y248427D01*
X81682Y248232D01*
X81571Y248029D01*
X81507Y247937D01*
X81433Y247844D01*
X81423Y247835D01*
X81414Y247826D01*
X81386Y247798D01*
X81349Y247770D01*
X81312Y247733D01*
X81257Y247687D01*
X81192Y247641D01*
X81118Y247595D01*
X81035Y247539D01*
X80933Y247493D01*
X80832Y247447D01*
X80721Y247400D01*
X80591Y247354D01*
X80462Y247317D01*
X80323Y247280D01*
X80166Y247252D01*
X80175D01*
X80184Y247243D01*
X80240Y247206D01*
X80314Y247160D01*
X80406Y247095D01*
X80517Y247012D01*
X80628Y246929D01*
X80748Y246827D01*
X80850Y246716D01*
X80859Y246707D01*
X80906Y246661D01*
X80961Y246587D01*
X81044Y246476D01*
X81155Y246337D01*
X81211Y246245D01*
X81275Y246152D01*
X81349Y246050D01*
X81423Y245940D01*
X81507Y245810D01*
X81590Y245681D01*
X82376Y244433D01*
X80822D01*
X79898Y245819D01*
X79889Y245829D01*
X79879Y245856D01*
X79852Y245893D01*
X79815Y245940D01*
X79778Y245995D01*
X79731Y246069D01*
X79630Y246217D01*
X79510Y246383D01*
X79398Y246531D01*
X79297Y246670D01*
X79251Y246716D01*
X79214Y246762D01*
X79204Y246772D01*
X79186Y246790D01*
X79149Y246827D01*
X79103Y246873D01*
X79038Y246910D01*
X78973Y246957D01*
X78899Y246994D01*
X78825Y247031D01*
X78816D01*
X78788Y247040D01*
X78742Y247058D01*
X78668Y247068D01*
X78576Y247086D01*
X78465Y247095D01*
X78335Y247104D01*
X77919D01*
Y244433D01*
X76625D01*
Y250830D01*
X79510D01*
X79593Y250821D01*
D02*
G37*
G36*
X59754Y79464D02*
X57434D01*
X57240Y78373D01*
X57249D01*
X57258Y78383D01*
X57314Y78410D01*
X57397Y78438D01*
X57498Y78484D01*
X57628Y78521D01*
X57767Y78549D01*
X57924Y78577D01*
X58081Y78586D01*
X58164D01*
X58220Y78577D01*
X58284Y78568D01*
X58368Y78558D01*
X58460Y78540D01*
X58562Y78512D01*
X58774Y78438D01*
X58895Y78392D01*
X59005Y78336D01*
X59126Y78262D01*
X59246Y78179D01*
X59357Y78087D01*
X59468Y77985D01*
X59477Y77976D01*
X59496Y77957D01*
X59523Y77920D01*
X59560Y77874D01*
X59597Y77819D01*
X59653Y77745D01*
X59699Y77661D01*
X59754Y77569D01*
X59810Y77467D01*
X59856Y77347D01*
X59912Y77218D01*
X59949Y77088D01*
X59985Y76940D01*
X60013Y76783D01*
X60032Y76617D01*
X60041Y76441D01*
Y76432D01*
Y76404D01*
Y76367D01*
X60032Y76312D01*
Y76238D01*
X60013Y76154D01*
X60004Y76062D01*
X59985Y75970D01*
X59930Y75748D01*
X59847Y75507D01*
X59791Y75378D01*
X59736Y75258D01*
X59662Y75137D01*
X59579Y75017D01*
X59570Y75008D01*
X59551Y74980D01*
X59514Y74943D01*
X59468Y74888D01*
X59403Y74823D01*
X59320Y74749D01*
X59227Y74675D01*
X59126Y74601D01*
X59005Y74518D01*
X58876Y74444D01*
X58737Y74370D01*
X58580Y74305D01*
X58414Y74250D01*
X58238Y74213D01*
X58044Y74185D01*
X57840Y74176D01*
X57757D01*
X57693Y74185D01*
X57619Y74194D01*
X57526Y74204D01*
X57434Y74213D01*
X57323Y74231D01*
X57101Y74287D01*
X56851Y74379D01*
X56731Y74426D01*
X56611Y74490D01*
X56500Y74564D01*
X56389Y74647D01*
X56380Y74657D01*
X56361Y74666D01*
X56333Y74694D01*
X56297Y74731D01*
X56260Y74786D01*
X56204Y74841D01*
X56158Y74906D01*
X56102Y74980D01*
X56038Y75073D01*
X55982Y75165D01*
X55880Y75387D01*
X55788Y75637D01*
X55760Y75775D01*
X55733Y75923D01*
X56953Y76053D01*
Y76034D01*
X56962Y75988D01*
X56981Y75905D01*
X57008Y75812D01*
X57045Y75711D01*
X57101Y75600D01*
X57175Y75498D01*
X57258Y75396D01*
X57267Y75387D01*
X57304Y75359D01*
X57360Y75322D01*
X57434Y75276D01*
X57517Y75230D01*
X57619Y75193D01*
X57739Y75165D01*
X57859Y75156D01*
X57877D01*
X57924Y75165D01*
X57998Y75174D01*
X58090Y75193D01*
X58192Y75230D01*
X58303Y75285D01*
X58414Y75368D01*
X58516Y75470D01*
X58525Y75489D01*
X58562Y75526D01*
X58599Y75600D01*
X58654Y75711D01*
X58700Y75840D01*
X58747Y75997D01*
X58774Y76191D01*
X58784Y76413D01*
Y76423D01*
Y76441D01*
Y76469D01*
Y76515D01*
X58774Y76617D01*
X58747Y76746D01*
X58719Y76894D01*
X58673Y77042D01*
X58608Y77181D01*
X58516Y77301D01*
X58506Y77310D01*
X58469Y77347D01*
X58404Y77393D01*
X58331Y77458D01*
X58229Y77513D01*
X58109Y77560D01*
X57970Y77597D01*
X57822Y77606D01*
X57767D01*
X57730Y77597D01*
X57637Y77578D01*
X57508Y77551D01*
X57360Y77495D01*
X57203Y77412D01*
X57119Y77356D01*
X57036Y77292D01*
X56953Y77218D01*
X56870Y77134D01*
X55880Y77273D01*
X56509Y80611D01*
X59754D01*
Y79464D01*
D02*
G37*
G36*
X52506Y80685D02*
X52607D01*
X52709Y80675D01*
X52829D01*
X53070Y80648D01*
X53320Y80620D01*
X53551Y80574D01*
X53652Y80546D01*
X53745Y80518D01*
X53754D01*
X53763Y80509D01*
X53819Y80481D01*
X53902Y80435D01*
X54013Y80380D01*
X54133Y80287D01*
X54253Y80185D01*
X54373Y80056D01*
X54484Y79899D01*
Y79890D01*
X54494Y79880D01*
X54512Y79853D01*
X54531Y79825D01*
X54577Y79732D01*
X54632Y79612D01*
X54679Y79464D01*
X54725Y79298D01*
X54762Y79104D01*
X54771Y78900D01*
Y78891D01*
Y78873D01*
Y78826D01*
X54762Y78780D01*
Y78715D01*
X54752Y78651D01*
X54715Y78484D01*
X54669Y78290D01*
X54595Y78096D01*
X54484Y77893D01*
X54420Y77800D01*
X54346Y77708D01*
X54337Y77698D01*
X54327Y77689D01*
X54300Y77661D01*
X54262Y77634D01*
X54226Y77597D01*
X54170Y77551D01*
X54105Y77504D01*
X54031Y77458D01*
X53948Y77403D01*
X53847Y77356D01*
X53745Y77310D01*
X53634Y77264D01*
X53504Y77218D01*
X53375Y77181D01*
X53236Y77144D01*
X53079Y77116D01*
X53088D01*
X53098Y77107D01*
X53153Y77070D01*
X53227Y77024D01*
X53320Y76959D01*
X53430Y76876D01*
X53541Y76792D01*
X53661Y76691D01*
X53763Y76580D01*
X53773Y76570D01*
X53819Y76524D01*
X53874Y76450D01*
X53957Y76339D01*
X54068Y76201D01*
X54124Y76108D01*
X54188Y76016D01*
X54262Y75914D01*
X54337Y75803D01*
X54420Y75674D01*
X54503Y75544D01*
X55289Y74296D01*
X53735D01*
X52811Y75683D01*
X52802Y75692D01*
X52793Y75720D01*
X52765Y75757D01*
X52728Y75803D01*
X52691Y75858D01*
X52645Y75932D01*
X52543Y76080D01*
X52423Y76247D01*
X52312Y76395D01*
X52210Y76533D01*
X52164Y76580D01*
X52127Y76626D01*
X52118Y76635D01*
X52099Y76654D01*
X52062Y76691D01*
X52016Y76737D01*
X51951Y76774D01*
X51886Y76820D01*
X51812Y76857D01*
X51739Y76894D01*
X51729D01*
X51701Y76903D01*
X51655Y76922D01*
X51581Y76931D01*
X51489Y76950D01*
X51378Y76959D01*
X51248Y76968D01*
X50832D01*
Y74296D01*
X49538D01*
Y80694D01*
X52423D01*
X52506Y80685D01*
D02*
G37*
G36*
X51631Y192365D02*
Y192346D01*
Y192272D01*
Y192143D01*
Y191995D01*
Y191809D01*
X51613Y191587D01*
Y191346D01*
Y191106D01*
X51576Y190569D01*
X51539Y190013D01*
X51520Y189773D01*
X51483Y189532D01*
X51446Y189310D01*
X51409Y189106D01*
Y189088D01*
X51390Y189069D01*
Y189013D01*
X51372Y188958D01*
X51316Y188773D01*
X51242Y188550D01*
X51131Y188291D01*
X51002Y188032D01*
X50835Y187754D01*
X50631Y187495D01*
X50613Y187458D01*
X50539Y187384D01*
X50409Y187273D01*
X50242Y187125D01*
X50020Y186958D01*
X49761Y186791D01*
X49465Y186606D01*
X49131Y186458D01*
X49113D01*
X49094Y186440D01*
X49039Y186421D01*
X48965Y186403D01*
X48872Y186366D01*
X48761Y186329D01*
X48613Y186292D01*
X48465Y186273D01*
X48113Y186199D01*
X47687Y186125D01*
X47206Y186088D01*
X46669Y186069D01*
X46372D01*
X46206Y186088D01*
X46039D01*
X45835Y186106D01*
X45632Y186125D01*
X45187Y186162D01*
X44724Y186236D01*
X44262Y186347D01*
X44058Y186403D01*
X43873Y186477D01*
X43854D01*
X43836Y186495D01*
X43725Y186551D01*
X43539Y186643D01*
X43336Y186773D01*
X43095Y186940D01*
X42836Y187125D01*
X42595Y187347D01*
X42373Y187588D01*
X42354Y187625D01*
X42280Y187699D01*
X42188Y187847D01*
X42077Y188032D01*
X41965Y188236D01*
X41836Y188477D01*
X41743Y188736D01*
X41651Y189013D01*
Y189032D01*
X41632Y189069D01*
Y189125D01*
X41614Y189217D01*
X41595Y189328D01*
X41577Y189476D01*
X41558Y189643D01*
X41540Y189828D01*
X41503Y190050D01*
X41484Y190291D01*
X41466Y190550D01*
X41447Y190847D01*
X41428Y191161D01*
Y191513D01*
X41410Y191884D01*
Y192272D01*
Y199123D01*
X44002D01*
Y192161D01*
Y192143D01*
Y192087D01*
Y192013D01*
Y191902D01*
Y191754D01*
Y191606D01*
X44021Y191273D01*
Y190902D01*
X44039Y190550D01*
X44058Y190384D01*
Y190236D01*
X44076Y190124D01*
X44095Y190013D01*
Y189976D01*
X44132Y189884D01*
X44187Y189736D01*
X44262Y189550D01*
X44354Y189347D01*
X44502Y189143D01*
X44669Y188921D01*
X44873Y188736D01*
X44910Y188717D01*
X44984Y188662D01*
X45132Y188588D01*
X45317Y188514D01*
X45576Y188421D01*
X45873Y188347D01*
X46206Y188291D01*
X46595Y188273D01*
X46780D01*
X46965Y188291D01*
X47206Y188328D01*
X47483Y188384D01*
X47743Y188458D01*
X48020Y188569D01*
X48243Y188717D01*
X48261Y188736D01*
X48335Y188791D01*
X48428Y188884D01*
X48539Y189013D01*
X48650Y189180D01*
X48761Y189365D01*
X48854Y189569D01*
X48909Y189810D01*
Y189847D01*
X48928Y189939D01*
X48946Y190106D01*
X48983Y190328D01*
Y190476D01*
X49002Y190643D01*
Y190828D01*
X49020Y191013D01*
Y191235D01*
X49039Y191476D01*
Y191735D01*
Y192013D01*
Y199123D01*
X51631D01*
Y192365D01*
D02*
G37*
G36*
X60093Y186310D02*
X57631D01*
Y195587D01*
X57612Y195568D01*
X57575Y195531D01*
X57501Y195476D01*
X57390Y195383D01*
X57260Y195272D01*
X57112Y195161D01*
X56927Y195031D01*
X56723Y194883D01*
X56501Y194735D01*
X56260Y194587D01*
X56001Y194420D01*
X55723Y194272D01*
X55131Y193994D01*
X54464Y193735D01*
Y195957D01*
X54483D01*
X54501Y195976D01*
X54557Y195994D01*
X54631Y196013D01*
X54816Y196105D01*
X55075Y196216D01*
X55390Y196364D01*
X55742Y196568D01*
X56131Y196827D01*
X56538Y197124D01*
X56557Y197142D01*
X56594Y197161D01*
X56649Y197216D01*
X56723Y197290D01*
X56927Y197475D01*
X57149Y197716D01*
X57408Y198013D01*
X57668Y198383D01*
X57908Y198772D01*
X58094Y199198D01*
X60093D01*
Y186310D01*
D02*
G37*
%LPC*%
G36*
X87363Y295317D02*
X87243D01*
Y295258D01*
X87363D01*
Y295317D01*
D02*
G37*
G36*
X90049Y294601D02*
X89750D01*
Y294541D01*
X90049D01*
Y294601D01*
D02*
G37*
G36*
X94466Y288930D02*
X94406D01*
Y288871D01*
X94466D01*
Y288930D01*
D02*
G37*
G36*
X94347D02*
X94227D01*
Y288871D01*
X94347D01*
Y288930D01*
D02*
G37*
G36*
X87064Y278245D02*
X87004D01*
Y278185D01*
X87064D01*
Y278245D01*
D02*
G37*
G36*
X70887Y293825D02*
X70828D01*
Y293765D01*
X70887D01*
Y293825D01*
D02*
G37*
G36*
X72439Y290124D02*
X72380D01*
Y290064D01*
X72439D01*
Y290124D01*
D02*
G37*
G36*
X80319Y292333D02*
X80259D01*
Y292273D01*
X80319D01*
Y292333D01*
D02*
G37*
G36*
X79602Y290363D02*
X79543D01*
Y290303D01*
X79602D01*
Y290363D01*
D02*
G37*
G36*
X76677Y288035D02*
X76618D01*
Y287975D01*
X76677D01*
Y288035D01*
D02*
G37*
G36*
X72678Y284513D02*
X72618D01*
Y284453D01*
X72678D01*
Y284513D01*
D02*
G37*
G36*
X74111Y280693D02*
X74051D01*
Y280633D01*
X74111D01*
Y280693D01*
D02*
G37*
G36*
X60739Y295974D02*
X60680D01*
Y295855D01*
X60739D01*
Y295914D01*
Y295974D01*
D02*
G37*
G36*
X61277Y294362D02*
X61217D01*
Y294123D01*
X61277D01*
Y294362D01*
D02*
G37*
G36*
X66947Y287617D02*
X66888D01*
Y287498D01*
X66947D01*
Y287617D01*
D02*
G37*
G36*
X61933Y286662D02*
X61874D01*
Y286602D01*
X61933D01*
Y286662D01*
D02*
G37*
G36*
X66231Y285587D02*
X66171D01*
Y285528D01*
X66231D01*
Y285587D01*
D02*
G37*
G36*
X64440D02*
X64381D01*
Y285468D01*
X64440D01*
Y285587D01*
D02*
G37*
G36*
X67723Y285349D02*
X67664D01*
Y285289D01*
Y285229D01*
X67723D01*
Y285349D01*
D02*
G37*
G36*
X64381Y280155D02*
X64321D01*
Y280096D01*
X64381D01*
Y280155D01*
D02*
G37*
G36*
X65933Y270127D02*
X65575D01*
Y270067D01*
X65455D01*
Y270007D01*
X65336D01*
Y269948D01*
X65276D01*
Y269888D01*
X65216D01*
Y269828D01*
X65157D01*
Y269769D01*
X65097D01*
Y269530D01*
X65037D01*
Y269291D01*
X65097D01*
Y269231D01*
X66410D01*
Y269291D01*
X66530D01*
Y269590D01*
X66470D01*
Y269649D01*
X66410D01*
Y269769D01*
X66351D01*
Y269888D01*
X66291D01*
Y269948D01*
X66171D01*
Y270007D01*
X66052D01*
Y270067D01*
X65933D01*
Y270127D01*
D02*
G37*
G36*
X94526Y268813D02*
X94466D01*
Y268754D01*
X94108D01*
Y268694D01*
X93750D01*
Y268634D01*
X93690D01*
Y268575D01*
X93571D01*
Y268515D01*
X93511D01*
Y268455D01*
X93451D01*
Y268336D01*
X93392D01*
Y268217D01*
X93332D01*
Y268037D01*
X93392D01*
Y267918D01*
X93451D01*
Y267799D01*
X93571D01*
Y267739D01*
X93631D01*
Y267679D01*
X94287D01*
Y267739D01*
X94347D01*
Y267799D01*
X94466D01*
Y267858D01*
X94526D01*
Y267918D01*
X94586D01*
Y268037D01*
X94645D01*
Y268157D01*
X94705D01*
Y268396D01*
X94765D01*
Y268634D01*
X94705D01*
Y268754D01*
X94526D01*
Y268813D01*
D02*
G37*
G36*
X84318Y270007D02*
X83781D01*
Y269948D01*
X83662D01*
Y269888D01*
X83542D01*
Y269828D01*
X83483D01*
Y269769D01*
X83423D01*
Y269590D01*
X83363D01*
Y269530D01*
X83303D01*
Y269291D01*
X83244D01*
Y268396D01*
X83303D01*
Y268217D01*
X83363D01*
Y268097D01*
X83423D01*
Y267978D01*
X83483D01*
Y267918D01*
X83542D01*
Y267858D01*
X83602D01*
Y267799D01*
X83841D01*
Y267739D01*
X84259D01*
Y267799D01*
X84497D01*
Y267858D01*
X84557D01*
Y267918D01*
X84617D01*
Y267978D01*
X84677D01*
Y268037D01*
X84736D01*
Y268217D01*
X84796D01*
Y268336D01*
X84856D01*
Y268515D01*
Y268575D01*
Y269410D01*
X84796D01*
Y269530D01*
X84736D01*
Y269649D01*
X84677D01*
Y269769D01*
X84617D01*
Y269828D01*
X84557D01*
Y269888D01*
X84497D01*
Y269948D01*
X84318D01*
Y270007D01*
D02*
G37*
G36*
X78050D02*
X77513D01*
Y269948D01*
X77394D01*
Y269888D01*
X77334D01*
Y269828D01*
X77215D01*
Y269769D01*
X77155D01*
Y269649D01*
X77095D01*
Y269530D01*
X77036D01*
Y269470D01*
X76976D01*
Y268276D01*
X77036D01*
Y268217D01*
X77095D01*
Y268037D01*
X77155D01*
Y267978D01*
X77215D01*
Y267918D01*
X77274D01*
Y267858D01*
X77394D01*
Y267799D01*
X77573D01*
Y267739D01*
X77991D01*
Y267799D01*
X78230D01*
Y267858D01*
X78289D01*
Y267978D01*
X78409D01*
Y268157D01*
X78468D01*
Y268217D01*
X78528D01*
Y268336D01*
X78588D01*
Y268873D01*
Y268933D01*
Y269410D01*
X78528D01*
Y269530D01*
X78468D01*
Y269590D01*
X78409D01*
Y269709D01*
X78349D01*
Y269769D01*
X78289D01*
Y269828D01*
X78230D01*
Y269888D01*
X78170D01*
Y269948D01*
X78050D01*
Y270007D01*
D02*
G37*
G36*
X88139Y270246D02*
X87840D01*
Y270186D01*
X87721D01*
Y270127D01*
X87601D01*
Y270067D01*
X87542D01*
Y269948D01*
X87482D01*
Y269888D01*
X87422D01*
Y269112D01*
X87482D01*
Y269052D01*
X87542D01*
Y268993D01*
X87601D01*
Y268933D01*
X87721D01*
Y268873D01*
X87781D01*
Y268813D01*
X88198D01*
Y268873D01*
X88318D01*
Y268933D01*
X88378D01*
Y268993D01*
X88437D01*
Y269052D01*
X88497D01*
Y269112D01*
X88556D01*
Y269351D01*
X88616D01*
Y269709D01*
X88556D01*
Y269948D01*
X88497D01*
Y270007D01*
X88437D01*
Y270067D01*
X88378D01*
Y270127D01*
X88258D01*
Y270186D01*
X88139D01*
Y270246D01*
D02*
G37*
G36*
X88855Y266963D02*
X87303D01*
Y266903D01*
X87243D01*
Y266844D01*
X87184D01*
Y266784D01*
X87124D01*
Y266665D01*
X87064D01*
Y266605D01*
X87004D01*
Y266426D01*
X87064D01*
Y266306D01*
X87124D01*
Y266247D01*
X87184D01*
Y266187D01*
X87243D01*
Y266127D01*
X87363D01*
Y266068D01*
X87601D01*
Y266008D01*
X88198D01*
Y266068D01*
X88556D01*
Y266127D01*
X88676D01*
Y266187D01*
X88795D01*
Y266247D01*
X88855D01*
Y266306D01*
X88915D01*
Y266366D01*
X88974D01*
Y266426D01*
X89034D01*
Y266784D01*
X88974D01*
Y266844D01*
X88855D01*
Y266963D01*
D02*
G37*
G36*
X139855Y185456D02*
X137944D01*
Y178556D01*
X133709Y185456D01*
X131710D01*
Y175209D01*
X133621D01*
Y181961D01*
X137782Y175209D01*
X139855D01*
Y185456D01*
D02*
G37*
G36*
X145126Y185515D02*
X144978D01*
X144727Y185501D01*
X144490Y185486D01*
X144031Y185412D01*
X143646Y185293D01*
X143468Y185234D01*
X143305Y185160D01*
X143157Y185101D01*
X143039Y185027D01*
X142920Y184968D01*
X142831Y184923D01*
X142757Y184864D01*
X142713Y184834D01*
X142683Y184820D01*
X142668Y184805D01*
X142505Y184657D01*
X142357Y184508D01*
X142224Y184331D01*
X142106Y184138D01*
X141928Y183753D01*
X141780Y183383D01*
X141735Y183191D01*
X141691Y183028D01*
X141646Y182880D01*
X141632Y182746D01*
X141602Y182628D01*
Y182554D01*
X141587Y182495D01*
Y182480D01*
X143542Y182287D01*
X143572Y182584D01*
X143631Y182835D01*
X143690Y183057D01*
X143764Y183220D01*
X143823Y183354D01*
X143883Y183442D01*
X143927Y183502D01*
X143942Y183516D01*
X144090Y183635D01*
X144253Y183724D01*
X144416Y183798D01*
X144579Y183842D01*
X144712Y183872D01*
X144830Y183887D01*
X144934D01*
X145156Y183872D01*
X145349Y183827D01*
X145511Y183768D01*
X145660Y183709D01*
X145763Y183650D01*
X145852Y183590D01*
X145897Y183546D01*
X145911Y183531D01*
X146030Y183383D01*
X146119Y183220D01*
X146178Y183057D01*
X146222Y182894D01*
X146252Y182746D01*
X146267Y182613D01*
Y182539D01*
Y182524D01*
Y182509D01*
X146252Y182287D01*
X146207Y182080D01*
X146133Y181873D01*
X146059Y181695D01*
X145985Y181532D01*
X145911Y181414D01*
X145867Y181340D01*
X145852Y181310D01*
X145793Y181221D01*
X145704Y181117D01*
X145585Y180984D01*
X145467Y180866D01*
X145201Y180584D01*
X144934Y180303D01*
X144667Y180036D01*
X144549Y179918D01*
X144430Y179829D01*
X144342Y179740D01*
X144282Y179681D01*
X144238Y179637D01*
X144223Y179622D01*
X143927Y179340D01*
X143660Y179074D01*
X143409Y178822D01*
X143187Y178600D01*
X142979Y178378D01*
X142802Y178171D01*
X142639Y177993D01*
X142505Y177815D01*
X142387Y177667D01*
X142283Y177534D01*
X142194Y177430D01*
X142135Y177327D01*
X142076Y177267D01*
X142046Y177208D01*
X142017Y177178D01*
Y177164D01*
X141824Y176823D01*
X141676Y176468D01*
X141558Y176142D01*
X141469Y175846D01*
X141410Y175579D01*
X141395Y175476D01*
X141380Y175387D01*
X141365Y175313D01*
X141350Y175253D01*
Y175209D01*
X148236D01*
Y177030D01*
X144327D01*
X144445Y177223D01*
X144579Y177386D01*
X144638Y177460D01*
X144682Y177519D01*
X144712Y177549D01*
X144727Y177563D01*
X144786Y177623D01*
X144845Y177697D01*
X145023Y177860D01*
X145215Y178052D01*
X145408Y178245D01*
X145600Y178422D01*
X145763Y178570D01*
X145822Y178630D01*
X145867Y178674D01*
X145897Y178689D01*
X145911Y178704D01*
X146237Y179015D01*
X146504Y179266D01*
X146726Y179503D01*
X146903Y179681D01*
X147037Y179829D01*
X147126Y179933D01*
X147185Y180007D01*
X147200Y180022D01*
X147392Y180273D01*
X147555Y180510D01*
X147688Y180732D01*
X147792Y180925D01*
X147881Y181088D01*
X147940Y181221D01*
X147970Y181295D01*
X147984Y181325D01*
X148073Y181562D01*
X148132Y181799D01*
X148177Y182021D01*
X148207Y182228D01*
X148221Y182391D01*
X148236Y182524D01*
Y182643D01*
X148221Y182865D01*
X148192Y183087D01*
X148162Y183294D01*
X148103Y183487D01*
X147955Y183827D01*
X147807Y184123D01*
X147718Y184257D01*
X147644Y184360D01*
X147570Y184464D01*
X147496Y184538D01*
X147437Y184597D01*
X147407Y184657D01*
X147377Y184671D01*
X147362Y184686D01*
X147200Y184834D01*
X147007Y184968D01*
X146829Y185071D01*
X146622Y185160D01*
X146237Y185308D01*
X145852Y185412D01*
X145674Y185441D01*
X145511Y185471D01*
X145363Y185486D01*
X145230Y185501D01*
X145126Y185515D01*
D02*
G37*
G36*
X139655Y90206D02*
X137745D01*
Y83306D01*
X133509Y90206D01*
X131510D01*
Y79959D01*
X133420D01*
Y86712D01*
X137582Y79959D01*
X139655D01*
Y90206D01*
D02*
G37*
G36*
X139392Y219746D02*
X137481D01*
Y212846D01*
X133246Y219746D01*
X131247D01*
Y209499D01*
X133158D01*
Y216252D01*
X137319Y209499D01*
X139392D01*
Y219746D01*
D02*
G37*
G36*
X146159Y219806D02*
X144560D01*
X144412Y219465D01*
X144219Y219154D01*
X144012Y218858D01*
X143805Y218621D01*
X143627Y218428D01*
X143464Y218280D01*
X143405Y218221D01*
X143360Y218177D01*
X143331Y218162D01*
X143316Y218147D01*
X142990Y217910D01*
X142679Y217703D01*
X142398Y217540D01*
X142146Y217421D01*
X141939Y217332D01*
X141791Y217258D01*
X141731Y217244D01*
X141687Y217229D01*
X141672Y217214D01*
X141657D01*
Y215437D01*
X142191Y215644D01*
X142664Y215867D01*
X142886Y215985D01*
X143094Y216118D01*
X143286Y216237D01*
X143464Y216355D01*
X143627Y216474D01*
X143775Y216577D01*
X143893Y216666D01*
X143997Y216755D01*
X144086Y216829D01*
X144145Y216873D01*
X144175Y216903D01*
X144190Y216918D01*
Y209499D01*
X146159D01*
Y219806D01*
D02*
G37*
G36*
X139803Y124504D02*
X137893D01*
Y117603D01*
X133658Y124504D01*
X131658D01*
Y114256D01*
X133569D01*
Y121009D01*
X137730Y114256D01*
X139803D01*
Y124504D01*
D02*
G37*
G36*
X75962Y262256D02*
X74520D01*
Y259524D01*
X75851D01*
X75948Y259538D01*
X76198D01*
X76448Y259552D01*
X76697Y259579D01*
X76919Y259621D01*
X77016Y259635D01*
X77099Y259662D01*
X77113Y259676D01*
X77169Y259690D01*
X77238Y259732D01*
X77321Y259773D01*
X77418Y259843D01*
X77515Y259926D01*
X77626Y260023D01*
X77709Y260134D01*
X77723Y260148D01*
X77751Y260189D01*
X77779Y260259D01*
X77821Y260356D01*
X77862Y260467D01*
X77904Y260592D01*
X77917Y260730D01*
X77931Y260883D01*
Y260911D01*
Y260966D01*
X77917Y261063D01*
X77890Y261188D01*
X77848Y261327D01*
X77793Y261479D01*
X77723Y261618D01*
X77612Y261757D01*
X77599Y261770D01*
X77557Y261812D01*
X77488Y261868D01*
X77404Y261937D01*
X77294Y262020D01*
X77155Y262089D01*
X77002Y262145D01*
X76836Y262187D01*
X76822D01*
X76767Y262200D01*
X76669Y262214D01*
X76531Y262228D01*
X76350D01*
X76226Y262242D01*
X76101D01*
X75962Y262256D01*
D02*
G37*
G36*
X117054Y259981D02*
X116957D01*
X116846Y259954D01*
X116707Y259926D01*
X116555Y259870D01*
X116389Y259801D01*
X116222Y259690D01*
X116069Y259538D01*
X116056Y259524D01*
X116014Y259454D01*
X115945Y259357D01*
X115875Y259219D01*
X115792Y259052D01*
X115737Y258844D01*
X115695Y258608D01*
X115681Y258345D01*
X118427D01*
Y258359D01*
Y258387D01*
Y258414D01*
X118413Y258470D01*
X118399Y258622D01*
X118372Y258789D01*
X118316Y258983D01*
X118247Y259191D01*
X118136Y259385D01*
X118011Y259552D01*
X117997Y259565D01*
X117942Y259621D01*
X117858Y259690D01*
X117748Y259773D01*
X117609Y259843D01*
X117443Y259912D01*
X117262Y259968D01*
X117054Y259981D01*
D02*
G37*
G36*
X102132D02*
X102035D01*
X101924Y259954D01*
X101785Y259926D01*
X101632Y259870D01*
X101466Y259801D01*
X101300Y259690D01*
X101147Y259538D01*
X101133Y259524D01*
X101092Y259454D01*
X101022Y259357D01*
X100953Y259219D01*
X100870Y259052D01*
X100814Y258844D01*
X100773Y258608D01*
X100759Y258345D01*
X103505D01*
Y258359D01*
Y258387D01*
Y258414D01*
X103491Y258470D01*
X103477Y258622D01*
X103449Y258789D01*
X103394Y258983D01*
X103324Y259191D01*
X103214Y259385D01*
X103089Y259552D01*
X103075Y259565D01*
X103019Y259621D01*
X102936Y259690D01*
X102825Y259773D01*
X102687Y259843D01*
X102520Y259912D01*
X102340Y259968D01*
X102132Y259981D01*
D02*
G37*
G36*
X89886Y259898D02*
X89817D01*
X89761Y259884D01*
X89636Y259870D01*
X89470Y259829D01*
X89276Y259760D01*
X89068Y259662D01*
X88860Y259524D01*
X88666Y259343D01*
X88652Y259316D01*
X88596Y259246D01*
X88513Y259108D01*
X88430Y258941D01*
X88333Y258719D01*
X88263Y258442D01*
X88208Y258123D01*
X88180Y257763D01*
Y257749D01*
Y257721D01*
Y257665D01*
X88194Y257596D01*
Y257499D01*
X88208Y257402D01*
X88236Y257180D01*
X88305Y256917D01*
X88388Y256653D01*
X88499Y256390D01*
X88666Y256168D01*
X88693Y256140D01*
X88749Y256084D01*
X88860Y256001D01*
X89012Y255904D01*
X89179Y255793D01*
X89387Y255710D01*
X89622Y255655D01*
X89886Y255627D01*
X89955D01*
X90011Y255641D01*
X90136Y255655D01*
X90302Y255696D01*
X90496Y255765D01*
X90704Y255849D01*
X90898Y255987D01*
X91093Y256168D01*
X91120Y256195D01*
X91176Y256265D01*
X91245Y256403D01*
X91342Y256570D01*
X91439Y256806D01*
X91509Y257069D01*
X91564Y257402D01*
X91592Y257763D01*
Y257776D01*
Y257804D01*
Y257860D01*
X91578Y257929D01*
Y258012D01*
X91564Y258123D01*
X91536Y258345D01*
X91467Y258595D01*
X91384Y258858D01*
X91259Y259122D01*
X91093Y259343D01*
X91065Y259371D01*
X91009Y259427D01*
X90898Y259524D01*
X90760Y259621D01*
X90579Y259718D01*
X90385Y259815D01*
X90149Y259870D01*
X89886Y259898D01*
D02*
G37*
G36*
X58585D02*
X58516D01*
X58460Y259884D01*
X58335Y259870D01*
X58169Y259829D01*
X57975Y259760D01*
X57767Y259662D01*
X57559Y259524D01*
X57365Y259343D01*
X57351Y259316D01*
X57295Y259246D01*
X57212Y259108D01*
X57129Y258941D01*
X57032Y258719D01*
X56962Y258442D01*
X56907Y258123D01*
X56879Y257763D01*
Y257749D01*
Y257721D01*
Y257665D01*
X56893Y257596D01*
Y257499D01*
X56907Y257402D01*
X56935Y257180D01*
X57004Y256917D01*
X57087Y256653D01*
X57198Y256390D01*
X57365Y256168D01*
X57392Y256140D01*
X57448Y256084D01*
X57559Y256001D01*
X57711Y255904D01*
X57878Y255793D01*
X58086Y255710D01*
X58321Y255655D01*
X58585Y255627D01*
X58654D01*
X58710Y255641D01*
X58835Y255655D01*
X59001Y255696D01*
X59195Y255765D01*
X59403Y255849D01*
X59597Y255987D01*
X59791Y256168D01*
X59819Y256195D01*
X59875Y256265D01*
X59944Y256403D01*
X60041Y256570D01*
X60138Y256806D01*
X60208Y257069D01*
X60263Y257402D01*
X60291Y257763D01*
Y257776D01*
Y257804D01*
Y257860D01*
X60277Y257929D01*
Y258012D01*
X60263Y258123D01*
X60235Y258345D01*
X60166Y258595D01*
X60083Y258858D01*
X59958Y259122D01*
X59791Y259343D01*
X59764Y259371D01*
X59708Y259427D01*
X59597Y259524D01*
X59459Y259621D01*
X59278Y259718D01*
X59084Y259815D01*
X58849Y259870D01*
X58585Y259898D01*
D02*
G37*
G36*
X35050Y259981D02*
X34953D01*
X34842Y259954D01*
X34704Y259926D01*
X34551Y259870D01*
X34385Y259801D01*
X34218Y259690D01*
X34066Y259538D01*
X34052Y259524D01*
X34010Y259454D01*
X33941Y259357D01*
X33872Y259219D01*
X33788Y259052D01*
X33733Y258844D01*
X33691Y258608D01*
X33677Y258345D01*
X36423D01*
Y258359D01*
Y258387D01*
Y258414D01*
X36409Y258470D01*
X36396Y258622D01*
X36368Y258789D01*
X36312Y258983D01*
X36243Y259191D01*
X36132Y259385D01*
X36007Y259552D01*
X35993Y259565D01*
X35938Y259621D01*
X35855Y259690D01*
X35744Y259773D01*
X35605Y259843D01*
X35439Y259912D01*
X35258Y259968D01*
X35050Y259981D01*
D02*
G37*
G36*
X6584Y135618D02*
X5104D01*
Y133991D01*
X6362D01*
X6547Y134000D01*
X6741Y134010D01*
X6935Y134019D01*
X7018Y134028D01*
X7092Y134037D01*
X7166Y134056D01*
X7212Y134065D01*
X7222D01*
X7249Y134083D01*
X7296Y134102D01*
X7342Y134130D01*
X7462Y134213D01*
X7517Y134268D01*
X7573Y134333D01*
X7582Y134342D01*
X7592Y134370D01*
X7619Y134407D01*
X7647Y134462D01*
X7665Y134537D01*
X7693Y134620D01*
X7702Y134712D01*
X7712Y134814D01*
Y134832D01*
Y134869D01*
X7702Y134925D01*
X7693Y134999D01*
X7665Y135082D01*
X7638Y135165D01*
X7592Y135258D01*
X7536Y135332D01*
X7527Y135341D01*
X7508Y135369D01*
X7462Y135396D01*
X7406Y135443D01*
X7342Y135489D01*
X7259Y135526D01*
X7157Y135563D01*
X7046Y135590D01*
X7037D01*
X7009Y135600D01*
X6953D01*
X6870Y135609D01*
X6667D01*
X6584Y135618D01*
D02*
G37*
G36*
X6592Y164702D02*
X5112D01*
Y163075D01*
X6370D01*
X6555Y163084D01*
X6749Y163093D01*
X6943Y163103D01*
X7026Y163112D01*
X7100Y163121D01*
X7174Y163140D01*
X7220Y163149D01*
X7230D01*
X7257Y163167D01*
X7304Y163186D01*
X7350Y163214D01*
X7470Y163297D01*
X7526Y163352D01*
X7581Y163417D01*
X7590Y163426D01*
X7599Y163454D01*
X7627Y163491D01*
X7655Y163547D01*
X7673Y163620D01*
X7701Y163704D01*
X7710Y163796D01*
X7720Y163898D01*
Y163916D01*
Y163953D01*
X7710Y164009D01*
X7701Y164083D01*
X7673Y164166D01*
X7646Y164249D01*
X7599Y164342D01*
X7544Y164416D01*
X7535Y164425D01*
X7516Y164453D01*
X7470Y164480D01*
X7415Y164527D01*
X7350Y164573D01*
X7267Y164610D01*
X7165Y164647D01*
X7054Y164674D01*
X7045D01*
X7017Y164684D01*
X6962D01*
X6878Y164693D01*
X6675D01*
X6592Y164702D01*
D02*
G37*
G36*
X58119Y93966D02*
X56631Y91766D01*
X58119D01*
Y93966D01*
D02*
G37*
G36*
X52304Y94724D02*
X50824D01*
Y93097D01*
X52082D01*
X52267Y93106D01*
X52461Y93116D01*
X52655Y93125D01*
X52738Y93134D01*
X52812Y93143D01*
X52886Y93162D01*
X52932Y93171D01*
X52942D01*
X52969Y93189D01*
X53016Y93208D01*
X53062Y93236D01*
X53182Y93319D01*
X53238Y93374D01*
X53293Y93439D01*
X53302Y93448D01*
X53312Y93476D01*
X53339Y93513D01*
X53367Y93568D01*
X53385Y93643D01*
X53413Y93726D01*
X53422Y93818D01*
X53432Y93920D01*
Y93938D01*
Y93975D01*
X53422Y94031D01*
X53413Y94105D01*
X53385Y94188D01*
X53358Y94271D01*
X53312Y94364D01*
X53256Y94438D01*
X53247Y94447D01*
X53228Y94475D01*
X53182Y94502D01*
X53127Y94549D01*
X53062Y94595D01*
X52979Y94632D01*
X52877Y94669D01*
X52766Y94697D01*
X52757D01*
X52729Y94706D01*
X52674D01*
X52590Y94715D01*
X52387D01*
X52304Y94724D01*
D02*
G37*
G36*
X79398Y249749D02*
X77919D01*
Y248121D01*
X79177D01*
X79362Y248131D01*
X79556Y248140D01*
X79750Y248149D01*
X79833Y248158D01*
X79907Y248168D01*
X79981Y248186D01*
X80027Y248195D01*
X80036D01*
X80064Y248214D01*
X80110Y248232D01*
X80157Y248260D01*
X80277Y248343D01*
X80332Y248399D01*
X80388Y248464D01*
X80397Y248473D01*
X80406Y248501D01*
X80434Y248538D01*
X80462Y248593D01*
X80480Y248667D01*
X80508Y248750D01*
X80517Y248843D01*
X80527Y248944D01*
Y248963D01*
Y249000D01*
X80517Y249055D01*
X80508Y249129D01*
X80480Y249212D01*
X80452Y249296D01*
X80406Y249388D01*
X80351Y249462D01*
X80342Y249471D01*
X80323Y249499D01*
X80277Y249527D01*
X80221Y249573D01*
X80157Y249619D01*
X80073Y249656D01*
X79972Y249693D01*
X79861Y249721D01*
X79852D01*
X79824Y249730D01*
X79768D01*
X79685Y249739D01*
X79482D01*
X79398Y249749D01*
D02*
G37*
G36*
X52312Y79612D02*
X50832D01*
Y77985D01*
X52090D01*
X52275Y77994D01*
X52469Y78004D01*
X52663Y78013D01*
X52746Y78022D01*
X52820Y78031D01*
X52894Y78050D01*
X52940Y78059D01*
X52950D01*
X52977Y78078D01*
X53024Y78096D01*
X53070Y78124D01*
X53190Y78207D01*
X53246Y78262D01*
X53301Y78327D01*
X53310Y78336D01*
X53320Y78364D01*
X53347Y78401D01*
X53375Y78457D01*
X53393Y78531D01*
X53421Y78614D01*
X53430Y78706D01*
X53440Y78808D01*
Y78826D01*
Y78863D01*
X53430Y78919D01*
X53421Y78993D01*
X53393Y79076D01*
X53366Y79159D01*
X53320Y79252D01*
X53264Y79326D01*
X53255Y79335D01*
X53236Y79363D01*
X53190Y79390D01*
X53134Y79437D01*
X53070Y79483D01*
X52987Y79520D01*
X52885Y79557D01*
X52774Y79584D01*
X52765D01*
X52737Y79594D01*
X52681D01*
X52598Y79603D01*
X52395D01*
X52312Y79612D01*
D02*
G37*
%LPD*%
D10*
X50725Y179070D02*
G03*
X50725Y179070I-635J0D01*
G01*
D11*
X67000Y120760D02*
X83000D01*
X67000Y102760D02*
X83000D01*
X31670Y132350D02*
Y134350D01*
X21670Y132350D02*
Y134350D01*
Y161560D02*
Y163560D01*
X31670Y161560D02*
Y163560D01*
X77740Y97710D02*
X79740D01*
X77740Y87710D02*
X79740D01*
X80280Y231220D02*
X82280D01*
X80280Y241220D02*
X82280D01*
X77740Y82470D02*
X79740D01*
X77740Y72470D02*
X79740D01*
X62590Y125860D02*
Y173860D01*
X92590Y125860D02*
Y173860D01*
X62590D02*
X92590D01*
X62590Y125860D02*
X92590D01*
D12*
X97090Y215000D02*
Y225000D01*
X96090D02*
X98090D01*
X96090Y215000D02*
X98090D01*
X97090Y188040D02*
Y198040D01*
X96090D02*
X98090D01*
X96090Y188040D02*
X98090D01*
X21670Y133350D02*
X26670D01*
X31670D01*
X26670Y162560D02*
X31670D01*
X21670D02*
X26670D01*
X78740Y87710D02*
Y92710D01*
Y97710D01*
X81280Y236220D02*
Y241220D01*
Y231220D02*
Y236220D01*
X78740Y72470D02*
Y77470D01*
Y82470D01*
M02*
