G04*
G04 #@! TF.GenerationSoftware,Altium Limited,Altium Designer,23.11.1 (41)*
G04*
G04 Layer_Color=255*
%FSLAX44Y44*%
%MOMM*%
G71*
G04*
G04 #@! TF.SameCoordinates,663EB88F-05E0-4BFF-A99C-D42E022A2D9A*
G04*
G04*
G04 #@! TF.FilePolarity,Positive*
G04*
G01*
G75*
%ADD13R,1.1500X1.8000*%
%ADD14R,0.9500X1.0000*%
%ADD15R,2.0000X1.5000*%
%ADD16R,1.0000X0.7500*%
%ADD17R,0.7500X1.0000*%
%ADD18R,1.5000X0.6000*%
%ADD27C,1.5240*%
D13*
X92000Y111760D02*
D03*
X58000D02*
D03*
D14*
X89090Y220000D02*
D03*
X105090D02*
D03*
X89090Y193040D02*
D03*
X105090D02*
D03*
D15*
X140000Y165000D02*
D03*
Y100000D02*
D03*
Y135000D02*
D03*
Y200000D02*
D03*
D16*
X26670Y140850D02*
D03*
Y125850D02*
D03*
Y155060D02*
D03*
Y170060D02*
D03*
D17*
X71240Y92710D02*
D03*
X86240D02*
D03*
X88780Y236220D02*
D03*
X73780D02*
D03*
X71240Y77470D02*
D03*
X86240D02*
D03*
D18*
X50090Y168910D02*
D03*
Y156210D02*
D03*
Y143510D02*
D03*
Y130810D02*
D03*
X105090Y168910D02*
D03*
Y156210D02*
D03*
Y143510D02*
D03*
Y130810D02*
D03*
D27*
X16000Y16000D02*
D03*
X134000D02*
D03*
X16000Y284000D02*
D03*
X134000D02*
D03*
M02*
