G04*
G04 #@! TF.GenerationSoftware,Altium Limited,Altium Designer,23.10.1 (27)*
G04*
G04 Layer_Color=65535*
%FSLAX44Y44*%
%MOMM*%
G71*
G04*
G04 #@! TF.SameCoordinates,2BD1216A-9774-42B0-94A2-F4FBBB1B66CC*
G04*
G04*
G04 #@! TF.FilePolarity,Positive*
G04*
G01*
G75*
%ADD10C,0.2540*%
%ADD11C,0.1000*%
%ADD12C,0.1270*%
G36*
X222084Y274422D02*
X162084D01*
Y294422D01*
X222084D01*
Y274422D01*
D02*
G37*
G36*
X83395Y245702D02*
X82165D01*
Y250335D01*
X82156Y250325D01*
X82138Y250307D01*
X82101Y250279D01*
X82045Y250233D01*
X81981Y250177D01*
X81907Y250122D01*
X81814Y250057D01*
X81713Y249983D01*
X81601Y249909D01*
X81481Y249835D01*
X81352Y249752D01*
X81213Y249678D01*
X80917Y249540D01*
X80584Y249410D01*
Y250520D01*
X80594D01*
X80603Y250529D01*
X80631Y250538D01*
X80668Y250547D01*
X80760Y250593D01*
X80890Y250649D01*
X81047Y250723D01*
X81222Y250825D01*
X81417Y250954D01*
X81620Y251102D01*
X81629Y251111D01*
X81648Y251120D01*
X81676Y251148D01*
X81713Y251185D01*
X81814Y251278D01*
X81925Y251398D01*
X82055Y251546D01*
X82184Y251731D01*
X82304Y251925D01*
X82397Y252138D01*
X83395D01*
Y245702D01*
D02*
G37*
G36*
X77053Y252091D02*
X77154D01*
X77256Y252082D01*
X77376D01*
X77617Y252054D01*
X77866Y252027D01*
X78097Y251980D01*
X78199Y251953D01*
X78292Y251925D01*
X78301D01*
X78310Y251916D01*
X78366Y251888D01*
X78449Y251842D01*
X78560Y251786D01*
X78680Y251694D01*
X78800Y251592D01*
X78920Y251462D01*
X79031Y251305D01*
Y251296D01*
X79040Y251287D01*
X79059Y251259D01*
X79078Y251231D01*
X79124Y251139D01*
X79179Y251019D01*
X79225Y250871D01*
X79272Y250704D01*
X79309Y250510D01*
X79318Y250307D01*
Y250298D01*
Y250279D01*
Y250233D01*
X79309Y250187D01*
Y250122D01*
X79299Y250057D01*
X79262Y249891D01*
X79216Y249697D01*
X79142Y249503D01*
X79031Y249299D01*
X78966Y249207D01*
X78893Y249114D01*
X78883Y249105D01*
X78874Y249096D01*
X78846Y249068D01*
X78809Y249040D01*
X78772Y249003D01*
X78717Y248957D01*
X78652Y248911D01*
X78578Y248864D01*
X78495Y248809D01*
X78393Y248763D01*
X78292Y248717D01*
X78181Y248670D01*
X78051Y248624D01*
X77922Y248587D01*
X77783Y248550D01*
X77626Y248522D01*
X77635D01*
X77644Y248513D01*
X77700Y248476D01*
X77774Y248430D01*
X77866Y248365D01*
X77977Y248282D01*
X78088Y248199D01*
X78208Y248097D01*
X78310Y247986D01*
X78319Y247977D01*
X78366Y247931D01*
X78421Y247857D01*
X78504Y247746D01*
X78615Y247607D01*
X78671Y247515D01*
X78735Y247422D01*
X78809Y247320D01*
X78883Y247210D01*
X78966Y247080D01*
X79050Y246951D01*
X79836Y245702D01*
X78282D01*
X77358Y247089D01*
X77348Y247099D01*
X77339Y247126D01*
X77312Y247163D01*
X77275Y247210D01*
X77238Y247265D01*
X77191Y247339D01*
X77090Y247487D01*
X76969Y247653D01*
X76859Y247801D01*
X76757Y247940D01*
X76711Y247986D01*
X76674Y248032D01*
X76664Y248042D01*
X76646Y248060D01*
X76609Y248097D01*
X76563Y248143D01*
X76498Y248180D01*
X76433Y248227D01*
X76359Y248264D01*
X76285Y248300D01*
X76276D01*
X76248Y248310D01*
X76202Y248328D01*
X76128Y248337D01*
X76036Y248356D01*
X75925Y248365D01*
X75795Y248375D01*
X75379D01*
Y245702D01*
X74085D01*
Y252101D01*
X76969D01*
X77053Y252091D01*
D02*
G37*
G36*
X132493Y164600D02*
X132595Y164591D01*
X132706Y164572D01*
X132836Y164554D01*
X132974Y164526D01*
X133122Y164489D01*
X133279Y164443D01*
X133437Y164387D01*
X133603Y164313D01*
X133760Y164239D01*
X133908Y164147D01*
X134065Y164036D01*
X134204Y163916D01*
X134213D01*
X134222Y163897D01*
X134250Y163869D01*
X134278Y163842D01*
X134315Y163796D01*
X134352Y163740D01*
X134454Y163611D01*
X134555Y163444D01*
X134666Y163241D01*
X134768Y163010D01*
X134860Y162742D01*
X133584Y162437D01*
Y162446D01*
X133575Y162455D01*
Y162483D01*
X133557Y162520D01*
X133529Y162603D01*
X133483Y162714D01*
X133418Y162843D01*
X133335Y162973D01*
X133224Y163102D01*
X133104Y163213D01*
X133085Y163222D01*
X133039Y163259D01*
X132965Y163305D01*
X132863Y163361D01*
X132734Y163417D01*
X132586Y163463D01*
X132420Y163500D01*
X132235Y163509D01*
X132170D01*
X132114Y163500D01*
X132059Y163491D01*
X131985Y163481D01*
X131828Y163444D01*
X131643Y163379D01*
X131449Y163287D01*
X131347Y163232D01*
X131255Y163167D01*
X131162Y163084D01*
X131079Y162991D01*
Y162982D01*
X131060Y162964D01*
X131042Y162936D01*
X131014Y162889D01*
X130977Y162834D01*
X130940Y162769D01*
X130903Y162686D01*
X130866Y162594D01*
X130820Y162483D01*
X130783Y162362D01*
X130746Y162224D01*
X130709Y162076D01*
X130681Y161910D01*
X130663Y161734D01*
X130654Y161540D01*
X130644Y161327D01*
Y161318D01*
Y161271D01*
Y161207D01*
X130654Y161133D01*
Y161031D01*
X130672Y160911D01*
X130681Y160791D01*
X130700Y160652D01*
X130755Y160365D01*
X130829Y160079D01*
X130876Y159940D01*
X130940Y159811D01*
X131005Y159691D01*
X131079Y159589D01*
X131088Y159580D01*
X131097Y159570D01*
X131125Y159543D01*
X131162Y159506D01*
X131255Y159432D01*
X131384Y159339D01*
X131541Y159237D01*
X131735Y159164D01*
X131957Y159099D01*
X132078Y159089D01*
X132207Y159080D01*
X132253D01*
X132290Y159089D01*
X132392Y159099D01*
X132512Y159117D01*
X132641Y159164D01*
X132789Y159219D01*
X132937Y159293D01*
X133085Y159404D01*
X133104Y159422D01*
X133150Y159469D01*
X133215Y159543D01*
X133289Y159654D01*
X133381Y159802D01*
X133464Y159977D01*
X133547Y160190D01*
X133622Y160439D01*
X134879Y160051D01*
Y160042D01*
X134870Y160005D01*
X134851Y159949D01*
X134823Y159875D01*
X134786Y159792D01*
X134749Y159691D01*
X134703Y159580D01*
X134648Y159459D01*
X134518Y159210D01*
X134352Y158951D01*
X134149Y158701D01*
X134038Y158590D01*
X133917Y158489D01*
X133908Y158479D01*
X133890Y158470D01*
X133853Y158442D01*
X133797Y158405D01*
X133732Y158368D01*
X133649Y158331D01*
X133557Y158285D01*
X133455Y158239D01*
X133335Y158183D01*
X133205Y158137D01*
X133067Y158100D01*
X132919Y158063D01*
X132762Y158026D01*
X132586Y157999D01*
X132410Y157989D01*
X132216Y157980D01*
X132161D01*
X132096Y157989D01*
X132003Y157999D01*
X131902Y158008D01*
X131772Y158026D01*
X131634Y158054D01*
X131476Y158091D01*
X131319Y158137D01*
X131153Y158193D01*
X130977Y158267D01*
X130802Y158350D01*
X130626Y158442D01*
X130450Y158562D01*
X130284Y158692D01*
X130127Y158849D01*
X130117Y158858D01*
X130090Y158886D01*
X130053Y158942D01*
X129997Y159006D01*
X129942Y159099D01*
X129868Y159200D01*
X129794Y159330D01*
X129720Y159478D01*
X129646Y159635D01*
X129572Y159811D01*
X129498Y160014D01*
X129443Y160227D01*
X129387Y160449D01*
X129350Y160698D01*
X129322Y160957D01*
X129313Y161234D01*
Y161244D01*
Y161253D01*
Y161308D01*
X129322Y161392D01*
Y161503D01*
X129341Y161632D01*
X129359Y161789D01*
X129378Y161956D01*
X129415Y162150D01*
X129461Y162344D01*
X129516Y162547D01*
X129581Y162751D01*
X129664Y162964D01*
X129757Y163167D01*
X129868Y163361D01*
X129988Y163546D01*
X130136Y163722D01*
X130145Y163731D01*
X130173Y163759D01*
X130219Y163805D01*
X130284Y163860D01*
X130367Y163925D01*
X130469Y163999D01*
X130580Y164082D01*
X130718Y164165D01*
X130866Y164249D01*
X131024Y164332D01*
X131208Y164406D01*
X131393Y164471D01*
X131606Y164526D01*
X131819Y164572D01*
X132059Y164600D01*
X132299Y164609D01*
X132410D01*
X132493Y164600D01*
D02*
G37*
G36*
X137884Y164517D02*
X137967Y164508D01*
X138050Y164498D01*
X138152Y164480D01*
X138253Y164452D01*
X138485Y164387D01*
X138605Y164341D01*
X138734Y164276D01*
X138855Y164212D01*
X138965Y164138D01*
X139086Y164045D01*
X139187Y163944D01*
X139197Y163934D01*
X139206Y163925D01*
X139234Y163897D01*
X139261Y163860D01*
X139335Y163768D01*
X139418Y163638D01*
X139502Y163481D01*
X139566Y163296D01*
X139622Y163093D01*
X139631Y162991D01*
X139640Y162880D01*
Y162871D01*
Y162843D01*
X139631Y162797D01*
X139622Y162742D01*
X139613Y162668D01*
X139594Y162584D01*
X139566Y162492D01*
X139529Y162390D01*
X139474Y162288D01*
X139418Y162178D01*
X139345Y162067D01*
X139252Y161956D01*
X139141Y161845D01*
X139021Y161734D01*
X138882Y161632D01*
X138716Y161530D01*
X138725D01*
X138743Y161521D01*
X138771D01*
X138808Y161503D01*
X138910Y161475D01*
X139030Y161419D01*
X139169Y161346D01*
X139317Y161253D01*
X139465Y161133D01*
X139594Y160994D01*
X139613Y160976D01*
X139650Y160920D01*
X139696Y160837D01*
X139761Y160717D01*
X139825Y160578D01*
X139872Y160402D01*
X139909Y160217D01*
X139927Y160005D01*
Y159996D01*
Y159968D01*
Y159922D01*
X139918Y159866D01*
X139909Y159792D01*
X139890Y159709D01*
X139872Y159607D01*
X139853Y159506D01*
X139779Y159284D01*
X139724Y159164D01*
X139668Y159034D01*
X139594Y158914D01*
X139511Y158794D01*
X139418Y158673D01*
X139307Y158562D01*
X139298Y158553D01*
X139280Y158535D01*
X139243Y158507D01*
X139197Y158470D01*
X139132Y158424D01*
X139067Y158378D01*
X138975Y158322D01*
X138882Y158267D01*
X138780Y158211D01*
X138660Y158156D01*
X138531Y158110D01*
X138401Y158063D01*
X138253Y158026D01*
X138106Y157999D01*
X137939Y157980D01*
X137773Y157971D01*
X137690D01*
X137625Y157980D01*
X137551Y157989D01*
X137468Y157999D01*
X137375Y158017D01*
X137264Y158035D01*
X137042Y158091D01*
X136802Y158183D01*
X136672Y158239D01*
X136562Y158304D01*
X136441Y158387D01*
X136330Y158470D01*
X136321Y158479D01*
X136303Y158498D01*
X136275Y158526D01*
X136238Y158562D01*
X136192Y158609D01*
X136145Y158673D01*
X136090Y158738D01*
X136035Y158821D01*
X135979Y158914D01*
X135914Y159006D01*
X135813Y159228D01*
X135730Y159487D01*
X135693Y159626D01*
X135674Y159774D01*
X136857Y159922D01*
Y159912D01*
Y159903D01*
X136867Y159848D01*
X136885Y159764D01*
X136913Y159663D01*
X136959Y159552D01*
X137005Y159432D01*
X137079Y159321D01*
X137163Y159219D01*
X137172Y159210D01*
X137209Y159182D01*
X137264Y159145D01*
X137329Y159108D01*
X137421Y159062D01*
X137523Y159025D01*
X137634Y158997D01*
X137764Y158988D01*
X137782D01*
X137828Y158997D01*
X137893Y159006D01*
X137985Y159025D01*
X138087Y159062D01*
X138189Y159108D01*
X138300Y159182D01*
X138401Y159275D01*
X138411Y159284D01*
X138448Y159330D01*
X138485Y159395D01*
X138540Y159478D01*
X138586Y159589D01*
X138633Y159727D01*
X138660Y159885D01*
X138670Y160060D01*
Y160070D01*
Y160079D01*
Y160134D01*
X138660Y160217D01*
X138642Y160329D01*
X138605Y160449D01*
X138559Y160569D01*
X138494Y160689D01*
X138411Y160800D01*
X138401Y160809D01*
X138364Y160846D01*
X138309Y160892D01*
X138244Y160939D01*
X138152Y160994D01*
X138050Y161031D01*
X137939Y161068D01*
X137810Y161077D01*
X137717D01*
X137653Y161068D01*
X137569Y161059D01*
X137468Y161040D01*
X137366Y161013D01*
X137246Y160985D01*
X137375Y161974D01*
X137458D01*
X137551Y161983D01*
X137662Y161993D01*
X137782Y162020D01*
X137911Y162057D01*
X138032Y162113D01*
X138143Y162187D01*
X138152Y162196D01*
X138189Y162233D01*
X138226Y162279D01*
X138281Y162353D01*
X138328Y162437D01*
X138374Y162538D01*
X138401Y162658D01*
X138411Y162797D01*
Y162815D01*
Y162852D01*
X138401Y162908D01*
X138383Y162982D01*
X138364Y163065D01*
X138328Y163148D01*
X138281Y163241D01*
X138216Y163315D01*
X138207Y163324D01*
X138180Y163342D01*
X138143Y163379D01*
X138078Y163417D01*
X138004Y163444D01*
X137921Y163481D01*
X137810Y163500D01*
X137699Y163509D01*
X137643D01*
X137588Y163500D01*
X137514Y163481D01*
X137431Y163454D01*
X137338Y163417D01*
X137246Y163361D01*
X137163Y163287D01*
X137153Y163278D01*
X137126Y163250D01*
X137089Y163195D01*
X137042Y163121D01*
X136996Y163037D01*
X136959Y162927D01*
X136922Y162797D01*
X136894Y162649D01*
X135766Y162834D01*
Y162843D01*
X135776Y162862D01*
Y162889D01*
X135785Y162936D01*
X135813Y163037D01*
X135850Y163176D01*
X135905Y163324D01*
X135961Y163481D01*
X136035Y163629D01*
X136118Y163768D01*
X136127Y163786D01*
X136164Y163823D01*
X136220Y163888D01*
X136293Y163971D01*
X136386Y164054D01*
X136497Y164147D01*
X136636Y164239D01*
X136784Y164323D01*
X136793D01*
X136802Y164332D01*
X136857Y164350D01*
X136950Y164387D01*
X137061Y164424D01*
X137199Y164461D01*
X137366Y164498D01*
X137542Y164517D01*
X137736Y164526D01*
X137819D01*
X137884Y164517D01*
D02*
G37*
G36*
X152846Y234445D02*
X152948Y234436D01*
X153059Y234418D01*
X153188Y234399D01*
X153327Y234371D01*
X153475Y234334D01*
X153632Y234288D01*
X153789Y234233D01*
X153955Y234159D01*
X154113Y234085D01*
X154260Y233992D01*
X154418Y233881D01*
X154556Y233761D01*
X154566D01*
X154575Y233743D01*
X154602Y233715D01*
X154630Y233687D01*
X154667Y233641D01*
X154704Y233585D01*
X154806Y233456D01*
X154908Y233290D01*
X155019Y233086D01*
X155120Y232855D01*
X155213Y232587D01*
X153937Y232282D01*
Y232291D01*
X153928Y232300D01*
Y232328D01*
X153909Y232365D01*
X153881Y232448D01*
X153835Y232559D01*
X153770Y232689D01*
X153687Y232818D01*
X153576Y232948D01*
X153456Y233058D01*
X153438Y233068D01*
X153391Y233105D01*
X153317Y233151D01*
X153216Y233206D01*
X153086Y233262D01*
X152938Y233308D01*
X152772Y233345D01*
X152587Y233354D01*
X152522D01*
X152467Y233345D01*
X152411Y233336D01*
X152337Y233327D01*
X152180Y233290D01*
X151995Y233225D01*
X151801Y233132D01*
X151699Y233077D01*
X151607Y233012D01*
X151515Y232929D01*
X151431Y232837D01*
Y232827D01*
X151413Y232809D01*
X151394Y232781D01*
X151367Y232735D01*
X151330Y232679D01*
X151293Y232615D01*
X151256Y232532D01*
X151219Y232439D01*
X151172Y232328D01*
X151135Y232208D01*
X151098Y232069D01*
X151061Y231921D01*
X151034Y231755D01*
X151015Y231579D01*
X151006Y231385D01*
X150997Y231172D01*
Y231163D01*
Y231117D01*
Y231052D01*
X151006Y230978D01*
Y230877D01*
X151025Y230756D01*
X151034Y230636D01*
X151052Y230497D01*
X151108Y230211D01*
X151182Y229924D01*
X151228Y229785D01*
X151293Y229656D01*
X151357Y229536D01*
X151431Y229434D01*
X151440Y229425D01*
X151450Y229416D01*
X151477Y229388D01*
X151515Y229351D01*
X151607Y229277D01*
X151736Y229185D01*
X151894Y229083D01*
X152088Y229009D01*
X152310Y228944D01*
X152430Y228935D01*
X152559Y228926D01*
X152605D01*
X152642Y228935D01*
X152744Y228944D01*
X152864Y228963D01*
X152994Y229009D01*
X153142Y229064D01*
X153290Y229138D01*
X153438Y229249D01*
X153456Y229268D01*
X153502Y229314D01*
X153567Y229388D01*
X153641Y229499D01*
X153733Y229647D01*
X153817Y229823D01*
X153900Y230035D01*
X153974Y230285D01*
X155231Y229897D01*
Y229887D01*
X155222Y229850D01*
X155204Y229795D01*
X155176Y229721D01*
X155139Y229638D01*
X155102Y229536D01*
X155056Y229425D01*
X155000Y229305D01*
X154871Y229055D01*
X154704Y228796D01*
X154501Y228547D01*
X154390Y228436D01*
X154270Y228334D01*
X154260Y228325D01*
X154242Y228316D01*
X154205Y228288D01*
X154150Y228251D01*
X154085Y228214D01*
X154002Y228177D01*
X153909Y228131D01*
X153807Y228084D01*
X153687Y228029D01*
X153558Y227983D01*
X153419Y227946D01*
X153271Y227909D01*
X153114Y227872D01*
X152938Y227844D01*
X152763Y227835D01*
X152569Y227826D01*
X152513D01*
X152448Y227835D01*
X152356Y227844D01*
X152254Y227853D01*
X152125Y227872D01*
X151986Y227899D01*
X151829Y227936D01*
X151672Y227983D01*
X151505Y228038D01*
X151330Y228112D01*
X151154Y228195D01*
X150978Y228288D01*
X150803Y228408D01*
X150636Y228537D01*
X150479Y228694D01*
X150470Y228704D01*
X150442Y228731D01*
X150405Y228787D01*
X150350Y228852D01*
X150294Y228944D01*
X150220Y229046D01*
X150146Y229175D01*
X150072Y229323D01*
X149998Y229480D01*
X149924Y229656D01*
X149850Y229860D01*
X149795Y230072D01*
X149739Y230294D01*
X149702Y230544D01*
X149675Y230802D01*
X149665Y231080D01*
Y231089D01*
Y231098D01*
Y231154D01*
X149675Y231237D01*
Y231348D01*
X149693Y231478D01*
X149712Y231635D01*
X149730Y231801D01*
X149767Y231995D01*
X149813Y232189D01*
X149869Y232393D01*
X149934Y232596D01*
X150017Y232809D01*
X150109Y233012D01*
X150220Y233206D01*
X150340Y233391D01*
X150488Y233567D01*
X150498Y233576D01*
X150525Y233604D01*
X150571Y233650D01*
X150636Y233706D01*
X150719Y233770D01*
X150821Y233844D01*
X150932Y233927D01*
X151071Y234011D01*
X151219Y234094D01*
X151376Y234177D01*
X151561Y234251D01*
X151746Y234316D01*
X151958Y234371D01*
X152171Y234418D01*
X152411Y234445D01*
X152652Y234454D01*
X152763D01*
X152846Y234445D01*
D02*
G37*
G36*
X158338Y234362D02*
X158421Y234353D01*
X158513Y234344D01*
X158615Y234325D01*
X158726Y234307D01*
X158967Y234242D01*
X159207Y234149D01*
X159336Y234094D01*
X159447Y234029D01*
X159567Y233946D01*
X159669Y233854D01*
X159678Y233844D01*
X159697Y233835D01*
X159715Y233798D01*
X159752Y233761D01*
X159799Y233715D01*
X159845Y233650D01*
X159891Y233585D01*
X159946Y233502D01*
X160039Y233317D01*
X160131Y233105D01*
X160168Y232985D01*
X160187Y232855D01*
X160205Y232716D01*
X160215Y232578D01*
Y232559D01*
Y232504D01*
X160205Y232421D01*
X160196Y232319D01*
X160178Y232189D01*
X160150Y232051D01*
X160113Y231903D01*
X160057Y231755D01*
X160048Y231736D01*
X160030Y231690D01*
X159993Y231607D01*
X159937Y231505D01*
X159873Y231385D01*
X159789Y231246D01*
X159688Y231098D01*
X159567Y230941D01*
X159558Y230932D01*
X159521Y230886D01*
X159466Y230821D01*
X159382Y230729D01*
X159272Y230618D01*
X159133Y230470D01*
X158967Y230312D01*
X158763Y230118D01*
X158754Y230109D01*
X158735Y230100D01*
X158708Y230072D01*
X158671Y230035D01*
X158569Y229943D01*
X158449Y229832D01*
X158329Y229712D01*
X158208Y229591D01*
X158097Y229490D01*
X158060Y229443D01*
X158023Y229406D01*
X158014Y229397D01*
X157996Y229379D01*
X157968Y229342D01*
X157931Y229296D01*
X157848Y229194D01*
X157774Y229074D01*
X160215D01*
Y227936D01*
X155915D01*
Y227946D01*
Y227964D01*
X155925Y228001D01*
X155934Y228047D01*
X155943Y228103D01*
X155952Y228167D01*
X155989Y228334D01*
X156045Y228519D01*
X156119Y228722D01*
X156211Y228944D01*
X156332Y229157D01*
Y229166D01*
X156350Y229185D01*
X156368Y229221D01*
X156405Y229258D01*
X156442Y229323D01*
X156498Y229388D01*
X156563Y229471D01*
X156637Y229564D01*
X156720Y229675D01*
X156821Y229785D01*
X156932Y229915D01*
X157062Y230054D01*
X157200Y230192D01*
X157358Y230350D01*
X157524Y230516D01*
X157709Y230692D01*
X157718Y230701D01*
X157746Y230729D01*
X157783Y230766D01*
X157838Y230821D01*
X157913Y230877D01*
X157986Y230951D01*
X158153Y231117D01*
X158319Y231293D01*
X158486Y231468D01*
X158560Y231542D01*
X158634Y231625D01*
X158689Y231690D01*
X158726Y231746D01*
X158735Y231764D01*
X158763Y231810D01*
X158809Y231884D01*
X158855Y231986D01*
X158902Y232097D01*
X158948Y232226D01*
X158976Y232356D01*
X158985Y232495D01*
Y232504D01*
Y232513D01*
Y232559D01*
X158976Y232642D01*
X158957Y232735D01*
X158930Y232837D01*
X158892Y232938D01*
X158837Y233040D01*
X158763Y233132D01*
X158754Y233142D01*
X158726Y233169D01*
X158671Y233206D01*
X158606Y233243D01*
X158513Y233280D01*
X158412Y233317D01*
X158292Y233345D01*
X158153Y233354D01*
X158088D01*
X158014Y233345D01*
X157931Y233327D01*
X157829Y233299D01*
X157727Y233253D01*
X157626Y233197D01*
X157533Y233123D01*
X157524Y233114D01*
X157496Y233077D01*
X157459Y233022D01*
X157422Y232938D01*
X157376Y232837D01*
X157339Y232698D01*
X157302Y232541D01*
X157284Y232356D01*
X156063Y232476D01*
Y232485D01*
X156073Y232522D01*
Y232568D01*
X156091Y232642D01*
X156100Y232726D01*
X156128Y232818D01*
X156156Y232920D01*
X156184Y233040D01*
X156276Y233271D01*
X156387Y233512D01*
X156461Y233632D01*
X156544Y233743D01*
X156637Y233835D01*
X156738Y233927D01*
X156748Y233937D01*
X156766Y233946D01*
X156794Y233965D01*
X156840Y234002D01*
X156895Y234029D01*
X156969Y234066D01*
X157043Y234112D01*
X157136Y234149D01*
X157238Y234196D01*
X157348Y234233D01*
X157589Y234307D01*
X157875Y234353D01*
X158023Y234362D01*
X158181Y234371D01*
X158273D01*
X158338Y234362D01*
D02*
G37*
G36*
X143395Y233169D02*
X141074D01*
X140880Y232078D01*
X140889D01*
X140899Y232088D01*
X140954Y232115D01*
X141037Y232143D01*
X141139Y232189D01*
X141268Y232226D01*
X141407Y232254D01*
X141564Y232282D01*
X141721Y232291D01*
X141805D01*
X141860Y232282D01*
X141925Y232273D01*
X142008Y232263D01*
X142100Y232245D01*
X142202Y232217D01*
X142415Y232143D01*
X142535Y232097D01*
X142646Y232041D01*
X142766Y231968D01*
X142886Y231884D01*
X142997Y231792D01*
X143108Y231690D01*
X143118Y231681D01*
X143136Y231662D01*
X143164Y231625D01*
X143201Y231579D01*
X143238Y231524D01*
X143293Y231450D01*
X143339Y231367D01*
X143395Y231274D01*
X143450Y231172D01*
X143497Y231052D01*
X143552Y230923D01*
X143589Y230793D01*
X143626Y230645D01*
X143654Y230488D01*
X143672Y230322D01*
X143681Y230146D01*
Y230137D01*
Y230109D01*
Y230072D01*
X143672Y230017D01*
Y229943D01*
X143654Y229860D01*
X143645Y229767D01*
X143626Y229675D01*
X143571Y229453D01*
X143487Y229212D01*
X143432Y229083D01*
X143376Y228963D01*
X143302Y228843D01*
X143219Y228722D01*
X143210Y228713D01*
X143191Y228685D01*
X143154Y228648D01*
X143108Y228593D01*
X143044Y228528D01*
X142960Y228454D01*
X142868Y228380D01*
X142766Y228306D01*
X142646Y228223D01*
X142517Y228149D01*
X142378Y228075D01*
X142221Y228010D01*
X142054Y227955D01*
X141879Y227918D01*
X141685Y227890D01*
X141481Y227881D01*
X141398D01*
X141333Y227890D01*
X141259Y227899D01*
X141167Y227909D01*
X141074Y227918D01*
X140963Y227936D01*
X140741Y227992D01*
X140492Y228084D01*
X140372Y228131D01*
X140251Y228195D01*
X140140Y228269D01*
X140029Y228353D01*
X140020Y228362D01*
X140002Y228371D01*
X139974Y228399D01*
X139937Y228436D01*
X139900Y228491D01*
X139845Y228547D01*
X139798Y228611D01*
X139743Y228685D01*
X139678Y228778D01*
X139623Y228870D01*
X139521Y229092D01*
X139429Y229342D01*
X139401Y229480D01*
X139373Y229628D01*
X140594Y229758D01*
Y229739D01*
X140603Y229693D01*
X140621Y229610D01*
X140649Y229517D01*
X140686Y229416D01*
X140741Y229305D01*
X140815Y229203D01*
X140899Y229101D01*
X140908Y229092D01*
X140945Y229064D01*
X141000Y229027D01*
X141074Y228981D01*
X141158Y228935D01*
X141259Y228898D01*
X141379Y228870D01*
X141500Y228861D01*
X141518D01*
X141564Y228870D01*
X141638Y228880D01*
X141731Y228898D01*
X141832Y228935D01*
X141943Y228990D01*
X142054Y229074D01*
X142156Y229175D01*
X142165Y229194D01*
X142202Y229231D01*
X142239Y229305D01*
X142295Y229416D01*
X142341Y229545D01*
X142387Y229702D01*
X142415Y229897D01*
X142424Y230118D01*
Y230128D01*
Y230146D01*
Y230174D01*
Y230220D01*
X142415Y230322D01*
X142387Y230451D01*
X142359Y230599D01*
X142313Y230747D01*
X142248Y230886D01*
X142156Y231006D01*
X142147Y231015D01*
X142110Y231052D01*
X142045Y231098D01*
X141971Y231163D01*
X141869Y231219D01*
X141749Y231265D01*
X141610Y231302D01*
X141463Y231311D01*
X141407D01*
X141370Y231302D01*
X141278Y231283D01*
X141148Y231256D01*
X141000Y231200D01*
X140843Y231117D01*
X140760Y231061D01*
X140677Y230997D01*
X140594Y230923D01*
X140510Y230840D01*
X139521Y230978D01*
X140150Y234316D01*
X143395D01*
Y233169D01*
D02*
G37*
G36*
X136146Y234390D02*
X136248D01*
X136350Y234381D01*
X136470D01*
X136710Y234353D01*
X136960Y234325D01*
X137191Y234279D01*
X137293Y234251D01*
X137385Y234223D01*
X137395D01*
X137404Y234214D01*
X137459Y234186D01*
X137542Y234140D01*
X137653Y234085D01*
X137774Y233992D01*
X137894Y233891D01*
X138014Y233761D01*
X138125Y233604D01*
Y233595D01*
X138134Y233585D01*
X138153Y233558D01*
X138171Y233530D01*
X138217Y233438D01*
X138273Y233317D01*
X138319Y233169D01*
X138365Y233003D01*
X138402Y232809D01*
X138412Y232605D01*
Y232596D01*
Y232578D01*
Y232532D01*
X138402Y232485D01*
Y232421D01*
X138393Y232356D01*
X138356Y232189D01*
X138310Y231995D01*
X138236Y231801D01*
X138125Y231598D01*
X138060Y231505D01*
X137986Y231413D01*
X137977Y231404D01*
X137968Y231394D01*
X137940Y231367D01*
X137903Y231339D01*
X137866Y231302D01*
X137810Y231256D01*
X137746Y231209D01*
X137672Y231163D01*
X137589Y231108D01*
X137487Y231061D01*
X137385Y231015D01*
X137274Y230969D01*
X137145Y230923D01*
X137015Y230886D01*
X136877Y230849D01*
X136720Y230821D01*
X136729D01*
X136738Y230812D01*
X136793Y230775D01*
X136868Y230729D01*
X136960Y230664D01*
X137071Y230581D01*
X137182Y230497D01*
X137302Y230396D01*
X137404Y230285D01*
X137413Y230275D01*
X137459Y230229D01*
X137515Y230155D01*
X137598Y230044D01*
X137709Y229906D01*
X137764Y229813D01*
X137829Y229721D01*
X137903Y229619D01*
X137977Y229508D01*
X138060Y229379D01*
X138143Y229249D01*
X138929Y228001D01*
X137376D01*
X136451Y229388D01*
X136442Y229397D01*
X136433Y229425D01*
X136405Y229462D01*
X136368Y229508D01*
X136331Y229564D01*
X136285Y229638D01*
X136183Y229785D01*
X136063Y229952D01*
X135952Y230100D01*
X135850Y230239D01*
X135804Y230285D01*
X135767Y230331D01*
X135758Y230340D01*
X135739Y230359D01*
X135702Y230396D01*
X135656Y230442D01*
X135592Y230479D01*
X135527Y230525D01*
X135453Y230562D01*
X135379Y230599D01*
X135370D01*
X135342Y230608D01*
X135296Y230627D01*
X135222Y230636D01*
X135129Y230655D01*
X135018Y230664D01*
X134889Y230673D01*
X134473D01*
Y228001D01*
X133179D01*
Y234399D01*
X136063D01*
X136146Y234390D01*
D02*
G37*
G36*
X77150Y181105D02*
X77252Y181096D01*
X77362Y181078D01*
X77492Y181059D01*
X77631Y181031D01*
X77779Y180994D01*
X77936Y180948D01*
X78093Y180893D01*
X78259Y180819D01*
X78416Y180745D01*
X78564Y180652D01*
X78721Y180541D01*
X78860Y180421D01*
X78869D01*
X78879Y180403D01*
X78906Y180375D01*
X78934Y180347D01*
X78971Y180301D01*
X79008Y180245D01*
X79110Y180116D01*
X79212Y179950D01*
X79323Y179746D01*
X79424Y179515D01*
X79517Y179247D01*
X78241Y178942D01*
Y178951D01*
X78232Y178960D01*
Y178988D01*
X78213Y179025D01*
X78185Y179108D01*
X78139Y179219D01*
X78074Y179349D01*
X77991Y179478D01*
X77880Y179608D01*
X77760Y179718D01*
X77741Y179728D01*
X77695Y179765D01*
X77621Y179811D01*
X77520Y179866D01*
X77390Y179922D01*
X77242Y179968D01*
X77076Y180005D01*
X76891Y180014D01*
X76826D01*
X76771Y180005D01*
X76715Y179996D01*
X76641Y179987D01*
X76484Y179950D01*
X76299Y179885D01*
X76105Y179792D01*
X76003Y179737D01*
X75911Y179672D01*
X75818Y179589D01*
X75735Y179497D01*
Y179487D01*
X75717Y179469D01*
X75698Y179441D01*
X75670Y179395D01*
X75634Y179339D01*
X75596Y179275D01*
X75560Y179191D01*
X75522Y179099D01*
X75476Y178988D01*
X75439Y178868D01*
X75402Y178729D01*
X75365Y178581D01*
X75338Y178415D01*
X75319Y178239D01*
X75310Y178045D01*
X75301Y177832D01*
Y177823D01*
Y177777D01*
Y177712D01*
X75310Y177638D01*
Y177537D01*
X75328Y177416D01*
X75338Y177296D01*
X75356Y177157D01*
X75412Y176871D01*
X75486Y176584D01*
X75532Y176446D01*
X75596Y176316D01*
X75661Y176196D01*
X75735Y176094D01*
X75744Y176085D01*
X75754Y176076D01*
X75781Y176048D01*
X75818Y176011D01*
X75911Y175937D01*
X76040Y175845D01*
X76198Y175743D01*
X76392Y175669D01*
X76613Y175604D01*
X76734Y175595D01*
X76863Y175586D01*
X76909D01*
X76946Y175595D01*
X77048Y175604D01*
X77168Y175623D01*
X77298Y175669D01*
X77446Y175724D01*
X77593Y175798D01*
X77741Y175909D01*
X77760Y175928D01*
X77806Y175974D01*
X77871Y176048D01*
X77945Y176159D01*
X78037Y176307D01*
X78120Y176483D01*
X78204Y176695D01*
X78278Y176945D01*
X79535Y176556D01*
Y176547D01*
X79526Y176510D01*
X79507Y176455D01*
X79480Y176381D01*
X79443Y176298D01*
X79406Y176196D01*
X79359Y176085D01*
X79304Y175965D01*
X79174Y175715D01*
X79008Y175456D01*
X78805Y175207D01*
X78694Y175096D01*
X78574Y174994D01*
X78564Y174985D01*
X78546Y174975D01*
X78509Y174948D01*
X78453Y174911D01*
X78389Y174874D01*
X78306Y174837D01*
X78213Y174791D01*
X78111Y174744D01*
X77991Y174689D01*
X77862Y174643D01*
X77723Y174606D01*
X77575Y174569D01*
X77418Y174532D01*
X77242Y174504D01*
X77066Y174495D01*
X76872Y174485D01*
X76817D01*
X76752Y174495D01*
X76660Y174504D01*
X76558Y174513D01*
X76429Y174532D01*
X76290Y174559D01*
X76133Y174596D01*
X75976Y174643D01*
X75809Y174698D01*
X75634Y174772D01*
X75458Y174855D01*
X75282Y174948D01*
X75107Y175068D01*
X74940Y175197D01*
X74783Y175354D01*
X74774Y175364D01*
X74746Y175392D01*
X74709Y175447D01*
X74653Y175512D01*
X74598Y175604D01*
X74524Y175706D01*
X74450Y175835D01*
X74376Y175983D01*
X74302Y176140D01*
X74228Y176316D01*
X74154Y176520D01*
X74099Y176732D01*
X74043Y176954D01*
X74006Y177204D01*
X73979Y177463D01*
X73969Y177740D01*
Y177749D01*
Y177758D01*
Y177814D01*
X73979Y177897D01*
Y178008D01*
X73997Y178137D01*
X74015Y178295D01*
X74034Y178461D01*
X74071Y178655D01*
X74117Y178849D01*
X74173Y179053D01*
X74237Y179256D01*
X74321Y179469D01*
X74413Y179672D01*
X74524Y179866D01*
X74644Y180051D01*
X74792Y180227D01*
X74801Y180236D01*
X74829Y180264D01*
X74875Y180310D01*
X74940Y180366D01*
X75023Y180430D01*
X75125Y180504D01*
X75236Y180588D01*
X75375Y180671D01*
X75522Y180754D01*
X75680Y180837D01*
X75865Y180911D01*
X76049Y180976D01*
X76262Y181031D01*
X76475Y181078D01*
X76715Y181105D01*
X76956Y181115D01*
X77066D01*
X77150Y181105D01*
D02*
G37*
G36*
X83511Y174596D02*
X82281D01*
Y179228D01*
X82272Y179219D01*
X82253Y179201D01*
X82216Y179173D01*
X82161Y179127D01*
X82096Y179071D01*
X82022Y179016D01*
X81930Y178951D01*
X81828Y178877D01*
X81717Y178803D01*
X81597Y178729D01*
X81468Y178646D01*
X81329Y178572D01*
X81033Y178433D01*
X80700Y178304D01*
Y179413D01*
X80709D01*
X80719Y179423D01*
X80746Y179432D01*
X80783Y179441D01*
X80876Y179487D01*
X81005Y179543D01*
X81162Y179617D01*
X81338Y179718D01*
X81532Y179848D01*
X81736Y179996D01*
X81745Y180005D01*
X81763Y180014D01*
X81791Y180042D01*
X81828Y180079D01*
X81930Y180172D01*
X82041Y180292D01*
X82170Y180440D01*
X82300Y180625D01*
X82420Y180819D01*
X82512Y181031D01*
X83511D01*
Y174596D01*
D02*
G37*
G36*
X102279Y258225D02*
X103074D01*
Y257152D01*
X102279D01*
Y255867D01*
X101095D01*
Y257152D01*
X98470D01*
Y258216D01*
X101243Y262293D01*
X102279D01*
Y258225D01*
D02*
G37*
G36*
X95474Y262256D02*
X95576D01*
X95677Y262247D01*
X95798D01*
X96038Y262219D01*
X96288Y262191D01*
X96519Y262145D01*
X96620Y262117D01*
X96713Y262089D01*
X96722D01*
X96731Y262080D01*
X96787Y262052D01*
X96870Y262006D01*
X96981Y261951D01*
X97101Y261858D01*
X97221Y261757D01*
X97342Y261627D01*
X97452Y261470D01*
Y261461D01*
X97462Y261451D01*
X97480Y261424D01*
X97499Y261396D01*
X97545Y261304D01*
X97600Y261183D01*
X97647Y261035D01*
X97693Y260869D01*
X97730Y260675D01*
X97739Y260471D01*
Y260462D01*
Y260444D01*
Y260397D01*
X97730Y260351D01*
Y260287D01*
X97721Y260222D01*
X97684Y260055D01*
X97637Y259861D01*
X97563Y259667D01*
X97452Y259464D01*
X97388Y259371D01*
X97314Y259279D01*
X97305Y259270D01*
X97295Y259260D01*
X97268Y259233D01*
X97231Y259205D01*
X97194Y259168D01*
X97138Y259122D01*
X97073Y259075D01*
X97000Y259029D01*
X96916Y258974D01*
X96815Y258927D01*
X96713Y258881D01*
X96602Y258835D01*
X96473Y258789D01*
X96343Y258752D01*
X96204Y258715D01*
X96047Y258687D01*
X96056D01*
X96066Y258678D01*
X96121Y258641D01*
X96195Y258595D01*
X96288Y258530D01*
X96398Y258447D01*
X96510Y258363D01*
X96630Y258262D01*
X96731Y258151D01*
X96741Y258142D01*
X96787Y258095D01*
X96842Y258021D01*
X96925Y257910D01*
X97037Y257772D01*
X97092Y257679D01*
X97157Y257587D01*
X97231Y257485D01*
X97305Y257374D01*
X97388Y257245D01*
X97471Y257115D01*
X98257Y255867D01*
X96704D01*
X95779Y257254D01*
X95770Y257263D01*
X95761Y257291D01*
X95733Y257328D01*
X95696Y257374D01*
X95659Y257430D01*
X95613Y257504D01*
X95511Y257652D01*
X95391Y257818D01*
X95280Y257966D01*
X95178Y258105D01*
X95132Y258151D01*
X95095Y258197D01*
X95086Y258206D01*
X95067Y258225D01*
X95030Y258262D01*
X94984Y258308D01*
X94919Y258345D01*
X94854Y258391D01*
X94781Y258428D01*
X94707Y258465D01*
X94697D01*
X94670Y258474D01*
X94623Y258493D01*
X94549Y258502D01*
X94457Y258521D01*
X94346Y258530D01*
X94217Y258539D01*
X93800D01*
Y255867D01*
X92506D01*
Y262265D01*
X95391D01*
X95474Y262256D01*
D02*
G37*
G36*
X104579Y159886D02*
Y159877D01*
Y159840D01*
Y159775D01*
Y159701D01*
Y159609D01*
X104570Y159498D01*
Y159377D01*
Y159257D01*
X104551Y158989D01*
X104533Y158712D01*
X104524Y158592D01*
X104505Y158471D01*
X104487Y158360D01*
X104468Y158259D01*
Y158250D01*
X104459Y158240D01*
Y158212D01*
X104450Y158185D01*
X104422Y158092D01*
X104385Y157981D01*
X104330Y157852D01*
X104265Y157723D01*
X104182Y157584D01*
X104080Y157454D01*
X104071Y157436D01*
X104034Y157399D01*
X103969Y157343D01*
X103886Y157269D01*
X103775Y157186D01*
X103645Y157103D01*
X103497Y157011D01*
X103331Y156937D01*
X103322D01*
X103313Y156927D01*
X103285Y156918D01*
X103248Y156909D01*
X103202Y156890D01*
X103146Y156872D01*
X103072Y156853D01*
X102998Y156844D01*
X102823Y156807D01*
X102610Y156770D01*
X102369Y156752D01*
X102101Y156742D01*
X101953D01*
X101870Y156752D01*
X101787D01*
X101685Y156761D01*
X101584Y156770D01*
X101362Y156789D01*
X101131Y156826D01*
X100899Y156881D01*
X100798Y156909D01*
X100705Y156946D01*
X100696D01*
X100687Y156955D01*
X100631Y156983D01*
X100539Y157029D01*
X100437Y157094D01*
X100317Y157177D01*
X100188Y157269D01*
X100067Y157380D01*
X99956Y157501D01*
X99947Y157519D01*
X99910Y157556D01*
X99864Y157630D01*
X99808Y157723D01*
X99753Y157824D01*
X99688Y157944D01*
X99642Y158074D01*
X99596Y158212D01*
Y158222D01*
X99586Y158240D01*
Y158268D01*
X99577Y158314D01*
X99568Y158370D01*
X99559Y158444D01*
X99550Y158527D01*
X99540Y158619D01*
X99522Y158730D01*
X99513Y158850D01*
X99503Y158980D01*
X99494Y159128D01*
X99485Y159285D01*
Y159461D01*
X99476Y159646D01*
Y159840D01*
Y163261D01*
X100770D01*
Y159784D01*
Y159775D01*
Y159747D01*
Y159710D01*
Y159655D01*
Y159581D01*
Y159507D01*
X100779Y159340D01*
Y159156D01*
X100788Y158980D01*
X100798Y158897D01*
Y158823D01*
X100807Y158767D01*
X100816Y158712D01*
Y158693D01*
X100835Y158647D01*
X100862Y158573D01*
X100899Y158481D01*
X100946Y158379D01*
X101020Y158277D01*
X101103Y158166D01*
X101205Y158074D01*
X101223Y158065D01*
X101260Y158037D01*
X101334Y158000D01*
X101426Y157963D01*
X101556Y157917D01*
X101704Y157880D01*
X101870Y157852D01*
X102064Y157843D01*
X102157D01*
X102249Y157852D01*
X102369Y157870D01*
X102508Y157898D01*
X102638Y157935D01*
X102776Y157991D01*
X102887Y158065D01*
X102896Y158074D01*
X102933Y158102D01*
X102980Y158148D01*
X103035Y158212D01*
X103091Y158296D01*
X103146Y158388D01*
X103192Y158490D01*
X103220Y158610D01*
Y158629D01*
X103229Y158675D01*
X103239Y158758D01*
X103257Y158869D01*
Y158943D01*
X103266Y159026D01*
Y159119D01*
X103275Y159211D01*
Y159322D01*
X103285Y159442D01*
Y159572D01*
Y159710D01*
Y163261D01*
X104579D01*
Y159886D01*
D02*
G37*
G36*
X108804Y156863D02*
X107575D01*
Y161495D01*
X107565Y161485D01*
X107547Y161467D01*
X107510Y161439D01*
X107455Y161393D01*
X107390Y161338D01*
X107316Y161282D01*
X107223Y161217D01*
X107122Y161143D01*
X107011Y161069D01*
X106891Y160995D01*
X106761Y160912D01*
X106622Y160838D01*
X106327Y160700D01*
X105994Y160570D01*
Y161680D01*
X106003D01*
X106012Y161689D01*
X106040Y161698D01*
X106077Y161707D01*
X106169Y161754D01*
X106299Y161809D01*
X106456Y161883D01*
X106632Y161985D01*
X106826Y162114D01*
X107029Y162262D01*
X107038Y162271D01*
X107057Y162281D01*
X107085Y162308D01*
X107122Y162345D01*
X107223Y162438D01*
X107334Y162558D01*
X107464Y162706D01*
X107593Y162891D01*
X107713Y163085D01*
X107806Y163298D01*
X108804D01*
Y156863D01*
D02*
G37*
G36*
X101072Y247048D02*
X101155Y247039D01*
X101248Y247030D01*
X101350Y247011D01*
X101461Y246993D01*
X101701Y246928D01*
X101941Y246836D01*
X102071Y246780D01*
X102182Y246715D01*
X102302Y246632D01*
X102404Y246540D01*
X102413Y246530D01*
X102431Y246521D01*
X102450Y246484D01*
X102487Y246447D01*
X102533Y246401D01*
X102579Y246336D01*
X102625Y246272D01*
X102681Y246188D01*
X102773Y246003D01*
X102866Y245791D01*
X102903Y245671D01*
X102921Y245541D01*
X102940Y245403D01*
X102949Y245264D01*
Y245245D01*
Y245190D01*
X102940Y245107D01*
X102931Y245005D01*
X102912Y244876D01*
X102884Y244737D01*
X102847Y244589D01*
X102792Y244441D01*
X102783Y244422D01*
X102764Y244376D01*
X102727Y244293D01*
X102672Y244191D01*
X102607Y244071D01*
X102524Y243932D01*
X102422Y243785D01*
X102302Y243627D01*
X102293Y243618D01*
X102256Y243572D01*
X102200Y243507D01*
X102117Y243415D01*
X102006Y243304D01*
X101867Y243156D01*
X101701Y242999D01*
X101497Y242805D01*
X101488Y242795D01*
X101470Y242786D01*
X101442Y242758D01*
X101405Y242721D01*
X101303Y242629D01*
X101183Y242518D01*
X101063Y242398D01*
X100943Y242278D01*
X100832Y242176D01*
X100795Y242130D01*
X100758Y242093D01*
X100749Y242083D01*
X100730Y242065D01*
X100702Y242028D01*
X100665Y241982D01*
X100582Y241880D01*
X100508Y241760D01*
X102949D01*
Y240623D01*
X98650D01*
Y240632D01*
Y240650D01*
X98659Y240687D01*
X98668Y240734D01*
X98678Y240789D01*
X98687Y240854D01*
X98724Y241020D01*
X98779Y241205D01*
X98853Y241408D01*
X98946Y241630D01*
X99066Y241843D01*
Y241852D01*
X99084Y241871D01*
X99103Y241908D01*
X99140Y241945D01*
X99177Y242009D01*
X99232Y242074D01*
X99297Y242157D01*
X99371Y242250D01*
X99454Y242361D01*
X99556Y242472D01*
X99667Y242601D01*
X99796Y242740D01*
X99935Y242878D01*
X100092Y243036D01*
X100259Y243202D01*
X100443Y243378D01*
X100453Y243387D01*
X100480Y243415D01*
X100518Y243452D01*
X100573Y243507D01*
X100647Y243563D01*
X100721Y243637D01*
X100887Y243803D01*
X101054Y243979D01*
X101220Y244154D01*
X101294Y244228D01*
X101368Y244312D01*
X101424Y244376D01*
X101461Y244432D01*
X101470Y244450D01*
X101497Y244496D01*
X101544Y244570D01*
X101590Y244672D01*
X101636Y244783D01*
X101682Y244912D01*
X101710Y245042D01*
X101719Y245181D01*
Y245190D01*
Y245199D01*
Y245245D01*
X101710Y245329D01*
X101692Y245421D01*
X101664Y245523D01*
X101627Y245624D01*
X101572Y245726D01*
X101497Y245819D01*
X101488Y245828D01*
X101461Y245856D01*
X101405Y245893D01*
X101340Y245930D01*
X101248Y245966D01*
X101146Y246003D01*
X101026Y246031D01*
X100887Y246040D01*
X100823D01*
X100749Y246031D01*
X100665Y246013D01*
X100564Y245985D01*
X100462Y245939D01*
X100360Y245883D01*
X100268Y245809D01*
X100259Y245800D01*
X100231Y245763D01*
X100194Y245708D01*
X100157Y245624D01*
X100111Y245523D01*
X100074Y245384D01*
X100037Y245227D01*
X100018Y245042D01*
X98798Y245162D01*
Y245171D01*
X98807Y245208D01*
Y245255D01*
X98826Y245329D01*
X98835Y245412D01*
X98862Y245504D01*
X98890Y245606D01*
X98918Y245726D01*
X99010Y245957D01*
X99121Y246198D01*
X99195Y246318D01*
X99278Y246429D01*
X99371Y246521D01*
X99473Y246614D01*
X99482Y246623D01*
X99500Y246632D01*
X99528Y246651D01*
X99574Y246688D01*
X99630Y246715D01*
X99704Y246752D01*
X99778Y246799D01*
X99870Y246836D01*
X99972Y246882D01*
X100083Y246919D01*
X100323Y246993D01*
X100610Y247039D01*
X100758Y247048D01*
X100915Y247057D01*
X101007D01*
X101072Y247048D01*
D02*
G37*
G36*
X95599Y247011D02*
X95701D01*
X95802Y247002D01*
X95922D01*
X96163Y246974D01*
X96412Y246947D01*
X96643Y246900D01*
X96745Y246873D01*
X96838Y246845D01*
X96847D01*
X96856Y246836D01*
X96912Y246808D01*
X96995Y246762D01*
X97106Y246706D01*
X97226Y246614D01*
X97346Y246512D01*
X97466Y246383D01*
X97577Y246225D01*
Y246216D01*
X97587Y246207D01*
X97605Y246179D01*
X97624Y246151D01*
X97670Y246059D01*
X97725Y245939D01*
X97772Y245791D01*
X97818Y245624D01*
X97855Y245430D01*
X97864Y245227D01*
Y245218D01*
Y245199D01*
Y245153D01*
X97855Y245107D01*
Y245042D01*
X97845Y244977D01*
X97809Y244811D01*
X97762Y244617D01*
X97688Y244422D01*
X97577Y244219D01*
X97513Y244127D01*
X97439Y244034D01*
X97429Y244025D01*
X97420Y244016D01*
X97392Y243988D01*
X97355Y243960D01*
X97318Y243923D01*
X97263Y243877D01*
X97198Y243831D01*
X97124Y243785D01*
X97041Y243729D01*
X96939Y243683D01*
X96838Y243637D01*
X96727Y243590D01*
X96597Y243544D01*
X96468Y243507D01*
X96329Y243470D01*
X96172Y243442D01*
X96181D01*
X96191Y243433D01*
X96246Y243396D01*
X96320Y243350D01*
X96412Y243285D01*
X96523Y243202D01*
X96634Y243119D01*
X96755Y243017D01*
X96856Y242906D01*
X96865Y242897D01*
X96912Y242851D01*
X96967Y242777D01*
X97050Y242666D01*
X97161Y242527D01*
X97217Y242435D01*
X97282Y242342D01*
X97355Y242241D01*
X97429Y242130D01*
X97513Y242000D01*
X97596Y241871D01*
X98382Y240623D01*
X96828D01*
X95904Y242009D01*
X95895Y242019D01*
X95885Y242046D01*
X95858Y242083D01*
X95821Y242130D01*
X95784Y242185D01*
X95737Y242259D01*
X95636Y242407D01*
X95516Y242573D01*
X95405Y242721D01*
X95303Y242860D01*
X95257Y242906D01*
X95220Y242952D01*
X95211Y242962D01*
X95192Y242980D01*
X95155Y243017D01*
X95109Y243063D01*
X95044Y243100D01*
X94979Y243147D01*
X94905Y243184D01*
X94831Y243221D01*
X94822D01*
X94794Y243230D01*
X94748Y243248D01*
X94674Y243258D01*
X94582Y243276D01*
X94471Y243285D01*
X94341Y243295D01*
X93925D01*
Y240623D01*
X92631D01*
Y247020D01*
X95516D01*
X95599Y247011D01*
D02*
G37*
G36*
X111749Y134798D02*
X111833Y134789D01*
X111916Y134779D01*
X112018Y134761D01*
X112119Y134733D01*
X112351Y134668D01*
X112471Y134622D01*
X112600Y134557D01*
X112720Y134493D01*
X112831Y134419D01*
X112951Y134326D01*
X113053Y134225D01*
X113062Y134215D01*
X113072Y134206D01*
X113099Y134178D01*
X113127Y134141D01*
X113201Y134049D01*
X113284Y133919D01*
X113368Y133762D01*
X113432Y133577D01*
X113488Y133374D01*
X113497Y133272D01*
X113506Y133161D01*
Y133152D01*
Y133124D01*
X113497Y133078D01*
X113488Y133022D01*
X113478Y132949D01*
X113460Y132865D01*
X113432Y132773D01*
X113395Y132671D01*
X113340Y132570D01*
X113284Y132459D01*
X113210Y132348D01*
X113118Y132237D01*
X113007Y132126D01*
X112887Y132015D01*
X112748Y131913D01*
X112582Y131811D01*
X112591D01*
X112609Y131802D01*
X112637D01*
X112674Y131784D01*
X112776Y131756D01*
X112896Y131700D01*
X113035Y131627D01*
X113183Y131534D01*
X113330Y131414D01*
X113460Y131275D01*
X113478Y131257D01*
X113515Y131201D01*
X113562Y131118D01*
X113626Y130998D01*
X113691Y130859D01*
X113737Y130683D01*
X113774Y130499D01*
X113793Y130286D01*
Y130277D01*
Y130249D01*
Y130203D01*
X113784Y130147D01*
X113774Y130073D01*
X113756Y129990D01*
X113737Y129888D01*
X113719Y129787D01*
X113645Y129565D01*
X113589Y129445D01*
X113534Y129315D01*
X113460Y129195D01*
X113377Y129075D01*
X113284Y128954D01*
X113173Y128843D01*
X113164Y128834D01*
X113146Y128816D01*
X113109Y128788D01*
X113062Y128751D01*
X112998Y128705D01*
X112933Y128659D01*
X112840Y128603D01*
X112748Y128548D01*
X112646Y128492D01*
X112526Y128437D01*
X112397Y128391D01*
X112267Y128344D01*
X112119Y128307D01*
X111971Y128280D01*
X111805Y128261D01*
X111639Y128252D01*
X111555D01*
X111491Y128261D01*
X111417Y128270D01*
X111334Y128280D01*
X111241Y128298D01*
X111130Y128316D01*
X110908Y128372D01*
X110668Y128464D01*
X110538Y128520D01*
X110427Y128585D01*
X110307Y128668D01*
X110196Y128751D01*
X110187Y128760D01*
X110169Y128779D01*
X110141Y128806D01*
X110104Y128843D01*
X110058Y128890D01*
X110011Y128954D01*
X109956Y129019D01*
X109900Y129102D01*
X109845Y129195D01*
X109780Y129287D01*
X109678Y129509D01*
X109595Y129768D01*
X109558Y129907D01*
X109540Y130055D01*
X110723Y130203D01*
Y130193D01*
Y130184D01*
X110732Y130129D01*
X110751Y130045D01*
X110779Y129944D01*
X110825Y129833D01*
X110871Y129713D01*
X110945Y129602D01*
X111028Y129500D01*
X111038Y129491D01*
X111075Y129463D01*
X111130Y129426D01*
X111195Y129389D01*
X111287Y129343D01*
X111389Y129306D01*
X111500Y129278D01*
X111629Y129269D01*
X111648D01*
X111694Y129278D01*
X111759Y129287D01*
X111851Y129306D01*
X111953Y129343D01*
X112055Y129389D01*
X112166Y129463D01*
X112267Y129555D01*
X112276Y129565D01*
X112313Y129611D01*
X112351Y129676D01*
X112406Y129759D01*
X112452Y129870D01*
X112498Y130008D01*
X112526Y130166D01*
X112535Y130341D01*
Y130351D01*
Y130360D01*
Y130415D01*
X112526Y130499D01*
X112508Y130609D01*
X112471Y130730D01*
X112424Y130850D01*
X112360Y130970D01*
X112276Y131081D01*
X112267Y131090D01*
X112230Y131127D01*
X112175Y131173D01*
X112110Y131220D01*
X112018Y131275D01*
X111916Y131312D01*
X111805Y131349D01*
X111676Y131358D01*
X111583D01*
X111518Y131349D01*
X111435Y131340D01*
X111334Y131321D01*
X111232Y131294D01*
X111112Y131266D01*
X111241Y132255D01*
X111324D01*
X111417Y132264D01*
X111528Y132274D01*
X111648Y132301D01*
X111777Y132338D01*
X111897Y132394D01*
X112008Y132468D01*
X112018Y132477D01*
X112055Y132514D01*
X112092Y132560D01*
X112147Y132634D01*
X112193Y132717D01*
X112240Y132819D01*
X112267Y132939D01*
X112276Y133078D01*
Y133097D01*
Y133133D01*
X112267Y133189D01*
X112249Y133263D01*
X112230Y133346D01*
X112193Y133429D01*
X112147Y133522D01*
X112082Y133596D01*
X112073Y133605D01*
X112045Y133624D01*
X112008Y133660D01*
X111944Y133698D01*
X111870Y133725D01*
X111786Y133762D01*
X111676Y133781D01*
X111565Y133790D01*
X111509D01*
X111454Y133781D01*
X111380Y133762D01*
X111297Y133735D01*
X111204Y133698D01*
X111112Y133642D01*
X111028Y133568D01*
X111019Y133559D01*
X110991Y133531D01*
X110954Y133476D01*
X110908Y133402D01*
X110862Y133318D01*
X110825Y133208D01*
X110788Y133078D01*
X110760Y132930D01*
X109632Y133115D01*
Y133124D01*
X109642Y133143D01*
Y133170D01*
X109651Y133217D01*
X109678Y133318D01*
X109715Y133457D01*
X109771Y133605D01*
X109826Y133762D01*
X109900Y133910D01*
X109984Y134049D01*
X109993Y134067D01*
X110030Y134104D01*
X110085Y134169D01*
X110159Y134252D01*
X110252Y134335D01*
X110363Y134428D01*
X110501Y134520D01*
X110649Y134604D01*
X110659D01*
X110668Y134613D01*
X110723Y134631D01*
X110816Y134668D01*
X110927Y134705D01*
X111065Y134742D01*
X111232Y134779D01*
X111407Y134798D01*
X111602Y134807D01*
X111685D01*
X111749Y134798D01*
D02*
G37*
G36*
X106378Y134761D02*
X106480D01*
X106581Y134752D01*
X106701D01*
X106942Y134724D01*
X107191Y134696D01*
X107423Y134650D01*
X107524Y134622D01*
X107617Y134594D01*
X107626D01*
X107635Y134585D01*
X107691Y134557D01*
X107774Y134511D01*
X107885Y134456D01*
X108005Y134363D01*
X108125Y134262D01*
X108245Y134132D01*
X108356Y133975D01*
Y133966D01*
X108366Y133956D01*
X108384Y133929D01*
X108403Y133901D01*
X108449Y133808D01*
X108504Y133688D01*
X108551Y133540D01*
X108597Y133374D01*
X108634Y133180D01*
X108643Y132976D01*
Y132967D01*
Y132949D01*
Y132902D01*
X108634Y132856D01*
Y132791D01*
X108624Y132727D01*
X108588Y132560D01*
X108541Y132366D01*
X108467Y132172D01*
X108356Y131968D01*
X108292Y131876D01*
X108218Y131784D01*
X108209Y131774D01*
X108199Y131765D01*
X108172Y131737D01*
X108134Y131710D01*
X108097Y131673D01*
X108042Y131627D01*
X107977Y131580D01*
X107903Y131534D01*
X107820Y131479D01*
X107718Y131432D01*
X107617Y131386D01*
X107506Y131340D01*
X107376Y131294D01*
X107247Y131257D01*
X107108Y131220D01*
X106951Y131192D01*
X106960D01*
X106970Y131183D01*
X107025Y131146D01*
X107099Y131100D01*
X107191Y131035D01*
X107302Y130951D01*
X107413Y130868D01*
X107534Y130767D01*
X107635Y130656D01*
X107645Y130646D01*
X107691Y130600D01*
X107746Y130526D01*
X107829Y130415D01*
X107940Y130277D01*
X107996Y130184D01*
X108061Y130092D01*
X108134Y129990D01*
X108209Y129879D01*
X108292Y129750D01*
X108375Y129620D01*
X109161Y128372D01*
X107607D01*
X106683Y129759D01*
X106674Y129768D01*
X106664Y129796D01*
X106637Y129833D01*
X106600Y129879D01*
X106563Y129935D01*
X106517Y130008D01*
X106415Y130156D01*
X106295Y130323D01*
X106184Y130471D01*
X106082Y130609D01*
X106036Y130656D01*
X105999Y130702D01*
X105990Y130711D01*
X105971Y130730D01*
X105934Y130767D01*
X105888Y130813D01*
X105823Y130850D01*
X105758Y130896D01*
X105684Y130933D01*
X105611Y130970D01*
X105601D01*
X105574Y130979D01*
X105527Y130998D01*
X105453Y131007D01*
X105361Y131025D01*
X105250Y131035D01*
X105120Y131044D01*
X104704D01*
Y128372D01*
X103410D01*
Y134770D01*
X106295D01*
X106378Y134761D01*
D02*
G37*
G36*
X178000Y166581D02*
X173368D01*
X173377Y166572D01*
X173396Y166553D01*
X173423Y166516D01*
X173470Y166461D01*
X173525Y166396D01*
X173581Y166322D01*
X173645Y166230D01*
X173719Y166128D01*
X173793Y166017D01*
X173867Y165897D01*
X173950Y165767D01*
X174024Y165629D01*
X174163Y165333D01*
X174293Y165000D01*
X173183D01*
Y165009D01*
X173174Y165019D01*
X173165Y165046D01*
X173155Y165083D01*
X173109Y165176D01*
X173054Y165305D01*
X172980Y165462D01*
X172878Y165638D01*
X172749Y165832D01*
X172601Y166035D01*
X172591Y166045D01*
X172582Y166063D01*
X172554Y166091D01*
X172517Y166128D01*
X172425Y166230D01*
X172305Y166341D01*
X172157Y166470D01*
X171972Y166600D01*
X171778Y166720D01*
X171565Y166812D01*
Y167811D01*
X178000D01*
Y166581D01*
D02*
G37*
%LPC*%
G36*
X179820Y292717D02*
X179542D01*
X178941Y292694D01*
X178339Y292625D01*
X177807Y292509D01*
X177275Y292370D01*
X176812Y292208D01*
X176349Y292023D01*
X175956Y291815D01*
X175586Y291607D01*
X175238Y291399D01*
X174961Y291190D01*
X174706Y291005D01*
X174498Y290843D01*
X174336Y290704D01*
X174220Y290589D01*
X174151Y290519D01*
X174128Y290496D01*
X173758Y290056D01*
X173457Y289594D01*
X173179Y289108D01*
X172948Y288599D01*
X172740Y288067D01*
X172577Y287557D01*
X172439Y287048D01*
X172323Y286562D01*
X172230Y286077D01*
X172184Y285660D01*
X172138Y285267D01*
X172092Y284943D01*
Y284665D01*
X172068Y284457D01*
Y284272D01*
X172092Y283577D01*
X172161Y282929D01*
X172253Y282305D01*
X172392Y281749D01*
X172531Y281217D01*
X172716Y280708D01*
X172901Y280268D01*
X173086Y279875D01*
X173272Y279505D01*
X173457Y279181D01*
X173642Y278926D01*
X173781Y278695D01*
X173920Y278533D01*
X174012Y278394D01*
X174081Y278325D01*
X174105Y278302D01*
X174498Y277908D01*
X174915Y277584D01*
X175354Y277283D01*
X175794Y277052D01*
X176234Y276844D01*
X176673Y276659D01*
X177090Y276520D01*
X177483Y276404D01*
X177876Y276312D01*
X178223Y276242D01*
X178547Y276196D01*
X178802Y276173D01*
X179033Y276150D01*
X179195Y276126D01*
X179334D01*
X179820Y276150D01*
X180260Y276173D01*
X180699Y276242D01*
X181093Y276335D01*
X181463Y276427D01*
X181810Y276520D01*
X182134Y276636D01*
X182435Y276775D01*
X182689Y276890D01*
X182921Y277006D01*
X183129Y277098D01*
X183291Y277191D01*
X183430Y277283D01*
X183522Y277353D01*
X183569Y277376D01*
X183592Y277399D01*
X183893Y277654D01*
X184170Y277931D01*
X184679Y278556D01*
X185096Y279204D01*
X185420Y279829D01*
X185559Y280130D01*
X185674Y280407D01*
X185767Y280662D01*
X185860Y280870D01*
X185929Y281055D01*
X185975Y281194D01*
X185998Y281287D01*
Y281310D01*
X182851Y282282D01*
X182666Y281657D01*
X182458Y281125D01*
X182250Y280685D01*
X182018Y280315D01*
X181833Y280037D01*
X181671Y279852D01*
X181556Y279736D01*
X181509Y279690D01*
X181139Y279412D01*
X180769Y279227D01*
X180399Y279088D01*
X180075Y278973D01*
X179774Y278926D01*
X179519Y278903D01*
X179427Y278880D01*
X179311D01*
X178987Y278903D01*
X178686Y278926D01*
X178131Y279088D01*
X177645Y279273D01*
X177252Y279528D01*
X176928Y279759D01*
X176696Y279945D01*
X176604Y280037D01*
X176534Y280107D01*
X176511Y280130D01*
X176488Y280153D01*
X176303Y280407D01*
X176141Y280708D01*
X175979Y281032D01*
X175863Y281379D01*
X175678Y282097D01*
X175539Y282814D01*
X175493Y283161D01*
X175470Y283462D01*
X175424Y283763D01*
Y284017D01*
X175401Y284202D01*
Y284364D01*
Y284480D01*
Y284503D01*
X175424Y285035D01*
X175447Y285521D01*
X175493Y285961D01*
X175562Y286377D01*
X175655Y286747D01*
X175748Y287095D01*
X175840Y287395D01*
X175956Y287673D01*
X176048Y287904D01*
X176141Y288113D01*
X176234Y288275D01*
X176326Y288414D01*
X176395Y288529D01*
X176442Y288599D01*
X176488Y288645D01*
Y288668D01*
X176696Y288899D01*
X176928Y289108D01*
X177159Y289270D01*
X177414Y289409D01*
X177899Y289640D01*
X178362Y289802D01*
X178756Y289895D01*
X178941Y289918D01*
X179080Y289941D01*
X179219Y289964D01*
X179380D01*
X179843Y289941D01*
X180260Y289848D01*
X180630Y289732D01*
X180954Y289594D01*
X181208Y289455D01*
X181394Y289339D01*
X181509Y289247D01*
X181556Y289223D01*
X181856Y288946D01*
X182134Y288622D01*
X182342Y288298D01*
X182504Y287974D01*
X182620Y287696D01*
X182689Y287488D01*
X182736Y287395D01*
Y287326D01*
X182759Y287303D01*
Y287280D01*
X185952Y288043D01*
X185721Y288714D01*
X185466Y289293D01*
X185189Y289802D01*
X184934Y290218D01*
X184679Y290542D01*
X184587Y290681D01*
X184494Y290797D01*
X184425Y290866D01*
X184355Y290936D01*
X184332Y290982D01*
X184309D01*
X183962Y291283D01*
X183569Y291560D01*
X183199Y291792D01*
X182805Y291977D01*
X182389Y292162D01*
X181995Y292301D01*
X181602Y292417D01*
X181232Y292509D01*
X180884Y292579D01*
X180561Y292625D01*
X180283Y292671D01*
X180028Y292694D01*
X179820Y292717D01*
D02*
G37*
G36*
X201525Y292417D02*
X198540D01*
Y281634D01*
X191922Y292417D01*
X188798D01*
Y276404D01*
X191783D01*
Y286956D01*
X198285Y276404D01*
X201525D01*
Y292417D01*
D02*
G37*
G36*
X212100Y292509D02*
X209601D01*
X209369Y291977D01*
X209068Y291491D01*
X208744Y291028D01*
X208420Y290658D01*
X208143Y290357D01*
X207888Y290126D01*
X207796Y290033D01*
X207726Y289964D01*
X207680Y289941D01*
X207657Y289918D01*
X207148Y289547D01*
X206662Y289223D01*
X206222Y288969D01*
X205829Y288784D01*
X205505Y288645D01*
X205273Y288529D01*
X205181Y288506D01*
X205112Y288483D01*
X205088Y288460D01*
X205065D01*
Y285683D01*
X205898Y286007D01*
X206639Y286354D01*
X206986Y286539D01*
X207310Y286747D01*
X207610Y286933D01*
X207888Y287118D01*
X208143Y287303D01*
X208374Y287465D01*
X208559Y287604D01*
X208721Y287743D01*
X208860Y287858D01*
X208953Y287928D01*
X208999Y287974D01*
X209022Y287997D01*
Y276404D01*
X212100D01*
Y292509D01*
D02*
G37*
G36*
X76859Y251019D02*
X75379D01*
Y249391D01*
X76637D01*
X76821Y249401D01*
X77016Y249410D01*
X77210Y249419D01*
X77293Y249429D01*
X77367Y249438D01*
X77441Y249456D01*
X77487Y249466D01*
X77497D01*
X77524Y249484D01*
X77570Y249503D01*
X77617Y249530D01*
X77737Y249613D01*
X77792Y249669D01*
X77848Y249734D01*
X77857Y249743D01*
X77866Y249771D01*
X77894Y249808D01*
X77922Y249863D01*
X77940Y249937D01*
X77968Y250020D01*
X77977Y250113D01*
X77986Y250214D01*
Y250233D01*
Y250270D01*
X77977Y250325D01*
X77968Y250399D01*
X77940Y250483D01*
X77913Y250566D01*
X77866Y250658D01*
X77811Y250732D01*
X77802Y250741D01*
X77783Y250769D01*
X77737Y250797D01*
X77681Y250843D01*
X77617Y250889D01*
X77533Y250926D01*
X77432Y250963D01*
X77321Y250991D01*
X77312D01*
X77284Y251000D01*
X77228D01*
X77145Y251010D01*
X76942D01*
X76859Y251019D01*
D02*
G37*
G36*
X135952Y233317D02*
X134473D01*
Y231690D01*
X135730D01*
X135915Y231699D01*
X136109Y231709D01*
X136304Y231718D01*
X136387Y231727D01*
X136461Y231736D01*
X136535Y231755D01*
X136581Y231764D01*
X136590D01*
X136618Y231783D01*
X136664Y231801D01*
X136710Y231829D01*
X136831Y231912D01*
X136886Y231968D01*
X136941Y232032D01*
X136951Y232041D01*
X136960Y232069D01*
X136988Y232106D01*
X137015Y232162D01*
X137034Y232236D01*
X137062Y232319D01*
X137071Y232411D01*
X137080Y232513D01*
Y232532D01*
Y232568D01*
X137071Y232624D01*
X137062Y232698D01*
X137034Y232781D01*
X137006Y232864D01*
X136960Y232957D01*
X136904Y233031D01*
X136895Y233040D01*
X136877Y233068D01*
X136831Y233095D01*
X136775Y233142D01*
X136710Y233188D01*
X136627Y233225D01*
X136525Y233262D01*
X136414Y233290D01*
X136405D01*
X136377Y233299D01*
X136322D01*
X136239Y233308D01*
X136035D01*
X135952Y233317D01*
D02*
G37*
G36*
X101095Y260425D02*
X99607Y258225D01*
X101095D01*
Y260425D01*
D02*
G37*
G36*
X95280Y261183D02*
X93800D01*
Y259556D01*
X95058D01*
X95243Y259565D01*
X95437Y259575D01*
X95631Y259584D01*
X95714Y259593D01*
X95788Y259602D01*
X95862Y259621D01*
X95908Y259630D01*
X95918D01*
X95946Y259649D01*
X95992Y259667D01*
X96038Y259695D01*
X96158Y259778D01*
X96214Y259834D01*
X96269Y259898D01*
X96278Y259907D01*
X96288Y259935D01*
X96315Y259972D01*
X96343Y260028D01*
X96362Y260102D01*
X96389Y260185D01*
X96398Y260277D01*
X96408Y260379D01*
Y260397D01*
Y260434D01*
X96398Y260490D01*
X96389Y260564D01*
X96362Y260647D01*
X96334Y260730D01*
X96288Y260823D01*
X96232Y260897D01*
X96223Y260906D01*
X96204Y260934D01*
X96158Y260961D01*
X96103Y261008D01*
X96038Y261054D01*
X95955Y261091D01*
X95853Y261128D01*
X95742Y261156D01*
X95733D01*
X95705Y261165D01*
X95650D01*
X95566Y261174D01*
X95363D01*
X95280Y261183D01*
D02*
G37*
G36*
X95405Y245939D02*
X93925D01*
Y244312D01*
X95183D01*
X95368Y244321D01*
X95562Y244330D01*
X95756Y244339D01*
X95839Y244349D01*
X95913Y244358D01*
X95987Y244376D01*
X96033Y244386D01*
X96043D01*
X96070Y244404D01*
X96117Y244422D01*
X96163Y244450D01*
X96283Y244533D01*
X96338Y244589D01*
X96394Y244654D01*
X96403Y244663D01*
X96412Y244691D01*
X96440Y244728D01*
X96468Y244783D01*
X96486Y244857D01*
X96514Y244940D01*
X96523Y245033D01*
X96533Y245134D01*
Y245153D01*
Y245190D01*
X96523Y245245D01*
X96514Y245319D01*
X96486Y245403D01*
X96459Y245486D01*
X96412Y245578D01*
X96357Y245652D01*
X96348Y245661D01*
X96329Y245689D01*
X96283Y245717D01*
X96228Y245763D01*
X96163Y245809D01*
X96080Y245846D01*
X95978Y245883D01*
X95867Y245911D01*
X95858D01*
X95830Y245920D01*
X95774D01*
X95691Y245930D01*
X95488D01*
X95405Y245939D01*
D02*
G37*
G36*
X106184Y133688D02*
X104704D01*
Y132061D01*
X105962D01*
X106147Y132070D01*
X106341Y132079D01*
X106535Y132089D01*
X106618Y132098D01*
X106692Y132107D01*
X106766Y132126D01*
X106812Y132135D01*
X106822D01*
X106849Y132154D01*
X106896Y132172D01*
X106942Y132200D01*
X107062Y132283D01*
X107118Y132338D01*
X107173Y132403D01*
X107182Y132412D01*
X107191Y132440D01*
X107219Y132477D01*
X107247Y132533D01*
X107265Y132606D01*
X107293Y132690D01*
X107302Y132782D01*
X107312Y132884D01*
Y132902D01*
Y132939D01*
X107302Y132995D01*
X107293Y133069D01*
X107265Y133152D01*
X107238Y133235D01*
X107191Y133328D01*
X107136Y133402D01*
X107127Y133411D01*
X107108Y133439D01*
X107062Y133466D01*
X107007Y133513D01*
X106942Y133559D01*
X106859Y133596D01*
X106757Y133633D01*
X106646Y133660D01*
X106637D01*
X106609Y133670D01*
X106553D01*
X106470Y133679D01*
X106267D01*
X106184Y133688D01*
D02*
G37*
%LPD*%
D10*
X127635Y217580D02*
G03*
X127635Y217580I-635J0D01*
G01*
X195000Y240000D02*
X247000D01*
X195000Y160000D02*
Y240000D01*
Y160000D02*
X247000D01*
Y240000D01*
D11*
X73740Y229870D02*
X78740D01*
X83740D01*
X129620Y181610D02*
X139620D01*
Y180610D02*
Y182610D01*
X129620Y180610D02*
Y182610D01*
X147400Y209550D02*
X157400D01*
Y208550D02*
Y210550D01*
X147400Y208550D02*
Y210550D01*
X133430Y210820D02*
X138430D01*
X143430D01*
X71240Y199390D02*
X86240D01*
X123190Y259080D02*
Y264080D01*
Y254080D02*
Y259080D01*
Y238840D02*
Y243840D01*
Y248840D01*
X116840Y147320D02*
Y152320D01*
Y142320D02*
Y147320D01*
D12*
X83740Y228870D02*
Y230870D01*
X73740Y228870D02*
Y230870D01*
X143430Y209820D02*
Y211820D01*
X133430Y209820D02*
Y211820D01*
X71240Y197390D02*
Y201390D01*
X86240Y197390D02*
Y201390D01*
X122190Y254080D02*
X124190D01*
X122190Y264080D02*
X124190D01*
X96490Y185580D02*
Y205580D01*
X124490Y185580D02*
Y205580D01*
X122190Y248840D02*
X124190D01*
X122190Y238840D02*
X124190D01*
X115840Y142320D02*
X117840D01*
X115840Y152320D02*
X117840D01*
M02*
