G04*
G04 #@! TF.GenerationSoftware,Altium Limited,Altium Designer,23.10.1 (27)*
G04*
G04 Layer_Color=8388736*
%FSLAX44Y44*%
%MOMM*%
G71*
G04*
G04 #@! TF.SameCoordinates,2BD1216A-9774-42B0-94A2-F4FBBB1B66CC*
G04*
G04*
G04 #@! TF.FilePolarity,Negative*
G04*
G01*
G75*
%ADD20R,1.2032X0.9532*%
%ADD21R,1.2032X1.1532*%
%ADD22R,1.6532X1.3532*%
%ADD23R,0.9532X1.2032*%
%ADD24R,0.6278X1.6278*%
%ADD25R,3.0032X2.3032*%
%ADD26R,2.9032X0.8032*%
%ADD27C,1.7272*%
D20*
X78740Y237370D02*
D03*
Y222370D02*
D03*
X138430Y218320D02*
D03*
Y203320D02*
D03*
D21*
X134620Y189610D02*
D03*
Y173610D02*
D03*
X152400Y217550D02*
D03*
Y201550D02*
D03*
D22*
X78740Y189390D02*
D03*
Y209390D02*
D03*
D23*
X130690Y259080D02*
D03*
X115690D02*
D03*
Y243840D02*
D03*
X130690D02*
D03*
X124340Y147320D02*
D03*
X109340D02*
D03*
D24*
X100740Y173580D02*
D03*
X107240D02*
D03*
X113740D02*
D03*
X120240D02*
D03*
X100740Y217580D02*
D03*
X107240D02*
D03*
X113740D02*
D03*
X120240D02*
D03*
D25*
X202000Y256500D02*
D03*
Y143500D02*
D03*
D26*
X178000Y215000D02*
D03*
Y225000D02*
D03*
Y205000D02*
D03*
Y195000D02*
D03*
Y185000D02*
D03*
Y175000D02*
D03*
D27*
X230000Y380000D02*
D03*
X20000D02*
D03*
X230000Y20000D02*
D03*
X20000D02*
D03*
M02*
