G04*
G04 #@! TF.GenerationSoftware,Altium Limited,Altium Designer,22.4.2 (48)*
G04*
G04 Layer_Color=128*
%FSLAX44Y44*%
%MOMM*%
G71*
G04*
G04 #@! TF.SameCoordinates,3F8D2DE9-6248-4815-85C5-7CB1FE07798D*
G04*
G04*
G04 #@! TF.FilePolarity,Positive*
G04*
G01*
G75*
%ADD12C,0.1270*%
D12*
X280500Y422500D02*
X289500D01*
X285000Y418000D02*
Y427000D01*
X280500Y402500D02*
X289500D01*
X285000Y398000D02*
Y407000D01*
X57620Y123000D02*
X67780D01*
X62700Y117920D02*
Y128080D01*
X32220Y123000D02*
X42380D01*
X37300Y117920D02*
Y128080D01*
X32220Y97600D02*
X42380D01*
X37300Y92520D02*
Y102680D01*
X57620Y97600D02*
X67780D01*
X62700Y92520D02*
Y102680D01*
X57620Y148400D02*
X67780D01*
X62700Y143320D02*
Y153480D01*
X32220Y148400D02*
X42380D01*
X37300Y143320D02*
Y153480D01*
X57620Y326200D02*
X67780D01*
X62700Y321120D02*
Y331280D01*
X57620Y275400D02*
X67780D01*
X62700Y270320D02*
Y280480D01*
X57620Y250000D02*
X67780D01*
X62700Y244920D02*
Y255080D01*
X57620Y300800D02*
X67780D01*
X62700Y295720D02*
Y305880D01*
X32220Y300800D02*
X42380D01*
X37300Y295720D02*
Y305880D01*
X32220Y351600D02*
X42380D01*
X37300Y346520D02*
Y356680D01*
X32220Y250000D02*
X42380D01*
X37300Y244920D02*
Y255080D01*
X32220Y275400D02*
X42380D01*
X37300Y270320D02*
Y280480D01*
X32220Y402400D02*
X42380D01*
X37300Y397320D02*
Y407480D01*
X32220Y377000D02*
X42380D01*
X37300Y371920D02*
Y382080D01*
X32220Y326200D02*
X42380D01*
X37300Y321120D02*
Y331280D01*
X57620Y351600D02*
X67780D01*
X62700Y346520D02*
Y356680D01*
X32220Y224600D02*
X42380D01*
X37300Y219520D02*
Y229680D01*
X57620Y224600D02*
X67780D01*
X62700Y219520D02*
Y229680D01*
X57620Y173800D02*
X67780D01*
X62700Y168720D02*
Y178880D01*
X32220Y173800D02*
X42380D01*
X37300Y168720D02*
Y178880D01*
X32220Y199200D02*
X42380D01*
X37300Y194120D02*
Y204280D01*
X57620Y199200D02*
X67780D01*
X62700Y194120D02*
Y204280D01*
X57620Y402400D02*
X67780D01*
X62700Y397320D02*
Y407480D01*
X57620Y377000D02*
X67780D01*
X62700Y371920D02*
Y382080D01*
X280500Y227500D02*
X289500D01*
X285000Y223000D02*
Y232000D01*
X280500Y207500D02*
X289500D01*
X285000Y203000D02*
Y212000D01*
X280500Y357500D02*
X289500D01*
X285000Y353000D02*
Y362000D01*
X280500Y337500D02*
X289500D01*
X285000Y333000D02*
Y342000D01*
X280500Y272500D02*
X289500D01*
X285000Y268000D02*
Y277000D01*
X280500Y292500D02*
X289500D01*
X285000Y288000D02*
Y297000D01*
X280500Y97500D02*
X289500D01*
X285000Y93000D02*
Y102000D01*
X280500Y77500D02*
X289500D01*
X285000Y73000D02*
Y82000D01*
X280500Y142500D02*
X289500D01*
X285000Y138000D02*
Y147000D01*
X280500Y162500D02*
X289500D01*
X285000Y158000D02*
Y167000D01*
X12500Y475000D02*
X37500D01*
X25000Y462500D02*
Y487500D01*
X312500Y475000D02*
X337500D01*
X325000Y462500D02*
Y487500D01*
X312500Y25000D02*
X337500D01*
X325000Y12500D02*
Y37500D01*
X12500Y25000D02*
X37500D01*
X25000Y12500D02*
Y37500D01*
X247015Y91790D02*
X250825D01*
X248920Y89885D02*
Y93695D01*
X169545Y86360D02*
X173355D01*
X171450Y84455D02*
Y88265D01*
X185595Y103750D02*
X189405D01*
X187500Y101845D02*
Y105655D01*
X188595Y228600D02*
X192405D01*
X190500Y226695D02*
Y230505D01*
X187325Y242570D02*
X191135D01*
X189230Y240665D02*
Y244475D01*
X208915Y240030D02*
X212725D01*
X210820Y238125D02*
Y241935D01*
X196195Y270510D02*
X200005D01*
X198100Y268605D02*
Y272415D01*
X210185Y370250D02*
X213995D01*
X212090Y368345D02*
Y372155D01*
X210185Y389750D02*
X213995D01*
X212090Y387845D02*
Y391655D01*
X186055Y400050D02*
X189865D01*
X187960Y398145D02*
Y401955D01*
X211455Y129750D02*
X215265D01*
X213360Y127845D02*
Y131655D01*
X99304Y240140D02*
X103876D01*
X101590Y237854D02*
Y242426D01*
X245745Y175260D02*
X249555D01*
X247650Y173355D02*
Y177165D01*
X183495Y175260D02*
X187305D01*
X185400Y173355D02*
Y177165D01*
X244475Y304800D02*
X248285D01*
X246380Y302895D02*
Y306705D01*
X183495Y193060D02*
X187305D01*
X185400Y191155D02*
Y194965D01*
X183515Y304680D02*
X187325D01*
X185420Y302775D02*
Y306585D01*
X257175Y220980D02*
X260985D01*
X259080Y219075D02*
Y222885D01*
X247015Y351790D02*
X250825D01*
X248920Y349885D02*
Y353695D01*
X99324Y388366D02*
X103896D01*
X101610Y386080D02*
Y390652D01*
X99304Y370000D02*
X103876D01*
X101590Y367714D02*
Y372286D01*
X169095Y413500D02*
X172905D01*
X171000Y411595D02*
Y415405D01*
X99324Y130000D02*
X103896D01*
X101610Y127714D02*
Y132286D01*
X145014Y176850D02*
X149586D01*
X147300Y174564D02*
Y179136D01*
X145034Y196850D02*
X149606D01*
X147320Y194564D02*
Y199136D01*
X99324Y260000D02*
X103896D01*
X101610Y257714D02*
Y262286D01*
X145004Y303490D02*
X149576D01*
X147290Y301204D02*
Y305776D01*
X145024Y323840D02*
X149596D01*
X147310Y321554D02*
Y326126D01*
M02*
