G04*
G04 #@! TF.GenerationSoftware,Altium Limited,Altium Designer,22.4.2 (48)*
G04*
G04 Layer_Color=8421504*
%FSLAX44Y44*%
%MOMM*%
G71*
G04*
G04 #@! TF.SameCoordinates,3F8D2DE9-6248-4815-85C5-7CB1FE07798D*
G04*
G04*
G04 #@! TF.FilePolarity,Positive*
G04*
G01*
G75*
%ADD14R,1.3781X0.3281*%
%ADD15R,1.4500X1.1500*%
%ADD16R,0.7500X1.0000*%
%ADD17R,1.0000X0.7500*%
%ADD18R,1.0000X0.9500*%
%ADD19R,0.9500X1.0000*%
D14*
X229000Y97250D02*
D03*
Y136250D02*
D03*
Y142750D02*
D03*
Y123250D02*
D03*
Y129750D02*
D03*
Y103750D02*
D03*
Y116750D02*
D03*
Y110250D02*
D03*
X171000Y97250D02*
D03*
Y136250D02*
D03*
Y142750D02*
D03*
Y123250D02*
D03*
Y129750D02*
D03*
Y103750D02*
D03*
Y116750D02*
D03*
Y110250D02*
D03*
X229000Y357250D02*
D03*
X229000Y396250D02*
D03*
X229000Y402750D02*
D03*
X229000Y383250D02*
D03*
X229000Y389750D02*
D03*
Y363750D02*
D03*
Y376750D02*
D03*
X229000Y370250D02*
D03*
X171000Y357250D02*
D03*
Y383250D02*
D03*
X171000Y389750D02*
D03*
Y363750D02*
D03*
Y376750D02*
D03*
X171000Y370250D02*
D03*
X171000Y402750D02*
D03*
X171000Y396250D02*
D03*
X229000Y227250D02*
D03*
Y266250D02*
D03*
Y272750D02*
D03*
Y253250D02*
D03*
Y259750D02*
D03*
X229000Y233750D02*
D03*
X229000Y246750D02*
D03*
Y240250D02*
D03*
X171000Y227250D02*
D03*
Y266250D02*
D03*
Y272750D02*
D03*
Y253250D02*
D03*
Y259750D02*
D03*
Y233750D02*
D03*
Y246750D02*
D03*
Y240250D02*
D03*
D15*
X140000Y350000D02*
D03*
Y370000D02*
D03*
X140000Y220000D02*
D03*
Y240000D02*
D03*
X120000Y110000D02*
D03*
Y130000D02*
D03*
X140000Y110000D02*
D03*
X140000Y90000D02*
D03*
X127000Y323500D02*
D03*
Y303500D02*
D03*
Y196850D02*
D03*
Y176850D02*
D03*
X120000Y370000D02*
D03*
X120000Y390000D02*
D03*
X120000Y240000D02*
D03*
Y260000D02*
D03*
D16*
X216020Y289680D02*
D03*
X231020Y289680D02*
D03*
X140000Y53340D02*
D03*
X125000D02*
D03*
X231020Y160140D02*
D03*
X216020D02*
D03*
D17*
X200660Y175140D02*
D03*
Y160140D02*
D03*
Y289680D02*
D03*
X200660Y304680D02*
D03*
D18*
X140000Y146000D02*
D03*
Y130000D02*
D03*
X139700Y274700D02*
D03*
Y258700D02*
D03*
X140000Y390000D02*
D03*
Y406000D02*
D03*
D19*
X140000Y69850D02*
D03*
X124000D02*
D03*
X215520Y175260D02*
D03*
X231520D02*
D03*
Y304680D02*
D03*
X215520D02*
D03*
M02*
