M48
;Layer_Color=9474304
;FILE_FORMAT=4:2
METRIC,LZ
;TYPE=PLATED
T1F00S00C0.25
T2F00S00C0.30
T3F00S00C0.50
T4F00S00C1.00
;TYPE=NON_PLATED
T5F00S00C2.50
%
T01
X001283Y002252
X0015Y002916
X00165
Y003066
X0015
Y003217
X00165
X0018
Y003066
Y002916
T02
X002426Y000876
X00255Y00235
X00265Y00255
X00275Y00275
X00285Y00295
X002523Y003581
X001549Y003505
X00127Y003531
X001041Y002946
X000394
Y002335
X001Y002217
X0008Y001613
X001277Y001001
X001899Y002203
X001842Y002553
Y002756
T03
X001156Y00058
Y000737
X001469Y001067
X001629
X001638Y001816
X001469
X001461Y002405
X001981Y002845
Y003378
X00221Y003708
X00165Y003838
T04
X002578Y001232
X002832
X002324
X00207
X00208Y00061
X00228
X00188
X0009Y00017
X0007
X00066Y0013
X000406
X000152
T05
X00275Y00025
Y00375
X00025
Y00025
M30
