M48
;Layer_Color=9474304
;FILE_FORMAT=4:2
METRIC,LZ
;TYPE=PLATED
T1F00S00C0.25
T2F00S00C0.30
T3F00S00C0.38
T4F00S00C0.51
T5F00S00C0.90
T6F00S00C1.00
T8F00S00C1.02
T9F00S00C2.50
%
T01
X001022Y000499
X001112
Y000619
X001022
T02
X0012Y002946
X00135
Y003096
X0015
Y002946
Y003247
X00135
X0012
Y003096
T03
X000635Y002095
X000927Y002344
X001054Y002235
X001183Y0023
X00131Y0024
X001437Y0025
X001564Y0026
X001691Y0027
X001818Y0028
X001945Y0029
X000813Y003569
X000775Y003741
Y003868
T04
X000394Y001384
X000991Y000876
X002172Y003868
T05
X00064Y00022
Y00042
T06
X002705Y002934
Y003188
Y003442
X00029Y00301
Y002756
Y002502
Y002248
T08
X000992Y001397
X001246
Y001651
X000992
X0015Y001651
X001754
X001754Y001397
X0015
X002008
Y001651
T09
X00275Y0013
X0028Y0038
X0002
X00025Y0009
M30
