G04*
G04 #@! TF.GenerationSoftware,Altium Limited,Altium Designer,22.4.2 (48)*
G04*
G04 Layer_Physical_Order=1*
G04 Layer_Color=255*
%FSLAX44Y44*%
%MOMM*%
G71*
G04*
G04 #@! TF.SameCoordinates,805B4EF3-34EF-46CF-B3EC-FB7C4EB053B5*
G04*
G04*
G04 #@! TF.FilePolarity,Positive*
G04*
G01*
G75*
%ADD10C,0.2540*%
%ADD14R,1.0000X0.7500*%
%ADD15R,0.9500X1.4500*%
G04:AMPARAMS|DCode=16|XSize=1.5mm|YSize=3.5mm|CornerRadius=0.375mm|HoleSize=0mm|Usage=FLASHONLY|Rotation=270.000|XOffset=0mm|YOffset=0mm|HoleType=Round|Shape=RoundedRectangle|*
%AMROUNDEDRECTD16*
21,1,1.5000,2.7500,0,0,270.0*
21,1,0.7500,3.5000,0,0,270.0*
1,1,0.7500,-1.3750,-0.3750*
1,1,0.7500,-1.3750,0.3750*
1,1,0.7500,1.3750,0.3750*
1,1,0.7500,1.3750,-0.3750*
%
%ADD16ROUNDEDRECTD16*%
G04:AMPARAMS|DCode=17|XSize=1mm|YSize=3.5mm|CornerRadius=0.25mm|HoleSize=0mm|Usage=FLASHONLY|Rotation=270.000|XOffset=0mm|YOffset=0mm|HoleType=Round|Shape=RoundedRectangle|*
%AMROUNDEDRECTD17*
21,1,1.0000,3.0000,0,0,270.0*
21,1,0.5000,3.5000,0,0,270.0*
1,1,0.5000,-1.5000,-0.2500*
1,1,0.5000,-1.5000,0.2500*
1,1,0.5000,1.5000,0.2500*
1,1,0.5000,1.5000,-0.2500*
%
%ADD17ROUNDEDRECTD17*%
G04:AMPARAMS|DCode=18|XSize=4.5mm|YSize=4.5mm|CornerRadius=1.125mm|HoleSize=0mm|Usage=FLASHONLY|Rotation=0.000|XOffset=0mm|YOffset=0mm|HoleType=Round|Shape=RoundedRectangle|*
%AMROUNDEDRECTD18*
21,1,4.5000,2.2500,0,0,0.0*
21,1,2.2500,4.5000,0,0,0.0*
1,1,2.2500,1.1250,-1.1250*
1,1,2.2500,-1.1250,-1.1250*
1,1,2.2500,-1.1250,1.1250*
1,1,2.2500,1.1250,1.1250*
%
%ADD18ROUNDEDRECTD18*%
%ADD19R,1.4500X1.1500*%
G04:AMPARAMS|DCode=20|XSize=1.1mm|YSize=0.6mm|CornerRadius=0.15mm|HoleSize=0mm|Usage=FLASHONLY|Rotation=90.000|XOffset=0mm|YOffset=0mm|HoleType=Round|Shape=RoundedRectangle|*
%AMROUNDEDRECTD20*
21,1,1.1000,0.3000,0,0,90.0*
21,1,0.8000,0.6000,0,0,90.0*
1,1,0.3000,0.1500,0.4000*
1,1,0.3000,0.1500,-0.4000*
1,1,0.3000,-0.1500,-0.4000*
1,1,0.3000,-0.1500,0.4000*
%
%ADD20ROUNDEDRECTD20*%
%ADD21R,0.9500X1.0000*%
%ADD22R,1.0000X0.9500*%
%ADD24R,0.7500X1.0000*%
%ADD25R,1.1500X1.4500*%
%ADD39R,1.2000X1.2000*%
%ADD40C,0.5080*%
%ADD41C,1.0000*%
%ADD42C,1.5240*%
%ADD43O,1.5000X2.0000*%
%ADD44O,1.5000X0.9000*%
%ADD45C,0.6000*%
%ADD46C,0.5080*%
D10*
X154940Y350520D02*
X228600D01*
X39370Y318770D02*
X62640Y342040D01*
X39370Y294640D02*
Y318770D01*
X62640Y342040D02*
Y386080D01*
X139700Y87630D02*
X242570D01*
X66040Y130000D02*
X77010D01*
X81970Y125040D02*
X97210D01*
X97268Y124982D01*
X77010Y130000D02*
X81970Y125040D01*
X97268Y124982D02*
X128489D01*
X228600Y350520D02*
X236257Y358177D01*
X252179D01*
X252257Y358099D01*
X127120Y353180D02*
Y364370D01*
X127240Y364490D01*
X127000Y353060D02*
X127120Y353180D01*
X189867Y220271D02*
X195138Y215000D01*
X225250D01*
X128270Y176410D02*
Y225177D01*
X127709Y99621D02*
X139700Y87630D01*
X127709Y99621D02*
Y100074D01*
X82140Y386080D02*
X101600D01*
X111760Y396240D02*
X142240D01*
X101600Y386080D02*
X111760Y396240D01*
X142240D02*
X144740Y393740D01*
Y383800D02*
Y393740D01*
X74750Y215000D02*
X77721Y217971D01*
X96314D01*
X100005Y221661D01*
X80070Y161350D02*
X112970D01*
X80010Y161290D02*
X80070Y161350D01*
X112970D02*
X113030Y161410D01*
X74930Y294820D02*
X103960D01*
X104140Y294640D01*
X74750Y295000D02*
X74930Y294820D01*
X43669Y233545D02*
X45124Y235000D01*
X74750D01*
X39370Y233545D02*
X43669D01*
X75045Y275295D02*
X183855D01*
X74750Y275000D02*
X75045Y275295D01*
X183855D02*
X184150Y275590D01*
X74885Y255135D02*
X184015D01*
X184150Y255270D01*
X74750Y255000D02*
X74885Y255135D01*
X225250Y295000D02*
X285000D01*
X225250Y275000D02*
X275000D01*
X225250Y255000D02*
X265000D01*
X225250Y235000D02*
X255000D01*
X127240Y365800D02*
Y381300D01*
X124740Y383800D02*
X127240Y381300D01*
X68290Y106340D02*
X80342Y94288D01*
X17780Y106340D02*
X68290D01*
X13970Y102530D02*
X17780Y106340D01*
X13970Y93050D02*
Y102530D01*
X82718Y94288D02*
X84430Y92576D01*
X80342Y94288D02*
X82718D01*
X84430Y90200D02*
Y92576D01*
X31770Y90050D02*
X33020D01*
X18700Y76980D02*
X31770Y90050D01*
X18700Y76780D02*
Y76980D01*
X13970Y72050D02*
X18700Y76780D01*
X33020Y66040D02*
Y75050D01*
Y66040D02*
X36860Y62200D01*
X65430D01*
X48260Y90200D02*
X65430D01*
X88010Y40640D02*
X90000Y38650D01*
D14*
X113030Y176410D02*
D03*
Y161410D02*
D03*
X162940Y128390D02*
D03*
Y143390D02*
D03*
X146940D02*
D03*
Y128390D02*
D03*
X128270Y176410D02*
D03*
Y161410D02*
D03*
X33020Y75500D02*
D03*
Y90500D02*
D03*
X48260Y75500D02*
D03*
Y90500D02*
D03*
D15*
X82140Y386080D02*
D03*
X62640D02*
D03*
D16*
X19250Y338500D02*
D03*
Y171500D02*
D03*
X280750D02*
D03*
Y338500D02*
D03*
D17*
X74750Y315000D02*
D03*
Y195000D02*
D03*
Y295000D02*
D03*
Y215000D02*
D03*
Y235000D02*
D03*
Y255000D02*
D03*
Y275000D02*
D03*
X225250Y195000D02*
D03*
Y315000D02*
D03*
Y215000D02*
D03*
Y295000D02*
D03*
Y275000D02*
D03*
Y255000D02*
D03*
Y235000D02*
D03*
D18*
X165000Y306600D02*
D03*
D19*
X128489Y144982D02*
D03*
Y124982D02*
D03*
X201930Y363800D02*
D03*
Y383800D02*
D03*
D20*
X84430Y90200D02*
D03*
X65430D02*
D03*
X84430Y62200D02*
D03*
X74930D02*
D03*
X65430D02*
D03*
D21*
X72010Y40640D02*
D03*
X88010D02*
D03*
D22*
X100330Y74200D02*
D03*
Y90200D02*
D03*
X181610Y383920D02*
D03*
Y367920D02*
D03*
D24*
X127240Y364490D02*
D03*
X142240D02*
D03*
D25*
X144740Y383800D02*
D03*
X124740D02*
D03*
D39*
X13970Y93050D02*
D03*
Y72050D02*
D03*
D40*
X177220Y231830D02*
X198120Y252730D01*
X177220Y195000D02*
Y231830D01*
X105450Y315000D02*
X128270Y337820D01*
X198120D01*
X165000Y383800D02*
X201930D01*
X146508Y182042D02*
Y240049D01*
X146077Y240481D02*
X146508Y240049D01*
Y182042D02*
X146940Y181610D01*
X114300Y227564D02*
X127217Y240481D01*
X114300Y208704D02*
Y227564D01*
X127217Y240481D02*
X146077D01*
X198120Y252730D02*
Y284480D01*
X100596Y195000D02*
X114300Y208704D01*
X162940Y106680D02*
Y128390D01*
X146940Y106680D02*
Y128390D01*
X129770Y123350D02*
Y124253D01*
X100330Y90200D02*
X119350D01*
X148590Y60960D02*
X187960D01*
X119350Y90200D02*
X148590Y60960D01*
X144740Y383800D02*
X165000D01*
X74750Y315000D02*
X105450D01*
X74750Y195000D02*
X100596D01*
X180000Y306600D02*
X194840D01*
X165000D02*
X180000D01*
X177220Y195000D02*
X225250D01*
X163830Y181610D02*
X177220Y195000D01*
X203240Y315000D02*
X225250D01*
X194840Y306600D02*
X203240Y315000D01*
X180000Y310220D02*
Y321670D01*
Y310220D02*
X180340Y309880D01*
X113030Y176410D02*
X128270D01*
X128460Y146120D02*
Y161220D01*
X128270Y161410D02*
X128460Y161220D01*
X162750Y143580D02*
X162940Y143390D01*
X129770Y124253D02*
X133199Y127682D01*
X146232D02*
X146940Y128390D01*
X133199Y127682D02*
X146232D01*
X128290Y143370D02*
X162920D01*
X128270Y143350D02*
X128290Y143370D01*
X162920D02*
X162940Y143390D01*
X157480Y364490D02*
X160910Y367920D01*
X181610D01*
X142240Y364490D02*
X157480D01*
X181610Y367920D02*
X181860D01*
X185980Y363800D01*
X201930D01*
X213940D02*
X220980Y370840D01*
X201930Y363800D02*
X213940D01*
X100330Y74200D02*
X100600Y73930D01*
X115300D01*
X115570Y73660D01*
X96550Y62200D02*
X100710Y58040D01*
X115570D01*
X84430Y62200D02*
X96550D01*
X70000Y20350D02*
X70109Y20241D01*
X84430Y90200D02*
X100330D01*
X74930Y71120D02*
X78957Y75147D01*
X99383D02*
X100330Y74200D01*
X78957Y75147D02*
X99383D01*
X74930Y62200D02*
Y71120D01*
X70850Y75200D02*
X74930Y71120D01*
X48260Y75200D02*
X70850D01*
X88010Y40640D02*
Y50420D01*
X84430Y54000D02*
Y62200D01*
Y54000D02*
X88010Y50420D01*
X72010Y50420D02*
X74930Y53340D01*
Y62200D01*
X72010Y40640D02*
Y50420D01*
X90000Y20350D02*
Y38650D01*
X70000Y20350D02*
Y38630D01*
X72010Y40640D01*
D41*
X165000Y306600D02*
D03*
Y291600D02*
D03*
Y321670D02*
D03*
X150000Y306600D02*
D03*
X180000D02*
D03*
Y291600D02*
D03*
X150000D02*
D03*
Y321670D02*
D03*
X180000D02*
D03*
X198120Y337820D02*
D03*
X162940Y106680D02*
D03*
X146940D02*
D03*
X198120Y284480D02*
D03*
X146077Y240481D02*
D03*
X163830Y181610D02*
D03*
X146940D02*
D03*
X220980Y370840D02*
D03*
X165000Y383800D02*
D03*
X115570Y73660D02*
D03*
Y58040D02*
D03*
D42*
X70000Y17000D02*
D03*
X90000D02*
D03*
X227960Y60960D02*
D03*
X207960D02*
D03*
X187960D02*
D03*
D43*
X40640Y130000D02*
D03*
X66040D02*
D03*
X15240D02*
D03*
X207010Y123190D02*
D03*
X257810D02*
D03*
X232410D02*
D03*
X283210D02*
D03*
D44*
X25000Y25000D02*
D03*
X275000Y375000D02*
D03*
X25000D02*
D03*
X275000Y25000D02*
D03*
D45*
X154940Y350520D02*
D03*
X242570Y87630D02*
D03*
X252257Y358099D02*
D03*
X127000Y353060D02*
D03*
X189867Y220271D02*
D03*
X127709Y100074D02*
D03*
X39370Y294640D02*
D03*
X100005Y221661D02*
D03*
X80010Y161290D02*
D03*
X104140Y294640D02*
D03*
X39370Y233545D02*
D03*
X184150Y275590D02*
D03*
Y255270D02*
D03*
X255000Y235000D02*
D03*
X265000Y255000D02*
D03*
X285000Y295000D02*
D03*
X275000Y275000D02*
D03*
D46*
X128270Y225177D02*
D03*
M02*
