G04*
G04 #@! TF.GenerationSoftware,Altium Limited,Altium Designer,22.4.2 (48)*
G04*
G04 Layer_Color=32768*
%FSLAX44Y44*%
%MOMM*%
G71*
G04*
G04 #@! TF.SameCoordinates,805B4EF3-34EF-46CF-B3EC-FB7C4EB053B5*
G04*
G04*
G04 #@! TF.FilePolarity,Positive*
G04*
G01*
G75*
%ADD10C,0.2540*%
%ADD11C,0.1270*%
D10*
X-17121Y348279D02*
X-17121Y161754D01*
X-17121Y348279D02*
X94525D01*
Y161754D02*
Y348279D01*
X-17121Y161754D02*
X94525D01*
X317121Y348246D02*
X317121Y161721D01*
X205475D02*
X317121D01*
X205475D02*
Y348246D01*
X317121D01*
D11*
X106330Y155910D02*
Y181910D01*
X119730D01*
Y155910D02*
Y181910D01*
X106330Y155910D02*
X119730D01*
X262710Y93630D02*
X288710D01*
Y107030D01*
X262710D02*
X288710D01*
X262710Y93630D02*
Y107030D01*
X53640Y374580D02*
X91140D01*
X53640D02*
Y397580D01*
X91140D01*
Y374580D02*
Y397580D01*
X53310Y397870D02*
X246350Y397870D01*
X53310Y397870D02*
X53310Y197350D01*
X246350Y197350D01*
X246350Y397870D01*
X240000Y396700D02*
Y458700D01*
X60000Y458700D02*
X240000Y458700D01*
X60000Y396700D02*
Y458700D01*
X119489Y152438D02*
X137489D01*
X119489Y117486D02*
Y152438D01*
Y117486D02*
X137489D01*
Y152438D01*
X169640Y122890D02*
Y148890D01*
X156240Y122890D02*
X169640D01*
X156240D02*
Y148890D01*
X169640D01*
X140240Y122890D02*
Y148890D01*
X153640D01*
Y122890D02*
Y148890D01*
X140240Y122890D02*
X153640D01*
X121570Y155910D02*
Y181910D01*
X134970D01*
Y155910D02*
Y181910D01*
X121570Y155910D02*
X134970D01*
X122840Y51596D02*
X136240D01*
X122840D02*
Y80539D01*
X136240D01*
Y51596D02*
Y80539D01*
X169384Y86010D02*
Y99410D01*
X140441Y86010D02*
X169384D01*
X140441D02*
Y99410D01*
X169384D01*
X139700Y45812D02*
Y83674D01*
Y45812D02*
X170180D01*
Y83674D01*
X139700D02*
X170180D01*
X192930Y356344D02*
X210930D01*
Y391296D01*
X192930D02*
X210930D01*
X192930Y356344D02*
Y391296D01*
X59896Y55361D02*
X90211D01*
X59896Y97028D02*
X90211D01*
Y55361D02*
Y97028D01*
X59896Y55361D02*
Y97028D01*
X65511Y33940D02*
X94453D01*
X65511D02*
Y47340D01*
X94453D01*
Y33940D02*
Y47340D01*
X26320Y70000D02*
X39720D01*
Y96000D01*
X26320D02*
X39720D01*
X26320Y70000D02*
Y96000D01*
X41560Y70000D02*
X54960D01*
Y96000D01*
X41560D02*
X54960D01*
X41560Y70000D02*
Y96000D01*
X227630Y138080D02*
Y151480D01*
X201630Y138080D02*
X227630D01*
X201630D02*
Y151480D01*
X227630D01*
X211910Y93630D02*
Y107030D01*
X237910D01*
Y93630D02*
Y107030D01*
X211910Y93630D02*
X237910D01*
X278310Y138080D02*
Y151480D01*
X252310Y138080D02*
X278310D01*
X252310D02*
Y151480D01*
X278310D01*
X107030Y67701D02*
Y96643D01*
X93630Y67701D02*
X107030D01*
X93630D02*
Y96643D01*
X107030D01*
X4318Y64262D02*
Y100838D01*
X22098D01*
X4318Y64262D02*
X22098D01*
Y100838D01*
X111332Y2207D02*
Y95121D01*
X48706D02*
X111332D01*
X48706Y2207D02*
X111332D01*
X48706D02*
Y95121D01*
X249391Y-20391D02*
Y75753D01*
X166666Y-20391D02*
X249391D01*
X166666D02*
Y75753D01*
X249391D01*
X174910Y361477D02*
Y390419D01*
X188310D01*
Y361477D02*
Y390419D01*
X174910Y361477D02*
X188310D01*
X121740Y357790D02*
Y371190D01*
X147740D01*
Y357790D02*
Y371190D01*
X121740Y357790D02*
X147740D01*
X117284Y374800D02*
X152236D01*
Y392800D01*
X117284D02*
X152236D01*
X117284Y374800D02*
Y392800D01*
X2032Y143351D02*
X79608D01*
X2032Y116677D02*
Y143314D01*
Y116677D02*
X79608D01*
Y143245D01*
X296672Y109867D02*
Y136541D01*
X193802Y109867D02*
X296672D01*
X193802D02*
Y136504D01*
Y136541D02*
X296672D01*
M02*
