G04*
G04 #@! TF.GenerationSoftware,Altium Limited,Altium Designer,22.4.2 (48)*
G04*
G04 Layer_Color=32896*
%FSLAX44Y44*%
%MOMM*%
G71*
G04*
G04 #@! TF.SameCoordinates,805B4EF3-34EF-46CF-B3EC-FB7C4EB053B5*
G04*
G04*
G04 #@! TF.FilePolarity,Positive*
G04*
G01*
G75*
%ADD10C,0.2540*%
%ADD11C,0.1270*%
G36*
X46520Y63850D02*
X19520D01*
Y75850D01*
X46520D01*
Y63850D01*
D02*
G37*
G36*
X274742Y87465D02*
X274925Y87169D01*
X275122Y86887D01*
X275320Y86662D01*
X275489Y86479D01*
X275644Y86337D01*
X275700Y86281D01*
X275743Y86239D01*
X275771Y86225D01*
X275785Y86211D01*
X276095Y85985D01*
X276391Y85788D01*
X276659Y85633D01*
X276899Y85520D01*
X277096Y85435D01*
X277237Y85365D01*
X277293Y85351D01*
X277336Y85337D01*
X277350Y85323D01*
X277364D01*
Y83631D01*
X276856Y83828D01*
X276405Y84040D01*
X276194Y84152D01*
X275996Y84279D01*
X275813Y84392D01*
X275644Y84505D01*
X275489Y84618D01*
X275348Y84716D01*
X275235Y84801D01*
X275137Y84886D01*
X275052Y84956D01*
X274995Y84998D01*
X274967Y85027D01*
X274953Y85041D01*
Y77978D01*
X273078D01*
Y87789D01*
X274601D01*
X274742Y87465D01*
D02*
G37*
G36*
X287274Y77978D02*
X285300D01*
Y82052D01*
X284666D01*
X284469Y82038D01*
X284300Y82024D01*
X284159Y81996D01*
X284046Y81981D01*
X283975Y81953D01*
X283933Y81939D01*
X283919D01*
X283806Y81883D01*
X283693Y81826D01*
X283595Y81756D01*
X283496Y81700D01*
X283426Y81629D01*
X283369Y81573D01*
X283341Y81545D01*
X283327Y81530D01*
X283270Y81460D01*
X283200Y81390D01*
X283045Y81178D01*
X282876Y80953D01*
X282693Y80699D01*
X282537Y80473D01*
X282467Y80360D01*
X282411Y80276D01*
X282354Y80205D01*
X282312Y80149D01*
X282298Y80107D01*
X282284Y80092D01*
X280874Y77978D01*
X278506D01*
X279704Y79881D01*
X279831Y80078D01*
X279958Y80276D01*
X280070Y80445D01*
X280183Y80600D01*
X280282Y80741D01*
X280366Y80882D01*
X280536Y81093D01*
X280662Y81263D01*
X280747Y81375D01*
X280818Y81446D01*
X280832Y81460D01*
X280987Y81629D01*
X281170Y81784D01*
X281339Y81911D01*
X281508Y82038D01*
X281649Y82137D01*
X281762Y82207D01*
X281847Y82263D01*
X281861Y82278D01*
X281875D01*
X281635Y82320D01*
X281424Y82376D01*
X281226Y82433D01*
X281029Y82503D01*
X280860Y82574D01*
X280705Y82644D01*
X280550Y82715D01*
X280423Y82799D01*
X280310Y82870D01*
X280211Y82940D01*
X280127Y83011D01*
X280070Y83067D01*
X280014Y83109D01*
X279972Y83152D01*
X279958Y83166D01*
X279944Y83180D01*
X279831Y83321D01*
X279732Y83462D01*
X279563Y83772D01*
X279450Y84068D01*
X279380Y84364D01*
X279323Y84618D01*
X279309Y84716D01*
Y84815D01*
X279295Y84886D01*
Y84956D01*
Y84984D01*
Y84998D01*
X279309Y85308D01*
X279366Y85604D01*
X279436Y85858D01*
X279507Y86084D01*
X279591Y86267D01*
X279662Y86408D01*
X279690Y86450D01*
X279718Y86493D01*
X279732Y86507D01*
Y86521D01*
X279901Y86760D01*
X280084Y86958D01*
X280268Y87113D01*
X280451Y87254D01*
X280620Y87338D01*
X280747Y87409D01*
X280832Y87451D01*
X280846Y87465D01*
X280860D01*
X281001Y87508D01*
X281156Y87550D01*
X281508Y87620D01*
X281889Y87663D01*
X282255Y87705D01*
X282439D01*
X282594Y87719D01*
X282749D01*
X282876Y87733D01*
X287274D01*
Y77978D01*
D02*
G37*
G36*
X267369Y87775D02*
X267609Y87747D01*
X267848Y87691D01*
X268060Y87634D01*
X268257Y87550D01*
X268440Y87465D01*
X268596Y87381D01*
X268750Y87282D01*
X268877Y87183D01*
X269004Y87099D01*
X269103Y87014D01*
X269174Y86930D01*
X269244Y86873D01*
X269286Y86817D01*
X269314Y86789D01*
X269328Y86775D01*
X269498Y86535D01*
X269639Y86253D01*
X269765Y85957D01*
X269878Y85647D01*
X269963Y85323D01*
X270047Y84984D01*
X270104Y84660D01*
X270160Y84336D01*
X270188Y84026D01*
X270217Y83744D01*
X270245Y83476D01*
X270259Y83250D01*
X270273Y83067D01*
Y82926D01*
Y82870D01*
Y82827D01*
Y82813D01*
Y82799D01*
X270259Y82292D01*
X270231Y81826D01*
X270188Y81390D01*
X270132Y80995D01*
X270076Y80642D01*
X270005Y80318D01*
X269921Y80036D01*
X269836Y79782D01*
X269765Y79571D01*
X269681Y79374D01*
X269611Y79219D01*
X269540Y79092D01*
X269498Y79007D01*
X269455Y78937D01*
X269427Y78894D01*
X269413Y78880D01*
X269244Y78683D01*
X269061Y78528D01*
X268877Y78373D01*
X268680Y78260D01*
X268497Y78147D01*
X268299Y78063D01*
X268116Y77992D01*
X267933Y77936D01*
X267764Y77879D01*
X267609Y77851D01*
X267468Y77823D01*
X267355Y77809D01*
X267256D01*
X267172Y77795D01*
X267115D01*
X266861Y77809D01*
X266622Y77837D01*
X266382Y77893D01*
X266171Y77950D01*
X265973Y78020D01*
X265790Y78105D01*
X265635Y78204D01*
X265480Y78302D01*
X265353Y78387D01*
X265226Y78485D01*
X265128Y78570D01*
X265043Y78641D01*
X264987Y78697D01*
X264944Y78753D01*
X264916Y78781D01*
X264902Y78796D01*
X264733Y79035D01*
X264592Y79317D01*
X264451Y79613D01*
X264352Y79938D01*
X264254Y80262D01*
X264183Y80586D01*
X264113Y80924D01*
X264056Y81249D01*
X264028Y81559D01*
X264000Y81841D01*
X263972Y82108D01*
X263958Y82334D01*
X263944Y82517D01*
Y82658D01*
Y82715D01*
Y82757D01*
Y82771D01*
Y82785D01*
X263958Y83293D01*
X263986Y83758D01*
X264028Y84181D01*
X264098Y84575D01*
X264169Y84942D01*
X264240Y85266D01*
X264338Y85562D01*
X264423Y85816D01*
X264507Y86056D01*
X264592Y86239D01*
X264676Y86408D01*
X264747Y86549D01*
X264818Y86648D01*
X264860Y86718D01*
X264888Y86760D01*
X264902Y86775D01*
X265057Y86958D01*
X265226Y87113D01*
X265410Y87240D01*
X265593Y87367D01*
X265776Y87465D01*
X265959Y87536D01*
X266129Y87606D01*
X266312Y87663D01*
X266481Y87705D01*
X266622Y87733D01*
X266763Y87761D01*
X266876Y87775D01*
X266974Y87789D01*
X267115D01*
X267369Y87775D01*
D02*
G37*
G36*
X32138Y350716D02*
X32434Y350697D01*
X33008Y350605D01*
X33489Y350456D01*
X33712Y350382D01*
X33915Y350290D01*
X34100Y350216D01*
X34248Y350123D01*
X34397Y350049D01*
X34508Y349994D01*
X34600Y349919D01*
X34656Y349882D01*
X34693Y349864D01*
X34711Y349845D01*
X34915Y349660D01*
X35100Y349475D01*
X35267Y349253D01*
X35415Y349012D01*
X35637Y348531D01*
X35823Y348068D01*
X35878Y347827D01*
X35934Y347623D01*
X35989Y347438D01*
X36008Y347271D01*
X36045Y347123D01*
Y347031D01*
X36063Y346957D01*
Y346938D01*
X33619Y346698D01*
X33582Y347068D01*
X33508Y347383D01*
X33434Y347660D01*
X33341Y347864D01*
X33267Y348031D01*
X33193Y348142D01*
X33138Y348216D01*
X33119Y348234D01*
X32934Y348382D01*
X32730Y348494D01*
X32527Y348586D01*
X32323Y348642D01*
X32156Y348679D01*
X32008Y348697D01*
X31878D01*
X31601Y348679D01*
X31360Y348623D01*
X31156Y348549D01*
X30971Y348475D01*
X30842Y348401D01*
X30730Y348327D01*
X30675Y348271D01*
X30656Y348253D01*
X30508Y348068D01*
X30397Y347864D01*
X30323Y347660D01*
X30268Y347457D01*
X30230Y347271D01*
X30212Y347105D01*
Y347012D01*
Y346994D01*
Y346975D01*
X30230Y346698D01*
X30286Y346438D01*
X30379Y346179D01*
X30471Y345957D01*
X30564Y345753D01*
X30656Y345605D01*
X30712Y345513D01*
X30730Y345475D01*
X30805Y345364D01*
X30916Y345235D01*
X31064Y345068D01*
X31212Y344920D01*
X31545Y344568D01*
X31878Y344216D01*
X32212Y343883D01*
X32360Y343735D01*
X32508Y343624D01*
X32619Y343513D01*
X32693Y343439D01*
X32749Y343383D01*
X32767Y343364D01*
X33138Y343013D01*
X33471Y342679D01*
X33786Y342365D01*
X34063Y342087D01*
X34323Y341809D01*
X34545Y341550D01*
X34748Y341328D01*
X34915Y341105D01*
X35063Y340920D01*
X35193Y340754D01*
X35304Y340624D01*
X35378Y340494D01*
X35452Y340420D01*
X35489Y340346D01*
X35526Y340309D01*
Y340291D01*
X35767Y339865D01*
X35952Y339421D01*
X36100Y339013D01*
X36211Y338643D01*
X36285Y338310D01*
X36304Y338180D01*
X36322Y338069D01*
X36341Y337976D01*
X36359Y337902D01*
Y337865D01*
Y337847D01*
X27749D01*
Y340124D01*
X32638D01*
X32490Y340365D01*
X32323Y340569D01*
X32249Y340661D01*
X32193Y340735D01*
X32156Y340772D01*
X32138Y340791D01*
X32064Y340865D01*
X31990Y340957D01*
X31767Y341161D01*
X31527Y341402D01*
X31286Y341642D01*
X31045Y341865D01*
X30842Y342050D01*
X30767Y342124D01*
X30712Y342179D01*
X30675Y342198D01*
X30656Y342216D01*
X30249Y342605D01*
X29916Y342920D01*
X29638Y343216D01*
X29416Y343439D01*
X29249Y343624D01*
X29138Y343753D01*
X29064Y343846D01*
X29045Y343865D01*
X28805Y344179D01*
X28601Y344476D01*
X28434Y344753D01*
X28305Y344994D01*
X28194Y345198D01*
X28120Y345364D01*
X28082Y345457D01*
X28064Y345494D01*
X27953Y345790D01*
X27879Y346087D01*
X27823Y346364D01*
X27786Y346623D01*
X27768Y346827D01*
X27749Y346994D01*
Y347105D01*
Y347142D01*
X27768Y347420D01*
X27805Y347697D01*
X27842Y347957D01*
X27916Y348197D01*
X28101Y348623D01*
X28286Y348994D01*
X28397Y349160D01*
X28490Y349290D01*
X28582Y349420D01*
X28675Y349512D01*
X28749Y349586D01*
X28786Y349660D01*
X28823Y349679D01*
X28842Y349697D01*
X29045Y349882D01*
X29286Y350049D01*
X29508Y350179D01*
X29767Y350290D01*
X30249Y350475D01*
X30730Y350605D01*
X30953Y350642D01*
X31156Y350679D01*
X31341Y350697D01*
X31508Y350716D01*
X31638Y350734D01*
X31823D01*
X32138Y350716D01*
D02*
G37*
G36*
X48451Y343809D02*
Y343420D01*
X48432Y343050D01*
Y342698D01*
X48414Y342383D01*
X48395Y342087D01*
X48377Y341828D01*
X48358Y341587D01*
X48321Y341365D01*
X48303Y341180D01*
X48284Y341013D01*
X48266Y340865D01*
X48247Y340754D01*
X48229Y340661D01*
Y340606D01*
X48210Y340569D01*
Y340550D01*
X48117Y340272D01*
X48025Y340013D01*
X47895Y339772D01*
X47784Y339569D01*
X47673Y339384D01*
X47580Y339235D01*
X47506Y339161D01*
X47488Y339124D01*
X47266Y338884D01*
X47025Y338661D01*
X46766Y338476D01*
X46525Y338310D01*
X46321Y338180D01*
X46136Y338087D01*
X46025Y338032D01*
X46007Y338013D01*
X45988D01*
X45803Y337939D01*
X45599Y337884D01*
X45136Y337772D01*
X44673Y337699D01*
X44229Y337661D01*
X44025Y337643D01*
X43822Y337624D01*
X43655D01*
X43488Y337606D01*
X43192D01*
X42655Y337624D01*
X42174Y337661D01*
X41748Y337735D01*
X41396Y337810D01*
X41248Y337828D01*
X41100Y337865D01*
X40989Y337902D01*
X40896Y337939D01*
X40822Y337958D01*
X40766Y337976D01*
X40748Y337995D01*
X40729D01*
X40396Y338143D01*
X40100Y338328D01*
X39841Y338495D01*
X39618Y338661D01*
X39452Y338810D01*
X39322Y338921D01*
X39248Y338995D01*
X39230Y339032D01*
X39026Y339291D01*
X38859Y339569D01*
X38730Y339828D01*
X38619Y340087D01*
X38544Y340309D01*
X38489Y340494D01*
X38470Y340550D01*
Y340606D01*
X38452Y340624D01*
Y340643D01*
X38415Y340846D01*
X38378Y341068D01*
X38341Y341309D01*
X38322Y341550D01*
X38285Y342105D01*
X38248Y342642D01*
Y342883D01*
Y343124D01*
X38230Y343346D01*
Y343531D01*
Y343679D01*
Y343809D01*
Y343883D01*
Y343901D01*
Y350660D01*
X40822D01*
Y343550D01*
Y343272D01*
Y343013D01*
X40841Y342772D01*
Y342550D01*
X40859Y342365D01*
Y342179D01*
X40877Y342013D01*
Y341865D01*
X40915Y341642D01*
X40933Y341476D01*
X40952Y341383D01*
Y341346D01*
X41007Y341105D01*
X41100Y340902D01*
X41211Y340717D01*
X41322Y340550D01*
X41433Y340420D01*
X41526Y340328D01*
X41600Y340272D01*
X41618Y340254D01*
X41840Y340106D01*
X42118Y339995D01*
X42377Y339921D01*
X42655Y339865D01*
X42896Y339828D01*
X43081Y339809D01*
X43266D01*
X43655Y339828D01*
X43988Y339883D01*
X44285Y339958D01*
X44544Y340050D01*
X44729Y340124D01*
X44877Y340198D01*
X44951Y340254D01*
X44988Y340272D01*
X45192Y340457D01*
X45359Y340680D01*
X45507Y340883D01*
X45599Y341087D01*
X45673Y341272D01*
X45729Y341420D01*
X45766Y341513D01*
Y341550D01*
X45784Y341661D01*
X45803Y341772D01*
Y341920D01*
X45821Y342087D01*
X45840Y342439D01*
Y342809D01*
X45858Y343142D01*
Y343290D01*
Y343439D01*
Y343550D01*
Y343624D01*
Y343679D01*
Y343698D01*
Y350660D01*
X48451D01*
Y343809D01*
D02*
G37*
G36*
X176767Y82884D02*
X176990Y82860D01*
X177201Y82813D01*
X177377Y82766D01*
X177518Y82719D01*
X177635Y82673D01*
X177705Y82649D01*
X177717Y82637D01*
X177729D01*
X177917Y82532D01*
X178093Y82414D01*
X178234Y82297D01*
X178351Y82191D01*
X178445Y82086D01*
X178515Y82004D01*
X178562Y81957D01*
X178574Y81933D01*
X178680Y81757D01*
X178773Y81569D01*
X178844Y81370D01*
X178914Y81182D01*
X178961Y81006D01*
X178996Y80877D01*
X179008Y80818D01*
Y80783D01*
X179020Y80760D01*
Y80748D01*
X177588Y80513D01*
X177553Y80701D01*
X177506Y80865D01*
X177459Y81006D01*
X177400Y81112D01*
X177342Y81206D01*
X177295Y81276D01*
X177260Y81311D01*
X177248Y81323D01*
X177142Y81417D01*
X177025Y81487D01*
X176908Y81534D01*
X176802Y81569D01*
X176708Y81593D01*
X176638Y81605D01*
X176567D01*
X176426Y81593D01*
X176286Y81569D01*
X176180Y81523D01*
X176086Y81487D01*
X176004Y81440D01*
X175957Y81393D01*
X175922Y81370D01*
X175910Y81358D01*
X175828Y81264D01*
X175769Y81147D01*
X175722Y81041D01*
X175699Y80936D01*
X175675Y80842D01*
X175664Y80772D01*
Y80724D01*
Y80701D01*
X175675Y80525D01*
X175711Y80372D01*
X175769Y80243D01*
X175828Y80138D01*
X175898Y80044D01*
X175945Y79985D01*
X175992Y79938D01*
X176004Y79927D01*
X176145Y79833D01*
X176297Y79762D01*
X176462Y79715D01*
X176614Y79680D01*
X176755Y79668D01*
X176872Y79657D01*
X176978D01*
X177142Y78401D01*
X176990Y78436D01*
X176861Y78471D01*
X176731Y78495D01*
X176626Y78507D01*
X176544Y78518D01*
X176426D01*
X176262Y78507D01*
X176121Y78460D01*
X175992Y78413D01*
X175875Y78342D01*
X175793Y78284D01*
X175722Y78225D01*
X175675Y78178D01*
X175664Y78166D01*
X175558Y78025D01*
X175476Y77873D01*
X175417Y77720D01*
X175370Y77568D01*
X175347Y77427D01*
X175335Y77321D01*
Y77251D01*
Y77239D01*
Y77228D01*
X175347Y77005D01*
X175382Y76805D01*
X175441Y76629D01*
X175499Y76488D01*
X175570Y76383D01*
X175617Y76301D01*
X175664Y76242D01*
X175675Y76230D01*
X175805Y76113D01*
X175945Y76019D01*
X176074Y75960D01*
X176203Y75913D01*
X176321Y75890D01*
X176403Y75878D01*
X176462Y75866D01*
X176485D01*
X176649Y75878D01*
X176790Y75913D01*
X176919Y75960D01*
X177037Y76019D01*
X177119Y76066D01*
X177189Y76113D01*
X177236Y76148D01*
X177248Y76160D01*
X177353Y76289D01*
X177447Y76430D01*
X177506Y76582D01*
X177565Y76723D01*
X177600Y76852D01*
X177623Y76958D01*
X177635Y77028D01*
Y77040D01*
Y77052D01*
X179137Y76864D01*
X179114Y76676D01*
X179067Y76500D01*
X178961Y76171D01*
X178832Y75890D01*
X178750Y75772D01*
X178680Y75655D01*
X178609Y75550D01*
X178539Y75467D01*
X178480Y75385D01*
X178421Y75326D01*
X178374Y75280D01*
X178339Y75244D01*
X178316Y75221D01*
X178304Y75209D01*
X178163Y75104D01*
X178011Y74998D01*
X177870Y74916D01*
X177705Y74845D01*
X177400Y74728D01*
X177119Y74658D01*
X176978Y74634D01*
X176861Y74611D01*
X176755Y74599D01*
X176661Y74587D01*
X176579Y74576D01*
X176473D01*
X176262Y74587D01*
X176051Y74611D01*
X175863Y74646D01*
X175675Y74693D01*
X175511Y74752D01*
X175347Y74810D01*
X175194Y74881D01*
X175065Y74951D01*
X174948Y75021D01*
X174830Y75092D01*
X174748Y75150D01*
X174666Y75209D01*
X174608Y75256D01*
X174561Y75291D01*
X174537Y75315D01*
X174525Y75326D01*
X174385Y75467D01*
X174267Y75620D01*
X174162Y75772D01*
X174068Y75925D01*
X173997Y76089D01*
X173927Y76242D01*
X173833Y76523D01*
X173810Y76653D01*
X173786Y76782D01*
X173763Y76887D01*
X173751Y76981D01*
X173739Y77052D01*
Y77110D01*
Y77145D01*
Y77157D01*
X173763Y77427D01*
X173810Y77662D01*
X173868Y77885D01*
X173950Y78061D01*
X174032Y78213D01*
X174091Y78319D01*
X174138Y78389D01*
X174162Y78413D01*
X174326Y78589D01*
X174514Y78741D01*
X174701Y78859D01*
X174877Y78953D01*
X175030Y79023D01*
X175159Y79058D01*
X175206Y79082D01*
X175241D01*
X175265Y79093D01*
X175276D01*
X175065Y79222D01*
X174889Y79352D01*
X174737Y79492D01*
X174596Y79633D01*
X174478Y79774D01*
X174385Y79915D01*
X174314Y80056D01*
X174244Y80185D01*
X174197Y80314D01*
X174162Y80431D01*
X174138Y80537D01*
X174126Y80631D01*
X174115Y80701D01*
X174103Y80760D01*
Y80795D01*
Y80807D01*
X174115Y80948D01*
X174126Y81077D01*
X174197Y81335D01*
X174279Y81569D01*
X174385Y81769D01*
X174490Y81933D01*
X174584Y82051D01*
X174619Y82098D01*
X174655Y82133D01*
X174666Y82144D01*
X174678Y82156D01*
X174807Y82285D01*
X174960Y82403D01*
X175100Y82497D01*
X175253Y82579D01*
X175417Y82661D01*
X175570Y82719D01*
X175863Y82802D01*
X175992Y82837D01*
X176121Y82860D01*
X176227Y82872D01*
X176333Y82884D01*
X176415Y82895D01*
X176520D01*
X176767Y82884D01*
D02*
G37*
G36*
X186941Y78507D02*
Y78260D01*
X186929Y78025D01*
Y77803D01*
X186917Y77603D01*
X186906Y77415D01*
X186894Y77251D01*
X186882Y77098D01*
X186859Y76958D01*
X186847Y76840D01*
X186835Y76735D01*
X186824Y76641D01*
X186812Y76570D01*
X186800Y76512D01*
Y76476D01*
X186788Y76453D01*
Y76441D01*
X186730Y76265D01*
X186671Y76101D01*
X186589Y75949D01*
X186518Y75819D01*
X186448Y75702D01*
X186389Y75608D01*
X186342Y75561D01*
X186331Y75538D01*
X186190Y75385D01*
X186037Y75244D01*
X185873Y75127D01*
X185720Y75021D01*
X185591Y74939D01*
X185474Y74881D01*
X185404Y74845D01*
X185392Y74834D01*
X185380D01*
X185263Y74787D01*
X185134Y74752D01*
X184840Y74681D01*
X184547Y74634D01*
X184265Y74611D01*
X184136Y74599D01*
X184007Y74587D01*
X183902D01*
X183796Y74576D01*
X183608D01*
X183268Y74587D01*
X182963Y74611D01*
X182693Y74658D01*
X182470Y74705D01*
X182376Y74716D01*
X182282Y74740D01*
X182212Y74763D01*
X182153Y74787D01*
X182106Y74798D01*
X182071Y74810D01*
X182059Y74822D01*
X182047D01*
X181836Y74916D01*
X181648Y75033D01*
X181484Y75139D01*
X181343Y75244D01*
X181238Y75338D01*
X181156Y75409D01*
X181109Y75456D01*
X181097Y75479D01*
X180968Y75643D01*
X180862Y75819D01*
X180780Y75984D01*
X180710Y76148D01*
X180663Y76289D01*
X180627Y76406D01*
X180616Y76441D01*
Y76476D01*
X180604Y76488D01*
Y76500D01*
X180581Y76629D01*
X180557Y76770D01*
X180534Y76922D01*
X180522Y77075D01*
X180498Y77427D01*
X180475Y77767D01*
Y77920D01*
Y78073D01*
X180463Y78213D01*
Y78331D01*
Y78425D01*
Y78507D01*
Y78554D01*
Y78565D01*
Y82849D01*
X182106D01*
Y78342D01*
Y78166D01*
Y78002D01*
X182118Y77849D01*
Y77709D01*
X182130Y77591D01*
Y77474D01*
X182141Y77368D01*
Y77274D01*
X182165Y77134D01*
X182176Y77028D01*
X182188Y76969D01*
Y76946D01*
X182223Y76793D01*
X182282Y76664D01*
X182353Y76547D01*
X182423Y76441D01*
X182493Y76359D01*
X182552Y76301D01*
X182599Y76265D01*
X182611Y76254D01*
X182752Y76160D01*
X182927Y76089D01*
X183092Y76042D01*
X183268Y76007D01*
X183420Y75984D01*
X183538Y75972D01*
X183655D01*
X183902Y75984D01*
X184113Y76019D01*
X184300Y76066D01*
X184465Y76125D01*
X184582Y76171D01*
X184676Y76218D01*
X184723Y76254D01*
X184746Y76265D01*
X184876Y76383D01*
X184981Y76523D01*
X185075Y76653D01*
X185134Y76782D01*
X185181Y76899D01*
X185216Y76993D01*
X185239Y77052D01*
Y77075D01*
X185251Y77145D01*
X185263Y77216D01*
Y77310D01*
X185275Y77415D01*
X185286Y77638D01*
Y77873D01*
X185298Y78084D01*
Y78178D01*
Y78272D01*
Y78342D01*
Y78389D01*
Y78425D01*
Y78436D01*
Y82849D01*
X186941D01*
Y78507D01*
D02*
G37*
G36*
X273304Y157480D02*
X271330D01*
Y161554D01*
X270696D01*
X270499Y161540D01*
X270329Y161526D01*
X270189Y161498D01*
X270076Y161483D01*
X270005Y161455D01*
X269963Y161441D01*
X269949D01*
X269836Y161385D01*
X269723Y161329D01*
X269625Y161258D01*
X269526Y161202D01*
X269456Y161131D01*
X269399Y161075D01*
X269371Y161047D01*
X269357Y161032D01*
X269300Y160962D01*
X269230Y160891D01*
X269075Y160680D01*
X268906Y160455D01*
X268722Y160201D01*
X268567Y159975D01*
X268497Y159862D01*
X268440Y159778D01*
X268384Y159707D01*
X268342Y159651D01*
X268328Y159609D01*
X268314Y159594D01*
X266904Y157480D01*
X264536D01*
X265734Y159383D01*
X265861Y159580D01*
X265988Y159778D01*
X266100Y159947D01*
X266213Y160102D01*
X266312Y160243D01*
X266397Y160384D01*
X266566Y160595D01*
X266693Y160765D01*
X266777Y160877D01*
X266848Y160948D01*
X266862Y160962D01*
X267017Y161131D01*
X267200Y161286D01*
X267369Y161413D01*
X267538Y161540D01*
X267679Y161639D01*
X267792Y161709D01*
X267877Y161765D01*
X267891Y161780D01*
X267905D01*
X267665Y161822D01*
X267454Y161878D01*
X267256Y161935D01*
X267059Y162005D01*
X266890Y162076D01*
X266735Y162146D01*
X266580Y162217D01*
X266453Y162301D01*
X266340Y162372D01*
X266241Y162442D01*
X266157Y162513D01*
X266100Y162569D01*
X266044Y162611D01*
X266002Y162654D01*
X265988Y162668D01*
X265974Y162682D01*
X265861Y162823D01*
X265762Y162964D01*
X265593Y163274D01*
X265480Y163570D01*
X265410Y163866D01*
X265353Y164120D01*
X265339Y164218D01*
Y164317D01*
X265325Y164387D01*
Y164458D01*
Y164486D01*
Y164500D01*
X265339Y164810D01*
X265396Y165107D01*
X265466Y165360D01*
X265537Y165586D01*
X265621Y165769D01*
X265692Y165910D01*
X265720Y165952D01*
X265748Y165995D01*
X265762Y166009D01*
Y166023D01*
X265931Y166262D01*
X266115Y166460D01*
X266298Y166615D01*
X266481Y166756D01*
X266650Y166840D01*
X266777Y166911D01*
X266862Y166953D01*
X266876Y166967D01*
X266890D01*
X267031Y167010D01*
X267186Y167052D01*
X267538Y167122D01*
X267919Y167165D01*
X268286Y167207D01*
X268469D01*
X268624Y167221D01*
X268779D01*
X268906Y167235D01*
X273304D01*
Y157480D01*
D02*
G37*
G36*
X260997Y167277D02*
X261237Y167263D01*
X261462Y167221D01*
X261674Y167179D01*
X261871Y167122D01*
X262055Y167066D01*
X262210Y166996D01*
X262351Y166939D01*
X262492Y166869D01*
X262604Y166798D01*
X262689Y166742D01*
X262773Y166685D01*
X262830Y166643D01*
X262872Y166601D01*
X262900Y166587D01*
X262915Y166573D01*
X263041Y166432D01*
X263168Y166291D01*
X263267Y166136D01*
X263351Y165995D01*
X263493Y165685D01*
X263577Y165403D01*
X263633Y165149D01*
X263648Y165036D01*
X263662Y164951D01*
X263676Y164867D01*
Y164810D01*
Y164782D01*
Y164768D01*
X263662Y164529D01*
X263619Y164317D01*
X263577Y164106D01*
X263507Y163936D01*
X263450Y163781D01*
X263408Y163683D01*
X263366Y163612D01*
X263351Y163584D01*
X263211Y163401D01*
X263041Y163232D01*
X262872Y163091D01*
X262689Y162964D01*
X262534Y162879D01*
X262407Y162809D01*
X262322Y162766D01*
X262308Y162752D01*
X262294D01*
X262590Y162597D01*
X262844Y162442D01*
X263055Y162273D01*
X263225Y162104D01*
X263366Y161949D01*
X263464Y161836D01*
X263521Y161751D01*
X263535Y161737D01*
Y161723D01*
X263662Y161469D01*
X263760Y161216D01*
X263817Y160962D01*
X263873Y160736D01*
X263901Y160553D01*
X263915Y160398D01*
Y160342D01*
Y160299D01*
Y160271D01*
Y160257D01*
X263901Y159989D01*
X263873Y159750D01*
X263817Y159510D01*
X263746Y159298D01*
X263676Y159087D01*
X263591Y158904D01*
X263493Y158735D01*
X263394Y158580D01*
X263295Y158453D01*
X263197Y158326D01*
X263112Y158227D01*
X263041Y158143D01*
X262971Y158072D01*
X262915Y158030D01*
X262886Y158002D01*
X262872Y157987D01*
X262703Y157861D01*
X262520Y157762D01*
X262337Y157663D01*
X262153Y157593D01*
X261787Y157466D01*
X261434Y157381D01*
X261265Y157353D01*
X261124Y157339D01*
X260997Y157325D01*
X260884Y157311D01*
X260786Y157297D01*
X260659D01*
X260391Y157311D01*
X260152Y157339D01*
X259912Y157381D01*
X259686Y157424D01*
X259489Y157494D01*
X259306Y157565D01*
X259122Y157635D01*
X258967Y157720D01*
X258826Y157804D01*
X258714Y157875D01*
X258601Y157945D01*
X258516Y158016D01*
X258446Y158058D01*
X258403Y158100D01*
X258375Y158128D01*
X258361Y158143D01*
X258206Y158312D01*
X258079Y158481D01*
X257952Y158664D01*
X257854Y158847D01*
X257769Y159031D01*
X257699Y159214D01*
X257600Y159566D01*
X257558Y159721D01*
X257530Y159862D01*
X257515Y160003D01*
X257501Y160116D01*
X257487Y160215D01*
Y160285D01*
Y160328D01*
Y160342D01*
X257501Y160638D01*
X257558Y160906D01*
X257614Y161159D01*
X257699Y161371D01*
X257769Y161540D01*
X257840Y161667D01*
X257896Y161751D01*
X257910Y161780D01*
X258079Y162005D01*
X258277Y162202D01*
X258488Y162372D01*
X258685Y162498D01*
X258869Y162611D01*
X259010Y162696D01*
X259066Y162724D01*
X259108Y162738D01*
X259137Y162752D01*
X259151D01*
X258925Y162865D01*
X258728Y162992D01*
X258559Y163119D01*
X258418Y163260D01*
X258305Y163372D01*
X258234Y163471D01*
X258178Y163528D01*
X258164Y163556D01*
X258037Y163767D01*
X257952Y163979D01*
X257882Y164176D01*
X257840Y164359D01*
X257811Y164529D01*
X257797Y164655D01*
Y164740D01*
Y164754D01*
Y164768D01*
X257811Y164965D01*
X257826Y165163D01*
X257924Y165515D01*
X258037Y165811D01*
X258178Y166079D01*
X258333Y166291D01*
X258389Y166375D01*
X258446Y166446D01*
X258502Y166502D01*
X258544Y166544D01*
X258559Y166558D01*
X258573Y166573D01*
X258728Y166699D01*
X258883Y166812D01*
X259066Y166911D01*
X259235Y166996D01*
X259602Y167122D01*
X259954Y167207D01*
X260109Y167235D01*
X260264Y167249D01*
X260391Y167263D01*
X260518Y167277D01*
X260603Y167292D01*
X260744D01*
X260997Y167277D01*
D02*
G37*
G36*
X223180Y87465D02*
X223363Y87169D01*
X223560Y86887D01*
X223758Y86662D01*
X223927Y86479D01*
X224082Y86337D01*
X224138Y86281D01*
X224181Y86239D01*
X224209Y86225D01*
X224223Y86211D01*
X224533Y85985D01*
X224829Y85788D01*
X225097Y85633D01*
X225337Y85520D01*
X225534Y85435D01*
X225675Y85365D01*
X225731Y85351D01*
X225774Y85337D01*
X225788Y85323D01*
X225802D01*
Y83631D01*
X225294Y83828D01*
X224843Y84040D01*
X224632Y84152D01*
X224434Y84279D01*
X224251Y84392D01*
X224082Y84505D01*
X223927Y84618D01*
X223786Y84716D01*
X223673Y84801D01*
X223575Y84886D01*
X223490Y84956D01*
X223433Y84998D01*
X223405Y85027D01*
X223391Y85041D01*
Y77978D01*
X221516D01*
Y87789D01*
X223039D01*
X223180Y87465D01*
D02*
G37*
G36*
X215596D02*
X215779Y87169D01*
X215976Y86887D01*
X216174Y86662D01*
X216343Y86479D01*
X216498Y86337D01*
X216554Y86281D01*
X216597Y86239D01*
X216625Y86225D01*
X216639Y86211D01*
X216949Y85985D01*
X217245Y85788D01*
X217513Y85633D01*
X217752Y85520D01*
X217950Y85435D01*
X218091Y85365D01*
X218147Y85351D01*
X218189Y85337D01*
X218204Y85323D01*
X218218D01*
Y83631D01*
X217710Y83828D01*
X217259Y84040D01*
X217048Y84152D01*
X216850Y84279D01*
X216667Y84392D01*
X216498Y84505D01*
X216343Y84618D01*
X216202Y84716D01*
X216089Y84801D01*
X215990Y84886D01*
X215906Y84956D01*
X215849Y84998D01*
X215821Y85027D01*
X215807Y85041D01*
Y77978D01*
X213932D01*
Y87789D01*
X215455D01*
X215596Y87465D01*
D02*
G37*
G36*
X235712Y77978D02*
X233738D01*
Y82052D01*
X233104D01*
X232907Y82038D01*
X232738Y82024D01*
X232597Y81996D01*
X232484Y81981D01*
X232413Y81953D01*
X232371Y81939D01*
X232357D01*
X232244Y81883D01*
X232131Y81826D01*
X232033Y81756D01*
X231934Y81700D01*
X231863Y81629D01*
X231807Y81573D01*
X231779Y81545D01*
X231765Y81530D01*
X231709Y81460D01*
X231638Y81390D01*
X231483Y81178D01*
X231314Y80953D01*
X231131Y80699D01*
X230975Y80473D01*
X230905Y80360D01*
X230849Y80276D01*
X230792Y80205D01*
X230750Y80149D01*
X230736Y80107D01*
X230722Y80092D01*
X229312Y77978D01*
X226944D01*
X228142Y79881D01*
X228269Y80078D01*
X228396Y80276D01*
X228508Y80445D01*
X228621Y80600D01*
X228720Y80741D01*
X228804Y80882D01*
X228974Y81093D01*
X229100Y81263D01*
X229185Y81375D01*
X229256Y81446D01*
X229270Y81460D01*
X229425Y81629D01*
X229608Y81784D01*
X229777Y81911D01*
X229946Y82038D01*
X230087Y82137D01*
X230200Y82207D01*
X230285Y82263D01*
X230299Y82278D01*
X230313D01*
X230073Y82320D01*
X229862Y82376D01*
X229664Y82433D01*
X229467Y82503D01*
X229298Y82574D01*
X229143Y82644D01*
X228988Y82715D01*
X228861Y82799D01*
X228748Y82870D01*
X228649Y82940D01*
X228565Y83011D01*
X228508Y83067D01*
X228452Y83109D01*
X228410Y83152D01*
X228396Y83166D01*
X228382Y83180D01*
X228269Y83321D01*
X228170Y83462D01*
X228001Y83772D01*
X227888Y84068D01*
X227818Y84364D01*
X227761Y84618D01*
X227747Y84716D01*
Y84815D01*
X227733Y84886D01*
Y84956D01*
Y84984D01*
Y84998D01*
X227747Y85308D01*
X227804Y85604D01*
X227874Y85858D01*
X227945Y86084D01*
X228029Y86267D01*
X228100Y86408D01*
X228128Y86450D01*
X228156Y86493D01*
X228170Y86507D01*
Y86521D01*
X228339Y86760D01*
X228522Y86958D01*
X228706Y87113D01*
X228889Y87254D01*
X229058Y87338D01*
X229185Y87409D01*
X229270Y87451D01*
X229284Y87465D01*
X229298D01*
X229439Y87508D01*
X229594Y87550D01*
X229946Y87620D01*
X230327Y87663D01*
X230693Y87705D01*
X230877D01*
X231032Y87719D01*
X231187D01*
X231314Y87733D01*
X235712D01*
Y77978D01*
D02*
G37*
G36*
X210366Y167277D02*
X210592Y167249D01*
X210818Y167207D01*
X211029Y167150D01*
X211226Y167080D01*
X211410Y166996D01*
X211593Y166925D01*
X211734Y166840D01*
X211875Y166742D01*
X212002Y166671D01*
X212100Y166587D01*
X212199Y166516D01*
X212270Y166460D01*
X212312Y166418D01*
X212340Y166389D01*
X212354Y166375D01*
X212509Y166192D01*
X212636Y166009D01*
X212763Y165811D01*
X212862Y165614D01*
X212946Y165417D01*
X213017Y165205D01*
X213115Y164825D01*
X213158Y164655D01*
X213186Y164486D01*
X213200Y164345D01*
X213214Y164218D01*
X213228Y164106D01*
Y164035D01*
Y163979D01*
Y163965D01*
X213214Y163711D01*
X213186Y163457D01*
X213158Y163218D01*
X213101Y163006D01*
X213031Y162795D01*
X212960Y162611D01*
X212890Y162428D01*
X212805Y162273D01*
X212735Y162132D01*
X212664Y162005D01*
X212594Y161907D01*
X212523Y161808D01*
X212467Y161751D01*
X212439Y161695D01*
X212411Y161667D01*
X212397Y161653D01*
X212241Y161498D01*
X212072Y161357D01*
X211903Y161244D01*
X211734Y161145D01*
X211565Y161061D01*
X211410Y160976D01*
X211099Y160877D01*
X210832Y160807D01*
X210719Y160793D01*
X210620Y160779D01*
X210536Y160765D01*
X210423D01*
X210226Y160779D01*
X210042Y160807D01*
X209873Y160835D01*
X209704Y160891D01*
X209394Y161018D01*
X209140Y161173D01*
X208943Y161329D01*
X208858Y161399D01*
X208788Y161455D01*
X208731Y161512D01*
X208689Y161554D01*
X208675Y161568D01*
X208661Y161582D01*
X208689Y161286D01*
X208717Y161004D01*
X208745Y160751D01*
X208788Y160525D01*
X208830Y160328D01*
X208872Y160144D01*
X208915Y159989D01*
X208957Y159848D01*
X209013Y159721D01*
X209041Y159623D01*
X209084Y159538D01*
X209112Y159482D01*
X209140Y159425D01*
X209168Y159397D01*
X209182Y159369D01*
X209337Y159200D01*
X209507Y159073D01*
X209662Y158974D01*
X209817Y158918D01*
X209958Y158876D01*
X210056Y158862D01*
X210127Y158847D01*
X210155D01*
X210310Y158862D01*
X210465Y158890D01*
X210578Y158932D01*
X210691Y158974D01*
X210775Y159017D01*
X210832Y159059D01*
X210874Y159087D01*
X210888Y159101D01*
X210987Y159214D01*
X211057Y159341D01*
X211114Y159482D01*
X211156Y159623D01*
X211198Y159735D01*
X211212Y159834D01*
X211226Y159905D01*
Y159933D01*
X213031Y159721D01*
X212988Y159496D01*
X212932Y159298D01*
X212876Y159101D01*
X212805Y158932D01*
X212735Y158763D01*
X212664Y158608D01*
X212580Y158481D01*
X212509Y158354D01*
X212425Y158255D01*
X212368Y158157D01*
X212298Y158086D01*
X212241Y158016D01*
X212199Y157973D01*
X212157Y157931D01*
X212143Y157917D01*
X212129Y157903D01*
X211988Y157790D01*
X211847Y157706D01*
X211537Y157550D01*
X211241Y157452D01*
X210944Y157367D01*
X210677Y157325D01*
X210564Y157311D01*
X210465D01*
X210395Y157297D01*
X210282D01*
X209986Y157311D01*
X209718Y157353D01*
X209464Y157409D01*
X209210Y157480D01*
X208985Y157579D01*
X208773Y157677D01*
X208576Y157776D01*
X208407Y157889D01*
X208252Y158002D01*
X208111Y158100D01*
X207998Y158213D01*
X207899Y158298D01*
X207815Y158368D01*
X207759Y158425D01*
X207730Y158467D01*
X207716Y158481D01*
X207533Y158721D01*
X207392Y158988D01*
X207251Y159284D01*
X207138Y159580D01*
X207040Y159905D01*
X206955Y160229D01*
X206899Y160539D01*
X206842Y160863D01*
X206800Y161159D01*
X206772Y161427D01*
X206744Y161681D01*
X206730Y161907D01*
X206715Y162090D01*
Y162231D01*
Y162273D01*
Y162315D01*
Y162329D01*
Y162344D01*
X206730Y162823D01*
X206758Y163260D01*
X206800Y163669D01*
X206870Y164049D01*
X206941Y164387D01*
X207011Y164698D01*
X207110Y164980D01*
X207195Y165233D01*
X207279Y165445D01*
X207364Y165628D01*
X207448Y165783D01*
X207519Y165910D01*
X207589Y166009D01*
X207632Y166079D01*
X207660Y166122D01*
X207674Y166136D01*
X207857Y166333D01*
X208055Y166516D01*
X208252Y166671D01*
X208449Y166798D01*
X208661Y166911D01*
X208858Y167010D01*
X209056Y167080D01*
X209253Y167150D01*
X209422Y167193D01*
X209591Y167235D01*
X209732Y167263D01*
X209859Y167277D01*
X209972D01*
X210042Y167292D01*
X210113D01*
X210366Y167277D01*
D02*
G37*
G36*
X222504Y157480D02*
X220530D01*
Y161554D01*
X219896D01*
X219699Y161540D01*
X219529Y161526D01*
X219389Y161498D01*
X219276Y161483D01*
X219205Y161455D01*
X219163Y161441D01*
X219149D01*
X219036Y161385D01*
X218923Y161329D01*
X218825Y161258D01*
X218726Y161202D01*
X218655Y161131D01*
X218599Y161075D01*
X218571Y161047D01*
X218557Y161032D01*
X218500Y160962D01*
X218430Y160891D01*
X218275Y160680D01*
X218106Y160455D01*
X217922Y160201D01*
X217767Y159975D01*
X217697Y159862D01*
X217640Y159778D01*
X217584Y159707D01*
X217542Y159651D01*
X217528Y159609D01*
X217514Y159594D01*
X216104Y157480D01*
X213736D01*
X214934Y159383D01*
X215061Y159580D01*
X215188Y159778D01*
X215300Y159947D01*
X215413Y160102D01*
X215512Y160243D01*
X215597Y160384D01*
X215766Y160595D01*
X215893Y160765D01*
X215977Y160877D01*
X216048Y160948D01*
X216062Y160962D01*
X216217Y161131D01*
X216400Y161286D01*
X216569Y161413D01*
X216738Y161540D01*
X216879Y161639D01*
X216992Y161709D01*
X217077Y161765D01*
X217091Y161780D01*
X217105D01*
X216865Y161822D01*
X216654Y161878D01*
X216456Y161935D01*
X216259Y162005D01*
X216090Y162076D01*
X215935Y162146D01*
X215780Y162217D01*
X215653Y162301D01*
X215540Y162372D01*
X215441Y162442D01*
X215357Y162513D01*
X215300Y162569D01*
X215244Y162611D01*
X215202Y162654D01*
X215188Y162668D01*
X215174Y162682D01*
X215061Y162823D01*
X214962Y162964D01*
X214793Y163274D01*
X214680Y163570D01*
X214610Y163866D01*
X214553Y164120D01*
X214539Y164218D01*
Y164317D01*
X214525Y164387D01*
Y164458D01*
Y164486D01*
Y164500D01*
X214539Y164810D01*
X214596Y165107D01*
X214666Y165360D01*
X214737Y165586D01*
X214821Y165769D01*
X214892Y165910D01*
X214920Y165952D01*
X214948Y165995D01*
X214962Y166009D01*
Y166023D01*
X215131Y166262D01*
X215315Y166460D01*
X215498Y166615D01*
X215681Y166756D01*
X215850Y166840D01*
X215977Y166911D01*
X216062Y166953D01*
X216076Y166967D01*
X216090D01*
X216231Y167010D01*
X216386Y167052D01*
X216738Y167122D01*
X217119Y167165D01*
X217486Y167207D01*
X217669D01*
X217824Y167221D01*
X217979D01*
X218106Y167235D01*
X222504D01*
Y157480D01*
D02*
G37*
G36*
X131135Y96907D02*
X131440Y96872D01*
X131710Y96813D01*
X131980Y96743D01*
X132214Y96661D01*
X132449Y96567D01*
X132649Y96461D01*
X132836Y96356D01*
X133012Y96250D01*
X133153Y96145D01*
X133282Y96051D01*
X133388Y95969D01*
X133470Y95898D01*
X133529Y95839D01*
X133564Y95804D01*
X133576Y95793D01*
X133763Y95569D01*
X133916Y95335D01*
X134057Y95088D01*
X134174Y94830D01*
X134280Y94560D01*
X134362Y94302D01*
X134432Y94044D01*
X134491Y93798D01*
X134538Y93551D01*
X134561Y93340D01*
X134585Y93140D01*
X134608Y92976D01*
Y92835D01*
X134620Y92730D01*
Y92659D01*
Y92648D01*
Y92636D01*
X134608Y92284D01*
X134573Y91955D01*
X134526Y91638D01*
X134456Y91357D01*
X134385Y91087D01*
X134291Y90829D01*
X134198Y90606D01*
X134104Y90406D01*
X134010Y90218D01*
X133916Y90054D01*
X133822Y89925D01*
X133752Y89808D01*
X133681Y89726D01*
X133634Y89655D01*
X133599Y89620D01*
X133587Y89608D01*
X133388Y89409D01*
X133177Y89244D01*
X132954Y89092D01*
X132731Y88975D01*
X132508Y88869D01*
X132285Y88775D01*
X132073Y88705D01*
X131874Y88646D01*
X131675Y88599D01*
X131498Y88564D01*
X131334Y88540D01*
X131205Y88529D01*
X131088Y88517D01*
X131006Y88505D01*
X130935D01*
X130689Y88517D01*
X130466Y88529D01*
X130243Y88564D01*
X130043Y88611D01*
X129856Y88658D01*
X129680Y88705D01*
X129515Y88763D01*
X129363Y88834D01*
X129234Y88892D01*
X129116Y88951D01*
X129011Y88998D01*
X128929Y89045D01*
X128858Y89092D01*
X128811Y89127D01*
X128788Y89139D01*
X128776Y89151D01*
X128624Y89280D01*
X128483Y89420D01*
X128224Y89737D01*
X128013Y90066D01*
X127849Y90383D01*
X127779Y90535D01*
X127720Y90676D01*
X127673Y90805D01*
X127626Y90911D01*
X127591Y91005D01*
X127567Y91075D01*
X127556Y91122D01*
Y91134D01*
X129152Y91627D01*
X129246Y91310D01*
X129351Y91040D01*
X129457Y90817D01*
X129574Y90629D01*
X129668Y90488D01*
X129750Y90394D01*
X129809Y90336D01*
X129832Y90312D01*
X130020Y90171D01*
X130208Y90078D01*
X130395Y90007D01*
X130560Y89949D01*
X130712Y89925D01*
X130841Y89913D01*
X130888Y89902D01*
X130947D01*
X131111Y89913D01*
X131264Y89925D01*
X131545Y90007D01*
X131792Y90101D01*
X131991Y90230D01*
X132156Y90347D01*
X132273Y90441D01*
X132320Y90488D01*
X132355Y90524D01*
X132367Y90535D01*
X132379Y90547D01*
X132472Y90676D01*
X132555Y90829D01*
X132637Y90993D01*
X132696Y91169D01*
X132789Y91533D01*
X132860Y91896D01*
X132883Y92073D01*
X132895Y92225D01*
X132919Y92378D01*
Y92507D01*
X132930Y92601D01*
Y92683D01*
Y92741D01*
Y92753D01*
X132919Y93023D01*
X132907Y93270D01*
X132883Y93492D01*
X132848Y93704D01*
X132801Y93891D01*
X132754Y94067D01*
X132707Y94220D01*
X132649Y94361D01*
X132602Y94478D01*
X132555Y94584D01*
X132508Y94666D01*
X132461Y94736D01*
X132426Y94795D01*
X132402Y94830D01*
X132379Y94854D01*
Y94865D01*
X132273Y94983D01*
X132156Y95088D01*
X132038Y95170D01*
X131909Y95241D01*
X131663Y95358D01*
X131428Y95440D01*
X131229Y95487D01*
X131135Y95499D01*
X131064Y95511D01*
X130994Y95523D01*
X130912D01*
X130677Y95511D01*
X130466Y95464D01*
X130278Y95405D01*
X130114Y95335D01*
X129985Y95264D01*
X129891Y95206D01*
X129832Y95159D01*
X129809Y95147D01*
X129656Y95006D01*
X129515Y94842D01*
X129410Y94678D01*
X129328Y94513D01*
X129269Y94373D01*
X129234Y94267D01*
X129210Y94220D01*
Y94185D01*
X129199Y94173D01*
Y94161D01*
X127579Y94549D01*
X127697Y94889D01*
X127826Y95182D01*
X127966Y95440D01*
X128096Y95652D01*
X128224Y95816D01*
X128272Y95886D01*
X128318Y95945D01*
X128354Y95980D01*
X128389Y96016D01*
X128401Y96039D01*
X128412D01*
X128588Y96192D01*
X128788Y96332D01*
X128976Y96450D01*
X129175Y96544D01*
X129386Y96637D01*
X129586Y96708D01*
X129785Y96767D01*
X129973Y96813D01*
X130149Y96849D01*
X130313Y96872D01*
X130454Y96896D01*
X130583Y96907D01*
X130689Y96919D01*
X130830D01*
X131135Y96907D01*
D02*
G37*
G36*
X126488Y95218D02*
X122956D01*
X123343Y94689D01*
X123683Y94138D01*
X123848Y93880D01*
X123988Y93610D01*
X124117Y93363D01*
X124235Y93129D01*
X124340Y92906D01*
X124434Y92706D01*
X124516Y92519D01*
X124587Y92366D01*
X124634Y92249D01*
X124669Y92155D01*
X124692Y92096D01*
X124704Y92073D01*
X124821Y91744D01*
X124927Y91427D01*
X125009Y91110D01*
X125091Y90805D01*
X125150Y90500D01*
X125209Y90218D01*
X125256Y89949D01*
X125291Y89702D01*
X125326Y89479D01*
X125350Y89268D01*
X125373Y89092D01*
X125385Y88939D01*
Y88810D01*
X125396Y88716D01*
Y88670D01*
Y88646D01*
X123894D01*
X123883Y89057D01*
X123848Y89479D01*
X123789Y89890D01*
X123765Y90078D01*
X123730Y90265D01*
X123695Y90430D01*
X123660Y90594D01*
X123636Y90723D01*
X123613Y90840D01*
X123589Y90946D01*
X123566Y91016D01*
X123554Y91063D01*
Y91075D01*
X123401Y91580D01*
X123237Y92061D01*
X123155Y92284D01*
X123061Y92495D01*
X122979Y92695D01*
X122897Y92882D01*
X122815Y93047D01*
X122744Y93199D01*
X122674Y93340D01*
X122627Y93446D01*
X122580Y93539D01*
X122545Y93598D01*
X122521Y93645D01*
X122510Y93657D01*
X122381Y93880D01*
X122252Y94091D01*
X122134Y94279D01*
X122017Y94466D01*
X121899Y94631D01*
X121782Y94783D01*
X121677Y94924D01*
X121583Y95053D01*
X121489Y95170D01*
X121407Y95264D01*
X121336Y95347D01*
X121278Y95417D01*
X121231Y95464D01*
X121195Y95499D01*
X121172Y95523D01*
X121160Y95534D01*
Y96661D01*
X126488D01*
Y95218D01*
D02*
G37*
G36*
X132659Y45853D02*
X132964Y45818D01*
X133234Y45759D01*
X133504Y45689D01*
X133738Y45607D01*
X133973Y45513D01*
X134173Y45407D01*
X134360Y45302D01*
X134536Y45196D01*
X134677Y45090D01*
X134806Y44997D01*
X134912Y44914D01*
X134994Y44844D01*
X135053Y44785D01*
X135088Y44750D01*
X135100Y44738D01*
X135287Y44516D01*
X135440Y44281D01*
X135581Y44034D01*
X135698Y43776D01*
X135804Y43506D01*
X135886Y43248D01*
X135956Y42990D01*
X136015Y42744D01*
X136062Y42497D01*
X136085Y42286D01*
X136109Y42086D01*
X136132Y41922D01*
Y41781D01*
X136144Y41676D01*
Y41605D01*
Y41594D01*
Y41582D01*
X136132Y41230D01*
X136097Y40901D01*
X136050Y40584D01*
X135980Y40303D01*
X135909Y40033D01*
X135815Y39775D01*
X135722Y39552D01*
X135628Y39352D01*
X135534Y39165D01*
X135440Y39000D01*
X135346Y38871D01*
X135276Y38754D01*
X135205Y38672D01*
X135158Y38601D01*
X135123Y38566D01*
X135111Y38554D01*
X134912Y38355D01*
X134701Y38191D01*
X134478Y38038D01*
X134255Y37921D01*
X134032Y37815D01*
X133809Y37721D01*
X133597Y37651D01*
X133398Y37592D01*
X133199Y37545D01*
X133022Y37510D01*
X132858Y37486D01*
X132729Y37475D01*
X132612Y37463D01*
X132530Y37451D01*
X132459D01*
X132213Y37463D01*
X131990Y37475D01*
X131767Y37510D01*
X131567Y37557D01*
X131380Y37604D01*
X131204Y37651D01*
X131039Y37709D01*
X130887Y37780D01*
X130758Y37838D01*
X130640Y37897D01*
X130535Y37944D01*
X130453Y37991D01*
X130382Y38038D01*
X130335Y38073D01*
X130312Y38085D01*
X130300Y38097D01*
X130147Y38226D01*
X130007Y38366D01*
X129748Y38683D01*
X129537Y39012D01*
X129373Y39329D01*
X129303Y39481D01*
X129244Y39622D01*
X129197Y39751D01*
X129150Y39857D01*
X129115Y39951D01*
X129091Y40021D01*
X129080Y40068D01*
Y40080D01*
X130676Y40573D01*
X130770Y40256D01*
X130875Y39986D01*
X130981Y39763D01*
X131098Y39575D01*
X131192Y39434D01*
X131274Y39341D01*
X131333Y39282D01*
X131356Y39258D01*
X131544Y39118D01*
X131732Y39024D01*
X131919Y38953D01*
X132084Y38895D01*
X132236Y38871D01*
X132365Y38859D01*
X132412Y38848D01*
X132471D01*
X132635Y38859D01*
X132788Y38871D01*
X133069Y38953D01*
X133316Y39047D01*
X133515Y39176D01*
X133680Y39293D01*
X133797Y39387D01*
X133844Y39434D01*
X133879Y39470D01*
X133891Y39481D01*
X133903Y39493D01*
X133996Y39622D01*
X134079Y39775D01*
X134161Y39939D01*
X134220Y40115D01*
X134313Y40479D01*
X134384Y40842D01*
X134407Y41019D01*
X134419Y41171D01*
X134443Y41324D01*
Y41453D01*
X134454Y41547D01*
Y41629D01*
Y41687D01*
Y41699D01*
X134443Y41969D01*
X134431Y42215D01*
X134407Y42439D01*
X134372Y42650D01*
X134325Y42838D01*
X134278Y43014D01*
X134231Y43166D01*
X134173Y43307D01*
X134126Y43424D01*
X134079Y43530D01*
X134032Y43612D01*
X133985Y43682D01*
X133950Y43741D01*
X133926Y43776D01*
X133903Y43800D01*
Y43811D01*
X133797Y43929D01*
X133680Y44034D01*
X133562Y44117D01*
X133433Y44187D01*
X133187Y44304D01*
X132952Y44386D01*
X132753Y44433D01*
X132659Y44445D01*
X132588Y44457D01*
X132518Y44469D01*
X132436D01*
X132201Y44457D01*
X131990Y44410D01*
X131802Y44351D01*
X131638Y44281D01*
X131509Y44210D01*
X131415Y44152D01*
X131356Y44105D01*
X131333Y44093D01*
X131180Y43952D01*
X131039Y43788D01*
X130934Y43624D01*
X130852Y43459D01*
X130793Y43319D01*
X130758Y43213D01*
X130734Y43166D01*
Y43131D01*
X130723Y43119D01*
Y43107D01*
X129103Y43495D01*
X129221Y43835D01*
X129350Y44128D01*
X129490Y44386D01*
X129620Y44598D01*
X129748Y44762D01*
X129796Y44832D01*
X129842Y44891D01*
X129878Y44926D01*
X129913Y44962D01*
X129925Y44985D01*
X129936D01*
X130112Y45138D01*
X130312Y45278D01*
X130500Y45396D01*
X130699Y45490D01*
X130910Y45583D01*
X131110Y45654D01*
X131309Y45712D01*
X131497Y45759D01*
X131673Y45795D01*
X131837Y45818D01*
X131978Y45842D01*
X132107Y45853D01*
X132213Y45865D01*
X132354D01*
X132659Y45853D01*
D02*
G37*
G36*
X125606Y45748D02*
X125806Y45736D01*
X125993Y45701D01*
X126169Y45665D01*
X126334Y45619D01*
X126486Y45572D01*
X126615Y45513D01*
X126733Y45466D01*
X126850Y45407D01*
X126944Y45349D01*
X127014Y45302D01*
X127085Y45255D01*
X127132Y45220D01*
X127167Y45184D01*
X127190Y45173D01*
X127202Y45161D01*
X127308Y45044D01*
X127413Y44926D01*
X127495Y44797D01*
X127566Y44680D01*
X127683Y44422D01*
X127754Y44187D01*
X127801Y43976D01*
X127812Y43882D01*
X127824Y43811D01*
X127836Y43741D01*
Y43694D01*
Y43671D01*
Y43659D01*
X127824Y43459D01*
X127789Y43283D01*
X127754Y43107D01*
X127695Y42966D01*
X127648Y42838D01*
X127613Y42755D01*
X127578Y42697D01*
X127566Y42673D01*
X127449Y42521D01*
X127308Y42380D01*
X127167Y42263D01*
X127014Y42157D01*
X126885Y42086D01*
X126780Y42028D01*
X126709Y41993D01*
X126698Y41981D01*
X126686D01*
X126932Y41852D01*
X127143Y41723D01*
X127319Y41582D01*
X127460Y41441D01*
X127578Y41312D01*
X127660Y41218D01*
X127707Y41148D01*
X127718Y41136D01*
Y41124D01*
X127824Y40913D01*
X127906Y40702D01*
X127953Y40490D01*
X128000Y40303D01*
X128024Y40150D01*
X128035Y40021D01*
Y39974D01*
Y39939D01*
Y39915D01*
Y39904D01*
X128024Y39681D01*
X128000Y39481D01*
X127953Y39282D01*
X127894Y39106D01*
X127836Y38930D01*
X127765Y38777D01*
X127683Y38636D01*
X127601Y38507D01*
X127519Y38402D01*
X127437Y38296D01*
X127366Y38214D01*
X127308Y38143D01*
X127249Y38085D01*
X127202Y38050D01*
X127179Y38026D01*
X127167Y38015D01*
X127026Y37909D01*
X126874Y37827D01*
X126721Y37745D01*
X126568Y37686D01*
X126263Y37580D01*
X125970Y37510D01*
X125829Y37486D01*
X125712Y37475D01*
X125606Y37463D01*
X125512Y37451D01*
X125430Y37439D01*
X125324D01*
X125102Y37451D01*
X124902Y37475D01*
X124703Y37510D01*
X124515Y37545D01*
X124351Y37604D01*
X124198Y37662D01*
X124045Y37721D01*
X123916Y37792D01*
X123799Y37862D01*
X123705Y37921D01*
X123611Y37979D01*
X123541Y38038D01*
X123482Y38073D01*
X123447Y38108D01*
X123424Y38132D01*
X123412Y38143D01*
X123283Y38284D01*
X123177Y38425D01*
X123071Y38578D01*
X122989Y38730D01*
X122919Y38883D01*
X122860Y39035D01*
X122778Y39329D01*
X122743Y39458D01*
X122719Y39575D01*
X122708Y39692D01*
X122696Y39786D01*
X122684Y39869D01*
Y39927D01*
Y39962D01*
Y39974D01*
X122696Y40221D01*
X122743Y40444D01*
X122790Y40655D01*
X122860Y40831D01*
X122919Y40972D01*
X122978Y41077D01*
X123025Y41148D01*
X123036Y41171D01*
X123177Y41359D01*
X123341Y41523D01*
X123517Y41664D01*
X123682Y41770D01*
X123834Y41863D01*
X123952Y41934D01*
X123998Y41957D01*
X124034Y41969D01*
X124057Y41981D01*
X124069D01*
X123881Y42075D01*
X123717Y42180D01*
X123576Y42286D01*
X123459Y42403D01*
X123365Y42497D01*
X123306Y42579D01*
X123259Y42626D01*
X123247Y42650D01*
X123142Y42826D01*
X123071Y43002D01*
X123013Y43166D01*
X122978Y43319D01*
X122954Y43459D01*
X122942Y43565D01*
Y43635D01*
Y43647D01*
Y43659D01*
X122954Y43823D01*
X122966Y43987D01*
X123048Y44281D01*
X123142Y44527D01*
X123259Y44750D01*
X123388Y44926D01*
X123435Y44997D01*
X123482Y45055D01*
X123529Y45102D01*
X123564Y45138D01*
X123576Y45149D01*
X123588Y45161D01*
X123717Y45267D01*
X123846Y45360D01*
X123998Y45443D01*
X124139Y45513D01*
X124444Y45619D01*
X124738Y45689D01*
X124867Y45712D01*
X124996Y45724D01*
X125102Y45736D01*
X125207Y45748D01*
X125278Y45759D01*
X125395D01*
X125606Y45748D01*
D02*
G37*
%LPC*%
G36*
X23076Y74704D02*
X22965D01*
X22896Y74690D01*
X22799D01*
X22688Y74676D01*
X22438Y74621D01*
X22161Y74551D01*
X21856Y74440D01*
X21551Y74288D01*
X21412Y74191D01*
X21274Y74080D01*
X21260D01*
X21246Y74052D01*
X21204Y74011D01*
X21163Y73969D01*
X21093Y73900D01*
X21038Y73830D01*
X20885Y73636D01*
X20733Y73373D01*
X20580Y73067D01*
X20441Y72721D01*
X20344Y72305D01*
X22119Y72111D01*
Y72138D01*
X22133Y72194D01*
X22161Y72291D01*
X22189Y72416D01*
X22230Y72540D01*
X22300Y72679D01*
X22369Y72804D01*
X22466Y72915D01*
X22480Y72929D01*
X22522Y72957D01*
X22577Y72998D01*
X22660Y73054D01*
X22757Y73095D01*
X22882Y73137D01*
X23035Y73165D01*
X23187Y73178D01*
X23215D01*
X23284Y73165D01*
X23395Y73151D01*
X23534Y73109D01*
X23687Y73054D01*
X23853Y72957D01*
X24019Y72832D01*
X24172Y72651D01*
X24186Y72624D01*
X24214Y72596D01*
X24241Y72540D01*
X24269Y72485D01*
X24311Y72402D01*
X24338Y72305D01*
X24380Y72180D01*
X24436Y72041D01*
X24477Y71889D01*
X24519Y71708D01*
X24560Y71514D01*
X24602Y71292D01*
X24630Y71043D01*
X24657Y70765D01*
X24685Y70474D01*
X24671Y70488D01*
X24657Y70516D01*
X24616Y70543D01*
X24560Y70599D01*
X24491Y70668D01*
X24408Y70738D01*
X24214Y70890D01*
X23964Y71029D01*
X23673Y71167D01*
X23506Y71223D01*
X23340Y71251D01*
X23160Y71278D01*
X22965Y71292D01*
X22854D01*
X22771Y71278D01*
X22674Y71265D01*
X22563Y71251D01*
X22424Y71223D01*
X22286Y71181D01*
X21981Y71070D01*
X21814Y71001D01*
X21648Y70918D01*
X21481Y70821D01*
X21315Y70696D01*
X21149Y70557D01*
X20996Y70405D01*
X20982Y70391D01*
X20954Y70363D01*
X20913Y70321D01*
X20871Y70252D01*
X20802Y70155D01*
X20733Y70058D01*
X20663Y69933D01*
X20580Y69795D01*
X20497Y69642D01*
X20427Y69462D01*
X20358Y69281D01*
X20289Y69073D01*
X20247Y68865D01*
X20206Y68630D01*
X20178Y68394D01*
X20164Y68130D01*
Y67992D01*
X20178Y67881D01*
X20192Y67756D01*
X20206Y67617D01*
X20233Y67451D01*
X20275Y67284D01*
X20372Y66896D01*
X20441Y66702D01*
X20538Y66508D01*
X20635Y66314D01*
X20747Y66119D01*
X20885Y65925D01*
X21038Y65759D01*
X21052Y65745D01*
X21079Y65717D01*
X21121Y65676D01*
X21190Y65620D01*
X21274Y65551D01*
X21384Y65482D01*
X21495Y65398D01*
X21634Y65315D01*
X21787Y65232D01*
X21953Y65149D01*
X22133Y65079D01*
X22341Y65010D01*
X22549Y64955D01*
X22771Y64913D01*
X23007Y64885D01*
X23257Y64871D01*
X23326D01*
X23395Y64885D01*
X23492D01*
X23617Y64913D01*
X23770Y64927D01*
X23922Y64968D01*
X24103Y65010D01*
X24283Y65065D01*
X24477Y65149D01*
X24685Y65232D01*
X24879Y65343D01*
X25087Y65468D01*
X25281Y65620D01*
X25476Y65800D01*
X25656Y65995D01*
X25670Y66009D01*
X25698Y66050D01*
X25739Y66119D01*
X25795Y66217D01*
X25878Y66341D01*
X25947Y66494D01*
X26030Y66674D01*
X26114Y66882D01*
X26211Y67132D01*
X26294Y67395D01*
X26363Y67700D01*
X26432Y68047D01*
X26502Y68408D01*
X26544Y68810D01*
X26571Y69240D01*
X26585Y69711D01*
Y69961D01*
X26571Y70141D01*
X26557Y70363D01*
X26530Y70613D01*
X26502Y70890D01*
X26460Y71181D01*
X26419Y71487D01*
X26349Y71805D01*
X26266Y72124D01*
X26169Y72443D01*
X26058Y72735D01*
X25933Y73026D01*
X25781Y73289D01*
X25614Y73525D01*
X25600Y73539D01*
X25573Y73581D01*
X25517Y73636D01*
X25434Y73705D01*
X25337Y73802D01*
X25226Y73900D01*
X25087Y74011D01*
X24935Y74121D01*
X24754Y74219D01*
X24574Y74330D01*
X24352Y74427D01*
X24130Y74524D01*
X23895Y74593D01*
X23631Y74648D01*
X23368Y74690D01*
X23076Y74704D01*
D02*
G37*
G36*
X35849Y74648D02*
X33977D01*
X30011Y68186D01*
Y74648D01*
X28221D01*
Y65051D01*
X30163D01*
X34060Y71375D01*
Y65051D01*
X35849D01*
Y74648D01*
D02*
G37*
G36*
X41396Y74829D02*
X41230D01*
X41105Y74815D01*
X40953Y74801D01*
X40786Y74773D01*
X40592Y74745D01*
X40384Y74704D01*
X40162Y74648D01*
X39927Y74579D01*
X39691Y74496D01*
X39441Y74385D01*
X39205Y74274D01*
X38983Y74135D01*
X38748Y73969D01*
X38540Y73789D01*
X38526D01*
X38512Y73761D01*
X38470Y73719D01*
X38429Y73678D01*
X38373Y73608D01*
X38318Y73525D01*
X38165Y73331D01*
X38013Y73081D01*
X37846Y72776D01*
X37694Y72429D01*
X37555Y72027D01*
X39469Y71570D01*
Y71584D01*
X39483Y71597D01*
Y71639D01*
X39510Y71694D01*
X39552Y71819D01*
X39621Y71986D01*
X39718Y72180D01*
X39843Y72374D01*
X40010Y72568D01*
X40190Y72735D01*
X40218Y72748D01*
X40287Y72804D01*
X40398Y72873D01*
X40550Y72957D01*
X40745Y73040D01*
X40967Y73109D01*
X41216Y73165D01*
X41494Y73178D01*
X41591D01*
X41674Y73165D01*
X41757Y73151D01*
X41868Y73137D01*
X42104Y73081D01*
X42381Y72984D01*
X42672Y72846D01*
X42825Y72762D01*
X42964Y72665D01*
X43102Y72540D01*
X43227Y72402D01*
Y72388D01*
X43255Y72360D01*
X43283Y72319D01*
X43324Y72249D01*
X43380Y72166D01*
X43435Y72069D01*
X43491Y71944D01*
X43546Y71805D01*
X43615Y71639D01*
X43671Y71459D01*
X43726Y71251D01*
X43782Y71029D01*
X43823Y70779D01*
X43851Y70516D01*
X43865Y70224D01*
X43879Y69906D01*
Y69892D01*
Y69822D01*
Y69725D01*
X43865Y69614D01*
Y69462D01*
X43837Y69281D01*
X43823Y69101D01*
X43796Y68893D01*
X43713Y68463D01*
X43602Y68033D01*
X43532Y67825D01*
X43435Y67631D01*
X43338Y67451D01*
X43227Y67298D01*
X43213Y67284D01*
X43199Y67270D01*
X43158Y67229D01*
X43102Y67173D01*
X42964Y67063D01*
X42769Y66924D01*
X42534Y66771D01*
X42242Y66660D01*
X41910Y66563D01*
X41729Y66549D01*
X41535Y66536D01*
X41466D01*
X41410Y66549D01*
X41258Y66563D01*
X41077Y66591D01*
X40883Y66660D01*
X40662Y66743D01*
X40440Y66854D01*
X40218Y67021D01*
X40190Y67049D01*
X40121Y67118D01*
X40023Y67229D01*
X39913Y67395D01*
X39774Y67617D01*
X39649Y67881D01*
X39524Y68200D01*
X39413Y68574D01*
X37527Y67992D01*
Y67978D01*
X37541Y67922D01*
X37569Y67839D01*
X37610Y67728D01*
X37666Y67603D01*
X37721Y67451D01*
X37791Y67284D01*
X37874Y67104D01*
X38068Y66730D01*
X38318Y66341D01*
X38623Y65967D01*
X38789Y65800D01*
X38970Y65648D01*
X38983Y65634D01*
X39011Y65620D01*
X39067Y65578D01*
X39150Y65523D01*
X39247Y65468D01*
X39372Y65412D01*
X39510Y65343D01*
X39663Y65273D01*
X39843Y65190D01*
X40037Y65121D01*
X40245Y65065D01*
X40467Y65010D01*
X40703Y64955D01*
X40967Y64913D01*
X41230Y64899D01*
X41521Y64885D01*
X41604D01*
X41702Y64899D01*
X41840Y64913D01*
X41993Y64927D01*
X42187Y64955D01*
X42395Y64996D01*
X42631Y65051D01*
X42867Y65121D01*
X43116Y65204D01*
X43380Y65315D01*
X43643Y65440D01*
X43907Y65578D01*
X44170Y65759D01*
X44420Y65953D01*
X44656Y66189D01*
X44669Y66203D01*
X44711Y66244D01*
X44767Y66327D01*
X44850Y66424D01*
X44933Y66563D01*
X45044Y66716D01*
X45155Y66910D01*
X45266Y67132D01*
X45377Y67368D01*
X45488Y67631D01*
X45599Y67936D01*
X45682Y68255D01*
X45765Y68588D01*
X45820Y68962D01*
X45862Y69351D01*
X45876Y69767D01*
Y69878D01*
X45862Y70003D01*
Y70169D01*
X45834Y70363D01*
X45807Y70599D01*
X45779Y70848D01*
X45724Y71140D01*
X45654Y71431D01*
X45571Y71736D01*
X45474Y72041D01*
X45349Y72360D01*
X45210Y72665D01*
X45044Y72957D01*
X44864Y73234D01*
X44642Y73497D01*
X44628Y73511D01*
X44586Y73553D01*
X44517Y73622D01*
X44420Y73705D01*
X44295Y73802D01*
X44142Y73913D01*
X43976Y74038D01*
X43768Y74163D01*
X43546Y74288D01*
X43310Y74413D01*
X43033Y74524D01*
X42756Y74621D01*
X42437Y74704D01*
X42118Y74773D01*
X41757Y74815D01*
X41396Y74829D01*
D02*
G37*
%LPD*%
G36*
X23451Y69906D02*
X23576Y69878D01*
X23714Y69822D01*
X23867Y69753D01*
X24019Y69642D01*
X24158Y69503D01*
X24172Y69489D01*
X24214Y69420D01*
X24269Y69323D01*
X24338Y69198D01*
X24408Y69018D01*
X24463Y68810D01*
X24505Y68560D01*
X24519Y68269D01*
Y68255D01*
Y68227D01*
Y68186D01*
Y68116D01*
X24491Y67964D01*
X24463Y67756D01*
X24422Y67534D01*
X24352Y67298D01*
X24255Y67076D01*
X24116Y66882D01*
X24103Y66868D01*
X24047Y66813D01*
X23950Y66730D01*
X23839Y66646D01*
X23700Y66549D01*
X23548Y66480D01*
X23368Y66424D01*
X23173Y66397D01*
X23090D01*
X22993Y66424D01*
X22868Y66452D01*
X22743Y66494D01*
X22591Y66563D01*
X22452Y66660D01*
X22314Y66785D01*
X22300Y66799D01*
X22258Y66868D01*
X22203Y66965D01*
X22133Y67104D01*
X22078Y67284D01*
X22022Y67506D01*
X21981Y67784D01*
X21967Y68103D01*
Y68116D01*
Y68144D01*
Y68200D01*
Y68255D01*
X21981Y68422D01*
X22009Y68630D01*
X22064Y68851D01*
X22119Y69087D01*
X22216Y69309D01*
X22341Y69489D01*
X22355Y69503D01*
X22411Y69559D01*
X22480Y69628D01*
X22591Y69711D01*
X22730Y69795D01*
X22882Y69864D01*
X23063Y69919D01*
X23257Y69933D01*
X23340D01*
X23451Y69906D01*
D02*
G37*
%LPC*%
G36*
X285300Y86084D02*
X283045D01*
X282918Y86070D01*
X282608D01*
X282481Y86056D01*
X282396D01*
X282354Y86041D01*
X282340D01*
X282171Y85999D01*
X282016Y85943D01*
X281889Y85886D01*
X281790Y85816D01*
X281706Y85745D01*
X281635Y85703D01*
X281607Y85661D01*
X281593Y85647D01*
X281508Y85534D01*
X281438Y85393D01*
X281396Y85266D01*
X281353Y85139D01*
X281339Y85027D01*
X281325Y84942D01*
Y84886D01*
Y84857D01*
X281339Y84702D01*
X281353Y84561D01*
X281396Y84434D01*
X281424Y84322D01*
X281466Y84237D01*
X281508Y84181D01*
X281522Y84138D01*
X281537Y84124D01*
X281621Y84026D01*
X281706Y83941D01*
X281889Y83814D01*
X281959Y83772D01*
X282030Y83744D01*
X282072Y83715D01*
X282086D01*
X282157Y83701D01*
X282270Y83673D01*
X282382Y83659D01*
X282509Y83645D01*
X282805Y83631D01*
X283101Y83617D01*
X283383Y83603D01*
X285300D01*
Y86084D01*
D02*
G37*
G36*
X267172Y86239D02*
X267115D01*
X266988Y86225D01*
X266876Y86211D01*
X266777Y86168D01*
X266692Y86126D01*
X266622Y86084D01*
X266565Y86056D01*
X266537Y86027D01*
X266523Y86013D01*
X266439Y85915D01*
X266354Y85788D01*
X266284Y85647D01*
X266213Y85506D01*
X266171Y85365D01*
X266129Y85252D01*
X266114Y85182D01*
X266100Y85168D01*
Y85153D01*
X266072Y85027D01*
X266044Y84871D01*
X266016Y84688D01*
X265987Y84505D01*
X265959Y84124D01*
X265945Y83730D01*
X265931Y83546D01*
Y83363D01*
X265917Y83208D01*
Y83067D01*
Y82954D01*
Y82856D01*
Y82799D01*
Y82785D01*
Y82475D01*
X265931Y82179D01*
Y81911D01*
X265945Y81671D01*
X265959Y81446D01*
X265973Y81249D01*
X266002Y81065D01*
X266016Y80910D01*
X266030Y80769D01*
X266058Y80656D01*
X266072Y80558D01*
X266086Y80473D01*
X266100Y80417D01*
Y80360D01*
X266114Y80346D01*
Y80332D01*
X266171Y80135D01*
X266241Y79980D01*
X266312Y79839D01*
X266368Y79740D01*
X266425Y79655D01*
X266481Y79599D01*
X266509Y79571D01*
X266523Y79557D01*
X266622Y79486D01*
X266721Y79430D01*
X266819Y79402D01*
X266918Y79374D01*
X266988Y79359D01*
X267059Y79345D01*
X267115D01*
X267242Y79359D01*
X267355Y79374D01*
X267454Y79416D01*
X267538Y79458D01*
X267609Y79486D01*
X267665Y79529D01*
X267693Y79543D01*
X267707Y79557D01*
X267792Y79655D01*
X267876Y79782D01*
X267947Y79923D01*
X268018Y80064D01*
X268060Y80191D01*
X268102Y80304D01*
X268116Y80374D01*
X268130Y80403D01*
X268158Y80544D01*
X268187Y80699D01*
X268215Y80868D01*
X268229Y81051D01*
X268257Y81446D01*
X268271Y81841D01*
X268285Y82024D01*
Y82207D01*
X268299Y82362D01*
Y82503D01*
Y82616D01*
Y82715D01*
Y82771D01*
Y82785D01*
Y83095D01*
X268285Y83391D01*
Y83645D01*
X268271Y83899D01*
X268257Y84110D01*
X268243Y84322D01*
X268229Y84491D01*
X268201Y84660D01*
X268187Y84801D01*
X268173Y84914D01*
X268158Y85012D01*
X268144Y85097D01*
X268130Y85153D01*
Y85210D01*
X268116Y85224D01*
Y85238D01*
X268060Y85435D01*
X267989Y85604D01*
X267933Y85731D01*
X267862Y85844D01*
X267806Y85915D01*
X267764Y85971D01*
X267736Y85999D01*
X267722Y86013D01*
X267623Y86084D01*
X267510Y86140D01*
X267411Y86182D01*
X267313Y86211D01*
X267242Y86225D01*
X267172Y86239D01*
D02*
G37*
G36*
X271330Y165586D02*
X269075D01*
X268948Y165572D01*
X268638D01*
X268511Y165558D01*
X268426D01*
X268384Y165543D01*
X268370D01*
X268201Y165501D01*
X268046Y165445D01*
X267919Y165388D01*
X267820Y165318D01*
X267736Y165247D01*
X267665Y165205D01*
X267637Y165163D01*
X267623Y165149D01*
X267538Y165036D01*
X267468Y164895D01*
X267426Y164768D01*
X267383Y164641D01*
X267369Y164529D01*
X267355Y164444D01*
Y164387D01*
Y164359D01*
X267369Y164204D01*
X267383Y164063D01*
X267426Y163936D01*
X267454Y163824D01*
X267496Y163739D01*
X267538Y163683D01*
X267552Y163640D01*
X267567Y163626D01*
X267651Y163528D01*
X267736Y163443D01*
X267919Y163316D01*
X267989Y163274D01*
X268060Y163246D01*
X268102Y163218D01*
X268116D01*
X268187Y163203D01*
X268300Y163175D01*
X268412Y163161D01*
X268539Y163147D01*
X268835Y163133D01*
X269131Y163119D01*
X269413Y163105D01*
X271330D01*
Y165586D01*
D02*
G37*
G36*
X260814Y165811D02*
X260730D01*
X260546Y165797D01*
X260377Y165755D01*
X260236Y165713D01*
X260109Y165656D01*
X260011Y165586D01*
X259940Y165543D01*
X259898Y165501D01*
X259884Y165487D01*
X259771Y165360D01*
X259700Y165219D01*
X259644Y165078D01*
X259602Y164937D01*
X259573Y164825D01*
X259559Y164726D01*
Y164669D01*
Y164641D01*
X259573Y164444D01*
X259616Y164261D01*
X259658Y164120D01*
X259715Y163993D01*
X259785Y163880D01*
X259827Y163810D01*
X259870Y163767D01*
X259884Y163753D01*
X260011Y163654D01*
X260152Y163570D01*
X260292Y163514D01*
X260433Y163485D01*
X260560Y163457D01*
X260659Y163443D01*
X260744D01*
X260927Y163457D01*
X261096Y163485D01*
X261237Y163542D01*
X261364Y163598D01*
X261462Y163654D01*
X261533Y163711D01*
X261575Y163739D01*
X261589Y163753D01*
X261688Y163880D01*
X261773Y164021D01*
X261829Y164162D01*
X261857Y164303D01*
X261885Y164430D01*
X261900Y164529D01*
Y164599D01*
Y164627D01*
X261885Y164825D01*
X261857Y164994D01*
X261801Y165135D01*
X261744Y165261D01*
X261688Y165360D01*
X261632Y165431D01*
X261604Y165473D01*
X261589Y165487D01*
X261462Y165600D01*
X261322Y165670D01*
X261181Y165727D01*
X261040Y165769D01*
X260913Y165797D01*
X260814Y165811D01*
D02*
G37*
G36*
X260828Y161963D02*
X260715D01*
X260504Y161949D01*
X260307Y161892D01*
X260137Y161836D01*
X259996Y161751D01*
X259884Y161681D01*
X259799Y161610D01*
X259743Y161554D01*
X259729Y161540D01*
X259602Y161371D01*
X259503Y161187D01*
X259433Y161004D01*
X259376Y160821D01*
X259348Y160666D01*
X259334Y160539D01*
Y160455D01*
Y160440D01*
Y160426D01*
X259348Y160144D01*
X259390Y159905D01*
X259461Y159693D01*
X259531Y159524D01*
X259602Y159383D01*
X259672Y159298D01*
X259715Y159228D01*
X259729Y159214D01*
X259884Y159073D01*
X260039Y158974D01*
X260194Y158904D01*
X260349Y158862D01*
X260490Y158833D01*
X260588Y158805D01*
X260687D01*
X260899Y158819D01*
X261096Y158876D01*
X261265Y158946D01*
X261406Y159017D01*
X261519Y159101D01*
X261604Y159157D01*
X261660Y159214D01*
X261674Y159228D01*
X261801Y159411D01*
X261900Y159609D01*
X261970Y159806D01*
X262012Y160003D01*
X262041Y160187D01*
X262069Y160328D01*
Y160384D01*
Y160426D01*
Y160440D01*
Y160455D01*
X262055Y160652D01*
X262012Y160849D01*
X261970Y161018D01*
X261900Y161173D01*
X261843Y161300D01*
X261801Y161399D01*
X261759Y161455D01*
X261744Y161483D01*
X261604Y161639D01*
X261434Y161765D01*
X261265Y161850D01*
X261096Y161907D01*
X260955Y161935D01*
X260828Y161963D01*
D02*
G37*
G36*
X233738Y86084D02*
X231483D01*
X231356Y86070D01*
X231046D01*
X230919Y86056D01*
X230834D01*
X230792Y86041D01*
X230778D01*
X230609Y85999D01*
X230454Y85943D01*
X230327Y85886D01*
X230228Y85816D01*
X230144Y85745D01*
X230073Y85703D01*
X230045Y85661D01*
X230031Y85647D01*
X229946Y85534D01*
X229876Y85393D01*
X229834Y85266D01*
X229791Y85139D01*
X229777Y85027D01*
X229763Y84942D01*
Y84886D01*
Y84857D01*
X229777Y84702D01*
X229791Y84561D01*
X229834Y84434D01*
X229862Y84322D01*
X229904Y84237D01*
X229946Y84181D01*
X229960Y84138D01*
X229974Y84124D01*
X230059Y84026D01*
X230144Y83941D01*
X230327Y83814D01*
X230397Y83772D01*
X230468Y83744D01*
X230510Y83715D01*
X230524D01*
X230595Y83701D01*
X230708Y83673D01*
X230820Y83659D01*
X230947Y83645D01*
X231243Y83631D01*
X231539Y83617D01*
X231821Y83603D01*
X233738D01*
Y86084D01*
D02*
G37*
G36*
X210282Y165741D02*
X210197D01*
X210000Y165713D01*
X209817Y165656D01*
X209648Y165586D01*
X209507Y165487D01*
X209394Y165388D01*
X209309Y165318D01*
X209253Y165261D01*
X209239Y165233D01*
X209098Y165022D01*
X208999Y164796D01*
X208915Y164557D01*
X208872Y164331D01*
X208844Y164120D01*
X208816Y163965D01*
Y163894D01*
Y163852D01*
Y163824D01*
Y163810D01*
X208830Y163514D01*
X208872Y163260D01*
X208943Y163048D01*
X208999Y162865D01*
X209070Y162738D01*
X209140Y162640D01*
X209182Y162569D01*
X209196Y162555D01*
X209337Y162414D01*
X209492Y162315D01*
X209648Y162231D01*
X209788Y162188D01*
X209915Y162160D01*
X210014Y162146D01*
X210070Y162132D01*
X210099D01*
X210296Y162146D01*
X210479Y162202D01*
X210634Y162273D01*
X210775Y162358D01*
X210888Y162428D01*
X210959Y162498D01*
X211015Y162555D01*
X211029Y162569D01*
X211156Y162752D01*
X211241Y162978D01*
X211311Y163203D01*
X211353Y163443D01*
X211381Y163640D01*
X211396Y163810D01*
Y163880D01*
Y163922D01*
Y163951D01*
Y163965D01*
X211381Y164289D01*
X211339Y164571D01*
X211283Y164810D01*
X211226Y164994D01*
X211170Y165135D01*
X211114Y165233D01*
X211071Y165304D01*
X211057Y165318D01*
X210916Y165459D01*
X210775Y165558D01*
X210634Y165642D01*
X210493Y165685D01*
X210381Y165713D01*
X210282Y165741D01*
D02*
G37*
G36*
X220530Y165586D02*
X218275D01*
X218148Y165572D01*
X217838D01*
X217711Y165558D01*
X217626D01*
X217584Y165543D01*
X217570D01*
X217401Y165501D01*
X217246Y165445D01*
X217119Y165388D01*
X217020Y165318D01*
X216936Y165247D01*
X216865Y165205D01*
X216837Y165163D01*
X216823Y165149D01*
X216738Y165036D01*
X216668Y164895D01*
X216626Y164768D01*
X216583Y164641D01*
X216569Y164529D01*
X216555Y164444D01*
Y164387D01*
Y164359D01*
X216569Y164204D01*
X216583Y164063D01*
X216626Y163936D01*
X216654Y163824D01*
X216696Y163739D01*
X216738Y163683D01*
X216752Y163640D01*
X216766Y163626D01*
X216851Y163528D01*
X216936Y163443D01*
X217119Y163316D01*
X217189Y163274D01*
X217260Y163246D01*
X217302Y163218D01*
X217316D01*
X217387Y163203D01*
X217500Y163175D01*
X217612Y163161D01*
X217739Y163147D01*
X218035Y163133D01*
X218331Y163119D01*
X218613Y163105D01*
X220530D01*
Y165586D01*
D02*
G37*
G36*
X125454Y44527D02*
X125383D01*
X125231Y44516D01*
X125090Y44480D01*
X124972Y44445D01*
X124867Y44398D01*
X124785Y44339D01*
X124726Y44304D01*
X124691Y44269D01*
X124679Y44257D01*
X124585Y44152D01*
X124527Y44034D01*
X124480Y43917D01*
X124444Y43800D01*
X124421Y43706D01*
X124409Y43624D01*
Y43577D01*
Y43553D01*
X124421Y43389D01*
X124456Y43236D01*
X124491Y43119D01*
X124538Y43014D01*
X124597Y42920D01*
X124632Y42861D01*
X124667Y42826D01*
X124679Y42814D01*
X124785Y42732D01*
X124902Y42661D01*
X125019Y42614D01*
X125137Y42591D01*
X125242Y42568D01*
X125324Y42556D01*
X125395D01*
X125548Y42568D01*
X125688Y42591D01*
X125806Y42638D01*
X125911Y42685D01*
X125993Y42732D01*
X126052Y42779D01*
X126087Y42802D01*
X126099Y42814D01*
X126181Y42920D01*
X126252Y43037D01*
X126299Y43154D01*
X126322Y43272D01*
X126345Y43377D01*
X126357Y43459D01*
Y43518D01*
Y43541D01*
X126345Y43706D01*
X126322Y43847D01*
X126275Y43964D01*
X126228Y44070D01*
X126181Y44152D01*
X126134Y44210D01*
X126111Y44246D01*
X126099Y44257D01*
X125993Y44351D01*
X125876Y44410D01*
X125759Y44457D01*
X125641Y44492D01*
X125536Y44516D01*
X125454Y44527D01*
D02*
G37*
G36*
X125465Y41324D02*
X125372D01*
X125195Y41312D01*
X125031Y41265D01*
X124890Y41218D01*
X124773Y41148D01*
X124679Y41089D01*
X124609Y41030D01*
X124562Y40983D01*
X124550Y40972D01*
X124444Y40831D01*
X124362Y40678D01*
X124304Y40526D01*
X124257Y40373D01*
X124233Y40244D01*
X124221Y40139D01*
Y40068D01*
Y40056D01*
Y40045D01*
X124233Y39810D01*
X124268Y39610D01*
X124327Y39434D01*
X124386Y39293D01*
X124444Y39176D01*
X124503Y39106D01*
X124538Y39047D01*
X124550Y39035D01*
X124679Y38918D01*
X124808Y38836D01*
X124937Y38777D01*
X125066Y38742D01*
X125184Y38719D01*
X125266Y38695D01*
X125348D01*
X125524Y38707D01*
X125688Y38754D01*
X125829Y38812D01*
X125947Y38871D01*
X126040Y38942D01*
X126111Y38988D01*
X126158Y39035D01*
X126169Y39047D01*
X126275Y39200D01*
X126357Y39364D01*
X126416Y39528D01*
X126451Y39692D01*
X126475Y39845D01*
X126498Y39962D01*
Y40009D01*
Y40045D01*
Y40056D01*
Y40068D01*
X126486Y40232D01*
X126451Y40397D01*
X126416Y40537D01*
X126357Y40666D01*
X126310Y40772D01*
X126275Y40854D01*
X126240Y40901D01*
X126228Y40925D01*
X126111Y41054D01*
X125970Y41159D01*
X125829Y41230D01*
X125688Y41277D01*
X125571Y41300D01*
X125465Y41324D01*
D02*
G37*
%LPD*%
D10*
X45000Y25000D02*
G03*
X45000Y25000I-20000J0D01*
G01*
X295000Y375000D02*
G03*
X295000Y375000I-20000J0D01*
G01*
X45000D02*
G03*
X45000Y375000I-20000J0D01*
G01*
X295000Y25000D02*
G03*
X295000Y25000I-20000J0D01*
G01*
D11*
X274210Y107030D02*
X277210D01*
X274210Y93630D02*
X277210D01*
X60000Y393700D02*
Y396700D01*
X240000Y393700D02*
Y396700D01*
X60000Y203700D02*
X80000D01*
X60000D02*
Y208700D01*
X220000Y203700D02*
X240000D01*
X60000Y396700D02*
X240000Y396700D01*
Y203700D02*
Y208700D01*
X136240Y64540D02*
Y67540D01*
X122840Y64540D02*
Y67540D01*
X153440Y99410D02*
X156440D01*
X153440Y86010D02*
X156440D01*
X142240Y85266D02*
X148590D01*
X139690Y52266D02*
Y67765D01*
X170190Y52266D02*
Y67765D01*
X213130Y151480D02*
X216130D01*
X213130Y138080D02*
X216130D01*
X223410Y93630D02*
X226410D01*
X223410Y107030D02*
X226410D01*
X263810Y151480D02*
X266810D01*
X263810Y138080D02*
X266810D01*
X110000Y3500D02*
Y17000D01*
X100000Y3500D02*
X110000D01*
X100000D02*
Y7000D01*
X110000Y17000D02*
Y77000D01*
X50000Y17000D02*
Y77000D01*
X110000D01*
Y3500D02*
Y17000D01*
X50000Y3500D02*
Y17000D01*
Y3500D02*
X60000D01*
Y7000D01*
M02*
