G04*
G04 #@! TF.GenerationSoftware,Altium Limited,Altium Designer,22.4.2 (48)*
G04*
G04 Layer_Color=128*
%FSLAX44Y44*%
%MOMM*%
G71*
G04*
G04 #@! TF.SameCoordinates,75CB8345-09F5-4D96-8CD2-F517BF26F09A*
G04*
G04*
G04 #@! TF.FilePolarity,Positive*
G04*
G01*
G75*
%ADD10C,0.1270*%
D10*
X142500Y60000D02*
X157500D01*
X150000Y52500D02*
Y67500D01*
X46700Y73000D02*
X55200D01*
X50950Y68750D02*
Y77250D01*
X59400Y227000D02*
X67900D01*
X63650Y222750D02*
Y231250D01*
X142500Y120000D02*
X157500D01*
X150000Y112500D02*
Y127500D01*
X-7500Y100000D02*
X7500D01*
X0Y92500D02*
Y107500D01*
X-7500Y150000D02*
X7500D01*
X0Y142500D02*
Y157500D01*
X142500Y180000D02*
X157500D01*
X150000Y172500D02*
Y187500D01*
X142500Y240000D02*
X157500D01*
X150000Y232500D02*
Y247500D01*
X-7500Y200000D02*
X7500D01*
X0Y192500D02*
Y207500D01*
X124000Y284000D02*
X144000D01*
X134000Y274000D02*
Y294000D01*
X6000Y284000D02*
X26000D01*
X16000Y274000D02*
Y294000D01*
X124000Y16000D02*
X144000D01*
X134000Y6000D02*
Y26000D01*
X6000Y16000D02*
X26000D01*
X16000Y6000D02*
Y26000D01*
X138730Y115000D02*
X141270D01*
X140000Y113730D02*
Y116270D01*
X138730Y245000D02*
X141270D01*
X140000Y243730D02*
Y246270D01*
X8730Y195000D02*
X11270D01*
X10000Y193730D02*
Y196270D01*
X8730Y205000D02*
X11270D01*
X10000Y203730D02*
Y206270D01*
X8730Y145000D02*
X11270D01*
X10000Y143730D02*
Y146270D01*
X8730Y155000D02*
X11270D01*
X10000Y153730D02*
Y156270D01*
X8730Y95000D02*
X11270D01*
X10000Y93730D02*
Y96270D01*
X8730Y105000D02*
X11270D01*
X10000Y103730D02*
Y106270D01*
X138730Y65000D02*
X141270D01*
X140000Y63730D02*
Y66270D01*
X138730Y55000D02*
X141270D01*
X140000Y53730D02*
Y56270D01*
X138730Y125000D02*
X141270D01*
X140000Y123730D02*
Y126270D01*
X138730Y185000D02*
X141270D01*
X140000Y183730D02*
Y186270D01*
X138730Y175000D02*
X141270D01*
X140000Y173730D02*
Y176270D01*
X138730Y235000D02*
X141270D01*
X140000Y233730D02*
Y236270D01*
X49045Y40000D02*
X52855D01*
X50950Y38095D02*
Y41905D01*
X61745Y260000D02*
X65555D01*
X63650Y258095D02*
Y261905D01*
M02*
