G04*
G04 #@! TF.GenerationSoftware,Altium Limited,Altium Designer,22.4.2 (48)*
G04*
G04 Layer_Color=255*
%FSLAX44Y44*%
%MOMM*%
G71*
G04*
G04 #@! TF.SameCoordinates,75CB8345-09F5-4D96-8CD2-F517BF26F09A*
G04*
G04*
G04 #@! TF.FilePolarity,Positive*
G04*
G01*
G75*
%ADD12R,1.1500X1.8000*%
%ADD13R,1.0000X0.9500*%
%ADD14R,0.6000X1.5000*%
%ADD15R,1.0000X0.7500*%
G04:AMPARAMS|DCode=16|XSize=1.4mm|YSize=1.4mm|CornerRadius=0.35mm|HoleSize=0mm|Usage=FLASHONLY|Rotation=0.000|XOffset=0mm|YOffset=0mm|HoleType=Round|Shape=RoundedRectangle|*
%AMROUNDEDRECTD16*
21,1,1.4000,0.7000,0,0,0.0*
21,1,0.7000,1.4000,0,0,0.0*
1,1,0.7000,0.3500,-0.3500*
1,1,0.7000,-0.3500,-0.3500*
1,1,0.7000,-0.3500,0.3500*
1,1,0.7000,0.3500,0.3500*
%
%ADD16ROUNDEDRECTD16*%
%ADD17R,0.7500X1.0000*%
%ADD18R,0.9500X1.0000*%
%ADD31C,1.0000*%
%ADD32C,0.7000*%
%ADD33C,1.5240*%
D12*
X34650Y99060D02*
D03*
X68650D02*
D03*
D13*
X119000Y142000D02*
D03*
Y158000D02*
D03*
D14*
X50950Y122500D02*
D03*
X63650D02*
D03*
X76350D02*
D03*
X89050D02*
D03*
X50950Y177500D02*
D03*
X63650D02*
D03*
X76350D02*
D03*
X89050D02*
D03*
D15*
X36500Y139820D02*
D03*
Y154820D02*
D03*
X104000Y142360D02*
D03*
Y157360D02*
D03*
D16*
X50950Y73000D02*
D03*
X63650Y227000D02*
D03*
D17*
X68650Y78740D02*
D03*
X83650D02*
D03*
X81400Y218440D02*
D03*
X96400D02*
D03*
Y201930D02*
D03*
X81400D02*
D03*
D18*
X126110Y218440D02*
D03*
X110110D02*
D03*
D31*
X150000Y60000D02*
D03*
Y120000D02*
D03*
X0Y100000D02*
D03*
Y150000D02*
D03*
X150000Y180000D02*
D03*
Y240000D02*
D03*
X0Y200000D02*
D03*
D32*
X50950Y73000D02*
D03*
X63650Y227000D02*
D03*
D33*
X134000Y284000D02*
D03*
X16000D02*
D03*
X134000Y16000D02*
D03*
X16000D02*
D03*
M02*
