G04*
G04 #@! TF.GenerationSoftware,Altium Limited,Altium Designer,22.4.2 (48)*
G04*
G04 Layer_Physical_Order=1*
G04 Layer_Color=255*
%FSLAX44Y44*%
%MOMM*%
G71*
G04*
G04 #@! TF.SameCoordinates,75CB8345-09F5-4D96-8CD2-F517BF26F09A*
G04*
G04*
G04 #@! TF.FilePolarity,Positive*
G04*
G01*
G75*
%ADD12R,1.1500X1.8000*%
%ADD13R,1.0000X0.9500*%
%ADD14R,0.6000X1.5000*%
%ADD15R,1.0000X0.7500*%
G04:AMPARAMS|DCode=16|XSize=1.4mm|YSize=1.4mm|CornerRadius=0.35mm|HoleSize=0mm|Usage=FLASHONLY|Rotation=0.000|XOffset=0mm|YOffset=0mm|HoleType=Round|Shape=RoundedRectangle|*
%AMROUNDEDRECTD16*
21,1,1.4000,0.7000,0,0,0.0*
21,1,0.7000,1.4000,0,0,0.0*
1,1,0.7000,0.3500,-0.3500*
1,1,0.7000,-0.3500,-0.3500*
1,1,0.7000,-0.3500,0.3500*
1,1,0.7000,0.3500,0.3500*
%
%ADD16ROUNDEDRECTD16*%
%ADD17R,0.7500X1.0000*%
%ADD18R,0.9500X1.0000*%
%ADD30C,0.3810*%
%ADD31C,1.0000*%
%ADD32C,0.7000*%
%ADD33C,1.5240*%
%ADD34C,0.3810*%
%ADD35C,0.7620*%
G36*
X150000Y232500D02*
X130000D01*
Y247500D01*
X150000D01*
Y232500D01*
D02*
G37*
G36*
X105421Y214630D02*
X105382Y214992D01*
X105267Y215316D01*
X105075Y215602D01*
X104806Y215849D01*
X104461Y216059D01*
X104038Y216230D01*
X103539Y216364D01*
X102963Y216459D01*
X102755Y216477D01*
X102547Y216459D01*
X101971Y216364D01*
X101472Y216230D01*
X101049Y216059D01*
X100703Y215849D01*
X100435Y215602D01*
X100243Y215316D01*
X100127Y214992D01*
X100089Y214630D01*
Y222250D01*
X100127Y221888D01*
X100243Y221564D01*
X100435Y221278D01*
X100703Y221031D01*
X101049Y220821D01*
X101472Y220650D01*
X101971Y220516D01*
X102547Y220421D01*
X102755Y220403D01*
X102963Y220421D01*
X103539Y220516D01*
X104038Y220650D01*
X104461Y220821D01*
X104806Y221031D01*
X105075Y221278D01*
X105267Y221564D01*
X105382Y221888D01*
X105421Y222250D01*
Y214630D01*
D02*
G37*
G36*
X130835Y222641D02*
X130941Y222368D01*
X131118Y222126D01*
X131366Y221917D01*
X131685Y221740D01*
X132075Y221595D01*
X132536Y221483D01*
X133067Y221402D01*
X133670Y221354D01*
X134343Y221338D01*
Y217528D01*
X133670Y217512D01*
X133067Y217464D01*
X132536Y217383D01*
X132075Y217271D01*
X131685Y217126D01*
X131366Y216949D01*
X131118Y216740D01*
X130941Y216499D01*
X130835Y216225D01*
X130799Y215919D01*
Y222947D01*
X130835Y222641D01*
D02*
G37*
G36*
X128075Y213464D02*
X127801Y213357D01*
X127560Y213179D01*
X127351Y212931D01*
X127174Y212611D01*
X127029Y212222D01*
X126917Y211761D01*
X126836Y211231D01*
X126788Y210629D01*
X126772Y209957D01*
X122962D01*
X122946Y210624D01*
X122899Y211222D01*
X122820Y211749D01*
X122710Y212206D01*
X122569Y212592D01*
X122396Y212908D01*
X122192Y213154D01*
X121956Y213330D01*
X121689Y213435D01*
X121390Y213470D01*
X128380Y213501D01*
X128075Y213464D01*
D02*
G37*
G36*
X84775Y213432D02*
X84466Y213318D01*
X84194Y213128D01*
X83958Y212861D01*
X83759Y212518D01*
X83595Y212099D01*
X83468Y211604D01*
X83378Y211032D01*
X83323Y210384D01*
X83318Y210185D01*
X83323Y209986D01*
X83378Y209338D01*
X83468Y208766D01*
X83595Y208271D01*
X83759Y207852D01*
X83958Y207509D01*
X84194Y207242D01*
X84466Y207052D01*
X84775Y206938D01*
X85119Y206900D01*
X77681D01*
X78025Y206938D01*
X78334Y207052D01*
X78606Y207242D01*
X78842Y207509D01*
X79041Y207852D01*
X79205Y208271D01*
X79332Y208766D01*
X79422Y209338D01*
X79477Y209986D01*
X79482Y210185D01*
X79477Y210384D01*
X79422Y211032D01*
X79332Y211604D01*
X79205Y212099D01*
X79041Y212518D01*
X78842Y212861D01*
X78606Y213128D01*
X78334Y213318D01*
X78025Y213432D01*
X77681Y213470D01*
X85119D01*
X84775Y213432D01*
D02*
G37*
G36*
X98866Y196925D02*
X98594Y196820D01*
X98354Y196645D01*
X98145Y196399D01*
X97969Y196084D01*
X97825Y195698D01*
X97713Y195242D01*
X97633Y194716D01*
X97585Y194120D01*
X97569Y193454D01*
X93759D01*
X93748Y194120D01*
X93662Y195242D01*
X93586Y195698D01*
X93489Y196084D01*
X93371Y196399D01*
X93230Y196645D01*
X93069Y196820D01*
X92885Y196925D01*
X92681Y196961D01*
X99171D01*
X98866Y196925D01*
D02*
G37*
G36*
X20000Y192500D02*
X0D01*
Y207500D01*
X20000D01*
Y192500D01*
D02*
G37*
G36*
X78266Y188056D02*
X78351Y186836D01*
X78425Y186341D01*
X78521Y185922D01*
X78638Y185579D01*
X78777Y185312D01*
X78936Y185122D01*
X79117Y185008D01*
X79320Y184970D01*
X73380D01*
X73583Y185008D01*
X73764Y185122D01*
X73923Y185312D01*
X74062Y185579D01*
X74179Y185922D01*
X74275Y186341D01*
X74349Y186836D01*
X74402Y187408D01*
X74445Y188780D01*
X78255D01*
X78266Y188056D01*
D02*
G37*
G36*
X91229Y186699D02*
X91312Y185287D01*
X91343Y185135D01*
X91378Y185026D01*
X91419Y184961D01*
X91464Y184939D01*
X87179D01*
X87225Y184961D01*
X87265Y185026D01*
X87300Y185135D01*
X87331Y185287D01*
X87357Y185482D01*
X87395Y186004D01*
X87417Y187112D01*
X91227D01*
X91229Y186699D01*
D02*
G37*
G36*
X48249Y186882D02*
X49686Y185658D01*
X50314Y185216D01*
X50883Y184887D01*
X51392Y184671D01*
X51841Y184569D01*
X52230Y184579D01*
X52559Y184702D01*
X52829Y184939D01*
X48011Y179041D01*
X48186Y179373D01*
X48231Y179780D01*
X48148Y180263D01*
X47934Y180823D01*
X47592Y181458D01*
X47120Y182170D01*
X46519Y182957D01*
X44929Y184761D01*
X43939Y185777D01*
X47441Y187664D01*
X48249Y186882D01*
D02*
G37*
G36*
X150000Y172500D02*
X130000D01*
Y187500D01*
X150000D01*
Y172500D01*
D02*
G37*
G36*
X79089Y169994D02*
X78882Y169884D01*
X78700Y169701D01*
X78542Y169445D01*
X78409Y169115D01*
X78299Y168713D01*
X78214Y168237D01*
X78154Y167688D01*
X78105Y166370D01*
X74295D01*
X74286Y167066D01*
X74149Y168713D01*
X74066Y169115D01*
X73966Y169445D01*
X73847Y169701D01*
X73710Y169884D01*
X73554Y169994D01*
X73380Y170030D01*
X79320D01*
X79089Y169994D01*
D02*
G37*
G36*
X120924Y165800D02*
X120981Y165147D01*
X121076Y164571D01*
X121210Y164072D01*
X121381Y163649D01*
X121591Y163304D01*
X121838Y163035D01*
X122124Y162843D01*
X122448Y162728D01*
X122810Y162689D01*
X115190D01*
X115552Y162728D01*
X115876Y162843D01*
X116161Y163035D01*
X116409Y163304D01*
X116619Y163649D01*
X116790Y164072D01*
X116924Y164571D01*
X117019Y165147D01*
X117076Y165800D01*
X117095Y166530D01*
X120905D01*
X120924Y165800D01*
D02*
G37*
G36*
X41508Y158195D02*
X41622Y157886D01*
X41812Y157614D01*
X42079Y157378D01*
X42422Y157179D01*
X42841Y157015D01*
X43336Y156888D01*
X43908Y156798D01*
X44556Y156743D01*
X45279Y156725D01*
Y152915D01*
X44556Y152897D01*
X43908Y152842D01*
X43336Y152752D01*
X42841Y152625D01*
X42422Y152461D01*
X42079Y152262D01*
X41812Y152026D01*
X41622Y151754D01*
X41508Y151445D01*
X41469Y151101D01*
Y158539D01*
X41508Y158195D01*
D02*
G37*
G36*
X20000Y142500D02*
X0D01*
Y157500D01*
X20000D01*
Y142500D01*
D02*
G37*
G36*
X99031Y138640D02*
X98992Y138985D01*
X98878Y139294D01*
X98688Y139566D01*
X98421Y139802D01*
X98078Y140001D01*
X97659Y140165D01*
X97164Y140292D01*
X96592Y140382D01*
X95944Y140437D01*
X95220Y140455D01*
Y144265D01*
X95944Y144283D01*
X96592Y144338D01*
X97164Y144428D01*
X97659Y144555D01*
X98078Y144719D01*
X98421Y144918D01*
X98688Y145154D01*
X98878Y145426D01*
X98992Y145735D01*
X99031Y146080D01*
Y138640D01*
D02*
G37*
G36*
X122448Y137273D02*
X122124Y137157D01*
X121838Y136965D01*
X121591Y136697D01*
X121381Y136351D01*
X121210Y135928D01*
X121076Y135429D01*
X120981Y134853D01*
X120924Y134200D01*
X120905Y133470D01*
X117095D01*
X117076Y134200D01*
X117019Y134853D01*
X116924Y135429D01*
X116790Y135928D01*
X116619Y136351D01*
X116409Y136697D01*
X116161Y136965D01*
X115876Y137157D01*
X115552Y137273D01*
X115190Y137311D01*
X122810D01*
X122448Y137273D01*
D02*
G37*
G36*
X39948Y136093D02*
X39624Y135977D01*
X39339Y135785D01*
X39091Y135517D01*
X38881Y135171D01*
X38710Y134748D01*
X38577Y134249D01*
X38481Y133673D01*
X38424Y133020D01*
X38405Y132290D01*
X34595D01*
X34576Y133020D01*
X34519Y133673D01*
X34424Y134249D01*
X34290Y134748D01*
X34119Y135171D01*
X33909Y135517D01*
X33662Y135785D01*
X33376Y135977D01*
X33052Y136093D01*
X32690Y136131D01*
X40310D01*
X39948Y136093D01*
D02*
G37*
G36*
X65566Y133056D02*
X65651Y131836D01*
X65725Y131341D01*
X65821Y130922D01*
X65938Y130579D01*
X66077Y130312D01*
X66236Y130122D01*
X66417Y130008D01*
X66620Y129970D01*
X60680D01*
X60883Y130008D01*
X61064Y130122D01*
X61223Y130312D01*
X61362Y130579D01*
X61479Y130922D01*
X61575Y131341D01*
X61649Y131836D01*
X61702Y132408D01*
X61745Y133779D01*
X65555D01*
X65566Y133056D01*
D02*
G37*
G36*
X120932Y131228D02*
X121013Y130500D01*
X121147Y129794D01*
X121336Y129110D01*
X121579Y128448D01*
X121875Y127809D01*
X122225Y127192D01*
X122629Y126597D01*
X123087Y126025D01*
X123599Y125475D01*
X121694Y121992D01*
X121155Y122477D01*
X120616Y122854D01*
X120078Y123123D01*
X119539Y123285D01*
X119000Y123339D01*
X118461Y123285D01*
X117922Y123123D01*
X117383Y122854D01*
X116845Y122477D01*
X116306Y121992D01*
X114401Y125475D01*
X114913Y126025D01*
X115371Y126597D01*
X115775Y127192D01*
X116125Y127809D01*
X116421Y128448D01*
X116664Y129110D01*
X116853Y129794D01*
X116987Y130500D01*
X117068Y131228D01*
X117095Y131979D01*
X120905D01*
X120932Y131228D01*
D02*
G37*
G36*
X92028Y125948D02*
X92143Y125624D01*
X92335Y125338D01*
X92604Y125091D01*
X92949Y124881D01*
X93372Y124710D01*
X93871Y124576D01*
X94447Y124481D01*
X95100Y124424D01*
X95829Y124405D01*
Y120595D01*
X95100Y120576D01*
X94447Y120519D01*
X93871Y120423D01*
X93372Y120290D01*
X92949Y120119D01*
X92604Y119909D01*
X92335Y119662D01*
X92143Y119376D01*
X92028Y119052D01*
X91989Y118690D01*
Y126310D01*
X92028Y125948D01*
D02*
G37*
G36*
X150000Y112500D02*
X130000D01*
Y119762D01*
X126785Y121905D01*
X127509Y121936D01*
X128157Y122029D01*
X128728Y122184D01*
X129223Y122400D01*
X129642Y122679D01*
X129985Y123019D01*
X130000Y123041D01*
Y127500D01*
X150000D01*
Y112500D01*
D02*
G37*
G36*
X79059Y118857D02*
X78916Y118542D01*
X78891Y118163D01*
X78984Y117720D01*
X79194Y117213D01*
X79523Y116642D01*
X79969Y116008D01*
X80533Y115309D01*
X82014Y113721D01*
X78010Y112336D01*
X77478Y112848D01*
X76461Y113710D01*
X75976Y114061D01*
X75505Y114357D01*
X75050Y114599D01*
X74610Y114788D01*
X74185Y114923D01*
X73775Y115003D01*
X73380Y115030D01*
X79320Y119109D01*
X79059Y118857D01*
D02*
G37*
G36*
X66536Y118802D02*
X66531Y118598D01*
X66604Y118341D01*
X66756Y118030D01*
X66986Y117664D01*
X67295Y117245D01*
X68147Y116246D01*
X69314Y115030D01*
X66620Y112336D01*
X65985Y112959D01*
X63986Y114664D01*
X63620Y114894D01*
X63309Y115046D01*
X63052Y115119D01*
X62848Y115114D01*
X62699Y115030D01*
X66620Y118952D01*
X66536Y118802D01*
D02*
G37*
G36*
X70504Y111110D02*
X70561Y110457D01*
X70656Y109881D01*
X70790Y109382D01*
X70961Y108959D01*
X71171Y108614D01*
X71418Y108345D01*
X71704Y108153D01*
X72028Y108037D01*
X72390Y107999D01*
X64770D01*
X65132Y108037D01*
X65456Y108153D01*
X65742Y108345D01*
X65989Y108614D01*
X66199Y108959D01*
X66370Y109382D01*
X66504Y109881D01*
X66599Y110457D01*
X66656Y111110D01*
X66675Y111840D01*
X70485D01*
X70504Y111110D01*
D02*
G37*
G36*
X36574D02*
X36631Y110457D01*
X36727Y109881D01*
X36860Y109382D01*
X37031Y108959D01*
X37241Y108614D01*
X37489Y108345D01*
X37774Y108153D01*
X38098Y108037D01*
X38460Y107999D01*
X30840D01*
X31202Y108037D01*
X31526Y108153D01*
X31812Y108345D01*
X32059Y108614D01*
X32269Y108959D01*
X32440Y109382D01*
X32574Y109881D01*
X32669Y110457D01*
X32726Y111110D01*
X32745Y111840D01*
X36555D01*
X36574Y111110D01*
D02*
G37*
G36*
X20000Y92500D02*
X0D01*
Y107500D01*
X20000D01*
Y92500D01*
D02*
G37*
G36*
X85573Y86796D02*
X85628Y86148D01*
X85718Y85576D01*
X85845Y85081D01*
X86009Y84662D01*
X86208Y84319D01*
X86444Y84052D01*
X86716Y83862D01*
X87025Y83748D01*
X87369Y83709D01*
X79931D01*
X80275Y83748D01*
X80584Y83862D01*
X80856Y84052D01*
X81092Y84319D01*
X81291Y84662D01*
X81455Y85081D01*
X81582Y85576D01*
X81672Y86148D01*
X81727Y86796D01*
X81745Y87520D01*
X85555D01*
X85573Y86796D01*
D02*
G37*
G36*
X72098Y90052D02*
X71774Y89938D01*
X71488Y89748D01*
X71241Y89481D01*
X71031Y89138D01*
X70860Y88719D01*
X70726Y88224D01*
X70631Y87652D01*
X70574Y87004D01*
X70571Y86885D01*
X70573Y86796D01*
X70628Y86148D01*
X70718Y85576D01*
X70845Y85081D01*
X71009Y84662D01*
X71208Y84319D01*
X71444Y84052D01*
X71716Y83862D01*
X72025Y83748D01*
X72369Y83709D01*
X64931D01*
X65275Y83748D01*
X65584Y83862D01*
X65856Y84052D01*
X66092Y84319D01*
X66291Y84662D01*
X66455Y85081D01*
X66582Y85576D01*
X66672Y86148D01*
X66727Y86796D01*
X66729Y86885D01*
X66726Y87004D01*
X66669Y87652D01*
X66574Y88224D01*
X66440Y88719D01*
X66269Y89138D01*
X66059Y89481D01*
X65812Y89748D01*
X65526Y89938D01*
X65202Y90052D01*
X64840Y90091D01*
X72460D01*
X72098Y90052D01*
D02*
G37*
G36*
X87196Y80046D02*
X87175Y79614D01*
X87277Y79113D01*
X87500Y78543D01*
X87846Y77904D01*
X88315Y77196D01*
X88905Y76418D01*
X90453Y74658D01*
X91411Y73673D01*
X88619Y71076D01*
X87780Y71890D01*
X86300Y73156D01*
X85661Y73608D01*
X85089Y73941D01*
X84584Y74153D01*
X84145Y74246D01*
X83774Y74218D01*
X83469Y74069D01*
X83231Y73801D01*
X87339Y80409D01*
X87196Y80046D01*
D02*
G37*
G36*
X150000Y52500D02*
X130000D01*
Y56959D01*
X129985Y56981D01*
X129642Y57321D01*
X129223Y57600D01*
X128728Y57816D01*
X128157Y57971D01*
X127509Y58064D01*
X126785Y58095D01*
Y61905D01*
X127509Y61936D01*
X128157Y62029D01*
X128728Y62184D01*
X129223Y62400D01*
X129642Y62679D01*
X129985Y63019D01*
X130000Y63041D01*
Y67500D01*
X150000D01*
Y52500D01*
D02*
G37*
D12*
X34650Y99060D02*
D03*
X68650D02*
D03*
D13*
X119000Y142000D02*
D03*
Y158000D02*
D03*
D14*
X50950Y122500D02*
D03*
X63650D02*
D03*
X76350D02*
D03*
X89050D02*
D03*
X50950Y177500D02*
D03*
X63650D02*
D03*
X76350D02*
D03*
X89050D02*
D03*
D15*
X36500Y139820D02*
D03*
Y154820D02*
D03*
X104000Y142360D02*
D03*
Y157360D02*
D03*
D16*
X50950Y73000D02*
D03*
X63650Y227000D02*
D03*
D17*
X68650Y78740D02*
D03*
X83650D02*
D03*
X81400Y218440D02*
D03*
X96400D02*
D03*
Y201930D02*
D03*
X81400D02*
D03*
D18*
X126110Y218440D02*
D03*
X110110D02*
D03*
D30*
X90145Y170123D02*
Y176405D01*
X100905Y159205D02*
Y159362D01*
X102750Y157360D02*
X104000D01*
X89050Y177500D02*
X90145Y176405D01*
X100905Y159205D02*
X102750Y157360D01*
X90145Y170123D02*
X100905Y159362D01*
X50950Y73000D02*
Y122500D01*
Y40000D02*
Y73000D01*
X63650Y177500D02*
Y227000D01*
Y260000D01*
X119000Y158000D02*
Y204090D01*
X124867Y209957D02*
Y217197D01*
X127103Y219433D01*
X119000Y204090D02*
X124867Y209957D01*
X127103Y219433D02*
X134343D01*
X140000Y225090D02*
Y235000D01*
X134343Y219433D02*
X140000Y225090D01*
X96400Y218440D02*
X110110D01*
X81400Y201930D02*
Y218440D01*
X89322Y187112D02*
X95664Y193454D01*
X89322Y177771D02*
Y187112D01*
X95664Y193454D02*
Y201194D01*
X96400Y201930D01*
X89050Y177500D02*
X89322Y177771D01*
X76200Y166370D02*
Y177500D01*
X76350D02*
Y195630D01*
X81400Y200680D01*
Y201930D01*
X50800Y177284D02*
Y182150D01*
X17500Y195000D02*
Y200274D01*
X32136D02*
X49315Y183095D01*
X17500Y200274D02*
X32136D01*
X132500Y120000D02*
X150000D01*
X126380D02*
X132500D01*
Y125000D01*
Y60000D02*
X150000D01*
X102390D02*
X132500D01*
Y65000D01*
Y55000D02*
Y60000D01*
X290Y200660D02*
X17500D01*
Y205000D01*
X119000Y127380D02*
X126380Y120000D01*
X119000Y127380D02*
Y142000D01*
X114120Y122500D02*
X119000Y127380D01*
X89050Y122500D02*
X114120D01*
X49315Y183095D02*
X49855D01*
X50800Y182150D01*
X63650Y136040D02*
X69970Y142360D01*
X63650Y122500D02*
Y136040D01*
X76350Y116690D02*
Y122500D01*
X68650Y78740D02*
Y99060D01*
X68580Y99130D02*
X68650Y99060D01*
X63650Y118000D02*
X68580Y113070D01*
Y99130D02*
Y113070D01*
X63650Y118000D02*
Y122500D01*
X34650Y126090D02*
X36500Y127940D01*
Y139820D01*
X34650Y99060D02*
Y126090D01*
X38100Y154820D02*
X64650D01*
X76200Y166370D01*
X69970Y142360D02*
X104000D01*
X138780Y116840D02*
X139700D01*
X86745Y75645D02*
X102390Y60000D01*
X83650Y77490D02*
Y78740D01*
Y77490D02*
X85495Y75645D01*
X86745D01*
X76350Y116690D02*
X83650Y109390D01*
Y78740D02*
Y109390D01*
D31*
X150000Y60000D02*
D03*
Y120000D02*
D03*
X0Y100000D02*
D03*
Y150000D02*
D03*
X150000Y180000D02*
D03*
Y240000D02*
D03*
X0Y200000D02*
D03*
D32*
X50950Y73000D02*
D03*
X63650Y227000D02*
D03*
D33*
X134000Y284000D02*
D03*
X16000D02*
D03*
X134000Y16000D02*
D03*
X16000D02*
D03*
D34*
X140000Y115000D02*
D03*
Y245000D02*
D03*
X10000Y195000D02*
D03*
Y205000D02*
D03*
Y145000D02*
D03*
Y155000D02*
D03*
Y95000D02*
D03*
Y105000D02*
D03*
X140000Y65000D02*
D03*
Y55000D02*
D03*
Y125000D02*
D03*
Y185000D02*
D03*
Y175000D02*
D03*
Y235000D02*
D03*
D35*
X50950Y40000D02*
D03*
X63650Y260000D02*
D03*
M02*
