G04*
G04 #@! TF.GenerationSoftware,Altium Limited,Altium Designer,22.4.2 (48)*
G04*
G04 Layer_Color=32768*
%FSLAX44Y44*%
%MOMM*%
G71*
G04*
G04 #@! TF.SameCoordinates,75CB8345-09F5-4D96-8CD2-F517BF26F09A*
G04*
G04*
G04 #@! TF.FilePolarity,Positive*
G04*
G01*
G75*
%ADD10C,0.1270*%
%ADD11C,0.1000*%
D10*
X26758Y110236D02*
X76542D01*
X26758Y87884D02*
Y110236D01*
Y87884D02*
X76542D01*
Y110236D01*
X112142Y135268D02*
Y164732D01*
X125858D01*
Y135268D02*
Y164732D01*
X112142Y135268D02*
X125858D01*
X44600Y113170D02*
Y189370D01*
X95400Y113170D02*
Y189370D01*
X44600Y113170D02*
X95400D01*
X44600Y189370D02*
X95400D01*
X40790Y83160D02*
X61110D01*
Y62840D02*
Y83160D01*
X40790Y62840D02*
X61110D01*
X40790D02*
Y83160D01*
X53490Y237160D02*
X73810D01*
Y216840D02*
Y237160D01*
X53490Y216840D02*
X73810D01*
X53490D02*
Y237160D01*
X103378Y211582D02*
X132842D01*
X103378D02*
Y225298D01*
X132842D01*
Y211582D02*
Y225298D01*
D11*
X43500Y134320D02*
Y160320D01*
X29500Y134320D02*
X43500D01*
X29500D02*
Y160320D01*
X43500D01*
X63150Y71740D02*
X89150D01*
X63150D02*
Y85740D01*
X89150D01*
Y71740D02*
Y85740D01*
X75900Y211440D02*
X101900D01*
X75900D02*
Y225440D01*
X101900D01*
Y211440D02*
Y225440D01*
X75900Y208930D02*
X101900D01*
Y194930D02*
Y208930D01*
X75900Y194930D02*
X101900D01*
X75900D02*
Y208930D01*
X111000Y136860D02*
Y162860D01*
X97000Y136860D02*
X111000D01*
X97000D02*
Y162860D01*
X111000D01*
M02*
