G04*
G04 #@! TF.GenerationSoftware,Altium Limited,Altium Designer,22.4.2 (48)*
G04*
G04 Layer_Physical_Order=2*
G04 Layer_Color=16711680*
%FSLAX44Y44*%
%MOMM*%
G71*
G04*
G04 #@! TF.SameCoordinates,75CB8345-09F5-4D96-8CD2-F517BF26F09A*
G04*
G04*
G04 #@! TF.FilePolarity,Positive*
G04*
G01*
G75*
%ADD30C,0.3810*%
%ADD31C,1.0000*%
%ADD32C,0.7000*%
%ADD33C,1.5240*%
%ADD34C,0.3810*%
%ADD35C,0.7620*%
%ADD36R,9.0000X5.0000*%
G36*
X141943Y244412D02*
X142057Y243886D01*
X142248Y243422D01*
X142515Y243019D01*
X142858Y242679D01*
X143277Y242400D01*
X143772Y242184D01*
X144035Y242112D01*
X144220Y242160D01*
X144635Y242304D01*
X145030Y242479D01*
X145408Y242687D01*
X145767Y242926D01*
X146107Y243197D01*
X146429Y243500D01*
Y236500D01*
X146107Y236803D01*
X145767Y237074D01*
X145408Y237313D01*
X145030Y237521D01*
X144635Y237696D01*
X144220Y237840D01*
X144035Y237888D01*
X143772Y237816D01*
X143277Y237600D01*
X142858Y237321D01*
X142515Y236981D01*
X142248Y236578D01*
X142057Y236114D01*
X141943Y235588D01*
X141905Y235000D01*
X138095Y240000D01*
X141905Y245000D01*
X141943Y244412D01*
D02*
G37*
G36*
X11943Y204412D02*
X12057Y203886D01*
X12248Y203421D01*
X12515Y203019D01*
X12858Y202679D01*
X13277Y202400D01*
X13772Y202183D01*
X14343Y202029D01*
X14991Y201936D01*
X15715Y201905D01*
Y198095D01*
X14991Y198064D01*
X14343Y197971D01*
X13772Y197817D01*
X13277Y197600D01*
X12858Y197321D01*
X12515Y196981D01*
X12248Y196579D01*
X12057Y196114D01*
X11943Y195588D01*
X11905Y195000D01*
X8095D01*
X8057Y195588D01*
X7943Y196114D01*
X7752Y196579D01*
X7485Y196981D01*
X7143Y197321D01*
X6723Y197600D01*
X6228Y197817D01*
X5965Y197888D01*
X5780Y197840D01*
X5365Y197696D01*
X4970Y197521D01*
X4592Y197313D01*
X4233Y197074D01*
X3893Y196803D01*
X3571Y196500D01*
Y203500D01*
X3893Y203197D01*
X4233Y202926D01*
X4592Y202687D01*
X4970Y202479D01*
X5365Y202304D01*
X5780Y202160D01*
X5965Y202112D01*
X6228Y202183D01*
X6723Y202400D01*
X7143Y202679D01*
X7485Y203019D01*
X7752Y203421D01*
X7943Y203886D01*
X8057Y204412D01*
X8095Y205000D01*
X11905D01*
X11943Y204412D01*
D02*
G37*
G36*
X141943Y184412D02*
X142057Y183886D01*
X142248Y183421D01*
X142515Y183019D01*
X142858Y182679D01*
X143277Y182400D01*
X143772Y182184D01*
X144035Y182112D01*
X144220Y182160D01*
X144635Y182304D01*
X145030Y182479D01*
X145408Y182687D01*
X145767Y182926D01*
X146107Y183197D01*
X146429Y183500D01*
Y176500D01*
X146107Y176803D01*
X145767Y177074D01*
X145408Y177313D01*
X145030Y177521D01*
X144635Y177696D01*
X144220Y177840D01*
X144035Y177888D01*
X143772Y177817D01*
X143277Y177600D01*
X142858Y177321D01*
X142515Y176981D01*
X142248Y176579D01*
X142057Y176114D01*
X141943Y175588D01*
X141905Y175000D01*
X138095D01*
X138057Y175588D01*
X137943Y176114D01*
X137752Y176579D01*
X137485Y176981D01*
X137142Y177321D01*
X136723Y177600D01*
X136228Y177817D01*
X135657Y177971D01*
X135009Y178064D01*
X134285Y178095D01*
Y181905D01*
X135009Y181936D01*
X135657Y182029D01*
X136228Y182183D01*
X136723Y182400D01*
X137142Y182679D01*
X137485Y183019D01*
X137752Y183422D01*
X137943Y183886D01*
X138057Y184412D01*
X138095Y185000D01*
X141905D01*
X141943Y184412D01*
D02*
G37*
G36*
X122664Y175849D02*
X121867Y175026D01*
X120623Y173569D01*
X120176Y172935D01*
X119845Y172365D01*
X119631Y171858D01*
X119533Y171414D01*
X119552Y171033D01*
X119687Y170716D01*
X119939Y170461D01*
X113701Y174939D01*
X114048Y174779D01*
X114467Y174746D01*
X114959Y174838D01*
X115523Y175056D01*
X116160Y175400D01*
X116870Y175871D01*
X117653Y176467D01*
X119436Y178037D01*
X120437Y179011D01*
X122664Y175849D01*
D02*
G37*
G36*
X11943Y154412D02*
X12057Y153886D01*
X12248Y153421D01*
X12515Y153019D01*
X12858Y152679D01*
X13277Y152400D01*
X13772Y152184D01*
X14343Y152029D01*
X14991Y151936D01*
X15715Y151905D01*
Y148095D01*
X14991Y148064D01*
X14343Y147971D01*
X13772Y147816D01*
X13277Y147600D01*
X12858Y147321D01*
X12515Y146981D01*
X12248Y146579D01*
X12057Y146114D01*
X11943Y145588D01*
X11905Y145000D01*
X8095D01*
X8057Y145588D01*
X7943Y146114D01*
X7752Y146579D01*
X7485Y146981D01*
X7143Y147321D01*
X6723Y147600D01*
X6228Y147816D01*
X5965Y147888D01*
X5780Y147840D01*
X5365Y147696D01*
X4970Y147521D01*
X4592Y147313D01*
X4233Y147074D01*
X3893Y146803D01*
X3571Y146500D01*
Y153500D01*
X3893Y153197D01*
X4233Y152926D01*
X4592Y152687D01*
X4970Y152479D01*
X5365Y152304D01*
X5780Y152160D01*
X5965Y152112D01*
X6228Y152184D01*
X6723Y152400D01*
X7143Y152679D01*
X7485Y153019D01*
X7752Y153421D01*
X7943Y153886D01*
X8057Y154412D01*
X8095Y155000D01*
X11905D01*
X11943Y154412D01*
D02*
G37*
G36*
X30031Y146190D02*
X29992Y146552D01*
X29878Y146876D01*
X29688Y147162D01*
X29421Y147409D01*
X29078Y147619D01*
X28659Y147790D01*
X28164Y147924D01*
X27592Y148019D01*
X26944Y148076D01*
X26221Y148095D01*
Y151905D01*
X26944Y151924D01*
X27592Y151981D01*
X28164Y152077D01*
X28659Y152210D01*
X29078Y152381D01*
X29421Y152591D01*
X29688Y152838D01*
X29878Y153124D01*
X29992Y153448D01*
X30031Y153810D01*
Y146190D01*
D02*
G37*
G36*
X141943Y124412D02*
X142057Y123886D01*
X142248Y123421D01*
X142515Y123019D01*
X142858Y122679D01*
X143277Y122400D01*
X143772Y122184D01*
X144035Y122112D01*
X144220Y122160D01*
X144635Y122304D01*
X145030Y122479D01*
X145408Y122687D01*
X145767Y122926D01*
X146107Y123197D01*
X146429Y123500D01*
Y116500D01*
X146107Y116803D01*
X145767Y117074D01*
X145408Y117313D01*
X145030Y117521D01*
X144635Y117696D01*
X144220Y117840D01*
X144035Y117888D01*
X143772Y117816D01*
X143277Y117600D01*
X142858Y117321D01*
X142515Y116981D01*
X142248Y116578D01*
X142057Y116114D01*
X141943Y115588D01*
X141905Y115000D01*
X138095Y120000D01*
X141905Y125000D01*
X141943Y124412D01*
D02*
G37*
G36*
X11943Y104412D02*
X12057Y103886D01*
X12248Y103421D01*
X12515Y103019D01*
X12858Y102679D01*
X13277Y102400D01*
X13772Y102184D01*
X14343Y102029D01*
X14991Y101936D01*
X15715Y101905D01*
Y98095D01*
X14991Y98064D01*
X14343Y97971D01*
X13772Y97816D01*
X13277Y97600D01*
X12858Y97321D01*
X12515Y96981D01*
X12248Y96579D01*
X12057Y96114D01*
X11943Y95588D01*
X11905Y95000D01*
X8095D01*
X8057Y95588D01*
X7943Y96114D01*
X7752Y96579D01*
X7485Y96981D01*
X7143Y97321D01*
X6723Y97600D01*
X6228Y97816D01*
X5965Y97888D01*
X5780Y97840D01*
X5365Y97696D01*
X4970Y97521D01*
X4592Y97313D01*
X4233Y97074D01*
X3893Y96803D01*
X3571Y96500D01*
Y103500D01*
X3893Y103197D01*
X4233Y102926D01*
X4592Y102687D01*
X4970Y102479D01*
X5365Y102304D01*
X5780Y102160D01*
X5965Y102112D01*
X6228Y102184D01*
X6723Y102400D01*
X7143Y102679D01*
X7485Y103019D01*
X7752Y103421D01*
X7943Y103886D01*
X8057Y104412D01*
X8095Y105000D01*
X11905D01*
X11943Y104412D01*
D02*
G37*
G36*
X141943Y64412D02*
X142057Y63886D01*
X142248Y63422D01*
X142515Y63019D01*
X142858Y62679D01*
X143277Y62400D01*
X143772Y62184D01*
X144035Y62112D01*
X144220Y62160D01*
X144635Y62304D01*
X145030Y62479D01*
X145408Y62687D01*
X145767Y62926D01*
X146107Y63197D01*
X146429Y63500D01*
Y56500D01*
X146107Y56803D01*
X145767Y57074D01*
X145408Y57313D01*
X145030Y57521D01*
X144635Y57696D01*
X144220Y57840D01*
X144035Y57888D01*
X143772Y57816D01*
X143277Y57600D01*
X142858Y57321D01*
X142515Y56981D01*
X142248Y56578D01*
X142057Y56114D01*
X141943Y55588D01*
X141905Y55000D01*
X138095Y60000D01*
X141905Y65000D01*
X141943Y64412D01*
D02*
G37*
D30*
X140000Y225090D02*
Y235000D01*
X10000Y200000D02*
X114910D01*
X140000Y225090D01*
Y240000D02*
Y245000D01*
Y235000D02*
Y240000D01*
X150000D01*
X10000Y100000D02*
X125000D01*
X0D02*
X10000D01*
Y105000D01*
Y95000D02*
Y100000D01*
X0Y150000D02*
X10000D01*
Y155000D01*
Y145000D02*
Y150000D01*
X0Y200000D02*
X10000D01*
Y205000D01*
Y195000D02*
Y200000D01*
X140000Y60000D02*
Y65000D01*
Y55000D02*
Y60000D01*
X150000D01*
X140000Y120000D02*
Y125000D01*
Y115000D02*
Y120000D01*
X150000D01*
X125000Y100000D02*
X140000Y115000D01*
Y180000D02*
X150000D01*
X140000D02*
Y185000D01*
Y175000D02*
Y180000D01*
X10000Y150000D02*
X75000D01*
X124120Y180000D02*
X140000D01*
X75000Y150000D02*
X95000D01*
X118095Y173975D02*
X124120Y180000D01*
X118095Y173095D02*
Y173975D01*
X95000Y150000D02*
X118095Y173095D01*
D31*
X150000Y60000D02*
D03*
Y120000D02*
D03*
X0Y100000D02*
D03*
Y150000D02*
D03*
X150000Y180000D02*
D03*
Y240000D02*
D03*
X0Y200000D02*
D03*
D32*
X50950Y73000D02*
D03*
X63650Y227000D02*
D03*
D33*
X134000Y284000D02*
D03*
X16000D02*
D03*
X134000Y16000D02*
D03*
X16000D02*
D03*
D34*
X140000Y115000D02*
D03*
Y245000D02*
D03*
X10000Y195000D02*
D03*
Y205000D02*
D03*
Y145000D02*
D03*
Y155000D02*
D03*
Y95000D02*
D03*
Y105000D02*
D03*
X140000Y65000D02*
D03*
Y55000D02*
D03*
Y125000D02*
D03*
Y185000D02*
D03*
Y175000D02*
D03*
Y235000D02*
D03*
D35*
X50950Y40000D02*
D03*
X63650Y260000D02*
D03*
D36*
X75000Y40000D02*
D03*
Y260000D02*
D03*
Y150000D02*
D03*
M02*
